<svg xmlns="http://www.w3.org/2000/svg" width="94" height="94" viewBox="0 0 94 94">
  <g id="Grupo_928181" data-name="Grupo 928181" transform="translate(-373 -4699.9)">
    <g id="Grupo_902290" data-name="Grupo 902290" transform="translate(32.5 4204.9)">
      <circle id="_2-vector" data-name="2-vector" cx="47" cy="47" r="47" transform="translate(340.5 495)" fill="#f6f6f6"/>
    </g>
    <path id="Trazado_752255" data-name="Trazado 752255" d="M16.328,0h-6.6V-21.016L3.242-19.121v-5l12.48-4.316h.605Zm28.32-11.621q0,5.762-2.588,8.887A8.943,8.943,0,0,1,34.766.391a8.991,8.991,0,0,1-7.344-3.145q-2.6-3.145-2.6-8.867v-5.2q0-5.762,2.588-8.887a8.965,8.965,0,0,1,7.314-3.125,8.969,8.969,0,0,1,7.324,3.145q2.6,3.145,2.6,8.887Zm-6.582-6.035a10.142,10.142,0,0,0-.8-4.58,2.677,2.677,0,0,0-2.539-1.514,2.613,2.613,0,0,0-2.471,1.406,9.555,9.555,0,0,0-.83,4.258v7.266a10.219,10.219,0,0,0,.8,4.658,2.687,2.687,0,0,0,2.539,1.475,2.651,2.651,0,0,0,2.48-1.436,9.756,9.756,0,0,0,.82-4.5Z" transform="translate(397 4760)" fill="#9dca4e"/>
  </g>
</svg>
