<svg xmlns="http://www.w3.org/2000/svg" xmlns:xlink="http://www.w3.org/1999/xlink" width="364" height="364" viewBox="0 0 364 364">
  <defs>
    <filter id="Elipse_6088" x="0" y="0" width="364" height="364" filterUnits="userSpaceOnUse">
      <feOffset dy="3" input="SourceAlpha"/>
      <feGaussianBlur stdDeviation="3" result="blur"/>
      <feFlood flood-opacity="0.161"/>
      <feComposite operator="in" in2="blur"/>
      <feComposite in="SourceGraphic"/>
    </filter>
  </defs>
  <g id="Grupo_914485" data-name="Grupo 914485" transform="translate(-1037 -12070)">
    <g transform="matrix(1, 0, 0, 1, 1037, 12070)" filter="url(#Elipse_6088)">
      <circle id="Elipse_6088-2" data-name="Elipse 6088" cx="173" cy="173" r="173" transform="translate(9 6)" fill="#fcf1ea"/>
    </g>
    <path id="Trazado_254296" data-name="Trazado 254296" d="M64.724,222.277c.187-13.227-22.366-35.213-26.594-73.239-3.526-31.53,18.153-59.295,38.937-69.5,19.4-9.513,28.992-6.06,41.954-13.9,18.137-10.975,20.342-36.248,47.02-45.074,12.681-4.2,26.136-.77,38.094,5.539S227.311,40.882,239.9,45.147c12.676,4.3,26.105,3.246,39.259,2.018,44.383-4.161,72.953,34.329,71.3,65.848-.978,18.725-7.043,31.437-15.567,42.6-4.8,6.273-11.89,13.17-9.55,21.148,1.04,3.641,3.885,6.054,6.242,8.743,7.864,9.066,10.673,24.446,7.2,36.773Z" transform="translate(1020.681 12124.745)" fill="#add7d3"/>
    <g id="Grupo_914486" data-name="Grupo 914486" transform="translate(-2656.739 9949.123)">
      <path id="Trazado_697947" data-name="Trazado 697947" d="M3952.8,2290.014a12.091,12.091,0,0,1-.957,1.677c-5.422,7.625-8.535,11.5-9.86,21.352-.656,4.879-.183,9.7-1.846,14.484-2.739,7.879-8.262,11.374-14.215,16.36-9.065,7.593-13.334,17.616-21.888,25.3-5.1,4.583-11.078,7.12-17.873,5.329-6.778-1.787-10.323-7.47-13.956-12.921-6.164-9.248-12.627-14.363-21.878-20.607-8.238-5.56-15.827-11.916-20.172-21.086-3.967-8.372-1.908-22.031-8.776-28.492a12.239,12.239,0,0,1-1.22-1.4h-28.545a11.916,11.916,0,0,1-3.631,2.109c-15.259,5.512-32.811,7.9-47.54-.315a11.992,11.992,0,0,1-2.413-1.793l-8.435-.321-.78,144.018h294l.1-141.254Z" transform="translate(0 -54.173)" fill="#956640"/>
      <path id="Trazado_697948" data-name="Trazado 697948" d="M4023.846,2285.44a3.857,3.857,0,0,1-3.285,4.3c-1.134.118-27.376,3.52-49.394-.039-19.671-3.207-23.269,4.458-26.124,10.6-.743,1.565-1.212,6.961-.2,17.051a17.817,17.817,0,0,1-3.676,13.3,16.061,16.061,0,0,1-2.894,2.777c-1.369.978-2.738,1.916-4.067,2.855-8.956,6.257-16.66,11.654-19.633,20.219-3.481,9.973-11.732,16.621-21.51,17.325-.586.039-1.134.078-1.681.078-7.548,0-14.235-3.755-17.4-9.816-.821-1.564-1.447-3.011-2.033-4.38-2.347-5.358-3.911-8.877-18.42-17.208-12.24-7-18.889-14.7-22.331-19.906a50.587,50.587,0,0,1-6.14-23.9,7.445,7.445,0,0,0-3.363-6.023c-5.788-4.341-20.61-7.078-43.41-.509-33.047,9.542-46.5-7-47.047-7.7a3.814,3.814,0,1,1,5.984-4.732c.508.586,11.224,13.062,38.912,5.084,21.666-6.257,40.4-5.593,50.176,1.76a14.866,14.866,0,0,1,6.414,12.124,43.248,43.248,0,0,0,4.967,19.827c2.894,4.38,8.721,11.068,19.632,17.325,15.917,9.112,18.576,13.844,21.626,20.806.509,1.212,1.095,2.5,1.838,3.911,1.956,3.793,6.571,5.984,11.733,5.632,6.765-.508,12.319-5.084,14.822-12.241,3.793-10.872,12.866-17.207,22.448-23.934,1.33-.939,2.66-1.877,4.029-2.816a9.154,9.154,0,0,0,1.408-1.368,10.62,10.62,0,0,0,2.033-7.7c-1.095-10.442-.782-17.521.861-21.04,4.615-9.894,11.928-18.537,34.3-14.939,20.884,3.4,46.891.039,47.125,0A3.829,3.829,0,0,1,4023.846,2285.44Z" transform="translate(-0.931 -47.52)"/>
      <path id="Trazado_697949" data-name="Trazado 697949" d="M4020.063,2625.7a3.833,3.833,0,1,1,0,7.665h-285.8a3.833,3.833,0,0,1,0-7.665Z" transform="translate(-0.942 -250.238)"/>
      <circle id="Elipse_6219" data-name="Elipse 6219" cx="7.822" cy="7.822" r="7.822" transform="translate(3986.154 2346.915)"/>
      <path id="Trazado_697950" data-name="Trazado 697950" d="M4363.471,2448.03a4.974,4.974,0,1,1-5.24-4.693A4.98,4.98,0,0,1,4363.471,2448.03Z" transform="translate(-364.529 -143.821)"/>
      <path id="Trazado_697951" data-name="Trazado 697951" d="M4355.338,2355.739c3.989,0,7.235,1.643,7.235,3.637s-3.246,3.6-7.235,3.6-7.235-1.6-7.235-3.6S4351.349,2355.739,4355.338,2355.739Z" transform="translate(-361.363 -92.711)"/>
      <path id="Trazado_697952" data-name="Trazado 697952" d="M4302.191,2479.969a7.215,7.215,0,1,1-7.235,7.235A7.21,7.21,0,0,1,4302.191,2479.969Z" transform="translate(-330.351 -165.201)"/>
      <path id="Trazado_697953" data-name="Trazado 697953" d="M4278.927,2377.43a8.78,8.78,0,1,1-8.761,8.8A8.813,8.813,0,0,1,4278.927,2377.43Z" transform="translate(-315.886 -105.368)"/>
      <path id="Trazado_697954" data-name="Trazado 697954" d="M4289.251,2587.476a4.981,4.981,0,0,1-4.693,5.24,4.974,4.974,0,0,1-.547-9.934A5.007,5.007,0,0,1,4289.251,2587.476Z" transform="translate(-321.244 -225.192)"/>
      <path id="Trazado_697955" data-name="Trazado 697955" d="M4240.651,2481.74a4.975,4.975,0,1,1-5.241-4.693A5.008,5.008,0,0,1,4240.651,2481.74Z" transform="translate(-292.862 -163.491)"/>
      <path id="Trazado_697956" data-name="Trazado 697956" d="M4212.3,2545.967a4.973,4.973,0,0,1-9.933.509,4.973,4.973,0,0,1,9.933-.509Z" transform="translate(-276.319 -200.969)"/>
      <path id="Trazado_697957" data-name="Trazado 697957" d="M4133,2347.567c2.777,3.246,3.441,7.939,1.838,12.945a28.6,28.6,0,0,1-8.643,12.4c-5.279,4.5-11.3,6.844-16.464,6.844a12.24,12.24,0,0,1-9.622-4.028c-2.776-3.207-3.441-7.939-1.8-12.945a27.64,27.64,0,0,1,8.643-12.358,28.345,28.345,0,0,1,13.532-6.648C4125.684,2342.952,4130.26,2344.36,4133,2347.567Zm-5.475,10.6c.782-2.425.665-4.458-.313-5.631a5.011,5.011,0,0,0-3.792-1.33,13.138,13.138,0,0,0-1.721.117,21.192,21.192,0,0,0-9.777,4.888,20.867,20.867,0,0,0-6.335,8.917c-.782,2.425-.665,4.458.313,5.631,2.19,2.542,9.229,1.525,15.291-3.676A20.862,20.862,0,0,0,4127.522,2358.165Z" transform="translate(-215.087 -85.595)"/>
      <path id="Trazado_697958" data-name="Trazado 697958" d="M4139.072,2211.8a28.067,28.067,0,0,1,2.308,14.939c-.744,5.2-3.442,9.112-7.354,10.793a10.561,10.561,0,0,1-4.3.861,15.137,15.137,0,0,1-8.564-2.973,28.2,28.2,0,0,1-9.269-11.927c-4.771-11.185-2.581-22.488,5.045-25.772C4124.563,2194.471,4134.3,2200.65,4139.072,2211.8Zm-5.28,13.805a20.947,20.947,0,0,0-1.721-10.794c-2.776-6.414-7.548-10.286-10.794-10.286a3.8,3.8,0,0,0-1.33.235c-3.089,1.329-4.184,8.33-1.017,15.682a20.5,20.5,0,0,0,6.61,8.721c2.072,1.447,4.067,1.956,5.475,1.33C4132.424,2229.9,4133.44,2228.1,4133.792,2225.6Z" transform="translate(-222.061 0)"/>
      <path id="Trazado_697959" data-name="Trazado 697959" d="M4137.923,2363.266c.979,1.173,1.1,3.207.313,5.631a20.863,20.863,0,0,1-6.335,8.917c-6.062,5.2-13.1,6.218-15.291,3.676-.978-1.173-1.1-3.207-.313-5.631a20.874,20.874,0,0,1,6.336-8.917,21.189,21.189,0,0,1,9.776-4.888,13.194,13.194,0,0,1,1.722-.117A5.012,5.012,0,0,1,4137.923,2363.266Z" transform="translate(-225.801 -96.327)" fill="#f7931e"/>
      <path id="Trazado_697960" data-name="Trazado 697960" d="M4142.794,2225.55a20.956,20.956,0,0,1,1.721,10.794c-.352,2.5-1.368,4.3-2.776,4.888-1.408.626-3.4.118-5.476-1.33a20.508,20.508,0,0,1-6.609-8.721c-3.167-7.353-2.072-14.353,1.017-15.682a3.8,3.8,0,0,1,1.33-.235C4135.246,2215.264,4140.018,2219.135,4142.794,2225.55Z" transform="translate(-232.784 -10.742)" fill="#f7931e"/>
      <path id="Trazado_697961" data-name="Trazado 697961" d="M4133.538,2577.906a7.02,7.02,0,1,1-7.039,7A6.994,6.994,0,0,1,4133.538,2577.906Z" transform="translate(-232.054 -222.348)"/>
      <path id="Trazado_697962" data-name="Trazado 697962" d="M4092.625,2538.271a4.955,4.955,0,1,1-5.2-4.693A4.95,4.95,0,0,1,4092.625,2538.271Z" transform="translate(-206.51 -196.48)"/>
      <path id="Trazado_697963" data-name="Trazado 697963" d="M4037.656,2287.833c7.9,9.229,9.152,20.649,2.817,26.046a11.5,11.5,0,0,1-7.7,2.7,18.127,18.127,0,0,1-5.241-.86,30.4,30.4,0,0,1-19.006-22.214c-.821-5.2.587-9.777,3.793-12.515C4018.611,2275.593,4029.757,2278.565,4037.656,2287.833Zm-2.15,20.258c2.581-2.19,1.525-9.229-3.676-15.292-3.872-4.536-8.6-6.844-11.811-6.844a4.23,4.23,0,0,0-2.738.822c-1.134,1.017-1.564,3.011-1.173,5.514a22.406,22.406,0,0,0,13.766,16.112C4032.3,2309.187,4034.333,2309.069,4035.506,2308.092Z" transform="translate(-163.078 -47.528)"/>
      <path id="Trazado_697964" data-name="Trazado 697964" d="M4042.583,2303.52c5.2,6.062,6.257,13.1,3.677,15.292-1.173.978-3.207,1.095-5.632.313a22.4,22.4,0,0,1-13.766-16.112c-.391-2.5.039-4.5,1.173-5.514a4.231,4.231,0,0,1,2.738-.821C4033.979,2296.676,4038.711,2298.983,4042.583,2303.52Z" transform="translate(-173.832 -58.247)" fill="#afc691"/>
      <path id="Trazado_697965" data-name="Trazado 697965" d="M4022.391,2563.164a8.78,8.78,0,1,1-8.76,8.8A8.779,8.779,0,0,1,4022.391,2563.164Z" transform="translate(-166.194 -213.747)"/>
      <path id="Trazado_697966" data-name="Trazado 697966" d="M3995.29,2495.128a4.974,4.974,0,1,1-9.933.547,4.974,4.974,0,0,1,9.933-.547Z" transform="translate(-149.691 -171.326)"/>
      <path id="Trazado_697967" data-name="Trazado 697967" d="M3925.052,2453.945a4.974,4.974,0,1,1-5.241-4.693A5.008,5.008,0,0,1,3925.052,2453.945Z" transform="translate(-108.706 -147.273)"/>
      <path id="Trazado_697968" data-name="Trazado 697968" d="M3916.919,2541.285a7.215,7.215,0,1,1-7.235,7.2A7.176,7.176,0,0,1,3916.919,2541.285Z" transform="translate(-105.54 -200.98)"/>
      <path id="Trazado_697969" data-name="Trazado 697969" d="M3907.736,2341.977a4.98,4.98,0,0,1-4.693,5.24,4.955,4.955,0,1,1,4.693-5.24Z" transform="translate(-98.625 -81.96)"/>
      <path id="Trazado_697970" data-name="Trazado 697970" d="M3844.953,2473.114a7.215,7.215,0,1,1-7.2,7.2A7.21,7.21,0,0,1,3844.953,2473.114Z" transform="translate(-63.569 -161.201)"/>
      <path id="Trazado_697971" data-name="Trazado 697971" d="M3828.364,2381.655a7.02,7.02,0,1,1-7.04,7.039A7,7,0,0,1,3828.364,2381.655Z" transform="translate(-53.98 -107.834)"/>
      <path id="Trazado_697972" data-name="Trazado 697972" d="M3804.826,2536.4a8.76,8.76,0,1,1-8.761,8.76A8.779,8.779,0,0,1,3804.826,2536.4Z" transform="translate(-39.241 -198.131)"/>
      <path id="Trazado_697973" data-name="Trazado 697973" d="M3786.792,2348.589a4.953,4.953,0,1,1-5.2-4.693A4.969,4.969,0,0,1,3786.792,2348.589Z" transform="translate(-28.053 -85.796)"/>
      <path id="Trazado_697974" data-name="Trazado 697974" d="M3782.315,2450.108a4.615,4.615,0,1,1-4.654,4.615A4.6,4.6,0,0,1,3782.315,2450.108Z" transform="translate(-28.502 -147.777)"/>
    </g>
  </g>
</svg>
