<svg xmlns="http://www.w3.org/2000/svg" width="222.293" height="175.883" viewBox="0 0 222.293 175.883">
  <g id="Grupo_916856" data-name="Grupo 916856" transform="translate(-2.746 -4.109)">
    <g id="Grupo_916596" data-name="Grupo 916596" transform="translate(2.746 12.757)">
      <g id="Grupo_916550" data-name="Grupo 916550" transform="translate(38.174)">
        <g id="Grupo_916544" data-name="Grupo 916544">
          <circle id="Elipse_6283" data-name="Elipse 6283" cx="7.789" cy="7.789" r="7.789" fill="#2b388f"/>
        </g>
        <g id="Grupo_916545" data-name="Grupo 916545" transform="translate(0.921 0.921)">
          <circle id="Elipse_6284" data-name="Elipse 6284" cx="6.868" cy="6.868" r="6.868" fill="#1b75bb"/>
        </g>
        <g id="Grupo_916546" data-name="Grupo 916546" transform="translate(2.573 6.998)">
          <ellipse id="Elipse_6285" data-name="Elipse 6285" cx="5.216" cy="3.547" rx="5.216" ry="3.547" fill="#25a9e0"/>
        </g>
        <g id="Grupo_916547" data-name="Grupo 916547" transform="translate(4.838 1.159)">
          <path id="Trazado_704281" data-name="Trazado 704281" d="M46.009,14.634c0,1.109-1.322,2.007-2.951,2.007s-2.952-.9-2.952-2.007,1.322-2.007,2.952-2.007S46.009,13.525,46.009,14.634Z" transform="translate(-40.106 -12.627)" fill="#25a9e0"/>
        </g>
        <g id="Grupo_916548" data-name="Grupo 916548" transform="translate(1.921 3.99)">
          <path id="Trazado_704282" data-name="Trazado 704282" d="M39.412,16.738a1.13,1.13,0,0,1-1.439.615,1.131,1.131,0,0,1-.188-1.554,1.13,1.13,0,0,1,1.439-.615A1.131,1.131,0,0,1,39.412,16.738Z" transform="translate(-37.572 -15.086)" fill="#fff"/>
        </g>
        <g id="Grupo_916549" data-name="Grupo 916549" transform="translate(3.48 1.915)">
          <path id="Trazado_704283" data-name="Trazado 704283" d="M40.372,14.669c-.579.378-1.2.448-1.391.158s.129-.83.708-1.207,1.2-.448,1.391-.159S40.952,14.291,40.372,14.669Z" transform="translate(-38.927 -13.283)" fill="#fff"/>
        </g>
      </g>
      <g id="Grupo_916553" data-name="Grupo 916553" transform="translate(40.643 11.824)">
        <g id="Grupo_916551" data-name="Grupo 916551">
          <path id="Trazado_704284" data-name="Trazado 704284" d="M43.917,23.353,41.372,41.008a1.673,1.673,0,0,1-1.89,1.414,1.561,1.561,0,0,1-.505-.158,1.664,1.664,0,0,1-.91-1.732c0-.025.008-.051.008-.076L41.4,22.932a1.275,1.275,0,0,1,.977-1.006,1.2,1.2,0,0,1,.517-.013A1.29,1.29,0,0,1,43.917,23.353Z" transform="translate(-38.048 -21.891)" fill="#404041"/>
        </g>
        <g id="Grupo_916552" data-name="Grupo 916552" transform="translate(0 0.035)">
          <path id="Trazado_704285" data-name="Trazado 704285" d="M42.373,21.921l-3.4,20.338a1.664,1.664,0,0,1-.91-1.732c0-.025.008-.051.008-.076L41.4,22.927A1.275,1.275,0,0,1,42.373,21.921Z" transform="translate(-38.048 -21.921)" fill="#808184"/>
        </g>
      </g>
      <g id="Grupo_916560" data-name="Grupo 916560" transform="translate(56.715 27.472)">
        <g id="Grupo_916554" data-name="Grupo 916554">
          <circle id="Elipse_6286" data-name="Elipse 6286" cx="4.938" cy="4.938" r="4.938" transform="translate(0 6.983) rotate(-45)" fill="#2b388f"/>
        </g>
        <g id="Grupo_916555" data-name="Grupo 916555" transform="translate(0.826 0.826)">
          <circle id="Elipse_6287" data-name="Elipse 6287" cx="4.354" cy="4.354" r="4.354" transform="translate(0 6.157) rotate(-45)" fill="#1b75bb"/>
        </g>
        <g id="Grupo_916556" data-name="Grupo 916556" transform="translate(3.677 6.482)">
          <ellipse id="Elipse_6288" data-name="Elipse 6288" cx="3.307" cy="2.248" rx="3.307" ry="2.248" fill="#25a9e0"/>
        </g>
        <g id="Grupo_916557" data-name="Grupo 916557" transform="translate(5.113 2.78)">
          <path id="Trazado_704286" data-name="Trazado 704286" d="M60.192,39.169c0,.7-.838,1.272-1.871,1.272s-1.871-.569-1.871-1.272.837-1.272,1.871-1.272S60.192,38.467,60.192,39.169Z" transform="translate(-56.45 -37.897)" fill="#25a9e0"/>
        </g>
        <g id="Grupo_916558" data-name="Grupo 916558" transform="translate(3.263 4.575)">
          <path id="Trazado_704287" data-name="Trazado 704287" d="M56.009,40.5a.62.62,0,1,1-.119-.985A.716.716,0,0,1,56.009,40.5Z" transform="translate(-54.843 -39.457)" fill="#fff"/>
        </g>
        <g id="Grupo_916559" data-name="Grupo 916559" transform="translate(4.251 3.259)">
          <path id="Trazado_704288" data-name="Trazado 704288" d="M56.618,39.191c-.367.239-.762.284-.882.1s.082-.527.449-.766.762-.284.882-.1S56.986,38.953,56.618,39.191Z" transform="translate(-55.702 -38.313)" fill="#fff"/>
        </g>
      </g>
      <g id="Grupo_916567" data-name="Grupo 916567" transform="translate(15.305 43.277)">
        <g id="Grupo_916561" data-name="Grupo 916561">
          <circle id="Elipse_6289" data-name="Elipse 6289" cx="4.938" cy="4.938" r="4.938" transform="translate(0 9.611) rotate(-76.718)" fill="#2b388f"/>
        </g>
        <g id="Grupo_916562" data-name="Grupo 916562" transform="translate(1.587 1.587)">
          <circle id="Elipse_6290" data-name="Elipse 6290" cx="4.354" cy="4.354" r="4.354" fill="#1b75bb"/>
        </g>
        <g id="Grupo_916563" data-name="Grupo 916563" transform="translate(2.634 5.439)">
          <ellipse id="Elipse_6291" data-name="Elipse 6291" cx="3.307" cy="2.248" rx="3.307" ry="2.248" fill="#25a9e0"/>
        </g>
        <g id="Grupo_916564" data-name="Grupo 916564" transform="translate(4.069 1.737)">
          <path id="Trazado_704289" data-name="Trazado 704289" d="M23.317,51.991c0,.7-.838,1.272-1.871,1.272s-1.872-.569-1.872-1.272.838-1.272,1.872-1.272S23.317,51.289,23.317,51.991Z" transform="translate(-19.574 -50.719)" fill="#25a9e0"/>
        </g>
        <g id="Grupo_916565" data-name="Grupo 916565" transform="translate(2.22 3.532)">
          <path id="Trazado_704290" data-name="Trazado 704290" d="M19.134,53.326a.716.716,0,0,1-.912.389.827.827,0,1,1,.912-.389Z" transform="translate(-17.968 -52.279)" fill="#fff"/>
        </g>
        <g id="Grupo_916566" data-name="Grupo 916566" transform="translate(3.209 2.216)">
          <path id="Trazado_704291" data-name="Trazado 704291" d="M19.743,52.013c-.367.239-.762.284-.882.1s.082-.527.449-.766.762-.284.882-.1S20.111,51.775,19.743,52.013Z" transform="translate(-18.827 -51.135)" fill="#fff"/>
        </g>
      </g>
      <g id="Grupo_916568" data-name="Grupo 916568" transform="translate(43.907 32.783)">
        <path id="Trazado_704292" data-name="Trazado 704292" d="M57.6,42.688l-14.963.749a1.671,1.671,0,1,1-.167-3.339,1.5,1.5,0,0,1,.176,0l14.96.836a.878.878,0,0,1-.006,1.753Z" transform="translate(-40.884 -40.096)" fill="#404041"/>
      </g>
      <g id="Grupo_916569" data-name="Grupo 916569" transform="translate(22.313 36.732)">
        <path id="Trazado_704293" data-name="Trazado 704293" d="M22.462,53.656l13.076-9.8a1.671,1.671,0,1,1,2,2.674,1.576,1.576,0,0,1-.14.094l-14,8.418a.839.839,0,0,1-.936-1.391Z" transform="translate(-22.128 -43.526)" fill="#404041"/>
      </g>
      <g id="Grupo_916576" data-name="Grupo 916576" transform="translate(31.242 24.616)">
        <g id="Grupo_916570" data-name="Grupo 916570">
          <circle id="Elipse_6292" data-name="Elipse 6292" cx="8.405" cy="8.405" r="8.405" transform="translate(0 16.392) rotate(-77.202)" fill="#820010"/>
        </g>
        <g id="Grupo_916571" data-name="Grupo 916571" transform="translate(2.647 2.647)">
          <circle id="Elipse_6293" data-name="Elipse 6293" cx="7.41" cy="7.41" r="7.41" fill="#be1e2d"/>
        </g>
        <g id="Grupo_916572" data-name="Grupo 916572" transform="translate(4.429 9.204)">
          <ellipse id="Elipse_6294" data-name="Elipse 6294" cx="5.628" cy="3.827" rx="5.628" ry="3.827" fill="#ec1c24"/>
        </g>
        <g id="Grupo_916573" data-name="Grupo 916573" transform="translate(6.873 2.903)">
          <ellipse id="Elipse_6295" data-name="Elipse 6295" cx="3.185" cy="2.166" rx="3.185" ry="2.166" fill="#ec1c24"/>
        </g>
        <g id="Grupo_916574" data-name="Grupo 916574" transform="translate(3.726 5.959)">
          <path id="Trazado_704294" data-name="Trazado 704294" d="M35.1,39.96a1.055,1.055,0,1,1-1.755-1.013A1.055,1.055,0,1,1,35.1,39.96Z" transform="translate(-33.119 -38.178)" fill="#fff"/>
        </g>
        <g id="Grupo_916575" data-name="Grupo 916575" transform="translate(5.409 3.719)">
          <path id="Trazado_704295" data-name="Trazado 704295" d="M36.14,37.727c-.625.406-1.3.484-1.5.17s.138-.9.763-1.3,1.3-.484,1.5-.172S36.765,37.32,36.14,37.727Z" transform="translate(-34.581 -36.232)" fill="#fff"/>
        </g>
      </g>
      <g id="Grupo_916577" data-name="Grupo 916577" transform="translate(42.099 38.229)">
        <path id="Trazado_704296" data-name="Trazado 704296" d="M47.8,58.039a2.343,2.343,0,0,1-2.245,1.223,2.337,2.337,0,0,1-1.878-1.24,2.381,2.381,0,0,1-.113-.246L39.427,47.1a1.672,1.672,0,0,1,.956-2.161,1.636,1.636,0,0,1,.522-.108,1.663,1.663,0,0,1,1.561.889l5.345,10.127A2.337,2.337,0,0,1,47.8,58.039Z" transform="translate(-39.313 -44.826)" fill="#404041"/>
      </g>
      <g id="Grupo_916580" data-name="Grupo 916580" transform="translate(11.809 22.585)">
        <g id="Grupo_916578" data-name="Grupo 916578">
          <path id="Trazado_704297" data-name="Trazado 704297" d="M38,41.551a1.673,1.673,0,0,1-1.89,1.005l-20.25-4.223a3.58,3.58,0,0,1-2.779-4.239,3.626,3.626,0,0,1,.3-.873,3.579,3.579,0,0,1,3.94-1.907,4.44,4.44,0,0,1,.63.191l19.132,7.857A1.673,1.673,0,0,1,38,41.551Z" transform="translate(-13.003 -31.238)" fill="#404041"/>
        </g>
        <g id="Grupo_916579" data-name="Grupo 916579" transform="translate(0.381)">
          <path id="Trazado_704298" data-name="Trazado 704298" d="M38.021,40.486,13.334,33.222a3.579,3.579,0,0,1,3.94-1.907,4.44,4.44,0,0,1,.63.191l19.132,7.857A1.654,1.654,0,0,1,38.021,40.486Z" transform="translate(-13.334 -31.238)" fill="#808184"/>
        </g>
      </g>
      <g id="Grupo_916587" data-name="Grupo 916587" transform="translate(0 10.635)">
        <g id="Grupo_916581" data-name="Grupo 916581" transform="translate(3.111 3.111)">
          <circle id="Elipse_6296" data-name="Elipse 6296" cx="12.6" cy="12.6" r="12.6" fill="#2b388f"/>
        </g>
        <g id="Grupo_916582" data-name="Grupo 916582">
          <circle id="Elipse_6297" data-name="Elipse 6297" cx="11.109" cy="11.109" r="11.109" transform="translate(0 15.711) rotate(-45)" fill="#1b75bb"/>
        </g>
        <g id="Grupo_916583" data-name="Grupo 916583" transform="translate(7.273 14.431)">
          <ellipse id="Elipse_6298" data-name="Elipse 6298" cx="8.437" cy="5.737" rx="8.437" ry="5.737" fill="#25a9e0"/>
        </g>
        <g id="Grupo_916584" data-name="Grupo 916584" transform="translate(10.937 4.985)">
          <path id="Trazado_704299" data-name="Trazado 704299" d="M21.794,28.435c0,1.794-2.137,3.247-4.774,3.247s-4.773-1.453-4.773-3.247,2.137-3.247,4.773-3.247S21.794,26.642,21.794,28.435Z" transform="translate(-12.246 -25.188)" fill="#25a9e0"/>
        </g>
        <g id="Grupo_916585" data-name="Grupo 916585" transform="translate(6.218 9.567)">
          <path id="Trazado_704300" data-name="Trazado 704300" d="M11.122,31.839a1.826,1.826,0,0,1-2.328.994,1.828,1.828,0,0,1-.3-2.513,1.826,1.826,0,0,1,2.327-.994A1.827,1.827,0,0,1,11.122,31.839Z" transform="translate(-8.147 -29.168)" fill="#fff"/>
        </g>
        <g id="Grupo_916586" data-name="Grupo 916586" transform="translate(8.741 6.208)">
          <path id="Trazado_704301" data-name="Trazado 704301" d="M12.676,28.493c-.937.61-1.945.724-2.25.256s.207-1.344,1.144-1.954,1.945-.724,2.25-.256S13.613,27.882,12.676,28.493Z" transform="translate(-10.338 -26.251)" fill="#fff"/>
        </g>
      </g>
      <g id="Grupo_916588" data-name="Grupo 916588" transform="translate(42.513 38.231)">
        <path id="Trazado_704302" data-name="Trazado 704302" d="M47.748,58.039A2.343,2.343,0,0,1,45.5,59.262L39.673,45.4a1.65,1.65,0,0,1,1.177-.568Z" transform="translate(-39.673 -44.828)" fill="#808184"/>
      </g>
      <g id="Grupo_916595" data-name="Grupo 916595" transform="translate(37.651 40.931)">
        <g id="Grupo_916589" data-name="Grupo 916589">
          <circle id="Elipse_6299" data-name="Elipse 6299" cx="9.645" cy="9.645" r="9.645" transform="translate(0 13.64) rotate(-45)" fill="#2b388f"/>
        </g>
        <g id="Grupo_916590" data-name="Grupo 916590" transform="translate(5.136 5.136)">
          <circle id="Elipse_6300" data-name="Elipse 6300" cx="8.504" cy="8.504" r="8.504" fill="#1b75bb"/>
        </g>
        <g id="Grupo_916591" data-name="Grupo 916591" transform="translate(7.181 12.661)">
          <ellipse id="Elipse_6301" data-name="Elipse 6301" cx="6.459" cy="4.392" rx="6.459" ry="4.392" fill="#25a9e0"/>
        </g>
        <g id="Grupo_916592" data-name="Grupo 916592" transform="translate(9.986 5.43)">
          <path id="Trazado_704303" data-name="Trazado 704303" d="M51.433,54.374c0,1.373-1.637,2.486-3.655,2.486s-3.654-1.112-3.654-2.486,1.636-2.484,3.654-2.484S51.433,53,51.433,54.374Z" transform="translate(-44.124 -51.89)" fill="#25a9e0"/>
        </g>
        <g id="Grupo_916593" data-name="Grupo 916593" transform="translate(6.374 8.937)">
          <path id="Trazado_704304" data-name="Trazado 704304" d="M43.264,56.981a1.211,1.211,0,1,1-2.014-1.163,1.211,1.211,0,1,1,2.014,1.163Z" transform="translate(-40.987 -54.936)" fill="#fff"/>
        </g>
        <g id="Grupo_916594" data-name="Grupo 916594" transform="translate(8.305 6.366)">
          <path id="Trazado_704305" data-name="Trazado 704305" d="M44.453,54.418c-.717.467-1.489.555-1.722.2s.159-1.028.877-1.5,1.489-.555,1.721-.2S45.17,53.952,44.453,54.418Z" transform="translate(-42.664 -52.703)" fill="#fff"/>
        </g>
      </g>
    </g>
    <g id="Grupo_916644" data-name="Grupo 916644" transform="translate(150.306 96.334)">
      <g id="Grupo_916603" data-name="Grupo 916603" transform="translate(0 6.745)">
        <g id="Grupo_916597" data-name="Grupo 916597">
          <circle id="Elipse_6302" data-name="Elipse 6302" cx="8.058" cy="8.058" r="8.058" transform="translate(0 15.906) rotate(-80.735)" fill="#652d90"/>
        </g>
        <g id="Grupo_916598" data-name="Grupo 916598" transform="translate(2.146 2.146)">
          <circle id="Elipse_6303" data-name="Elipse 6303" cx="7.105" cy="7.105" r="7.105" fill="#7f3f97"/>
        </g>
        <g id="Grupo_916599" data-name="Grupo 916599" transform="translate(3.854 8.432)">
          <ellipse id="Elipse_6304" data-name="Elipse 6304" cx="5.396" cy="3.669" rx="5.396" ry="3.669" fill="#ba68c8"/>
        </g>
        <g id="Grupo_916600" data-name="Grupo 916600" transform="translate(6.197 2.391)">
          <ellipse id="Elipse_6305" data-name="Elipse 6305" cx="3.053" cy="2.076" rx="3.053" ry="2.076" fill="#ba68c8"/>
        </g>
        <g id="Grupo_916601" data-name="Grupo 916601" transform="translate(3.179 5.321)">
          <path id="Trazado_704306" data-name="Trazado 704306" d="M135.581,96.4a1.012,1.012,0,1,1-.193-1.607A1.169,1.169,0,0,1,135.581,96.4Z" transform="translate(-133.678 -94.695)" fill="#fff"/>
        </g>
        <g id="Grupo_916602" data-name="Grupo 916602" transform="translate(4.793 3.173)">
          <path id="Trazado_704307" data-name="Trazado 704307" d="M136.575,94.263c-.6.39-1.245.464-1.439.163s.132-.859.732-1.249,1.243-.463,1.439-.163S137.174,93.873,136.575,94.263Z" transform="translate(-135.08 -92.83)" fill="#fff"/>
        </g>
      </g>
      <g id="Grupo_916604" data-name="Grupo 916604" transform="translate(12.05 18.354)">
        <path id="Trazado_704308" data-name="Trazado 704308" d="M143.339,100.387l15.425,10.984a3.432,3.432,0,1,1-3.981,5.591,3.588,3.588,0,0,1-.586-.53l-12.505-14.221a1.237,1.237,0,0,1,1.647-1.825Z" transform="translate(-141.383 -100.157)" fill="#be1e2d"/>
      </g>
      <g id="Grupo_916611" data-name="Grupo 916611" transform="translate(59.31)">
        <g id="Grupo_916605" data-name="Grupo 916605">
          <circle id="Elipse_6306" data-name="Elipse 6306" cx="4.126" cy="4.126" r="4.126" transform="translate(0 6.439) rotate(-51.288)" fill="#ee4036"/>
        </g>
        <g id="Grupo_916606" data-name="Grupo 916606" transform="translate(0.686 0.686)">
          <circle id="Elipse_6307" data-name="Elipse 6307" cx="3.638" cy="3.638" r="3.638" transform="matrix(0.625, -0.781, 0.781, 0.625, 0, 5.679)" fill="#f05a28"/>
        </g>
        <g id="Grupo_916607" data-name="Grupo 916607" transform="translate(3.037 5.38)">
          <path id="Trazado_704309" data-name="Trazado 704309" d="M190.6,90.768c0,1.037-1.236,1.879-2.763,1.879s-2.763-.842-2.763-1.879,1.238-1.879,2.763-1.879S190.6,89.731,190.6,90.768Z" transform="translate(-185.071 -88.889)" fill="#f6921e"/>
        </g>
        <g id="Grupo_916608" data-name="Grupo 916608" transform="translate(4.236 2.288)">
          <path id="Trazado_704310" data-name="Trazado 704310" d="M189.24,87.266c0,.587-.7,1.063-1.563,1.063s-1.563-.475-1.563-1.063.7-1.063,1.563-1.063S189.24,86.678,189.24,87.266Z" transform="translate(-186.113 -86.203)" fill="#f6921e"/>
        </g>
        <g id="Grupo_916609" data-name="Grupo 916609" transform="translate(2.691 3.788)">
          <path id="Trazado_704311" data-name="Trazado 704311" d="M185.745,88.38a.518.518,0,1,1-.1-.822A.6.6,0,0,1,185.745,88.38Z" transform="translate(-184.771 -87.506)" fill="#fff"/>
        </g>
        <g id="Grupo_916610" data-name="Grupo 916610" transform="translate(3.518 2.688)">
          <path id="Trazado_704312" data-name="Trazado 704312" d="M186.255,87.284c-.307.2-.637.237-.737.084s.068-.44.374-.64.638-.237.737-.084S186.561,87.084,186.255,87.284Z" transform="translate(-185.489 -86.55)" fill="#fff"/>
        </g>
      </g>
      <g id="Grupo_916612" data-name="Grupo 916612" transform="translate(58.054 8.081)">
        <path id="Trazado_704313" data-name="Trazado 704313" d="M181.456,102.48l4.987-10.847a.683.683,0,0,1,1.264.512L183.735,103.4a1.231,1.231,0,0,1-2.322-.82C181.426,102.55,181.441,102.513,181.456,102.48Z" transform="translate(-181.343 -91.235)" fill="#be1e2d"/>
      </g>
      <g id="Grupo_916619" data-name="Grupo 916619" transform="translate(61.009 43.489)">
        <g id="Grupo_916613" data-name="Grupo 916613">
          <circle id="Elipse_6308" data-name="Elipse 6308" cx="4.126" cy="4.126" r="4.126" transform="translate(0 5.835) rotate(-45)" fill="#ee4036"/>
        </g>
        <g id="Grupo_916614" data-name="Grupo 916614" transform="translate(2.198 2.197)">
          <path id="Trazado_704314" data-name="Trazado 704314" d="M193.093,127.537a3.637,3.637,0,1,1-3.638-3.638A3.637,3.637,0,0,1,193.093,127.537Z" transform="translate(-185.818 -123.899)" fill="#f05a28"/>
        </g>
        <g id="Grupo_916615" data-name="Grupo 916615" transform="translate(3.073 5.416)">
          <path id="Trazado_704315" data-name="Trazado 704315" d="M192.1,128.573c0,1.038-1.236,1.879-2.763,1.879s-2.762-.84-2.762-1.879,1.236-1.878,2.762-1.878S192.1,127.535,192.1,128.573Z" transform="translate(-186.578 -126.695)" fill="#f6921e"/>
        </g>
        <g id="Grupo_916616" data-name="Grupo 916616" transform="translate(4.272 2.323)">
          <path id="Trazado_704316" data-name="Trazado 704316" d="M190.746,125.071c0,.587-.7,1.064-1.563,1.064s-1.562-.477-1.562-1.064.7-1.063,1.562-1.063S190.746,124.483,190.746,125.071Z" transform="translate(-187.62 -124.008)" fill="#f6921e"/>
        </g>
        <g id="Grupo_916617" data-name="Grupo 916617" transform="translate(2.726 3.823)">
          <path id="Trazado_704317" data-name="Trazado 704317" d="M187.252,126.186a.518.518,0,1,1-.1-.823A.6.6,0,0,1,187.252,126.186Z" transform="translate(-186.277 -125.311)" fill="#fff"/>
        </g>
        <g id="Grupo_916618" data-name="Grupo 916618" transform="translate(3.552 2.723)">
          <path id="Trazado_704318" data-name="Trazado 704318" d="M187.761,125.089c-.307.2-.637.237-.737.084s.068-.44.375-.639.637-.238.737-.084S188.068,124.89,187.761,125.089Z" transform="translate(-186.995 -124.356)" fill="#fff"/>
        </g>
      </g>
      <g id="Grupo_916620" data-name="Grupo 916620" transform="translate(58.056 25.561)">
        <path id="Trazado_704319" data-name="Trazado 704319" d="M188.38,128.01l-6.966-19.956a1.23,1.23,0,1,1,2.322-.81l.013.038,6.314,20.171a.886.886,0,0,1-1.682.557Z" transform="translate(-181.345 -106.418)" fill="#be1e2d"/>
      </g>
      <g id="Grupo_916627" data-name="Grupo 916627" transform="translate(18.358 61.042)">
        <g id="Grupo_916621" data-name="Grupo 916621">
          <circle id="Elipse_6309" data-name="Elipse 6309" cx="8.058" cy="8.058" r="8.058" transform="translate(0 15.906) rotate(-80.735)" fill="#652d90"/>
        </g>
        <g id="Grupo_916622" data-name="Grupo 916622" transform="translate(2.146 2.146)">
          <circle id="Elipse_6310" data-name="Elipse 6310" cx="7.105" cy="7.105" r="7.105" fill="#7f3f97"/>
        </g>
        <g id="Grupo_916623" data-name="Grupo 916623" transform="translate(3.854 8.432)">
          <ellipse id="Elipse_6311" data-name="Elipse 6311" cx="5.396" cy="3.669" rx="5.396" ry="3.669" fill="#ba68c8"/>
        </g>
        <g id="Grupo_916624" data-name="Grupo 916624" transform="translate(6.197 2.391)">
          <ellipse id="Elipse_6312" data-name="Elipse 6312" cx="3.053" cy="2.076" rx="3.053" ry="2.076" fill="#ba68c8"/>
        </g>
        <g id="Grupo_916625" data-name="Grupo 916625" transform="translate(3.18 5.321)">
          <path id="Trazado_704320" data-name="Trazado 704320" d="M151.527,143.566a1.012,1.012,0,1,1-.193-1.607A1.169,1.169,0,0,1,151.527,143.566Z" transform="translate(-149.625 -141.858)" fill="#fff"/>
        </g>
        <g id="Grupo_916626" data-name="Grupo 916626" transform="translate(4.793 3.173)">
          <path id="Trazado_704321" data-name="Trazado 704321" d="M152.521,141.426c-.6.39-1.243.464-1.439.163s.132-.859.732-1.249,1.243-.463,1.439-.163S153.12,141.036,152.521,141.426Z" transform="translate(-151.026 -139.993)" fill="#fff"/>
        </g>
      </g>
      <g id="Grupo_916634" data-name="Grupo 916634" transform="translate(52.229 17.412)">
        <g id="Grupo_916628" data-name="Grupo 916628">
          <circle id="Elipse_6313" data-name="Elipse 6313" cx="5.846" cy="5.846" r="5.846" fill="#652d90"/>
        </g>
        <g id="Grupo_916629" data-name="Grupo 916629" transform="translate(0.692 0.692)">
          <circle id="Elipse_6314" data-name="Elipse 6314" cx="5.154" cy="5.154" r="5.154" fill="#7f3f97"/>
        </g>
        <g id="Grupo_916630" data-name="Grupo 916630" transform="translate(1.931 5.252)">
          <ellipse id="Elipse_6315" data-name="Elipse 6315" cx="3.915" cy="2.662" rx="3.915" ry="2.662" fill="#ba68c8"/>
        </g>
        <g id="Grupo_916631" data-name="Grupo 916631" transform="translate(3.631 0.869)">
          <path id="Trazado_704322" data-name="Trazado 704322" d="M183.867,101.6c0,.831-.991,1.506-2.215,1.506s-2.215-.675-2.215-1.506.992-1.507,2.215-1.507S183.867,100.77,183.867,101.6Z" transform="translate(-179.437 -100.095)" fill="#ba68c8"/>
        </g>
        <g id="Grupo_916632" data-name="Grupo 916632" transform="translate(1.442 2.995)">
          <path id="Trazado_704323" data-name="Trazado 704323" d="M178.916,103.181a.734.734,0,1,1-.14-1.166A.85.85,0,0,1,178.916,103.181Z" transform="translate(-177.535 -101.941)" fill="#fff"/>
        </g>
        <g id="Grupo_916633" data-name="Grupo 916633" transform="translate(2.612 1.437)">
          <path id="Trazado_704324" data-name="Trazado 704324" d="M179.636,101.628c-.434.283-.9.336-1.043.12s.1-.624.531-.907.9-.336,1.044-.119S180.072,101.346,179.636,101.628Z" transform="translate(-178.552 -100.588)" fill="#fff"/>
        </g>
      </g>
      <g id="Grupo_916635" data-name="Grupo 916635" transform="translate(34.44 24.634)">
        <path id="Trazado_704325" data-name="Trazado 704325" d="M181.112,107.893,165.3,117.848a2.914,2.914,0,1,1-3.1-4.931,3.2,3.2,0,0,1,.464-.237l17.336-6.978a1.235,1.235,0,0,1,1.119,2.191Z" transform="translate(-160.831 -105.612)" fill="#be1e2d"/>
      </g>
      <g id="Grupo_916636" data-name="Grupo 916636" transform="translate(26.887 43.728)">
        <path id="Trazado_704326" data-name="Trazado 704326" d="M161.063,125.092,156.7,143.02a1.232,1.232,0,0,1-2.42-.437l2.185-18.321a2.341,2.341,0,0,1,4.649.555A2.485,2.485,0,0,1,161.063,125.092Z" transform="translate(-154.271 -122.197)" fill="#be1e2d"/>
      </g>
      <g id="Grupo_916643" data-name="Grupo 916643" transform="translate(16.494 21.443)">
        <g id="Grupo_916637" data-name="Grupo 916637">
          <circle id="Elipse_6316" data-name="Elipse 6316" cx="14.195" cy="14.195" r="14.195" transform="translate(0 27.938) rotate(-79.756)" fill="#ee4036"/>
        </g>
        <g id="Grupo_916638" data-name="Grupo 916638" transform="translate(1.36 1.36)">
          <circle id="Elipse_6317" data-name="Elipse 6317" cx="12.516" cy="12.516" r="12.516" transform="matrix(0.238, -0.971, 0.971, 0.238, 0, 24.313)" fill="#f05a28"/>
        </g>
        <g id="Grupo_916639" data-name="Grupo 916639" transform="translate(6.987 15.051)">
          <path id="Trazado_704327" data-name="Trazado 704327" d="M170.324,122.378c0,3.57-4.255,6.463-9.5,6.463s-9.506-2.893-9.506-6.463,4.256-6.464,9.506-6.464S170.324,118.808,170.324,122.378Z" transform="translate(-151.313 -115.914)" fill="#f6921e"/>
        </g>
        <g id="Grupo_916640" data-name="Grupo 916640" transform="translate(11.115 4.41)">
          <path id="Trazado_704328" data-name="Trazado 704328" d="M165.656,110.329c0,2.019-2.408,3.658-5.379,3.658s-5.379-1.638-5.379-3.658,2.408-3.658,5.379-3.658S165.656,108.308,165.656,110.329Z" transform="translate(-154.898 -106.671)" fill="#f6921e"/>
        </g>
        <g id="Grupo_916641" data-name="Grupo 916641" transform="translate(5.799 9.571)">
          <path id="Trazado_704329" data-name="Trazado 704329" d="M153.632,114.163a1.782,1.782,0,1,1-.341-2.831A2.06,2.06,0,0,1,153.632,114.163Z" transform="translate(-150.281 -111.154)" fill="#fff"/>
        </g>
        <g id="Grupo_916642" data-name="Grupo 916642" transform="translate(8.641 5.787)">
          <path id="Trazado_704330" data-name="Trazado 704330" d="M155.383,110.393c-1.056.687-2.191.816-2.534.289s.234-1.514,1.289-2.2,2.191-.816,2.534-.288S156.439,109.706,155.383,110.393Z" transform="translate(-152.75 -107.867)" fill="#fff"/>
        </g>
      </g>
    </g>
    <g id="Grupo_916680" data-name="Grupo 916680" transform="translate(79.123 4.908)">
      <g id="Grupo_916645" data-name="Grupo 916645" transform="translate(9.587 7.402)">
        <path id="Trazado_704331" data-name="Trazado 704331" d="M127.989,72.565c-2.9,0-6.5-1.041-10.6-3.108-7.029-3.539-14.805-9.683-21.9-17.3-8.655-9.3-15.115-19.632-17.279-27.644a.738.738,0,0,1,1.424-.385c2.1,7.792,8.437,17.893,16.935,27.024,6.977,7.492,14.606,13.526,21.483,16.989,6.561,3.3,11.768,3.852,14.286,1.507s2.343-7.578-.484-14.358c-2.963-7.107-8.437-15.146-15.413-22.64-14-15.04-30.382-23.512-35.769-18.5-1.251,1.165-1.848,3-1.773,5.457a.738.738,0,0,1-1.475.045c-.089-2.9.667-5.114,2.243-6.582,6.177-5.752,22.8,2.406,37.854,18.571,7.093,7.619,12.667,15.815,15.7,23.078,3.122,7.49,3.168,13.175.128,16.005A7.587,7.587,0,0,1,127.989,72.565Z" transform="translate(-77.415 -11.232)" fill="#404041"/>
      </g>
      <g id="Grupo_916652" data-name="Grupo 916652" transform="translate(7.215 14.393)">
        <g id="Grupo_916646" data-name="Grupo 916646">
          <path id="Trazado_704332" data-name="Trazado 704332" d="M82.134,20.694a3.389,3.389,0,1,1-3.389-3.389A3.389,3.389,0,0,1,82.134,20.694Z" transform="translate(-75.355 -17.305)" fill="#820010"/>
        </g>
        <g id="Grupo_916647" data-name="Grupo 916647" transform="translate(0.402 0.401)">
          <path id="Trazado_704333" data-name="Trazado 704333" d="M81.68,20.642a2.988,2.988,0,1,1-2.989-2.989A2.988,2.988,0,0,1,81.68,20.642Z" transform="translate(-75.704 -17.653)" fill="#be1e2d"/>
        </g>
        <g id="Grupo_916648" data-name="Grupo 916648" transform="translate(1.12 3.045)">
          <path id="Trazado_704334" data-name="Trazado 704334" d="M80.866,21.493c0,.852-1.015,1.544-2.269,1.544s-2.269-.692-2.269-1.544S77.343,19.95,78.6,19.95,80.866,20.641,80.866,21.493Z" transform="translate(-76.328 -19.95)" fill="#ec1c24"/>
        </g>
        <g id="Grupo_916649" data-name="Grupo 916649" transform="translate(2.105 0.504)">
          <ellipse id="Elipse_6318" data-name="Elipse 6318" cx="1.284" cy="0.873" rx="1.284" ry="0.873" fill="#ec1c24"/>
        </g>
        <g id="Grupo_916650" data-name="Grupo 916650" transform="translate(0.836 1.736)">
          <path id="Trazado_704335" data-name="Trazado 704335" d="M76.881,19.531a.425.425,0,1,1-.081-.676A.491.491,0,0,1,76.881,19.531Z" transform="translate(-76.081 -18.813)" fill="#fff"/>
        </g>
        <g id="Grupo_916651" data-name="Grupo 916651" transform="translate(1.515 0.833)">
          <path id="Trazado_704336" data-name="Trazado 704336" d="M77.3,18.631c-.252.165-.523.195-.606.069s.056-.361.309-.525.523-.2.6-.069S77.552,18.468,77.3,18.631Z" transform="translate(-76.671 -18.028)" fill="#fff"/>
        </g>
      </g>
      <g id="Grupo_916653" data-name="Grupo 916653" transform="translate(9.587 7.402)">
        <path id="Trazado_704337" data-name="Trazado 704337" d="M132.839,70.924a.738.738,0,0,1-.5-1.278c2.519-2.345,2.343-7.578-.484-14.358-2.963-7.107-8.437-15.146-15.413-22.64-14-15.04-30.382-23.512-35.769-18.5-1.251,1.165-1.848,3-1.773,5.457a.738.738,0,0,1-1.475.045c-.089-2.9.667-5.114,2.243-6.582,6.177-5.752,22.8,2.406,37.854,18.571,7.093,7.619,12.667,15.815,15.7,23.078,3.122,7.49,3.168,13.175.128,16.005A.738.738,0,0,1,132.839,70.924Z" transform="translate(-77.415 -11.232)" fill="#404041"/>
      </g>
      <g id="Grupo_916654" data-name="Grupo 916654" transform="translate(0 22.3)">
        <path id="Trazado_704338" data-name="Trazado 704338" d="M90.29,55.721c-11.756,0-20.053-2.763-21.094-7.781-1.574-7.59,14.134-17.048,35.76-21.533,10.184-2.113,20.049-2.754,27.777-1.806,7.989.979,12.817,3.587,13.6,7.343,1.574,7.59-14.134,17.049-35.76,21.533l-.15-.722.15.722A101.473,101.473,0,0,1,90.29,55.721Zm34.916-30.074a100.077,100.077,0,0,0-19.95,2.2C85.133,32.025,69.283,41.086,70.641,47.639S90.149,56.2,110.27,52.032,146.243,38.8,144.885,32.243c-.632-3.044-5.125-5.3-12.331-6.179A60.761,60.761,0,0,0,125.206,25.648Z" transform="translate(-69.088 -24.173)" fill="#5b5b5b"/>
      </g>
      <g id="Grupo_916655" data-name="Grupo 916655" transform="translate(20.66)">
        <path id="Trazado_704339" data-name="Trazado 704339" d="M95.782,80.941a6.071,6.071,0,0,1-1.687-.236C86.129,78.4,84.7,59.974,90.843,38.759S108.032,2.735,116,5.039s9.393,20.731,3.252,41.946C113.534,66.738,103.558,80.941,95.782,80.941ZM114.3,6.275c-6.909,0-16.666,14.346-22.037,32.894C86.545,58.908,87.573,77.28,94.5,79.287a4.607,4.607,0,0,0,1.3.181c6.909,0,16.666-14.346,22.037-32.893,5.714-19.74,4.686-38.112-2.245-40.118A4.613,4.613,0,0,0,114.3,6.275Z" transform="translate(-87.033 -4.803)" fill="#7c7c7c"/>
      </g>
      <g id="Grupo_916662" data-name="Grupo 916662" transform="translate(20.331 19.725)">
        <g id="Grupo_916656" data-name="Grupo 916656">
          <circle id="Elipse_6319" data-name="Elipse 6319" cx="18.344" cy="18.344" r="18.344" fill="#2b388f"/>
        </g>
        <g id="Grupo_916657" data-name="Grupo 916657" transform="translate(2.17 2.17)">
          <circle id="Elipse_6320" data-name="Elipse 6320" cx="16.174" cy="16.174" r="16.174" fill="#1b75bb"/>
        </g>
        <g id="Grupo_916658" data-name="Grupo 916658" transform="translate(6.06 16.481)">
          <ellipse id="Elipse_6321" data-name="Elipse 6321" cx="12.284" cy="8.353" rx="12.284" ry="8.353" fill="#25a9e0"/>
        </g>
        <g id="Grupo_916659" data-name="Grupo 916659" transform="translate(11.393 2.729)">
          <ellipse id="Elipse_6322" data-name="Elipse 6322" cx="6.951" cy="4.726" rx="6.951" ry="4.726" fill="#25a9e0"/>
        </g>
        <g id="Grupo_916660" data-name="Grupo 916660" transform="translate(4.524 9.399)">
          <path id="Trazado_704340" data-name="Trazado 704340" d="M95.008,33.988c-.814,1.41-2.331,2.058-3.389,1.448s-1.255-2.25-.44-3.659,2.331-2.058,3.388-1.448S95.822,32.578,95.008,33.988Z" transform="translate(-90.677 -30.1)" fill="#fff"/>
        </g>
        <g id="Grupo_916661" data-name="Grupo 916661" transform="translate(8.197 4.509)">
          <path id="Trazado_704341" data-name="Trazado 704341" d="M97.27,29.116c-1.364.889-2.831,1.056-3.275.373s.3-1.956,1.667-2.844,2.831-1.055,3.275-.373S98.634,28.228,97.27,29.116Z" transform="translate(-93.867 -25.853)" fill="#fff"/>
        </g>
      </g>
      <g id="Grupo_916663" data-name="Grupo 916663" transform="translate(11.602 7.402)">
        <path id="Trazado_704342" data-name="Trazado 704342" d="M132.574,70.924a.738.738,0,0,1-.5-1.278c2.519-2.345,2.343-7.578-.484-14.358-2.963-7.107-8.437-15.146-15.413-22.64-14-15.04-30.382-23.512-35.769-18.5a.738.738,0,0,1-1.005-1.08c6.177-5.752,22.8,2.406,37.854,18.571,7.093,7.619,12.667,15.815,15.7,23.078,3.122,7.49,3.168,13.175.128,16.005A.738.738,0,0,1,132.574,70.924Z" transform="translate(-79.165 -11.232)" fill="#757575"/>
      </g>
      <g id="Grupo_916664" data-name="Grupo 916664" transform="translate(0.093 29.482)">
        <path id="Trazado_704343" data-name="Trazado 704343" d="M90.278,54.778c-11.756,0-20.053-2.763-21.094-7.781a.738.738,0,0,1,1.445-.3c1.36,6.554,19.508,8.565,39.629,4.392S146.231,37.853,144.872,31.3a.738.738,0,1,1,1.445-.3c1.574,7.59-14.134,17.049-35.76,21.533A101.473,101.473,0,0,1,90.278,54.778Z" transform="translate(-69.168 -30.411)" fill="#9e9e9e"/>
      </g>
      <g id="Grupo_916671" data-name="Grupo 916671" transform="translate(48.804 44.619)">
        <g id="Grupo_916665" data-name="Grupo 916665">
          <circle id="Elipse_6323" data-name="Elipse 6323" cx="3.389" cy="3.389" r="3.389" fill="#820010"/>
        </g>
        <g id="Grupo_916666" data-name="Grupo 916666" transform="translate(0.401 0.401)">
          <path id="Trazado_704344" data-name="Trazado 704344" d="M117.8,46.9a2.988,2.988,0,1,1-2.988-2.988A2.988,2.988,0,0,1,117.8,46.9Z" transform="translate(-111.827 -43.908)" fill="#be1e2d"/>
        </g>
        <g id="Grupo_916667" data-name="Grupo 916667" transform="translate(1.12 3.045)">
          <path id="Trazado_704345" data-name="Trazado 704345" d="M116.99,47.748c0,.852-1.015,1.543-2.269,1.543s-2.269-.691-2.269-1.543,1.015-1.544,2.269-1.544S116.99,46.895,116.99,47.748Z" transform="translate(-112.452 -46.204)" fill="#ec1c24"/>
        </g>
        <g id="Grupo_916668" data-name="Grupo 916668" transform="translate(2.105 0.504)">
          <ellipse id="Elipse_6324" data-name="Elipse 6324" cx="1.284" cy="0.873" rx="1.284" ry="0.873" fill="#ec1c24"/>
        </g>
        <g id="Grupo_916669" data-name="Grupo 916669" transform="translate(0.836 1.736)">
          <path id="Trazado_704346" data-name="Trazado 704346" d="M113.005,45.787a.425.425,0,1,1-.082-.677A.492.492,0,0,1,113.005,45.787Z" transform="translate(-112.205 -45.067)" fill="#fff"/>
        </g>
        <g id="Grupo_916670" data-name="Grupo 916670" transform="translate(1.514 0.833)">
          <path id="Trazado_704347" data-name="Trazado 704347" d="M113.424,44.886c-.252.163-.524.195-.606.068s.056-.36.309-.525.523-.195.6-.069S113.676,44.722,113.424,44.886Z" transform="translate(-112.795 -44.283)" fill="#fff"/>
        </g>
      </g>
      <g id="Grupo_916672" data-name="Grupo 916672" transform="translate(20.66)">
        <path id="Trazado_704348" data-name="Trazado 704348" d="M94.3,80.734a.74.74,0,0,1-.2-.029C86.129,78.4,84.7,59.974,90.843,38.759S108.032,2.735,116,5.039a.738.738,0,0,1-.41,1.417C108.662,4.45,97.975,19.43,92.26,39.17S87.573,77.28,94.5,79.287a.738.738,0,0,1-.2,1.447Z" transform="translate(-87.033 -4.803)" fill="#c4c4c4"/>
      </g>
      <g id="Grupo_916679" data-name="Grupo 916679" transform="translate(18.76 62.146)">
        <g id="Grupo_916673" data-name="Grupo 916673">
          <path id="Trazado_704349" data-name="Trazado 704349" d="M92.162,62.171a3.389,3.389,0,1,1-3.389-3.388A3.389,3.389,0,0,1,92.162,62.171Z" transform="translate(-85.383 -58.783)" fill="#820010"/>
        </g>
        <g id="Grupo_916674" data-name="Grupo 916674" transform="translate(0.401 0.401)">
          <path id="Trazado_704350" data-name="Trazado 704350" d="M91.707,62.119a2.988,2.988,0,1,1-2.988-2.988A2.988,2.988,0,0,1,91.707,62.119Z" transform="translate(-85.731 -59.131)" fill="#be1e2d"/>
        </g>
        <g id="Grupo_916675" data-name="Grupo 916675" transform="translate(1.119 3.044)">
          <path id="Trazado_704351" data-name="Trazado 704351" d="M90.894,62.971c0,.852-1.015,1.543-2.269,1.543s-2.27-.691-2.27-1.543,1.017-1.544,2.27-1.544S90.894,62.119,90.894,62.971Z" transform="translate(-86.355 -61.427)" fill="#ec1c24"/>
        </g>
        <g id="Grupo_916676" data-name="Grupo 916676" transform="translate(2.105 0.504)">
          <ellipse id="Elipse_6325" data-name="Elipse 6325" cx="1.284" cy="0.873" rx="1.284" ry="0.873" fill="#ec1c24"/>
        </g>
        <g id="Grupo_916677" data-name="Grupo 916677" transform="translate(0.836 1.736)">
          <path id="Trazado_704352" data-name="Trazado 704352" d="M86.909,61.009a.426.426,0,1,1-.082-.676A.492.492,0,0,1,86.909,61.009Z" transform="translate(-86.109 -60.291)" fill="#fff"/>
        </g>
        <g id="Grupo_916678" data-name="Grupo 916678" transform="translate(1.514 0.833)">
          <path id="Trazado_704353" data-name="Trazado 704353" d="M87.328,60.109c-.252.163-.524.195-.606.069s.055-.361.307-.526.524-.195.606-.068S87.58,59.945,87.328,60.109Z" transform="translate(-86.698 -59.506)" fill="#fff"/>
        </g>
      </g>
    </g>
    <g id="Grupo_916707" data-name="Grupo 916707" transform="translate(92.854 98.685)">
      <g id="Grupo_916681" data-name="Grupo 916681" transform="translate(26.984)">
        <path id="Trazado_704354" data-name="Trazado 704354" d="M111.929,86.26c-9.545.26-7.547,21.926-6.727,28.561a12.17,12.17,0,0,0,4.172,8.163c-3.529,5.9-.4,14.891,2.541,20.913,3.134,6.422,5.078,12.21,10.128,10.846s4.035-6.145,1.061-11.34-6.118-13.889-7.9-16.186a50.274,50.274,0,0,0-3.933-4.3,33.041,33.041,0,0,0,3.217-3.478c2.213-2.838,1.4-8.618,2.093-12.07C117.6,102.3,121.179,86.009,111.929,86.26Z" transform="translate(-104.452 -86.258)" fill="#f05a28"/>
      </g>
      <g id="Grupo_916682" data-name="Grupo 916682" transform="translate(27.84 1.157)">
        <path id="Trazado_704355" data-name="Trazado 704355" d="M109.763,121.543c2.183.463,5.1-6.225,4.781-8.67s2.273-14.263,2.126-17.267-.142-8.278-4.071-8.342-4.64,1.751-6.438,7.977-.744,18.749.394,21.53A15.618,15.618,0,0,0,109.763,121.543Z" transform="translate(-105.195 -87.263)" fill="#f6921e"/>
      </g>
      <g id="Grupo_916683" data-name="Grupo 916683" transform="translate(31.124 37.467)">
        <path id="Trazado_704356" data-name="Trazado 704356" d="M109.412,118.8a11.454,11.454,0,0,1,5.124,5.936c1.249,3.911,9.849,17.08,9.4,19.059s-2.086,5.994-5.539,4.165-6.233-9.169-7.567-13.256S106.2,121.526,109.412,118.8Z" transform="translate(-108.048 -118.801)" fill="#f6921e"/>
      </g>
      <g id="Grupo_916684" data-name="Grupo 916684" transform="translate(35.126 43.245)">
        <path id="Trazado_704357" data-name="Trazado 704357" d="M119.685,146.317c.913-.448,2.764-3.945-.461-10.736s-6.682-12.361-7.615-11.71S117.565,147.356,119.685,146.317Z" transform="translate(-111.524 -123.82)" fill="#ffa852"/>
      </g>
      <g id="Grupo_916685" data-name="Grupo 916685" transform="translate(28.489 3.814)">
        <path id="Trazado_704358" data-name="Trazado 704358" d="M109.289,89.578c-1.246-.336-3.481,11.207-3.529,16.935-.022,2.7.943,12.164,3.068,12.1s.843-15.945,1.072-20.41S110.5,89.9,109.289,89.578Z" transform="translate(-105.76 -89.571)" fill="#ffa852"/>
      </g>
      <g id="Grupo_916686" data-name="Grupo 916686" transform="translate(0 6.8)">
        <path id="Trazado_704359" data-name="Trazado 704359" d="M83.066,92.827c-4.447,3.05-1.131,7.146,4.837,18.924,4.32,8.527,9.038,11.733,11.314,12.854-.922,1.913-2.356,6.466-.12,13.691,3.047,9.848,2.418,22.524,9.386,22.391s4.325-11.409,2.548-18.656c-1.687-6.873-3.055-14.709-10.029-17.976,1.051-3.612-.256-8.593-3.867-16.809C93.144,98.164,87.627,89.7,83.066,92.827Z" transform="translate(-81.014 -92.164)" fill="#f05a28"/>
      </g>
      <g id="Grupo_916687" data-name="Grupo 916687" transform="translate(1.733 8.336)">
        <path id="Trazado_704360" data-name="Trazado 704360" d="M84.219,93.626c5.322-1.535,10.67,11.233,12.191,14.86a44.528,44.528,0,0,1,3.385,14.663c-5.22-1.81-8.318-7.042-10.972-11.888a69.319,69.319,0,0,1-5.37-11.064c-.481-1.434-1.51-4.1-.517-5.55A2.384,2.384,0,0,1,84.219,93.626Z" transform="translate(-82.519 -93.498)" fill="#f6921e"/>
      </g>
      <g id="Grupo_916688" data-name="Grupo 916688" transform="translate(18.141 41.162)">
        <path id="Trazado_704361" data-name="Trazado 704361" d="M108.935,152.318a4.763,4.763,0,0,0,.881-2.491c.273-4.161-.938-8.248-1.962-12.233-.87-3.389-1.708-7.179-3.537-10.335-.93-1.606-5.1-7.708-6.677-4.154-2,4.512-.033,10.266.753,14.855.364,2.13,1.078,4.489,1.657,6.688.6,2.292.457,5.111,1.666,7.277A4.183,4.183,0,0,0,108.935,152.318Z" transform="translate(-96.771 -122.01)" fill="#f6921e"/>
      </g>
      <g id="Grupo_916689" data-name="Grupo 916689" transform="translate(21.526 42.659)">
        <path id="Trazado_704362" data-name="Trazado 704362" d="M105.633,153c1.23-.38,4.233-4.389,1.538-13.515s-5.922-16.772-7.215-16.141S102.776,153.885,105.633,153Z" transform="translate(-99.711 -123.311)" fill="#ffa852"/>
      </g>
      <g id="Grupo_916690" data-name="Grupo 916690" transform="translate(4.544 9.433)">
        <path id="Trazado_704363" data-name="Trazado 704363" d="M97.966,120.639c1.263-.264-1.97-11.568-4.521-16.7-1.2-2.414-6.347-10.419-8.213-9.4s6.468,14.6,8.283,18.684S96.735,120.9,97.966,120.639Z" transform="translate(-84.961 -94.451)" fill="#ffa852"/>
      </g>
      <g id="Grupo_916691" data-name="Grupo 916691" transform="translate(3.963 11.669)">
        <path id="Trazado_704364" data-name="Trazado 704364" d="M96.935,120.032a.246.246,0,0,1-.191-.4c.356-.439,1.283-1.831.884-2.461-.17-.271-.821-.15-1.449-.032-.946.175-2.125.395-2.474-.647-.307-.916.507-1.629,1.159-2.2.769-.672.982-.949.726-1.255-.353-.424-1.209-.288-2.035-.158-1.009.161-2.053.326-2.338-.56-.256-.792.538-1.459,1.3-2.1.486-.409,1.035-.873,1.053-1.211a.369.369,0,0,0-.131-.286c-.391-.406-1.134-.2-1.92.007-1.035.28-2.209.6-2.77-.55s.593-2.2,1.523-3.032c.406-.365.913-.82.906-1.021,0-.009,0-.03-.048-.067-.313-.249-1.051-.157-1.765-.069-1.177.144-2.509.307-3.041-.783-.441-.9.2-1.55.817-2.176.69-.7,1.4-1.421,1.124-2.643a1.77,1.77,0,0,0-.846-1.217A3.866,3.866,0,0,0,84.78,97.1a.246.246,0,1,1-.155-.466,4.309,4.309,0,0,1,3.038.1,2.244,2.244,0,0,1,1.085,1.537,3.177,3.177,0,0,1-1.253,3.1c-.647.656-1,1.055-.726,1.615.379.776,1.478.641,2.54.509a3.054,3.054,0,0,1,2.13.172.57.57,0,0,1,.235.439c.014.431-.464.86-1.07,1.4-.85.762-1.811,1.626-1.409,2.45.357.73,1.07.6,2.2.291.89-.241,1.81-.49,2.4.128a.852.852,0,0,1,.267.652c-.029.551-.61,1.042-1.227,1.561-.641.541-1.306,1.1-1.151,1.578.145.452.774.386,1.793.224.962-.152,1.958-.31,2.49.328.606.726-.13,1.371-.779,1.941-.6.525-1.22,1.068-1.018,1.675s.889.51,1.918.319c.791-.149,1.607-.3,1.956.253.657,1.044-.756,2.833-.919,3.034A.243.243,0,0,1,96.935,120.032Z" transform="translate(-84.456 -96.393)" fill="#f05a28"/>
      </g>
      <g id="Grupo_916692" data-name="Grupo 916692" transform="translate(19.79 43.08)">
        <path id="Trazado_704365" data-name="Trazado 704365" d="M104.791,151.333a2.189,2.189,0,0,1-.669-.1.246.246,0,1,1,.151-.469,2.737,2.737,0,0,0,2.666-1,1.994,1.994,0,0,0,.473-2.117c-.351-.733-1.614-.7-2.838-.672-1.438.037-2.924.071-3.125-1.177-.2-1.208,1.27-1.91,2.687-2.588,1.371-.657,2.252-1.132,2-1.7-.3-.687-1.63-.723-2.918-.759-1.5-.04-3.055-.083-3.392-1.178-.345-1.126,1.141-1.913,2.578-2.674,1.127-.6,2.292-1.212,2.061-1.758-.253-.6-1.491-.539-2.689-.479-1.446.068-2.942.143-3.256-.92-.324-1.1,1.269-1.778,2.674-2.38.717-.306,1.7-.728,1.749-1,.009-.048-.051-.113-.087-.147a3.28,3.28,0,0,0-2.263-.408c-1.055.033-2.252.073-2.383-1.037-.124-1.051.952-1.573,1.9-2.032.731-.355,1.486-.721,1.552-1.242a.574.574,0,0,0-.142-.462c-.5-.6-2.083-.821-2.649-.854a.246.246,0,0,1,.028-.49c.092,0,2.261.142,3,1.029a1.059,1.059,0,0,1,.251.838c-.1.787-.976,1.212-1.825,1.623-1.035.5-1.706.878-1.629,1.532.07.6.655.641,1.879.6a3.626,3.626,0,0,1,2.618.542.641.641,0,0,1,.234.591c-.1.538-.954.9-2.04,1.37-1.157.5-2.6,1.111-2.4,1.788s1.5.627,2.76.568c1.365-.067,2.779-.136,3.166.778.408.961-.9,1.653-2.283,2.385-1.2.637-2.564,1.357-2.337,2.1.231.756,1.606.794,2.935.83,1.443.039,2.935.081,3.356,1.055.455,1.05-.916,1.707-2.243,2.343-1.255.6-2.551,1.222-2.415,2.065.124.768,1.122.8,2.628.764,1.379-.036,2.8-.069,3.293.951a2.42,2.42,0,0,1-.546,2.654A3.491,3.491,0,0,1,104.791,151.333Z" transform="translate(-98.203 -123.677)" fill="#f05a28"/>
      </g>
      <g id="Grupo_916693" data-name="Grupo 916693" transform="translate(29.206 4.001)">
        <path id="Trazado_704366" data-name="Trazado 704366" d="M110.584,118.511a.249.249,0,0,1-.1-.021.246.246,0,0,1-.128-.324c.129-.294-.087-.442-.9-.8a3.3,3.3,0,0,1-1.784-1.346.754.754,0,0,1-.041-.659c.195-.439.82-.621,1.544-.83.834-.242,1.779-.516,1.857-1.178a.383.383,0,0,0-.071-.315c-.223-.273-.945-.333-1.644-.39-1.147-.1-2.446-.2-2.857-1.222a.77.77,0,0,1,.017-.726c.28-.437,1.032-.475,1.982-.524,1.544-.078,2.734-.219,2.836-1.233s-.747-1.216-2.157-1.437c-1.082-.168-2.2-.343-2.19-1.367a.924.924,0,0,1,.281-.688c.449-.425,1.318-.383,2.239-.338,1.2.054,2.056.052,2.16-.526.117-.654-.886-1.209-1.857-1.746-1.157-.639-2.353-1.3-1.862-2.318.45-.929,1.643-.9,2.694-.872.988.024,1.916.048,2.172-.61a.382.382,0,0,0,0-.324c-.2-.426-1.181-.747-2.046-1.03-1.219-.4-2.48-.812-2.215-1.717.242-.825,1.413-1,2.544-1.16.74-.108,1.58-.231,1.779-.536a.322.322,0,0,0,.023-.29c-.14-.511-1.1-.688-2.03-.86-1.017-.188-1.977-.365-2.282-1.009a1.331,1.331,0,0,1,.158-1.241,2.083,2.083,0,0,1,1.342-1.051c1.863-.49,4.507,1.137,4.619,1.208a.246.246,0,1,1-.259.418c-.025-.016-2.582-1.584-4.234-1.15a1.586,1.586,0,0,0-1.036.813.913.913,0,0,0-.146.792c.2.418,1.078.58,1.927.737,1.079.2,2.193.4,2.417,1.213a.817.817,0,0,1-.086.69c-.321.49-1.2.618-2.121.754s-1.989.29-2.143.812c-.131.447.946.8,1.9,1.111,1.052.344,2.046.67,2.337,1.287a.867.867,0,0,1,.013.713c-.381.981-1.529.949-2.643.923-.991-.028-1.926-.051-2.238.594-.269.556.481,1.023,1.657,1.673,1.122.622,2.283,1.263,2.1,2.265-.19,1.048-1.506.987-2.668.929-.777-.036-1.582-.075-1.879.206a.422.422,0,0,0-.125.335c-.006.558.665.7,1.772.876,1.216.19,2.729.426,2.572,1.971-.152,1.517-1.9,1.6-3.3,1.676-.679.035-1.451.074-1.593.3a.33.33,0,0,0,.025.279c.3.737,1.436.831,2.441.914.874.073,1.629.135,1.985.57a.872.872,0,0,1,.178.684c-.116.985-1.276,1.322-2.207,1.592-.531.154-1.131.328-1.233.557-.01.023-.04.091.035.243a2.907,2.907,0,0,0,1.542,1.113c.7.307,1.491.657,1.149,1.445A.247.247,0,0,1,110.584,118.511Z" transform="translate(-106.382 -89.733)" fill="#f05a28"/>
      </g>
      <g id="Grupo_916694" data-name="Grupo 916694" transform="translate(32.418 40.784)">
        <path id="Trazado_704367" data-name="Trazado 704367" d="M119.643,145.947a.246.246,0,0,1-.081-.479,2.623,2.623,0,0,0,1.461-2.254c.013-.326-.064-.472-.1-.488a5.241,5.241,0,0,0-1.368.248c-1.361.344-2.9.733-3.271-.157-.288-.7.568-1.531,1.474-2.417.551-.539,1.238-1.209,1.233-1.532a.112.112,0,0,0-.044-.092c-.266-.249-1.106.01-1.846.238-.895.275-1.821.561-2.39.23a.958.958,0,0,1-.451-.652c-.23-1.014.744-1.586,1.6-2.091.912-.535,1.451-.9,1.243-1.462s-1-.441-2.176-.189c-1.114.239-2.267.486-2.694-.389-.482-.989.823-1.772,1.976-2.464.656-.394,1.555-.934,1.463-1.222-.1-.3-1.248-.041-2.01.131-1.261.286-2.451.555-2.8-.161-.355-.735.593-1.449,1.6-2.207.634-.48,1.5-1.136,1.4-1.463-.109-.344-1.14-.195-1.969-.075-1.02.147-1.981.288-2.484-.108a.6.6,0,0,1-.241-.457c-.016-.539.668-1.149,1.459-1.854.54-.482,1.279-1.141,1.274-1.439-.008-.542-1.294-.888-1.916-.971a.246.246,0,0,1,.064-.488c.238.031,2.326.34,2.344,1.451.007.524-.663,1.121-1.439,1.813-.55.492-1.3,1.163-1.294,1.472,0,.022,0,.048.052.085.337.266,1.279.129,2.11.008,1.167-.169,2.271-.329,2.507.412.21.66-.656,1.314-1.573,2.006-.725.548-1.629,1.23-1.449,1.6s1.371.093,2.244-.1c1.212-.275,2.357-.533,2.589.2.208.659-.667,1.184-1.68,1.793-.972.583-2.071,1.242-1.787,1.826.258.53,1.22.324,2.149.123,1.111-.238,2.369-.508,2.741.5.363.988-.6,1.555-1.458,2.056-.92.54-1.513.941-1.373,1.558a.463.463,0,0,0,.219.335c.383.222,1.242-.041,2-.274.952-.292,1.85-.569,2.326-.13a.608.608,0,0,1,.2.447c.008.535-.636,1.164-1.38,1.892-.644.629-1.524,1.489-1.363,1.875.206.5,1.7.12,2.7-.131.885-.223,1.4-.345,1.684-.221s.417.46.4.958a3.1,3.1,0,0,1-1.793,2.7A.24.24,0,0,1,119.643,145.947Z" transform="translate(-109.172 -121.683)" fill="#f05a28"/>
      </g>
      <g id="Grupo_916697" data-name="Grupo 916697" transform="translate(2.503 9.752)">
        <g id="Grupo_916695" data-name="Grupo 916695">
          <path id="Trazado_704368" data-name="Trazado 704368" d="M84.908,94.728c.942.006,1.7,1.081,1.691,2.4s-.778,2.388-1.72,2.382-1.7-1.081-1.691-2.4S83.966,94.722,84.908,94.728Z" transform="translate(-83.188 -94.728)" fill="#fff"/>
        </g>
        <g id="Grupo_916696" data-name="Grupo 916696" transform="translate(1.397 6.156)">
          <path id="Trazado_704369" data-name="Trazado 704369" d="M84.729,100.172c.4-.25,1.007,0,1.357.562A1.068,1.068,0,0,1,86,102.2c-.4.25-1.007,0-1.357-.561A1.07,1.07,0,0,1,84.729,100.172Z" transform="translate(-84.402 -100.075)" fill="#fff"/>
        </g>
      </g>
      <g id="Grupo_916700" data-name="Grupo 916700" transform="translate(29.942 2.346)">
        <g id="Grupo_916698" data-name="Grupo 916698" transform="translate(1.381)">
          <path id="Trazado_704370" data-name="Trazado 704370" d="M111.727,88.582c.733.592.655,1.9-.174,2.932s-2.1,1.383-2.829.791-.655-1.9.174-2.932S110.993,87.991,111.727,88.582Z" transform="translate(-108.221 -88.296)" fill="#fff"/>
        </g>
        <g id="Grupo_916699" data-name="Grupo 916699" transform="translate(0 5.176)">
          <path id="Trazado_704371" data-name="Trazado 704371" d="M108.016,92.8c.467.053.786.629.711,1.285s-.515,1.144-.983,1.091-.786-.629-.711-1.285S107.548,92.741,108.016,92.8Z" transform="translate(-107.022 -92.791)" fill="#fff"/>
        </g>
      </g>
      <g id="Grupo_916703" data-name="Grupo 916703" transform="translate(18.017 42.371)">
        <g id="Grupo_916701" data-name="Grupo 916701">
          <ellipse id="Elipse_6326" data-name="Elipse 6326" cx="2.392" cy="1.705" rx="2.392" ry="1.705" transform="matrix(0.065, -0.998, 0.998, 0.065, 0, 4.773)" fill="#fff"/>
        </g>
        <g id="Grupo_916702" data-name="Grupo 916702" transform="translate(1.279 6.277)">
          <path id="Trazado_704372" data-name="Trazado 704372" d="M98.144,128.59c.413-.226,1.005.061,1.322.64a1.069,1.069,0,0,1-.175,1.459c-.413.226-1.005-.061-1.322-.641A1.068,1.068,0,0,1,98.144,128.59Z" transform="translate(-97.774 -128.513)" fill="#fff"/>
        </g>
      </g>
      <g id="Grupo_916706" data-name="Grupo 916706" transform="translate(30.885 39.62)">
        <g id="Grupo_916704" data-name="Grupo 916704">
          <path id="Trazado_704373" data-name="Trazado 704373" d="M109.706,120.674c.939.062,1.631,1.18,1.545,2.5s-.919,2.336-1.858,2.275-1.631-1.18-1.545-2.5S108.766,120.613,109.706,120.674Z" transform="translate(-107.841 -120.672)" fill="#fff"/>
        </g>
        <g id="Grupo_916705" data-name="Grupo 916705" transform="translate(1.13 6.168)">
          <path id="Trazado_704374" data-name="Trazado 704374" d="M109.192,126.106c.413-.226,1.005.061,1.322.641a1.069,1.069,0,0,1-.176,1.458c-.413.226-1.005-.061-1.322-.64A1.07,1.07,0,0,1,109.192,126.106Z" transform="translate(-108.822 -126.029)" fill="#fff"/>
        </g>
      </g>
    </g>
    <g id="Grupo_916758" data-name="Grupo 916758" transform="translate(153.271 4.109)">
      <g id="Grupo_916714" data-name="Grupo 916714" transform="translate(8.493 21.317)">
        <g id="Grupo_916708" data-name="Grupo 916708" transform="translate(0 0)">
          <circle id="Elipse_6327" data-name="Elipse 6327" cx="4.388" cy="4.388" r="4.388" fill="#820010"/>
        </g>
        <g id="Grupo_916709" data-name="Grupo 916709" transform="translate(0.519 0.519)">
          <circle id="Elipse_6328" data-name="Elipse 6328" cx="3.869" cy="3.869" r="3.869" fill="#be1e2d"/>
        </g>
        <g id="Grupo_916710" data-name="Grupo 916710" transform="translate(1.45 3.942)">
          <ellipse id="Elipse_6329" data-name="Elipse 6329" cx="2.938" cy="1.998" rx="2.938" ry="1.998" fill="#ec1c24"/>
        </g>
        <g id="Grupo_916711" data-name="Grupo 916711" transform="translate(2.726 0.652)">
          <path id="Trazado_704375" data-name="Trazado 704375" d="M146.562,24.322c0,.625-.745,1.131-1.662,1.131s-1.662-.505-1.662-1.131.744-1.131,1.662-1.131S146.562,23.7,146.562,24.322Z" transform="translate(-143.237 -23.191)" fill="#ec1c24"/>
        </g>
        <g id="Grupo_916712" data-name="Grupo 916712" transform="translate(1.082 2.248)">
          <path id="Trazado_704376" data-name="Trazado 704376" d="M142.845,25.507a.551.551,0,1,1-.1-.875A.636.636,0,0,1,142.845,25.507Z" transform="translate(-141.81 -24.577)" fill="#fff"/>
        </g>
        <g id="Grupo_916713" data-name="Grupo 916713" transform="translate(1.961 1.079)">
          <path id="Trazado_704377" data-name="Trazado 704377" d="M143.387,24.342c-.327.213-.678.253-.784.09s.073-.469.4-.68.677-.252.783-.089S143.713,24.13,143.387,24.342Z" transform="translate(-142.572 -23.561)" fill="#fff"/>
        </g>
      </g>
      <g id="Grupo_916715" data-name="Grupo 916715" transform="translate(14.093 26.533)">
        <path id="Trazado_704378" data-name="Trazado 704378" d="M164.028,41.445a1.972,1.972,0,0,1-2.745.482,1.935,1.935,0,0,1-.153-.119L146.085,28.937a1.016,1.016,0,0,1-.108-1.426.951.951,0,0,1,.364-.271,1.009,1.009,0,0,1,.983.1L163.541,38.7A1.969,1.969,0,0,1,164.028,41.445Z" transform="translate(-145.733 -27.156)" fill="#404041"/>
      </g>
      <g id="Grupo_916716" data-name="Grupo 916716" transform="translate(14.149 26.618)">
        <path id="Trazado_704379" data-name="Trazado 704379" d="M161.689,38.674l-1.363.979L145.782,27.829a1.012,1.012,0,0,1,.188-.329.952.952,0,0,1,.364-.271Z" transform="translate(-145.782 -27.229)" fill="#808184"/>
      </g>
      <g id="Grupo_916723" data-name="Grupo 916723" transform="translate(62.993 32.578)">
        <g id="Grupo_916717" data-name="Grupo 916717">
          <path id="Trazado_704380" data-name="Trazado 704380" d="M196.983,36.794a4.388,4.388,0,1,1-4.388-4.388A4.387,4.387,0,0,1,196.983,36.794Z" transform="translate(-188.208 -32.406)" fill="#820010"/>
        </g>
        <g id="Grupo_916718" data-name="Grupo 916718" transform="translate(0.519 0.519)">
          <circle id="Elipse_6330" data-name="Elipse 6330" cx="3.869" cy="3.869" r="3.869" fill="#be1e2d"/>
        </g>
        <g id="Grupo_916719" data-name="Grupo 916719" transform="translate(1.449 3.942)">
          <path id="Trazado_704381" data-name="Trazado 704381" d="M195.343,37.827c0,1.1-1.315,2-2.938,2s-2.938-.895-2.938-2,1.316-2,2.938-2S195.343,36.725,195.343,37.827Z" transform="translate(-189.467 -35.83)" fill="#ec1c24"/>
        </g>
        <g id="Grupo_916720" data-name="Grupo 916720" transform="translate(2.725 0.653)">
          <path id="Trazado_704382" data-name="Trazado 704382" d="M193.9,34.1c0,.624-.744,1.131-1.662,1.131s-1.662-.507-1.662-1.131.745-1.131,1.662-1.131S193.9,33.478,193.9,34.1Z" transform="translate(-190.575 -32.973)" fill="#ec1c24"/>
        </g>
        <g id="Grupo_916721" data-name="Grupo 916721" transform="translate(1.082 2.248)">
          <path id="Trazado_704383" data-name="Trazado 704383" d="M190.184,35.288a.551.551,0,1,1-.106-.875A.636.636,0,0,1,190.184,35.288Z" transform="translate(-189.148 -34.358)" fill="#fff"/>
        </g>
        <g id="Grupo_916722" data-name="Grupo 916722" transform="translate(1.961 1.078)">
          <path id="Trazado_704384" data-name="Trazado 704384" d="M190.725,34.124c-.326.212-.677.252-.783.089s.071-.467.4-.68.677-.252.783-.089S191.052,33.911,190.725,34.124Z" transform="translate(-189.911 -33.343)" fill="#fff"/>
        </g>
      </g>
      <g id="Grupo_916724" data-name="Grupo 916724" transform="translate(44.484 36.248)">
        <path id="Trazado_704385" data-name="Trazado 704385" d="M173.85,38.134l19.64-2.532a1.012,1.012,0,0,1,.355,1.991l-19.3,4.415a1.97,1.97,0,0,1-.878-3.841C173.724,38.153,173.789,38.142,173.85,38.134Z" transform="translate(-172.131 -35.594)" fill="#404041"/>
      </g>
      <g id="Grupo_916731" data-name="Grupo 916731" transform="translate(44.888 70.333)">
        <g id="Grupo_916725" data-name="Grupo 916725">
          <circle id="Elipse_6331" data-name="Elipse 6331" cx="4.388" cy="4.388" r="4.388" fill="#820010"/>
        </g>
        <g id="Grupo_916726" data-name="Grupo 916726" transform="translate(0.519 0.519)">
          <circle id="Elipse_6332" data-name="Elipse 6332" cx="3.869" cy="3.869" r="3.869" fill="#be1e2d"/>
        </g>
        <g id="Grupo_916727" data-name="Grupo 916727" transform="translate(1.449 3.943)">
          <path id="Trazado_704386" data-name="Trazado 704386" d="M179.618,70.622c0,1.1-1.316,2-2.939,2s-2.938-.895-2.938-2,1.316-2,2.938-2S179.618,69.52,179.618,70.622Z" transform="translate(-173.741 -68.625)" fill="#ec1c24"/>
        </g>
        <g id="Grupo_916728" data-name="Grupo 916728" transform="translate(2.725 0.652)">
          <path id="Trazado_704387" data-name="Trazado 704387" d="M178.175,66.9c0,.625-.745,1.131-1.664,1.131s-1.662-.505-1.662-1.131.745-1.131,1.662-1.131S178.175,66.274,178.175,66.9Z" transform="translate(-174.849 -65.767)" fill="#ec1c24"/>
        </g>
        <g id="Grupo_916729" data-name="Grupo 916729" transform="translate(1.082 2.248)">
          <path id="Trazado_704388" data-name="Trazado 704388" d="M174.458,68.083a.551.551,0,1,1-.106-.875A.636.636,0,0,1,174.458,68.083Z" transform="translate(-173.422 -67.153)" fill="#fff"/>
        </g>
        <g id="Grupo_916730" data-name="Grupo 916730" transform="translate(1.961 1.078)">
          <path id="Trazado_704389" data-name="Trazado 704389" d="M175,66.918c-.326.213-.677.252-.783.09s.073-.469.4-.68.677-.252.784-.09S175.326,66.706,175,66.918Z" transform="translate(-174.185 -66.137)" fill="#fff"/>
        </g>
      </g>
      <g id="Grupo_916732" data-name="Grupo 916732" transform="translate(40.152 51.635)">
        <path id="Trazado_704390" data-name="Trazado 704390" d="M172.228,50.372l5.6,18.993a1.012,1.012,0,0,1-1.909.665l-7.41-18.363a1.97,1.97,0,1,1,3.653-1.475C172.189,50.251,172.211,50.313,172.228,50.372Z" transform="translate(-168.369 -48.959)" fill="#404041"/>
      </g>
      <g id="Grupo_916739" data-name="Grupo 916739" transform="translate(13.713 18.802)">
        <g id="Grupo_916733" data-name="Grupo 916733" transform="translate(0 0)">
          <circle id="Elipse_6333" data-name="Elipse 6333" cx="17.224" cy="17.224" r="17.224" transform="translate(0 24.822) rotate(-46.101)" fill="#2b388f"/>
        </g>
        <g id="Grupo_916734" data-name="Grupo 916734" transform="translate(9.168 9.168)">
          <circle id="Elipse_6334" data-name="Elipse 6334" cx="15.187" cy="15.187" r="15.187" fill="#1b75bb"/>
        </g>
        <g id="Grupo_916735" data-name="Grupo 916735" transform="translate(12.82 22.605)">
          <ellipse id="Elipse_6335" data-name="Elipse 6335" cx="11.534" cy="7.843" rx="11.534" ry="7.843" fill="#25a9e0"/>
        </g>
        <g id="Grupo_916736" data-name="Grupo 916736" transform="translate(17.828 9.692)">
          <path id="Trazado_704391" data-name="Trazado 704391" d="M173.942,33.3c0,2.451-2.922,4.438-6.527,4.438s-6.527-1.987-6.527-4.438,2.922-4.438,6.527-4.438S173.942,30.846,173.942,33.3Z" transform="translate(-160.889 -28.859)" fill="#25a9e0"/>
        </g>
        <g id="Grupo_916737" data-name="Grupo 916737" transform="translate(11.377 15.955)">
          <path id="Trazado_704392" data-name="Trazado 704392" d="M159.353,37.95c-.764,1.324-2.19,1.933-3.182,1.36s-1.179-2.111-.414-3.435,2.19-1.933,3.182-1.36S160.118,36.626,159.353,37.95Z" transform="translate(-155.286 -34.299)" fill="#fff"/>
        </g>
        <g id="Grupo_916738" data-name="Grupo 916738" transform="translate(14.826 11.364)">
          <path id="Trazado_704393" data-name="Trazado 704393" d="M161.477,33.376c-1.281.834-2.657.99-3.075.35s.284-1.836,1.566-2.671,2.658-.99,3.075-.35S162.758,32.541,161.477,33.376Z" transform="translate(-158.282 -30.311)" fill="#fff"/>
        </g>
      </g>
      <g id="Grupo_916740" data-name="Grupo 916740" transform="translate(37.069 8.257)">
        <path id="Trazado_704394" data-name="Trazado 704394" d="M172.774,14.8a3.032,3.032,0,0,1-.045.526l-3.113,19.891a1.977,1.977,0,0,1-2.258,1.643,1.806,1.806,0,0,1-.295-.069,1.977,1.977,0,0,1-1.372-1.888l.074-20.127a2.947,2.947,0,0,1,.05-.556,3.5,3.5,0,0,1,6.959.58Z" transform="translate(-165.691 -11.281)" fill="#404041"/>
      </g>
      <g id="Grupo_916741" data-name="Grupo 916741" transform="translate(5.178 47.054)">
        <path id="Trazado_704395" data-name="Trazado 704395" d="M161.308,49.121,143.434,61.063a3.5,3.5,0,0,1-4.854-.969,3.557,3.557,0,0,1-.394-.782,3.5,3.5,0,0,1,1.362-4.067,3.2,3.2,0,0,1,.344-.206l19.128-9.808a2.26,2.26,0,0,1,3.024.939c.006.015.015.024.02.039A2.258,2.258,0,0,1,161.308,49.121Z" transform="translate(-137.991 -44.98)" fill="#404041"/>
      </g>
      <g id="Grupo_916742" data-name="Grupo 916742" transform="translate(37.069 11.193)">
        <path id="Trazado_704396" data-name="Trazado 704396" d="M168.775,14.19,167.063,36.4a1.977,1.977,0,0,1-1.372-1.888l.074-20.127a2.947,2.947,0,0,1,.05-.556Z" transform="translate(-165.691 -13.831)" fill="#808184"/>
      </g>
      <g id="Grupo_916749" data-name="Grupo 916749" transform="translate(31.261)">
        <g id="Grupo_916743" data-name="Grupo 916743" transform="translate(0.338 0.338)">
          <circle id="Elipse_6336" data-name="Elipse 6336" cx="7.512" cy="7.512" r="7.512" transform="translate(0 14.627) rotate(-76.805)" fill="#820010"/>
        </g>
        <g id="Grupo_916744" data-name="Grupo 916744">
          <circle id="Elipse_6337" data-name="Elipse 6337" cx="6.623" cy="6.623" r="6.623" transform="translate(0 9.367) rotate(-45)" fill="#be1e2d"/>
        </g>
        <g id="Grupo_916745" data-name="Grupo 916745" transform="translate(4.336 8.604)">
          <path id="Trazado_704397" data-name="Trazado 704397" d="M174.473,15c0,1.889-2.252,3.42-5.03,3.42s-5.031-1.531-5.031-3.42,2.253-3.42,5.031-3.42S174.473,13.113,174.473,15Z" transform="translate(-164.412 -11.582)" fill="#ec1c24"/>
        </g>
        <g id="Grupo_916746" data-name="Grupo 916746" transform="translate(6.52 2.972)">
          <ellipse id="Elipse_6338" data-name="Elipse 6338" cx="2.846" cy="1.935" rx="2.846" ry="1.935" fill="#ec1c24"/>
        </g>
        <g id="Grupo_916747" data-name="Grupo 916747" transform="translate(3.707 5.704)">
          <path id="Trazado_704398" data-name="Trazado 704398" d="M165.64,10.655a1.091,1.091,0,0,1-1.388.593,1.091,1.091,0,0,1-.181-1.5,1.09,1.09,0,0,1,1.388-.592A1.09,1.09,0,0,1,165.64,10.655Z" transform="translate(-163.866 -9.063)" fill="#fff"/>
        </g>
        <g id="Grupo_916748" data-name="Grupo 916748" transform="translate(5.211 3.701)">
          <path id="Trazado_704399" data-name="Trazado 704399" d="M166.566,8.66c-.56.364-1.159.433-1.341.153s.124-.8.683-1.164,1.159-.433,1.341-.153S167.124,8.3,166.566,8.66Z" transform="translate(-165.172 -7.324)" fill="#fff"/>
        </g>
      </g>
      <g id="Grupo_916750" data-name="Grupo 916750" transform="translate(5.178 47.054)">
        <path id="Trazado_704400" data-name="Trazado 704400" d="M162.046,46.17,138.187,59.312a3.5,3.5,0,0,1,1.362-4.067,3.2,3.2,0,0,1,.344-.206l19.128-9.808A2.26,2.26,0,0,1,162.046,46.17Z" transform="translate(-137.991 -44.98)" fill="#808184"/>
      </g>
      <g id="Grupo_916757" data-name="Grupo 916757" transform="translate(0 51.888)">
        <g id="Grupo_916751" data-name="Grupo 916751">
          <circle id="Elipse_6339" data-name="Elipse 6339" cx="8.493" cy="8.493" r="8.493" fill="#820010"/>
        </g>
        <g id="Grupo_916752" data-name="Grupo 916752" transform="translate(1.005 1.005)">
          <circle id="Elipse_6340" data-name="Elipse 6340" cx="7.488" cy="7.488" r="7.488" fill="#be1e2d"/>
        </g>
        <g id="Grupo_916753" data-name="Grupo 916753" transform="translate(2.806 7.631)">
          <path id="Trazado_704401" data-name="Trazado 704401" d="M147.3,59.674c0,2.136-2.547,3.867-5.687,3.867s-5.687-1.732-5.687-3.867,2.545-3.867,5.687-3.867S147.3,57.539,147.3,59.674Z" transform="translate(-135.93 -55.807)" fill="#ec1c24"/>
        </g>
        <g id="Grupo_916754" data-name="Grupo 916754" transform="translate(5.275 1.263)">
          <path id="Trazado_704402" data-name="Trazado 704402" d="M144.511,52.465c0,1.209-1.441,2.189-3.218,2.189s-3.219-.98-3.219-2.189,1.441-2.189,3.219-2.189S144.511,51.256,144.511,52.465Z" transform="translate(-138.074 -50.276)" fill="#ec1c24"/>
        </g>
        <g id="Grupo_916755" data-name="Grupo 916755" transform="translate(2.095 4.351)">
          <path id="Trazado_704403" data-name="Trazado 704403" d="M137.318,54.759a1.066,1.066,0,1,1-.2-1.694A1.232,1.232,0,0,1,137.318,54.759Z" transform="translate(-135.312 -52.958)" fill="#fff"/>
        </g>
        <g id="Grupo_916756" data-name="Grupo 916756" transform="translate(3.795 2.088)">
          <path id="Trazado_704404" data-name="Trazado 704404" d="M138.364,52.5c-.631.411-1.31.488-1.516.172s.14-.9.773-1.316,1.31-.488,1.516-.173S139,52.091,138.364,52.5Z" transform="translate(-136.789 -50.992)" fill="#fff"/>
        </g>
      </g>
    </g>
    <g id="Grupo_916855" data-name="Grupo 916855" transform="translate(8.55 86.062)">
      <g id="Grupo_916765" data-name="Grupo 916765" transform="translate(8.5 25.813)">
        <g id="Grupo_916759" data-name="Grupo 916759">
          <path id="Trazado_704405" data-name="Trazado 704405" d="M20.161,100.211a2.5,2.5,0,1,1-2.5-2.5A2.5,2.5,0,0,1,20.161,100.211Z" transform="translate(-15.17 -97.715)" fill="#652d90"/>
        </g>
        <g id="Grupo_916760" data-name="Grupo 916760" transform="translate(0.295 0.296)">
          <path id="Trazado_704406" data-name="Trazado 704406" d="M19.827,100.172a2.2,2.2,0,1,1-2.2-2.2A2.2,2.2,0,0,1,19.827,100.172Z" transform="translate(-15.426 -97.972)" fill="#7f3f97"/>
        </g>
        <g id="Grupo_916761" data-name="Grupo 916761" transform="translate(0.824 2.243)">
          <path id="Trazado_704407" data-name="Trazado 704407" d="M19.228,100.8c0,.627-.748,1.136-1.672,1.136s-1.671-.509-1.671-1.136.748-1.136,1.671-1.136S19.228,100.172,19.228,100.8Z" transform="translate(-15.886 -99.663)" fill="#ba68c8"/>
        </g>
        <g id="Grupo_916762" data-name="Grupo 916762" transform="translate(1.55 0.372)">
          <path id="Trazado_704408" data-name="Trazado 704408" d="M18.408,98.68c0,.356-.424.644-.946.644s-.945-.288-.945-.644.424-.642.945-.642S18.408,98.326,18.408,98.68Z" transform="translate(-16.516 -98.038)" fill="#ba68c8"/>
        </g>
        <g id="Grupo_916763" data-name="Grupo 916763" transform="translate(0.615 1.279)">
          <path id="Trazado_704409" data-name="Trazado 704409" d="M16.293,99.354a.313.313,0,1,1-.06-.5A.36.36,0,0,1,16.293,99.354Z" transform="translate(-15.704 -98.826)" fill="#fff"/>
        </g>
        <g id="Grupo_916764" data-name="Grupo 916764" transform="translate(1.114 0.614)">
          <path id="Trazado_704410" data-name="Trazado 704410" d="M16.6,98.692c-.185.121-.385.143-.446.051s.041-.266.227-.387.386-.144.446-.051S16.787,98.571,16.6,98.692Z" transform="translate(-16.138 -98.248)" fill="#fff"/>
        </g>
      </g>
      <g id="Grupo_916766" data-name="Grupo 916766" transform="translate(10.936 28.491)">
        <path id="Trazado_704411" data-name="Trazado 704411" d="M22.344,105.775a.736.736,0,0,1-.518-.213l-4.32-4.257a.738.738,0,0,1,1.036-1.051l4.32,4.257a.739.739,0,0,1-.518,1.264Z" transform="translate(-17.286 -100.041)" fill="#be1e2d"/>
      </g>
      <g id="Grupo_916773" data-name="Grupo 916773" transform="translate(0 61.811)">
        <g id="Grupo_916767" data-name="Grupo 916767">
          <path id="Trazado_704412" data-name="Trazado 704412" d="M12.778,131.479a2.5,2.5,0,1,1-2.495-2.5A2.495,2.495,0,0,1,12.778,131.479Z" transform="translate(-7.787 -128.983)" fill="#652d90"/>
        </g>
        <g id="Grupo_916768" data-name="Grupo 916768" transform="translate(0.296 0.296)">
          <path id="Trazado_704413" data-name="Trazado 704413" d="M12.444,131.44a2.2,2.2,0,1,1-2.2-2.2A2.2,2.2,0,0,1,12.444,131.44Z" transform="translate(-8.044 -129.24)" fill="#7f3f97"/>
        </g>
        <g id="Grupo_916769" data-name="Grupo 916769" transform="translate(0.824 2.243)">
          <path id="Trazado_704414" data-name="Trazado 704414" d="M11.845,132.067c0,.627-.748,1.136-1.671,1.136S8.5,132.695,8.5,132.067s.748-1.136,1.672-1.136S11.845,131.44,11.845,132.067Z" transform="translate(-8.503 -130.931)" fill="#ba68c8"/>
        </g>
        <g id="Grupo_916770" data-name="Grupo 916770" transform="translate(1.55 0.372)">
          <path id="Trazado_704415" data-name="Trazado 704415" d="M11.025,129.948c0,.356-.424.644-.945.644s-.946-.288-.946-.644.424-.642.946-.642S11.025,129.594,11.025,129.948Z" transform="translate(-9.133 -129.306)" fill="#ba68c8"/>
        </g>
        <g id="Grupo_916771" data-name="Grupo 916771" transform="translate(0.616 1.279)">
          <path id="Trazado_704416" data-name="Trazado 704416" d="M8.911,130.622a.362.362,0,0,1-.462.2.417.417,0,1,1,.462-.2Z" transform="translate(-8.322 -130.094)" fill="#fff"/>
        </g>
        <g id="Grupo_916772" data-name="Grupo 916772" transform="translate(1.115 0.614)">
          <path id="Trazado_704417" data-name="Trazado 704417" d="M9.219,129.96c-.185.121-.386.143-.446.051s.041-.266.227-.387.385-.144.446-.051S9.4,129.839,9.219,129.96Z" transform="translate(-8.756 -129.516)" fill="#fff"/>
        </g>
      </g>
      <g id="Grupo_916774" data-name="Grupo 916774" transform="translate(3.195 53.018)">
        <path id="Trazado_704418" data-name="Trazado 704418" d="M11.3,131.891a.738.738,0,0,1-.536-1.245l8.569-9.07a.737.737,0,1,1,1.072,1.013l-8.568,9.07A.734.734,0,0,1,11.3,131.891Z" transform="translate(-10.562 -121.346)" fill="#be1e2d"/>
      </g>
      <g id="Grupo_916781" data-name="Grupo 916781" transform="translate(36.195)">
        <g id="Grupo_916775" data-name="Grupo 916775">
          <circle id="Elipse_6341" data-name="Elipse 6341" cx="3.619" cy="3.619" r="3.619" transform="matrix(0.23, -0.973, 0.973, 0.23, 0, 7.044)" fill="#652d90"/>
        </g>
        <g id="Grupo_916776" data-name="Grupo 916776" transform="translate(1.165 1.165)">
          <path id="Trazado_704419" data-name="Trazado 704419" d="M46.621,79.5a3.191,3.191,0,1,1-3.191-3.191A3.191,3.191,0,0,1,46.621,79.5Z" transform="translate(-40.238 -76.306)" fill="#7f3f97"/>
        </g>
        <g id="Grupo_916777" data-name="Grupo 916777" transform="translate(1.933 3.988)">
          <path id="Trazado_704420" data-name="Trazado 704420" d="M45.752,80.407c0,.911-1.085,1.649-2.423,1.649S40.9,81.317,40.9,80.407s1.085-1.649,2.423-1.649S45.752,79.5,45.752,80.407Z" transform="translate(-40.905 -78.758)" fill="#ba68c8"/>
        </g>
        <g id="Grupo_916778" data-name="Grupo 916778" transform="translate(2.985 1.275)">
          <path id="Trazado_704421" data-name="Trazado 704421" d="M44.561,77.335c0,.515-.614.933-1.371.933s-1.371-.418-1.371-.933.614-.934,1.371-.934S44.561,76.819,44.561,77.335Z" transform="translate(-41.819 -76.401)" fill="#ba68c8"/>
        </g>
        <g id="Grupo_916779" data-name="Grupo 916779" transform="translate(1.629 2.591)">
          <path id="Trazado_704422" data-name="Trazado 704422" d="M41.5,78.312a.455.455,0,1,1-.087-.722A.525.525,0,0,1,41.5,78.312Z" transform="translate(-40.641 -77.544)" fill="#fff"/>
        </g>
        <g id="Grupo_916780" data-name="Grupo 916780" transform="translate(2.354 1.627)">
          <path id="Trazado_704423" data-name="Trazado 704423" d="M41.942,77.351c-.269.175-.558.208-.646.074s.06-.386.329-.562.558-.207.646-.073S42.212,77.176,41.942,77.351Z" transform="translate(-41.271 -76.707)" fill="#fff"/>
        </g>
      </g>
      <g id="Grupo_916782" data-name="Grupo 916782" transform="translate(35.647 5.457)">
        <path id="Trazado_704424" data-name="Trazado 704424" d="M38.809,91l3.356-10.574a.563.563,0,0,1,1.089.275L41.193,91.6a1.232,1.232,0,0,1-2.421-.458C38.781,91.1,38.795,91.046,38.809,91Z" transform="translate(-38.75 -80.034)" fill="#be1e2d"/>
      </g>
      <g id="Grupo_916789" data-name="Grupo 916789" transform="translate(10.616 49.42)">
        <g id="Grupo_916783" data-name="Grupo 916783">
          <path id="Trazado_704425" data-name="Trazado 704425" d="M23.414,121.423a3.2,3.2,0,1,1-3.2-3.2A3.2,3.2,0,0,1,23.414,121.423Z" transform="translate(-17.008 -118.22)" fill="#ee4036"/>
        </g>
        <g id="Grupo_916784" data-name="Grupo 916784" transform="translate(0.379 0.379)">
          <path id="Trazado_704426" data-name="Trazado 704426" d="M22.985,121.373a2.824,2.824,0,1,1-2.824-2.824A2.824,2.824,0,0,1,22.985,121.373Z" transform="translate(-17.337 -118.549)" fill="#f05a28"/>
        </g>
        <g id="Grupo_916785" data-name="Grupo 916785" transform="translate(1.058 2.878)">
          <ellipse id="Elipse_6342" data-name="Elipse 6342" cx="2.145" cy="1.458" rx="2.145" ry="1.458" fill="#f6921e"/>
        </g>
        <g id="Grupo_916786" data-name="Grupo 916786" transform="translate(1.99 0.476)">
          <ellipse id="Elipse_6343" data-name="Elipse 6343" cx="1.214" cy="0.825" rx="1.214" ry="0.825" fill="#f6921e"/>
        </g>
        <g id="Grupo_916787" data-name="Grupo 916787" transform="translate(0.79 1.641)">
          <path id="Trazado_704427" data-name="Trazado 704427" d="M18.45,120.324a.4.4,0,1,1-.669-.386.4.4,0,1,1,.669.386Z" transform="translate(-17.694 -119.645)" fill="#fff"/>
        </g>
        <g id="Grupo_916788" data-name="Grupo 916788" transform="translate(1.431 0.787)">
          <path id="Trazado_704428" data-name="Trazado 704428" d="M18.845,119.474c-.237.154-.494.184-.571.064s.053-.341.291-.5.494-.184.571-.064S19.083,119.318,18.845,119.474Z" transform="translate(-18.251 -118.904)" fill="#fff"/>
        </g>
      </g>
      <g id="Grupo_916790" data-name="Grupo 916790" transform="translate(13.709 35.313)">
        <path id="Trazado_704429" data-name="Trazado 704429" d="M20.434,121.461a.838.838,0,0,1-.14-.013.74.74,0,0,1-.586-.865L22.4,106.565a.738.738,0,1,1,1.449.279l-2.688,14.019A.737.737,0,0,1,20.434,121.461Z" transform="translate(-19.695 -105.966)" fill="#be1e2d"/>
      </g>
      <g id="Grupo_916797" data-name="Grupo 916797" transform="translate(14.447 31.167)">
        <g id="Grupo_916791" data-name="Grupo 916791">
          <path id="Trazado_704430" data-name="Trazado 704430" d="M26.742,105.569a3.2,3.2,0,1,1-3.2-3.2A3.2,3.2,0,0,1,26.742,105.569Z" transform="translate(-20.336 -102.366)" fill="#ee4036"/>
        </g>
        <g id="Grupo_916792" data-name="Grupo 916792" transform="translate(0.379 0.379)">
          <path id="Trazado_704431" data-name="Trazado 704431" d="M26.313,105.519a2.824,2.824,0,1,1-2.824-2.824A2.823,2.823,0,0,1,26.313,105.519Z" transform="translate(-20.665 -102.695)" fill="#f05a28"/>
        </g>
        <g id="Grupo_916793" data-name="Grupo 916793" transform="translate(1.058 2.877)">
          <path id="Trazado_704432" data-name="Trazado 704432" d="M25.545,106.324c0,.8-.96,1.459-2.145,1.459s-2.145-.654-2.145-1.459.96-1.459,2.145-1.459S25.545,105.518,25.545,106.324Z" transform="translate(-21.255 -104.865)" fill="#f6921e"/>
        </g>
        <g id="Grupo_916794" data-name="Grupo 916794" transform="translate(1.989 0.475)">
          <path id="Trazado_704433" data-name="Trazado 704433" d="M24.491,103.6c0,.456-.543.825-1.213.825s-1.213-.37-1.213-.825.543-.825,1.213-.825S24.491,103.149,24.491,103.6Z" transform="translate(-22.064 -102.779)" fill="#f6921e"/>
        </g>
        <g id="Grupo_916795" data-name="Grupo 916795" transform="translate(0.79 1.641)">
          <path id="Trazado_704434" data-name="Trazado 704434" d="M21.778,104.47a.4.4,0,1,1-.077-.639A.464.464,0,0,1,21.778,104.47Z" transform="translate(-21.022 -103.791)" fill="#fff"/>
        </g>
        <g id="Grupo_916796" data-name="Grupo 916796" transform="translate(1.431 0.787)">
          <path id="Trazado_704435" data-name="Trazado 704435" d="M22.173,103.619c-.238.155-.494.184-.572.066s.053-.342.291-.5.5-.184.572-.066S22.411,103.465,22.173,103.619Z" transform="translate(-21.579 -103.05)" fill="#fff"/>
        </g>
      </g>
      <g id="Grupo_916798" data-name="Grupo 916798" transform="translate(18.366 20.488)">
        <path id="Trazado_704436" data-name="Trazado 704436" d="M24.036,105.247l14.1-11.868a1.23,1.23,0,1,1,1.584,1.881l-.041.033L25.08,106.544a.832.832,0,0,1-1.044-1.3Z" transform="translate(-23.74 -93.09)" fill="#be1e2d"/>
      </g>
      <g id="Grupo_916799" data-name="Grupo 916799" transform="translate(13.869 52.988)">
        <path id="Trazado_704437" data-name="Trazado 704437" d="M20.938,121.621l6.979,12.486a1.231,1.231,0,1,1-2.149,1.2c-.017-.031-.035-.066-.05-.1l-5.832-13.06a.589.589,0,0,1,1.052-.528Z" transform="translate(-19.834 -121.32)" fill="#be1e2d"/>
      </g>
      <g id="Grupo_916806" data-name="Grupo 916806" transform="translate(30.168 13.923)">
        <g id="Grupo_916800" data-name="Grupo 916800" transform="translate(1.147 1.147)">
          <circle id="Elipse_6344" data-name="Elipse 6344" cx="4.645" cy="4.645" r="4.645" fill="#ee4036"/>
        </g>
        <g id="Grupo_916801" data-name="Grupo 916801">
          <circle id="Elipse_6345" data-name="Elipse 6345" cx="4.096" cy="4.096" r="4.096" transform="translate(0 5.792) rotate(-45)" fill="#f05a28"/>
        </g>
        <g id="Grupo_916802" data-name="Grupo 916802" transform="translate(2.682 5.321)">
          <path id="Trazado_704438" data-name="Trazado 704438" d="M42.541,94.124c0,1.169-1.393,2.116-3.111,2.116s-3.111-.947-3.111-2.116,1.393-2.115,3.111-2.115S42.541,92.957,42.541,94.124Z" transform="translate(-36.32 -92.009)" fill="#f6921e"/>
        </g>
        <g id="Grupo_916803" data-name="Grupo 916803" transform="translate(4.032 1.838)">
          <path id="Trazado_704439" data-name="Trazado 704439" d="M41.014,90.181c0,.661-.789,1.2-1.76,1.2s-1.76-.535-1.76-1.2.789-1.2,1.76-1.2S41.014,89.519,41.014,90.181Z" transform="translate(-37.493 -88.984)" fill="#f6921e"/>
        </g>
        <g id="Grupo_916804" data-name="Grupo 916804" transform="translate(2.292 3.527)">
          <path id="Trazado_704440" data-name="Trazado 704440" d="M37.079,91.435a.583.583,0,1,1-.112-.926A.674.674,0,0,1,37.079,91.435Z" transform="translate(-35.982 -90.451)" fill="#fff"/>
        </g>
        <g id="Grupo_916805" data-name="Grupo 916805" transform="translate(3.223 2.289)">
          <path id="Trazado_704441" data-name="Trazado 704441" d="M37.652,90.2c-.347.226-.717.267-.83.094s.077-.5.423-.72.717-.267.829-.094S38,89.977,37.652,90.2Z" transform="translate(-36.79 -89.376)" fill="#fff"/>
        </g>
      </g>
      <g id="Grupo_916813" data-name="Grupo 916813" transform="translate(16.96 62.814)">
        <g id="Grupo_916807" data-name="Grupo 916807">
          <circle id="Elipse_6346" data-name="Elipse 6346" cx="4.646" cy="4.646" r="4.646" transform="translate(0 9.042) rotate(-76.718)" fill="#ee4036"/>
        </g>
        <g id="Grupo_916808" data-name="Grupo 916808" transform="translate(1.493 1.493)">
          <circle id="Elipse_6347" data-name="Elipse 6347" cx="4.096" cy="4.096" r="4.096" fill="#f05a28"/>
        </g>
        <g id="Grupo_916809" data-name="Grupo 916809" transform="translate(2.478 5.117)">
          <path id="Trazado_704442" data-name="Trazado 704442" d="M30.892,136.414c0,1.169-1.393,2.116-3.111,2.116s-3.111-.947-3.111-2.116,1.393-2.115,3.111-2.115S30.892,135.245,30.892,136.414Z" transform="translate(-24.671 -134.299)" fill="#f6921e"/>
        </g>
        <g id="Grupo_916810" data-name="Grupo 916810" transform="translate(3.828 1.634)">
          <path id="Trazado_704443" data-name="Trazado 704443" d="M29.365,132.47c0,.662-.789,1.2-1.76,1.2s-1.76-.535-1.76-1.2.789-1.2,1.76-1.2S29.365,131.809,29.365,132.47Z" transform="translate(-25.844 -131.274)" fill="#f6921e"/>
        </g>
        <g id="Grupo_916811" data-name="Grupo 916811" transform="translate(2.089 3.323)">
          <path id="Trazado_704444" data-name="Trazado 704444" d="M25.43,133.725a.584.584,0,1,1-.971-.56.584.584,0,1,1,.971.56Z" transform="translate(-24.333 -132.741)" fill="#fff"/>
        </g>
        <g id="Grupo_916812" data-name="Grupo 916812" transform="translate(3.019 2.085)">
          <path id="Trazado_704445" data-name="Trazado 704445" d="M26,132.492c-.347.226-.717.267-.83.094s.077-.5.423-.72.716-.267.829-.094S26.349,132.267,26,132.492Z" transform="translate(-25.141 -131.665)" fill="#fff"/>
        </g>
      </g>
      <g id="Grupo_916814" data-name="Grupo 916814" transform="translate(35.771 20.223)">
        <path id="Trazado_704446" data-name="Trazado 704446" d="M41,93.257l9.537,10.329a2.668,2.668,0,1,1-3.92,3.62,2.759,2.759,0,0,1-.325-.433L39.035,94.734A1.236,1.236,0,0,1,41,93.257Z" transform="translate(-38.858 -92.86)" fill="#be1e2d"/>
      </g>
      <g id="Grupo_916815" data-name="Grupo 916815" transform="translate(23.149 55.955)">
        <path id="Trazado_704447" data-name="Trazado 704447" d="M28.463,134.146l15.4-9.858a2.475,2.475,0,1,1,2.669,4.169,2.823,2.823,0,0,1-.294.162L29.645,136.3a1.232,1.232,0,0,1-1.182-2.156Z" transform="translate(-27.895 -123.896)" fill="#be1e2d"/>
      </g>
      <g id="Grupo_916822" data-name="Grupo 916822" transform="translate(37.706 25.541)">
        <g id="Grupo_916816" data-name="Grupo 916816" transform="translate(0.806 0.806)">
          <circle id="Elipse_6348" data-name="Elipse 6348" cx="6.115" cy="6.115" r="6.115" transform="translate(0 12.137) rotate(-82.961)" fill="#ee4036"/>
        </g>
        <g id="Grupo_916817" data-name="Grupo 916817">
          <circle id="Elipse_6349" data-name="Elipse 6349" cx="5.391" cy="5.391" r="5.391" transform="translate(0 7.717) rotate(-45.702)" fill="#f05a28"/>
        </g>
        <g id="Grupo_916818" data-name="Grupo 916818" transform="translate(3.529 7.003)">
          <ellipse id="Elipse_6350" data-name="Elipse 6350" cx="4.095" cy="2.784" rx="4.095" ry="2.784" fill="#f6921e"/>
        </g>
        <g id="Grupo_916819" data-name="Grupo 916819" transform="translate(5.307 2.418)">
          <path id="Trazado_704448" data-name="Trazado 704448" d="M49.782,101.155c0,.87-1.037,1.575-2.318,1.575s-2.316-.7-2.316-1.575,1.037-1.576,2.316-1.576S49.782,100.285,49.782,101.155Z" transform="translate(-45.148 -99.579)" fill="#f6921e"/>
        </g>
        <g id="Grupo_916820" data-name="Grupo 916820" transform="translate(3.017 4.642)">
          <path id="Trazado_704449" data-name="Trazado 704449" d="M44.6,102.806a.768.768,0,1,1-.147-1.219A.887.887,0,0,1,44.6,102.806Z" transform="translate(-43.159 -101.51)" fill="#fff"/>
        </g>
        <g id="Grupo_916821" data-name="Grupo 916821" transform="translate(4.241 3.012)">
          <path id="Trazado_704450" data-name="Trazado 704450" d="M45.357,101.183c-.455.3-.944.351-1.093.124s.1-.653.556-.949.944-.351,1.091-.124S45.812,100.887,45.357,101.183Z" transform="translate(-44.222 -100.095)" fill="#fff"/>
        </g>
      </g>
      <g id="Grupo_916823" data-name="Grupo 916823" transform="translate(40.958 33.396)">
        <path id="Trazado_704451" data-name="Trazado 704451" d="M46.021,126.807c-.089,0-.177,0-.267-.013a2.653,2.653,0,0,1-2.377-2.9l1.717-17.2a2.654,2.654,0,1,1,5.282.527l-1.717,17.2A2.654,2.654,0,0,1,46.021,126.807Z" transform="translate(-43.363 -104.302)" fill="#be1e2d"/>
      </g>
      <g id="Grupo_916830" data-name="Grupo 916830" transform="translate(36.522 50.693)">
        <g id="Grupo_916824" data-name="Grupo 916824" transform="translate(0.376 0.376)">
          <circle id="Elipse_6351" data-name="Elipse 6351" cx="6.115" cy="6.115" r="6.115" fill="#ee4036"/>
        </g>
        <g id="Grupo_916825" data-name="Grupo 916825">
          <circle id="Elipse_6352" data-name="Elipse 6352" cx="5.391" cy="5.391" r="5.391" transform="translate(0 10.491) rotate(-76.654)" fill="#f05a28"/>
        </g>
        <g id="Grupo_916826" data-name="Grupo 916826" transform="translate(2.395 5.869)">
          <path id="Trazado_704452" data-name="Trazado 704452" d="M49.78,127.208c0,1.538-1.833,2.785-4.094,2.785s-4.1-1.247-4.1-2.785,1.834-2.784,4.1-2.784S49.78,125.671,49.78,127.208Z" transform="translate(-41.591 -124.424)" fill="#f6921e"/>
        </g>
        <g id="Grupo_916827" data-name="Grupo 916827" transform="translate(4.173 1.285)">
          <path id="Trazado_704453" data-name="Trazado 704453" d="M47.769,122.018c0,.87-1.037,1.575-2.316,1.575s-2.318-.7-2.318-1.575,1.037-1.576,2.318-1.576S47.769,121.148,47.769,122.018Z" transform="translate(-43.135 -120.442)" fill="#f6921e"/>
        </g>
        <g id="Grupo_916828" data-name="Grupo 916828" transform="translate(1.883 3.508)">
          <path id="Trazado_704454" data-name="Trazado 704454" d="M42.591,123.669a.768.768,0,1,1-.147-1.219A.887.887,0,0,1,42.591,123.669Z" transform="translate(-41.146 -122.373)" fill="#fff"/>
        </g>
        <g id="Grupo_916829" data-name="Grupo 916829" transform="translate(3.108 1.879)">
          <path id="Trazado_704455" data-name="Trazado 704455" d="M43.344,122.046c-.455.3-.943.351-1.091.124s.1-.653.556-.949.943-.351,1.091-.124S43.8,121.75,43.344,122.046Z" transform="translate(-42.21 -120.958)" fill="#fff"/>
        </g>
      </g>
      <g id="Grupo_916831" data-name="Grupo 916831" transform="translate(42.86 56.877)">
        <path id="Trazado_704456" data-name="Trazado 704456" d="M60.975,144.13a2.463,2.463,0,0,1-1.809-.787L45.677,128.85a2.47,2.47,0,0,1,3.616-3.365l13.489,14.493a2.47,2.47,0,0,1-1.808,4.153Z" transform="translate(-45.015 -124.697)" fill="#be1e2d"/>
      </g>
      <g id="Grupo_916832" data-name="Grupo 916832" transform="translate(17.223 70.485)">
        <path id="Trazado_704457" data-name="Trazado 704457" d="M23.978,154.689a1.2,1.2,0,0,1-.254-.028,1.229,1.229,0,0,1-.95-1.456l3.309-15.71a1.23,1.23,0,1,1,2.406.508L25.18,153.711A1.23,1.23,0,0,1,23.978,154.689Z" transform="translate(-22.747 -136.517)" fill="#be1e2d"/>
      </g>
      <g id="Grupo_916839" data-name="Grupo 916839" transform="translate(13.788 85.22)">
        <g id="Grupo_916833" data-name="Grupo 916833">
          <circle id="Elipse_6353" data-name="Elipse 6353" cx="3.619" cy="3.619" r="3.619" transform="translate(0 7.045) rotate(-76.717)" fill="#652d90"/>
        </g>
        <g id="Grupo_916834" data-name="Grupo 916834" transform="translate(1.163 1.163)">
          <path id="Trazado_704458" data-name="Trazado 704458" d="M27.156,153.517a3.191,3.191,0,1,1-3.191-3.191A3.191,3.191,0,0,1,27.156,153.517Z" transform="translate(-20.773 -150.326)" fill="#7f3f97"/>
        </g>
        <g id="Grupo_916835" data-name="Grupo 916835" transform="translate(1.931 3.987)">
          <path id="Trazado_704459" data-name="Trazado 704459" d="M26.287,154.426c0,.911-1.084,1.649-2.423,1.649s-2.423-.738-2.423-1.649,1.085-1.647,2.423-1.647S26.287,153.517,26.287,154.426Z" transform="translate(-21.44 -152.779)" fill="#ba68c8"/>
        </g>
        <g id="Grupo_916836" data-name="Grupo 916836" transform="translate(2.983 1.273)">
          <path id="Trazado_704460" data-name="Trazado 704460" d="M25.1,151.355c0,.515-.614.933-1.371.933s-1.371-.418-1.371-.933.614-.933,1.371-.933S25.1,150.84,25.1,151.355Z" transform="translate(-22.354 -150.422)" fill="#ba68c8"/>
        </g>
        <g id="Grupo_916837" data-name="Grupo 916837" transform="translate(1.627 2.589)">
          <path id="Trazado_704461" data-name="Trazado 704461" d="M22.031,152.332a.455.455,0,1,1-.087-.722A.526.526,0,0,1,22.031,152.332Z" transform="translate(-21.176 -151.565)" fill="#fff"/>
        </g>
        <g id="Grupo_916838" data-name="Grupo 916838" transform="translate(2.352 1.625)">
          <path id="Trazado_704462" data-name="Trazado 704462" d="M22.477,151.371c-.269.176-.558.208-.646.074s.06-.386.329-.561.558-.208.646-.074S22.747,151.2,22.477,151.371Z" transform="translate(-21.806 -150.727)" fill="#fff"/>
        </g>
      </g>
      <g id="Grupo_916846" data-name="Grupo 916846" transform="translate(54.342 69.214)">
        <g id="Grupo_916840" data-name="Grupo 916840">
          <path id="Trazado_704463" data-name="Trazado 704463" d="M65.983,140.909a5.5,5.5,0,1,1-5.5-5.5A5.5,5.5,0,0,1,65.983,140.909Z" transform="translate(-54.989 -135.413)" fill="#652d90"/>
        </g>
        <g id="Grupo_916841" data-name="Grupo 916841" transform="translate(0.65 0.65)">
          <path id="Trazado_704464" data-name="Trazado 704464" d="M65.247,140.824a4.846,4.846,0,1,1-4.846-4.846A4.847,4.847,0,0,1,65.247,140.824Z" transform="translate(-55.554 -135.978)" fill="#7f3f97"/>
        </g>
        <g id="Grupo_916842" data-name="Grupo 916842" transform="translate(1.817 4.938)">
          <path id="Trazado_704465" data-name="Trazado 704465" d="M63.928,142.2c0,1.383-1.649,2.5-3.681,2.5s-3.681-1.12-3.681-2.5,1.647-2.5,3.681-2.5S63.928,140.823,63.928,142.2Z" transform="translate(-56.567 -139.702)" fill="#ba68c8"/>
        </g>
        <g id="Grupo_916843" data-name="Grupo 916843" transform="translate(3.415 0.817)">
          <path id="Trazado_704466" data-name="Trazado 704466" d="M62.12,137.539c0,.783-.933,1.416-2.083,1.416s-2.083-.633-2.083-1.416.933-1.416,2.083-1.416S62.12,136.757,62.12,137.539Z" transform="translate(-57.955 -136.123)" fill="#ba68c8"/>
        </g>
        <g id="Grupo_916844" data-name="Grupo 916844" transform="translate(1.356 2.816)">
          <path id="Trazado_704467" data-name="Trazado 704467" d="M57.464,139.024a.69.69,0,1,1-.132-1.1A.8.8,0,0,1,57.464,139.024Z" transform="translate(-56.167 -137.859)" fill="#fff"/>
        </g>
        <g id="Grupo_916845" data-name="Grupo 916845" transform="translate(2.457 1.351)">
          <path id="Trazado_704468" data-name="Trazado 704468" d="M58.142,137.564c-.409.266-.847.315-.981.112s.091-.586.5-.852.848-.317.981-.112S58.552,137.3,58.142,137.564Z" transform="translate(-57.123 -136.587)" fill="#fff"/>
        </g>
      </g>
      <g id="Grupo_916847" data-name="Grupo 916847" transform="translate(47.261 21.253)">
        <path id="Trazado_704469" data-name="Trazado 704469" d="M51.5,105.331a2.654,2.654,0,0,1-1.154-5.046l13.021-6.268a2.654,2.654,0,1,1,2.3,4.784l-13.021,6.268A2.644,2.644,0,0,1,51.5,105.331Z" transform="translate(-48.838 -93.755)" fill="#be1e2d"/>
      </g>
      <g id="Grupo_916854" data-name="Grupo 916854" transform="translate(61.288 15.69)">
        <g id="Grupo_916848" data-name="Grupo 916848" transform="translate(0.072 0.072)">
          <circle id="Elipse_6354" data-name="Elipse 6354" cx="5.615" cy="5.615" r="5.615" fill="#652d90"/>
        </g>
        <g id="Grupo_916849" data-name="Grupo 916849">
          <circle id="Elipse_6355" data-name="Elipse 6355" cx="4.951" cy="4.951" r="4.951" transform="translate(0 9.771) rotate(-80.677)" fill="#7f3f97"/>
        </g>
        <g id="Grupo_916850" data-name="Grupo 916850" transform="translate(1.928 5.117)">
          <path id="Trazado_704470" data-name="Trazado 704470" d="M70.216,95.924c0,1.413-1.683,2.557-3.76,2.557s-3.76-1.144-3.76-2.557,1.683-2.557,3.76-2.557S70.216,94.513,70.216,95.924Z" transform="translate(-62.696 -93.367)" fill="#ba68c8"/>
        </g>
        <g id="Grupo_916851" data-name="Grupo 916851" transform="translate(3.56 0.908)">
          <ellipse id="Elipse_6356" data-name="Elipse 6356" cx="2.128" cy="1.447" rx="2.128" ry="1.447" fill="#ba68c8"/>
        </g>
        <g id="Grupo_916852" data-name="Grupo 916852" transform="translate(1.457 2.949)">
          <path id="Trazado_704471" data-name="Trazado 704471" d="M63.613,92.674a.7.7,0,1,1-.135-1.12A.815.815,0,0,1,63.613,92.674Z" transform="translate(-62.287 -91.484)" fill="#fff"/>
        </g>
        <g id="Grupo_916853" data-name="Grupo 916853" transform="translate(2.582 1.453)">
          <path id="Trazado_704472" data-name="Trazado 704472" d="M64.306,91.183c-.418.272-.867.322-1,.114s.092-.6.51-.87.867-.324,1-.114S64.724,90.912,64.306,91.183Z" transform="translate(-63.264 -90.184)" fill="#fff"/>
        </g>
      </g>
    </g>
  </g>
</svg>
