<svg xmlns="http://www.w3.org/2000/svg" xmlns:xlink="http://www.w3.org/1999/xlink" width="163.571" height="134.408" viewBox="0 0 163.571 134.408">
  <defs>
    <clipPath id="clip-path">
      <rect id="Rect치ngulo_298259" data-name="Rect치ngulo 298259" width="163.571" height="134.408" transform="translate(-13.271)" fill="none"/>
    </clipPath>
  </defs>
  <g id="Grupo_916524" data-name="Grupo 916524" transform="translate(-250.264)">
    <g id="Grupo_916523" data-name="Grupo 916523" transform="translate(263.535)" clip-path="url(#clip-path)">
      <rect id="Rect치ngulo_298253" data-name="Rect치ngulo 298253" width="168.01" height="128.645" transform="translate(-17.711)" fill="#c5ecef"/>
      <path id="Trazado_704095" data-name="Trazado 704095" d="M168.01,232.006v59H0v-65H1.156v-1.436h1.75v-2.408H4.691v-9l2.025.487v-1.166h9.142v3.366l2.033.49v23.324h2.171v-3.3H22.04v-5.441H24.7v-2.956h1.09v1.917h1.038v.637h1.693v.4h.755v7.8H31.46v1.276h2.077v5.344H38V232.41h2.064v-2.838h.959v2.838h9.165v10.362H53.4v-1.414h2.237V208.546h6.676v-1.193h6.321v1.193H69.5v28.211H71.44v-8.166h5.286V215.754l.652.156.23.055V214.39h2.257v2.119l1.135.273,5.219,1.256,3.707.892v5.612l2.292,1.718v3.334h2.214v6.43H95.61v-2.24h1.37V222.072h5.758v-2.361h2.548v-6.045h1.09v6.045h1.458v2.361h3.852v3.519h.911v4h2.125V215.247h2.5v-.533h3.047v.533h.76v15.223h3.206v-1.415H125.8v-6.888h.674v-16.2h7.975v-1.526h.874v-.417h2.258v.417h.874v1.526h1.881v22.576h1.941v-2.53h1.751v-1.436h1.749v-2.407h1.786v-9l2.025.487v-1.167h9.142v3.367l2.033.489V243.7h2.17v-3.3h1.98v-5.441h2.664v-2.956Z" transform="translate(-17.711 -190.31)" fill="#88bebf" opacity="0.46"/>
      <path id="Trazado_704096" data-name="Trazado 704096" d="M1426.887,42.345a1.3,1.3,0,0,1-.027-.223C1426.871,42.2,1426.88,42.271,1426.887,42.345Z" transform="translate(-1348.68 -39.291)" fill="#fb9f98"/>
      <path id="Trazado_704097" data-name="Trazado 704097" d="M1620.019,242.6h8.6s.325-.314.24-.567a1.368,1.368,0,0,0-1.213-.6.9.9,0,0,0,.211-.914.927.927,0,0,0-1.4-.292,1.161,1.161,0,0,0-.486.836s.486-1.245-.467-1.575a1.233,1.233,0,0,0-1.653,1.186.981.981,0,0,0-1.167-.564.738.738,0,0,0-.525,1.123s-.117-.416-.953-.225a.593.593,0,0,0-.447.91,1.045,1.045,0,0,0-.953.245C1619.416,242.555,1620.019,242.6,1620.019,242.6Z" transform="translate(-1528.536 -223.32)" fill="#fff"/>
      <path id="Trazado_704098" data-name="Trazado 704098" d="M190.813,145.579h7.33s.277-.268.2-.483a1.166,1.166,0,0,0-1.034-.514.768.768,0,0,0,.18-.779.79.79,0,0,0-1.192-.249.99.99,0,0,0-.415.713s.415-1.061-.4-1.343a1.052,1.052,0,0,0-1.41,1.012.836.836,0,0,0-.995-.481.629.629,0,0,0-.448.958s-.1-.355-.813-.192a.506.506,0,0,0-.381.776.891.891,0,0,0-.813.209C190.3,145.544,190.813,145.579,190.813,145.579Z" transform="translate(-195.426 -133.26)" fill="#fff"/>
      <path id="Trazado_704099" data-name="Trazado 704099" d="M2167.381,129.258h14.164s.536-.517.4-.934a2.253,2.253,0,0,0-2-.993,1.484,1.484,0,0,0,.348-1.506,1.527,1.527,0,0,0-2.3-.481,1.913,1.913,0,0,0-.8,1.378s.8-2.051-.769-2.6a2.032,2.032,0,0,0-2.724,1.955,1.616,1.616,0,0,0-1.923-.929,1.215,1.215,0,0,0-.865,1.851s-.192-.685-1.57-.371a.978.978,0,0,0-.737,1.5,1.721,1.721,0,0,0-1.57.4C2166.388,129.19,2167.381,129.258,2167.381,129.258Z" transform="translate(-2038.905 -115.672)" fill="#fff"/>
      <path id="Trazado_704100" data-name="Trazado 704100" d="M410.815,276.206h17.142s.648-.626.479-1.13a2.727,2.727,0,0,0-2.418-1.2,1.8,1.8,0,0,0,.422-1.823,1.848,1.848,0,0,0-2.787-.582,2.316,2.316,0,0,0-.97,1.668s.97-2.482-.931-3.141a2.459,2.459,0,0,0-3.3,2.366,1.956,1.956,0,0,0-2.327-1.125,1.471,1.471,0,0,0-1.047,2.24s-.233-.83-1.9-.449a1.183,1.183,0,0,0-.892,1.816,2.083,2.083,0,0,0-1.9.489C409.613,276.123,410.815,276.206,410.815,276.206Z" transform="translate(-400.276 -251.714)" fill="#fff"/>
      <path id="Trazado_704101" data-name="Trazado 704101" d="M1177.252,107.172h16.116s.609-.589.451-1.063a2.564,2.564,0,0,0-2.274-1.13,1.689,1.689,0,0,0,.4-1.714,1.738,1.738,0,0,0-2.621-.547,2.177,2.177,0,0,0-.912,1.568s.912-2.334-.875-2.953a2.312,2.312,0,0,0-3.1,2.224,1.839,1.839,0,0,0-2.188-1.057,1.383,1.383,0,0,0-.985,2.106s-.219-.78-1.787-.422a1.112,1.112,0,0,0-.839,1.707,1.958,1.958,0,0,0-1.787.459C1176.122,107.094,1177.252,107.172,1177.252,107.172Z" transform="translate(-1115.244 -94.394)" fill="#fff"/>
      <path id="Trazado_704102" data-name="Trazado 704102" d="M165.85,747.722a3.106,3.106,0,0,0-3.926-2.206,1.881,1.881,0,0,0-2.418-2.6,3.1,3.1,0,0,0-5.887-1.284,2.93,2.93,0,0,0-5.136,2.463,1.881,1.881,0,0,0-2.52.507,3.62,3.62,0,0,0-5.276-4.051,1.881,1.881,0,0,0-3.194-.994,5.071,5.071,0,0,0-7.776.374,1.88,1.88,0,0,0-3.129,1.407,1.913,1.913,0,0,0,.028.325,2.44,2.44,0,0,0-4.2.941,2.568,2.568,0,0,0-3.595-1.446,1.457,1.457,0,0,0-2.144-1.948,2.44,2.44,0,0,0-3.644-.494,6.585,6.585,0,0,0-10.254,2.193,2.44,2.44,0,0,0-3.909,2.8,3.086,3.086,0,0,0-4.562,1.74,2.1,2.1,0,0,0-3.155-.357,3.989,3.989,0,0,0-7.314-.5,2.568,2.568,0,0,0-3.906.984,3.115,3.115,0,0,0-2.017-.063,1.881,1.881,0,0,0-2.418-2.6,3.1,3.1,0,0,0-5.887-1.284,2.93,2.93,0,0,0-5.136,2.463,1.881,1.881,0,0,0-2.52.507,3.62,3.62,0,0,0-5.276-4.051,1.881,1.881,0,0,0-3.194-.994,5.071,5.071,0,0,0-7.776.374,1.88,1.88,0,0,0-3.129,1.407,1.912,1.912,0,0,0,.028.325,2.44,2.44,0,0,0-4.2.941,2.568,2.568,0,0,0-3.595-1.446,1.457,1.457,0,0,0-2.144-1.948,2.44,2.44,0,0,0-3.644-.494,6.585,6.585,0,0,0-10.254,2.193,2.44,2.44,0,0,0-3.909,2.8,3.086,3.086,0,0,0-4.562,1.74,2.1,2.1,0,0,0-3.155-.357A3.988,3.988,0,0,0,0,744.308v29.509H168.01V746.026A2.539,2.539,0,0,0,165.85,747.722Z" transform="translate(-17.711 -687.586)" fill="#3db038"/>
      <path id="Trazado_704103" data-name="Trazado 704103" d="M753.262,872.182c.231-2.97.753-4.429,3.379-8.752a11.085,11.085,0,0,0-4.925,5.642,31.647,31.647,0,0,1,.276-8.861c-2.291,3.794-2.205,5.133-2.081,8.591a8.866,8.866,0,0,0-1.049-1.684,11.384,11.384,0,0,0-4-3.6,20.781,20.781,0,0,1,4.2,8.031,8.875,8.875,0,0,0-4.569-3.049c2.758,1.1,4.171,5.52,4.171,5.52h6.623s.614-3.8,3.22-5.52A8.832,8.832,0,0,0,753.262,872.182Z" transform="translate(-712.171 -802.4)" fill="#96dd3a"/>
      <path id="Trazado_704104" data-name="Trazado 704104" d="M2234.769,904.33c-1-6.928-3.757-9.22-3.757-9.22,1.357,4.42,1.638,7.226.993,9.954a14.454,14.454,0,0,0-5.18-5.268c4.187,5.753,3.784,9.511,3.784,9.511s.88,2.64,1.4,1.409c.289.672,1.815,1.876,2.671-2.12.054-.254.1-.5.146-.753,0,.1-.008.2-.01.3-.231,9.677,2.66.488,2.66.488s-1.3-9.64,2.97-13.17C2240.444,895.466,2235.95,897.246,2234.769,904.33Z" transform="translate(-2094.884 -834.955)" fill="#96dd3a"/>
      <path id="Trazado_704105" data-name="Trazado 704105" d="M482.826,888.771c.321-2.415.652-7.554-1.8-10.2,0,0,3.885,2.908,3.471,10.379,1.786-4.092,4.521-5.306,4.521-5.306-3.977,2.719-4.365,14.25-4.365,14.25s-3.537,7.408-2.576-.949c.013-.115-.6.239-.589.126a.808.808,0,0,1-.813-.129s1.821-9.463-3.9-17.194C476.779,879.744,481.255,881.522,482.826,888.771Z" transform="translate(-462.448 -819.525)" fill="#96dd3a"/>
      <path id="Trazado_704106" data-name="Trazado 704106" d="M47.5,888.631s-3.686,1.7-4.678,7.873c-.38-2.018-.892-6.328,1.048-8.669,0,0-3.076,1.135-3.36,6.245A7.009,7.009,0,0,0,36.97,889.2c2.042,1.851,2.319,5.587,2.286,7.8-1.567-4.054-4.249-5.17-4.249-5.17,3.4,2.213,3.68,9.082,3.68,9.082s2.321,6.359,1.542.2a20.174,20.174,0,0,0,.432-2.44c.038-.29.067-.571.089-.844.032.192.065.387.1.587.561,2.94,1.54,2.714,1.774,2.232.338.918,1.823-2.184,1.823-2.184S44.18,890.971,47.5,888.631Z" transform="translate(-50.365 -828.169)" fill="#96dd3a"/>
      <path id="Trazado_704107" data-name="Trazado 704107" d="M1910.237,948.6s-3.764,2.078-4.374,6.094c-.365-1.941-.758-4.612.882-6.86,0,0-2.958,1.092-3.232,6.007-1.689-4.483-3.4-4.7-3.4-4.7a9.946,9.946,0,0,1,1.678,5.551c-.724-1.907-3.566-3.023-3.566-3.023,3.275,2.129,3.54,8.736,3.54,8.736s2.233,6.117,1.484.193a19.448,19.448,0,0,0,.415-2.347c.037-.279.064-.549.085-.812.031.185.063.372.1.565.54,2.828,1.482,2.61,1.707,2.147.325.883,1.753-2.1,1.753-2.1S1907.045,950.853,1910.237,948.6Z" transform="translate(-1788.363 -884.138)" fill="#96dd3a"/>
      <path id="Trazado_704108" data-name="Trazado 704108" d="M168.01,1065.76v62.785H0V1065.76H168.01Z" transform="translate(-17.711 -994.137)" fill="#914844"/>
      <g id="Grupo_916412" data-name="Grupo 916412" transform="translate(67.443 98.027)">
        <g id="Grupo_916411" data-name="Grupo 916411">
          <circle id="Elipse_6228" data-name="Elipse 6228" cx="0.876" cy="0.876" r="0.876" fill="#773635"/>
        </g>
      </g>
      <g id="Grupo_916414" data-name="Grupo 916414" transform="translate(60.223 79.883)">
        <g id="Grupo_916413" data-name="Grupo 916413">
          <circle id="Elipse_6229" data-name="Elipse 6229" cx="0.876" cy="0.876" r="0.876" fill="#773635"/>
        </g>
      </g>
      <g id="Grupo_916416" data-name="Grupo 916416" transform="translate(114.422 88.812)">
        <g id="Grupo_916415" data-name="Grupo 916415">
          <circle id="Elipse_6230" data-name="Elipse 6230" cx="0.876" cy="0.876" r="0.876" fill="#773635"/>
        </g>
      </g>
      <g id="Grupo_916418" data-name="Grupo 916418" transform="translate(54.159 125.235)">
        <g id="Grupo_916417" data-name="Grupo 916417">
          <circle id="Elipse_6231" data-name="Elipse 6231" cx="1.415" cy="1.415" r="1.415" fill="#773635"/>
        </g>
      </g>
      <g id="Grupo_916420" data-name="Grupo 916420" transform="translate(117.28 116.307)">
        <g id="Grupo_916419" data-name="Grupo 916419">
          <circle id="Elipse_6232" data-name="Elipse 6232" cx="1.424" cy="1.424" r="1.424" fill="#773635"/>
        </g>
      </g>
      <g id="Grupo_916422" data-name="Grupo 916422" transform="translate(76.152 80.418)">
        <g id="Grupo_916421" data-name="Grupo 916421">
          <circle id="Elipse_6233" data-name="Elipse 6233" cx="1.218" cy="1.218" r="1.218" fill="#773635"/>
        </g>
      </g>
      <g id="Grupo_916424" data-name="Grupo 916424" transform="translate(70.293 90.914)">
        <g id="Grupo_916423" data-name="Grupo 916423" transform="translate(0 0)">
          <circle id="Elipse_6234" data-name="Elipse 6234" cx="1.654" cy="1.654" r="1.654" transform="matrix(0.062, -0.998, 0.998, 0.062, 0, 3.302)" fill="#773635"/>
        </g>
      </g>
      <g id="Grupo_916426" data-name="Grupo 916426" transform="translate(131.19 79.559)">
        <g id="Grupo_916425" data-name="Grupo 916425">
          <circle id="Elipse_6235" data-name="Elipse 6235" cx="1.067" cy="1.067" r="1.067" fill="#773635"/>
        </g>
      </g>
      <g id="Grupo_916428" data-name="Grupo 916428" transform="translate(94.062 102.375)">
        <g id="Grupo_916427" data-name="Grupo 916427">
          <circle id="Elipse_6236" data-name="Elipse 6236" cx="0.876" cy="0.876" r="0.876" fill="#773635"/>
        </g>
      </g>
      <g id="Grupo_916430" data-name="Grupo 916430" transform="translate(144.913 108.584)">
        <g id="Grupo_916429" data-name="Grupo 916429">
          <circle id="Elipse_6237" data-name="Elipse 6237" cx="0.876" cy="0.876" r="0.876" fill="#773635"/>
        </g>
      </g>
      <g id="Grupo_916432" data-name="Grupo 916432" transform="translate(143.16 127.768)">
        <g id="Grupo_916431" data-name="Grupo 916431">
          <circle id="Elipse_6238" data-name="Elipse 6238" cx="0.876" cy="0.876" r="0.876" fill="#773635"/>
        </g>
      </g>
      <g id="Grupo_916434" data-name="Grupo 916434" transform="translate(89.284 123.571)">
        <g id="Grupo_916433" data-name="Grupo 916433">
          <circle id="Elipse_6239" data-name="Elipse 6239" cx="0.876" cy="0.876" r="0.876" fill="#773635"/>
        </g>
      </g>
      <g id="Grupo_916436" data-name="Grupo 916436" transform="translate(98.55 118.612)">
        <g id="Grupo_916435" data-name="Grupo 916435">
          <circle id="Elipse_6240" data-name="Elipse 6240" cx="0.876" cy="0.876" r="0.876" fill="#773635"/>
        </g>
      </g>
      <g id="Grupo_916438" data-name="Grupo 916438" transform="translate(125.997 125.349)">
        <g id="Grupo_916437" data-name="Grupo 916437" transform="translate(0 0)">
          <circle id="Elipse_6241" data-name="Elipse 6241" cx="1.144" cy="1.144" r="1.144" transform="translate(0 0.28) rotate(-7.018)" fill="#773635"/>
        </g>
      </g>
      <g id="Grupo_916440" data-name="Grupo 916440" transform="translate(139.993 91.278)">
        <g id="Grupo_916439" data-name="Grupo 916439" transform="translate(0 0)">
          <circle id="Elipse_6242" data-name="Elipse 6242" cx="1.144" cy="1.144" r="1.144" transform="translate(0 0.28) rotate(-7.018)" fill="#773635"/>
        </g>
      </g>
      <g id="Grupo_916442" data-name="Grupo 916442" transform="translate(4.184 124.22)">
        <g id="Grupo_916441" data-name="Grupo 916441">
          <circle id="Elipse_6243" data-name="Elipse 6243" cx="1.016" cy="1.016" r="1.016" fill="#773635"/>
        </g>
      </g>
      <g id="Grupo_916444" data-name="Grupo 916444" transform="translate(137.738 116.283)">
        <g id="Grupo_916443" data-name="Grupo 916443" transform="translate(0 0)">
          <circle id="Elipse_6244" data-name="Elipse 6244" cx="1.024" cy="1.024" r="1.024" transform="translate(0 1.449) rotate(-45)" fill="#773635"/>
        </g>
      </g>
      <g id="Grupo_916446" data-name="Grupo 916446" transform="translate(52.952 113.992)">
        <g id="Grupo_916445" data-name="Grupo 916445" transform="translate(0 0)">
          <circle id="Elipse_6245" data-name="Elipse 6245" cx="0.834" cy="0.834" r="0.834" transform="translate(0 1.646) rotate(-80.783)" fill="#773635"/>
        </g>
      </g>
      <g id="Grupo_916448" data-name="Grupo 916448" transform="translate(74.719 125.236)">
        <g id="Grupo_916447" data-name="Grupo 916447" transform="translate(0 0)">
          <circle id="Elipse_6246" data-name="Elipse 6246" cx="1.203" cy="1.203" r="1.203" transform="translate(0 1.701) rotate(-45)" fill="#773635"/>
        </g>
      </g>
      <g id="Grupo_916450" data-name="Grupo 916450" transform="translate(73.448 107.031)">
        <g id="Grupo_916449" data-name="Grupo 916449">
          <circle id="Elipse_6247" data-name="Elipse 6247" cx="1.67" cy="1.67" r="1.67" fill="#773635"/>
        </g>
      </g>
      <g id="Grupo_916452" data-name="Grupo 916452" transform="translate(137.916 99.93)">
        <g id="Grupo_916451" data-name="Grupo 916451">
          <circle id="Elipse_6248" data-name="Elipse 6248" cx="0.835" cy="0.835" r="0.835" fill="#773635"/>
        </g>
      </g>
      <g id="Grupo_916454" data-name="Grupo 916454" transform="translate(50.599 102.88)">
        <g id="Grupo_916453" data-name="Grupo 916453" transform="translate(0 0)">
          <circle id="Elipse_6249" data-name="Elipse 6249" cx="1.204" cy="1.204" r="1.204" transform="matrix(0.23, -0.973, 0.973, 0.23, 0, 2.343)" fill="#773635"/>
        </g>
      </g>
      <g id="Grupo_916456" data-name="Grupo 916456" transform="translate(15.499 89.684)">
        <g id="Grupo_916455" data-name="Grupo 916455" transform="translate(0 0)">
          <circle id="Elipse_6250" data-name="Elipse 6250" cx="1.137" cy="1.137" r="1.137" transform="translate(0 0.362) rotate(-9.169)" fill="#773635"/>
        </g>
      </g>
      <g id="Grupo_916458" data-name="Grupo 916458" transform="translate(144.504 80.936)">
        <g id="Grupo_916457" data-name="Grupo 916457" transform="translate(0 0)">
          <circle id="Elipse_6251" data-name="Elipse 6251" cx="1.137" cy="1.137" r="1.137" transform="translate(0 0.364) rotate(-9.217)" fill="#773635"/>
        </g>
      </g>
      <g id="Grupo_916460" data-name="Grupo 916460" transform="translate(21.113 102.955)">
        <g id="Grupo_916459" data-name="Grupo 916459" transform="translate(0 0)">
          <circle id="Elipse_6252" data-name="Elipse 6252" cx="1.126" cy="1.126" r="1.126" transform="translate(0 2.248) rotate(-86.836)" fill="#773635"/>
        </g>
      </g>
      <g id="Grupo_916462" data-name="Grupo 916462" transform="translate(36.676 83.987)">
        <g id="Grupo_916461" data-name="Grupo 916461" transform="translate(0)">
          <path id="Trazado_704109" data-name="Trazado 704109" d="M810.765,1250.481a.748.748,0,1,1-.748-.748A.748.748,0,0,1,810.765,1250.481Z" transform="translate(-809.269 -1249.733)" fill="#773635"/>
        </g>
      </g>
      <g id="Grupo_916464" data-name="Grupo 916464" transform="translate(-9.986 125.61)">
        <g id="Grupo_916463" data-name="Grupo 916463" transform="translate(0 0)">
          <circle id="Elipse_6253" data-name="Elipse 6253" cx="1.645" cy="1.645" r="1.645" transform="matrix(0.997, -0.083, 0.083, 0.997, 0, 0.273)" fill="#773635"/>
        </g>
      </g>
      <g id="Grupo_916466" data-name="Grupo 916466" transform="translate(29.54 109.676)">
        <g id="Grupo_916465" data-name="Grupo 916465" transform="translate(0 0)">
          <circle id="Elipse_6254" data-name="Elipse 6254" cx="0.792" cy="0.792" r="0.792" transform="translate(0 0.602) rotate(-22.331)" fill="#773635"/>
        </g>
      </g>
      <g id="Grupo_916468" data-name="Grupo 916468" transform="translate(27.627 92.915)">
        <g id="Grupo_916467" data-name="Grupo 916467">
          <circle id="Elipse_6255" data-name="Elipse 6255" cx="0.8" cy="0.8" r="0.8" fill="#773635"/>
        </g>
      </g>
      <g id="Grupo_916470" data-name="Grupo 916470" transform="translate(130.402 112.712)">
        <g id="Grupo_916469" data-name="Grupo 916469" transform="translate(0 0)">
          <circle id="Elipse_6256" data-name="Elipse 6256" cx="1.353" cy="1.353" r="1.353" transform="translate(0 2.697) rotate(-85.269)" fill="#773635"/>
        </g>
      </g>
      <g id="Grupo_916472" data-name="Grupo 916472" transform="translate(9.63 113.257)">
        <g id="Grupo_916471" data-name="Grupo 916471" transform="translate(0 0)">
          <circle id="Elipse_6257" data-name="Elipse 6257" cx="1.702" cy="1.702" r="1.702" transform="translate(0 3.313) rotate(-76.766)" fill="#773635"/>
        </g>
      </g>
      <g id="Grupo_916474" data-name="Grupo 916474" transform="translate(122.384 101.495)">
        <g id="Grupo_916473" data-name="Grupo 916473" transform="translate(0 0)">
          <circle id="Elipse_6258" data-name="Elipse 6258" cx="1.702" cy="1.702" r="1.702" transform="translate(0 3.312) rotate(-76.718)" fill="#773635"/>
        </g>
      </g>
      <g id="Grupo_916476" data-name="Grupo 916476" transform="translate(-11.036 89.064)">
        <g id="Grupo_916475" data-name="Grupo 916475" transform="translate(0 0)">
          <circle id="Elipse_6259" data-name="Elipse 6259" cx="1.702" cy="1.702" r="1.702" transform="translate(0 3.369) rotate(-81.915)" fill="#773635"/>
        </g>
      </g>
      <g id="Grupo_916478" data-name="Grupo 916478" transform="translate(3.946 100.116)">
        <g id="Grupo_916477" data-name="Grupo 916477" transform="translate(0 0)">
          <circle id="Elipse_6260" data-name="Elipse 6260" cx="1.228" cy="1.228" r="1.228" transform="translate(0 2.397) rotate(-77.39)" fill="#773635"/>
        </g>
      </g>
      <g id="Grupo_916480" data-name="Grupo 916480" transform="translate(18.792 126.65)">
        <g id="Grupo_916479" data-name="Grupo 916479">
          <circle id="Elipse_6261" data-name="Elipse 6261" cx="1.19" cy="1.19" r="1.19" fill="#773635"/>
        </g>
      </g>
      <g id="Grupo_916482" data-name="Grupo 916482" transform="translate(105.018 126.368)">
        <g id="Grupo_916481" data-name="Grupo 916481" transform="translate(0 0)">
          <circle id="Elipse_6262" data-name="Elipse 6262" cx="1.472" cy="1.472" r="1.472" transform="translate(0 2.866) rotate(-76.718)" fill="#773635"/>
        </g>
      </g>
      <g id="Grupo_916484" data-name="Grupo 916484" transform="translate(93.363 109.701)">
        <g id="Grupo_916483" data-name="Grupo 916483" transform="translate(0 0)">
          <circle id="Elipse_6263" data-name="Elipse 6263" cx="1.114" cy="1.114" r="1.114" transform="translate(0 1.575) rotate(-45)" fill="#773635"/>
        </g>
      </g>
      <g id="Grupo_916486" data-name="Grupo 916486" transform="translate(126.761 89.103)">
        <g id="Grupo_916485" data-name="Grupo 916485" transform="translate(0 0)">
          <circle id="Elipse_6264" data-name="Elipse 6264" cx="1.154" cy="1.154" r="1.154" transform="translate(0 2.246) rotate(-76.718)" fill="#773635"/>
        </g>
      </g>
      <g id="Grupo_916488" data-name="Grupo 916488" transform="translate(-7.63 79.048)">
        <g id="Grupo_916487" data-name="Grupo 916487">
          <circle id="Elipse_6265" data-name="Elipse 6265" cx="0.753" cy="0.753" r="0.753" fill="#773635"/>
        </g>
      </g>
      <g id="Grupo_916490" data-name="Grupo 916490" transform="translate(-10.508 107.126)">
        <g id="Grupo_916489" data-name="Grupo 916489" transform="translate(0)">
          <circle id="Elipse_6266" data-name="Elipse 6266" cx="1.396" cy="1.396" r="1.396" fill="#773635"/>
        </g>
      </g>
      <g id="Grupo_916492" data-name="Grupo 916492" transform="translate(36.619 127.84)">
        <g id="Grupo_916491" data-name="Grupo 916491">
          <path id="Trazado_704110" data-name="Trazado 704110" d="M809.362,1903.87a.8.8,0,1,1,.67-.919A.8.8,0,0,1,809.362,1903.87Z" transform="translate(-808.433 -1902.272)" fill="#773635"/>
        </g>
      </g>
      <g id="Grupo_916494" data-name="Grupo 916494" transform="translate(1.929 90.792)">
        <g id="Grupo_916493" data-name="Grupo 916493">
          <path id="Trazado_704111" data-name="Trazado 704111" d="M293.163,1352.587a.8.8,0,1,1,.67-.919A.8.8,0,0,1,293.163,1352.587Z" transform="translate(-292.234 -1350.988)" fill="#773635"/>
        </g>
      </g>
      <g id="Grupo_916496" data-name="Grupo 916496" transform="translate(11.332 80.76)">
        <g id="Grupo_916495" data-name="Grupo 916495">
          <path id="Trazado_704112" data-name="Trazado 704112" d="M433.545,1204.1a1.2,1.2,0,1,1,1-1.375A1.2,1.2,0,0,1,433.545,1204.1Z" transform="translate(-432.155 -1201.706)" fill="#773635"/>
        </g>
      </g>
      <g id="Grupo_916498" data-name="Grupo 916498" transform="translate(64.762 105.689)">
        <g id="Grupo_916497" data-name="Grupo 916497" transform="translate(0 0)">
          <circle id="Elipse_6267" data-name="Elipse 6267" cx="0.455" cy="0.455" r="0.455" transform="matrix(0.387, -0.922, 0.922, 0.387, 0, 0.84)" fill="#773635"/>
        </g>
      </g>
      <g id="Grupo_916500" data-name="Grupo 916500" transform="translate(50.648 84.17)">
        <g id="Grupo_916499" data-name="Grupo 916499" transform="translate(0 0)">
          <circle id="Elipse_6268" data-name="Elipse 6268" cx="0.455" cy="0.455" r="0.455" transform="matrix(0.281, -0.96, 0.96, 0.281, 0, 0.874)" fill="#773635"/>
        </g>
      </g>
      <g id="Grupo_916502" data-name="Grupo 916502" transform="translate(25.069 78.765)">
        <g id="Grupo_916501" data-name="Grupo 916501" transform="translate(0 0)">
          <circle id="Elipse_6269" data-name="Elipse 6269" cx="1.336" cy="1.336" r="1.336" transform="translate(0 2.396) rotate(-63.748)" fill="#773635"/>
        </g>
      </g>
      <g id="Grupo_916504" data-name="Grupo 916504" transform="translate(107.135 81.675)">
        <g id="Grupo_916503" data-name="Grupo 916503" transform="translate(0 0)">
          <circle id="Elipse_6270" data-name="Elipse 6270" cx="0.455" cy="0.455" r="0.455" transform="matrix(0.281, -0.96, 0.96, 0.281, 0, 0.874)" fill="#773635"/>
        </g>
      </g>
      <g id="Grupo_916506" data-name="Grupo 916506" transform="translate(116.11 78.946)">
        <g id="Grupo_916505" data-name="Grupo 916505">
          <path id="Trazado_704113" data-name="Trazado 704113" d="M1991.963,1175.932a.613.613,0,1,1,.511-.7A.613.613,0,0,1,1991.963,1175.932Z" transform="translate(-1991.255 -1174.714)" fill="#773635"/>
        </g>
      </g>
      <path id="Trazado_704114" data-name="Trazado 704114" d="M1622.794,843.894c-.21-2.7-.591-7.84-4.635-10.913a17.554,17.554,0,0,1,6.6,8.273,53.736,53.736,0,0,0-.626-11.343c2.084,3.452,2.382,7.95,2.269,11.1.271-.669.466-1.107.466-1.107a17.667,17.667,0,0,1,5.595-6.5,22.07,22.07,0,0,0-4.715,9.961,6.913,6.913,0,0,1,3.586-2.622,9.513,9.513,0,0,0-2.482,5.023h-7.342s-.558-3.46-2.93-5.023A6.824,6.824,0,0,1,1622.794,843.894Z" transform="translate(-1527.123 -774.138)" fill="#96dd3a"/>
      <g id="Grupo_916508" data-name="Grupo 916508" transform="translate(59.748 104.908)">
        <g id="Grupo_916507" data-name="Grupo 916507">
          <path id="Trazado_704115" data-name="Trazado 704115" d="M1188.032,1591.436a2.9,2.9,0,0,1-2.876-3.251c.008-.066.019-.137.035-.215.047-.233.087-.455.118-.663.048-.313.082-.616.1-.9a7.059,7.059,0,0,0,.012-.826,2.1,2.1,0,0,0-.435-1.4.7.7,0,0,0-.079-.058,1.867,1.867,0,0,0-.57-.223l-.026-.006a4.94,4.94,0,0,0-1.109-.11,10.433,10.433,0,0,0-1.591.138l-.117.019c-.278.046-.566.1-.856.165a28.04,28.04,0,0,0-3.172.918l-.3.108-.232.083c-.3.111-.587.208-.866.3a15.768,15.768,0,0,1-3.16.7c-.314.035-.634.058-.948.069-.145,0-.271.006-.389.006-.317,0-.636-.014-.948-.04a10.065,10.065,0,0,1-3.013-.725,9.839,9.839,0,0,1-.907-.434,11.125,11.125,0,0,1-3.387-2.911l-.066-.086a8.479,8.479,0,0,1-.554-.813,11.135,11.135,0,0,1-1.343-3.616c-.006-.031-.012-.064-.018-.1-.054-.285-.1-.584-.136-.888a15.356,15.356,0,0,1,.043-3.857c.038-.284.084-.573.139-.858,0-.024.009-.048.013-.072v-.007a2.9,2.9,0,1,1,5.685,1.1l-.008.039h0c-.05.265-.09.525-.118.773a9.111,9.111,0,0,0,.07,2.687,6.737,6.737,0,0,0,.173.728,4.14,4.14,0,0,0,.657,1.367,6.559,6.559,0,0,0,.659.721,4.81,4.81,0,0,0,.589.476,4.009,4.009,0,0,0,1.727.673,4.972,4.972,0,0,0,.723.051h.11a7.81,7.81,0,0,0,1.559-.2c.255-.057.526-.128.808-.212s.605-.191.927-.308c.716-.261,1.415-.5,2.078-.7.287-.087.548-.163.8-.233a25.689,25.689,0,0,1,2.9-.641c.284-.044.564-.081.831-.11a15.3,15.3,0,0,1,1.684-.1,9.944,9.944,0,0,1,3.164.472,7.486,7.486,0,0,1,.83.334,6.828,6.828,0,0,1,1.525.99,6.682,6.682,0,0,1,1.928,2.812l.035.095v0a8.077,8.077,0,0,1,.246.856,11.942,11.942,0,0,1,.135,4.095c-.035.279-.076.559-.122.834-.035.208-.075.422-.118.634A2.9,2.9,0,0,1,1188.032,1591.436Z" transform="translate(-1160.519 -1568.96)" fill="#f2bddb"/>
          <path id="Trazado_704116" data-name="Trazado 704116" d="M1156.3,1562.174a2.326,2.326,0,0,1,2.284,2.768c0,.014-.005.028-.008.042q-.079.415-.124.816a9.722,9.722,0,0,0,.076,2.854,7.287,7.287,0,0,0,.188.788,4.689,4.689,0,0,0,.756,1.557,7.079,7.079,0,0,0,.717.784,5.324,5.324,0,0,0,.657.53,4.58,4.58,0,0,0,1.966.766,5.518,5.518,0,0,0,.805.057h.117a8.308,8.308,0,0,0,1.677-.219q.409-.091.845-.222.462-.138.959-.319,1.061-.387,2.049-.687.4-.121.785-.229a24.983,24.983,0,0,1,2.84-.627q.41-.064.8-.107a14.644,14.644,0,0,1,1.622-.095,9.327,9.327,0,0,1,2.982.442,6.843,6.843,0,0,1,.766.309,6.234,6.234,0,0,1,1.4.907,6.091,6.091,0,0,1,1.764,2.575h0a7.486,7.486,0,0,1,.26.885,11.333,11.333,0,0,1,.125,3.9c-.033.264-.072.534-.118.809-.034.2-.072.407-.114.615a2.325,2.325,0,0,1-2.276,1.865,2.349,2.349,0,0,1-.462-.046,2.323,2.323,0,0,1-1.847-2.562c.007-.058.017-.117.028-.175q.072-.356.122-.69c.051-.333.087-.65.107-.949a7.57,7.57,0,0,0,.012-.894,2.523,2.523,0,0,0-.632-1.808,1.273,1.273,0,0,0-.141-.1,2.455,2.455,0,0,0-.776-.306h0a5.456,5.456,0,0,0-1.24-.125,11.129,11.129,0,0,0-1.8.164h0c-.277.046-.572.1-.886.17a29.188,29.188,0,0,0-3.545,1.045h0l-.238.085c-.259.094-.541.193-.845.29a15.37,15.37,0,0,1-3.047.675c-.3.033-.6.055-.906.066-.122,0-.246.006-.37.006-.3,0-.6-.012-.9-.038a9.459,9.459,0,0,1-2.842-.683,9.189,9.189,0,0,1-.854-.409,10.523,10.523,0,0,1-3.212-2.765l-.06-.077a7.892,7.892,0,0,1-.518-.761,10.632,10.632,0,0,1-1.272-3.431c-.006-.03-.012-.059-.017-.089q-.08-.421-.131-.854a14.837,14.837,0,0,1,.042-3.712q.055-.417.135-.833c0-.024.009-.048.013-.072a2.325,2.325,0,0,1,2.279-1.882m0-1.143a3.47,3.47,0,0,0-3.4,2.807v0l0,.009c0,.024-.009.049-.014.073-.056.294-.1.593-.143.886a15.921,15.921,0,0,0-.043,4c.038.317.085.626.141.923.006.035.013.071.02.105a11.7,11.7,0,0,0,1.414,3.8,9.032,9.032,0,0,0,.59.866l.074.095a11.691,11.691,0,0,0,3.561,3.057,10.368,10.368,0,0,0,.959.459,10.634,10.634,0,0,0,3.185.767c.327.028.662.042,1,.042.123,0,.254,0,.4-.006h.006c.329-.011.663-.035.993-.072a16.329,16.329,0,0,0,3.272-.724c.283-.091.573-.191.884-.3l.228-.082.367-.13a27.259,27.259,0,0,1,3.042-.877c.28-.061.559-.115.828-.159l.127-.021a9.82,9.82,0,0,1,1.488-.129,4.375,4.375,0,0,1,.979.1l.03.007a1.3,1.3,0,0,1,.388.147l.015.01c.013.014.2.229.236,1a6.478,6.478,0,0,1-.011.759c-.018.271-.051.558-.1.853v0c-.03.2-.068.412-.112.633v0c-.018.091-.031.175-.041.257a3.466,3.466,0,0,0,2.755,3.822,3.466,3.466,0,0,0,4.084-2.713c.044-.216.084-.435.121-.651.048-.284.09-.572.125-.857v0a12.513,12.513,0,0,0-.146-4.293c-.064-.278-.141-.554-.231-.822v-.009l-.069-.191a7.245,7.245,0,0,0-2.092-3.049,7.4,7.4,0,0,0-1.654-1.073,8.063,8.063,0,0,0-.892-.36,10.516,10.516,0,0,0-3.346-.5,15.874,15.874,0,0,0-1.748.1c-.275.03-.563.068-.855.114a26.206,26.206,0,0,0-2.969.655c-.257.071-.523.149-.812.237-.674.2-1.383.443-2.108.707-.31.113-.61.213-.893.3s-.529.149-.768.2h0a7.224,7.224,0,0,1-1.444.191h-.1a4.405,4.405,0,0,1-.639-.045,3.451,3.451,0,0,1-1.488-.578,4.233,4.233,0,0,1-.518-.419l0,0,0,0a5.984,5.984,0,0,1-.6-.658,3.625,3.625,0,0,1-.557-1.174,6.141,6.141,0,0,1-.159-.667,8.661,8.661,0,0,1-.065-2.519c.027-.235.063-.478.11-.726l.006-.03v-.014a3.469,3.469,0,0,0-3.406-4.128Z" transform="translate(-1152.59 -1561.031)" fill="#5b2222"/>
        </g>
      </g>
      <g id="Grupo_916510" data-name="Grupo 916510" transform="translate(75.833 86.04)">
        <g id="Grupo_916509" data-name="Grupo 916509">
          <path id="Trazado_704117" data-name="Trazado 704117" d="M1429.653,1314.259a6.249,6.249,0,0,1-2.108-.366,6.177,6.177,0,0,1-2-1.183,5.936,5.936,0,0,1-1.681-2.467l-.034-.094v0a6.162,6.162,0,0,1-.216-.812,6.481,6.481,0,0,1-.118-1.275,7.607,7.607,0,0,1,.583-2.818,9.527,9.527,0,0,1,.442-.938,12.052,12.052,0,0,1,1.117-1.7l.012-.015a8.052,8.052,0,0,0,.541-.78,4.384,4.384,0,0,0,.641-1.691,2.7,2.7,0,0,0,0-.7c0-.021-.005-.038-.008-.056a3.411,3.411,0,0,0-.62-1.434,5.415,5.415,0,0,0-1.182-1.2c-.337-.222-.7-.435-1.065-.63-.24-.127-.489-.25-.74-.364a13.926,13.926,0,0,0-2.48-.858c-.275-.067-.55-.124-.816-.17a9.59,9.59,0,0,0-1.084-.129c-.117-.007-.233-.01-.343-.01-.074,0-.146,0-.216,0a2.344,2.344,0,0,0-.709.123.382.382,0,0,0-.108.058c-.034.03-.208.231-.3,1.167-.028.281-.043.564-.053.78-.005.1-.009.186-.013.273l0,.1c0,.091-.008.18-.012.268a8.363,8.363,0,0,1-.658,2.8,9.024,9.024,0,0,1-.406.84c-.054.1-.116.208-.181.316a7.676,7.676,0,0,1-3.659,3.22l-.034.014a7,7,0,0,1-.885.29,7.218,7.218,0,0,1-1.793.224,8.322,8.322,0,0,1-2.325-.345c-.287-.083-.577-.183-.861-.294a14.256,14.256,0,0,1-3.517-2.07c-.237-.185-.468-.374-.687-.562-.242-.206-.483-.42-.714-.635a2.9,2.9,0,1,1,3.937-4.246c.079.073.157.145.235.214.205.183.408.356.6.512a9.539,9.539,0,0,0,1.974,1.274,4.579,4.579,0,0,0,.688.255,2.57,2.57,0,0,0,.67.1,1.508,1.508,0,0,0,.348-.038,1.154,1.154,0,0,0,.178-.056,1.455,1.455,0,0,0,.374-.231,2.805,2.805,0,0,0,.778-1.184,2.469,2.469,0,0,0,.152-.684c0-.065.015-.323.015-.323l.005-.111a15.641,15.641,0,0,1,.229-2.307,8.722,8.722,0,0,1,.233-.953,6.358,6.358,0,0,1,1.8-2.907,6.146,6.146,0,0,1,2.052-1.22,7.183,7.183,0,0,1,.868-.251,9.157,9.157,0,0,1,2.008-.21c.215,0,.438.006.661.019a14.928,14.928,0,0,1,1.533.174c.277.045.559.1.84.156a19.579,19.579,0,0,1,4.292,1.436c.263.123.528.255.787.392.553.291,1.095.611,1.609.951a10.312,10.312,0,0,1,1.8,1.564c.2.218.394.442.569.665a9.279,9.279,0,0,1,1.938,4.263c.041.249.07.494.087.73a8.309,8.309,0,0,1,.021.891,8.912,8.912,0,0,1-.34,2.175,10,10,0,0,1-.439,1.227c-.113.26-.237.519-.37.77a13,13,0,0,1-1.131,1.771c-.05.066-.1.134-.154.2-.114.146-.222.295-.319.441a3.533,3.533,0,0,0-.581,1.265.7.7,0,0,0,.019.442.2.2,0,0,0,.046.059.369.369,0,0,0,.093.057l.006,0a.5.5,0,0,0,.2.044.375.375,0,0,0,.266-.111l.012-.012.006-.005a2.883,2.883,0,0,1,2.027-.851h.022a2.9,2.9,0,0,1,2.053,4.937,6.2,6.2,0,0,1-4.409,1.831Z" transform="translate(-1399.862 -1288.203)" fill="#f2bddb"/>
          <path id="Trazado_704118" data-name="Trazado 704118" d="M1410.582,1281.417q.308,0,.628.018a14.477,14.477,0,0,1,1.474.167c.25.04.523.09.814.151a19.063,19.063,0,0,1,4.166,1.394q.378.177.763.38a18.1,18.1,0,0,1,1.561.922,9.815,9.815,0,0,1,1.7,1.476c.178.192.36.4.54.63a8.781,8.781,0,0,1,1.823,4c.037.226.065.452.081.679a7.7,7.7,0,0,1,.02.833,8.308,8.308,0,0,1-.319,2.036,9.3,9.3,0,0,1-.414,1.157q-.158.365-.35.729a12.381,12.381,0,0,1-1.082,1.693q-.073.1-.148.193-.19.243-.345.477a4.182,4.182,0,0,0-.667,1.476,1.253,1.253,0,0,0,.073.808.783.783,0,0,0,.176.226.944.944,0,0,0,.241.152,1.064,1.064,0,0,0,.434.1.944.944,0,0,0,.664-.272h0l.021-.02a2.312,2.312,0,0,1,1.63-.686h.018a2.324,2.324,0,0,1,1.647,3.963,5.66,5.66,0,0,1-5.919,1.329,5.615,5.615,0,0,1-1.813-1.074,5.4,5.4,0,0,1-1.521-2.232h0a5.529,5.529,0,0,1-.226-.823,5.885,5.885,0,0,1-.107-1.163,7.009,7.009,0,0,1,.541-2.606,8.91,8.91,0,0,1,.416-.883,11.472,11.472,0,0,1,1.064-1.617l.009-.011a8.592,8.592,0,0,0,.582-.839,4.929,4.929,0,0,0,.72-1.916,3.249,3.249,0,0,0,0-.85c0-.023-.006-.045-.01-.068a4,4,0,0,0-.719-1.677,5.8,5.8,0,0,0-.552-.664,5.735,5.735,0,0,0-.768-.674l-.006,0c-.369-.244-.744-.464-1.121-.664-.257-.136-.515-.262-.772-.379a14.58,14.58,0,0,0-2.582-.893c-.3-.072-.582-.131-.854-.178a10.148,10.148,0,0,0-1.148-.136c-.13-.007-.256-.011-.376-.011q-.124,0-.24,0a2.857,2.857,0,0,0-.9.163.932.932,0,0,0-.279.165,2.594,2.594,0,0,0-.488,1.534c-.027.271-.043.548-.055.81-.005.1-.009.2-.013.291-.005.12-.01.237-.016.351a7.768,7.768,0,0,1-.614,2.609,8.443,8.443,0,0,1-.38.786q-.081.15-.169.3a7.113,7.113,0,0,1-3.386,2.986l-.028.011a6.411,6.411,0,0,1-.817.268,6.62,6.62,0,0,1-1.652.206,7.713,7.713,0,0,1-2.165-.322c-.264-.077-.535-.169-.812-.278a13.6,13.6,0,0,1-3.375-1.989q-.329-.257-.667-.545t-.7-.619a2.324,2.324,0,1,1,3.16-3.409q.122.114.243.222.315.281.623.53a10.1,10.1,0,0,0,2.1,1.35,5.133,5.133,0,0,0,.775.286,3.127,3.127,0,0,0,.82.12,2.074,2.074,0,0,0,.48-.054,1.737,1.737,0,0,0,.259-.082,2.008,2.008,0,0,0,.526-.322,3.374,3.374,0,0,0,.95-1.429,3.024,3.024,0,0,0,.185-.849c.005-.1.01-.214.015-.324,0-.037,0-.074.005-.113h0a15.27,15.27,0,0,1,.219-2.225,8.118,8.118,0,0,1,.218-.892,5.769,5.769,0,0,1,1.639-2.652,5.561,5.561,0,0,1,1.863-1.107,6.613,6.613,0,0,1,.8-.231,8.559,8.559,0,0,1,1.884-.2m0-1.142a9.731,9.731,0,0,0-2.136.225,7.748,7.748,0,0,0-.934.27,6.724,6.724,0,0,0-2.243,1.335,6.923,6.923,0,0,0-1.964,3.164,9.285,9.285,0,0,0-.249,1.016,16.143,16.143,0,0,0-.238,2.387v.005l0,.1-.006.129c0,.065-.006.129-.009.192a1.859,1.859,0,0,1-.119.519,2.254,2.254,0,0,1-.607.938.885.885,0,0,1-.224.141.606.606,0,0,1-.086.027h-.007a.946.946,0,0,1-.216.023,2.006,2.006,0,0,1-.519-.079,4.026,4.026,0,0,1-.6-.223,8.978,8.978,0,0,1-1.852-1.2c-.187-.151-.382-.318-.58-.494-.071-.063-.145-.131-.226-.206a3.467,3.467,0,1,0-4.715,5.083c.236.219.483.438.733.651.223.191.461.385.7.576a14.82,14.82,0,0,0,3.662,2.152c.3.118.606.223.91.311a8.893,8.893,0,0,0,2.484.368,7.794,7.794,0,0,0,1.936-.242,7.578,7.578,0,0,0,.953-.312l.017-.007.006,0,.016-.007a8.244,8.244,0,0,0,3.933-3.455c.068-.113.134-.228.194-.339a9.649,9.649,0,0,0,.429-.888,8.94,8.94,0,0,0,.7-3c0-.085.008-.174.012-.265l0-.093v-.028c0-.082.007-.167.011-.253v-.006c.014-.309.03-.54.051-.749a3.646,3.646,0,0,1,.14-.778,2.308,2.308,0,0,1,.438-.056c.06,0,.124,0,.188,0,.1,0,.205,0,.313.009a9.066,9.066,0,0,1,1.016.121c.255.044.517.1.778.162a13.38,13.38,0,0,1,2.38.823c.24.109.479.226.709.348.351.186.691.387,1.011.6a4.728,4.728,0,0,1,.6.527,4.637,4.637,0,0,1,.441.531,2.853,2.853,0,0,1,.523,1.194c0,.01,0,.023.005.036v.006a2.124,2.124,0,0,1,0,.552v0a3.824,3.824,0,0,1-.564,1.468,7.469,7.469,0,0,1-.5.72l0,0v0l-.011.014a12.655,12.655,0,0,0-1.169,1.778,10.06,10.06,0,0,0-.469,1,8.163,8.163,0,0,0-.624,3.026,7.073,7.073,0,0,0,.129,1.389,6.752,6.752,0,0,0,.205.794v.01l.068.188a6.5,6.5,0,0,0,1.84,2.7,6.742,6.742,0,0,0,2.181,1.292,6.8,6.8,0,0,0,6.33-.919h0a6.886,6.886,0,0,0,.783-.677,3.466,3.466,0,0,0-2.458-5.911h-.027a3.461,3.461,0,0,0-1.972.633,4.321,4.321,0,0,1,.357-.636c.089-.135.188-.271.294-.406.053-.068.107-.138.16-.209a13.577,13.577,0,0,0,1.181-1.849c.138-.261.269-.533.387-.807a10.561,10.561,0,0,0,.465-1.3,9.485,9.485,0,0,0,.362-2.315,8.877,8.877,0,0,0-.023-.953c-.019-.252-.05-.513-.093-.776a9.848,9.848,0,0,0-2.054-4.527c-.184-.233-.385-.469-.6-.7a10.922,10.922,0,0,0-1.908-1.654c-.53-.35-1.087-.679-1.656-.979-.265-.14-.538-.276-.811-.4a20.144,20.144,0,0,0-4.415-1.477c-.289-.06-.58-.115-.867-.161a15.588,15.588,0,0,0-1.592-.18c-.233-.013-.467-.02-.692-.02Z" transform="translate(-1391.937 -1280.274)" fill="#5b2222"/>
        </g>
      </g>
      <g id="Grupo_916512" data-name="Grupo 916512" transform="translate(25.989 89.072)">
        <path id="Trazado_704119" data-name="Trazado 704119" d="M667.72,1368.671h-.09c-.292,0-.589-.015-.88-.039a14.911,14.911,0,0,1-4.806-1.278c-.258-.113-.518-.235-.774-.363-.31-.153-.623-.318-.929-.489a2.9,2.9,0,1,1,2.822-5.057c.183.1.371.2.56.3.236.12.478.233.719.339a9.619,9.619,0,0,0,2.561.745,6.459,6.459,0,0,0,.75.055h.091a4.643,4.643,0,0,0,1.834-.351,3.864,3.864,0,0,0,.648-.35,4.035,4.035,0,0,0,.71-.609,4.484,4.484,0,0,0,.653-.92,5.21,5.21,0,0,0,.321-.728,6.2,6.2,0,0,0,.345-1.911c.005-.179,0-.362-.006-.546a7.383,7.383,0,0,0-.091-.863,8.6,8.6,0,0,0-.959-2.738c-.134-.245-.284-.494-.446-.738l-.074-.112a17.532,17.532,0,0,1-2.009-4.1c-.094-.287-.18-.581-.256-.872a12.449,12.449,0,0,1-.414-3.572c.013-.359.042-.714.088-1.056.039-.3.091-.594.155-.878a10.209,10.209,0,0,1,3.9-5.973c.214-.165.431-.322.647-.468l.092-.061a12.576,12.576,0,0,1,4.808-1.939c.277-.05.565-.091.854-.122a13.245,13.245,0,0,1,1.425-.076,15.167,15.167,0,0,1,4.193.616l.012,0,.028.008c.269.078.536.163.8.252a18,18,0,0,1,4.13,2.024c.088.06.149.1.181.126a3.337,3.337,0,0,1,.55.5,2.649,2.649,0,0,1,.161,3.52,2.731,2.731,0,0,1-2.272,1.28,3.063,3.063,0,0,1-1.139-.23c-.065-.026-.127-.053-.185-.08l-.033.046-.467-.332c-.016-.011-.06-.041-.13-.086a12.792,12.792,0,0,0-2.465-1.211c-.25-.091-.5-.174-.751-.246l-.136-.038a9.31,9.31,0,0,0-2.467-.356,7.455,7.455,0,0,0-.844.047,6.8,6.8,0,0,0-.737.125,6.881,6.881,0,0,0-2.355,1.029l-.014.01-.109.076a6.484,6.484,0,0,0-.6.477,4.333,4.333,0,0,0-1.442,2.458,4.679,4.679,0,0,0-.083.721v.023c0,.006,0,.013,0,.02a7.108,7.108,0,0,0,.414,2.508c.079.236.171.477.273.717a12.5,12.5,0,0,0,1.1,2.028,15.6,15.6,0,0,1,1.161,2.07c.118.255.23.515.333.774l.04.1v0a13.682,13.682,0,0,1,.938,4.75c0,.183,0,.37,0,.555,0,.092-.006.189-.012.295a11.616,11.616,0,0,1-1.182,4.61c-.13.262-.271.52-.42.766a10.21,10.21,0,0,1-1.245,1.659,9.783,9.783,0,0,1-2.154,1.752c-.266.159-.539.3-.811.434a10.221,10.221,0,0,1-3.589.943C668.336,1368.659,668.03,1368.671,667.72,1368.671Z" transform="translate(-658.186 -1333.324)" fill="#f2bddb"/>
        <g id="Grupo_916511" data-name="Grupo 916511">
          <path id="Trazado_704120" data-name="Trazado 704120" d="M672.044,1326.537a14.553,14.553,0,0,1,4.035.594l.028.009q.4.116.78.247a17.462,17.462,0,0,1,4,1.957c.086.058.144.1.171.119a2.739,2.739,0,0,1,.455.411,2.084,2.084,0,0,1,.121,2.807,2.169,2.169,0,0,1-1.807,1.04,2.519,2.519,0,0,1-.927-.19,2.747,2.747,0,0,1-.557-.3l0-.019-.01.014c-.018-.013-.07-.048-.152-.1a13.361,13.361,0,0,0-2.579-1.268c-.251-.091-.514-.178-.787-.258l-.146-.041a9.821,9.821,0,0,0-2.617-.376,7.974,7.974,0,0,0-.909.051,7.334,7.334,0,0,0-.8.135,7.426,7.426,0,0,0-2.549,1.113l-.135.094a6.934,6.934,0,0,0-.651.518,4.908,4.908,0,0,0-1.62,2.773,5.216,5.216,0,0,0-.094.807c0,.014,0,.029,0,.044a7.7,7.7,0,0,0,.444,2.712q.126.376.289.757a13.05,13.05,0,0,0,1.151,2.12,14.944,14.944,0,0,1,1.118,1.993q.171.37.32.745h0a13.155,13.155,0,0,1,.938,4.651q0,.264,0,.529c0,.094-.006.187-.012.28a11.119,11.119,0,0,1-1.123,4.388q-.184.372-.4.726a9.618,9.618,0,0,1-1.175,1.566,9.2,9.2,0,0,1-2.029,1.65q-.371.222-.762.407a9.646,9.646,0,0,1-3.39.89c-.286.023-.575.034-.866.034h-.083q-.418,0-.841-.037a14.308,14.308,0,0,1-4.622-1.231q-.374-.164-.751-.351-.45-.223-.9-.476a2.324,2.324,0,1,1,2.265-4.059q.293.163.581.309.378.192.749.353a10.178,10.178,0,0,0,2.714.788,7.011,7.011,0,0,0,.817.06h.1a5.2,5.2,0,0,0,2.059-.4,4.406,4.406,0,0,0,.742-.4,4.59,4.59,0,0,0,.81-.695,5.059,5.059,0,0,0,.737-1.037,5.743,5.743,0,0,0,.357-.81,6.787,6.787,0,0,0,.378-2.085q.009-.294-.006-.59a7.9,7.9,0,0,0-.1-.928,9.175,9.175,0,0,0-1.022-2.918q-.216-.395-.472-.78l-.074-.112a16.928,16.928,0,0,1-1.942-3.967q-.138-.42-.247-.838a11.871,11.871,0,0,1-.4-3.407q.018-.508.084-1,.055-.422.146-.83a9.7,9.7,0,0,1,3.692-5.645c.2-.153.4-.3.618-.447l.087-.058a12,12,0,0,1,4.593-1.853q.4-.073.815-.116a12.685,12.685,0,0,1,1.365-.073m0-1.142h0a13.906,13.906,0,0,0-1.488.08c-.3.032-.6.075-.895.128a13.148,13.148,0,0,0-5.022,2.025l-.1.065c-.225.152-.452.316-.673.487a11.617,11.617,0,0,0-2.651,2.833,10.444,10.444,0,0,0-1.459,3.471c-.067.3-.122.612-.163.928-.048.357-.079.731-.093,1.108a13.027,13.027,0,0,0,.432,3.736c.079.3.169.608.266.906a18.09,18.09,0,0,0,2.072,4.236l0,0,0,0,.036.055.037.057c.154.232.3.466.422.7a8.02,8.02,0,0,1,.9,2.554v0a6.758,6.758,0,0,1,.084.794v0c.008.169.01.337.005.5a5.634,5.634,0,0,1-.312,1.736,4.634,4.634,0,0,1-.287.651,3.913,3.913,0,0,1-.569.8,3.466,3.466,0,0,1-.609.523,3.27,3.27,0,0,1-.551.3h0a4.078,4.078,0,0,1-1.61.305h-.081a5.914,5.914,0,0,1-.686-.051,9.036,9.036,0,0,1-2.407-.7c-.231-.1-.462-.209-.687-.323-.185-.093-.366-.19-.541-.287a3.467,3.467,0,1,0-3.38,6.054c.314.176.636.345.955.5.263.13.531.256.8.373a15.476,15.476,0,0,0,4.99,1.324c.3.025.613.039.919.041h.1c.325,0,.647-.013.958-.038a10.786,10.786,0,0,0,3.789-1c.287-.136.576-.291.858-.458a10.359,10.359,0,0,0,2.282-1.855,10.784,10.784,0,0,0,1.315-1.751c.157-.26.306-.532.443-.809a12.184,12.184,0,0,0,1.24-4.834c.006-.11.01-.212.013-.31.006-.192.007-.387,0-.579a14.238,14.238,0,0,0-.938-4.845v-.005l-.081-.2c-.107-.269-.223-.539-.346-.8a16.137,16.137,0,0,0-1.2-2.145,11.915,11.915,0,0,1-1.051-1.934c-.1-.228-.183-.455-.258-.676a6.548,6.548,0,0,1-.385-2.307v-.04a4.11,4.11,0,0,1,.073-.631v0a3.782,3.782,0,0,1,1.262-2.141,5.858,5.858,0,0,1,.546-.434l0,0,0,0,.1-.071.013-.009a6.313,6.313,0,0,1,2.157-.943,6.2,6.2,0,0,1,.676-.114,6.872,6.872,0,0,1,.781-.044,8.717,8.717,0,0,1,2.313.335h.006l.126.036c.234.068.475.147.714.234a12.186,12.186,0,0,1,2.35,1.154c.078.05.113.074.113.074l.932.662.1-.147a3.554,3.554,0,0,0,1.115.185,3.281,3.281,0,0,0,2.737-1.519,3.221,3.221,0,0,0-.2-4.232,3.935,3.935,0,0,0-.646-.583c-.034-.025-.1-.069-.191-.133a18.6,18.6,0,0,0-4.267-2.092c-.264-.091-.538-.177-.812-.257l-.036-.011h0l-.012,0a15.734,15.734,0,0,0-4.351-.638Z" transform="translate(-650.259 -1325.395)" fill="#5b2222"/>
        </g>
      </g>
      <path id="Trazado_704121" data-name="Trazado 704121" d="M698.435,1760.094q.377.187.751.352a11.29,11.29,0,0,1,1.94-4.225q-.371-.161-.749-.353A11.928,11.928,0,0,0,698.435,1760.094Z" transform="translate(-669.208 -1637.867)" fill="#d388a5"/>
      <path id="Trazado_704122" data-name="Trazado 704122" d="M775.406,1772.837a12.036,12.036,0,0,0-.033,4.669q.423.035.841.037a11.212,11.212,0,0,1,.008-4.646A7.037,7.037,0,0,1,775.406,1772.837Z" transform="translate(-740.774 -1653.695)" fill="#d388a5"/>
      <path id="Trazado_704123" data-name="Trazado 704123" d="M823.866,1761.853a4.4,4.4,0,0,1-.742.4,8.478,8.478,0,0,0,2.173,4.118q.391-.185.762-.407A7.674,7.674,0,0,1,823.866,1761.853Z" transform="translate(-785.517 -1643.449)" fill="#d388a5"/>
      <path id="Trazado_704124" data-name="Trazado 704124" d="M857.549,1724.032a5.743,5.743,0,0,1-.357.81,9.757,9.757,0,0,0,3.85,2.629q.213-.353.4-.726A9.219,9.219,0,0,1,857.549,1724.032Z" transform="translate(-817.296 -1608.17)" fill="#d388a5"/>
      <path id="Trazado_704125" data-name="Trazado 704125" d="M866.57,1670.417a7.858,7.858,0,0,1,.1.928,12.065,12.065,0,0,0,4.484,1l.157,0c.005-.093.009-.186.012-.28q.008-.265,0-.529A11.614,11.614,0,0,1,866.57,1670.417Z" transform="translate(-826.044 -1558.158)" fill="#d388a5"/>
      <path id="Trazado_704126" data-name="Trazado 704126" d="M843.254,1607.246l.074.112q.256.385.472.78a12.893,12.893,0,0,0,1.4.079,7.837,7.837,0,0,0,3.436-.693h0q-.149-.375-.32-.745A8.921,8.921,0,0,1,843.254,1607.246Z" transform="translate(-804.295 -1498.798)" fill="#d388a5"/>
      <path id="Trazado_704127" data-name="Trazado 704127" d="M815.672,1535.055q-.162-.381-.289-.757a10.61,10.61,0,0,1-4.694.533q.109.418.246.838c.3.021.629.035.975.035A10.4,10.4,0,0,0,815.672,1535.055Z" transform="translate(-773.918 -1431.187)" fill="#d388a5"/>
      <path id="Trazado_704128" data-name="Trazado 704128" d="M810.7,1465.438a12.562,12.562,0,0,1-4.512-1.141q-.091.408-.146.83a13.131,13.131,0,0,0,4.565,1.118A5.221,5.221,0,0,1,810.7,1465.438Z" transform="translate(-769.583 -1365.89)" fill="#d388a5"/>
      <path id="Trazado_704129" data-name="Trazado 704129" d="M865.592,1377.309a6.985,6.985,0,0,1,.651-.518,6.1,6.1,0,0,1-1.883-2.51,9.767,9.767,0,0,1-.5-1.488l-.086.058q-.32.216-.618.447a10.257,10.257,0,0,0,.459,1.3A6.948,6.948,0,0,0,865.592,1377.309Z" transform="translate(-822.855 -1280.535)" fill="#d388a5"/>
      <path id="Trazado_704130" data-name="Trazado 704130" d="M942.633,1343.481q-.411.044-.815.117a15.285,15.285,0,0,0,.478,4.645,7.364,7.364,0,0,1,.8-.135A14.673,14.673,0,0,1,942.633,1343.481Z" transform="translate(-896.223 -1253.193)" fill="#d388a5"/>
      <path id="Trazado_704131" data-name="Trazado 704131" d="M1015.615,1355.821c.274.08.537.167.787.258a14.932,14.932,0,0,1,1.287-4.475q-.377-.13-.78-.246A15.661,15.661,0,0,0,1015.615,1355.821Z" transform="translate(-965.072 -1260.54)" fill="#d388a5"/>
      <path id="Trazado_704132" data-name="Trazado 704132" d="M1068.575,1384.256c-.028-.02-.085-.061-.171-.12-.23.206-.466.431-.7.673a8.505,8.505,0,0,0-2,3.113c.083.053.135.088.152.1l.01-.014,0,.019a2.749,2.749,0,0,0,.557.3,8.578,8.578,0,0,1,2.613-3.657A2.73,2.73,0,0,0,1068.575,1384.256Z" transform="translate(-1011.791 -1291.117)" fill="#d388a5"/>
      <path id="Trazado_704133" data-name="Trazado 704133" d="M1176.237,1608.777q.045-.4.124-.816a10.165,10.165,0,0,1-3.839-.549,7.833,7.833,0,0,1-.729-.306q-.08.416-.135.833a10.32,10.32,0,0,0,4.236.843Q1176.063,1608.782,1176.237,1608.777Z" transform="translate(-1110.628 -1499.102)" fill="#d388a5"/>
      <path id="Trazado_704134" data-name="Trazado 704134" d="M1175.925,1675.225a7.253,7.253,0,0,1-.188-.789,9.78,9.78,0,0,1-2.279.256,13.172,13.172,0,0,1-2.418-.235q.052.433.131.854a13.558,13.558,0,0,0,2.266.2A10.56,10.56,0,0,0,1175.925,1675.225Z" transform="translate(-1110.052 -1561.907)" fill="#d388a5"/>
      <path id="Trazado_704135" data-name="Trazado 704135" d="M1197.113,1721.009a12.188,12.188,0,0,1-4.937,1.265,7.888,7.888,0,0,0,.518.761c.384-.039.795-.091,1.215-.158a9.166,9.166,0,0,0,3.861-1.337A5.33,5.33,0,0,1,1197.113,1721.009Z" transform="translate(-1129.767 -1605.35)" fill="#d388a5"/>
      <path id="Trazado_704136" data-name="Trazado 704136" d="M1252.351,1740.3a13.463,13.463,0,0,1-3.77,3.572,9.173,9.173,0,0,0,.854.409,13.374,13.374,0,0,0,3.839-3.924h-.117A5.5,5.5,0,0,1,1252.351,1740.3Z" transform="translate(-1182.382 -1623.342)" fill="#d388a5"/>
      <path id="Trazado_704137" data-name="Trazado 704137" d="M1322.463,1739.65q.462-.016.906-.066a20.511,20.511,0,0,0,1.344-5.015q-.437.131-.845.222A20.542,20.542,0,0,1,1322.463,1739.65Z" transform="translate(-1251.299 -1617.999)" fill="#d388a5"/>
      <path id="Trazado_704138" data-name="Trazado 704138" d="M1382.586,1716.42a10.266,10.266,0,0,1-1.3,5.345c.3-.1.586-.2.845-.29l.238-.085h0a9.966,9.966,0,0,0,1.006-5.2Q1382.985,1716.3,1382.586,1716.42Z" transform="translate(-1306.165 -1600.856)" fill="#d388a5"/>
      <path id="Trazado_704139" data-name="Trazado 704139" d="M1450.45,1705.383a10.32,10.32,0,0,1-.3,4.78c.314-.069.609-.125.886-.17h0a10.741,10.741,0,0,0,.22-4.716Q1450.861,1705.319,1450.45,1705.383Z" transform="translate(-1370.404 -1590.675)" fill="#d388a5"/>
      <path id="Trazado_704140" data-name="Trazado 704140" d="M1510.357,1710.446a10.882,10.882,0,0,1-1.784,4.33,2.45,2.45,0,0,1,.776.306,11.584,11.584,0,0,0,1.774-4.327A6.866,6.866,0,0,0,1510.357,1710.446Z" transform="translate(-1424.901 -1595.497)" fill="#d388a5"/>
      <path id="Trazado_704141" data-name="Trazado 704141" d="M1535.886,1767.745a7.493,7.493,0,0,0-.26-.885,14.308,14.308,0,0,1-4.163,2.757,7.541,7.541,0,0,1-.012.893A17.092,17.092,0,0,0,1535.886,1767.745Z" transform="translate(-1446.242 -1648.12)" fill="#d388a5"/>
      <path id="Trazado_704142" data-name="Trazado 704142" d="M1527.772,1832.712q-.05.334-.122.69c-.012.058-.021.117-.028.175a9.551,9.551,0,0,1,4.7.129c.046-.275.085-.545.118-.808A10.2,10.2,0,0,0,1527.772,1832.712Z" transform="translate(-1442.669 -1709.373)" fill="#d388a5"/>
      <g id="Grupo_916514" data-name="Grupo 916514" transform="translate(112.223 94.634)">
        <g id="Grupo_916513" data-name="Grupo 916513">
          <path id="Trazado_704143" data-name="Trazado 704143" d="M1941.99,1439.47a2.9,2.9,0,0,1,3.824-2.052c.063.023.129.05.2.083.216.1.423.189.619.267.294.119.581.222.855.306a6.951,6.951,0,0,0,.8.2,2.1,2.1,0,0,0,1.467-.1.68.68,0,0,0,.074-.064,1.86,1.86,0,0,0,.348-.5l.012-.024a4.937,4.937,0,0,0,.362-1.054,10.462,10.462,0,0,0,.231-1.58l.008-.118c.019-.281.031-.574.036-.871a27.928,27.928,0,0,0-.165-3.3l-.035-.322c-.009-.081-.018-.162-.028-.245-.038-.322-.068-.619-.091-.912a15.774,15.774,0,0,1,.045-3.236c.038-.314.089-.631.151-.939.029-.142.056-.265.083-.38.073-.309.159-.616.257-.913a10.069,10.069,0,0,1,1.4-2.766,9.848,9.848,0,0,1,.631-.783,11.126,11.126,0,0,1,3.612-2.628l.1-.045a8.459,8.459,0,0,1,.919-.353,11.134,11.134,0,0,1,3.827-.477l.1,0c.29.013.591.037.9.071a15.358,15.358,0,0,1,3.744.928c.268.1.538.214.8.332l.066.029.006,0a2.9,2.9,0,1,1-2.378,5.28l-.036-.016h0c-.246-.109-.49-.208-.725-.292a9.094,9.094,0,0,0-2.631-.549,6.692,6.692,0,0,0-.748,0,4.136,4.136,0,0,0-1.481.325,6.549,6.549,0,0,0-.854.475,4.793,4.793,0,0,0-.6.464,4,4,0,0,0-1.051,1.526,4.934,4.934,0,0,0-.216.692c-.008.031-.015.064-.022.1l0,.011a7.8,7.8,0,0,0-.159,1.564c0,.261,0,.541.021.835s.047.633.087.973c.09.756.157,1.491.2,2.183.019.3.033.571.043.831a25.69,25.69,0,0,1-.044,2.974c-.022.287-.05.567-.083.834a15.328,15.328,0,0,1-.292,1.661,9.938,9.938,0,0,1-1.187,2.971,7.441,7.441,0,0,1-.516.731,6.839,6.839,0,0,1-1.314,1.257,6.678,6.678,0,0,1-3.18,1.23l-.1.012h0a8.141,8.141,0,0,1-.89.043,11.946,11.946,0,0,1-4.016-.81c-.264-.1-.527-.2-.784-.311-.195-.082-.393-.17-.59-.26A2.9,2.9,0,0,1,1941.99,1439.47Z" transform="translate(-1941.342 -1416.083)" fill="#f2bddb"/>
          <path id="Trazado_704144" data-name="Trazado 704144" d="M1960.3,1413.276a2.327,2.327,0,0,1-3.219,1.587l-.038-.017q-.386-.172-.765-.308a9.716,9.716,0,0,0-2.8-.582,7.249,7.249,0,0,0-.811,0,4.692,4.692,0,0,0-1.689.378,7.1,7.1,0,0,0-.928.517,5.345,5.345,0,0,0-.667.517,4.582,4.582,0,0,0-1.2,1.738,5.508,5.508,0,0,0-.241.771c-.009.038-.017.076-.026.114a8.3,8.3,0,0,0-.172,1.682q-.005.419.022.874.028.482.09,1.006.133,1.122.2,2.152c.018.277.032.55.043.817a24.958,24.958,0,0,1-.042,2.908q-.032.414-.081.807a14.639,14.639,0,0,1-.28,1.6,9.327,9.327,0,0,1-1.116,2.8,6.863,6.863,0,0,1-.477.675,6.226,6.226,0,0,1-1.2,1.153,6.089,6.089,0,0,1-2.911,1.125h0a7.507,7.507,0,0,1-.921.05,11.335,11.335,0,0,1-3.823-.774q-.374-.139-.76-.3-.283-.119-.573-.253a2.325,2.325,0,0,1-1.292-2.643,2.349,2.349,0,0,1,.151-.439,2.324,2.324,0,0,1,2.918-1.209c.055.02.109.043.164.068q.33.152.643.278.469.19.9.322a7.565,7.565,0,0,0,.867.217,2.523,2.523,0,0,0,1.905-.2,1.254,1.254,0,0,0,.134-.114,2.452,2.452,0,0,0,.476-.685h0a5.46,5.46,0,0,0,.407-1.178,11.131,11.131,0,0,0,.254-1.789h0c.019-.28.032-.58.038-.9a29.185,29.185,0,0,0-.2-3.69h0c-.009-.083-.018-.167-.028-.252-.032-.273-.063-.571-.088-.889a15.361,15.361,0,0,1,.043-3.121c.036-.3.083-.595.144-.9.025-.12.051-.241.079-.361.068-.288.149-.577.244-.866a9.457,9.457,0,0,1,1.318-2.609,9.135,9.135,0,0,1,.594-.737,10.521,10.521,0,0,1,3.429-2.491l.089-.041a7.852,7.852,0,0,1,.859-.33,10.633,10.633,0,0,1,3.632-.45l.091,0q.428.019.861.069a14.827,14.827,0,0,1,3.6.893q.393.15.78.323l.067.029a2.325,2.325,0,0,1,1.308,2.65m1.112.262a3.47,3.47,0,0,0-1.951-3.954h0l-.009,0-.068-.03c-.274-.122-.553-.238-.83-.343a15.924,15.924,0,0,0-3.88-.961c-.317-.036-.629-.061-.931-.074l-.107,0a11.7,11.7,0,0,0-4.023.5,9.032,9.032,0,0,0-.979.375l-.109.05a11.694,11.694,0,0,0-3.794,2.764,10.412,10.412,0,0,0-.667.828,10.635,10.635,0,0,0-1.478,2.924c-.1.312-.193.635-.27.96-.028.12-.056.248-.086.393v.006c-.065.323-.118.654-.158.983a16.33,16.33,0,0,0-.048,3.351c.024.3.054.6.093.931.01.083.019.162.027.24l.042.387a27.254,27.254,0,0,1,.155,3.162c0,.287-.017.57-.035.842l-.009.128a9.823,9.823,0,0,1-.217,1.477,4.368,4.368,0,0,1-.318.931l-.014.028a1.3,1.3,0,0,1-.232.344l-.013.012a1.7,1.7,0,0,1-1.026,0,6.477,6.477,0,0,1-.737-.185c-.259-.08-.531-.178-.808-.29h0c-.187-.075-.385-.16-.591-.255h0c-.085-.038-.163-.071-.241-.1a3.466,3.466,0,0,0-4.353,1.8,3.465,3.465,0,0,0,1.7,4.6c.2.092.4.182.606.267.265.112.536.219.805.319h0a12.512,12.512,0,0,0,4.212.845c.285,0,.572-.01.853-.036l.009,0,.2-.024a7.244,7.244,0,0,0,3.448-1.335,7.4,7.4,0,0,0,1.425-1.363,8.029,8.029,0,0,0,.555-.786,10.506,10.506,0,0,0,1.257-3.141,15.841,15.841,0,0,0,.3-1.725c.034-.275.063-.563.086-.858a26.2,26.2,0,0,0,.045-3.04c-.01-.266-.025-.543-.044-.845-.045-.7-.113-1.448-.2-2.214-.039-.327-.067-.643-.084-.938s-.024-.549-.02-.793v0a7.225,7.225,0,0,1,.146-1.449c.007-.032.014-.064.021-.1a4.386,4.386,0,0,1,.191-.611,3.451,3.451,0,0,1,.9-1.315,4.261,4.261,0,0,1,.527-.408l0,0,0,0a6.009,6.009,0,0,1,.779-.433,3.626,3.626,0,0,1,1.271-.272,6.19,6.19,0,0,1,.685,0,8.658,8.658,0,0,1,2.466.515c.222.08.451.172.682.274l.027.012h.006l.007,0a3.469,3.469,0,0,0,4.8-2.366Z" transform="translate(-1933.415 -1408.155)" fill="#5b2222"/>
        </g>
      </g>
      <path id="Trazado_704145" data-name="Trazado 704145" d="M2273.543,1443.941q.379.136.765.308a10.16,10.16,0,0,1,1.417-3.61,7.852,7.852,0,0,1,.465-.64q-.387-.173-.78-.323a10.32,10.32,0,0,0-1.793,3.929C2273.591,1443.716,2273.566,1443.828,2273.543,1443.941Z" transform="translate(-2138.462 -1342.925)" fill="#d388a5"/>
      <path id="Trazado_704146" data-name="Trazado 704146" d="M2219.888,1430.01a7.277,7.277,0,0,1,.811,0,9.788,9.788,0,0,1,.275-2.277,13.184,13.184,0,0,1,.784-2.3q-.433-.049-.861-.069a13.54,13.54,0,0,0-.714,2.16A10.556,10.556,0,0,0,2219.888,1430.01Z" transform="translate(-2088.413 -1329.573)" fill="#d388a5"/>
      <path id="Trazado_704147" data-name="Trazado 704147" d="M2165.306,1437.1a12.19,12.19,0,0,1-.1-5.1,7.814,7.814,0,0,0-.859.33c-.05.382-.094.794-.125,1.219a9.164,9.164,0,0,0,.415,4.065A5.327,5.327,0,0,1,2165.306,1437.1Z" transform="translate(-2036.448 -1335.764)" fill="#d388a5"/>
      <path id="Trazado_704148" data-name="Trazado 704148" d="M2108.741,1479.071a13.466,13.466,0,0,1-2.61-4.49,9.208,9.208,0,0,0-.594.737,13.372,13.372,0,0,0,2.937,4.637c.008-.038.017-.077.026-.114A5.514,5.514,0,0,1,2108.741,1479.071Z" transform="translate(-1981.747 -1375.483)" fill="#d388a5"/>
      <path id="Trazado_704149" data-name="Trazado 704149" d="M2079.118,1542.643c-.061.3-.108.6-.144.9a20.5,20.5,0,0,0,4.572,2.46q-.027-.456-.022-.874A20.538,20.538,0,0,1,2079.118,1542.643Z" transform="translate(-1956.969 -1438.971)" fill="#d388a5"/>
      <path id="Trazado_704150" data-name="Trazado 704150" d="M2083.238,1604.92a10.268,10.268,0,0,1-4.9-2.5c.025.318.056.616.088.889.01.085.02.169.028.252h0a9.967,9.967,0,0,0,4.828,2.174Q2083.265,1605.336,2083.238,1604.92Z" transform="translate(-1956.373 -1494.733)" fill="#d388a5"/>
      <path id="Trazado_704151" data-name="Trazado 704151" d="M2087.157,1675.7a10.321,10.321,0,0,1-4.583-1.391c-.005.321-.019.621-.038.9h0a10.735,10.735,0,0,0,4.539,1.3Q2087.125,1676.112,2087.157,1675.7Z" transform="translate(-1960.292 -1561.786)" fill="#d388a5"/>
      <path id="Trazado_704152" data-name="Trazado 704152" d="M2069.906,1734.615a10.88,10.88,0,0,1-3.8-2.731,2.447,2.447,0,0,1-.476.685,11.581,11.581,0,0,0,3.8,2.721A6.863,6.863,0,0,0,2069.906,1734.615Z" transform="translate(-1944.518 -1615.494)" fill="#d388a5"/>
      <path id="Trazado_704153" data-name="Trazado 704153" d="M2024.058,1748.463a7.485,7.485,0,0,0,.922-.05,14.3,14.3,0,0,1-1.727-4.685,7.539,7.539,0,0,1-.867-.217A17.092,17.092,0,0,0,2024.058,1748.463Z" transform="translate(-1904.184 -1626.34)" fill="#d388a5"/>
      <path id="Trazado_704154" data-name="Trazado 704154" d="M1981.087,1733.929q-.314-.126-.643-.278c-.054-.024-.109-.047-.164-.068a9.549,9.549,0,0,1-1.2,4.544q.385.162.76.3A10.2,10.2,0,0,0,1981.087,1733.929Z" transform="translate(-1863.784 -1617.08)" fill="#d388a5"/>
      <path id="Trazado_704155" data-name="Trazado 704155" d="M1432,1420.229a8.853,8.853,0,0,0-1.645,2.71q.338.289.667.545a9.236,9.236,0,0,1,2.662-3.821q-.307-.248-.623-.531A13.023,13.023,0,0,0,1432,1420.229Z" transform="translate(-1351.939 -1323.761)" fill="#d388a5"/>
      <path id="Trazado_704156" data-name="Trazado 704156" d="M1492.662,1447.4a5.13,5.13,0,0,1-.775-.286,9.71,9.71,0,0,0-1.383,4.46c.277.109.548.2.812.278A8.865,8.865,0,0,1,1492.662,1447.4Z" transform="translate(-1408.047 -1349.861)" fill="#d388a5"/>
      <path id="Trazado_704157" data-name="Trazado 704157" d="M1543.134,1451.253a6.4,6.4,0,0,0,.817-.268,5.583,5.583,0,0,1-.993-2.676,17.917,17.917,0,0,1-.209-1.961,2.01,2.01,0,0,1-.526.322,1.709,1.709,0,0,1-.259.082c.036.5.1,1.084.2,1.681A7.049,7.049,0,0,0,1543.134,1451.253Z" transform="translate(-1456.048 -1349.148)" fill="#d388a5"/>
      <path id="Trazado_704158" data-name="Trazado 704158" d="M1567.992,1405.95c0,.038,0,.076-.005.113-.005.111-.01.219-.015.324a3.034,3.034,0,0,1-.185.849,8.633,8.633,0,0,0,.616.848,4.9,4.9,0,0,0,3.218,1.925,8.412,8.412,0,0,0,.38-.786C1569.782,1409.2,1568.409,1406.8,1567.992,1405.95Z" transform="translate(-1480.136 -1311.464)" fill="#d388a5"/>
      <path id="Trazado_704159" data-name="Trazado 704159" d="M1574.1,1360.459a9.319,9.319,0,0,0,4.432,2.247c.012-.262.028-.539.055-.81a9.066,9.066,0,0,1-4.27-2.328A8.138,8.138,0,0,0,1574.1,1360.459Z" transform="translate(-1486.024 -1268.199)" fill="#d388a5"/>
      <path id="Trazado_704160" data-name="Trazado 704160" d="M1630.247,1300.2a6.619,6.619,0,0,0-.8.231,8.761,8.761,0,0,0,.156,1.214,8.086,8.086,0,0,0,1.379,3.174,2.855,2.855,0,0,1,.9-.163,7.194,7.194,0,0,1-1.467-3.087A7.815,7.815,0,0,1,1630.247,1300.2Z" transform="translate(-1537.654 -1212.819)" fill="#d388a5"/>
      <path id="Trazado_704161" data-name="Trazado 704161" d="M1691.324,1300.035a9.438,9.438,0,0,0-.589,4.61c.272.047.558.106.854.178a8.663,8.663,0,0,1,.549-4.636C1691.847,1300.125,1691.575,1300.076,1691.324,1300.035Z" transform="translate(-1594.745 -1212.667)" fill="#d388a5"/>
      <path id="Trazado_704162" data-name="Trazado 704162" d="M1744.85,1324.655a8.44,8.44,0,0,1,1.056-1.25q-.384-.2-.763-.38a9.2,9.2,0,0,0-.944,1.151,6.746,6.746,0,0,0-1.19,2.984c.257.117.515.243.772.379A5.743,5.743,0,0,1,1744.85,1324.655Z" transform="translate(-1643.581 -1234.112)" fill="#d388a5"/>
      <path id="Trazado_704163" data-name="Trazado 704163" d="M1783.227,1368.1a8.935,8.935,0,0,1,3.478-3.113c-.179-.228-.361-.437-.54-.63a9.889,9.889,0,0,0-3.49,3.078A5.8,5.8,0,0,1,1783.227,1368.1Z" transform="translate(-1680.583 -1272.668)" fill="#d388a5"/>
      <path id="Trazado_704164" data-name="Trazado 704164" d="M1801.716,1440.52a3.259,3.259,0,0,1,0,.85,7.453,7.453,0,0,1,3.057-.423,9.734,9.734,0,0,1,1.618.231,7.7,7.7,0,0,0-.02-.833,10.524,10.524,0,0,0-1.525-.2A8.425,8.425,0,0,0,1801.716,1440.52Z" transform="translate(-1698.343 -1343.344)" fill="#d388a5"/>
      <path id="Trazado_704165" data-name="Trazado 704165" d="M1785.969,1487.565a9.2,9.2,0,0,0-3.166-.473,8.574,8.574,0,0,1-.582.839l-.009.011a8.056,8.056,0,0,1,3.483.384,10.342,10.342,0,0,1,1.419.58q.192-.364.35-.729A11.234,11.234,0,0,0,1785.969,1487.565Z" transform="translate(-1680.151 -1387.148)" fill="#d388a5"/>
      <path id="Trazado_704166" data-name="Trazado 704166" d="M1765.5,1524.522a14.221,14.221,0,0,0-2.423-.827,7.579,7.579,0,0,0-2.46-.214,8.949,8.949,0,0,0-.416.883,8.694,8.694,0,0,1,4.806.828q.156-.235.345-.477Q1765.427,1524.619,1765.5,1524.522Z" transform="translate(-1659.619 -1421.072)" fill="#d388a5"/>
      <path id="Trazado_704167" data-name="Trazado 704167" d="M1758.323,1571.286a8.57,8.57,0,0,0-4.572,1.465,5.53,5.53,0,0,0,.226.823,7.936,7.936,0,0,1,4.419-1.48A1.252,1.252,0,0,1,1758.323,1571.286Z" transform="translate(-1653.602 -1465.689)" fill="#d388a5"/>
      <path id="Trazado_704168" data-name="Trazado 704168" d="M1832.38,1583.241l-.032.048.026,0Z" transform="translate(-1726.918 -1476.841)" fill="#d388a5"/>
      <path id="Trazado_704169" data-name="Trazado 704169" d="M1808.232,1586.475a12.252,12.252,0,0,0-.63,1.115,7.559,7.559,0,0,0-.872,3.294,5.686,5.686,0,0,0,.811.224,8.37,8.37,0,0,1,1.79-4.81A.973.973,0,0,1,1808.232,1586.475Z" transform="translate(-1703.021 -1479.693)" fill="#d388a5"/>
      <path id="Trazado_704170" data-name="Trazado 704170" d="M1857.112,1575.786a2.332,2.332,0,0,0-.856.17,6.8,6.8,0,0,0,1.184,4.789,5.663,5.663,0,0,0,.686-.432A5.98,5.98,0,0,1,1857.112,1575.786Z" transform="translate(-1749.15 -1469.887)" fill="#d388a5"/>
      <g id="Grupo_916516" data-name="Grupo 916516" transform="translate(1.258 89.838)">
        <g id="Grupo_916515" data-name="Grupo 916515">
          <path id="Trazado_704171" data-name="Trazado 704171" d="M314.749,1354.1a5.23,5.23,0,0,1-1.249,1.282,5.169,5.169,0,0,1-1.761.82,4.966,4.966,0,0,1-2.5-.006l-.081-.021h0a5.137,5.137,0,0,1-.662-.235,5.442,5.442,0,0,1-.936-.521,6.363,6.363,0,0,1-1.67-1.734,8,8,0,0,1-.439-.748,10.114,10.114,0,0,1-.644-1.573l0-.015a6.73,6.73,0,0,0-.282-.742,3.671,3.671,0,0,0-.864-1.242,2.259,2.259,0,0,0-.485-.333l-.042-.021a2.853,2.853,0,0,0-1.283-.25,4.378,4.378,0,0,0-.649.061,4.322,4.322,0,0,0-.739.188c-.313.128-.629.275-.939.438-.2.105-.4.219-.6.339a11.67,11.67,0,0,0-1.764,1.306c-.176.158-.346.321-.5.483a8.073,8.073,0,0,0-.6.687c-.06.078-.117.156-.169.233-.035.051-.068.1-.1.151a1.965,1.965,0,0,0-.251.547.319.319,0,0,0-.011.1c0,.037.061.253.663.76.181.152.369.3.513.405l.183.138.069.052.179.135a7,7,0,0,1,1.623,1.779,7.575,7.575,0,0,1,.388.677c.044.085.089.178.133.274a6.424,6.424,0,0,1,.493,4.048l-.007.03a5.89,5.89,0,0,1-.218.748,6.049,6.049,0,0,1-.693,1.344,6.967,6.967,0,0,1-1.337,1.442c-.193.159-.4.312-.61.455a11.927,11.927,0,0,1-3.091,1.449c-.24.076-.479.146-.713.209-.257.07-.518.135-.775.193a2.422,2.422,0,1,1-1.07-4.725l.259-.061c.224-.055.438-.114.638-.173a7.988,7.988,0,0,0,1.813-.76,3.841,3.841,0,0,0,.5-.355,2.154,2.154,0,0,0,.385-.415,1.271,1.271,0,0,0,.138-.258.971.971,0,0,0,.045-.149,1.212,1.212,0,0,0,.017-.367,2.344,2.344,0,0,0-.449-1.1,2.067,2.067,0,0,0-.4-.428l-.216-.163-.074-.056a13.119,13.119,0,0,1-1.484-1.248,7.309,7.309,0,0,1-.548-.612,5.318,5.318,0,0,1-1.155-2.618,5.145,5.145,0,0,1,.128-1.993,6,6,0,0,1,.237-.718,7.664,7.664,0,0,1,.8-1.486c.1-.148.211-.3.326-.448a12.512,12.512,0,0,1,.845-.976c.161-.17.332-.34.505-.507a16.381,16.381,0,0,1,3.02-2.284c.209-.124.425-.244.643-.358.462-.244.939-.467,1.417-.661a8.643,8.643,0,0,1,1.931-.5c.246-.037.491-.063.728-.079a7.763,7.763,0,0,1,3.859.678c.191.089.374.185.546.285a6.912,6.912,0,0,1,.625.406,7.454,7.454,0,0,1,1.341,1.263,8.329,8.329,0,0,1,.639.883c.126.2.246.409.357.619a10.867,10.867,0,0,1,.687,1.618c.022.066.044.133.066.2.047.148.1.292.154.428a2.954,2.954,0,0,0,.6,1,.581.581,0,0,0,.314.2.169.169,0,0,0,.063,0,.3.3,0,0,0,.083-.037l0,0a.415.415,0,0,0,.125-.116.314.314,0,0,0,.05-.236l0-.014v-.007a2.412,2.412,0,0,1,.371-1.8l.011-.016a2.422,2.422,0,0,1,4.378.917,5.19,5.19,0,0,1-.82,3.908Z" transform="translate(-288.884 -1343.428)" fill="#f2bddb"/>
          <path id="Trazado_704172" data-name="Trazado 704172" d="M285.651,1343.381q.145-.213.31-.425a12.1,12.1,0,0,1,.812-.938c.146-.154.309-.318.489-.49a15.939,15.939,0,0,1,2.932-2.217q.3-.178.623-.347c.43-.227.889-.444,1.374-.641a8.2,8.2,0,0,1,1.821-.474c.217-.032.448-.059.69-.075a7.345,7.345,0,0,1,3.625.634c.173.081.343.169.507.265a6.458,6.458,0,0,1,.584.38,6.952,6.952,0,0,1,1.255,1.182,7.822,7.822,0,0,1,.6.833q.177.282.338.587a10.361,10.361,0,0,1,.657,1.547c.022.064.043.128.063.193q.078.245.166.464a3.5,3.5,0,0,0,.7,1.158,1.049,1.049,0,0,0,.592.331.656.656,0,0,0,.239-.015.784.784,0,0,0,.219-.095.891.891,0,0,0,.271-.255.789.789,0,0,0,.126-.587h0c0-.008,0-.016,0-.024a1.934,1.934,0,0,1,.3-1.449l.009-.012a1.944,1.944,0,0,1,3.514.736,4.736,4.736,0,0,1-1.88,4.714,4.7,4.7,0,0,1-1.6.744,4.519,4.519,0,0,1-2.259-.005h0a4.639,4.639,0,0,1-.675-.233,4.917,4.917,0,0,1-.853-.475,5.868,5.868,0,0,1-1.543-1.605,7.51,7.51,0,0,1-.413-.7,9.6,9.6,0,0,1-.613-1.5l0-.011a7.151,7.151,0,0,0-.3-.8,4.121,4.121,0,0,0-.982-1.4,2.721,2.721,0,0,0-.587-.4l-.051-.025a3.347,3.347,0,0,0-1.5-.3,4.854,4.854,0,0,0-.719.067,4.789,4.789,0,0,0-.828.211l-.006,0c-.342.14-.672.294-.988.46-.215.113-.425.231-.626.354a12.217,12.217,0,0,0-1.837,1.36c-.19.17-.365.34-.526.506a8.538,8.538,0,0,0-.637.728q-.1.13-.185.255-.058.085-.11.167a2.387,2.387,0,0,0-.312.7.783.783,0,0,0-.018.27,2.171,2.171,0,0,0,.828,1.062c.174.147.358.289.533.421l.194.147.235.177a6.5,6.5,0,0,1,1.511,1.657,7.067,7.067,0,0,1,.363.634q.065.126.124.257a5.95,5.95,0,0,1,.461,3.749l-.006.024a5.372,5.372,0,0,1-.2.69,5.54,5.54,0,0,1-.638,1.238,6.455,6.455,0,0,1-1.246,1.342q-.267.219-.575.429a11.37,11.37,0,0,1-2.968,1.39c-.222.07-.452.139-.692.2s-.5.129-.757.188a1.944,1.944,0,1,1-.859-3.793c.091-.021.18-.041.268-.063q.343-.085.66-.179a8.455,8.455,0,0,0,1.922-.808,4.3,4.3,0,0,0,.564-.4,2.614,2.614,0,0,0,.47-.509,1.735,1.735,0,0,0,.19-.357,1.45,1.45,0,0,0,.066-.218,1.686,1.686,0,0,0,.027-.516,2.824,2.824,0,0,0-.537-1.331,2.53,2.53,0,0,0-.5-.529l-.217-.164-.075-.057h0a12.765,12.765,0,0,1-1.432-1.2,6.8,6.8,0,0,1-.512-.572,4.826,4.826,0,0,1-1.056-2.385,4.655,4.655,0,0,1,.116-1.809,5.523,5.523,0,0,1,.218-.66,7.157,7.157,0,0,1,.755-1.394m-.789-.54a8.147,8.147,0,0,0-.855,1.58,6.481,6.481,0,0,0-.255.772,5.623,5.623,0,0,0-.139,2.179,5.79,5.79,0,0,0,1.256,2.852,7.739,7.739,0,0,0,.584.652,13.486,13.486,0,0,0,1.535,1.293l0,0,.069.052.086.065.128.1a1.548,1.548,0,0,1,.3.327,1.886,1.886,0,0,1,.361.862.743.743,0,0,1-.009.221.5.5,0,0,1-.022.073v.006a.79.79,0,0,1-.087.16,1.684,1.684,0,0,1-.3.321,3.353,3.353,0,0,1-.438.31,7.505,7.505,0,0,1-1.7.712c-.193.058-.4.114-.616.167l-.249.059a2.9,2.9,0,1,0,1.28,5.657c.263-.059.531-.126.8-.2.237-.064.484-.136.73-.214a12.4,12.4,0,0,0,3.217-1.51c.223-.151.44-.313.645-.481a7.445,7.445,0,0,0,1.428-1.541,6.522,6.522,0,0,0,.748-1.45,6.357,6.357,0,0,0,.235-.805l0-.015v-.005l0-.014a6.9,6.9,0,0,0-.526-4.348c-.046-.1-.094-.2-.143-.294a8.018,8.018,0,0,0-.41-.716,7.484,7.484,0,0,0-1.737-1.9l-.177-.133-.062-.046-.019-.014-.169-.128,0,0,0,0c-.206-.156-.359-.276-.493-.389a3.077,3.077,0,0,1-.471-.464,1.929,1.929,0,0,1,.168-.329c.027-.043.056-.087.087-.132.047-.069.1-.14.154-.212a7.565,7.565,0,0,1,.564-.644c.151-.156.312-.31.48-.461a11.192,11.192,0,0,1,1.693-1.253c.189-.114.382-.223.576-.325.294-.155.594-.294.891-.416a3.951,3.951,0,0,1,.645-.162,3.9,3.9,0,0,1,.575-.054,2.385,2.385,0,0,1,1.072.2l.027.013h0a1.774,1.774,0,0,1,.381.262h0a3.2,3.2,0,0,1,.747,1.083,6.251,6.251,0,0,1,.261.686v0l0,.014a10.584,10.584,0,0,0,.675,1.647,8.493,8.493,0,0,0,.466.795,6.83,6.83,0,0,0,1.794,1.861,5.893,5.893,0,0,0,1.019.568,5.644,5.644,0,0,0,.645.234l.007,0,.162.042a5.439,5.439,0,0,0,2.735.007,5.641,5.641,0,0,0,1.923-.9,5.686,5.686,0,0,0,2.357-4.8h0a5.754,5.754,0,0,0-.1-.861,2.9,2.9,0,0,0-5.242-1.1l-.013.019a2.893,2.893,0,0,0-.5,1.66,3.607,3.607,0,0,1-.27-.547c-.051-.125-.1-.258-.141-.395-.022-.068-.045-.139-.068-.209a11.364,11.364,0,0,0-.718-1.689c-.115-.219-.241-.437-.374-.649a8.825,8.825,0,0,0-.677-.935,7.937,7.937,0,0,0-1.427-1.344,7.436,7.436,0,0,0-.669-.435c-.183-.106-.378-.208-.58-.3a8.24,8.24,0,0,0-4.1-.722c-.248.017-.506.045-.765.083a9.138,9.138,0,0,0-2.043.536c-.492.2-.983.429-1.458.681-.222.116-.445.241-.662.369a16.846,16.846,0,0,0-3.106,2.35c-.178.17-.354.346-.521.522a12.994,12.994,0,0,0-.877,1.014c-.119.155-.234.313-.341.469Z" transform="translate(-282.252 -1336.795)" fill="#5b2222"/>
        </g>
      </g>
      <path id="Trazado_704173" data-name="Trazado 704173" d="M323.254,1628.327a7.408,7.408,0,0,0,1.093,2.417c.239-.064.47-.132.692-.2a7.725,7.725,0,0,1-1.379-3.644q-.317.095-.66.179A10.86,10.86,0,0,0,323.254,1628.327Z" transform="translate(-319.003 -1517.563)" fill="#d388a5"/>
      <path id="Trazado_704174" data-name="Trazado 704174" d="M362,1608.92a4.3,4.3,0,0,1-.564.4,8.124,8.124,0,0,0,2.425,3.063q.309-.209.575-.429A7.418,7.418,0,0,1,362,1608.92Z" transform="translate(-354.854 -1500.794)" fill="#d388a5"/>
      <path id="Trazado_704175" data-name="Trazado 704175" d="M383.312,1587.174a5.38,5.38,0,0,0,.2-.69,4.671,4.671,0,0,1-2.317-.58,14.974,14.974,0,0,1-1.452-.783,1.687,1.687,0,0,1-.027.516,1.46,1.46,0,0,1-.066.218c.362.211.794.447,1.253.66A5.894,5.894,0,0,0,383.312,1587.174Z" transform="translate(-371.849 -1478.594)" fill="#d388a5"/>
      <path id="Trazado_704176" data-name="Trazado 704176" d="M361.265,1537.228l.075.057.217.164a2.537,2.537,0,0,1,.5.529,7.22,7.22,0,0,0,.877-.025,4.1,4.1,0,0,0,2.85-1.311,7.029,7.029,0,0,0-.363-.634C364.353,1537.527,362.049,1537.342,361.265,1537.228Z" transform="translate(-354.697 -1432.782)" fill="#d388a5"/>
      <path id="Trazado_704177" data-name="Trazado 704177" d="M332.836,1502.684a7.8,7.8,0,0,0,3.646-2c-.175-.132-.359-.274-.533-.421a7.584,7.584,0,0,1-3.625,1.847A6.773,6.773,0,0,0,332.836,1502.684Z" transform="translate(-327.701 -1399.441)" fill="#d388a5"/>
      <path id="Trazado_704178" data-name="Trazado 704178" d="M318.561,1455.519a5.521,5.521,0,0,0-.218.66,7.305,7.305,0,0,0,.912.466,6.765,6.765,0,0,0,2.843.548,2.386,2.386,0,0,1,.312-.7,6.021,6.021,0,0,1-2.824-.447A6.546,6.546,0,0,1,318.561,1455.519Z" transform="translate(-314.66 -1357.702)" fill="#d388a5"/>
      <path id="Trazado_704179" data-name="Trazado 704179" d="M349.516,1407.681a7.9,7.9,0,0,0,2.9,2.586c.161-.166.337-.335.526-.506a7.249,7.249,0,0,1-2.941-2.571C349.825,1407.362,349.662,1407.527,349.516,1407.681Z" transform="translate(-343.738 -1312.621)" fill="#d388a5"/>
      <path id="Trazado_704180" data-name="Trazado 704180" d="M401.4,1370.353a7.06,7.06,0,0,1-.364-1.32q-.322.169-.623.347a7.7,7.7,0,0,0,.348,1.2,5.642,5.642,0,0,0,1.5,2.232c.2-.122.411-.24.626-.353A4.8,4.8,0,0,1,401.4,1370.353Z" transform="translate(-391.219 -1277.028)" fill="#d388a5"/>
      <path id="Trazado_704181" data-name="Trazado 704181" d="M457.836,1355.188a7.474,7.474,0,0,1-.5-3.872c-.242.016-.473.043-.69.075a8.273,8.273,0,0,0,.475,3.864A4.838,4.838,0,0,1,457.836,1355.188Z" transform="translate(-443.625 -1260.502)" fill="#d388a5"/>
      <path id="Trazado_704182" data-name="Trazado 704182" d="M498.044,1367.988a2.712,2.712,0,0,1,.587.4,6.236,6.236,0,0,1,1.153-2.31,8.15,8.15,0,0,1,.924-1.007,6.4,6.4,0,0,0-.584-.38,8.815,8.815,0,0,0-.862.957A7.046,7.046,0,0,0,498.044,1367.988Z" transform="translate(-482.284 -1272.98)" fill="#d388a5"/>
      <path id="Trazado_704183" data-name="Trazado 704183" d="M523.214,1401.068a7.7,7.7,0,0,0-1.823,1.962,7.178,7.178,0,0,1,.3.8l0,.011a6.741,6.741,0,0,1,1.912-2.223,8.639,8.639,0,0,1,1.071-.705q-.16-.3-.338-.587A9.4,9.4,0,0,0,523.214,1401.068Z" transform="translate(-504.062 -1306.217)" fill="#d388a5"/>
      <path id="Trazado_704184" data-name="Trazado 704184" d="M538.111,1432.079a11.9,11.9,0,0,0-1.716,1.281,6.342,6.342,0,0,0-1.311,1.6,7.5,7.5,0,0,0,.413.7,7.274,7.274,0,0,1,2.843-2.926q-.088-.219-.166-.464C538.154,1432.207,538.133,1432.143,538.111,1432.079Z" transform="translate(-516.835 -1335.838)" fill="#d388a5"/>
      <path id="Trazado_704185" data-name="Trazado 704185" d="M578.048,1459.092a7.169,7.169,0,0,0-1.15,3.848,4.626,4.626,0,0,0,.675.233,6.639,6.639,0,0,1,1.067-3.75A1.047,1.047,0,0,1,578.048,1459.092Z" transform="translate(-555.839 -1361.035)" fill="#d388a5"/>
      <path id="Trazado_704186" data-name="Trazado 704186" d="M609.638,1450.71a10.227,10.227,0,0,0,.471.962,6.324,6.324,0,0,0,1.862,2.159,4.74,4.74,0,0,0,.538-.454,7,7,0,0,1-2.474-3.509A.814.814,0,0,1,609.638,1450.71Z" transform="translate(-586.378 -1352.431)" fill="#d388a5"/>
      <path id="Trazado_704187" data-name="Trazado 704187" d="M615.922,1427.927a1.955,1.955,0,0,0-.288.671,5.691,5.691,0,0,0,3.865,1.447,4.728,4.728,0,0,0,.026-.678A5,5,0,0,1,615.922,1427.927Z" transform="translate(-591.972 -1331.964)" fill="#d388a5"/>
      <g id="Grupo_916517" data-name="Grupo 916517" transform="translate(26.147 71.623)" opacity="0.68">
        <path id="Trazado_704188" data-name="Trazado 704188" d="M692.6,1068.668H654.063a1.454,1.454,0,0,1-1.454-1.454h0a1.454,1.454,0,0,1,1.454-1.454H692.6a1.454,1.454,0,0,1,1.454,1.454h0A1.454,1.454,0,0,1,692.6,1068.668Z" transform="translate(-652.609 -1065.76)" fill="#c77c5d"/>
      </g>
      <g id="Grupo_916518" data-name="Grupo 916518" transform="translate(98.763 71.623)" opacity="0.68">
        <path id="Rect치ngulo_298254" data-name="Rect치ngulo 298254" d="M1.454,0H7.482A1.454,1.454,0,0,1,8.936,1.454v0A1.454,1.454,0,0,1,7.482,2.908H1.454A1.454,1.454,0,0,1,0,1.454v0A1.454,1.454,0,0,1,1.454,0Z" fill="#c77c5d"/>
      </g>
      <g id="Grupo_916519" data-name="Grupo 916519" transform="translate(128.717 71.623)" opacity="0.68">
        <path id="Rect치ngulo_298255" data-name="Rect치ngulo 298255" d="M1.454,0H7.482A1.454,1.454,0,0,1,8.936,1.454v0A1.454,1.454,0,0,1,7.482,2.908H1.454A1.454,1.454,0,0,1,0,1.454v0A1.454,1.454,0,0,1,1.454,0Z" fill="#c77c5d"/>
      </g>
      <g id="Grupo_916520" data-name="Grupo 916520" transform="translate(121.761 71.623)" opacity="0.68">
        <path id="Rect치ngulo_298256" data-name="Rect치ngulo 298256" d="M1.454,0h2A1.454,1.454,0,0,1,4.9,1.454v0A1.454,1.454,0,0,1,3.45,2.908h-2A1.454,1.454,0,0,1,0,1.454v0A1.454,1.454,0,0,1,1.454,0Z" fill="#c77c5d"/>
      </g>
      <g id="Grupo_916521" data-name="Grupo 916521" transform="translate(-1.535 71.623)" opacity="0.68">
        <path id="Rect치ngulo_298257" data-name="Rect치ngulo 298257" d="M1.454,0h16a1.454,1.454,0,0,1,1.454,1.454v0a1.454,1.454,0,0,1-1.454,1.454h-16A1.454,1.454,0,0,1,0,1.454v0A1.454,1.454,0,0,1,1.454,0Z" fill="#c77c5d"/>
      </g>
      <path id="Trazado_704189" data-name="Trazado 704189" d="M923.363,1065.76s.348,13.567,13.806,18.138c7.359,2.5,9.258-3.154,15.265-1.908,8.162,1.693,11.34-.114,13.225-1.243,6.45-3.862,5.135-14.987,5.135-14.987Z" transform="translate(-879.02 -994.137)" fill="#4c1919"/>
      <g id="Grupo_916522" data-name="Grupo 916522" transform="translate(29.883 4.858)">
        <rect id="Rect치ngulo_298258" data-name="Rect치ngulo 298258" width="5.594" height="39.982" transform="translate(30.49 46.371) rotate(153.387)" fill="#aa5e57"/>
        <path id="Trazado_704190" data-name="Trazado 704190" d="M964.442,760.238l5.951,11.877a14.616,14.616,0,1,0,26.135-13.1l-5.951-11.877a.994.994,0,0,0-1.507-.333,67.609,67.609,0,0,1-11.445,7.112c-2.144,1.074-4.253,2.016-6.268,2.811a56.97,56.97,0,0,1-6.281,2.1A.994.994,0,0,0,964.442,760.238Z" transform="translate(-947.123 -701.278)" fill="#57485b"/>
        <path id="Trazado_704191" data-name="Trazado 704191" d="M1162.088,753.922l8.365,16.694a8.968,8.968,0,0,0,8.134,4.952,14.622,14.622,0,0,0,2.4-16.549l-5.951-11.877a.994.994,0,0,0-1.506-.333A67.607,67.607,0,0,1,1162.088,753.922Z" transform="translate(-1131.585 -701.278)" fill="#6d5f70"/>
        <path id="Trazado_704192" data-name="Trazado 704192" d="M1076.792,743.154h0a3.114,3.114,0,0,0,1.389-4.179l-8.431-16.826-5.568,2.79,8.431,16.826A3.114,3.114,0,0,0,1076.792,743.154Z" transform="translate(-1040.258 -678.475)" fill="#57485b"/>
        <path id="Trazado_704193" data-name="Trazado 704193" d="M1421.534,1018.508a13.365,13.365,0,0,0,.685-4.5c0-.04,0-.093-.005-.154a.6.6,0,0,1,.636-.623h.013a.6.6,0,0,1,.561.58,14.679,14.679,0,0,1-1.963,7.8.6.6,0,0,1-.822.215l-.01-.006a.6.6,0,0,1-.215-.816A13.428,13.428,0,0,0,1421.534,1018.508Z" transform="translate(-1372.475 -949.991)" fill="#9f93ad" opacity="0.44"/>
        <path id="Trazado_704194" data-name="Trazado 704194" d="M1388.318,850.118h0a.606.606,0,0,0,.27-.813l-.124-.247a.605.605,0,0,0-.812-.27h0a.605.605,0,0,0-.27.813l.124.248A.606.606,0,0,0,1388.318,850.118Z" transform="translate(-1341.677 -796.543)" fill="#9f93ad" opacity="0.44"/>
        <path id="Trazado_704195" data-name="Trazado 704195" d="M1407.242,890.37a.606.606,0,0,0,1.134-.393,14.6,14.6,0,0,0-1.276-3.724l-1.465-2.924a.606.606,0,0,0-.813-.27h0a.605.605,0,0,0-.27.813l1.465,2.924a13.381,13.381,0,0,1,1.172,3.421A.6.6,0,0,0,1407.242,890.37Z" transform="translate(-1357.694 -828.511)" fill="#9f93ad" opacity="0.44"/>
        <path id="Trazado_704196" data-name="Trazado 704196" d="M1234.035,751.906v0a.606.606,0,0,0,.852.249,60.9,60.9,0,0,0,6.07-4.1.177.177,0,0,1,.268.061l2.085,4.161a.606.606,0,0,0,.813.27h0a.605.605,0,0,0,.27-.813l-2.3-4.594a.993.993,0,0,0-1.506-.333,58.883,58.883,0,0,1-6.319,4.307A.606.606,0,0,0,1234.035,751.906Z" transform="translate(-1198.636 -701.275)" fill="#9f93ad" opacity="0.44"/>
        <path id="Trazado_704197" data-name="Trazado 704197" d="M1132.459,722.641l4.667,9.315a.548.548,0,0,0,.98-.491l-4.667-9.315Z" transform="translate(-1103.947 -678.476)" fill="#9f93ad" opacity="0.44"/>
        <path id="Trazado_704198" data-name="Trazado 704198" d="M1220.782,896.328l-2.45-4.891a.548.548,0,0,1,.244-.735h0a.548.548,0,0,1,.735.244l2.45,4.891a3.153,3.153,0,0,1-1.109,4.434.535.535,0,0,1-.708-.037l-.113-.154a.546.546,0,0,1,.16-.682A2.4,2.4,0,0,0,1220.782,896.328Z" transform="translate(-1183.994 -835.647)" fill="#9f93ad" opacity="0.44"/>
        <path id="Trazado_704199" data-name="Trazado 704199" d="M1074.649,760.633l-.869.435a1.071,1.071,0,0,1-1.437-.478l-8.161-16.288,2.784-1.395,8.161,16.288A1.071,1.071,0,0,1,1074.649,760.633Z" transform="translate(-1040.258 -697.838)" fill="#483f4c"/>
        <path id="Trazado_704200" data-name="Trazado 704200" d="M1282.2,867.43h0a3.028,3.028,0,0,0,1.35-4.063l-1.976-3.944a3.027,3.027,0,0,0-4.063-1.35h0a3.027,3.027,0,0,0-1.35,4.063l1.976,3.944A3.028,3.028,0,0,0,1282.2,867.43Z" transform="translate(-1237.694 -804.964)" fill="#9f93ad" opacity="0.44"/>
        <path id="Trazado_704201" data-name="Trazado 704201" d="M1085.706,764.919l.312-.156a.345.345,0,0,0,.154-.462l-7.252-14.474-.928.465,7.252,14.474A.345.345,0,0,0,1085.706,764.919Z" transform="translate(-1053.139 -704.292)" fill="#413644"/>
        <path id="Trazado_704202" data-name="Trazado 704202" d="M866.476,265.722l.616-.309a.938.938,0,0,0,.419-1.259l-14.319-28.583-2.294,1.15L865.217,265.3A.938.938,0,0,0,866.476,265.722Z" transform="translate(-841.308 -224.597)" fill="#c77c5d"/>
        <path id="Trazado_704203" data-name="Trazado 704203" d="M846.779,213.947a.272.272,0,0,0,.383.159,2.726,2.726,0,0,0,.307-.162l2.047,4.085a.58.58,0,0,1-.259.778h0a.58.58,0,0,1-.778-.259l-2.191-4.372C846.454,214.1,846.618,214.029,846.779,213.947Z" transform="translate(-837.008 -204.425)" fill="#f9dcb2" opacity="0.54"/>
        <path id="Trazado_704204" data-name="Trazado 704204" d="M894.654,303.975l10.955,21.869a.58.58,0,0,0,.778.259h0a.58.58,0,0,0,.259-.778L895.69,303.455a.58.58,0,0,0-.778-.259h0A.58.58,0,0,0,894.654,303.975Z" transform="translate(-882.066 -287.621)" fill="#f9dcb2" opacity="0.54"/>
        <path id="Trazado_704205" data-name="Trazado 704205" d="M1074.54,661.776h0a.58.58,0,0,0-.259.778l1.241,2.478a.6.6,0,0,0,.772.288.58.58,0,0,0,.276-.786l-1.252-2.5A.58.58,0,0,0,1074.54,661.776Z" transform="translate(-1049.622 -622.102)" fill="#f9dcb2" opacity="0.54"/>
        <path id="Trazado_704206" data-name="Trazado 704206" d="M857.044,306.848l1.943,3.877a.519.519,0,0,0,.7.232h0a.519.519,0,0,0,.232-.7l-1.934-3.86a.536.536,0,0,0-.708-.247.52.52,0,0,0-.228.7Z" transform="translate(-846.989 -290.386)" fill="#824b4e"/>
        <path id="Trazado_704207" data-name="Trazado 704207" d="M900.858,393.088h0a.519.519,0,0,0-.232.7l.124.248a.519.519,0,0,0,.7.232h0a.519.519,0,0,0,.232-.7l-.124-.248A.519.519,0,0,0,900.858,393.088Z" transform="translate(-887.643 -371.477)" fill="#824b4e"/>
        <path id="Trazado_704208" data-name="Trazado 704208" d="M917.388,426.078h0a.519.519,0,0,0-.232.7l10.757,21.474.928-.465L918.084,426.31A.519.519,0,0,0,917.388,426.078Z" transform="translate(-903.062 -402.25)" fill="#824b4e"/>
        <path id="Trazado_704209" data-name="Trazado 704209" d="M712.216,87.2l3.563-1.785.353-.177,2.36-1.182,1.037-.52.556-.278.7-.349,3.563-1.785-1.085-2.166-1.9-3.783h0l-.066-.131-.711-1.421a2.422,2.422,0,0,0-3.251-1.08l-.49.245-2.615,1.31-.009,0-4.37,2.19-.313.157a2.421,2.421,0,0,0-1.08,3.251l.779,1.556,0,0,.829,1.653,1.063,2.122Zm1.08-3.25-1.063-2.122,0-.008-.824-1.645-.782-1.561,4.683-2.346,3.114-1.56.653,1.3.056.113,1.964,3.92-6.045,3.029,0,0Z" transform="translate(-708.2 -72.28)" fill="#9f93ad"/>
        <path id="Trazado_704210" data-name="Trazado 704210" d="M709.534,99.891l4.683-2.346a1.211,1.211,0,0,1,1.615.521h0a1.211,1.211,0,0,1-.53,1.645l-4.683,2.346,2.674,5.336,7.8-3.907-1.962-3.916a1.211,1.211,0,0,1,.517-1.614h0a1.211,1.211,0,0,1,1.648.528l1.962,3.916,1.085,2.165h0l-12.128,6.077h0l-1.085-2.165-2.674-5.336h0a2.422,2.422,0,0,1,1.081-3.251Z" transform="translate(-708.196 -95.727)" fill="#6d5f70"/>
        <path id="Trazado_704211" data-name="Trazado 704211" d="M724.042,109.907l1.891,3.775,7.8-3.907-2.021-4.033a1.066,1.066,0,0,1,.576-1.5h0a1.4,1.4,0,0,1,1.715.66l1.9,3.784,1.085,2.165h0l-12.128,6.077h0l-1.085-2.165-1.891-3.775a1.211,1.211,0,0,1,.543-1.627h0A1.211,1.211,0,0,1,724.042,109.907Z" transform="translate(-720.837 -102.016)" fill="#6d5f70"/>
        <path id="Trazado_704212" data-name="Trazado 704212" d="M736.368,205.01l1.063,2.122,1.747-.875a1.211,1.211,0,0,1,1.611.512h0a1.211,1.211,0,0,1-.526,1.653l-3.913,1.96h0l-1.085-2.165-1.063-2.122a1.211,1.211,0,0,1,.532-1.621h0A1.211,1.211,0,0,1,736.368,205.01Z" transform="translate(-732.335 -195.466)" fill="#534956"/>
        <path id="Trazado_704213" data-name="Trazado 704213" d="M730.124,83.7l6.9-3.456a.49.49,0,0,0,.219-.658h0a.49.49,0,0,0-.658-.219l-6.9,3.456a.49.49,0,0,0-.219.658h0A.49.49,0,0,0,730.124,83.7Z" transform="translate(-727.988 -78.841)" fill="#9f93ad"/>
        <path id="Trazado_704214" data-name="Trazado 704214" d="M815.59,204.4l6.9-3.456a.491.491,0,0,0,.219-.658h0a.49.49,0,0,0-.658-.219l-6.9,3.456a.49.49,0,0,0-.219.658h0A.49.49,0,0,0,815.59,204.4Z" transform="translate(-807.71 -191.431)" fill="#534956"/>
        <path id="Trazado_704215" data-name="Trazado 704215" d="M825.977,230.379l-5,2.506.384.766,5.019-2.47Z" transform="translate(-813.396 -219.754)" fill="#824b4e"/>
        <path id="Trazado_704216" data-name="Trazado 704216" d="M1067.725,712.369l-4.972,2.535.384.766,4.99-2.5Z" transform="translate(-1038.925 -669.352)" fill="#824b4e"/>
      </g>
      <path id="Trazado_704217" data-name="Trazado 704217" d="M120.076,811.666H66.055a88.554,88.554,0,0,0,12.585-9.153c3.615-3.379,6.345-7.686,10.44-8.817a8.948,8.948,0,0,1,.878-.2h0l.183-.03h0a10.277,10.277,0,0,1,2.185-.089q.366.023.746.069c6.647.821,6.214,10.914,12.822,10.709C115.414,803.863,118.791,810.646,120.076,811.666Z" transform="translate(-79.326 -740.042)" fill="#773635"/>
      <path id="Trazado_704218" data-name="Trazado 704218" d="M1777.431,887.448h-37.91c.052-.022,6.667-2.845,9.379-6.387,2.111-2.757,3.906-5.43,6.78-6.223a6.3,6.3,0,0,1,.616-.138h0l.128-.021h0a7.216,7.216,0,0,1,1.533-.062q.256.016.524.049c4.664.576,7.828,5.966,10.592,8.606C1770.39,884.527,1774.879,887.142,1777.431,887.448Z" transform="translate(-1640.329 -815.825)" fill="#773635"/>
      <circle id="Elipse_6271" data-name="Elipse 6271" cx="1.305" cy="1.305" r="1.305" transform="translate(7.172 66.971) rotate(-76.604)" fill="#914844"/>
      <circle id="Elipse_6272" data-name="Elipse 6272" cx="1.305" cy="1.305" r="1.305" transform="translate(22.997 68.23) rotate(-45)" fill="#914844"/>
      <circle id="Elipse_6273" data-name="Elipse 6273" cx="0.917" cy="0.917" r="0.917" transform="matrix(0.16, -0.987, 0.987, 0.16, 15.318, 63.954)" fill="#914844"/>
      <circle id="Elipse_6274" data-name="Elipse 6274" cx="0.917" cy="0.917" r="0.917" transform="translate(-0.917 67.715)" fill="#914844"/>
      <circle id="Elipse_6275" data-name="Elipse 6275" cx="1.305" cy="1.305" r="1.305" transform="translate(117.334 65.213)" fill="#914844"/>
      <circle id="Elipse_6276" data-name="Elipse 6276" cx="0.917" cy="0.917" r="0.917" transform="translate(107.972 67.315)" fill="#914844"/>
      <circle id="Elipse_6277" data-name="Elipse 6277" cx="0.63" cy="0.63" r="0.63" transform="translate(113.95 62.728) rotate(-22.5)" fill="#914844"/>
      <circle id="Elipse_6278" data-name="Elipse 6278" cx="0.63" cy="0.63" r="0.63" transform="translate(2.364 62.238) rotate(-80.81)" fill="#914844"/>
      <path id="Trazado_704219" data-name="Trazado 704219" d="M2099.877,1014.536a.459.459,0,1,1-.459-.458A.459.459,0,0,1,2099.877,1014.536Z" transform="translate(-1975.612 -945.927)" fill="#914844"/>
      <path id="Trazado_704220" data-name="Trazado 704220" d="M1961.854,1024.7a.459.459,0,1,1-.459-.459A.459.459,0,0,1,1961.854,1024.7Z" transform="translate(-1846.865 -955.406)" fill="#914844"/>
      <path id="Trazado_704221" data-name="Trazado 704221" d="M2062.614,932.1a.459.459,0,1,1-.459-.458A.459.459,0,0,1,2062.614,932.1Z" transform="translate(-1940.853 -869.029)" fill="#914844"/>
      <path id="Trazado_704222" data-name="Trazado 704222" d="M728.168,1013.685a.459.459,0,1,1-.459-.458A.458.458,0,0,1,728.168,1013.685Z" transform="translate(-696.087 -945.133)" fill="#914844"/>
      <circle id="Elipse_6279" data-name="Elipse 6279" cx="0.659" cy="0.659" r="0.659" transform="translate(16.715 66.913)" fill="#914844"/>
      <circle id="Elipse_6280" data-name="Elipse 6280" cx="0.659" cy="0.659" r="0.659" transform="translate(8.085 58.385)" fill="#914844"/>
      <circle id="Elipse_6281" data-name="Elipse 6281" cx="0.562" cy="0.562" r="0.562" transform="translate(13.49 57.344)" fill="#914844"/>
    </g>
  </g>
</svg>
