<svg xmlns="http://www.w3.org/2000/svg" xmlns:xlink="http://www.w3.org/1999/xlink" width="410" height="410" viewBox="0 0 410 410">
  <defs>
    <filter id="Elipse_7031" x="2" y="2" width="406" height="406" filterUnits="userSpaceOnUse">
      <feOffset dy="3" input="SourceAlpha"/>
      <feGaussianBlur stdDeviation="3" result="blur"/>
      <feFlood flood-opacity="0.161"/>
      <feComposite operator="in" in2="blur"/>
      <feComposite in="SourceGraphic"/>
    </filter>
    <clipPath id="clip-path">
      <circle id="Elipse_7068" data-name="Elipse 7068" cx="205" cy="205" r="205" transform="translate(0 0)" fill="#fff"/>
    </clipPath>
  </defs>
  <g id="Grupo_928112" data-name="Grupo 928112" transform="translate(-219 -5620)">
    <g transform="matrix(1, 0, 0, 1, 219, 5620)" filter="url(#Elipse_7031)">
      <circle id="Elipse_7031-2" data-name="Elipse 7031" cx="194" cy="194" r="194" transform="translate(11 8)" fill="#ae9878"/>
    </g>
    <g id="Enmascarar_grupo_234" data-name="Enmascarar grupo 234" transform="translate(219 5620)" clip-path="url(#clip-path)">
      <g id="Grupo_927863" data-name="Grupo 927863" transform="translate(-499.624 -245.336)">
        <g id="Grupo_927800" data-name="Grupo 927800" transform="translate(735.669 308.543)">
          <path id="Trazado_752052" data-name="Trazado 752052" d="M1683.217,559.618s14.032-59.475,61.37-66.014c0,0,9.21-1.131,12.277,9.011s-15.246,10.215-26.565,14.294S1692.591,538.283,1683.217,559.618Z" transform="translate(-1681.9 -480.961)" fill="#d2e0ff"/>
          <path id="Trazado_752053" data-name="Trazado 752053" d="M1677.129,500.529s-4.922-49.264,29.624-66.748c0,0,6.758-3.294,11.781,3.668s-8.989,11.843-16.586,17.952S1678.689,481.713,1677.129,500.529Z" transform="translate(-1676.887 -433.003)" fill="#d2e0ff"/>
        </g>
        <g id="Grupo_927802" data-name="Grupo 927802" transform="translate(554.989 369.469)" opacity="0.8">
          <path id="Trazado_752054" data-name="Trazado 752054" d="M883.279,778.3s20.3-11.37,10.829-26.8c0,0-7.58-9.475-15.7-11.911,0,0,4.332,23.011,0,23.552s-2.978-25.989-2.978-25.989-21.387-10.287-29.779-9.475c0,0,13.265,22.469,8.934,21.928s-19.221-23.282-19.221-23.282-21.928-4.061-25.447,8.934,2.166,19.492,5.414,20.3,24.094.541,23.552,3.249-14.619,7.039-22.47,4.6c0,0,8.663,21.387,20.033,20.3s14.89-8.122,21.928-8.663,12.182,1.354,8.663,3.248-15.431.621-21.116,5.454-10.287,7.811.271,9.977,29.508.812,33.3-7.309Z" transform="translate(-808.804 -725.722)" fill="#aec3ff"/>
          <g id="Grupo_927801" data-name="Grupo 927801" transform="translate(11.127 13.595)">
            <path id="Trazado_752055" data-name="Trazado 752055" d="M862.263,791.04s56.851,18.409,63.348,38.983a43.187,43.187,0,0,0,5.414,19.762v4.061s-5.956-13.807-9.2-15.7C921.821,838.145,934.544,820.277,862.263,791.04Z" transform="translate(-862.263 -791.04)" fill="#aec3ff"/>
            <path id="Trazado_752056" data-name="Trazado 752056" d="M1182.3,1063.669s8.767,13.314,3.769,29.52l-2.255-.606s2.189-17.85-2.4-26.828S1182.3,1063.669,1182.3,1063.669Z" transform="translate(-1113.535 -1004.923)" fill="#aec3ff"/>
          </g>
        </g>
        <g id="Grupo_927804" data-name="Grupo 927804" transform="translate(488.274 464.006)" opacity="0.5">
          <path id="Trazado_752057" data-name="Trazado 752057" d="M640.742,1229.769s13.3-39.848-18.1-48.944c0,0-21.632-3.444-35.437,3.168,0,0,33.737,25.466,28.611,31.451s-35.548-31.087-35.548-31.087S539.216,1196.6,529,1207.879c0,0,45.01,13.891,38.568,18.43s-53.949-7.74-53.949-7.74-34.215,21.215-23.129,42.843,26.57,23.4,31.9,20.536,32.832-28.546,35.4-24.273-10.971,27.158-24.414,33.442c0,0,37.548,18.035,51.416,2.777s10.017-28.933,18.758-38.206,17.912-12.991,15.515-6.186-19.852,19.574-21.572,32.935-4.249,22.927,12.481,12.994,40.391-34.762,35.586-50.211Z" transform="translate(-488.274 -1179.928)" fill="#d2e0ff"/>
          <g id="Grupo_927803" data-name="Grupo 927803" transform="translate(20.519 44.86)">
            <path id="Trazado_752058" data-name="Trazado 752058" d="M586.859,1425.337s98.279-44.479,131.949-24.9c0,0,11.445,14.033,4.8,15.449C723.613,1415.888,718.9,1376.573,586.859,1425.337Z" transform="translate(-586.859 -1395.459)" fill="#d2e0ff"/>
          </g>
        </g>
        <g id="Grupo_927806" data-name="Grupo 927806" transform="translate(734.748 497.655)">
          <path id="Trazado_752059" data-name="Trazado 752059" d="M1882.543,1362.044s3.918-23.832,22.325-20.04c0,0,11.925,4.048,17.173,11.111,0,0-23.985,3.907-22.983,8.325s26.413-6.28,26.413-6.28,17.6,17.233,19.771,25.709c0,0-26.615-5-24.555-.966s29.512,10.527,29.512,10.527,11.713,19.962.277,27.99-19.786,4.776-21.727,1.893-9.045-23.32-11.495-21.834-1.7,16.753,3.451,23.553c0,0-23.932-.894-26.894-12.372s2.662-17.4.7-24.46-5.627-11.409-6.232-7.305,4.848,15.277,2.142,22.533-3.986,12.8-9.831,3.262-11.222-28.507-4.637-35.077Z" transform="translate(-1831.207 -1341.595)" fill="#bbd0ff"/>
          <g id="Grupo_927805" data-name="Grupo 927805" transform="translate(0 20.436)">
            <path id="Trazado_752060" data-name="Trazado 752060" d="M1883.813,1487.827s-38.058-48.969-60.431-48.036a44.824,44.824,0,0,1-21.2,1.7l-3.963,1.435s15.578.932,18.575,3.432C1816.8,1446.36,1829.734,1427.628,1883.813,1487.827Z" transform="translate(-1772.045 -1439.778)" fill="#bbd0ff"/>
            <path id="Trazado_752061" data-name="Trazado 752061" d="M1702.6,1445.427s-16.09-3.85-30.138,6.756l1.389,1.987s16.645-8.446,27.026-7.143S1702.6,1445.427,1702.6,1445.427Z" transform="translate(-1672.46 -1443.712)" fill="#bbd0ff"/>
          </g>
        </g>
        <g id="Grupo_927808" data-name="Grupo 927808" transform="translate(762.614 355.133)">
          <path id="Trazado_752062" data-name="Trazado 752062" d="M1822.659,721.116s-24.819-13.9-13.237-32.761c0,0,9.266-11.582,19.193-14.56,0,0-5.295,28.128,0,28.79s3.64-31.768,3.64-31.768,26.142-12.575,36.4-11.582c0,0-16.215,27.466-10.92,26.8s23.5-28.459,23.5-28.459,26.8-4.964,31.106,10.92-2.648,23.826-6.619,24.819-29.452.662-28.79,3.971,17.869,8.6,27.466,5.625c0,0-10.589,26.143-24.488,24.819s-18.2-9.928-26.8-10.589-14.891,1.655-10.589,3.971,18.862.759,25.812,6.667,12.575,9.548-.331,12.2-36.07.993-40.7-8.935Z" transform="translate(-1806.343 -656.845)" fill="#d2e0ff"/>
          <g id="Grupo_927807" data-name="Grupo 927807" transform="translate(3.208 16.618)">
            <path id="Trazado_752063" data-name="Trazado 752063" d="M1936.989,736.689s-69.493,22.5-77.435,47.652c0,0,.331,11.251-6.618,24.157v4.964s7.28-16.877,11.251-19.193C1864.187,794.268,1848.634,772.428,1936.989,736.689Z" transform="translate(-1846.446 -736.689)" fill="#d2e0ff"/>
            <path id="Trazado_752064" data-name="Trazado 752064" d="M1828.246,1069.943s-10.717,16.274-4.607,36.084l2.757-.741s-2.676-21.82,2.931-32.794S1828.246,1069.943,1828.246,1069.943Z" transform="translate(-1821.757 -998.134)" fill="#d2e0ff"/>
          </g>
        </g>
        <g id="Grupo_927850" data-name="Grupo 927850" transform="translate(612.452 350.581)">
          <g id="Grupo_927809" data-name="Grupo 927809" transform="translate(0)">
            <rect id="Rectángulo_300007" data-name="Rectángulo 300007" width="185.511" height="253.69" fill="#739af0"/>
            <rect id="Rectángulo_300008" data-name="Rectángulo 300008" width="169.702" height="239.854" transform="translate(7.905 6.845)" fill="#f3faff"/>
            <path id="Trazado_752065" data-name="Trazado 752065" d="M1361.5,634.977v8.642a8.638,8.638,0,0,0,8.634,8.642h46.375a8.638,8.638,0,0,0,8.634-8.642v-8.642Z" transform="translate(-1303.928 -634.977)" fill="#2b478b"/>
          </g>
          <g id="Grupo_927810" data-name="Grupo 927810" transform="translate(27.604 212.748)">
            <rect id="Rectángulo_300009" data-name="Rectángulo 300009" width="20.996" height="2.125" fill="#aec3ff"/>
            <rect id="Rectángulo_300010" data-name="Rectángulo 300010" width="20.996" height="2.125" transform="translate(25.859)" fill="#aec3ff"/>
            <rect id="Rectángulo_300011" data-name="Rectángulo 300011" width="29.119" height="2.125" transform="translate(0 4.716)" fill="#aec3ff"/>
          </g>
          <g id="Grupo_927821" data-name="Grupo 927821" transform="translate(19.126 60.021)">
            <g id="Grupo_927813" data-name="Grupo 927813" transform="translate(110.814)">
              <g id="Grupo_927811" data-name="Grupo 927811" transform="translate(0 5.263)">
                <path id="Trazado_752066" data-name="Trazado 752066" d="M1739.88,979.323h-30.692V948.63h30.692Zm-29.247-1.446h27.8v-27.8h-27.8Z" transform="translate(-1709.188 -948.63)" fill="#afcdfb"/>
              </g>
              <g id="Grupo_927812" data-name="Grupo 927812" transform="translate(4.469)">
                <path id="Trazado_752067" data-name="Trazado 752067" d="M1742.3,953.132a2.168,2.168,0,0,1-1.671-.787l-9.471-11.457a2.168,2.168,0,1,1,3.342-2.763l7.511,9.086L1755.6,924.4a2.169,2.169,0,0,1,3.726,2.22l-15.163,25.449a2.168,2.168,0,0,1-1.7,1.052Q1742.382,953.132,1742.3,953.132Z" transform="translate(-1730.66 -923.346)" fill="#f99746"/>
              </g>
            </g>
            <g id="Grupo_927820" data-name="Grupo 927820" transform="translate(0 9.443)">
              <g id="Grupo_927817" data-name="Grupo 927817" transform="translate(18.944 0.349)">
                <g id="Grupo_927814" data-name="Grupo 927814">
                  <rect id="Rectángulo_300012" data-name="Rectángulo 300012" width="68.184" height="2.995" fill="#aec3ff"/>
                </g>
                <g id="Grupo_927815" data-name="Grupo 927815" transform="translate(0 13.375)">
                  <rect id="Rectángulo_300013" data-name="Rectángulo 300013" width="62.838" height="2.994" fill="#aec3ff"/>
                </g>
                <g id="Grupo_927816" data-name="Grupo 927816" transform="translate(0 6.687)">
                  <rect id="Rectángulo_300014" data-name="Rectángulo 300014" width="18.587" height="2.995" transform="translate(49.597)" fill="#aec3ff"/>
                  <rect id="Rectángulo_300015" data-name="Rectángulo 300015" width="44.447" height="2.995" fill="#aec3ff"/>
                </g>
              </g>
              <g id="Grupo_927819" data-name="Grupo 927819">
                <g id="Grupo_927818" data-name="Grupo 927818">
                  <path id="Trazado_752068" data-name="Trazado 752068" d="M1180.461,971.743l-3.05.847-.629-2.421,4.551-1.453h2.082v17.068h-2.954Z" transform="translate(-1176.781 -968.717)" fill="#aec3ff"/>
                </g>
                <path id="Trazado_752069" data-name="Trazado 752069" d="M1218.021,1041.441a1.078,1.078,0,1,1,1.078,1.078A1.078,1.078,0,0,1,1218.021,1041.441Z" transform="translate(-1209.437 -1025.451)" fill="#aec3ff"/>
              </g>
            </g>
          </g>
          <g id="Grupo_927833" data-name="Grupo 927833" transform="translate(18.995 105.87)">
            <g id="Grupo_927824" data-name="Grupo 927824" transform="translate(111.183)">
              <g id="Grupo_927822" data-name="Grupo 927822" transform="translate(0 5.263)">
                <path id="Trazado_752070" data-name="Trazado 752070" d="M1741.022,1199.606H1710.33v-30.692h30.692Zm-29.247-1.445h27.8v-27.8h-27.8Z" transform="translate(-1710.33 -1168.914)" fill="#afcdfb"/>
              </g>
              <g id="Grupo_927823" data-name="Grupo 927823" transform="translate(4.469)">
                <path id="Trazado_752071" data-name="Trazado 752071" d="M1743.442,1173.415a2.17,2.17,0,0,1-1.671-.786l-9.471-11.457a2.168,2.168,0,0,1,3.343-2.763l7.511,9.087,13.588-22.806a2.168,2.168,0,1,1,3.726,2.22l-15.162,25.449a2.168,2.168,0,0,1-1.7,1.052C1743.552,1173.413,1743.5,1173.415,1743.442,1173.415Z" transform="translate(-1731.802 -1143.629)" fill="#f99746"/>
              </g>
            </g>
            <g id="Grupo_927832" data-name="Grupo 927832" transform="translate(0 9.443)">
              <g id="Grupo_927826" data-name="Grupo 927826">
                <g id="Grupo_927825" data-name="Grupo 927825">
                  <path id="Trazado_752072" data-name="Trazado 752072" d="M1176.15,1203.737l5.793-4.928c2.308-1.947,3.149-3.029,3.149-4.543a2.523,2.523,0,0,0-2.716-2.62c-1.538,0-2.6.841-3.894,2.524l-2.092-1.635c1.611-2.259,3.2-3.534,6.2-3.534,3.294,0,5.553,2.019,5.553,5.073,0,2.644-1.419,4.063-4.375,6.515l-3.462,2.885h8.005v2.6H1176.15Z" transform="translate(-1176.15 -1189)" fill="#aec3ff"/>
                </g>
                <path id="Trazado_752073" data-name="Trazado 752073" d="M1244.211,1261.79a1.07,1.07,0,1,1,1.07,1.071A1.07,1.07,0,0,1,1244.211,1261.79Z" transform="translate(-1230.045 -1245.792)" fill="#aec3ff"/>
              </g>
              <g id="Grupo_927831" data-name="Grupo 927831" transform="translate(19.639 0.349)">
                <g id="Grupo_927830" data-name="Grupo 927830">
                  <g id="Grupo_927827" data-name="Grupo 927827">
                    <rect id="Rectángulo_300016" data-name="Rectángulo 300016" width="71.65" height="2.995" fill="#aec3ff"/>
                  </g>
                  <g id="Grupo_927828" data-name="Grupo 927828" transform="translate(0 13.375)">
                    <rect id="Rectángulo_300017" data-name="Rectángulo 300017" width="66.032" height="2.994" fill="#aec3ff"/>
                  </g>
                  <g id="Grupo_927829" data-name="Grupo 927829" transform="translate(0 6.688)">
                    <rect id="Rectángulo_300018" data-name="Rectángulo 300018" width="19.532" height="2.994" transform="translate(52.118)" fill="#aec3ff"/>
                    <rect id="Rectángulo_300019" data-name="Rectángulo 300019" width="46.706" height="2.994" fill="#aec3ff"/>
                  </g>
                </g>
              </g>
            </g>
          </g>
          <g id="Grupo_927844" data-name="Grupo 927844" transform="translate(18.782 152.058)">
            <g id="Grupo_927836" data-name="Grupo 927836" transform="translate(111.396)">
              <g id="Grupo_927834" data-name="Grupo 927834" transform="translate(0 5.262)">
                <path id="Trazado_752074" data-name="Trazado 752074" d="M1741.022,1421.515H1710.33v-30.693h30.692Zm-29.247-1.446h27.8v-27.8h-27.8Z" transform="translate(-1710.33 -1390.823)" fill="#afcdfb"/>
              </g>
              <g id="Grupo_927835" data-name="Grupo 927835" transform="translate(4.469)">
                <path id="Trazado_752075" data-name="Trazado 752075" d="M1743.442,1395.325a2.17,2.17,0,0,1-1.671-.787l-9.471-11.457a2.168,2.168,0,1,1,3.343-2.763l7.511,9.086,13.588-22.806a2.168,2.168,0,1,1,3.726,2.22l-15.162,25.449a2.168,2.168,0,0,1-1.7,1.052C1743.552,1395.323,1743.5,1395.325,1743.442,1395.325Z" transform="translate(-1731.802 -1365.539)" fill="#f99746"/>
              </g>
            </g>
            <g id="Grupo_927841" data-name="Grupo 927841" transform="translate(19.852 9.793)">
              <g id="Grupo_927840" data-name="Grupo 927840">
                <g id="Grupo_927837" data-name="Grupo 927837">
                  <rect id="Rectángulo_300020" data-name="Rectángulo 300020" width="71.65" height="2.994" fill="#aec3ff"/>
                </g>
                <g id="Grupo_927838" data-name="Grupo 927838" transform="translate(0 13.375)">
                  <rect id="Rectángulo_300021" data-name="Rectángulo 300021" width="66.032" height="2.995" fill="#aec3ff"/>
                </g>
                <g id="Grupo_927839" data-name="Grupo 927839" transform="translate(0 6.687)">
                  <rect id="Rectángulo_300022" data-name="Rectángulo 300022" width="19.532" height="2.994" transform="translate(52.118)" fill="#aec3ff"/>
                  <rect id="Rectángulo_300023" data-name="Rectángulo 300023" width="46.706" height="2.994" fill="#aec3ff"/>
                </g>
              </g>
            </g>
            <g id="Grupo_927843" data-name="Grupo 927843" transform="translate(0 9.603)">
              <g id="Grupo_927842" data-name="Grupo 927842">
                <path id="Trazado_752076" data-name="Trazado 752076" d="M1175.126,1425.532l2.023-1.882a5.37,5.37,0,0,0,4.328,2.164,2.585,2.585,0,0,0,2.846-2.541c0-1.623-1.482-2.541-3.787-2.541H1179.2l-.471-1.811,4.446-4.728h-7.128v-2.517h10.892v2.164l-4.587,4.705c2.611.376,4.846,1.717,4.846,4.681,0,3.034-2.352,5.2-5.763,5.2A7.806,7.806,0,0,1,1175.126,1425.532Z" transform="translate(-1175.126 -1411.676)" fill="#aec3ff"/>
              </g>
              <path id="Trazado_752077" data-name="Trazado 752077" d="M1237.09,1483.131a1.047,1.047,0,1,1,1.048,1.047A1.047,1.047,0,0,1,1237.09,1483.131Z" transform="translate(-1224.193 -1467.429)" fill="#aec3ff"/>
            </g>
          </g>
          <g id="Grupo_927849" data-name="Grupo 927849" transform="translate(86.743 188.013)">
            <g id="Grupo_927845" data-name="Grupo 927845" transform="translate(5.733 20.058)">
              <path id="Trazado_752078" data-name="Trazado 752078" d="M1541.963,1646.118a13.057,13.057,0,0,1-12.753-10.4.892.892,0,0,1,1.747-.357,11.238,11.238,0,0,0,21.99.106.892.892,0,0,1,1.744.375A13.081,13.081,0,0,1,1541.963,1646.118Z" transform="translate(-1529.191 -1634.652)" fill="#aec3ff"/>
            </g>
            <g id="Grupo_927846" data-name="Grupo 927846" transform="translate(5.709 5.488)">
              <path id="Trazado_752079" data-name="Trazado 752079" d="M1529.966,1576.241a.891.891,0,0,1-.876-1.061,13.021,13.021,0,0,1,25.406-.69.892.892,0,0,1-1.73.434,11.238,11.238,0,0,0-21.926.6A.892.892,0,0,1,1529.966,1576.241Z" transform="translate(-1529.073 -1564.65)" fill="#aec3ff"/>
            </g>
            <g id="Grupo_927847" data-name="Grupo 927847">
              <path id="Trazado_752080" data-name="Trazado 752080" d="M1520.15,1575.3a18.505,18.505,0,1,1,18.505-18.506A18.526,18.526,0,0,1,1520.15,1575.3Zm0-34.476a15.97,15.97,0,1,0,15.97,15.97A15.988,15.988,0,0,0,1520.15,1540.82Z" transform="translate(-1501.645 -1538.285)" fill="#aec3ff"/>
            </g>
            <g id="Grupo_927848" data-name="Grupo 927848" transform="translate(13.111 16.187)">
              <rect id="Rectángulo_300024" data-name="Rectángulo 300024" width="7.33" height="1.173" transform="translate(1.729)" fill="#aec3ff"/>
              <rect id="Rectángulo_300025" data-name="Rectángulo 300025" width="7.33" height="1.173" transform="translate(1.729 4.801)" fill="#aec3ff"/>
              <rect id="Rectángulo_300026" data-name="Rectángulo 300026" width="10.788" height="1.173" transform="translate(0 2.318)" fill="#aec3ff"/>
            </g>
          </g>
        </g>
        <g id="Grupo_927854" data-name="Grupo 927854" transform="translate(539.521 438.304)">
          <path id="Trazado_752081" data-name="Trazado 752081" d="M1013.746,1229.746s.577-1.3.95-1.91,1.968-2.412,2.24-2.005,1.357,3.148.78,3.915.037,2.1-2.832,2.911Z" transform="translate(-955.622 -1190.528)" fill="#ffb27d"/>
          <path id="Trazado_752082" data-name="Trazado 752082" d="M860.564,1205.54s14.687,12.26,20.413,11.125a112.86,112.86,0,0,0,11.35-3.244l1.374,3.516s-6.163,8.36-12.589,8.415A36.6,36.6,0,0,1,863.648,1221Z" transform="translate(-834.323 -1174.507)" fill="#6980e2"/>
          <path id="Trazado_752083" data-name="Trazado 752083" d="M736.814,1818.4s.426,6.878,1.757,6.976c.177.013,6.749.013,6.749.013l8.389-.048a2.722,2.722,0,0,0-2.507-2.449c-2.452-.427-6.557-2.15-8.042-5.391C741.6,1814.089,736.814,1818.4,736.814,1818.4Z" transform="translate(-736.331 -1658.054)" fill="#1c4b8e"/>
          <path id="Trazado_752084" data-name="Trazado 752084" d="M734.491,1506.074a17.49,17.49,0,0,0,4.541.853,16.676,16.676,0,0,0,4.239-.6,116.075,116.075,0,0,1,3.122-14.874c1.385-5.362,3.363-12.257,6.178-20.824,7.781-23.677,10.148-37.529,10.364-38.84.011-.069.016-.1.016-.1l-.025-.011L739,1421.166s2.957,32.633-.816,45.158a52.753,52.753,0,0,0-1.369,6C734.435,1485.93,734.491,1506.074,734.491,1506.074Z" transform="translate(-734.49 -1345.253)" fill="#ffa561"/>
          <path id="Trazado_752085" data-name="Trazado 752085" d="M760.37,1491.449c1.385-5.362,3.364-12.257,6.178-20.824,7.781-23.677,10.148-37.529,10.364-38.84,0-.039,0-.076-.009-.115l-23.923-10.5s2.957,32.633-.816,45.158C751.635,1468.075,760.37,1491.449,760.37,1491.449Z" transform="translate(-748.467 -1345.253)" fill="#f4904d"/>
          <path id="Trazado_752086" data-name="Trazado 752086" d="M826.587,1818.4s.427,6.878,1.757,6.976c.177.013,6.749.013,6.749.013l8.389-.048a2.722,2.722,0,0,0-2.507-2.449c-2.452-.427-6.557-2.15-8.042-5.391C831.37,1814.089,826.587,1818.4,826.587,1818.4Z" transform="translate(-807.418 -1658.054)" fill="#1c4b8e"/>
          <path id="Trazado_752087" data-name="Trazado 752087" d="M794.983,1424.861a340.541,340.541,0,0,1-3.348,47.11c-3.659,25.964-2.419,36.985-2.419,36.985a24.956,24.956,0,0,1-3.528.9,16.013,16.013,0,0,1-5.235-.606s-5.237-25.974-3.735-38.969-7.171-44.594-7.171-44.594Z" transform="translate(-762.251 -1348.179)" fill="#ffa561"/>
          <path id="Trazado_752088" data-name="Trazado 752088" d="M810.253,1147.339l4.67,3.062,4.254-1.2c.778-1.109.983-3.247.995-5.1a31.727,31.727,0,0,0-.167-3.4l-6.3-2.781-2.351-1.036c.007.036.183,1.93.208,2.207A16.084,16.084,0,0,1,810.253,1147.339Z" transform="translate(-794.484 -1120.143)" fill="#ffb27d"/>
          <path id="Trazado_752089" data-name="Trazado 752089" d="M780.1,1235.723c-5.813,5.612-27.81,4.668-29.166-1.515s1.478-52.635,11.407-55.554c2.06-.606,13.075,2.955,13.075,2.955a69.865,69.865,0,0,1,2.862,10.278c.22,1.121.862,12.991,1.343,24.1.224,5.194.414,10.222.511,13.9A40.11,40.11,0,0,1,780.1,1235.723Z" transform="translate(-747.262 -1153.162)" fill="#8c9df4"/>
          <path id="Trazado_752090" data-name="Trazado 752090" d="M818.119,1143.118c1.278,2.161,5.763,4.052,8.139,4.919a31.754,31.754,0,0,0-.167-3.4l-6.3-2.781C818.4,1141.842,817.549,1142.153,818.119,1143.118Z" transform="translate(-800.57 -1124.081)" fill="#fca56b"/>
          <path id="Trazado_752091" data-name="Trazado 752091" d="M814.66,1089.814s-10.151,3.167-12.026-3.186-4.448-10.222,1.954-12.512,8.383-.24,9.524,1.728S817.252,1088.827,814.66,1089.814Z" transform="translate(-786.763 -1069.638)" fill="#ffb27d"/>
          <path id="Trazado_752092" data-name="Trazado 752092" d="M796.911,1062.037s-.648,7.392-2.176,7.071-3.211-1.007-2.987,1.221-1.487,6.048-3.691,6.039c-4.728-.019-9.864-12.15-8.57-14.451C783.221,1055.28,802.309,1053.94,796.911,1062.037Z" transform="translate(-769.961 -1056.442)" fill="#163560"/>
          <path id="Trazado_752093" data-name="Trazado 752093" d="M817.321,1167.83c-.131-.055-7.557-3.386-8.425-3.1s-1.951,2.939-1.951,2.939l13.076,2.956A6.493,6.493,0,0,0,817.321,1167.83Z" transform="translate(-791.864 -1142.178)" fill="#6980e2"/>
          <g id="Grupo_927852" data-name="Grupo 927852" transform="translate(26.168 4.681)">
            <path id="Trazado_752094" data-name="Trazado 752094" d="M905.736,1337.388l-41.628,39.193c-.816.768-1.845,1.013-2.287.544l-1.405-1.493c-.442-.469-.135-1.481.681-2.249l41.628-39.194c.816-.768,1.845-1.013,2.286-.544l1.405,1.492C906.858,1335.608,906.552,1336.62,905.736,1337.388Z" transform="translate(-860.214 -1280.442)" fill="#1f4d84"/>
            <path id="Trazado_752095" data-name="Trazado 752095" d="M882.375,1446.037l-18.267,17.2c-.816.768-1.845,1.013-2.287.544l-1.405-1.493c-.442-.469-.135-1.481.681-2.249l18.267-17.2Z" transform="translate(-860.214 -1367.097)" fill="#739af0"/>
            <path id="Trazado_752096" data-name="Trazado 752096" d="M1027.572,1121.082a32.628,32.628,0,1,0,54.08-32.789c-.167-.167-.339-.331-.512-.494a32.63,32.63,0,0,0-53.568,33.283Zm9.326-30.114a30.054,30.054,0,1,1,1.294,42.481A30.017,30.017,0,0,1,1036.9,1090.969Z" transform="translate(-991.618 -1078.934)" fill="#1f4d84"/>
            <g id="Grupo_927851" data-name="Grupo 927851" transform="translate(37.114 2.576)" opacity="0.5">
              <path id="Trazado_752097" data-name="Trazado 752097" d="M1090.468,1141.953a30.054,30.054,0,1,1-1.3-42.479A29.929,29.929,0,0,1,1090.468,1141.953Z" transform="translate(-1038.528 -1091.311)" fill="#b3cff9"/>
            </g>
          </g>
          <path id="Trazado_752098" data-name="Trazado 752098" d="M812.267,1279.9c-22.937-16.345-21.03-38.155-21.03-38.155,8.384,4.728,16.7,15.183,20.52,24.252C811.98,1271.2,812.17,1276.223,812.267,1279.9Z" transform="translate(-779.395 -1203.18)" fill="#6980e2"/>
          <g id="Grupo_927853" data-name="Grupo 927853" transform="translate(11.363 28.448)">
            <path id="Trazado_752099" data-name="Trazado 752099" d="M990.742,1382.419a6.26,6.26,0,0,0,2.93-1.81s.69.047-.113,1.518c-.067.123-.216.439-.329.663a.143.143,0,0,0,.12.205,15.278,15.278,0,0,1,3.67.076c.248.052.32.646.311.9a2.3,2.3,0,0,1-.483,1.567c-.29.382-1.1.793-2.9,1.518-.686.276-2.647.068-4.485-.563l-1.468-.68.455-2.729.369.077C989.405,1383.284,990.131,1382.568,990.742,1382.419Z" transform="translate(-946.594 -1341.586)" fill="#ffb27d"/>
            <path id="Trazado_752100" data-name="Trazado 752100" d="M796.683,1193.121s-20.61,3.924,6.064,33.77c4.266,4.773,27.314,10.988,27.314,10.988s2.338-1.989,1.159-3.6c0,0-15.869-11.524-19.361-13.356-1.571-.824-6.1-18.393-8.657-22.624A11.544,11.544,0,0,0,796.683,1193.121Z" transform="translate(-789.086 -1193.121)" fill="#8c9df4"/>
          </g>
          <path id="Trazado_752101" data-name="Trazado 752101" d="M1016.431,1227.5a10.5,10.5,0,0,0,.806-1.968,10.88,10.88,0,0,1,1.33-3.01c.14-.14.6.041.656.642a3.492,3.492,0,0,1-.331,1.3,14.694,14.694,0,0,0-.436,2.59C1018.136,1228.093,1016.431,1227.5,1016.431,1227.5Z" transform="translate(-957.749 -1187.917)" fill="#ffb27d"/>
        </g>
        <g id="Grupo_927856" data-name="Grupo 927856" transform="translate(666.274 583.25)">
          <path id="Trazado_752102" data-name="Trazado 752102" d="M1343.475,1781.276a8.071,8.071,0,0,0,.064,1.036,8.5,8.5,0,0,0,8.438,7.466h119.581a8.5,8.5,0,0,0,0-17.007H1351.977A8.5,8.5,0,0,0,1343.475,1781.276Z" transform="translate(-1343.475 -1768.622)" fill="#2b478b"/>
          <path id="Trazado_752103" data-name="Trazado 752103" d="M1382.332,1755.45h41a1.309,1.309,0,0,0,1.3-1.305h0a1.309,1.309,0,0,0-1.3-1.3h-41a1.309,1.309,0,0,0-1.3,1.3h0A1.309,1.309,0,0,0,1382.332,1755.45Z" transform="translate(-1373.211 -1752.84)" fill="#2b478b"/>
          <rect id="Rectángulo_300027" data-name="Rectángulo 300027" width="4.444" height="1.539" transform="translate(15.83 4.149) rotate(180)" fill="#233862"/>
          <path id="Trazado_752104" data-name="Trazado 752104" d="M1348.432,1833.172a8.515,8.515,0,0,0,7.471,4.435h25.33v-4.435Z" transform="translate(-1347.4 -1816.452)" fill="#233862"/>
          <path id="Trazado_752105" data-name="Trazado 752105" d="M1556.119,1778.785v4.981a6.008,6.008,0,0,1-6.01,6.013H1425.543a6.009,6.009,0,0,1-6.01-6.013v-4.981a6.011,6.011,0,0,1,6.01-6.013h124.565A6.011,6.011,0,0,1,1556.119,1778.785Z" transform="translate(-1403.702 -1768.623)" fill="#f99746"/>
          <path id="Trazado_752106" data-name="Trazado 752106" d="M1556.707,1833.172a6.01,6.01,0,0,1-5.8,4.435H1426.341a6.009,6.009,0,0,1-5.8-4.435Z" transform="translate(-1404.5 -1816.452)" fill="#ef873a"/>
          <g id="Grupo_927855" data-name="Grupo 927855" transform="translate(140.045 4.148)">
            <path id="Trazado_752107" data-name="Trazado 752107" d="M2016.323,1781.305a9.453,9.453,0,0,0,2.473,6.566l.1.1a6.035,6.035,0,0,0,4.267,1.863c2.521,0,8.772-3.8,12.645-6.331,1.93-1.26,3.27-2.2,3.27-2.2s-1.34-.942-3.27-2.2c-3.873-2.529-10.124-6.333-12.645-6.333a5.647,5.647,0,0,0-2.093.405,6.85,6.85,0,0,0-2.883,2.275,9.388,9.388,0,0,0-1.732,4.162.46.46,0,0,0-.007.055A10.536,10.536,0,0,0,2016.323,1781.305Z" transform="translate(-2016.323 -1772.771)" fill="#8c9df4"/>
            <path id="Trazado_752108" data-name="Trazado 752108" d="M2016.323,1807.546a9.452,9.452,0,0,0,2.473,6.566l19.172-6.6-21.518-1.608A10.537,10.537,0,0,0,2016.323,1807.546Z" transform="translate(-2016.323 -1799.012)" fill="#6980e2"/>
            <path id="Trazado_752109" data-name="Trazado 752109" d="M2025.285,1776.993l19.126,5.223-16.242-7.5A6.851,6.851,0,0,0,2025.285,1776.993Z" transform="translate(-2023.42 -1774.313)" fill="#9fb1ff"/>
            <path id="Trazado_752110" data-name="Trazado 752110" d="M2103.953,1805.4a2.361,2.361,0,0,0,1.248,2.2c1.93-1.26,3.271-2.2,3.271-2.2s-1.34-.942-3.271-2.2A2.356,2.356,0,0,0,2103.953,1805.4Z" transform="translate(-2085.714 -1796.865)" fill="#182d4c"/>
          </g>
        </g>
        <g id="Grupo_927858" data-name="Grupo 927858" transform="translate(810.839 439.544)">
          <path id="Trazado_752111" data-name="Trazado 752111" d="M2170.938,1063.332a7.217,7.217,0,0,0-5.706-.61c-9.692-1.138-12.52,10.165-12.388,14.054s.575,8.066-3.753,13.119c-12.5,14.594,13.682,15.238,13.682,15.238.221-11.661,14.2-7.406,13.587-6.225C2194.279,1103.208,2178.142,1067.069,2170.938,1063.332Z" transform="translate(-2123.298 -1062.401)" fill="#163560"/>
          <path id="Trazado_752112" data-name="Trazado 752112" d="M2048.291,1277.5s-1.7-2.595-3.078-2.646-3.917-.763-3.714-.254,1.781.559,1.933.865-2.34.763-3.053.814-2.391,0-2.34.356,3.026,1.832,5.125,1.628a14.233,14.233,0,0,1,4.694.61Z" transform="translate(-2038.038 -1230.288)" fill="#ffb27d"/>
          <path id="Trazado_752113" data-name="Trazado 752113" d="M2108.01,1214.43a25.553,25.553,0,0,1-2.607,3.943c-2.025,2.537-5.148,5.467-9.07,6.046a9.735,9.735,0,0,1-5.388-.874l-.006,0c-4.762-2.114-8.343-6.975-8.343-6.975a3.915,3.915,0,0,1,.534-3.842s9.616,2.163,10.532,1.7,6.546-12.949,7.56-15.029a11.4,11.4,0,0,1,5.576-5.691Z" transform="translate(-2073.108 -1166.38)" fill="#ffa561"/>
          <path id="Trazado_752114" data-name="Trazado 752114" d="M2138.2,1292.812c-2.025,2.537-5.148,5.467-9.069,6.046a9.735,9.735,0,0,1-5.388-.874c.186.024,4.942.612,6.838-2.78,1.934-3.46,4.025-8.955,6.9-7.123C2138.718,1288.872,2138.663,1290.836,2138.2,1292.812Z" transform="translate(-2105.905 -1240.82)" fill="#f4904d"/>
          <path id="Trazado_752115" data-name="Trazado 752115" d="M2337.647,1787.124s2.934,2.678,2.362,4.58-3.221,3.171-3.579,5.5-1.789,3.594-3.077,3.594h-6.141s-.948-1.636,1.342-2.13,3.154-3.226,3.011-5.763a44.683,44.683,0,0,1,.215-5.919l4.866-1.127Z" transform="translate(-2266.87 -1635.278)" fill="#1c4b8e"/>
          <path id="Trazado_752116" data-name="Trazado 752116" d="M2195.167,1797.412s1.055,11.344-.233,11.978l-16.485-.034s0-1.9,2.648-2.325,7.3-1.973,8.087-5.426S2195.167,1797.412,2195.167,1797.412Z" transform="translate(-2149.224 -1644.428)" fill="#1c4b8e"/>
          <path id="Trazado_752117" data-name="Trazado 752117" d="M2206.383,1201.6a65.6,65.6,0,0,1,0,7.619c-.163,2.755-2.95,6.445-3.346,7.358-.992,2.29-2.111,2.662-2.111,2.662l-8.656,2.122-3.043.745-9.6-2.867s-4.371-12.2-2.616-19.069a52.782,52.782,0,0,1,4.437-11.638s6.506-2.568,18.028-.65Z" transform="translate(-2147.759 -1161.201)" fill="#ffa561"/>
          <path id="Trazado_752118" data-name="Trazado 752118" d="M2249.174,1287.905a26.962,26.962,0,0,1-.812,6.233c-.992,2.29-2.111,2.662-2.111,2.662l-8.656,2.122-3.759-1.105s12.549-1.9,11.159-12.7Z" transform="translate(-2193.083 -1238.762)" fill="#f2ccaa"/>
          <path id="Trazado_752119" data-name="Trazado 752119" d="M2174.826,1350.145s-4.753,14.794-5.058,19.831,9.085,71.552,9.463,73.873c.356,2.188,3.072,3.582,3.072,3.582a4.112,4.112,0,0,0,3.033.234,7.5,7.5,0,0,0,3.256-1.535s3.7-47.438,1.41-64.384a268.352,268.352,0,0,1-2.316-31.6Z" transform="translate(-2142.344 -1290.255)" fill="#6980e2"/>
          <path id="Trazado_752120" data-name="Trazado 752120" d="M2220.187,1348.025s7.25,9.728,7.926,16.3,1.06,29.674,2.5,36.084,6.73,18.747,6.73,38.742a3.988,3.988,0,0,1-2.248,1.756,18.563,18.563,0,0,1-1.977.547,3.108,3.108,0,0,1-3.476-1.65c-3.576-7.2-14.97-30.428-15.554-35.249-.413-3.412-4.011-25.994-11.858-39.245-1.884-3.181,1.156-15.832,1.156-15.832Z" transform="translate(-2167.568 -1288.576)" fill="#8c9df4"/>
          <path id="Trazado_752121" data-name="Trazado 752121" d="M2189.423,1339.172a9.963,9.963,0,0,0,5.7,1.585c4.528.091,15.746-1.154,15.746-1.154a9.287,9.287,0,0,1,.478,2.864s-13.7,3.456-21.641.5A5.016,5.016,0,0,1,2189.423,1339.172Z" transform="translate(-2157.7 -1281.565)" fill="#233862"/>
          <g id="Grupo_927857" data-name="Grupo 927857" transform="translate(34.269 58.417)">
            <path id="Trazado_752122" data-name="Trazado 752122" d="M2204.75,1347.743a2.356,2.356,0,1,1,2.066-2.338A2.217,2.217,0,0,1,2204.75,1347.743Zm0-3.992a1.68,1.68,0,1,0,1.381,1.654A1.538,1.538,0,0,0,2204.75,1343.752Z" transform="translate(-2202.684 -1343.067)" fill="#fff"/>
          </g>
          <path id="Trazado_752123" data-name="Trazado 752123" d="M2248.845,1283.208l-11.126,9.689a1.93,1.93,0,0,1-2.723-.188l-14.2-16.3a1.93,1.93,0,0,1,.188-2.723l11.126-9.689a1.931,1.931,0,0,1,2.723.188l14.2,16.3A1.93,1.93,0,0,1,2248.845,1283.208Z" transform="translate(-2182.383 -1221.658)" fill="#2b478b"/>
          <path id="Trazado_752124" data-name="Trazado 752124" d="M2255.78,1352.244c-.158.042-5.91.718-5.911,1.907a3.576,3.576,0,0,0,3.275,3.129c.644-.035,3.612-2.764,3.612-2.764Z" transform="translate(-2205.779 -1291.917)" fill="#ffb27d"/>
          <path id="Trazado_752125" data-name="Trazado 752125" d="M2230.378,1160.943a19.149,19.149,0,0,1-1.026-7l-.434.085-7.307,1.447s.166,2.3.171,4.466c0,.018,0,.036,0,.054.009,1.882-1.271,3.769,1.747,4.516C2224.462,1164.744,2231.753,1164.276,2230.378,1160.943Z" transform="translate(-2183.331 -1134.892)" fill="#ffb27d"/>
          <path id="Trazado_752126" data-name="Trazado 752126" d="M2221.957,1155.8s.166,2.3.171,4.466c4.089-.115,6.25-3.845,7.136-5.913Z" transform="translate(-2183.677 -1135.217)" fill="#e8945b"/>
          <path id="Trazado_752127" data-name="Trazado 752127" d="M2203.139,1109.06s9.674.16,9.68-5.866,1.26-10.063-4.916-10.42-7.379,1.942-7.87,3.952S2200.622,1108.864,2203.139,1109.06Z" transform="translate(-2166.224 -1086.423)" fill="#ffb27d"/>
          <path id="Trazado_752128" data-name="Trazado 752128" d="M2217.116,1087.545s2.649,7.07,6.714,8.115,5.828-.044,5.828-.044a11.512,11.512,0,0,1-3.765-6.8S2219.114,1084.181,2217.116,1087.545Z" transform="translate(-2179.843 -1081.342)" fill="#163560"/>
          <path id="Trazado_752129" data-name="Trazado 752129" d="M2201.636,1090.577a6,6,0,0,0-2.772,2.167,9.736,9.736,0,0,0-1.308,5.532s-2-4.805.247-7.523C2200.18,1087.87,2201.636,1090.577,2201.636,1090.577Z" transform="translate(-2163.706 -1083.8)" fill="#163560"/>
          <path id="Trazado_752130" data-name="Trazado 752130" d="M2263.422,1350.96a6.58,6.58,0,0,0-2.3-.314c-.921.129-1.6-.018-1.6.24s1.189.378,1.442.5A12.55,12.55,0,0,0,2263.422,1350.96Z" transform="translate(-2213.421 -1290.633)" fill="#ffb27d"/>
          <path id="Trazado_752131" data-name="Trazado 752131" d="M2274.676,1190.587s6.867.481,9.5,6.881,7.627,17.143,7.627,18.95-2.79,7.379-17.773,10.583c0,0-1.55-1.63-1.456-2.919,0,0,9.353-8.034,9.328-8.973-.048-1.776-1.533-4.121-9.745-12.335C2269.924,1200.541,2274.676,1190.587,2274.676,1190.587Z" transform="translate(-2222.955 -1163.907)" fill="#ffa561"/>
        </g>
        <g id="Grupo_927862" data-name="Grupo 927862" transform="translate(604.031 275.829)">
          <g id="Grupo_927859" data-name="Grupo 927859">
            <path id="Trazado_752132" data-name="Trazado 752132" d="M1105.818,275.988s-5.509-.931-9,1.708-4.052,1.785-6.023,3.415.046,3.571-1.04,4.657-1.129,3.182.484,3.726.526,3.493,4.018,3.881,1.928,2,5.241,2.251,6.053.36,7.8,1.092a2.759,2.759,0,0,0,3.828-1.354c.5-1.33,1.9.385,2.3-1.433s-1.048-2.536-.233-4.01S1116.023,277.968,1105.818,275.988Z" transform="translate(-1079.703 -275.829)" fill="#233862"/>
            <path id="Trazado_752133" data-name="Trazado 752133" d="M1214.368,737.986a1.361,1.361,0,0,0-.233,1.457.018.018,0,0,0,0,.007,9.048,9.048,0,0,0,2.881,3.116c.173.138.327.263.461.379.035.03.071.061.1.092l.08.071c1.265,1.15.794,1.418,3.068,3.753,2.593,2.66,4.366,2.7,4.868,2.448.425-.211-.451-1.625-1.423-3.215-.047-.077-.093-.154-.141-.232-.129-.211-.258-.426-.387-.638-1.139-1.914-.856-2.817-.609-5.679.2-2.325,3.523-13.007,3.523-13.007l-4.939-.815s-1.426,8.5-3.053,9.816c-.87.7-1.85.718-2.687,1.241-.059.037-.117.074-.174.112A6.467,6.467,0,0,0,1214.368,737.986Z" transform="translate(-1178.725 -632.083)" fill="#ffb27d"/>
            <path id="Trazado_752134" data-name="Trazado 752134" d="M1214.368,780.052a1.361,1.361,0,0,0-.233,1.457.017.017,0,0,0,0,.007,10.477,10.477,0,0,0,2.885,3.106c.171.14.322.269.457.389.035.03.071.061.1.092l.08.071c1.265,1.149.794,1.418,3.068,3.753,2.593,2.66,4.366,2.7,4.868,2.448.425-.211-.451-1.625-1.423-3.215a10.968,10.968,0,0,1-4.612-3.349c-1.564-1.967-2.616-4.5-3.681-5.965-.059.036-.117.073-.174.112A6.47,6.47,0,0,0,1214.368,780.052Z" transform="translate(-1178.725 -674.149)" fill="#233862"/>
            <path id="Trazado_752135" data-name="Trazado 752135" d="M1391.391,728.02c.315,1.52,2.484,1.251,4.9.641s1.849.1,5.3-.308,4.485-1.7,4.586-2.214c.091-.456-1.615-.6-3.446-.8-.23-.024-.461-.051-.693-.078-2.067-.245-3.589-1.566-5.472-2.648-1.784-1.024-4.465-5.229-4.465-5.229l-4.731.408s2.51,3.755,3.483,5.388a5.717,5.717,0,0,1,.487,3.222A6.1,6.1,0,0,0,1391.391,728.02Z" transform="translate(-1315.994 -625.479)" fill="#ffb27d"/>
            <path id="Trazado_752136" data-name="Trazado 752136" d="M1411.283,758.924c2.421-.61,1.849.1,5.3-.308s4.485-1.7,4.587-2.214c.091-.456-1.615-.6-3.446-.8l-.017.035a9.73,9.73,0,0,1-4.932,1.571c-2.341.073-4.826-.58-6.443-.542a6.1,6.1,0,0,0,.048,1.619C1406.694,759.8,1408.862,759.534,1411.283,758.924Z" transform="translate(-1330.981 -655.742)" fill="#233862"/>
            <path id="Trazado_752137" data-name="Trazado 752137" d="M1257.423,595.013l-4.34,11.937-5.666,15.586a9.356,9.356,0,0,1-3.071-.259,13.307,13.307,0,0,1-2.978-1.423s1.486-16.7,4.411-26.305a17.059,17.059,0,0,1,2.535-5.587C1252.912,583.447,1257.423,595.013,1257.423,595.013Z" transform="translate(-1200.377 -522.607)" fill="#ed7d2b"/>
            <path id="Trazado_752138" data-name="Trazado 752138" d="M1134.106,525.02c-2.905-.915-11.164.344-19.457,2.028l-1.759-2.856-17.948-1.274s-5.619,12.433-2.527,21.509c.6,1.761,3.473,1.823,3.474,1.824s10.514.115,13.981.09c8.921-.063,18.836-6.265,20.122-6.532,2.106-.436,2.979,3.775,5.119,8.188s19.959,19.47,19.959,19.47a15.6,15.6,0,0,0,3.844-.422,3.788,3.788,0,0,0,1.644-1.054S1140.657,527.082,1134.106,525.02Z" transform="translate(-1081.692 -471.489)" fill="#f99746"/>
            <path id="Trazado_752139" data-name="Trazado 752139" d="M1133.795,358.108c.028.018-3.135,1.123-5.262.2-2-.867-3.535-4.138-3.505-4.14.907-.049,1.9-.849,2.628-6.06l.388.136,6.513,2.292s-.456,2.088-.747,4.075C1133.565,356.277,1133.438,357.875,1133.795,358.108Z" transform="translate(-1108.252 -333.063)" fill="#ffb27d"/>
            <path id="Trazado_752140" data-name="Trazado 752140" d="M1146.03,351.052s-.278,1.463-.663,3.554c-3.736-.645-5.31-3.832-5.85-5.846Z" transform="translate(-1119.726 -333.58)" fill="#ed975d"/>
            <path id="Trazado_752141" data-name="Trazado 752141" d="M1144.492,310.278s-8.9-1.13-8.108-6.66.172-9.4,5.886-8.912,6.514,2.755,6.7,4.665S1146.827,310.43,1144.492,310.278Z" transform="translate(-1117.206 -290.744)" fill="#ffb27d"/>
            <path id="Trazado_752142" data-name="Trazado 752142" d="M1138.83,294.462s-5.656,4.943-9.523,5.366-5.341-.809-5.341-.809a15.117,15.117,0,0,0,3.619-4.977,2.72,2.72,0,0,1,2.232-1.62C1132.579,292.164,1137.817,292.018,1138.83,294.462Z" transform="translate(-1107.412 -288.861)" fill="#233862"/>
            <path id="Trazado_752143" data-name="Trazado 752143" d="M1178.278,296.649a14.006,14.006,0,0,1,2.526,3.188,10.759,10.759,0,0,1,.332,5.717s2.925-5.788,1.226-8.578C1180.56,294.018,1178.278,296.649,1178.278,296.649Z" transform="translate(-1150.419 -291.462)" fill="#233862"/>
            <path id="Trazado_752144" data-name="Trazado 752144" d="M1112.781,393.387c-.142,17.994.027,14.233-1.929,15.954a7.56,7.56,0,0,1-3.557.8c-5.514.4-15.219-.435-15.6-1.452-1.3-3.519-.407-4.621-1.507-10.015-.115-.574-.256-1.194-.422-1.87-.911-3.7-1.782-4.959,1.317-10.941,2.81-5.419,5.738-9.821,6-9.665,7.546,4.408,8.125.654,8.125.654S1112.851,384.61,1112.781,393.387Z" transform="translate(-1079.661 -355.302)" fill="#8c9df4"/>
            <path id="Trazado_752145" data-name="Trazado 752145" d="M1253.082,633.873l-5.666,15.586a9.36,9.36,0,0,1-3.071-.259,13.307,13.307,0,0,1-2.978-1.423s1.486-16.7,4.411-26.3Z" transform="translate(-1200.377 -549.531)" fill="#f99746"/>
            <path id="Trazado_752146" data-name="Trazado 752146" d="M1167.222,379.348s7.741,1.256,8.672,4.579,6.412,22.855,6.412,22.855-3.926.734-5.754-1.069-6.437-16.8-6.437-16.8Z" transform="translate(-1141.665 -357.802)" fill="#8c9df4"/>
            <path id="Trazado_752147" data-name="Trazado 752147" d="M1112.134,467.086c-5.514.405-15.219-.435-15.6-1.452-1.3-3.519-.407-4.621-1.507-10.015l2.608-7.512s-.381,8.347,2.1,10.524,10.1,4.165,11.314,5.991A6.713,6.713,0,0,1,1112.134,467.086Z" transform="translate(-1084.5 -412.249)" fill="#6980e2"/>
            <path id="Trazado_752148" data-name="Trazado 752148" d="M1146.708,519.291s5.434-1.25,6.316-.773a12.791,12.791,0,0,1,3.313,2.831c.273.61-1.959-.451-2.683-.64a6.44,6.44,0,0,0-2.308.523,7.684,7.684,0,0,1-4.14.445Z" transform="translate(-1125.42 -467.919)" fill="#ffb27d"/>
            <path id="Trazado_752149" data-name="Trazado 752149" d="M1061.858,376.192s-7.305.5-9.81,4.048c-3.526,4.992-10.442,26.212-6.373,29.006,4.582,3.147,20.759.685,20.759.685s.521-2.523-.237-3.736-12.956-3.1-13.523-3.654,6.952-11.015,6.94-12.7S1061.858,376.192,1061.858,376.192Z" transform="translate(-1044.431 -355.303)" fill="#8c9df4"/>
            <path id="Trazado_752150" data-name="Trazado 752150" d="M1178.371,526.2a10.522,10.522,0,0,0,1.526,1.636,1.114,1.114,0,0,0,.616.127l-.778-1.378Z" transform="translate(-1150.493 -474.087)" fill="#ffb27d"/>
            <path id="Trazado_752151" data-name="Trazado 752151" d="M1177.054,518.93l3.327,1.587a.591.591,0,0,1-.548.216,7.892,7.892,0,0,1-1.441-.385Z" transform="translate(-1149.45 -468.331)" fill="#ffb27d"/>
          </g>
          <g id="Grupo_927861" data-name="Grupo 927861" transform="translate(20.59 36.261)">
            <g id="Grupo_927860" data-name="Grupo 927860">
              <path id="Trazado_752152" data-name="Trazado 752152" d="M1182.294,469.906l26.229-.185,7.751-19.676-26.188.185Z" transform="translate(-1174.19 -450.044)" fill="#233862"/>
              <path id="Trazado_752153" data-name="Trazado 752153" d="M1177.991,540.9l-34.635.244.005.764,34.328-.242Z" transform="translate(-1143.356 -521.986)" fill="#233862"/>
            </g>
            <path id="Trazado_752154" data-name="Trazado 752154" d="M1266.481,492.942a.909.909,0,0,0-.9-1.242,1.789,1.789,0,0,0-1.6,1.26.909.909,0,0,0,.9,1.243A1.789,1.789,0,0,0,1266.481,492.942Z" transform="translate(-1238.838 -483.03)" fill="#ebf3fa"/>
          </g>
        </g>
        <path id="Trazado_752155" data-name="Trazado 752155" d="M537.705,1773.357h19.14c1.026-.87-.71-2.846-2.523-2.979a11.186,11.186,0,0,0-2.921.346c-.263-3.5-1.767-19.225-7.436-18.593-6.374.708,0,6.926,1.8,10.607a87.662,87.662,0,0,1,3.386,8.483c-.518.112-1.053.222-1.6.323-.845-2.594-3.988-11.319-7.986-10.811-4.693.6-2.807,4.094.52,6.17,2.44,1.527,5.438,3.7,6.861,4.746a20.368,20.368,0,0,1-3.743.3C539.926,1771.871,538.326,1772.837,537.705,1773.357Z" transform="translate(-38.389 -1169.013)" fill="#a8d29f"/>
        <path id="Trazado_752156" data-name="Trazado 752156" d="M2449.763,1764.547h-21.177c-1.135-.963.785-3.149,2.792-3.3a12.361,12.361,0,0,1,3.232.382c.291-3.87,1.955-21.27,8.227-20.571,7.052.782,0,7.662-1.993,11.735a96.644,96.644,0,0,0-3.746,9.385c.573.124,1.165.246,1.77.357.935-2.87,4.413-12.523,8.835-11.961,5.193.659,3.105,4.53-.575,6.827-2.7,1.689-6.016,4.091-7.591,5.251a22.46,22.46,0,0,0,4.141.332C2447.306,1762.9,2449.077,1763.972,2449.763,1764.547Z" transform="translate(-1536.193 -1160.248)" fill="#a8d29f"/>
      </g>
    </g>
  </g>
</svg>
