<svg xmlns="http://www.w3.org/2000/svg" width="135.422" height="117.312" viewBox="0 0 135.422 117.312">
  <g id="Grupo_928174" data-name="Grupo 928174" transform="translate(-981.568 -400.834)">
    <g id="Grupo_876860" data-name="Grupo 876860" transform="translate(12759.333 12456.215)">
      <g id="Grupo_108339" data-name="Grupo 108339" transform="translate(-12803.5 -12526.318)">
        <g id="Grupo_928173" data-name="Grupo 928173">
          <path id="Rectángulo_33710" data-name="Rectángulo 33710" d="M1148.358,473.782h0a9.234,9.234,0,0,1-.277,13.056L1066.5,565.029a9.235,9.235,0,0,1-13.056-.278h0a9.232,9.232,0,0,1,.277-13.055l81.582-78.191A9.234,9.234,0,0,1,1148.358,473.782Z" fill="#fff"/>
          <path id="Rectángulo_33712" data-name="Rectángulo 33712" d="M1083.044,486.7h0a9.234,9.234,0,0,1-.277,13.056l-41.408,39.687a9.235,9.235,0,0,1-13.056-.277h0a9.234,9.234,0,0,1,.277-13.056l41.408-39.687A9.234,9.234,0,0,1,1083.044,486.7Z" fill="#e26c1e"/>
          <path id="Rectángulo_33713" data-name="Rectángulo 33713" d="M1151.142,524.042h0a9.234,9.234,0,0,1-.277,13.056l-19.712,18.893a9.235,9.235,0,0,1-13.056-.278h0a9.232,9.232,0,0,1,.277-13.055l19.712-18.893A9.234,9.234,0,0,1,1151.142,524.042Z" fill="#fda829"/>
        </g>
        <g id="Grupo_78303" data-name="Grupo 78303">
          <path id="Trazado_113163" data-name="Trazado 113163" d="M1121.635,575.584v10.43a2.235,2.235,0,0,1-2.235,2.235h0a2.235,2.235,0,0,1-2.236-2.235h0v-10.43a2.236,2.236,0,0,1,2.236-2.234h0A2.235,2.235,0,0,1,1121.635,575.584Z" fill="#133d60"/>
          <path id="Trazado_113164" data-name="Trazado 113164" d="M1131.515,575.584v10.43a2.235,2.235,0,0,1-2.235,2.235h0a2.235,2.235,0,0,1-2.236-2.235h0v-10.43a2.236,2.236,0,0,1,2.236-2.234h0A2.235,2.235,0,0,1,1131.515,575.584Z" fill="#133d60"/>
          <path id="Trazado_113165" data-name="Trazado 113165" d="M1141.4,575.584v10.43a2.233,2.233,0,0,1-2.233,2.235h0a2.235,2.235,0,0,1-2.236-2.235h0v-10.43a2.236,2.236,0,0,1,2.236-2.234h0a2.234,2.234,0,0,1,2.235,2.233Z" fill="#133d60"/>
          <path id="Trazado_113166" data-name="Trazado 113166" d="M1151.276,575.584v10.43a2.235,2.235,0,0,1-2.236,2.235h0a2.235,2.235,0,0,1-2.235-2.235h0v-10.43a2.235,2.235,0,0,1,2.235-2.234h0A2.235,2.235,0,0,1,1151.276,575.584Z" fill="#133d60"/>
          <path id="Trazado_113167" data-name="Trazado 113167" d="M1161.157,575.584v10.43a2.233,2.233,0,0,1-2.233,2.235h0a2.235,2.235,0,0,1-2.235-2.235h0v-10.43a2.235,2.235,0,0,1,2.235-2.234h0a2.235,2.235,0,0,1,2.236,2.233Z" fill="#133d60"/>
        </g>
      </g>
    </g>
  </g>
</svg>
