<svg xmlns="http://www.w3.org/2000/svg" width="314.519" height="683.549" viewBox="0 0 314.519 683.549">
  <g id="Grupo_927396" data-name="Grupo 927396" transform="translate(-1105 -3098.031)">
    <path id="Trazado_751319" data-name="Trazado 751319" d="M96.7,333.238C97.107,312.8,47.821,278.83,38.58,220.075c-7.707-48.717,39.67-91.617,85.091-107.384,42.387-14.7,63.358-9.363,91.684-21.474C254.991,74.26,259.81,35.211,318.11,21.573c27.712-6.485,57.118-1.189,83.25,8.559s50.65,22.832,78.169,29.422c27.7,6.646,57.05,5.015,85.8,3.118,96.992-6.429,159.43,53.041,155.826,101.743-2.137,28.932-15.39,48.573-34.021,65.819-10.48,9.692-25.984,20.349-20.869,32.677,2.273,5.626,8.491,9.355,13.64,13.509,17.186,14.008,23.325,37.772,15.743,56.818Z" transform="translate(1086.282 3819.331) rotate(-90)" fill="#a9caea"/>
    <g id="Grupo_927367" data-name="Grupo 927367" transform="translate(1109.994 3094.608)">
      <g id="Grupo_927367-2" data-name="Grupo 927367" transform="translate(113.56 28.113)">
        <circle id="Elipse_6965" data-name="Elipse 6965" cx="45.545" cy="45.545" r="45.545" fill="#0a88a5"/>
        <path id="Trazado_751239" data-name="Trazado 751239" d="M150.6,33.363a39.851,39.851,0,1,0,39.852,39.851A39.852,39.852,0,0,0,150.6,33.363Zm25.106,48.974c-1.186,0-9.23,2.555-25.1,2.555s-23.922-2.555-25.107-2.555c-5.144,0-7.682-.951-2.164-5.54,1.517-6.962,4.873-12.55,9.671-16.373a2.008,2.008,0,0,1,.756-2.691l3.486-2.01a2.011,2.011,0,0,1,2.749.736l.027.048a29.013,29.013,0,0,1,6.552-1.549V54.7a2.012,2.012,0,0,1,2.013-2.012h4.031a2.011,2.011,0,0,1,2.01,2.012v.261a28.971,28.971,0,0,1,6.552,1.549l.029-.048a2.009,2.009,0,0,1,2.747-.736l3.487,2.01a2.006,2.006,0,0,1,.756,2.691c4.8,3.824,8.153,9.412,9.67,16.373C183.388,81.386,180.852,82.337,175.708,82.337Z" transform="translate(-105.057 -27.67)" fill="#f5f5f5"/>
      </g>
      <g id="Grupo_927368" data-name="Grupo 927368" transform="translate(20.857 352.9)">
        <circle id="Elipse_6966" data-name="Elipse 6966" cx="45.545" cy="45.545" r="45.545" transform="translate(0)" fill="#0a88a5"/>
        <path id="Trazado_751240" data-name="Trazado 751240" d="M65.115,332.87a39.851,39.851,0,1,0,39.852,39.85A39.852,39.852,0,0,0,65.115,332.87ZM37.278,363.7c0-3.183.767-5.013,2.343-5.6,3.507-1.307,9.264,4.684,15.431,11.77-.4.441-.788.908-1.164,1.4-3.725-4.3-11-12.459-13.641-11.486-.757.283-1.174,1.673-1.174,3.919,0,8.56,6,15.768,11.321,20.046a13.407,13.407,0,0,0,.882,2.9C45.056,382.3,37.278,373.773,37.278,363.7Zm27.838,29.561c-7.279,0-13.178-4.84-13.178-12.118,0-4.467,2.976-9.121,6.495-12.053,2.215-1.846,3.163-4.491,6.683-4.491,3.621,0,4.47,2.645,6.689,4.494,3.516,2.931,6.489,7.587,6.489,12.05C78.294,388.425,72.394,393.265,65.116,393.265Zm13.838-6.618a13.377,13.377,0,0,0,.882-2.9c5.32-4.278,11.321-11.485,11.321-20.045,0-2.246-.417-3.636-1.173-3.918-2.636-.983-9.915,7.185-13.642,11.484-.375-.49-.766-.957-1.162-1.4,6.165-7.086,11.915-13.077,15.43-11.768,1.577.587,2.343,2.417,2.343,5.6C92.953,373.772,85.179,382.3,78.954,386.647ZM71.4,372.685c-.9,0-2.694-3.592-6.284-3.592s-5.388,3.592-6.287,3.592a.847.847,0,0,0-.9.9.9.9,0,0,0,.9.9c.9,0,4.489-3.592,6.287-3.592s5.386,3.592,6.284,3.592a.864.864,0,0,0,.9-.9A.9.9,0,0,0,71.4,372.685Z" transform="translate(-19.569 -327.176)" fill="#f5f5f5"/>
      </g>
      <g id="Grupo_927369" data-name="Grupo 927369" transform="translate(31.708 190.402)">
        <circle id="Elipse_6967" data-name="Elipse 6967" cx="45.545" cy="45.545" r="45.545" transform="translate(0 0)" fill="#0a88a5"/>
        <path id="Trazado_751241" data-name="Trazado 751241" d="M75.12,183.02a39.851,39.851,0,1,0,39.853,39.851A39.851,39.851,0,0,0,75.12,183.02Zm22.095,59.422A2.148,2.148,0,0,1,95,244.532a2.184,2.184,0,0,1-1.978-2.346L94.1,222.221a2.14,2.14,0,0,1,2.219-2.087,2.18,2.18,0,0,1,1.976,2.344c.063,0,.124.018.184.025a25.487,25.487,0,0,0-6.606-14.077c-.91.064-2.553-.72-4.175-2.08a12.964,12.964,0,0,1-1.923-1.971,8.589,8.589,0,0,1-4.151-.883,11.171,11.171,0,0,1-2.914-1.789,11.4,11.4,0,0,1-7.186,0,11.15,11.15,0,0,1-2.916,1.789,8.583,8.583,0,0,1-4.147.883,12.894,12.894,0,0,1-1.926,1.971c-1.622,1.362-3.266,2.144-4.176,2.079A25.494,25.494,0,0,0,51.756,222.5c.063-.005.124-.021.188-.025a2.177,2.177,0,0,1,1.978-2.344,2.14,2.14,0,0,1,2.215,2.087l1.087,19.965a2.186,2.186,0,0,1-1.978,2.346,2.145,2.145,0,0,1-2.218-2.09c-3.476.208-6.534-4.088-6.834-9.6a13.711,13.711,0,0,1,1.281-6.816v-.034c0-16.108,12.4-29.214,27.645-29.214s27.647,13.106,27.647,29.214v.037a13.75,13.75,0,0,1,1.282,6.812C103.746,238.354,100.689,242.648,97.215,242.442Z" transform="translate(-29.576 -177.327)" fill="#f5f5f5"/>
      </g>
      <g id="Grupo_927370" data-name="Grupo 927370" transform="translate(217.264 567.592)">
        <circle id="Elipse_6968" data-name="Elipse 6968" cx="45.545" cy="45.545" r="45.545" fill="#0a88a5"/>
        <path id="Trazado_751242" data-name="Trazado 751242" d="M246.234,530.85A39.852,39.852,0,1,0,286.086,570.7,39.851,39.851,0,0,0,246.234,530.85Zm-6.454,14.039h21.51l0,2.509H245.155v4.664h-5.117l-.129-1.443c-.073-.783-.129-2.071-.129-2.86ZM229.5,592.21h-3.349a3.508,3.508,0,0,1-1.793-.357,2.533,2.533,0,0,1-.358-1.436c0-.586.162-1.074.358-1.074s.2-.321,0-.718a6.1,6.1,0,0,1-.356-2.149,3.526,3.526,0,0,1,.714-2.151,6.389,6.389,0,0,1,2.08-1.171l1.581-.525a22.013,22.013,0,0,1,2.774-.691l5.774-.962a5.224,5.224,0,0,0,2.428-1.251l2.276-2.273a3.323,3.323,0,0,0,.833-2.439l-1.076-8.624c-.1-.782-.239-2.065-.307-2.851l-.851-9.328h4.994c.021.319.04.622.065.878l.147,1.63,1.027,11.288c.073.8.214,2.109.313,2.906l1.079,8.631a1.65,1.65,0,0,1-.325.943l-2.273,2.273a3.567,3.567,0,0,1-1.451.75l-5.779.961a24.054,24.054,0,0,0-3.046.755l-1.583.528a8.085,8.085,0,0,0-2.778,1.6,5.246,5.246,0,0,0-1.241,3.419A9.588,9.588,0,0,0,229.5,592.21Zm37.649-24.37c-.07.784-.235,2.064-.364,2.843l-.963,5.774a20.992,20.992,0,0,0-.235,2.85,10.615,10.615,0,0,0,.453,2.79l.527,1.582a10.565,10.565,0,0,1,.453,2.8v5.018a3.845,3.845,0,0,1-.358,1.434c-.2.4-.2.716,0,.716s.358.487.358,1.078a4.532,4.532,0,0,1-.178,1.434c-.1.2-.827.358-1.615.358h-6.811c-.789,0-1.435-.324-1.435-.717s-.645-.717-1.431-.717h-1.436a3.52,3.52,0,0,0-2.15.717,3.5,3.5,0,0,1-2.151.717H233.326a3.484,3.484,0,0,1-1.79-.358,2.518,2.518,0,0,1-.361-1.434c0-.591.164-1.078.361-1.078s.2-.318,0-.716a6.058,6.058,0,0,1-.361-2.15,3.5,3.5,0,0,1,.719-2.151,6.366,6.366,0,0,1,2.077-1.172l1.581-.528a22.657,22.657,0,0,1,2.776-.685l5.776-.963a5.259,5.259,0,0,0,2.428-1.25l2.273-2.272a3.33,3.33,0,0,0,.837-2.438l-1.082-8.628c-.1-.782-.232-2.066-.307-2.85l-.847-9.326H268Zm1.306-15.778c0,.787-.061,2.076-.129,2.861l-.129,1.439H247.212l-.133-1.439c-.072-.785-.131-2.073-.131-2.861l0-2.87h21.509Z" transform="translate(-200.689 -525.157)" fill="#f5f5f5"/>
      </g>
      <g id="Grupo_927371" data-name="Grupo 927371" transform="translate(10.006 561.899)">
        <circle id="Elipse_6969" data-name="Elipse 6969" cx="45.545" cy="45.545" r="45.545" fill="#0a88a5"/>
        <path id="Trazado_751243" data-name="Trazado 751243" d="M55.108,525.6A39.853,39.853,0,1,0,94.96,565.451,39.852,39.852,0,0,0,55.108,525.6ZM38.875,572.836l-11.249-6.564a3.173,3.173,0,1,1,3.2-5.482l4.524,2.641L30.6,550.8a2.75,2.75,0,0,1,5.142-1.95L34.78,546.3l0-.008a2.751,2.751,0,0,1,5.15-1.939v0l.483,1.283a2.752,2.752,0,0,1,5.153-1.933h0l1.45,3.858a2.749,2.749,0,1,1,5.149-1.93l1.083,2.88a4.917,4.917,0,0,0-3,5.869l3.124,11.891L47.6,576.442a3.188,3.188,0,0,0-2.62,1.853,3.15,3.15,0,0,0-.271,1.157l-3.626,1.365Zm4.485,15.784a1.376,1.376,0,1,1-.969-2.576l.116-.04-.856-3.1,3.7-1.393a3.117,3.117,0,0,0,1.2.977l5.945,2.694Zm27.621-.052a1.376,1.376,0,0,1-1.133,2.508L47.295,580.853a1.376,1.376,0,1,1,1.138-2.506l.114.052,1.586-2.795,21.791,9.871-1.056,3.038Zm4.423-13.1h0l-2.772,7.964L51.2,573.724l4.085-7.2-3.309-12.6a3.172,3.172,0,0,1,6.137-1.613l1.331,5.068,5.567-12.289a2.751,2.751,0,0,1,5.016,2.259l1.127-2.488v-.007a2.752,2.752,0,0,1,5.013,2.27h0l-.563,1.247a2.75,2.75,0,0,1,5.007,2.277h0L78.91,554.4a2.751,2.751,0,1,1,5.01,2.275Z" transform="translate(-9.563 -519.907)" fill="#f5f5f5"/>
      </g>
      <g id="Grupo_927372" data-name="Grupo 927372" transform="translate(206.264 320.347)">
        <circle id="Elipse_6970" data-name="Elipse 6970" cx="45.545" cy="45.545" r="45.545" fill="#0a88a5"/>
        <path id="Trazado_751244" data-name="Trazado 751244" d="M236.087,302.852A39.851,39.851,0,1,0,275.941,342.7,39.851,39.851,0,0,0,236.087,302.852Zm-24.216,40.5c4.722-2.148,7.734-7.672,7.016-13.6l-1.316-12.689,4.245-.6,6.011,32.646H211.871Zm24.216,21.786a4.564,4.564,0,0,1-4.273,4.807l-15.669-1.6a4.565,4.565,0,0,1-4.275-4.808v-3.21h24.216Zm0-8.016H211.871v-4.808h24.216Zm0-8.013h-4.9L225.088,316l3.88-.547,7.119,17.628Zm7.123-33.656,3.88.547-6.1,33.109h-3.109V332.739l-.827-2.046ZM260.3,363.54a4.563,4.563,0,0,1-4.273,4.808l-15.666,1.6a4.069,4.069,0,0,1-3.214-1.666,7.021,7.021,0,0,0,.732-3.142V360.33H260.3Zm0-6.414H237.882v-4.808H260.3Zm0-8.013H244.347l6.015-32.646,4.245.6-1.319,12.689c-.72,5.932,2.3,11.456,7.014,13.6Z" transform="translate(-190.544 -297.157)" fill="#f5f5f5"/>
      </g>
      <g id="Grupo_927394" data-name="Grupo 927394" transform="translate(87.326 372.018)">
        <path id="Trazado_751245" data-name="Trazado 751245" d="M163.207,426.119c0,9.683-8.137,3.5-14.572,3.5s-14.573,6.178-14.573-3.5,8.134-73.639,14.573-73.639S163.207,416.435,163.207,426.119Z" transform="translate(-76.855 -344.639)" fill="#681e1e"/>
        <g id="Grupo_927375" data-name="Grupo 927375" transform="translate(0 85.845)">
          <path id="Trazado_751246" data-name="Trazado 751246" d="M98.963,501.757H84.769c0-41.441,22.075-72.525,30.466-77.345l7.069,12.307.139-.087C118.3,439.562,98.963,465.868,98.963,501.757Z" transform="translate(-81.016 -424.412)" fill="#ffcc80"/>
          <path id="Trazado_751247" data-name="Trazado 751247" d="M122.3,436.719l-7.069-12.307c-.091.052-.193.125-.287.183l6.438,11.2.139-.087c-4.147,2.93-23.483,29.236-23.483,65.125H84.785c0,.307-.016.611-.016.92H98.963c0-35.89,19.336-62.2,23.481-65.125Z" transform="translate(-81.016 -424.412)" fill="#212121" opacity="0.05"/>
          <g id="Grupo_927373" data-name="Grupo 927373" transform="translate(0 67.568)">
            <path id="Trazado_751248" data-name="Trazado 751248" d="M81.325,509.935c-.318,8.364,3.724,15.37,9.022,15.635,14.4.72,9.857-6.306,10.177-14.673S96.8,495.526,91.5,495.261C82.552,494.812,81.9,494.779,81.325,509.935Z" transform="translate(-81.308 -486.011)" fill="#ff8f00"/>
            <path id="Trazado_751249" data-name="Trazado 751249" d="M96.035,507.06c3.209,4.847,7.093,7.663,8.68,6.28s.267-6.434-2.94-11.286-7.09-7.669-8.679-6.286S92.824,502.2,96.035,507.06Z" transform="translate(-80.37 -485.987)" fill="#ff8f00"/>
            <path id="Trazado_751250" data-name="Trazado 751250" d="M101.524,488.316c.273,3.884-1.513,11.586-1.513,11.586l-17.092,1.162s-2-11.075-.722-14.343C85.107,487.933,97.965,489.576,101.524,488.316Z" transform="translate(-81.269 -486.721)" fill="#ff8f00"/>
          </g>
          <path id="Trazado_751251" data-name="Trazado 751251" d="M102.416,502.664a26.445,26.445,0,0,0-2.569-3.309c.361-1.644,1.654-7.815,1.418-11.164a6.005,6.005,0,0,1-.9.221,60.806,60.806,0,0,1-1.441,10.023,26.64,26.64,0,0,1,2.57,3.309c3.206,4.852,4.524,9.9,2.94,11.284-1.024.891-3,.023-5.14-2-.142,8.158,3.964,14.907-10.167,14.2a7,7,0,0,1-4.3-1.887,7.471,7.471,0,0,0,5.217,2.807c14.129.706,10.024-6.046,10.167-14.2,2.136,2.017,4.116,2.887,5.138,2C106.94,512.569,105.622,507.516,102.416,502.664Z" transform="translate(-81.01 -419.028)" fill="#212121" opacity="0.5"/>
          <path id="Trazado_751252" data-name="Trazado 751252" d="M213.157,501.757H198.967c0-35.892-19.337-62.2-23.48-65.125l7.207-12.22C191.084,429.232,213.157,460.314,213.157,501.757Z" transform="translate(-73.358 -424.412)" fill="#ffcc80"/>
          <path id="Trazado_751253" data-name="Trazado 751253" d="M182.174,424.412l-.527.9c9.16,6.96,29.152,37,29.152,76.45h1.838C212.637,460.314,190.564,429.232,182.174,424.412Z" transform="translate(-72.838 -424.412)" fill="#212121" opacity="0.05"/>
          <g id="Grupo_927374" data-name="Grupo 927374" transform="translate(118.541 67.568)">
            <path id="Trazado_751254" data-name="Trazado 751254" d="M215.2,509.935c.318,8.364-3.723,15.37-9.022,15.635-14.4.72-9.862-6.306-10.177-14.673s3.72-15.37,9.019-15.636C213.978,494.812,214.629,494.779,215.2,509.935Z" transform="translate(-190.205 -486.011)" fill="#ff8f00"/>
            <path id="Trazado_751255" data-name="Trazado 751255" d="M199.973,507.06c-3.209,4.847-7.1,7.663-8.68,6.28s-.267-6.434,2.942-11.286,7.091-7.669,8.675-6.286S203.182,502.2,199.973,507.06Z" transform="translate(-190.622 -485.987)" fill="#ff8f00"/>
            <path id="Trazado_751256" data-name="Trazado 751256" d="M195.016,488.316c-.275,3.884,1.511,11.586,1.511,11.586l17.091,1.162s2.006-11.075.724-14.343C211.431,487.933,198.572,489.576,195.016,488.316Z" transform="translate(-190.254 -486.721)" fill="#ff8f00"/>
          </g>
          <path id="Trazado_751257" data-name="Trazado 751257" d="M215.619,510.645c-.233-6.081-.483-9.69-1.271-11.836.509-3.41,1.277-9.747.36-12.088a11.068,11.068,0,0,1-1.448.449,55.63,55.63,0,0,1-.75,9.8c.786,2.146,1.038,5.755,1.269,11.834.318,8.366-3.724,15.373-9.022,15.636-4.02.2-6.56-.2-8.146-1.07,1.063,2.077,3.742,3.223,9.986,2.911C211.9,526.016,215.937,519.009,215.619,510.645Zm-24.329,3.429c.694.6,1.836.382,3.164-.446,1.26-.9,2.372-1.559,2.258-2.882-1.475,1.395-4.99,1.712-6.053,1.809A2.264,2.264,0,0,0,191.29,514.074Z" transform="translate(-72.078 -419.153)" fill="#212121" opacity="0.5"/>
        </g>
        <g id="Grupo_927377" data-name="Grupo 927377" transform="translate(30.98 169.459)">
          <g id="Grupo_927376" data-name="Grupo 927376" transform="translate(0 3.537)">
            <path id="Trazado_751258" data-name="Trazado 751258" d="M175.348,625.079h-15.3l-10.2-113.221L188.1,504.78Z" transform="translate(-106.502 -504.78)" fill="#184054"/>
            <path id="Trazado_751259" data-name="Trazado 751259" d="M122.625,625.079h15.3l10.2-113.221-38.249-7.078Z" transform="translate(-109.876 -504.78)" fill="#184054"/>
          </g>
          <path id="Trazado_751260" data-name="Trazado 751260" d="M158.491,540.44l-6.924-4.092h-6.549l-6.927,4.092V501.518h20.4Z" transform="translate(-107.495 -501.518)" fill="#184054"/>
        </g>
        <path id="Trazado_751261" data-name="Trazado 751261" d="M186.358,505.548,174.081,621.4H162.13l.332,3.678h15.3l12.748-120.3Zm-34.1,26.846h-9.5l-1.539.909-7.939,88.1H121.273l.389,3.678h15.3l7.939-88.1,1.539-.909h6.549l1.538.909Z" transform="translate(-77.934 -331.783)" fill="#212121" opacity="0.4"/>
        <g id="Grupo_927379" data-name="Grupo 927379" transform="translate(16.151 67.453)">
          <g id="Grupo_927378" data-name="Grupo 927378">
            <path id="Trazado_751262" data-name="Trazado 751262" d="M110.857,474.079c0-52.6,17.792-66.627,39.737-66.627s39.733,14.027,39.733,66.627Z" transform="translate(-94.965 -407.452)" fill="#153d51"/>
            <path id="Trazado_751263" data-name="Trazado 751263" d="M183.016,456.068c15.893,0,18.544-14.022,18.544-17.529s-7.949-17.534-26.491-24.548-2.65,28.054-2.65,28.054Z" transform="translate(-90.304 -406.978)" fill="#153d51"/>
            <path id="Trazado_751264" data-name="Trazado 751264" d="M114.742,456.068c-15.893,0-18.54-14.022-18.54-17.529s7.943-17.534,26.488-24.548,2.649,28.054,2.649,28.054Z" transform="translate(-96.202 -406.978)" fill="#153d51"/>
          </g>
          <path id="Trazado_751265" data-name="Trazado 751265" d="M196.036,433.751c0,14.526-20.163,26.3-45.031,26.3s-45.034-11.772-45.034-26.3,20.163-26.3,45.034-26.3S196.036,419.224,196.036,433.751Z" transform="translate(-95.377 -407.452)" fill="#153d51"/>
        </g>
        <g id="Grupo_927382" data-name="Grupo 927382" transform="translate(28.43 67.453)">
          <g id="Grupo_927380" data-name="Grupo 927380" transform="translate(43.349)">
            <path id="Trazado_751266" data-name="Trazado 751266" d="M187.253,468.779c-11.868-5.893-14.419-25.387-8.977-52.446.166-.825.331-1.627.5-2.442l-16.825-6.438L147.5,446.436v68.231c0,5.378,3.426,9.746,7.648,9.746l28.048-3.25c4.224,0,7.653-4.366,7.653-9.748l-2.671-40.865C188,469.568,188.487,469.39,187.253,468.779Z" transform="translate(-147.499 -407.452)" fill="#f57f17"/>
            <path id="Trazado_751267" data-name="Trazado 751267" d="M188.038,470.133c-.178-.978.3-1.158-.913-1.764l1.066,40.109c0,5.384-3.429,9.75-7.653,9.75l-28.048,3.25a6.276,6.276,0,0,1-3.323-1.006A7.109,7.109,0,0,0,155.008,524l28.048-3.25c4.224,0,7.653-4.366,7.653-9.748Zm-6.468-6.3c-6.978-8.7-7.887-25.769-3.433-47.915.166-.825.331-1.627.5-2.442l-2.814-1.077c-.068.333-.136.663-.206,1C170.678,437.957,172.349,456.246,181.569,463.829Z" transform="translate(-147.359 -407.035)" fill="#e26910"/>
            <path id="Trazado_751268" data-name="Trazado 751268" d="M189.136,479.862H147.5v-6.5h41.232Z" transform="translate(-147.5 -401.889)" fill="#212121"/>
            <path id="Trazado_751269" data-name="Trazado 751269" d="M190.21,494.841H147.5v-6.5h42.28Z" transform="translate(-147.5 -400.624)" fill="#212121"/>
            <path id="Trazado_751270" data-name="Trazado 751270" d="M171.618,411.138l-12.653,67.586-.614,3.248-4.975-1.494.332-1.754,14.538-68.878Z" transform="translate(-147.004 -407.25)" fill="#212121"/>
          </g>
          <g id="Grupo_927381" data-name="Grupo 927381">
            <path id="Trazado_751271" data-name="Trazado 751271" d="M111.121,468.779c11.867-5.893,14.416-25.387,8.976-52.446-.167-.825-.334-1.627-.5-2.442l16.821-6.438,14.455,38.984v68.231c0,5.378-3.428,9.746-7.652,9.746l-28.049-3.25c-4.226,0-7.648-4.366-7.648-9.748l2.67-40.865C110.375,469.568,109.886,469.39,111.121,468.779Z" transform="translate(-107.525 -407.452)" fill="#f57f17"/>
            <path id="Trazado_751272" data-name="Trazado 751272" d="M136.259,407.452l-1.013.387L148.874,444.6v68.232c0,5.375-3.427,9.746-7.65,9.746l-28.05-3.25a6.385,6.385,0,0,1-3.756-1.3,7,7,0,0,0,5.6,3.144l28.049,3.25c4.224,0,7.652-4.368,7.652-9.746V446.436Z" transform="translate(-107.365 -407.452)" fill="#e26910"/>
            <path id="Trazado_751273" data-name="Trazado 751273" d="M109.1,479.862h41.641v-6.5H109.508Z" transform="translate(-107.392 -401.889)" fill="#212121"/>
            <path id="Trazado_751274" data-name="Trazado 751274" d="M108.113,494.841h42.711v-6.5H108.545Z" transform="translate(-107.475 -400.624)" fill="#212121"/>
            <path id="Trazado_751275" data-name="Trazado 751275" d="M124.869,411.108l12.582,67.617.61,3.248,4.974-1.494-.33-1.754-14.536-68.878Z" transform="translate(-106.061 -407.25)" fill="#212121"/>
          </g>
          <path id="Trazado_751276" data-name="Trazado 751276" d="M148.872,510.009a1.479,1.479,0,0,1-1.272,1.623h0a1.481,1.481,0,0,1-1.276-1.623V445.03A1.484,1.484,0,0,1,147.6,443.4h0a1.481,1.481,0,0,1,1.272,1.626Z" transform="translate(-104.25 -404.417)" fill="#212121"/>
          <path id="Trazado_751277" data-name="Trazado 751277" d="M149.071,446.4H146.52l-2.549,9.747,1.273,3.249h5.1l1.275-3.249ZM147.8,457.894a2,2,0,1,1,2-2A2,2,0,0,1,147.8,457.894Z" transform="translate(-104.449 -404.165)" fill="#e0e0e0"/>
        </g>
        <path id="Trazado_751278" data-name="Trazado 751278" d="M162.292,409.816c-2.006,4.192-7.373,7.192-13.723,7.192s-11.719-3-13.726-7.192c.329-2.78.693-5.853,1.13-9.1,2.521-3.216,7.193-5.385,12.6-5.385s10.074,2.169,12.594,5.385C161.6,403.963,161.965,407.035,162.292,409.816Z" transform="translate(-76.789 -341.022)" fill="#ffb74d"/>
        <g id="Grupo_927390" data-name="Grupo 927390" transform="translate(39.251)">
          <path id="Trazado_751279" data-name="Trazado 751279" d="M172.818,380.519c0,17.465-10.519,37.207-23.489,37.207s-23.494-19.742-23.494-37.207,10.518-26.044,23.494-26.044S172.818,363.053,172.818,380.519Z" transform="translate(-116.8 -344.47)" fill="#ffcc80"/>
          <path id="Trazado_751280" data-name="Trazado 751280" d="M170.026,385.2c-.569,4.433.517,8.193-1.923,7.934s-3.953-4.068-3.383-8.5,3.017-7.818,5.457-7.559S170.6,380.757,170.026,385.2Z" transform="translate(-113.528 -342.564)" fill="#ffcc80"/>
          <path id="Trazado_751281" data-name="Trazado 751281" d="M125.5,385.2c.569,4.433-.522,8.193,1.923,7.934s3.955-4.068,3.382-8.5-3.017-7.818-5.457-7.559S124.925,380.757,125.5,385.2Z" transform="translate(-116.941 -342.564)" fill="#ffcc80"/>
          <g id="Grupo_927384" data-name="Grupo 927384" transform="translate(8.139 35.764)">
            <path id="Trazado_751282" data-name="Trazado 751282" d="M161.791,400.283c0,7.322-5.935,12.2-13.259,12.2s-13.261-4.873-13.261-12.2c0-4.492,3-9.178,6.535-12.128,2.232-1.858,3.184-4.515,6.727-4.515,3.639,0,4.5,2.659,6.732,4.519C158.8,391.109,161.791,395.793,161.791,400.283Z" transform="translate(-124.143 -377.773)" fill="#f5f5f5"/>
            <path id="Trazado_751283" data-name="Trazado 751283" d="M140.361,393.134a.9.9,0,0,1-.608-.234l-14.448-13.1a.9.9,0,1,1,1.215-1.336l14.448,13.094a.9.9,0,0,1-.606,1.573Z" transform="translate(-125.009 -378.229)" fill="#f5f5f5"/>
            <path id="Trazado_751284" data-name="Trazado 751284" d="M155.9,393.134a.9.9,0,0,1-.617-1.565l14-13.1a.9.9,0,0,1,1.235,1.32l-14,13.1A.9.9,0,0,1,155.9,393.134Z" transform="translate(-122.477 -378.229)" fill="#f5f5f5"/>
            <path id="Trazado_751285" data-name="Trazado 751285" d="M138.275,406.148a.9.9,0,0,1-.638-.265l-9.037-9.037a.9.9,0,0,1,1.274-1.279l9.04,9.036a.9.9,0,0,1-.639,1.544Z" transform="translate(-124.728 -376.788)" fill="#f5f5f5"/>
            <path id="Trazado_751286" data-name="Trazado 751286" d="M157.565,406.148a.89.89,0,0,1-.633-.265.9.9,0,0,1,0-1.28l9.031-9.036a.9.9,0,1,1,1.277,1.279l-9.032,9.037A.91.91,0,0,1,157.565,406.148Z" transform="translate(-122.337 -376.788)" fill="#f5f5f5"/>
            <path id="Trazado_751287" data-name="Trazado 751287" d="M155.288,392.323a.87.87,0,0,1-.9.905c-.9,0-4.518-3.618-6.323-3.615s-5.423,3.615-6.326,3.615a.9.9,0,0,1-.9-.905h0a.854.854,0,0,1,.9-.9c.9,0,2.711-3.613,6.326-3.614s5.419,3.614,6.323,3.614a.9.9,0,0,1,.9.9Z" transform="translate(-123.673 -377.421)" fill="#757575"/>
            <g id="Grupo_927383" data-name="Grupo 927383" transform="translate(18.134 20.628)">
              <path id="Trazado_751288" data-name="Trazado 751288" d="M153.128,397.86a.583.583,0,0,1-.493.625c-3.147.094-6.31.094-9.458,0a.582.582,0,0,1-.492-.625h0a.561.561,0,0,1,.5-.608h9.453a.562.562,0,0,1,.5.608Z" transform="translate(-141.651 -397.252)" fill="#bdbdbd"/>
              <path id="Trazado_751289" data-name="Trazado 751289" d="M154.24,401.219a.712.712,0,0,1-.584.682,38.883,38.883,0,0,1-11.34,0,.715.715,0,0,1-.585-.682h0a.515.515,0,0,1,.587-.522,51.251,51.251,0,0,0,11.335,0,.514.514,0,0,1,.587.522Z" transform="translate(-141.731 -396.961)" fill="#bdbdbd"/>
              <path id="Trazado_751290" data-name="Trazado 751290" d="M153.658,404.727a.774.774,0,0,1-.531.734,22.393,22.393,0,0,1-10.365,0,.775.775,0,0,1-.531-.734h0a.448.448,0,0,1,.534-.486,25.918,25.918,0,0,0,10.36,0,.447.447,0,0,1,.534.486Z" transform="translate(-141.689 -396.663)" fill="#bdbdbd"/>
            </g>
          </g>
          <g id="Grupo_927386" data-name="Grupo 927386" transform="translate(9.035 30.76)">
            <g id="Grupo_927385" data-name="Grupo 927385">
              <path id="Trazado_751291" data-name="Trazado 751291" d="M168.928,383.556c0,15.123-16.268,5.041-19.883,5.041s-19.879,10.042-19.879-5.079c0-10.844,0-9.036,19.879-9.036S168.928,372.674,168.928,383.556Z" transform="translate(-125.554 -373.551)" fill="#263238"/>
              <path id="Trazado_751292" data-name="Trazado 751292" d="M172.82,375.889a2.08,2.08,0,0,1-1.8,2.271H127.644a2.082,2.082,0,0,1-1.809-2.271h0a2.084,2.084,0,0,1,1.809-2.274h43.372a2.081,2.081,0,0,1,1.8,2.274Z" transform="translate(-125.835 -373.615)" fill="#263238"/>
              <path id="Trazado_751293" data-name="Trazado 751293" d="M165.974,383.509c1,0,1.807-4.044,1.807-9.036h-3.618C164.163,379.466,164.97,383.509,165.974,383.509Z" transform="translate(-122.6 -373.543)" fill="#263238"/>
              <path id="Trazado_751294" data-name="Trazado 751294" d="M129.307,383.509c1,0,1.812-4.044,1.812-9.036H127.5C127.5,379.466,128.31,383.509,129.307,383.509Z" transform="translate(-125.694 -373.543)" fill="#263238"/>
            </g>
            <path id="Trazado_751295" data-name="Trazado 751295" d="M147.479,381.5v-3.614l-.451-.9c-2.855,0-3.494-.036-5.594-.067-1.546-.025-2.9-.047-4.088-.047-4.179,0-5.083.341-5.247.54-.43.521-.43,3.379-.43,5.9,0,2.265.419,3.9,1.218,4.739.211.224.853.9,2.781.9,2.531,0,5.712-1.11,8.264-2a7.966,7.966,0,0,0,2.645-1.268Z" transform="translate(-125.343 -373.34)" fill="#bbdefb"/>
            <path id="Trazado_751296" data-name="Trazado 751296" d="M139.115,384.274a1.731,1.731,0,1,1,2.03-1.706A1.887,1.887,0,0,1,139.115,384.274Z" transform="translate(-124.885 -373.003)" fill="#90caf9"/>
            <path id="Trazado_751297" data-name="Trazado 751297" d="M164.127,377.412c-.167-.2-1.074-.544-5.265-.544-1.186,0-2.54.021-4.09.046-2.094.031-2.727.067-5.572.067l-.451.9V381.5l.9,4.178a8.048,8.048,0,0,0,2.66,1.276c2.556.9,5.738,2.015,8.271,2.015,1.584,0,3.978,0,3.978-5.626C164.56,380.682,164.56,377.936,164.127,377.412Z" transform="translate(-123.901 -373.34)" fill="#bbdefb"/>
            <path id="Trazado_751298" data-name="Trazado 751298" d="M156.2,384.285a1.732,1.732,0,1,1,2.029-1.706A1.887,1.887,0,0,1,156.2,384.285Z" transform="translate(-123.443 -373.002)" fill="#90caf9"/>
          </g>
          <g id="Grupo_927387" data-name="Grupo 927387" transform="translate(0 2.777)">
            <path id="Trazado_751299" data-name="Trazado 751299" d="M149.61,351.425c13.206,0,23.914,12.136,23.914,27.107h3.193c0-16.968-12.139-30.722-27.107-30.722S122.5,361.565,122.5,378.532h3.189C125.69,363.561,136.4,351.425,149.61,351.425Z" transform="translate(-117.082 -347.81)" fill="#ff8f00"/>
            <path id="Trazado_751300" data-name="Trazado 751300" d="M128.283,392.343a2.143,2.143,0,0,1-2.013,2.256h0a2.137,2.137,0,0,1-2.254-2.01l-1.1-19.19a2.136,2.136,0,0,1,2.009-2.257h0a2.14,2.14,0,0,1,2.257,2.01Z" transform="translate(-117.047 -345.841)" fill="#212121"/>
            <path id="Trazado_751301" data-name="Trazado 751301" d="M124.475,392.413c-3.535.2-6.645-3.928-6.947-9.227s2.314-9.762,5.846-9.962Z" transform="translate(-117.504 -345.665)" fill="#ff8f00"/>
            <path id="Trazado_751302" data-name="Trazado 751302" d="M121.088,391.179c1.508-3.091,2.374-11.184,2.17-14.974l.921,15.948A4.828,4.828,0,0,1,121.088,391.179Z" transform="translate(-117.201 -345.413)" fill="#212121" opacity="0.1"/>
          </g>
          <g id="Grupo_927388" data-name="Grupo 927388" transform="translate(53.815 28.075)">
            <path id="Trazado_751303" data-name="Trazado 751303" d="M167.133,392.343a2.14,2.14,0,0,0,2.01,2.256h0a2.143,2.143,0,0,0,2.258-2.01l1.1-19.19a2.13,2.13,0,0,0-2.006-2.257h0a2.141,2.141,0,0,0-2.256,2.01Z" transform="translate(-167.13 -371.139)" fill="#212121"/>
            <path id="Trazado_751304" data-name="Trazado 751304" d="M171.065,392.413c3.535.2,6.642-3.928,6.949-9.227s-2.313-9.762-5.849-9.962Z" transform="translate(-166.798 -370.963)" fill="#ff8f00"/>
            <path id="Trazado_751305" data-name="Trazado 751305" d="M178.032,381.515c0,.313,0,.644-.017.976-.313,5.3-3.422,9.418-6.955,9.215l.127-2.134C175.416,389.277,177.205,383.907,178.032,381.515Z" transform="translate(-166.798 -370.263)" fill="#212121" opacity="0.1"/>
          </g>
          <g id="Grupo_927389" data-name="Grupo 927389" transform="translate(3.918)">
            <path id="Trazado_751306" data-name="Trazado 751306" d="M173.362,373.172a108.962,108.962,0,0,1-23.635,2.41,109.5,109.5,0,0,1-23.656-2.41c-4.839,0-7.23-.884-2.023-5.206a26.338,26.338,0,0,1,9.106-15.433,1.861,1.861,0,0,1,.717-2.52l3.275-1.913a1.916,1.916,0,0,1,2.593.7l.018.055c.037-.018.075-.018.112-.038a26.538,26.538,0,0,1,6.068-1.434v-.24a1.136,1.136,0,0,1,.02-.257,1.9,1.9,0,0,1,1.876-1.637h3.79a1.893,1.893,0,0,1,1.893,1.894v.24a.118.118,0,0,1,.074.017,25.938,25.938,0,0,1,6.106,1.454l.018-.055c0-.018.02-.018.039-.037a1.879,1.879,0,0,1,2.556-.663l3.275,1.913a1.86,1.86,0,0,1,.716,2.52,26.32,26.32,0,0,1,9.1,15.433C180.61,372.289,178.221,373.172,173.362,373.172Z" transform="translate(-121.116 -345.249)" fill="#f57f17"/>
            <path id="Trazado_751307" data-name="Trazado 751307" d="M157.309,348.6l-1.013,9.547a3.127,3.127,0,0,1-6.238-.313,1.888,1.888,0,0,1,.02-.331l1.067-10.265a25.936,25.936,0,0,1,6.106,1.454l.018-.055C157.27,348.613,157.29,348.613,157.309,348.6Z" transform="translate(-118.673 -345.082)" fill="#e26910"/>
            <path id="Trazado_751308" data-name="Trazado 751308" d="M145.637,357.5a1.888,1.888,0,0,1,.017.312,3.145,3.145,0,0,1-2.814,3.127,3.113,3.113,0,0,1-3.439-2.8l-.993-9.493a26.534,26.534,0,0,1,6.068-1.434Z" transform="translate(-119.657 -345.083)" fill="#e26910"/>
            <path id="Trazado_751309" data-name="Trazado 751309" d="M173.177,366.928c-17.27,4.838-21.429,3.421-25.677,3.421,5.224-1.361,25.512-.846,21.943-12.8A28.939,28.939,0,0,1,173.177,366.928Z" transform="translate(-118.889 -344.211)" fill="#e26910"/>
          </g>
        </g>
        <g id="Grupo_927393" data-name="Grupo 927393" transform="translate(21.191 271.615)">
          <g id="Grupo_927391" data-name="Grupo 927391" transform="translate(58.995)">
            <path id="Trazado_751310" data-name="Trazado 751310" d="M196.861,635.749a1.235,1.235,0,0,1,.163-.611,6.98,6.98,0,0,0,.409-2.463,4.04,4.04,0,0,0-.82-2.463,7.29,7.29,0,0,0-2.378-1.343l-1.813-.6a24.76,24.76,0,0,0-3.177-.787l-6.616-1.1a6.043,6.043,0,0,1-2.784-1.429l-2.6-2.6a3.815,3.815,0,0,1-.955-2.792l1.237-9.883c.11-.9.267-2.363.351-3.263l.965-10.681H155.252l.971,10.681c.085.9.271,2.367.422,3.258l1.1,6.613a23.94,23.94,0,0,1,.269,3.261,12.058,12.058,0,0,1-.523,3.2l-.6,1.807a12.062,12.062,0,0,0-.521,3.2V633.5a4.417,4.417,0,0,0,.411,1.641,1.111,1.111,0,0,1,.152.648C162.665,634.834,183.435,636.437,196.861,635.749Z" transform="translate(-155.252 -595.722)" fill="#dedede"/>
            <path id="Trazado_751311" data-name="Trazado 751311" d="M195.12,630.213a7.29,7.29,0,0,0-2.378-1.343l-1.813-.6a24.759,24.759,0,0,0-3.177-.787l-6.616-1.1a6.043,6.043,0,0,1-2.784-1.429l-2.6-2.6a3.816,3.816,0,0,1-.955-2.792l1.237-9.883c.11-.9.267-2.363.351-3.263l.965-10.681h-1.838l-.966,10.681c-.085.9-.243,2.367-.354,3.263l-1.234,9.883a3.814,3.814,0,0,0,.953,2.792l2.6,2.6a6.052,6.052,0,0,0,2.785,1.429l6.617,1.1a24.818,24.818,0,0,1,3.175.787l1.814.6a7.285,7.285,0,0,1,2.379,1.343,4.04,4.04,0,0,1,.818,2.463,6.98,6.98,0,0,1-.409,2.463,1.232,1.232,0,0,0-.162.611c-2.269.117-4.754.164-7.332.172,3.24.011,6.369-.028,9.171-.172a1.235,1.235,0,0,1,.163-.611,6.98,6.98,0,0,0,.409-2.463A4.04,4.04,0,0,0,195.12,630.213Z" transform="translate(-153.759 -595.722)" fill="#212121" opacity="0.5"/>
            <path id="Trazado_751312" data-name="Trazado 751312" d="M196.936,632.7c-.1,0-.155-.086-.163-.213-13.426.689-34.2-.915-39.925.038-.016.1-.061.175-.152.175-.224,0-.411.552-.411,1.23a5.276,5.276,0,0,0,.2,1.646c.111.225.945.408,1.847.408h7.8c.9,0,1.639-.371,1.639-.821s.742-.823,1.646-.823h1.64a4.017,4.017,0,0,1,2.463.823,4.038,4.038,0,0,0,2.467.821h18.886a4.028,4.028,0,0,0,2.055-.408,2.916,2.916,0,0,0,.409-1.646C197.345,633.25,197.161,632.7,196.936,632.7Z" transform="translate(-155.165 -592.642)" fill="#212121"/>
          </g>
          <g id="Grupo_927392" data-name="Grupo 927392">
            <path id="Trazado_751313" data-name="Trazado 751313" d="M101.42,635.749a1.243,1.243,0,0,0-.162-.611,6.977,6.977,0,0,1-.41-2.463,4.04,4.04,0,0,1,.82-2.463,7.29,7.29,0,0,1,2.378-1.343l1.814-.6a24.7,24.7,0,0,1,3.176-.787l6.616-1.1a6.047,6.047,0,0,0,2.785-1.429l2.6-2.6a3.818,3.818,0,0,0,.953-2.792l-1.235-9.883c-.11-.9-.268-2.363-.352-3.263l-.966-10.681h23.588l-.971,10.681c-.084.9-.271,2.367-.421,3.258l-1.1,6.613a24.115,24.115,0,0,0-.268,3.261,12.1,12.1,0,0,0,.523,3.2l.6,1.807a12.062,12.062,0,0,1,.52,3.2V633.5a4.417,4.417,0,0,1-.411,1.641,1.122,1.122,0,0,0-.153.648C135.616,634.834,114.847,636.437,101.42,635.749Z" transform="translate(-100.849 -595.722)" fill="#dedede"/>
            <path id="Trazado_751314" data-name="Trazado 751314" d="M138.712,609.661c.15-.89.337-2.357.421-3.258l.971-10.681h-1.84l-.969,10.681c-.084.9-.271,2.367-.421,3.258l-1.1,6.613a24.115,24.115,0,0,0-.268,3.261,12.057,12.057,0,0,0,.523,3.2l.6,1.807a12.106,12.106,0,0,1,.521,3.2V633.5a4.419,4.419,0,0,1-.412,1.641,1.379,1.379,0,0,0-.142.461c.7.049,1.337.106,1.829.188a1.122,1.122,0,0,1,.153-.648,4.417,4.417,0,0,0,.411-1.641v-5.748a12.062,12.062,0,0,0-.521-3.2l-.6-1.807a12.1,12.1,0,0,1-.523-3.2,24.118,24.118,0,0,1,.268-3.261Z" transform="translate(-97.924 -595.722)" fill="#212121" opacity="0.5"/>
            <path id="Trazado_751315" data-name="Trazado 751315" d="M101.259,632.7c.1,0,.153-.086.162-.213,13.426.689,34.2-.915,39.925.038.016.1.062.175.153.175.224,0,.411.552.411,1.23a5.268,5.268,0,0,1-.206,1.646c-.111.225-.943.408-1.847.408h-7.8c-.9,0-1.641-.371-1.641-.821s-.743-.823-1.646-.823h-1.64a4.02,4.02,0,0,0-2.463.823,4.038,4.038,0,0,1-2.466.821H103.313a4.023,4.023,0,0,1-2.054-.408,2.915,2.915,0,0,1-.41-1.646C100.849,633.25,101.034,632.7,101.259,632.7Z" transform="translate(-100.849 -592.642)" fill="#212121"/>
          </g>
        </g>
      </g>
      <line id="Línea_1168" data-name="Línea 1168" y1="14.557" x2="14.557" transform="translate(76.467 553.035)" fill="none" stroke="#0a88a5" stroke-linecap="round" stroke-miterlimit="10" stroke-width="2"/>
      <line id="Línea_1169" data-name="Línea 1169" x2="35.11" y2="8.342" transform="translate(103.477 419.498)" fill="none" stroke="#0a88a5" stroke-linecap="round" stroke-miterlimit="10" stroke-width="2"/>
      <line id="Línea_1170" data-name="Línea 1170" x1="32.889" y2="31.648" transform="translate(197.495 645.913)" fill="none" stroke="#0a88a5" stroke-linecap="round" stroke-miterlimit="10" stroke-width="2"/>
      <line id="Línea_1171" data-name="Línea 1171" x1="40.963" y2="47.494" transform="translate(186.627 400.858)" fill="none" stroke="#0a88a5" stroke-linecap="round" stroke-miterlimit="10" stroke-width="2"/>
      <line id="Línea_1172" data-name="Línea 1172" x2="35.598" y2="121.927" transform="translate(92.626 279.685)" fill="none" stroke="#0a88a5" stroke-linecap="round" stroke-miterlimit="10" stroke-width="2"/>
      <line id="Línea_1173" data-name="Línea 1173" x1="46.695" y2="162.931" transform="translate(180.43 240.777)" fill="none" stroke="#0a88a5" stroke-linecap="round" stroke-miterlimit="10" stroke-width="2"/>
      <line id="Línea_1174" data-name="Línea 1174" x1="1.895" y2="252.814" transform="translate(157.211 119.204)" fill="none" stroke="#0a88a5" stroke-linecap="round" stroke-miterlimit="10" stroke-width="2"/>
      <g id="Grupo_927395" data-name="Grupo 927395" transform="translate(195.413 157.849)">
        <path id="Trazado_751316" data-name="Trazado 751316" d="M272.071,193.3a45.545,45.545,0,1,1-45.545-45.545A45.547,45.547,0,0,1,272.071,193.3Z" transform="translate(-180.981 -147.751)" fill="#0a88a5"/>
        <path id="Trazado_751317" data-name="Trazado 751317" d="M226.081,153a39.851,39.851,0,1,0,39.854,39.851A39.853,39.853,0,0,0,226.081,153Zm27.841,39.851a1.8,1.8,0,0,1-1.8,1.8H251.1a14.378,14.378,0,0,1-14.244,12.572,14.213,14.213,0,0,1-7.183-1.8c-.6-.282-1.795-1.795-3.589-1.712-1.8-.082-2.994,1.43-3.594,1.712a14.2,14.2,0,0,1-7.183,1.8,14.377,14.377,0,0,1-14.244-12.572h-1.021a1.8,1.8,0,0,1-1.8-1.8v-7.182a1.8,1.8,0,0,1,1.8-1.8h.9v-1.8a3.6,3.6,0,0,1,3.594-3.594h43.1a3.593,3.593,0,0,1,3.592,3.594v1.8h.9a1.8,1.8,0,0,1,1.8,1.8Zm-17.064-10.325H215.308c-8.686,0-10.326,1.641-10.326,10.325a10.333,10.333,0,0,0,10.326,10.329,12.229,12.229,0,0,0,5.524-1.832,8.71,8.71,0,0,1,10.5,0,12.226,12.226,0,0,0,5.524,1.833,10.34,10.34,0,0,0,10.328-10.329c0-4.712-.527-7.078-1.886-8.433S241.574,182.528,236.858,182.528Z" transform="translate(-180.538 -147.308)" fill="#f5f5f5"/>
      </g>
    </g>
  </g>
</svg>
