<svg xmlns="http://www.w3.org/2000/svg" width="94" height="94" viewBox="0 0 94 94">
  <g id="Grupo_928174" data-name="Grupo 928174" transform="translate(-1131 -3769.9)">
    <g id="Grupo_902283" data-name="Grupo 902283" transform="translate(790.5 3274.9)">
      <circle id="_2-vector" data-name="2-vector" cx="47" cy="47" r="47" transform="translate(340.5 495)" fill="#f6f6f6"/>
    </g>
    <path id="Trazado_752248" data-name="Trazado 752248" d="M21.484-11.621q0,5.762-2.588,8.887A8.943,8.943,0,0,1,11.6.391,8.991,8.991,0,0,1,4.258-2.754Q1.66-5.9,1.66-11.621v-5.2q0-5.762,2.588-8.887a8.965,8.965,0,0,1,7.314-3.125,8.969,8.969,0,0,1,7.324,3.145q2.6,3.145,2.6,8.887ZM14.9-17.656a10.142,10.142,0,0,0-.8-4.58,2.677,2.677,0,0,0-2.539-1.514,2.613,2.613,0,0,0-2.471,1.406,9.555,9.555,0,0,0-.83,4.258v7.266a10.219,10.219,0,0,0,.8,4.658A2.687,2.687,0,0,0,11.6-4.687a2.651,2.651,0,0,0,2.48-1.436,9.756,9.756,0,0,0,.82-4.5Zm16.016.684h3.105q3.691,0,3.691-3.613a3.124,3.124,0,0,0-.879-2.295,3.333,3.333,0,0,0-2.48-.889,3.568,3.568,0,0,0-2.275.762,2.324,2.324,0,0,0-.967,1.895H24.531a6.738,6.738,0,0,1,1.25-4,8.255,8.255,0,0,1,3.467-2.744,11.853,11.853,0,0,1,4.873-.986,11.646,11.646,0,0,1,7.461,2.168A7.207,7.207,0,0,1,44.3-20.723a6.007,6.007,0,0,1-1.123,3.467A8,8,0,0,1,39.9-14.609a7.646,7.646,0,0,1,3.555,2.49,6.558,6.558,0,0,1,1.289,4.131,7.338,7.338,0,0,1-2.93,6.094,12.161,12.161,0,0,1-7.7,2.285A12.611,12.611,0,0,1,28.936-.674a8.124,8.124,0,0,1-3.623-2.949,7.667,7.667,0,0,1-1.23-4.287H30.7a2.964,2.964,0,0,0,1.055,2.266,3.723,3.723,0,0,0,2.6.957,3.9,3.9,0,0,0,2.773-.967,3.231,3.231,0,0,0,1.035-2.471,3.778,3.778,0,0,0-1.074-3.047,4.491,4.491,0,0,0-2.969-.9h-3.2Z" transform="translate(1155 3830)" fill="#9dca4e"/>
  </g>
</svg>
