<svg xmlns="http://www.w3.org/2000/svg" xmlns:xlink="http://www.w3.org/1999/xlink" width="431" height="436.999" viewBox="0 0 431 436.999">
  <defs>
    <filter id="Elipse_6091" x="0" y="5.999" width="431" height="431" filterUnits="userSpaceOnUse">
      <feOffset dy="3" input="SourceAlpha"/>
      <feGaussianBlur stdDeviation="3" result="blur"/>
      <feFlood flood-opacity="0.161"/>
      <feComposite operator="in" in2="blur"/>
      <feComposite in="SourceGraphic"/>
    </filter>
  </defs>
  <g id="Grupo_905381" data-name="Grupo 905381" transform="translate(-856 -2309.001)">
    <g transform="matrix(1, 0, 0, 1, 856, 2309)" filter="url(#Elipse_6091)">
      <circle id="Elipse_6091-2" data-name="Elipse 6091" cx="206.5" cy="206.5" r="206.5" transform="translate(9 12)" fill="#fff"/>
    </g>
    <g id="Grupo_905380" data-name="Grupo 905380" transform="translate(319.41 2151.529)">
      <path id="Trazado_690540" data-name="Trazado 690540" d="M668.131,1053.787s-18.919-4.265-28.882-.752-19.692,40.768-18.333,73.373c.541,12.991,1.73,32.955,4.567,53.391,10.113,72.825,84.884,93.206,153.877,90.746,55.389-1.975,99.207-28.127,106.493-77.907,7.948-54.3,18.958-118.35,10.238-129.07-12.978-15.955-157.889,22.99-227.961-9.781" transform="translate(-6.494 -687.336)" fill="#783421" fill-rule="evenodd"/>
      <path id="Trazado_690541" data-name="Trazado 690541" d="M658.93,1224.057c19.1,58.222,86.821,74.989,149.749,72.745,55.389-1.975,96.42-23.523,103.706-73.3,7.948-54.3,21.746-122.953,13.026-133.673-5.865-7.211-38.678-3.208-79.35.32-3.136,16.833-3.022,36.017,5.537,54.083,22.477,47.442,40.429,81.476-8.478,107.968s-86.946,31.246-128.382,8.151c-19.8-11.036-39.908-25.947-55.808-36.289" transform="translate(-35.813 -713.592)" fill="#5c271d" fill-rule="evenodd"/>
      <path id="Trazado_690542" data-name="Trazado 690542" d="M632.1,1044.737c10.49-3.7,29.9.678,29.954.69l.406.138c41.687,19.5,110.65,13.276,161.739,8.668,34.543-3.116,61.087-5.51,66.911,1.65,8.22,10.105.553,61.253-6.861,110.708-1,6.693-2,13.356-2.957,19.878-3.6,24.564-15.889,43.509-34.014,56.769-19.332,14.143-45.285,21.771-74.347,22.807-38.421,1.37-78.657-4.306-108.773-22.065-24.632-14.526-42.488-37.077-47.11-70.365-1.43-10.294-2.44-20.426-3.16-29.6-.714-9.1-1.148-17.4-1.423-23.981a175.553,175.553,0,0,1,4.856-47.677c3.667-14.676,9.086-25.61,14.779-27.618m28.914,4.46c-1.994-.431-18.735-3.9-27.613-.77-4.383,1.546-8.92,11.419-12.282,24.877a171.5,171.5,0,0,0-4.749,46.575c.267,6.409.7,14.59,1.423,23.827.719,9.163,1.721,19.232,3.13,29.372,4.435,31.943,21.578,53.586,45.227,67.532,29.405,17.341,68.879,22.876,106.644,21.529,28.289-1.009,53.486-8.386,72.173-22.057,17.291-12.65,29.02-30.73,32.452-54.181.954-6.521,1.953-13.184,2.957-19.877,7.289-48.627,14.828-98.917,7.7-107.677-4.514-5.549-30.163-3.236-63.542-.225C773.093,1062.763,703.676,1069.022,661.018,1049.2Z" transform="translate(0 -680.882)" fill="#301c19"/>
      <path id="Trazado_690543" data-name="Trazado 690543" d="M1092.344,1221.531l8.871,25.934s7.387,31.113,7.727,45.564-2.887,41.823-1.1,45.053,2.633,1.785,2.887.255,1.613-10.966,3.991-17.682,4.076-11.816,4.331-15.131-4.585-31.2-3.227-37.658,2.547-10.966,2.632-15.216.34-9.435.34-10.2,8.309-24.914,8.309-24.914-19.1,6.807-34.757,4" transform="translate(-368.97 -814.85)" fill="#b88d57" fill-rule="evenodd"/>
      <path id="Trazado_690544" data-name="Trazado 690544" d="M915.507,1006.382a159.3,159.3,0,0,0,26.033-4.421c12.454-3.4,51.288-18.135,70.082-10.427s27.059,15.3,32.607,19.495,2.264,8.614-4.868,10.541-15.964-3.287-30.909-.68-84.036,18.5-90.8,21.422-34.87,7.667-57.286-4.106-46.87-30.793-42.794-32.152,48.228,5.887,61.36,4.3,36.574-3.973,36.574-3.973" transform="translate(-157.413 -639.435)" fill="#b45428" fill-rule="evenodd"/>
      <path id="Trazado_690545" data-name="Trazado 690545" d="M1207.083,1082.658s19.521-7.129,30.554,4.074,5.476,18.658-1.91,20.536-25.945,6.273-25.945,6.273Z" transform="translate(-457.167 -709.454)" fill="#783421" fill-rule="evenodd"/>
      <path id="Trazado_690546" data-name="Trazado 690546" d="M935.553,997.4a161.093,161.093,0,0,1-26.4,4.49v0c-1.2.122-23.509,2.4-36.49,3.967-7.626.92-25.05-1.013-39.548-2.621-8.587-.953-16.119-1.788-19.582-1.875a40.67,40.67,0,0,0,3.939,3.819c7.867,6.858,22.993,17.334,37.306,24.852a67.9,67.9,0,0,0,26.63,7.117c13.452.964,25.03-1.377,28.971-3.08,3.19-1.378,19.341-5.441,37.385-9.7,21.462-5.063,45.687-10.428,53.86-11.854,8.686-1.515,15.308-.5,20.757.344,3.951.608,7.236,1.114,9.975.375a13.78,13.78,0,0,0,4.806-2.175,3.7,3.7,0,0,0,1.333-1.653,1.773,1.773,0,0,0-.2-1.417,6.187,6.187,0,0,0-1.745-1.842c-.775-.586-1.567-1.208-2.425-1.884a112.515,112.515,0,0,0-29.745-17.366c-15.126-6.2-44.614,3.018-60.933,8.121-3.11.972-5.741,1.8-7.894,2.383m-26.692.585a156.95,156.95,0,0,0,25.666-4.352c1.837-.5,4.55-1.35,7.756-2.352,16.794-5.251,47.14-14.741,63.582-8a116,116,0,0,1,30.679,17.9c.86.677,1.652,1.3,2.364,1.838a9.966,9.966,0,0,1,2.817,3.1,5.533,5.533,0,0,1,.491,4.465,7.465,7.465,0,0,1-2.65,3.552,17.623,17.623,0,0,1-6.2,2.879c-3.534.955-7.181.393-11.568-.282-5.173-.8-11.458-1.765-19.516-.359-8.1,1.412-32.221,6.757-53.63,11.808-17.849,4.211-33.751,8.2-36.727,9.484-4.276,1.847-16.656,4.4-30.794,3.386a71.794,71.794,0,0,1-28.177-7.561c-14.562-7.649-30-18.35-38.056-25.372a40.391,40.391,0,0,1-4.717-4.673c-1.614-2.006-1.99-3.7-.875-4.948a2.618,2.618,0,0,1,1.145-.742h.008c2.188-.73,11.754.332,23.083,1.589,14.288,1.585,31.46,3.49,38.66,2.621,12.942-1.562,36.537-3.966,36.605-3.973Z" transform="translate(-150.912 -632.992)" fill="#301c19"/>
      <path id="Trazado_690547" data-name="Trazado 690547" d="M835.3,412.26s2.151-15.188.453-26.3-19.587-30.829-22.078-31.623-15.4,7.708-27.286.453-9.963-27.2-16.53-35.363-9.963-9.294-9.058-10.654,17.1-6.8,38.041.453,21.285,24.368,20.945,31.056-1.7,8.387-.679,10.314,19.36,18.248,23.21,18.021,4.868-5.781,6.114-20.968,2.039-54.3-9.056-78.755-7.925-24.906-14.265-27.85-22.533-6.17-36.8-23.4-2.717-33.209-3.736-40.577-4.529-10.654-2.491-11.674,27.4,3.06,44.268,20.742,7.133,46.584,9.057,49.644,14.718,28,17.1,36.269,3.51,10.994,5.208,8.387,6.68-25.275,11.1-31.963,6.68-9.067,7.02-10.881-9.058-30.287,2.943-46.589,30.567-14.717,35.548-21.737,8.151,34.416,2.717,48.228-26.265,19.246-32.6,24.906-16.755,29.435-16.982,38.039-2.491,34.19,2.717,36.228,21.283-17.887,21.963-22.869.453-26.944,13.585-36.907,32.831-7.019,37.586-11.774,6.793-9.51,8.831-5.887-1.132,43.02-17.208,54.341-26.944,4.3-34.643,9.736-20.831,16.982-23.1,23.322-6.113,49.24-5.32,60.914,2.943,18.362,2.377,21.308-23.323,6.8-38.947,3.4" transform="translate(-114.011 -5.983)" fill="#80af16" fill-rule="evenodd"/>
      <path id="Trazado_690548" data-name="Trazado 690548" d="M1333.033,528.625c1.12-8.708,3.955-20.582,12.66-27.185,13.133-9.962,32.831-7.019,37.586-11.774,2.5-2.5,4.247-5,5.64-6.28-1.27,3.951-3.814,9.525-8.37,11.244-7.3,2.756-20.692,2.365-30.527,9.365s-14.234,18.453-14.811,23.186-.743,6.576-.743,6.576-.619-2.041-1.435-5.131" transform="translate(-553.982 -250.523)" fill="#d7d225" fill-rule="evenodd"/>
      <path id="Trazado_690549" data-name="Trazado 690549" d="M1246.118,238.381c-1.739-10.214-3.01-26.014,4.814-36.643,12-16.3,30.567-14.717,35.548-21.737.664-.936,1.3-1,1.879-.4-3.369,4.377-8.266,9.76-13.345,11.977-9.2,4.013-19.669,5.4-23.932,17.7s-2.87,26.488-2.732,30.475c.036,1.026-.868.394-2.233-1.378" transform="translate(-486.166 -16.711)" fill="#d7d225" fill-rule="evenodd"/>
      <path id="Trazado_690550" data-name="Trazado 690550" d="M878.387,235.069a65.444,65.444,0,0,1-22.056-17.395c-14.265-17.228-2.717-33.209-3.736-40.577s-4.528-10.654-2.491-11.674a2.294,2.294,0,0,1,.83-.139,25.425,25.425,0,0,1,5.233,17.126c-1.061,13.218-5.693,17.419,1.533,29.387s20.973,22.217,24.167,24.194c.637.394-.774.015-3.48-.923" transform="translate(-182.026 -6.006)" fill="#d7d225" fill-rule="evenodd"/>
      <path id="Trazado_690551" data-name="Trazado 690551" d="M1313.676,179.236c4.387-.756,6.8,36.126,1.734,49-5.434,13.812-26.265,19.246-32.6,24.906a19.811,19.811,0,0,0-2.634,3.036,2.4,2.4,0,0,1-1.262-2.213c.065-7.866,15.52-26.085,21.179-37.224,3.679-7.242,9.774-25.57,13.589-37.509" transform="translate(-512.378 -16.721)" fill="#3c8427" fill-rule="evenodd"/>
      <path id="Trazado_690552" data-name="Trazado 690552" d="M854.989,165.3c3.807-.543,27.73,3.919,43.878,20.843,16.87,17.681,7.133,46.584,9.057,49.644.4.643,1.29,2.255,2.458,4.473-4.175-.654-8.3-2.388-9.424-3.66-2.546-2.886-14.938-28.178-26.311-47.869-6.853-11.866-14.445-19.353-19.658-23.432" transform="translate(-186.519 -5.986)" fill="#3c8427" fill-rule="evenodd"/>
      <path id="Trazado_690553" data-name="Trazado 690553" d="M819.589,841.806c-5.235,1.714-14.734,5.148-23.659-.3-11.888-7.254-9.963-27.2-16.53-35.363a70.409,70.409,0,0,0-6.332-6.928c6.091-1.635,15.391-1.492,25.368,8.289,14.815,14.524,18.16,29.433,21.153,34.3" transform="translate(-123.548 -492.696)" fill="#3c8427" fill-rule="evenodd"/>
      <path id="Trazado_690554" data-name="Trazado 690554" d="M1218.124,251.171a2.861,2.861,0,0,1,.958,1.112c2.038,3.623-1.132,43.02-17.208,54.341s-26.944,4.3-34.643,9.736-20.831,16.982-23.1,23.322-6.113,49.24-5.32,60.914,2.943,18.362,2.377,21.309c-.5,2.6-18.333,5.916-33.257,4.3a35.047,35.047,0,0,0,10.361-14.619c6.453-17.661,1.554-34.495,11.547-46.19s9.143-19.512,16.072-32.267,17.213-23.432,33.175-26.489,24.466-10.858,31.586-29.548c5.153-13.528,6.884-22.176,7.446-25.923M1183.4,182.225c3.618,5.084,5.192,36.617.587,48.321-5.434,13.812-26.265,19.246-32.6,24.906-5.292,4.725-13.423,22.071-16.1,32.68h0s6.789-30.4,22.072-45,29.832-23.577,27.282-43.562A120.725,120.725,0,0,1,1183.4,182.225Z" transform="translate(-380.956 -19.028)" fill="#3c8427" fill-rule="evenodd"/>
      <path id="Trazado_690555" data-name="Trazado 690555" d="M908.59,164.446c-.1.011-.047.006.047,0a.3.3,0,0,0-.047,0M830.712,379.69c1.379,9.021.29,20.592-.223,25.019a82.879,82.879,0,0,0,23.219.242c6.633-.818,11.506-1.842,11.644-2.473h0c.2-1.134-.154-3.35-.672-6.546-.577-3.566-1.337-8.264-1.742-14.234-.4-5.866.34-19.316,1.464-32.194,1.163-13.319,2.759-26.136,3.963-29.508,1.091-3.056,4.318-7.056,8.275-11.051a127.237,127.237,0,0,1,15.54-13.213c3.619-2.554,7.57-2.7,12.242-2.877,6.017-.226,13.374-.5,22.4-6.859C932.5,282,936.5,274.079,939.2,265.578c4.468-14.111,5.391-29.344,4.254-31.366-.033-.059.559-.421.321-.287a14.772,14.772,0,0,0-2.554,2.683c-1.017,1.21-2.2,2.61-3.5,3.92-2.432,2.432-7.275,3.122-13.22,3.967-7.652,1.089-17.305,2.462-24.573,7.975-10.666,8.091-11.974,25.112-12.553,32.649-.093,1.212-.168,2.188-.274,2.964a7.546,7.546,0,0,1-.471,1.694c-1.291,3.3-5.418,9.167-9.882,14.073-4.7,5.162-9.972,9.359-13.327,8.9a4.057,4.057,0,0,1-.932-.238c-5.681-2.223-4.744-21.409-4.185-32.856.1-2.116.193-3.959.227-5.24.121-4.62,2.924-13.163,6.5-21.182,3.494-7.827,7.789-15.284,11.128-18.265,2.234-1.994,5.831-3.828,9.946-5.924,8.249-4.2,18.714-9.536,22.138-18.239,3.341-8.493,3.282-28.011,1.554-39.338a32.775,32.775,0,0,0-1.36-5.995.7.7,0,0,1-.035-.364c-2.441,2.831-6.586,4.268-11.539,5.984-7.331,2.54-16.617,5.757-23.486,15.09-9.346,12.7-4.883,33.7-3.174,41.744a14.119,14.119,0,0,1,.576,4.049c-.291,1.555-1.344,3.033-3.276,5.749-1.045,1.468-2.376,3.339-4.035,5.851-2.56,3.877-5.461,13.964-7.679,21.676-1.433,4.984-2.594,9.021-3.409,10.272-2.069,3.176-3.782,3.126-5.688-.213-.892-1.563-1.815-4.43-3.042-8.7A123.927,123.927,0,0,0,837.5,251.94c-4.408-9.352-9.574-19.268-10.724-21.1-.861-1.369-.553-4.148-.111-8.126,1.111-10.014,3.189-28.741-8.709-41.211a66.512,66.512,0,0,0-19.926-14.01c-11.337-5.312-20.985-6.868-22.053-6.334-.536.268.766.3,1.173,1.311a33.242,33.242,0,0,1,2.383,8.35c.341,2.466-.424,5.419-1.333,8.928-2.06,7.949-4.948,19.089,4.641,30.668,11.293,13.638,23.893,18.264,31.514,21.062,1.8.662,3.343,1.227,4.595,1.808,4.619,2.144,4.973,3.109,7.421,9.776,1.389,3.784,3.533,9.622,7.808,19.046,4.5,9.925,7.082,22.161,8.474,34.267a249.46,249.46,0,0,1,.75,45.446c-.632,7.707-1.212,12.991-2.142,16.447-1.15,4.275-2.9,6.15-5.81,6.321-2.067.121-6.309-2.572-10.725-6h-.007c-6.41-4.977-13.627-11.746-14.323-13.063-.886-1.674-.669-2.914-.269-5.2a46.285,46.285,0,0,0,.726-6.12,31.768,31.768,0,0,0-2.33-14.435c-2.474-5.6-7.454-11.274-17.3-14.684a63.556,63.556,0,0,0-20.023-3.579c-9.429-.112-15.328,1.723-15.752,2.36-.44.66.772-.346,1.588.425a73.421,73.421,0,0,1,7.362,7.925c2.91,3.616,4.229,9.011,5.627,14.733,1.907,7.8,3.976,16.268,10.4,20.186,7.838,4.783,16.446,1.945,21.465.291,2.369-.781,4.095-1.35,5.392-.936,1.755.559,9.573,8.457,15.59,17.077C826.741,369.109,830,375.032,830.712,379.69Zm-4.327,26.318c.006-.043,2.11-14.9.453-25.736-.612-4-3.6-9.361-7.161-14.461-5.6-8.021-12.285-15.182-13.569-15.592-.074-.024-1.3.381-2.987.936-5.649,1.862-15.338,5.055-24.727-.674-7.8-4.757-10.066-14.045-12.159-22.605-1.29-5.279-2.507-10.256-4.877-13.2a69.56,69.56,0,0,0-6.995-7.541c-2.52-2.384-3.545-3.353-2.17-5.417.722-1.084,8.2-4.235,19.06-4.106A67.445,67.445,0,0,1,792.5,301.4c11.1,3.844,16.763,10.353,19.611,16.8a35.54,35.54,0,0,1,2.652,16.2,49.513,49.513,0,0,1-.772,6.61c-.251,1.434-.387,2.214-.129,2.7.535,1.011,7.188,7.073,13.266,11.792l0,0c3.77,2.927,7.12,5.242,8.1,5.185.944-.056,1.624-1.072,2.257-3.427.854-3.174,1.406-8.262,2.019-15.742a245.379,245.379,0,0,0-.735-44.7c-1.351-11.752-3.836-23.589-8.153-33.1-4.337-9.559-6.508-15.473-7.916-19.306-1.961-5.341-2.245-6.114-5.384-7.571-1.09-.506-2.569-1.049-4.3-1.686-8-2.935-21.217-7.789-33.183-22.241-10.858-13.113-7.677-25.386-5.407-34.144.8-3.1,1.478-5.7,1.242-7.412a29.827,29.827,0,0,0-2.138-7.431c-1.264-3.137-1.979-4.911.711-6.257,1.505-.753,13.035.47,25.453,6.288a70.448,70.448,0,0,1,21.1,14.852c13.155,13.788,10.946,33.692,9.765,44.335a38.276,38.276,0,0,0-.47,5.615c1.2,1.91,6.492,12.046,10.953,21.509a127.075,127.075,0,0,1,6.373,15.266c.879,3.059,1.573,5.317,2.16,6.753.573-1.6,1.437-4.606,2.445-8.109,2.289-7.959,5.283-18.369,8.184-22.763,1.654-2.5,3.031-4.44,4.111-5.959,1.608-2.26,2.484-3.491,2.617-4.2.012-.065-.229-.954-.561-2.517-1.81-8.518-6.536-30.763,3.848-44.868,7.587-10.306,17.524-13.749,25.37-16.468,4.682-1.622,8.54-2.959,10.163-5.245a3.429,3.429,0,0,1,2.409-1.6c1.727-.193,3.029,1.12,3.933,3.555a36.21,36.21,0,0,1,1.574,6.776c1.8,11.781,1.794,32.249-1.784,41.344-3.973,10.1-15.175,15.807-24.006,20.307-3.9,1.986-7.3,3.722-9.119,5.342-2.916,2.6-6.861,9.549-10.164,16.949-3.4,7.618-6.059,15.583-6.167,19.682-.039,1.48-.127,3.273-.227,5.332-.508,10.4-1.359,27.829,1.7,29.027a.133.133,0,0,0,.029.008c1.888.257,5.963-3.32,9.912-7.66,4.182-4.6,8-9.961,9.132-12.864a3.862,3.862,0,0,0,.241-.791c.076-.559.151-1.53.244-2.734.62-8.073,2.022-26.3,14.1-35.467,8.093-6.14,18.294-7.591,26.38-8.741,5.227-.743,9.484-1.349,11-2.864,1.337-1.337,2.385-2.583,3.29-3.659a15.734,15.734,0,0,1,3.626-3.587c1.972-1.109,3.565-.777,5.008,1.788,1.4,2.485.826,19.434-3.932,34.459-2.917,9.21-7.375,17.874-13.858,22.44-9.965,7.018-17.968,7.318-24.514,7.563-4.034.151-7.446.279-10.129,2.173a122.957,122.957,0,0,0-15.02,12.769c-3.586,3.621-6.472,7.135-7.356,9.611-1.092,3.059-2.609,15.484-3.748,28.528-1.112,12.735-1.847,25.958-1.465,31.6.4,5.851,1.136,10.417,1.7,13.882.588,3.632.993,6.14.651,7.925l-.008.015,0,.015v.031c-.488,2.244-6.759,4.52-15,5.536-7.6.937-17.12,1.121-25.112-.414-.437-.084-.826-.163-1.162-.236l-1.774-.386Z" transform="translate(-107.031)" fill="#301c19"/>
      <path id="Trazado_690556" data-name="Trazado 690556" d="M1079.909,1216.651c.039.087,13.548,30.29,14.941,41.9.251,2.092.472,3.781.715,5.637,1.6,12.193,4.021,30.712,2.455,46.182-.464,4.584-.945,8.265-1.339,11.274-.964,7.378-1.356,10.374.358,13.034.3-1.257.639-3.379,1.021-5.794.661-4.18,1.443-9.125,2.985-13.077a41.239,41.239,0,0,0,3.019-11.606,76.61,76.61,0,0,0-.425-14c-.351-3.8-.844-6.855-1.278-9.55-.976-6.064-1.671-10.381-.042-17.546a96.259,96.259,0,0,0,2.048-13.014c.333-3.8.389-7.091.389-9.879,0-6.145,10.39-25.73,10.42-25.787l3.461,1.822c-.028.054-9.96,18.788-9.96,23.964,0,2.872-.058,6.264-.4,10.216a100.127,100.127,0,0,1-2.141,13.534c-1.463,6.436-.818,10.445.089,16.076.441,2.74.941,5.848,1.308,9.811a79.722,79.722,0,0,1,.424,14.7,44.827,44.827,0,0,1-3.264,12.678c-1.4,3.592-2.143,8.284-2.77,12.251-.707,4.471-1.285,8.126-2.857,9.4-1.441,1.167-2.916.985-4.5-.977-3.4-4.194-2.97-7.447-1.752-16.764.388-2.965.862-6.593,1.323-11.151,1.523-15.036-.866-33.281-2.439-45.294-.3-2.324-.582-4.442-.73-5.683-1.324-11.035-14.582-40.678-14.62-40.763Z" transform="translate(-356.668 -812.458)" fill="#301c19"/>
      <path id="Trazado_690557" data-name="Trazado 690557" d="M985.413,1343c-.016-.006-5.656-2.224-9.4,5.444a26.693,26.693,0,0,0-2.528,7.758c-.607,3.259-1.068,5.729-5.718,10.816-4.333,4.739-9.365,7.064-13.471,8.961-2.822,1.3-5.145,2.377-6.037,3.715-2.453,3.68-3.532,13.808-3.535,13.837l-3.89-.413c0-.032,1.183-11.127,4.163-15.6,1.5-2.246,4.28-3.532,7.66-5.094,3.795-1.753,8.445-3.9,12.231-8.042,3.891-4.256,4.263-6.252,4.754-8.886a30.207,30.207,0,0,1,2.849-8.769c5.316-10.9,14.256-7.4,14.282-7.389Z" transform="translate(-252.51 -908.065)" fill="#301c19"/>
      <path id="Trazado_690558" data-name="Trazado 690558" d="M1002.4,1479.146a18.1,18.1,0,0,1,.39,10.09,22.092,22.092,0,0,1-1.905,4.836c-.611,1.209-1.03,2.04-.647,3.075a35.743,35.743,0,0,0,3.612,6.47l-3.2,2.236a40.121,40.121,0,0,1-4.087-7.358c-.969-2.62-.236-4.071.831-6.184a18.58,18.58,0,0,0,1.6-4.04,13.83,13.83,0,0,0-.252-7.747Z" transform="translate(-294.992 -1015.945)" fill="#301c19"/>
      <path id="Trazado_690559" data-name="Trazado 690559" d="M1205.291,1389.162c.028.009,9.763,3.092,13.52,11.242a40.289,40.289,0,0,1,2.985,9.384,11.639,11.639,0,0,0,1.563,4.552c.614.83,2.487,1.245,4.35,1.658,3.126.693,6.234,1.381,7.255,4.447l-3.706,1.225c-.319-.957-2.349-1.407-4.391-1.859-2.578-.571-5.169-1.145-6.647-3.143-1.354-1.83-1.745-3.676-2.252-6.069a36.889,36.889,0,0,0-2.71-8.557c-3.035-6.584-11.138-9.152-11.162-9.16Z" transform="translate(-454.872 -946.776)" fill="#301c19"/>
      <path id="Trazado_690560" data-name="Trazado 690560" d="M1249.347,1471.907c-.011.01-3.956,3.42-4.33,7.068a15.382,15.382,0,0,0,.469,4.8,25.341,25.341,0,0,0,1.981,5.668l-3.354,2.006a29.735,29.735,0,0,1-2.44-6.786,19.147,19.147,0,0,1-.545-6.09c.532-5.193,5.632-9.6,5.647-9.61Z" transform="translate(-483.287 -1008.121)" fill="#301c19"/>
      <path id="Trazado_690561" data-name="Trazado 690561" d="M1181.8,1670.886c.019.015,6.777,5.157,9.021,10.65a25.831,25.831,0,0,1,1.625,8.95,25.771,25.771,0,0,0,.61,5.116,11.919,11.919,0,0,0,3.494,5.323,16.519,16.519,0,0,1,2.141,2.5l-3.277,2.129a14.051,14.051,0,0,0-1.666-1.9,15.133,15.133,0,0,1-4.474-7.054,28.755,28.755,0,0,1-.733-5.912,22.763,22.763,0,0,0-1.334-7.678c-1.831-4.482-7.764-9-7.781-9.011Z" transform="translate(-435.905 -1163.332)" fill="#301c19"/>
      <path id="Trazado_690562" data-name="Trazado 690562" d="M1191.669,1758.9c-.007,0-2.518.031-4.108,4.542l-.217.617c-1.917,5.437-2.684,7.614-3.211,8.538l-3.4-1.929c.345-.6,1.082-2.694,2.92-7.91l.218-.617c2.485-7.05,7.646-7.145,7.661-7.146Z" transform="translate(-436.912 -1227.985)" fill="#301c19"/>
      <path id="Trazado_690563" data-name="Trazado 690563" d="M1451.489,1337.918c-1.019.227-7.246-.227-6.906,5.894s15.171,12.241,15.284,24.369-24.682,23.688-28.531,39.217,4.982,30.829,24.568,31.056,31.248-15.188,26.493-21.535-8.944.114-18.228,4.534-18.228,2.153-20.379-4.874,2.378-13.941,12.341-23.008,16.643-15.755,16.756-26.409-11.548-27.542-21.4-29.242" transform="translate(-628.867 -907.386)" fill="#dd3236" fill-rule="evenodd"/>
      <path id="Trazado_690564" data-name="Trazado 690564" d="M1528.045,1416.056c-4.475-4.839-8.7,1.2-17.514,5.4-8.569,4.08-16.849,2.463-19.765-3.337.167,4.118,1.809,7.467,6.1,8.656,11.688,3.237,25.687-5.106,31.174-10.714m-30.194-78.138a22.071,22.071,0,0,0-3.077.438c6.2,3.013,13.517,9.065,16.263,21.166,5.12,22.563-10.58,33.177-12.3,34.878a35.161,35.161,0,0,0-3.721,6.818,76.5,76.5,0,0,1,7.473-7.65c9.963-9.068,16.643-15.755,16.756-26.409S1507.7,1339.618,1497.851,1337.918Z" transform="translate(-675.229 -907.386)" fill="#ae1d22" fill-rule="evenodd"/>
      <path id="Trazado_690565" data-name="Trazado 690565" d="M1444.189,1329.625c.24-.019.353-.018.39-.026l.75-.023c5.352.924,11.054,5.707,15.421,11.674,4.5,6.143,7.663,13.651,7.6,19.513a25.262,25.262,0,0,1-5.044,14.91c-3.057,4.317-7.29,8.328-12.347,12.931-4.832,4.4-8.327,8.239-10.323,11.779h-.008c-1.836,3.257-2.367,6.25-1.459,9.215a7.922,7.922,0,0,0,.425,1.078,8.011,8.011,0,0,0,5.153,4.175,15.643,15.643,0,0,0,8.928-.338,23.142,23.142,0,0,0,3.163-1.244,59.473,59.473,0,0,0,6.661-3.837c5.8-3.711,9.494-6.076,13.971-.1a7.494,7.494,0,0,1,1.45,4.674,13.6,13.6,0,0,1-2.333,6.972,25,25,0,0,1-6.131,6.452,35.925,35.925,0,0,1-29.007,5.59,25.152,25.152,0,0,1-14.579-9.47,26.056,26.056,0,0,1-4.857-15.818,31.489,31.489,0,0,1,.935-7.215c2.048-8.26,9.327-15.191,16.148-21.686,6.407-6.1,12.378-11.786,12.329-17.049-.059-6.34-4.937-11.1-8.988-15.046-3.29-3.208-6.115-5.962-6.3-9.23-.4-7.212,5.586-7.687,8.047-7.882m.762,3.864c-.143.016-.291.028-.456.041-1.351.107-4.637.368-4.448,3.762.1,1.747,2.416,4.009,5.117,6.642,4.58,4.465,10.093,9.841,10.167,17.818.065,6.959-6.5,13.207-13.539,19.912-6.421,6.114-13.273,12.638-15.046,19.787a27.566,27.566,0,0,0-.828,6.312,22.189,22.189,0,0,0,4.106,13.475,21.3,21.3,0,0,0,12.358,7.985,31.968,31.968,0,0,0,25.73-4.916,21.061,21.061,0,0,0,5.167-5.426,9.762,9.762,0,0,0,1.735-4.9,3.692,3.692,0,0,0-.669-2.3c-2.3-3.075-4.813-1.469-8.749,1.049a63.591,63.591,0,0,1-7.075,4.082,27.072,27.072,0,0,1-3.714,1.443,19.5,19.5,0,0,1-11.164.353,11.518,11.518,0,0,1-8.212-7.872c-1.243-4.06-.586-8.038,1.794-12.26l-.006,0c2.221-3.94,5.973-8.089,11.1-12.759,4.906-4.464,8.995-8.331,11.8-12.288a21.527,21.527,0,0,0,4.325-12.689c.053-5.016-2.8-11.637-6.85-17.17C1453.853,1338.448,1449.17,1334.357,1444.951,1333.489Z" transform="translate(-622.378 -900.974)" fill="#301c19"/>
      <path id="Trazado_690566" data-name="Trazado 690566" d="M709.277,1534.339s12.453-17.661,23.774-6.113,5.208,21.057,12,30.794,19.7-4.755,28.529-2.264-.227,25.586-21.963,21.057-21.963-21.284-22.869-33.51-13.132,6.113-19.472,4.528-3.849-10.189,0-14.491" transform="translate(-71.534 -1050.661)" fill="#dd3236" fill-rule="evenodd"/>
      <path id="Trazado_690567" data-name="Trazado 690567" d="M731.787,1583.024c-3.783-1.678-12.649,9.857-17.732,8.586a5.187,5.187,0,0,1-2.438-1.3c4.857-4.135,13.679-11.133,17.462-10.278,1.223.277,2.07,1.369,2.709,2.99m46.167,16.41c.136.03.271.063.4.1,8.83,2.491-.227,25.586-21.963,21.057-16.774-3.495-20.738-14.271-22.09-24.628a33.359,33.359,0,0,0,3.008,10.069c4.671,8.514,28.531,17.355,37.362.948A41.28,41.28,0,0,0,777.955,1599.434Z" transform="translate(-76.312 -1093.441)" fill="#ae1d22" fill-rule="evenodd"/>
      <path id="Trazado_690568" data-name="Trazado 690568" d="M725.165,1522.785c-9.678-9.871-20.764,5.839-20.8,5.884l-.13.161a14.439,14.439,0,0,0-3.089,5.849,7.642,7.642,0,0,0-.226,2.966,2.9,2.9,0,0,0,.872,1.764,3.384,3.384,0,0,0,1.463.712c1.708.427,4.946-2.025,8-4.336,2.9-2.2,5.661-4.287,8.08-4.466,2.7-.2,4.526,1.357,4.872,6.035q.058.784.114,1.591c.8,11.4,1.843,26.11,21.2,30.143,9.288,1.935,16.006-1.589,19.706-6.128a15.727,15.727,0,0,0,2.58-4.448,9.428,9.428,0,0,0,.653-3.905,2.829,2.829,0,0,0-1.9-2.778c-2.983-.841-7.015.9-11.024,2.624-6.866,2.959-13.68,5.9-18.578-1.125-3.187-4.568-3.758-8.93-4.347-13.437-.7-5.372-1.436-10.973-7.446-17.1m-23.912,3.528c.93-1.283,14.18-19.039,26.7-6.269,6.928,7.066,7.748,13.331,8.534,19.339.527,4.029,1.037,7.929,3.673,11.707,3.069,4.4,8.429,2.09,13.83-.238,4.641-2,9.307-4.01,13.627-2.792,2.962.835,4.513,3.2,4.752,6.254a13.289,13.289,0,0,1-.883,5.544,19.675,19.675,0,0,1-3.223,5.566c-4.482,5.5-12.531,9.783-23.535,7.491-22.258-4.637-23.413-21.006-24.309-33.7q-.057-.806-.114-1.591c-.133-1.8-.378-2.429-.692-2.406-1.253.093-3.567,1.846-6,3.685-3.775,2.859-7.78,5.891-11.306,5.01a7.213,7.213,0,0,1-3.117-1.6,6.714,6.714,0,0,1-2.128-4.076,11.47,11.47,0,0,1,.288-4.513A18.558,18.558,0,0,1,701.253,1526.312Z" transform="translate(-65.041 -1043.849)" fill="#301c19"/>
      <path id="Trazado_690569" data-name="Trazado 690569" d="M727.768,1547.951c.022.026,7.86,8.946,8.125,13.647l-3.9.214c-.188-3.346-7.14-11.266-7.16-11.289Z" transform="translate(-86.467 -1068.834)" fill="#301c19"/>
      <path id="Trazado_690570" data-name="Trazado 690570" d="M801.255,1532.275c0,.032.768,11.061-4.083,15.385l-2.6-2.925c3.414-3.043,2.784-12.174,2.782-12.2Z" transform="translate(-140.075 -1056.784)" fill="#301c19"/>
      <path id="Trazado_690571" data-name="Trazado 690571" d="M807.4,1607.883c.023,0,8.138.232,9.859-3.2l3.492,1.746c-2.843,5.668-13.412,5.359-13.442,5.359Z" transform="translate(-149.869 -1112.444)" fill="#301c19"/>
      <path id="Trazado_690572" data-name="Trazado 690572" d="M822.544,1671.98c.021,0,7.467-.153,10.289-3.685l3.047,2.435c-3.97,4.968-13.233,5.155-13.26,5.156Z" transform="translate(-161.58 -1161.34)" fill="#301c19"/>
      <path id="Trazado_690573" data-name="Trazado 690573" d="M909.208,1685.682c.012.039,4.07,13.41-.145,17.891l-2.849-2.68c2.655-2.823-.749-14.061-.758-14.094Z" transform="translate(-225.312 -1174.705)" fill="#301c19"/>
      <path id="Trazado_690574" data-name="Trazado 690574" d="M1537,1393.512c.025-.007,8.761-2.411,9.124-6.208l3.89.367c-.621,6.5-11.94,9.6-11.972,9.608Z" transform="translate(-710.771 -945.348)" fill="#301c19"/>
      <path id="Trazado_690575" data-name="Trazado 690575" d="M1555.531,1461.228c.019.01,6.74,3.569,11.793.515l2.021,3.354c-6.948,4.2-15.581-.379-15.606-.392Z" transform="translate(-723.635 -1002.172)" fill="#301c19"/>
      <path id="Trazado_690576" data-name="Trazado 690576" d="M1526.581,1516.379c.007.016,2.381,5.508,8.2,5.1l.26,3.905c-8.57.6-12.03-7.406-12.04-7.429Z" transform="translate(-700.005 -1044.565)" fill="#301c19"/>
      <path id="Trazado_690577" data-name="Trazado 690577" d="M1470.192,1571.732c.009.017,3.051,5.961,7.244,6.5l-.49,3.874c-6.266-.8-10.218-8.542-10.23-8.564Z" transform="translate(-656.742 -1087.114)" fill="#301c19"/>
      <path id="Trazado_690578" data-name="Trazado 690578" d="M1428.423,1650.07c.013.009,4.465,3.237,10.8.535l1.531,3.6a15.416,15.416,0,0,1-14.587-.933Z" transform="translate(-625.576 -1147.331)" fill="#301c19"/>
      <path id="Trazado_690579" data-name="Trazado 690579" d="M1490.039,1702.391c0,.031-.74,10.686-6.913,14.854l-2.19-3.247c4.585-3.1,5.2-11.858,5.2-11.883Z" transform="translate(-667.673 -1187.338)" fill="#301c19"/>
      <path id="Trazado_690580" data-name="Trazado 690580" d="M1569.746,1694.871c.026.03,9.283,10.507,5.835,16.522l-3.4-1.945c2.049-3.575-5.355-11.981-5.376-12Z" transform="translate(-733.679 -1181.768)" fill="#301c19"/>
      <path id="Trazado_690581" data-name="Trazado 690581" d="M725.974,1220.186a5.774,5.774,0,1,1-5.774,5.774,5.774,5.774,0,0,1,5.774-5.774" transform="translate(-82.91 -816.888)" fill="#783421" fill-rule="evenodd"/>
      <path id="Trazado_690582" data-name="Trazado 690582" d="M722.157,1216.75a3.813,3.813,0,1,0,1.117,2.7,3.8,3.8,0,0,0-1.117-2.7m-2.7-5.037a7.735,7.735,0,1,1-5.469,2.266A7.712,7.712,0,0,1,719.46,1211.712Z" transform="translate(-76.396 -810.374)" fill="#301c19"/>
      <path id="Trazado_690583" data-name="Trazado 690583" d="M829.964,1213.334a8.944,8.944,0,1,1-8.943,8.944,8.945,8.945,0,0,1,8.943-8.944" transform="translate(-160.408 -811.621)" fill="#5c271d" fill-rule="evenodd"/>
      <path id="Trazado_690584" data-name="Trazado 690584" d="M828.388,1210.826a6.983,6.983,0,1,0,2.046,4.938,6.961,6.961,0,0,0-2.046-4.938m-4.938-5.966a10.906,10.906,0,1,1-7.71,3.194A10.87,10.87,0,0,1,823.45,1204.86Z" transform="translate(-153.894 -805.107)" fill="#301c19"/>
      <path id="Trazado_690585" data-name="Trazado 690585" d="M851.151,1363.095a5.661,5.661,0,1,1-5.661,5.661,5.661,5.661,0,0,1,5.661-5.661" transform="translate(-179.218 -926.739)" fill="#5c271d" fill-rule="evenodd"/>
      <path id="Trazado_690586" data-name="Trazado 690586" d="M847.254,1359.625a3.7,3.7,0,1,0,1.084,2.616,3.688,3.688,0,0,0-1.084-2.616m-2.616-5a7.622,7.622,0,1,1-5.388,2.233A7.6,7.6,0,0,1,844.638,1354.621Z" transform="translate(-172.705 -920.225)" fill="#301c19"/>
      <path id="Trazado_690587" data-name="Trazado 690587" d="M981.708,1351.349a4.076,4.076,0,1,1-4.076,4.076,4.076,4.076,0,0,1,4.076-4.076" transform="translate(-280.793 -917.71)" fill="#b45428" fill-rule="evenodd"/>
      <path id="Trazado_690588" data-name="Trazado 690588" d="M976.691,1347.415a2.116,2.116,0,1,0,.619,1.5,2.11,2.11,0,0,0-.619-1.5m-1.5-4.54a6.037,6.037,0,1,1-4.268,1.768A6.018,6.018,0,0,1,975.195,1342.875Z" transform="translate(-274.28 -911.196)" fill="#301c19"/>
      <path id="Trazado_690589" data-name="Trazado 690589" d="M1378.926,1301.429a4.868,4.868,0,1,1-4.868,4.868,4.869,4.869,0,0,1,4.868-4.868" transform="translate(-585.517 -879.338)" fill="#783421" fill-rule="evenodd"/>
      <path id="Trazado_690590" data-name="Trazado 690590" d="M1374.468,1297.727a2.908,2.908,0,1,0,.852,2.056,2.9,2.9,0,0,0-.852-2.056m-2.056-4.772a6.829,6.829,0,1,1-4.828,2A6.808,6.808,0,0,1,1372.412,1292.955Z" transform="translate(-579.004 -872.824)" fill="#301c19"/>
      <path id="Trazado_690591" data-name="Trazado 690591" d="M1540.753,1193.758a13.019,13.019,0,1,1-13.019,13.019,13.021,13.021,0,0,1,13.019-13.019" transform="translate(-703.645 -796.573)" fill="#783421" fill-rule="evenodd"/>
      <path id="Trazado_690592" data-name="Trazado 690592" d="M1542.059,1192.444a11.057,11.057,0,1,0,3.24,7.82,11.024,11.024,0,0,0-3.24-7.82m-7.82-7.16a14.982,14.982,0,1,1-10.591,4.388A14.933,14.933,0,0,1,1534.24,1185.284Z" transform="translate(-697.131 -790.059)" fill="#301c19"/>
      <path id="Trazado_690593" data-name="Trazado 690593" d="M1698.4,1311.217a6.227,6.227,0,1,1-6.227,6.227,6.227,6.227,0,0,1,6.227-6.227" transform="translate(-830.049 -886.862)" fill="#783421" fill-rule="evenodd"/>
      <path id="Trazado_690594" data-name="Trazado 690594" d="M1694.907,1307.914a4.266,4.266,0,1,0,1.25,3.017,4.253,4.253,0,0,0-1.25-3.017m-3.017-5.17a8.188,8.188,0,1,1-5.788,2.4A8.161,8.161,0,0,1,1691.891,1302.744Z" transform="translate(-823.536 -880.348)" fill="#301c19"/>
      <path id="Trazado_690595" data-name="Trazado 690595" d="M1723.854,1497.2a6.227,6.227,0,1,1-6.227,6.226,6.227,6.227,0,0,1,6.227-6.226" transform="translate(-849.612 -1029.819)" fill="#b45428" fill-rule="evenodd"/>
      <path id="Trazado_690596" data-name="Trazado 690596" d="M1720.357,1493.891a4.266,4.266,0,1,0,1.25,3.017,4.253,4.253,0,0,0-1.25-3.017m-3.017-5.17a8.188,8.188,0,1,1-5.789,2.4A8.162,8.162,0,0,1,1717.34,1488.721Z" transform="translate(-843.098 -1023.305)" fill="#301c19"/>
      <path id="Trazado_690597" data-name="Trazado 690597" d="M1288.235,1680.236a5.208,5.208,0,1,1-5.208,5.208,5.208,5.208,0,0,1,5.208-5.208" transform="translate(-515.544 -1170.519)" fill="#b45428" fill-rule="evenodd"/>
      <path id="Trazado_690598" data-name="Trazado 690598" d="M1284.017,1676.633a3.248,3.248,0,1,0,.951,2.3,3.238,3.238,0,0,0-.951-2.3m-2.3-4.871a7.169,7.169,0,1,1-5.068,2.1A7.147,7.147,0,0,1,1281.721,1671.762Z" transform="translate(-509.03 -1164.005)" fill="#301c19"/>
      <path id="Trazado_690599" data-name="Trazado 690599" d="M1058.364,1832.933a6.34,6.34,0,1,1-6.34,6.34,6.341,6.341,0,0,1,6.34-6.34" transform="translate(-337.976 -1287.894)" fill="#b45428" fill-rule="evenodd"/>
      <path id="Trazado_690600" data-name="Trazado 690600" d="M1054.947,1829.662a4.379,4.379,0,1,0,1.283,3.1,4.365,4.365,0,0,0-1.283-3.1m-3.1-5.2a8.3,8.3,0,1,1-5.869,2.431A8.275,8.275,0,0,1,1051.85,1824.459Z" transform="translate(-331.463 -1281.38)" fill="#301c19"/>
      <path id="Trazado_690601" data-name="Trazado 690601" d="M1345.233,1868.171a5.434,5.434,0,1,1-5.434,5.434,5.435,5.435,0,0,1,5.434-5.434" transform="translate(-559.183 -1314.981)" fill="#783421" fill-rule="evenodd"/>
      <path id="Trazado_690602" data-name="Trazado 690602" d="M1341.176,1864.635a3.474,3.474,0,1,0,1.018,2.457,3.464,3.464,0,0,0-1.018-2.457m-2.456-4.938a7.4,7.4,0,1,1-5.228,2.166A7.371,7.371,0,0,1,1338.719,1859.7Z" transform="translate(-552.669 -1308.467)" fill="#301c19"/>
      <path id="Trazado_690603" data-name="Trazado 690603" d="M1521.342,1870.128a3.4,3.4,0,1,1-3.4,3.4,3.4,3.4,0,0,1,3.4-3.4" transform="translate(-696.121 -1316.485)" fill="#783421" fill-rule="evenodd"/>
      <path id="Trazado_690604" data-name="Trazado 690604" d="M1515.844,1866a1.437,1.437,0,1,0,.421,1.016,1.432,1.432,0,0,0-.421-1.016m-1.016-4.341a5.357,5.357,0,1,1-3.787,1.569A5.339,5.339,0,0,1,1514.828,1861.655Z" transform="translate(-689.607 -1309.972)" fill="#301c19"/>
      <path id="Trazado_690605" data-name="Trazado 690605" d="M766.384,778.579c14.394,4.2,33.065,11.383,38.607,26.639,2.391,6.584.239,13.009-3.479,1.8-4.77-14.373-23.131-20.872-36.215-24.688Z" transform="translate(-117.575 -477.433)" fill="#301c19"/>
      <path id="Trazado_690606" data-name="Trazado 690606" d="M853.59,165.087c.047.034,16.481,11.82,25.753,31.292,9.216,19.355,18.552,36.032,18.553,36.047.928,4.3-.87,3.447-3.905.26,0-.013-9.288-15.939-18.185-34.623-8.841-18.567-24.467-29.774-24.512-29.806Z" transform="translate(-183.678 -5.854)" fill="#301c19"/>
      <path id="Trazado_690607" data-name="Trazado 690607" d="M1319.7,181.276c-.026.083-16.8,50.054-31.259,62.644-6.823,6.524.6-6.223,1.84-7.887,12.517-16.771,25.66-55.85,25.682-55.921Z" transform="translate(-517.515 -17.403)" fill="#301c19"/>
      <path id="Trazado_690608" data-name="Trazado 690608" d="M1411.814,481.311c-.025.058-8.424,20.227-24.741,31.649-14.789,10.352-22.233,21.672-22.231,21.683-6.011,4.352-4.413,2.1-3.844.75,0-.017,6.929-13.8,23.839-25.633,15.382-10.768,23.355-29.909,23.378-29.964Z" transform="translate(-574.998 -247.764)" fill="#301c19"/>
    </g>
  </g>
</svg>
