<svg xmlns="http://www.w3.org/2000/svg" xmlns:xlink="http://www.w3.org/1999/xlink" width="505" height="421.226" viewBox="0 0 505 421.226">
  <defs>
    <linearGradient id="linear-gradient" x1="0.5" y1="0.964" x2="0.5" y2="-0.19" gradientUnits="objectBoundingBox">
      <stop offset="0" stop-color="#fff"/>
      <stop offset="0.355" stop-color="#eff4fb"/>
      <stop offset="1" stop-color="#d3e0f3"/>
    </linearGradient>
    <linearGradient id="linear-gradient-2" y1="-4476.311" x2="1" y2="-4476.311" gradientUnits="objectBoundingBox">
      <stop offset="0" stop-color="#222227"/>
      <stop offset="1" stop-color="#453f51"/>
    </linearGradient>
  </defs>
  <g id="Grupo_927271" data-name="Grupo 927271" transform="translate(-285 -4982.525)">
    <g id="deforestacion-01" transform="translate(263 5069.281)">
      <g id="OBJECTS" transform="translate(22 23.718)">
        <path id="Trazado_254296" data-name="Trazado 254296" d="M78.928,329.469c.286-20.192-34.143-53.755-40.6-111.807-5.383-48.134,27.711-90.519,59.441-106.1,29.609-14.523,44.259-9.25,64.046-21.216,27.688-16.754,31.054-55.336,71.78-68.81,19.358-6.408,39.9-1.175,58.154,8.456s35.382,22.558,54.605,29.069c19.35,6.567,39.852,4.955,59.933,3.081,67.754-6.352,111.37,52.406,108.853,100.524-1.493,28.585-10.751,47.991-23.765,65.031-7.321,9.576-18.151,20.1-14.578,32.285,1.588,5.558,5.931,9.242,9.528,13.348,12.006,13.84,16.293,37.319,11,56.138Z" transform="translate(-25.244 -18.718)" fill="url(#linear-gradient)"/>
        <path id="Trazado_254396" data-name="Trazado 254396" d="M525.523,409.312H23.477A1.485,1.485,0,0,1,22,407.827h0a1.477,1.477,0,0,1,1.477-1.477H525.523A1.477,1.477,0,0,1,527,407.827h0a1.485,1.485,0,0,1-1.477,1.485Z" transform="translate(-22 -98.561)" fill="url(#linear-gradient-2)"/>
      </g>
    </g>
    <g id="Grupo_927223" data-name="Grupo 927223" transform="translate(-1146.344 4041.287)">
      <g id="Grupo_927225" data-name="Grupo 927225" transform="translate(1621.739 1191.28)">
        <path id="Trazado_750574" data-name="Trazado 750574" d="M1897.028,1532.652a14.394,14.394,0,0,0-8.935-13.18l-.377.918q-.34-.14-.683-.259a13.343,13.343,0,0,0-3.387-.711l-.076.989c-.241-.018-.483-.029-.726-.034q-.174,0-.348,0a12.442,12.442,0,0,0-12.178,10.69q-.056.393-.086.791l-.989-.075A13.418,13.418,0,0,0,1885.01,1546q.391-.071.776-.165l-3.139-12.926c.284,1.166,2.778,11.439,3.374,13.891a14.48,14.48,0,0,0,6.746-3.771,14.45,14.45,0,0,0,4.26-10.373Zm-14.4.165.017.069Z" transform="translate(-1869.205 -1519.112)" fill="#1a1718" opacity="0.18"/>
        <g id="Grupo_927224" data-name="Grupo 927224" transform="translate(0.339 0)">
          <g id="Grupo_927223-2" data-name="Grupo 927223">
            <path id="Trazado_750575" data-name="Trazado 750575" d="M1886.334,1519.029l-.018,0h0l-.009,0h-.005c-.085-.019-.169-.037-.254-.054l-.025.121c.1.02.193.04.289.062l.027-.121Zm-.583-.118c-.1-.018-.2-.033-.294-.049l-.019.123q.146.023.291.048l.022-.122Zm-.589-.091-.036,0-.259-.031-.014.124c.1.01.2.022.293.035l.016-.123Zm-.592-.065h-.037l-.26-.019-.008.124c.1.006.2.014.294.022l.011-.123Zm-.594-.039c-.1,0-.2-.007-.294-.009h0l0,.124c.1,0,.2.005.295.01l.005-.124Zm-.6-.012c-.1,0-.2,0-.3,0l0,.124c.1,0,.2,0,.3,0v-.124Zm-.6.015q-.148.007-.3.018l.009.124c.1-.007.2-.012.295-.017l-.006-.124Zm-.594.041-.036,0h-.016l-.189.019h-.031l-.024,0,.014.123c.1-.011.2-.021.294-.031l-.011-.124Zm-.592.068-.259.038h-.017l-.018,0,.02.123c.1-.016.194-.03.292-.043l-.017-.123Zm-.588.094-.027,0h-.006l-.253.049h-.006l.025.121q.144-.029.289-.056l-.022-.122Zm-.583.119-.054.012h-.016l-.22.053.03.12c.1-.024.191-.047.287-.069l-.028-.121Zm-.578.146-.164.046h0l0,0h-.038l-.08.024.035.119q.142-.043.284-.082l-.033-.119Zm-.57.171-.044.014h0l0,0h-.037l-.006,0h0l-.016.005h0l0,0h-.1l-.07.024.041.117c.093-.032.186-.063.28-.094l-.038-.118Zm-.562.2-.09.034h-.016l-.06.023h0l0,0h-.018l-.09.036.046.115c.091-.036.183-.072.275-.106l-.043-.116Zm-.553.22h-.009l-.094.041h0l-.008,0h0l0,0h0l0,0h0l0,0h0l0,0h-.005l0,0H1878l-.02.008h0l0,0h0l0,0h0l0,0h0l0,0h0l0,0h0l0,0h0l0,0h-.008l0,0h-.009l0,0h-.032l.051.113c.089-.04.18-.08.27-.119l-.049-.114Zm-.542.245c-.09.043-.178.087-.267.132l.056.111c.088-.044.176-.088.265-.13l-.053-.112Zm-.532.269,0,0h0l0,0h-.037l0,0H1877l0,0h0l0,0h0l-.162.089.06.108c.086-.048.172-.1.259-.141l-.058-.109Zm-.519.291c-.086.051-.171.1-.255.155l.066.105q.125-.078.252-.153l-.063-.107Zm-.506.314-.038.025h0l0,0h0l0,0h0c-.061.039-.12.08-.18.12h0l0,0h-.007l-.007.005.07.1q.122-.083.245-.164l-.068-.1Zm-.491.336q-.12.087-.24.176l.075.1q.118-.089.237-.174l-.073-.1Zm-.476.358-.064.051h0l0,0h0l0,0h0l0,0h0l0,0h-.005v0h0l0,0h0l0,0h0l0,0h0l0,0h0l0,0h0l0,0h0l0,0h0l0,0h0l-.043.034h0l0,0h0l0,0h0l0,0h0l0,0h0l-.055.045.079.1q.114-.094.23-.185l-.077-.1Zm-.46.379-.028.024h0l0,0,0,0h0l0,0h0l-.136.12h0l0,0h0l0,0h0l0,0h0l-.038.034.083.092q.11-.1.221-.194l-.081-.094Zm-.442.4q-.109.1-.215.206l.087.088q.106-.1.213-.2l-.085-.09Zm-.424.418-.035.036h0l0,0h0l0,0h0l0,0h0l0,0h0l0,0h0l0,0h0q-.076.079-.15.159l.091.084c.067-.072.135-.144.2-.214l-.089-.086Zm-.4.436-.089.1h0l0,0h0v0l0,0h0l0,0h0l0,0h0l0,0h0l0,0h0l0,0h0l0,0h0l0,0h0l0,0h0l0,0h0l0,0h0l0,0v0l0,0v0l0,0h0l0,0h0l0,0h0l0,0h0l0,0h0l-.045.053.094.08c.064-.075.128-.15.193-.223l-.093-.082Zm-.385.454q-.094.115-.185.233l.1.076q.09-.116.183-.231l-.1-.078Zm-.364.471-.073.1h0l0,0h0l0,0h0l0,0h0l0,0h0l0,0h0l0,0h0l0,0h0v0l0,0v0l0,0h0l0,0h0l0,0h0l0,0h0l0,0h0l-.064.091.1.071c.057-.08.114-.16.173-.239l-.1-.074Zm-.343.487-.1.144h0l0,0h0l0,0h0l0,0h0v.006l0,0v0l0,0h0l0,0h0l0,0h0l0,0h0l0,0h0l-.04.063.1.067q.079-.125.162-.247l-.1-.069Zm-.321.5-.068.113h0l0,0h0l0,0h0l0,0h0l0,0h0l0,0h0l0,0h0v.021h0l0,0v.005l0,0h0v0l0,0h0v.009h0l0,0h0l-.036.061.108.062c.049-.085.1-.17.151-.254l-.106-.064Zm-.3.515-.011.021h0l0,0v.011h0l0,0h0l0,0h0l0,0h0l-.06.112v0h0l0,0h0l-.05.094.11.057q.068-.131.139-.26l-.109-.059Zm-.275.528h0v0h0l0,0h0v0h0l0,0v0h0v.009h0v0h0v0h0l0,0h0v0h0l0,0h0l0,0h0l0,0h0l0,0h0l-.029.06h0l0,0h0l0,0h0l0,0h0l0,0h0v0h0v0h0v0h0v.016l0,0v.01l0,0v0h0l0,0h0v0h0l0,0h0l-.029.063.112.052c.042-.09.084-.178.128-.266l-.111-.055Zm-.252.54h0v0h0q-.058.133-.115.269l.115.047c.037-.091.076-.181.115-.272l-.113-.05Zm-.228.551-.024.064v.013l0,0h0c-.025.066-.05.132-.073.2l.117.042c.033-.092.068-.184.1-.276l-.116-.045Zm-.2.559c-.011.034-.023.068-.034.1h0l0,0h0l0,0h0l0,0h0l0,.01h0v0h0v0h0v0h0v0h0l0,0h0l0,.01h0v0h0v0h0v0h0c-.011.034-.022.069-.033.1l.118.037q.044-.14.092-.281l-.118-.039Zm-.178.568c-.009.031-.018.063-.027.094h0v0h0v.016h0c-.013.046-.026.091-.038.138h0v0h0v0h0v0h0v0l0,.015.12.032c.026-.095.052-.189.079-.284l-.119-.035Zm-.154.576c-.011.046-.022.091-.033.138h0v0h0v.012l0,.016h0v0h0c-.006.027-.012.054-.018.081h0v0h0v0h0v.008l0,.005h0l0,.008.121.026q.031-.143.066-.287l-.121-.029Zm-.006.605-.122-.024-.007.038h0v.017c-.012.062-.023.124-.034.186h0v.01h0v0h0l-.006.034.122.021c.017-.1.035-.193.054-.29Zm-.1.581-.123-.019-.01.068h0l0,.016h0v.012h0v0h0v0h0c-.009.063-.017.126-.025.189l.123.016c.012-.1.026-.195.04-.292Zm-.074.585-.124-.013-.005.052v.005h0v.02h0c-.008.073-.014.145-.02.218l.124.01q.012-.146.027-.293Zm-.049.588-.124-.008,0,.042h0v0h0v0h0v0h0v0h0v0h0v.03h0v0h0v0h0c0,.058-.005.116-.007.174h0v.016h0l.124,0c0-.1.009-.2.014-.294Zm-.022.589-.124,0v.14h0v0h0c0,.051,0,.1,0,.152h.124c0-.1,0-.2,0-.3Zm0,.59-.124,0c0,.042,0,.083,0,.125h0v.021h0v0h0c0,.049,0,.1.007.146l.124-.007q-.008-.147-.012-.295Zm.031.589-.124.009c.005.065.01.131.016.2h0v0h0v.025h0l0,.022h0v0h0v0h0l0,.037.124-.012c-.01-.1-.018-.2-.025-.294Zm.057.587-.123.015.007.06h0v0h0v0h0v0h0v0h0v0h0l0,.017h0v.022h0v.008h0v0h0v0h0v.007h0v0h0v0h0v.013h0v.022l0,.019h0c0,.026.007.051.011.077l.123-.018c-.014-.1-.027-.195-.038-.292Zm.083.584-.122.02c.005.033.011.065.016.1h0v0h0v0h0c.011.062.022.123.033.185l.122-.023q-.027-.145-.051-.291Zm.109.58-.122.025,0,.022h0v.015h0v0h0v0h0c.011.05.021.1.033.147h0v.03h0v0h0l.014.059.12-.028c-.022-.1-.043-.192-.064-.288Zm.134.574-.12.031q.037.144.077.287l.119-.033q-.04-.142-.076-.285Zm.16.568-.119.036c.024.079.049.158.075.236h0v.015h0l.01.031.118-.039c-.031-.094-.061-.187-.089-.281Zm.184.56-.117.041c.011.032.022.063.034.1h0v0h0v0h0v0h0l0,.012h0c.009.026.019.053.029.078h0l0,0h0v0h0v0h0v.006h0l.021.057.116-.044q-.052-.138-.1-.277Zm.209.551-.115.047.034.082h0v.015h0v0h0v0h0v0h0c.022.054.045.109.069.162l.114-.049q-.058-.136-.114-.272Zm.233.542-.113.052.023.05h0v0h0v.009h0l0,0h0v0h0l.066.14,0,0h0l0,0h0l.022.046.112-.054c-.043-.089-.085-.177-.125-.267Zm.257.531-.11.056.009.017h0l0,0v.017l0,0h0v0h0l0,0h0l.047.09h0l0,0h0l0,0h0l0,.008h0l0,.009h0l.006.011h0v.017h0l0,0h0l0,0h0l0,0h0l0,0h0l.027.05.109-.059q-.07-.13-.137-.261Zm.28.519-.108.062.021.037h0v0l0,0v0l0,0h0c.037.064.074.128.112.192h0v0l0,0h0l.006.011.107-.064q-.076-.127-.149-.255Zm.3.506-.1.066.064.1h0l0,0h0l0,0h0v0h0v0h0l0,0v0l0,0v0l0,0h0l0,0h0l0,0h0l0,0h0l0,0h0l0,0h0l0,0h0l0,0h0l0,0h0c.018.028.035.055.054.083l.1-.068c-.054-.082-.107-.165-.16-.248Zm.325.493-.1.071.1.142h0l0,0h0l0,0h0l0,0h0l0,0h0l0,0h0l0,0h0l0,0h0l.052.072.1-.073q-.086-.12-.171-.241Zm.347.477-.1.075.023.03h0l0,0h0l0,0h0l0,0h0l0,0h0v0h0l0,0v0l0,0h0l0,0h0l.006.008h0l0,0v0l0,0v0l0,0h0l0,0v.006l0,0h0l0,0h0l0,0h0l0,0h0l.015.02h0l0,0h0l0,0h0l.079.1.1-.078q-.092-.115-.181-.233Zm.367.462-.1.079.023.027h0l0,0h0l0,0v0h0l.089.105h0l0,0h0l0,0,0,0h0l0,0h0l0,0h0l0,0h0l.055.064.094-.081c-.065-.075-.129-.149-.191-.225Zm.387.445-.091.084.024.027h0l0,0v0l0,0h0l0,0v0l0,0,0,0v0l.01.011h0l0,0h0l0,0h0l.111.119h0l0,0h0l0,0v0l0,0,0,0h0l.022.023.09-.085c-.068-.072-.135-.144-.2-.216Zm.407.427-.088.087.094.093h0l0,0h0l0,0h0l0,0h0l0,0h0l0,0,.007.007h0l0,0h0l0,0h0l0,0h0l0,0h0l.077.074h0l0,0h0l.086-.089c-.071-.068-.141-.137-.21-.207Zm.425.408-.084.092h0l0,0h0l0,0,0,0h0l0,0h0l.137.124h0l0,0h0l0,0h0l.011.01,0,0h0l0,0h0l0,0h0l0,0h0l.038.034.082-.093c-.074-.065-.147-.131-.22-.2Zm.443.389-.08.095.028.024h0l0,0h0l0,0h0l0,0h0l0,0h0l.013.011h0l0,0h0l0,0h0l0,0h0l0,0h0l0,0,0,0,0,0,0,0h0l0,0h0l0,0h0l0,0,0,0h0v0h0l0,0h0l0,0h0l0,0,0,0,0,0h0l.009.007h0l0,0h0l0,0h0l0,0h0l0,0h0l.087.07.077-.1c-.077-.062-.152-.124-.228-.187Zm.46.369-.075.1.2.15h0l0,0,.034.026.073-.1-.236-.177Zm.476.348-.071.1.084.059h0l0,0h0l0,0,0,0h0l0,0h0l0,0h0l0,0h0l.139.094.068-.1c-.082-.054-.163-.11-.244-.166Zm.491.326-.066.105.2.122h0l0,0h0l0,0h.008l.009.006h0l.031.019.064-.106c-.085-.051-.168-.1-.251-.155Zm.505.3-.062.108c.086.049.173.1.26.145l.059-.109c-.087-.047-.172-.1-.258-.144Zm.519.281-.056.111.13.066h0l0,0h0l0,0h0l0,0h0l.01.005h0l0,0h0l0,0h0l.1.047h0l.054-.112c-.088-.043-.176-.087-.264-.132Zm.531.259-.052.112.008,0h0l0,0h0l0,0h0l.112.051h0l0,0h0l0,0h0l0,0h0l.01,0h.006l0,0h.013l.007,0h0l0,0h.011l0,0H1878l.01,0h.018l0,0h0l.031.013.049-.114c-.091-.039-.18-.079-.269-.12Zm.541.235-.047.115c.092.038.185.074.277.109l.044-.115-.274-.109Zm.551.211-.042.117.017.006h.1l.087.03h0l0,0h.024l.052.017.039-.118c-.093-.031-.186-.063-.279-.1Zm.559.187-.036.119.118.036h.024l.143.042.034-.119c-.095-.027-.188-.055-.283-.084Zm.567.161-.031.12c.1.025.192.049.289.072l.029-.121q-.143-.034-.286-.072Zm.863.2q-.144-.028-.289-.059l-.026.121c.1.021.195.04.292.06l.023-.122Zm.582.1c-.1-.014-.194-.029-.291-.046l-.021.123.294.046.018-.123Zm.585.072c-.1-.01-.2-.021-.293-.033l-.015.123.1.012h.005l.193.021.012-.123Zm.588.045c-.1-.005-.2-.012-.294-.02l-.01.124c.1.008.2.014.3.02l.007-.124Zm.59.019c-.1,0-.2,0-.295-.006l0,.124c.1,0,.2.005.3.007l0-.124Zm.59-.007q-.147,0-.3.007l0,.124.282-.007h.016l0-.124Zm.589-.034c-.1.008-.2.014-.294.02l.007.124c.1-.005.2-.012.3-.02l-.01-.124Zm.587-.06c-.1.012-.2.023-.293.033l.012.123.036,0h.012c.082-.008.166-.018.247-.028l-.015-.123Zm.583-.086q-.145.025-.291.046l.018.123.122-.019h.018l.154-.025-.021-.122Zm.579-.112q-.144.031-.289.059l.023.122.075-.015h.017l.2-.042-.026-.121Zm.574-.137c-.1.025-.19.049-.286.071l.029.121.157-.039h.018l.113-.029-.031-.12Zm.567-.162c-.094.029-.188.057-.282.085l.034.119.043-.012h.028l.214-.064-.037-.119Zm.56-.187c-.093.034-.186.066-.279.1l.039.118.157-.054h.024l0,0h0l0,0h0l.092-.033-.042-.117Zm.55-.211q-.136.056-.274.109l.044.116h0c.077-.029.153-.06.23-.091l.042-.017-.047-.115Zm.541-.236c-.089.041-.179.081-.269.121l.05.114.064-.028h0l.006,0,.184-.083h0l0,0h.013l-.052-.112Zm.53-.26c-.087.045-.175.089-.263.132l.054.112.021-.01h0l0,0h.01q.116-.057.231-.117l-.057-.11Zm.518-.282q-.128.073-.257.144l.059.109.088-.048h0l0,0h0l0,0h0l0,0h0l0,0h0l0,0h0l0,0h0l0,0h0l0,0h0l0,0h0l0,0h0l.132-.075-.062-.107Zm.5-.305c-.083.053-.166.1-.251.155l.064.106q.127-.077.253-.157l-.066-.1Zm.49-.327q-.12.085-.243.166l.069.1c.083-.055.164-.111.246-.168l-.071-.1Zm.476-.349c-.078.06-.157.119-.236.177l.073.1.039-.029h0l0,0h0l0,0h0l0,0h0q.093-.069.185-.14l-.076-.1Zm.46-.369c-.075.063-.151.126-.228.187l.078.1.078-.063,0,0h0l.15-.124-.08-.095Zm.443-.39c-.072.066-.146.132-.219.2l.082.094.135-.121h0l0,0h0l0,0h0l0,0h0l0,0h0l.07-.064-.084-.091Zm.425-.409c-.069.07-.139.139-.21.207l.086.089c.071-.068.142-.138.212-.208l-.088-.088Zm.406-.427q-.1.109-.2.216l.09.086.04-.042h0l0,0h0l0,0h0l0,0,0,0h0l0,0h0l0,0h0c.038-.04.076-.081.113-.123l.032-.034-.092-.084Zm.387-.445q-.094.113-.191.224l.094.081.078-.09h0v0h0l0,0h0l.107-.128-.1-.079Zm.367-.462q-.089.118-.181.233l.1.077q.093-.116.183-.235l-.1-.075Zm.345-.478c-.055.081-.113.161-.17.241l.1.073c.044-.061.088-.123.131-.185h0v0h0l.037-.053-.1-.071Zm.324-.493q-.078.125-.159.248l.1.068.026-.04h0l0,0h0l0,0h0l0,0h0l0,0v-.016l0,0h0l0,0h0l0,0h0l0,0h0l0,0h0l0,0h0l0,0h0l0,0h0l.065-.1h0l0,0h0l0,0h0l0,0h0l0,0h0l0,0h0l0,0h0l0,0v0l0,0v0l0,0h0v0h0l0,0-.105-.066Zm.3-.507c-.049.086-.1.171-.148.255l.107.063c.05-.085.1-.171.149-.257l-.108-.061Zm.279-.52q-.067.132-.137.261l.11.059q.052-.1.1-.2h0v-.009h0l.029-.057-.11-.056Zm.256-.532q-.061.135-.125.267l.112.054c.043-.089.085-.179.126-.27l-.113-.051Zm.232-.542-.035.088c-.026.062-.052.124-.078.185l.114.049.025-.058v0l0,0v-.005l0-.011h0l0,0h0l.039-.093h0v0l0,0,.027-.066h0v0h0v0h0l0-.011-.115-.046Zm.208-.552c-.033.093-.066.185-.1.277l.116.044c.035-.093.069-.187.1-.28l-.117-.041Zm.184-.561q-.043.141-.089.281l.118.039c.022-.068.043-.136.065-.2h0v-.015h0v0h0l.018-.059-.119-.036Zm.159-.568c-.024.1-.049.19-.076.285l.119.034c.014-.051.028-.1.042-.152h0v0h0v0h0v0h0l0-.012v-.033h0v-.026h0l.013-.048-.12-.031Zm.255-.549-.122-.025c-.021.1-.042.192-.063.288l.121.028h0c.017-.077.035-.154.051-.23v-.012h0l.01-.047Zm.109-.585-.123-.02q-.023.146-.05.291l.122.022c.012-.065.023-.129.035-.194h0v0h0v0h0v-.012c0-.025.009-.051.013-.076Zm.082-.59-.123-.014c-.011.1-.024.195-.037.293l.123.016c.011-.077.021-.155.03-.233h0v0h0v0h0v0h0v0h0v-.008h0v0h0v0h0l0-.023Zm.056-.593-.124-.009c-.007.1-.015.2-.025.294l.124.011c.008-.082.015-.165.021-.247h0v0h0v0h0v-.012l0-.026Zm.03-.595-.124,0q0,.147-.011.295l.124.006,0-.032h0v-.026h0v0h0c0-.046,0-.092.005-.138h0v0h0v-.005h0v-.005h0v-.018h0v0h0v0h0v0h0v-.046Zm0-.6-.124,0c0,.1,0,.2,0,.3h.124c0-.085,0-.17,0-.255h0v-.005h0v0h0v-.03Zm-.024-.6-.124.008q.009.147.015.294l.124,0h0v-.017c0-.081-.007-.162-.012-.243h0v0h0v-.016h0v-.014Zm-.05-.593-.124.013c.011.1.02.2.028.293l.123-.01,0-.042h0v-.01h0v0h0c-.005-.063-.012-.124-.018-.186h0v-.007l0-.045Zm-.077-.591-.122.019c.015.1.028.194.041.292l.123-.016-.005-.039h0v0h0v0h0v-.007c-.009-.064-.018-.128-.027-.191h0v0h0v-.03h0v-.009Zm-.1-.587-.122.024q.028.145.054.29l.122-.021q-.026-.147-.055-.293Zm-.129-.581-.12.03c.023.1.046.191.067.287l.121-.027,0-.02h0v0h0v-.01h0c-.019-.084-.038-.169-.059-.253Zm-.154-.575-.119.035c.028.094.054.189.079.284l.12-.032c-.012-.045-.025-.09-.037-.134h0v0h0v-.015h0v0h0c-.011-.042-.023-.084-.036-.126Zm-.18-.568-.117.04q.047.139.092.281l.119-.038c-.011-.035-.023-.071-.034-.106h0l0-.009h0l-.005-.016v-.007h0v0h0v0h0v0h0v0h0l0,0h0v0h0c-.013-.039-.026-.078-.039-.116Zm-.2-.559-.115.045c.036.092.071.183.1.276l.116-.043q-.051-.14-.105-.278Zm-.228-.55-.114.05q.06.135.116.272l.115-.048,0-.01h0v-.024h0v0h0q-.049-.118-.1-.235Zm-.253-.539-.111.055q.066.132.128.266l.112-.053c-.024-.05-.047-.1-.072-.151h0l0,0h0l0,0h0v0h0l0,0h0l0,0h0l0,0h0l-.045-.092Zm-.276-.528-.109.06q.072.13.14.26l.11-.057c-.037-.07-.074-.14-.112-.209v0l0,0h0l-.025-.045Zm-.3-.514-.106.064q.077.127.151.254l.107-.062c-.042-.072-.085-.145-.129-.216h0l0,0h0l0,0h0l0,0v-.015l0,0v-.006l0,0v0Zm-.322-.5-.1.069c.055.082.11.164.163.246l.1-.067c-.038-.061-.078-.121-.118-.181h0l-.028-.042h0l0,0h0l0,0h0l0,0h0l0,0h0l0,0h0l0,0h0Zm-.344-.486-.1.073c.058.079.116.159.172.239l.1-.071-.018-.026h0l0,0h0l0,0v0l0,0h0l0,0h0c-.047-.066-.095-.131-.142-.2Zm-.365-.471-.1.079c.062.076.123.153.183.231l.1-.076c-.06-.078-.123-.156-.185-.234Zm-.385-.454-.093.083c.065.073.13.148.193.223l.094-.08-.025-.029h0l0,0h0l0,0h0l0,0h0l0,0h0l0,0h0l-.016-.019h0l0,0h0l0,0h0l0,0h0l0,0h0l-.124-.142Zm-.405-.436-.089.087q.1.106.2.214l.091-.084h0l0,0v0l0,0,0,0,0,0h0l0,0h0l-.025-.026h0l-.137-.145h0l0,0h0l0,0v0l0,0,0,0h0l0,0h0l-.014-.014Zm-.424-.417-.085.09c.072.067.143.136.213.2l.087-.088-.1-.1h0l0,0h0l0,0h0l0,0h0l0,0h0l0,0h0l0,0,0,0h0l0,0h0l0,0h0l0,0h0l0,0h0l-.076-.072Zm-.442-.4-.081.094q.112.1.221.195l.083-.092-.067-.059h0l0,0h0l0,0,0,0,0,0h0l0,0,0,0,0,0h0l0,0,0,0h0l-.009-.008h0l0,0h0l0,0h0l0,0h0l0,0h0l0,0h0l0,0h0l0,0h0l0,0h0l-.007-.006h0l0,0,0,0h0l0,0,0,0,0,0,0,0h0l0,0h0l0,0,0,0h0l0,0h0l0,0h0l-.005,0h0l0,0,0,0,0,0h0l0,0,0,0,0,0h0l0,0h0l0,0h0l0,0h0l-.024-.021Zm-.46-.378-.076.1c.077.061.154.122.23.185l.079-.1-.131-.106h0l0,0h0l0,0h0l0,0h0l0,0h0l0,0h0l0,0h0l-.008-.006h0l0,0h0l0,0h0l0,0h0l0,0h0l0,0v0l0,0h0l0,0h0l-.016-.012h0l-.025-.019Zm-.476-.357-.072.1.238.175.074-.1-.177-.131h0l0,0h0l0,0h0l0,0h0l0,0h0l-.044-.032Zm-.492-.335-.067.1c.082.054.164.108.245.163l.07-.1-.082-.055h0l0,0h0l0,0h0l0,0h0l-.153-.1Zm-.506-.313-.063.107q.127.075.252.153l.065-.106-.1-.06h-.011l0,0h0l0,0h0l0,0h0l-.022-.014h0l-.11-.065Zm-.52-.29-.058.109c.087.046.173.094.259.141l.06-.109-.033-.019h0l0,0h0l0,0h0l0,0h0l-.122-.067h0l0,0h-.005l0,0h0l0,0h0l0,0h0l0,0h0l0,0h0l0,0h0l-.051-.027Zm-.532-.267-.053.112q.134.063.265.129l.056-.111c-.085-.042-.17-.084-.256-.125h0l0,0h0l0,0Zm-.543-.243-.048.114q.136.057.27.118l.051-.113q-.135-.061-.273-.119Zm-.553-.22-.043.116q.138.051.275.106l.046-.115q-.135-.053-.27-.1l-.008,0Zm-.563-.2-.038.118q.14.045.28.094l.041-.117-.1-.034h0l0,0h-.025l0,0h-.005l-.066-.022h-.024l-.056-.018Zm-.57-.17-.033.12c.1.026.189.053.284.081l.036-.119-.146-.043h-.019l-.121-.034Zm-.578-.145-.028.121c.1.021.192.044.287.069l.03-.12q-.144-.036-.289-.069Z" transform="translate(-1869.992 -1518.704)" fill="#46afbb"/>
          </g>
        </g>
        <path id="Trazado_750576" data-name="Trazado 750576" d="M1904.523,1546.24a14.493,14.493,0,0,0,6.747-3.771,14.4,14.4,0,0,0-4.675-23.553l-5.472,13.324Z" transform="translate(-1887.369 -1518.825)" fill="#1d989e"/>
        <path id="Trazado_750577" data-name="Trazado 750577" d="M1886.572,1561.526q-.385.094-.776.165a13.419,13.419,0,0,1-15.766-14.216l13.377,1.018Z" transform="translate(-1869.653 -1535.077)" fill="#143f5b"/>
        <path id="Trazado_750578" data-name="Trazado 750578" d="M1884.764,1533.431l-12.387-.943q.03-.4.086-.791a12.438,12.438,0,0,1,12.178-10.689c.116,0,.232,0,.348,0q.364.006.726.034Z" transform="translate(-1871.01 -1520.015)" fill="#fa8f36"/>
        <path id="Trazado_750579" data-name="Trazado 750579" d="M1906.218,1519.765l-5.095,12.407,1.026-13.377a13.361,13.361,0,0,1,3.387.711Q1905.878,1519.626,1906.218,1519.765Z" transform="translate(-1887.369 -1518.755)" fill="#c13236"/>
        <path id="Trazado_750580" data-name="Trazado 750580" d="M1904.289,1562.87q-.386.094-.776.165l-2.39-13.2Z" transform="translate(-1887.369 -1536.42)" fill="#1a1718" opacity="0.18"/>
        <path id="Trazado_750581" data-name="Trazado 750581" d="M1884.764,1547.547l-12.387-.942q.03-.4.086-.791Z" transform="translate(-1871.01 -1534.131)" fill="#1a1718" opacity="0.18"/>
        <path id="Trazado_750582" data-name="Trazado 750582" d="M1901.123,1533.433l.224-12.421q.364.006.725.034Z" transform="translate(-1887.369 -1520.017)" fill="#1a1718" opacity="0.18"/>
        <path id="Trazado_750583" data-name="Trazado 750583" d="M1906.218,1520.7l-5.095,12.407,4.413-12.665Q1905.878,1520.565,1906.218,1520.7Z" transform="translate(-1887.369 -1519.695)" fill="#1a1718" opacity="0.18"/>
      </g>
      <g id="Grupo_927226" data-name="Grupo 927226" transform="translate(1699.225 1200.974)">
        <rect id="Rectángulo_299858" data-name="Rectángulo 299858" width="1.919" height="1.294" rx="0.529" transform="translate(14.883 14.226) rotate(138.758)" fill="#f4b10f"/>
        <path id="Rectángulo_299859" data-name="Rectángulo 299859" d="M0,0H1.919a0,0,0,0,1,0,0V.265A.521.521,0,0,1,1.4.786H.521A.521.521,0,0,1,0,.265V0A0,0,0,0,1,0,0Z" transform="translate(15.789 15.26) rotate(138.758)" fill="#f4b10f"/>
        <path id="Trazado_750584" data-name="Trazado 750584" d="M2091.334,1586.715h0a.96.96,0,0,0,.089-1.354l-7.673-8.752-1.443,1.265,7.673,8.752A.96.96,0,0,0,2091.334,1586.715Z" transform="translate(-2067.96 -1561.349)" fill="#313535"/>
        <rect id="Rectángulo_299860" data-name="Rectángulo 299860" width="1.484" height="0.589" transform="translate(15.108 14.812) rotate(138.757)" fill="#f4b10f"/>
        <path id="Trazado_750585" data-name="Trazado 750585" d="M2079.049,1574.843l-.532-.607a.243.243,0,0,1,.022-.344l.539-.472,1.759,2.006-.721.633-.36-.41a.24.24,0,0,1,.022-.339l-.016.015-.388-.443.019-.017A.244.244,0,0,1,2079.049,1574.843Z" transform="translate(-2065.769 -1559.535)" fill="#1a1718" opacity="0.07"/>
        <circle id="Elipse_6910" data-name="Elipse 6910" cx="7.03" cy="7.03" r="7.03" transform="translate(0 5.437) rotate(-22.751)" fill="#313535"/>
        <path id="Trazado_750586" data-name="Trazado 750586" d="M2056.45,1550.284l9.268,10.571a7.029,7.029,0,1,1-9.268-10.571Z" transform="translate(-2051.883 -1546.369)" fill="#1a1718" opacity="0.25"/>
        <circle id="Elipse_6911" data-name="Elipse 6911" cx="6.026" cy="6.026" r="6.026" transform="translate(2.887 14.924) rotate(-87.185)" fill="#c1c7c9"/>
        <path id="Trazado_750587" data-name="Trazado 750587" d="M2071.566,1554.558a.437.437,0,0,0,.044-.611,5.267,5.267,0,0,0-3.821-2,4.687,4.687,0,0,0-1.91.291.436.436,0,0,0,.342.8,4.17,4.17,0,0,1,4.724,1.473.437.437,0,0,0,.615.05Z" transform="translate(-2058.461 -1547.311)" fill="#f7f8f9" opacity="0.7"/>
        <path id="Trazado_750588" data-name="Trazado 750588" d="M2066.886,1551.46a6.025,6.025,0,0,0-10.5,3.159,6.026,6.026,0,1,1,12,.788A6,6,0,0,0,2066.886,1551.46Z" transform="translate(-2053.21 -1545.391)" fill="#1a1718" opacity="0.15"/>
        <path id="Trazado_750589" data-name="Trazado 750589" d="M2083.028,1578.077l8.306,9.474a.96.96,0,0,1-1.354-.089l-7.673-8.752Z" transform="translate(-2067.96 -1562.185)" fill="#1a1718" opacity="0.25"/>
      </g>
      <g id="Grupo_927227" data-name="Grupo 927227" transform="translate(1737.168 1149.567)">
        <path id="Trazado_750590" data-name="Trazado 750590" d="M2166.26,1433.4h-1.03a8.007,8.007,0,0,0-14.04-7.662,5.179,5.179,0,0,0-2.643-.726,5.254,5.254,0,0,0-4.761,7.421h-2.326a4.418,4.418,0,0,0,0,8.836h24.8a3.934,3.934,0,0,0,0-7.869Z" transform="translate(-2137.066 -1421.907)" fill="#89cdec" stroke="#4e5150" stroke-miterlimit="10" stroke-width="3.044"/>
        <rect id="Rectángulo_299861" data-name="Rectángulo 299861" width="9.258" height="9.258" rx="4.629" transform="translate(3.53 25.173)" fill="#1f8774"/>
        <rect id="Rectángulo_299862" data-name="Rectángulo 299862" width="6.786" height="9.258" rx="3.393" transform="translate(14.892 25.173)" fill="#009db5"/>
        <path id="Trazado_750591" data-name="Trazado 750591" d="M2194.876,1489.58h0a2.631,2.631,0,0,1-2.624-2.623v-4.012a2.631,2.631,0,0,1,2.624-2.623h0a2.631,2.631,0,0,1,2.623,2.623v4.012A2.631,2.631,0,0,1,2194.876,1489.58Z" transform="translate(-2168.471 -1455.149)" fill="#009db5"/>
        <rect id="Rectángulo_299863" data-name="Rectángulo 299863" width="0.875" height="5.811" transform="translate(25.968 19.362)" fill="#4d4e4e"/>
        <rect id="Rectángulo_299864" data-name="Rectángulo 299864" width="0.875" height="5.811" transform="translate(17.848 19.362)" fill="#4d4e4e"/>
        <rect id="Rectángulo_299865" data-name="Rectángulo 299865" width="0.875" height="5.811" transform="translate(7.721 19.362)" fill="#4d4e4e"/>
      </g>
      <g id="Grupo_927228" data-name="Grupo 927228" transform="translate(1709.6 1074.642)">
        <path id="Trazado_750592" data-name="Trazado 750592" d="M2086.568,1272.542l-12.378,7.265a2.224,2.224,0,0,0,0,3.837l12.378,7.265a4.1,4.1,0,0,0,4.146,0l12.377-7.265a2.225,2.225,0,0,0,0-3.837l-12.377-7.265A4.093,4.093,0,0,0,2086.568,1272.542Z" transform="translate(-2073.091 -1261.661)" fill="#e5574a"/>
        <path id="Trazado_750593" data-name="Trazado 750593" d="M2086.568,1260.571l-12.378,7.265a2.224,2.224,0,0,0,0,3.837l12.378,7.265a4.094,4.094,0,0,0,4.146,0l12.377-7.265a2.225,2.225,0,0,0,0-3.837l-12.377-7.265A4.1,4.1,0,0,0,2086.568,1260.571Z" transform="translate(-2073.091 -1254.849)" fill="#1d989e"/>
        <path id="Trazado_750594" data-name="Trazado 750594" d="M2086.568,1248.6l-12.378,7.265a2.224,2.224,0,0,0,0,3.837l12.378,7.265a4.1,4.1,0,0,0,4.146,0l12.377-7.265a2.225,2.225,0,0,0,0-3.837l-12.377-7.265A4.1,4.1,0,0,0,2086.568,1248.6Z" transform="translate(-2073.091 -1248.038)" fill="#143f5b"/>
      </g>
      <g id="Grupo_927229" data-name="Grupo 927229" transform="translate(1616.392 943.336)">
        <path id="Trazado_750595" data-name="Trazado 750595" d="M1972.741,943.336h-98.007a8.516,8.516,0,0,0-8.419,7.233l-9.42,61.818a8.516,8.516,0,0,0,8.419,9.8h116.847a8.516,8.516,0,0,0,8.419-9.8l-9.42-61.818A8.517,8.517,0,0,0,1972.741,943.336Z" transform="translate(-1856.796 -943.336)" fill="#f1bd4f" stroke="#4d4e4e" stroke-miterlimit="10" stroke-width="4.196"/>
        <path id="Trazado_750596" data-name="Trazado 750596" d="M1921,1065.942l-5.055,8.755h10.11Z" transform="translate(-1890.456 -1013.107)" fill="#9d5b29" stroke="#4d4e4e" stroke-miterlimit="10" stroke-width="3.597"/>
        <path id="Trazado_750597" data-name="Trazado 750597" d="M2029.6,1043.121l-5.055,8.755h10.11Z" transform="translate(-1952.259 -1000.12)" fill="#9d5b29" stroke="#4d4e4e" stroke-miterlimit="10" stroke-width="3.597"/>
        <path id="Trazado_750598" data-name="Trazado 750598" d="M2026.547,967.813l-3.725,6.451h7.449Z" transform="translate(-1951.277 -957.265)" fill="#9d5b29" stroke="#4d4e4e" stroke-miterlimit="10" stroke-width="3.597"/>
        <path id="Trazado_750599" data-name="Trazado 750599" d="M1926.776,975.6l-4.612,7.987h9.223Z" transform="translate(-1893.995 -961.694)" fill="#9d5b29" stroke="#4d4e4e" stroke-miterlimit="10" stroke-width="3.597"/>
        <path id="Trazado_750600" data-name="Trazado 750600" d="M2089.962,1074.743l-5.055,8.755h10.11Z" transform="translate(-1986.607 -1018.116)" fill="#9d5b29" stroke="#4d4e4e" stroke-miterlimit="10" stroke-width="3.597"/>
        <circle id="Elipse_6912" data-name="Elipse 6912" cx="2.917" cy="2.917" r="2.917" transform="translate(103.344 28.018)" fill="#9d5b29" stroke="#4d4e4e" stroke-miterlimit="10" stroke-width="2.997"/>
        <circle id="Elipse_6913" data-name="Elipse 6913" cx="2.917" cy="2.917" r="2.917" transform="translate(59.499 61.005)" fill="#9d5b29" stroke="#4d4e4e" stroke-miterlimit="10" stroke-width="2.997"/>
        <circle id="Elipse_6914" data-name="Elipse 6914" cx="2.917" cy="2.917" r="2.917" transform="translate(45.203 36.508)" fill="#9d5b29" stroke="#4d4e4e" stroke-miterlimit="10" stroke-width="2.997"/>
      </g>
      <g id="Grupo_927248" data-name="Grupo 927248" transform="translate(1434.344 1033.782)">
        <path id="Trazado_750601" data-name="Trazado 750601" d="M1442.863,1232.072h116.847a8.517,8.517,0,0,0,8.419-9.8l-7.427-48.726-1.994-13.094a8.515,8.515,0,0,0-8.419-7.233h-98.006a8.518,8.518,0,0,0-8.421,7.233l-4.448,29.192-4.973,32.628A8.517,8.517,0,0,0,1442.863,1232.072Z" transform="translate(-1434.344 -1153.222)" fill="none" stroke="#4d4e4e" stroke-miterlimit="10" stroke-width="4.196"/>
        <path id="Trazado_750602" data-name="Trazado 750602" d="M1446.112,1189.646l51.779-8.3,10.092-27.746-1.607-.382h-47.395a8.518,8.518,0,0,0-8.421,7.233Z" transform="translate(-1441.04 -1153.222)" fill="#f0d677" stroke="#4e504f" stroke-miterlimit="10" stroke-width="3.597"/>
        <path id="Trazado_750603" data-name="Trazado 750603" d="M1442.863,1275.056h6.884l14.1-18.906-.261-27.394-24.176,3.875-4.973,32.628A8.517,8.517,0,0,0,1442.863,1275.056Z" transform="translate(-1434.344 -1196.206)" fill="#f99a42" stroke="#4e4f4f" stroke-miterlimit="10" stroke-width="3.597"/>
        <path id="Trazado_750604" data-name="Trazado 750604" d="M1470.089,1311.231H1537.9l-1.279-8.63-52.432-10.276Z" transform="translate(-1454.685 -1232.381)" fill="#82d3f2" stroke="#4e504f" stroke-miterlimit="10" stroke-width="3.597"/>
        <path id="Trazado_750605" data-name="Trazado 750605" d="M1554.906,1260.586l-4.668-37.669-20.422-4.422-27.6,4.422.26,27.394Z" transform="translate(-1472.966 -1190.366)" fill="#e3766a" stroke="#4e504f" stroke-miterlimit="10" stroke-width="3.597"/>
        <path id="Trazado_750606" data-name="Trazado 750606" d="M1613.658,1212.614l5.946,46.3h42.148a8.517,8.517,0,0,0,8.419-9.8l-7.427-48.725Z" transform="translate(-1536.386 -1180.064)" fill="#6fc5c3" stroke="#4e504f" stroke-miterlimit="10" stroke-width="3.597"/>
        <path id="Trazado_750607" data-name="Trazado 750607" d="M1566.267,1181.35l20.422,4.422,49.087-12.223-1.994-13.094a8.515,8.515,0,0,0-8.418-7.233h-47.93l-1.075.382Z" transform="translate(-1509.417 -1153.222)" fill="#d2cd38" stroke="#4e504f" stroke-miterlimit="10" stroke-width="3.597"/>
        <g id="Grupo_927232" data-name="Grupo 927232" transform="translate(98.069 39.941)">
          <rect id="Rectángulo_299866" data-name="Rectángulo 299866" width="12.643" height="5.74" rx="2.87" transform="translate(0.748 16.792)" fill="#f1bd4f"/>
          <g id="Grupo_927231" data-name="Grupo 927231">
            <g id="Grupo_927230" data-name="Grupo 927230">
              <path id="Trazado_750608" data-name="Trazado 750608" d="M1676.057,1252.978a7.07,7.07,0,1,0-14.139,0c0,3.9,7.069,12.342,7.069,12.342S1676.057,1256.882,1676.057,1252.978Z" transform="translate(-1661.918 -1245.908)" fill="#c63f1a" stroke="#4e4f4f" stroke-miterlimit="10" stroke-width="2.997"/>
            </g>
            <circle id="Elipse_6915" data-name="Elipse 6915" cx="3.234" cy="3.234" r="3.234" transform="translate(2.496 6.604) rotate(-45)" fill="#f1bd4f" stroke="#4e4f4f" stroke-miterlimit="10" stroke-width="2.997"/>
          </g>
        </g>
        <g id="Grupo_927235" data-name="Grupo 927235" transform="translate(41.455 55.045)">
          <path id="Trazado_750609" data-name="Trazado 750609" d="M1540.329,1314.1h-5.87a2.448,2.448,0,0,0-2.441,2.441h0a2.449,2.449,0,0,0,2.441,2.441h5.87a2.449,2.449,0,0,0,2.441-2.441h0A2.448,2.448,0,0,0,1540.329,1314.1Z" transform="translate(-1531.382 -1299.816)" fill="#f1bd4f"/>
          <g id="Grupo_927234" data-name="Grupo 927234">
            <g id="Grupo_927233" data-name="Grupo 927233">
              <path id="Trazado_750610" data-name="Trazado 750610" d="M1542.567,1286.969a6.012,6.012,0,1,0-12.025,0c0,3.321,6.012,10.5,6.012,10.5S1542.567,1290.29,1542.567,1286.969Z" transform="translate(-1530.542 -1280.957)" fill="#c63f1a" stroke="#4e4f4f" stroke-miterlimit="10" stroke-width="2.997"/>
            </g>
            <circle id="Elipse_6916" data-name="Elipse 6916" cx="2.751" cy="2.751" r="2.751" transform="translate(3.262 2.865)" fill="#f1bd4f" stroke="#4e4f4f" stroke-miterlimit="10" stroke-width="2.997"/>
          </g>
        </g>
        <g id="Grupo_927238" data-name="Grupo 927238" transform="translate(49.781 26.978)">
          <rect id="Rectángulo_299867" data-name="Rectángulo 299867" width="13.72" height="6.229" rx="3.115" transform="translate(0.812 18.222)" fill="#f1bd4f"/>
          <g id="Grupo_927237" data-name="Grupo 927237">
            <g id="Grupo_927236" data-name="Grupo 927236">
              <path id="Trazado_750611" data-name="Trazado 750611" d="M1565.205,1223.5a7.672,7.672,0,1,0-15.343,0c0,4.237,7.672,13.393,7.672,13.393S1565.205,1227.736,1565.205,1223.5Z" transform="translate(-1549.862 -1215.827)" fill="#c63f1a" stroke="#4e4f4f" stroke-miterlimit="10" stroke-width="2.997"/>
            </g>
            <circle id="Elipse_6917" data-name="Elipse 6917" cx="3.51" cy="3.51" r="3.51" transform="translate(2.708 7.166) rotate(-45)" fill="#f1bd4f" stroke="#4e4f4f" stroke-miterlimit="10" stroke-width="2.997"/>
          </g>
        </g>
        <g id="Grupo_927241" data-name="Grupo 927241" transform="translate(84.292 4.75)">
          <path id="Trazado_750612" data-name="Trazado 750612" d="M1638.525,1193.285h-5.144a2.145,2.145,0,0,0-2.139,2.139h0a2.145,2.145,0,0,0,2.139,2.139h5.144a2.146,2.146,0,0,0,2.139-2.139h0A2.145,2.145,0,0,0,1638.525,1193.285Z" transform="translate(-1630.684 -1180.771)" fill="#f1bd4f"/>
          <g id="Grupo_927240" data-name="Grupo 927240">
            <g id="Grupo_927239" data-name="Grupo 927239">
              <path id="Trazado_750613" data-name="Trazado 750613" d="M1640.485,1169.513a5.269,5.269,0,0,0-10.537,0c0,2.91,5.269,9.2,5.269,9.2S1640.485,1172.423,1640.485,1169.513Z" transform="translate(-1629.948 -1164.245)" fill="#c63f1a" stroke="#4e4f4f" stroke-miterlimit="10" stroke-width="2.997"/>
            </g>
            <circle id="Elipse_6918" data-name="Elipse 6918" cx="2.41" cy="2.41" r="2.41" transform="matrix(0.477, -0.879, 0.879, 0.477, 2, 5.889)" fill="#f1bd4f" stroke="#4e4f4f" stroke-miterlimit="10" stroke-width="2.997"/>
          </g>
        </g>
        <g id="Grupo_927244" data-name="Grupo 927244" transform="translate(25.581 6.384)">
          <path id="Trazado_750614" data-name="Trazado 750614" d="M1502.192,1196.77h-5.09a2.123,2.123,0,0,0-2.116,2.116h0A2.123,2.123,0,0,0,1497.1,1201h5.09a2.123,2.123,0,0,0,2.116-2.116h0A2.123,2.123,0,0,0,1502.192,1196.77Z" transform="translate(-1494.434 -1184.388)" fill="#f1bd4f"/>
          <g id="Grupo_927243" data-name="Grupo 927243">
            <g id="Grupo_927242" data-name="Grupo 927242">
              <path id="Trazado_750615" data-name="Trazado 750615" d="M1504.132,1173.25a5.213,5.213,0,0,0-10.426,0c0,2.879,5.213,9.1,5.213,9.1S1504.132,1176.128,1504.132,1173.25Z" transform="translate(-1493.706 -1168.037)" fill="#c63f1a" stroke="#4e4f4f" stroke-miterlimit="10" stroke-width="2.997"/>
            </g>
            <circle id="Elipse_6919" data-name="Elipse 6919" cx="2.385" cy="2.385" r="2.385" transform="matrix(0.973, -0.231, 0.231, 0.973, 2.342, 3.099)" fill="#f1bd4f" stroke="#4e4f4f" stroke-miterlimit="10" stroke-width="2.997"/>
          </g>
        </g>
        <g id="Grupo_927247" data-name="Grupo 927247" transform="translate(10.155 43.311)">
          <path id="Trazado_750616" data-name="Trazado 750616" d="M1466.453,1282.659h-5.125a2.138,2.138,0,0,0-2.131,2.131h0a2.138,2.138,0,0,0,2.131,2.131h5.125a2.137,2.137,0,0,0,2.131-2.131h0A2.137,2.137,0,0,0,1466.453,1282.659Z" transform="translate(-1458.641 -1270.191)" fill="#f1bd4f"/>
          <g id="Grupo_927246" data-name="Grupo 927246">
            <g id="Grupo_927245" data-name="Grupo 927245">
              <path id="Trazado_750617" data-name="Trazado 750617" d="M1468.406,1258.976a5.249,5.249,0,0,0-10.5,0c0,2.9,5.249,9.163,5.249,9.163S1468.406,1261.875,1468.406,1258.976Z" transform="translate(-1457.908 -1253.727)" fill="#c63f1a" stroke="#4e4f4f" stroke-miterlimit="10" stroke-width="2.997"/>
            </g>
            <circle id="Elipse_6920" data-name="Elipse 6920" cx="2.401" cy="2.401" r="2.401" transform="translate(2.848 2.501)" fill="#f1bd4f" stroke="#4e4f4f" stroke-miterlimit="10" stroke-width="2.997"/>
          </g>
        </g>
      </g>
      <path id="Trazado_750618" data-name="Trazado 750618" d="M1954.893,1279.776l-.623-1.473a63.65,63.65,0,0,1,23.311-5.015l.039,1.6A62.052,62.052,0,0,0,1954.893,1279.776Z" transform="translate(-295.874 -187.765)" fill="#4d4e4e"/>
      <g id="Grupo_927249" data-name="Grupo 927249" transform="translate(1690.519 1086.06)">
        <path id="Trazado_750619" data-name="Trazado 750619" d="M2064.671,1284.793q-.518-.207-1.041-.405l.467-1.232q.534.2,1.063.414Z" transform="translate(-2048.627 -1279.441)" fill="#4d4e4e"/>
        <path id="Trazado_750620" data-name="Trazado 750620" d="M2046.033,1279.379c-.646-.221-1.3-.433-1.952-.631l.385-1.26c.664.2,1.334.42,1.993.645Zm-3.924-1.2c-.658-.177-1.327-.346-1.989-.5l.3-1.282c.677.159,1.36.331,2.031.512Zm-3.995-.936c-.666-.133-1.344-.257-2.017-.369l.215-1.3c.688.114,1.381.24,2.061.377Z" transform="translate(-2032.958 -1275.128)" fill="#4d4e4e"/>
        <path id="Trazado_750621" data-name="Trazado 750621" d="M2029.921,1275.98q-.553-.073-1.108-.137l.149-1.308q.568.065,1.132.14Z" transform="translate(-2028.813 -1274.535)" fill="#4d4e4e"/>
      </g>
      <g id="Grupo_927250" data-name="Grupo 927250" transform="translate(1729.211 1106.07)">
        <path id="Trazado_750622" data-name="Trazado 750622" d="M2157.269,1415.242q-.02-.56-.049-1.116l1.315-.069q.029.569.049,1.139Z" transform="translate(-2140.578 -1373.943)" fill="#4d4e4e"/>
        <path id="Trazado_750623" data-name="Trazado 750623" d="M2138.009,1362.312c-.064-.737-.144-1.484-.235-2.221l1.307-.161c.093.753.174,1.515.24,2.268Zm-.548-4.433c-.117-.732-.25-1.472-.393-2.2l1.292-.254c.146.742.281,1.5.4,2.245Zm-.864-4.381c-.17-.724-.354-1.452-.549-2.164l1.271-.347c.2.727.387,1.471.561,2.21Zm-1.175-4.307c-.221-.708-.458-1.421-.7-2.12l1.242-.437c.251.713.493,1.441.718,2.164Zm-1.482-4.212c-.271-.689-.558-1.384-.853-2.063l1.208-.525c.3.694.595,1.4.871,2.107Zm-1.781-4.095c-.319-.668-.655-1.34-1-2l1.167-.61c.351.671.694,1.357,1.021,2.039Zm-2.068-3.957c-.366-.644-.75-1.29-1.139-1.921l1.12-.692c.4.644.789,1.3,1.163,1.961Zm-2.346-3.8c-.413-.617-.841-1.235-1.273-1.834l1.068-.769c.441.612.879,1.242,1.3,1.873Zm-2.61-3.623c-.455-.587-.926-1.171-1.4-1.739l1.011-.844c.484.58.965,1.177,1.429,1.776Z" transform="translate(-2121.523 -1324.357)" fill="#4d4e4e"/>
        <path id="Trazado_750624" data-name="Trazado 750624" d="M2119.354,1322.691q-.373-.416-.753-.825l.965-.9q.388.418.768.842Z" transform="translate(-2118.601 -1320.97)" fill="#4d4e4e"/>
      </g>
      <path id="Trazado_750625" data-name="Trazado 750625" d="M2113.2,1511.649l-1.1-1.158a62.763,62.763,0,0,0,10.081-12.414l1.36.841A64.383,64.383,0,0,1,2113.2,1511.649Z" transform="translate(-385.688 -315.686)" fill="#4d4e4e"/>
      <path id="Trazado_750626" data-name="Trazado 750626" d="M1971.811,1558.5a64.157,64.157,0,0,1-30.537-7.733l.763-1.405a62.7,62.7,0,0,0,45.115,5.641l.391,1.551A64.311,64.311,0,0,1,1971.811,1558.5Z" transform="translate(-288.478 -344.873)" fill="#4d4e4e"/>
      <path id="Trazado_750627" data-name="Trazado 750627" d="M1880.073,1484.58a63.7,63.7,0,0,1-10.182-19.946l1.53-.465a62.079,62.079,0,0,0,9.927,19.446Z" transform="translate(-247.856 -296.39)" fill="#4d4e4e"/>
      <path id="Trazado_750628" data-name="Trazado 750628" d="M1863.884,1384.175a65,65,0,0,1-.411-7.293,63.883,63.883,0,0,1,9.817-34.1l1.353.852a62.292,62.292,0,0,0-9.571,33.244,63.3,63.3,0,0,0,.4,7.112Z" transform="translate(-244.204 -227.314)" fill="#4d4e4e"/>
      <g id="Grupo_927251" data-name="Grupo 927251" transform="translate(1646.663 1068.354)">
        <path id="Trazado_750629" data-name="Trazado 750629" d="M1967.77,1234.984l-.3-1.281q.554-.131,1.109-.255l.286,1.285Q1968.314,1234.855,1967.77,1234.984Z" transform="translate(-1950.046 -1233.448)" fill="#4d4e4e"/>
        <path id="Trazado_750630" data-name="Trazado 750630" d="M1935.2,1240.78l-.529-1.206c.757-.332,1.528-.657,2.292-.965l.492,1.221C1936.7,1240.134,1935.944,1240.454,1935.2,1240.78Zm4.539-1.83-.455-1.236c.776-.286,1.565-.563,2.346-.825l.418,1.249C1941.279,1238.4,1940.5,1238.669,1939.739,1238.95Zm4.642-1.554-.381-1.261c.787-.238,1.593-.467,2.392-.682l.342,1.272C1945.947,1236.937,1945.155,1237.163,1944.381,1237.4Z" transform="translate(-1931.383 -1234.59)" fill="#4d4e4e"/>
        <path id="Trazado_750631" data-name="Trazado 750631" d="M1927.623,1249.09l-.581-1.181q.51-.251,1.024-.5l.565,1.189Q1928.125,1248.843,1927.623,1249.09Z" transform="translate(-1927.042 -1241.395)" fill="#4d4e4e"/>
      </g>
      <path id="Trazado_750632" data-name="Trazado 750632" d="M2020.438,1236.744a81.2,81.2,0,0,0-32.3-6.629,82.259,82.259,0,0,0-17.825,1.949l-.347-1.561a83.851,83.851,0,0,1,18.172-1.988,82.781,82.781,0,0,1,32.93,6.759Z" transform="translate(-304.808 -162.287)" fill="#4d4e4e"/>
      <path id="Trazado_750633" data-name="Trazado 750633" d="M2174.552,1347h-1.6a81.466,81.466,0,0,0-21.858-55.638l1.171-1.089A83.059,83.059,0,0,1,2174.552,1347Z" transform="translate(-407.881 -197.429)" fill="#4d4e4e"/>
      <path id="Trazado_750634" data-name="Trazado 750634" d="M2109.047,1543.177l-.811-1.378a81.9,81.9,0,0,0,31.281-33.074l1.421.733A83.5,83.5,0,0,1,2109.047,1543.177Z" transform="translate(-383.491 -321.746)" fill="#4d4e4e"/>
      <path id="Trazado_750635" data-name="Trazado 750635" d="M2029.013,1605.269l-.115-1.312c.74-.065,1.49-.14,2.229-.225l.15,1.308C2030.527,1605.126,2029.765,1605.2,2029.013,1605.269Zm4.521-.52-.186-1.3c.73-.1,1.474-.22,2.213-.347l.221,1.3C2035.032,1604.525,2034.276,1604.644,2033.534,1604.75Zm4.486-.766-.257-1.292c.725-.145,1.462-.3,2.189-.468l.293,1.284C2039.507,1603.677,2038.758,1603.836,2038.02,1603.983Zm4.437-1.012-.328-1.276c.722-.186,1.448-.383,2.161-.587l.363,1.266C2043.93,1602.582,2043.191,1602.783,2042.458,1602.971Zm4.375-1.255-.4-1.255c.708-.224,1.423-.462,2.125-.706l.432,1.244C2048.28,1601.247,2047.552,1601.489,2046.833,1601.717Zm4.3-1.493-.466-1.232q.656-.248,1.305-.507l.488,1.223Q2051.8,1599.971,2051.131,1600.223Z" transform="translate(-338.342 -372.825)" fill="#4d4e4e"/>
      <path id="Trazado_750636" data-name="Trazado 750636" d="M1957.092,1598.734a83.307,83.307,0,0,1-41.684-11.158l.8-1.384a81.71,81.71,0,0,0,40.883,10.943c2.4,0,4.828-.106,7.21-.314l.139,1.593C1962.013,1598.626,1959.54,1598.734,1957.092,1598.734Z" transform="translate(-273.759 -365.829)" fill="#4d4e4e"/>
      <g id="Grupo_927252" data-name="Grupo 927252" transform="translate(1600.881 1160.567)">
        <path id="Trazado_750637" data-name="Trazado 750637" d="M1820.961,1448.735q-.083-.562-.159-1.126l1.305-.175q.074.555.156,1.109Z" transform="translate(-1820.802 -1447.433)" fill="#4d4e4e"/>
        <path id="Trazado_750638" data-name="Trazado 750638" d="M1836.61,1489.633c-.43-.592-.862-1.2-1.28-1.81l1.085-.746c.412.6.836,1.2,1.26,1.782Zm-2.512-3.654c-.4-.617-.8-1.249-1.182-1.876l1.123-.687c.378.618.77,1.239,1.164,1.846Zm-2.314-3.783c-.367-.637-.73-1.288-1.081-1.936l1.158-.626c.345.637.7,1.278,1.063,1.905Zm-2.11-3.9c-.335-.661-.663-1.331-.975-1.991l1.19-.563c.307.649.63,1.309.96,1.96Zm-1.9-4.008c-.3-.672-.588-1.359-.867-2.041l1.219-.5c.274.671.562,1.347.854,2.008Zm-1.68-4.1c-.26-.687-.515-1.388-.757-2.085l1.244-.433c.238.686.489,1.376.745,2.051Zm-1.458-4.189c-.224-.7-.44-1.418-.643-2.122l1.265-.365c.2.693.414,1.4.634,2.089Zm-1.231-4.261c-.186-.717-.364-1.442-.528-2.153l1.283-.3c.162.7.337,1.413.521,2.12Zm-1-4.32c-.146-.72-.285-1.453-.413-2.179l1.3-.228c.125.715.262,1.436.406,2.145Z" transform="translate(-1821.48 -1451.742)" fill="#4d4e4e"/>
        <path id="Trazado_750639" data-name="Trazado 750639" d="M1859.692,1539.317q-.352-.446-.7-.9l1.044-.8q.341.444.688.883Z" transform="translate(-1842.535 -1498.754)" fill="#4d4e4e"/>
      </g>
      <path id="Trazado_750640" data-name="Trazado 750640" d="M1819.494,1371.154a84.363,84.363,0,0,1-.746-11.194,82.894,82.894,0,0,1,14.447-46.91l1.321.9a81.3,81.3,0,0,0-14.168,46.009,82.843,82.843,0,0,0,.731,10.981Z" transform="translate(-218.753 -210.393)" fill="#4d4e4e"/>
      <g id="Grupo_927253" data-name="Grupo 927253" transform="translate(1640.094 1128.792)">
        <path id="Trazado_750641" data-name="Trazado 750641" d="M1948.1,1387.448h-12.347c-.9-1.425-2.586-2.322-5.013-2.322-4.538,0-7.071,3.219-7.071,8.179,0,5.8,2.638,8.706,8.39,8.706a7.661,7.661,0,0,0,6.543-3.271h-9.34v-8.284h19.048v11.714a19.459,19.459,0,0,1-17.518,10.131c-11.767,0-19-7.862-19-19s7.176-19,18.89-19C1940.608,1374.309,1946.992,1379.48,1948.1,1387.448Z" transform="translate(-1911.798 -1374.045)" fill="#1a1818"/>
        <path id="Trazado_750642" data-name="Trazado 750642" d="M2006.322,1375.166h11.714v37.357h-11.714Z" transform="translate(-1965.589 -1374.533)" fill="#1a1818"/>
        <path id="Trazado_750643" data-name="Trazado 750643" d="M2058.83,1412.057c-8.548,0-15.249-3.958-15.777-12.347h12.452c.211,2.744,1.689,3.219,2.85,3.219s2.268-.528,2.268-1.847c-.052-5.065-17.676-3.219-17.465-15.987,0-7.493,6.332-11.4,14.3-11.4,9.022,0,14.827,4.327,15.143,12.083H2059.99c-.105-2.269-1.319-2.955-2.585-2.955a1.671,1.671,0,0,0-1.689,1.9c0,4.7,17.361,3.9,17.361,15.407C2073.077,1406.991,2067.852,1412.057,2058.83,1412.057Z" transform="translate(-1986.491 -1373.697)" fill="#1a1818"/>
      </g>
      <g id="Grupo_927254" data-name="Grupo 927254" transform="translate(1679.75 1032.484)">
        <line id="Línea_1160" data-name="Línea 1160" y1="23.254" transform="translate(1.028 1.028)" fill="#ed5a58"/>
        <path id="Trazado_750644" data-name="Trazado 750644" d="M2004.852,1175.519a1.028,1.028,0,0,1-1.028-1.028v-23.253a1.028,1.028,0,1,1,2.056,0v23.253A1.028,1.028,0,0,1,2004.852,1175.519Z" transform="translate(-2003.824 -1150.209)" fill="#4d4e4e"/>
      </g>
      <g id="Grupo_927255" data-name="Grupo 927255" transform="translate(1761.394 1088.295)">
        <line id="Línea_1161" data-name="Línea 1161" y1="11.628" x2="20.138" transform="translate(1.028 1.028)" fill="#ed5a58"/>
        <path id="Trazado_750645" data-name="Trazado 750645" d="M2194.312,1293.406a1.028,1.028,0,0,1-.515-1.919l20.137-11.627a1.028,1.028,0,0,1,1.028,1.781l-20.138,11.628A1.018,1.018,0,0,1,2194.312,1293.406Z" transform="translate(-2193.282 -1279.722)" fill="#4d4e4e"/>
      </g>
      <g id="Grupo_927256" data-name="Grupo 927256" transform="translate(1763.954 1192.721)">
        <line id="Línea_1162" data-name="Línea 1162" x2="20.139" y2="11.625" transform="translate(1.028 1.028)" fill="#ed5a58"/>
        <path id="Trazado_750646" data-name="Trazado 750646" d="M2220.39,1535.729a1.03,1.03,0,0,1-.513-.138l-20.139-11.626a1.028,1.028,0,0,1,1.028-1.781l20.14,11.625a1.028,1.028,0,0,1-.515,1.919Z" transform="translate(-2199.223 -1522.047)" fill="#4d4e4e"/>
      </g>
      <g id="Grupo_927257" data-name="Grupo 927257" transform="translate(1684.87 1241.34)">
        <line id="Línea_1163" data-name="Línea 1163" x2="0.003" y2="23.254" transform="translate(1.028 1.028)" fill="#ed5a58"/>
        <path id="Trazado_750647" data-name="Trazado 750647" d="M2016.736,1660.18a1.028,1.028,0,0,1-1.028-1.028l0-23.253a1.028,1.028,0,0,1,2.056,0l0,23.253A1.028,1.028,0,0,1,2016.736,1660.18Z" transform="translate(-2015.705 -1634.871)" fill="#4d4e4e"/>
      </g>
      <g id="Grupo_927258" data-name="Grupo 927258" transform="translate(1583.085 1197.164)">
        <line id="Línea_1164" data-name="Línea 1164" x1="20.136" y2="11.63" transform="translate(1.028 1.028)" fill="#ed5a58"/>
        <path id="Trazado_750648" data-name="Trazado 750648" d="M1780.536,1546.045a1.028,1.028,0,0,1-.516-1.919l20.137-11.63a1.028,1.028,0,0,1,1.029,1.78l-20.136,11.63A1.025,1.025,0,0,1,1780.536,1546.045Z" transform="translate(-1779.507 -1532.359)" fill="#4d4e4e"/>
      </g>
      <g id="Grupo_927259" data-name="Grupo 927259" transform="translate(1580.51 1092.743)">
        <line id="Línea_1165" data-name="Línea 1165" x1="20.14" y1="11.623" transform="translate(1.028 1.028)" fill="#ed5a58"/>
        <path id="Trazado_750649" data-name="Trazado 750649" d="M1794.7,1303.724a1.02,1.02,0,0,1-.513-.138l-20.141-11.623a1.028,1.028,0,0,1,1.028-1.781l20.141,11.623a1.028,1.028,0,0,1-.515,1.918Z" transform="translate(-1773.532 -1290.044)" fill="#4d4e4e"/>
      </g>
      <g id="Grupo_927260" data-name="Grupo 927260" transform="translate(1798.439 1033.782)">
        <path id="Trazado_750650" data-name="Trazado 750650" d="M2287.766,1232.072h116.847a8.508,8.508,0,0,0,8.419-9.8l-.344-2.26-2.206-14.476-1.361-8.932-.85-5.577-2.162-14.191-2.5-16.38a8.52,8.52,0,0,0-8.421-7.235h-98.006a8.369,8.369,0,0,0-1.145.078,8.514,8.514,0,0,0-7.274,7.158l-.6,3.957-2.976,19.536-1.177,7.731-1.643,10.787-2.266,14.85-.754,4.955A8.514,8.514,0,0,0,2287.766,1232.072Z" transform="translate(-2279.249 -1153.222)" fill="#74cadb" stroke="#4d4e4e" stroke-miterlimit="10" stroke-width="4.196"/>
        <path id="Trazado_750651" data-name="Trazado 750651" d="M2450.3,1251.224c.354,1.036,2.978,9.206,4.632,12.032h43.887a8.514,8.514,0,0,0,8.419-9.8l-6.923-45.437c-4.2,2.363-12.846,4.667-30.657,4.306-7.835-.16-19.208.38-23.274,8.48C2442.089,1229.358,2447.526,1243.049,2450.3,1251.224Z" transform="translate(-2373.452 -1184.407)" fill="#42a183" stroke="#4d4e4e" stroke-miterlimit="10" stroke-width="2.997"/>
        <path id="Trazado_750652" data-name="Trazado 750652" d="M2479.9,1269.447a38.292,38.292,0,0,0,14.554,6.031c4.192.845,8.348,1.191,9.643,5.564h9.358a8.514,8.514,0,0,0,8.419-9.8L2517.111,1240c-1.3.1-2.709.147-4.218.147-9.991,0-27.91-3.428-36.254,3.322C2466.3,1251.833,2470.163,1262.687,2479.9,1269.447Z" transform="translate(-2388.089 -1202.193)" fill="#cdca2b" stroke="#4d4e4e" stroke-miterlimit="10" stroke-width="2.997"/>
        <path id="Trazado_750653" data-name="Trazado 750653" d="M2540.815,1269.828c3.322,5.993,9.077,9.555,13.616,14.455.829.9,1.808,2.237,2.911,3.619a8.514,8.514,0,0,0,3.653-8.343l-3.911-25.669c-4.613-.1-11.64,1.457-13.207,2.379C2538.834,1259.23,2538.093,1264.912,2540.815,1269.828Z" transform="translate(-2427.212 -1210.507)" fill="#f3aa63" stroke="#4d4e4e" stroke-miterlimit="10" stroke-width="2.997"/>
        <path id="Trazado_750654" data-name="Trazado 750654" d="M2563.918,1279.871c2.121,4.928,6.657,7.484,10.387,8.8l-2.206-14.476C2568.049,1273.527,2561.064,1273.233,2563.918,1279.871Z" transform="translate(-2440.865 -1221.875)" fill="#b7787a" stroke="#4d4e4e" stroke-miterlimit="10" stroke-width="2.997"/>
        <path id="Trazado_750655" data-name="Trazado 750655" d="M2287.766,1282.86h51.823c-4.177-2.565-8.287-5.453-9.532-6.194-3.653-2.17-38.52-30.553-46.047-34.2l-4.663,30.592A8.514,8.514,0,0,0,2287.766,1282.86Z" transform="translate(-2279.249 -1204.011)" fill="#cdca2b" stroke="#4d4e4e" stroke-miterlimit="10" stroke-width="2.997"/>
        <path id="Trazado_750656" data-name="Trazado 750656" d="M2287.766,1297.105H2321.9a146.1,146.1,0,0,1-14.264-12.035c-11.045-10.6-19.6-15.4-25.268-17.568l-3.02,19.8A8.514,8.514,0,0,0,2287.766,1297.105Z" transform="translate(-2279.249 -1218.256)" fill="#f3aa63" stroke="#4d4e4e" stroke-miterlimit="10" stroke-width="2.997"/>
        <path id="Trazado_750657" data-name="Trazado 750657" d="M2287.766,1316.716h13.349c-3.908-6.621-13.535-12.208-19.009-14.223-.258-.1-.979-.29-2-.529l-.754,4.954A8.514,8.514,0,0,0,2287.766,1316.716Z" transform="translate(-2279.249 -1237.867)" fill="#b7787a" stroke="#4d4e4e" stroke-miterlimit="10" stroke-width="2.997"/>
        <path id="Trazado_750658" data-name="Trazado 750658" d="M2318.219,1153.3a98.6,98.6,0,0,0,10.919,18.583c8.888,11.585,23.171,24.227,38.307,15.382,8.207-4.794,14.51-16.279,20.784-23.426.974-1.111,4.758-6.3,8.39-10.617h-77.256A8.368,8.368,0,0,0,2318.219,1153.3Z" transform="translate(-2301.425 -1153.222)" fill="#42a183" stroke="#4d4e4e" stroke-miterlimit="10" stroke-width="2.997"/>
        <path id="Trazado_750659" data-name="Trazado 750659" d="M2358.214,1153.224c3.727,14.581,20.525,28.466,34.859,16.718,5.5-4.51,9.5-10.477,13.068-16.72C2406.141,1153.222,2358.214,1153.222,2358.214,1153.224Z" transform="translate(-2324.185 -1153.222)" fill="#cdca2b" stroke="#4d4e4e" stroke-miterlimit="10" stroke-width="2.997"/>
        <path id="Trazado_750660" data-name="Trazado 750660" d="M2380.865,1153.222c4.079,5.593,9.212,9.862,15.349,9.759,6.781-.114,10.679-4.466,12.911-9.759Z" transform="translate(-2337.075 -1153.222)" fill="#f3aa63" stroke="#4d4e4e" stroke-miterlimit="10" stroke-width="2.997"/>
        <path id="Trazado_750661" data-name="Trazado 750661" d="M2293.031,1198.731c2.769,1.565,6.091,2.965,9.627,4.973,3.262,1.849,22.047,12.618,15.974,1.149-3.634-6.868-9.912-11.745-14.987-17.469-1.273-1.436-4.422-4.627-7.638-8.188Z" transform="translate(-2287.092 -1168.002)" fill="#4b88bb" stroke="#4d4e4e" stroke-miterlimit="10" stroke-width="2.997"/>
      </g>
      <g id="Grupo_927261" data-name="Grupo 927261" transform="translate(1798.483 1173.867)">
        <path id="Trazado_750662" data-name="Trazado 750662" d="M2404.678,1557.121H2287.865a8.514,8.514,0,0,1-8.416-9.8l9.415-61.8a8.515,8.515,0,0,1,8.419-7.231h97.977a8.511,8.511,0,0,1,8.416,7.231l9.417,61.8A8.513,8.513,0,0,1,2404.678,1557.121Z" transform="translate(-2279.35 -1478.295)" fill="#ed5a58" stroke="#4d4e4e" stroke-miterlimit="10" stroke-width="4.195"/>
        <path id="Trazado_750663" data-name="Trazado 750663" d="M2421.47,1539.7l-1.028,1.488-25.958-17.945-29.847-3.006v-11.561l8.166-13.945V1478.3h1.807v16.93l-8.166,13.945v9.436l28.683,2.89Z" transform="translate(-2327.885 -1478.295)" fill="#4d4e4e"/>
        <line id="Línea_1166" data-name="Línea 1166" y1="21.024" x2="14.583" transform="translate(23.074 41.127)" fill="none" stroke="#4d4e4e" stroke-miterlimit="10" stroke-width="4.195"/>
        <path id="Trazado_750664" data-name="Trazado 750664" d="M2485.171,1515.347l-1.485,1.028-9.175-13.229-22.216-8.426-8.922-16.424h2.055l8.135,14.972,22.115,8.387Z" transform="translate(-2372.691 -1478.295)" fill="#4d4e4e"/>
        <line id="Línea_1167" data-name="Línea 1167" x1="14.583" y2="9.113" transform="translate(93.071 10.789)" fill="none" stroke="#4d4e4e" stroke-miterlimit="10" stroke-width="4.195"/>
        <circle id="Elipse_6921" data-name="Elipse 6921" cx="2.579" cy="2.579" r="2.579" transform="translate(63.552 45.37) rotate(-67.5)" fill="#fff" stroke="#4d4e4e" stroke-miterlimit="10" stroke-width="2.996"/>
        <circle id="Elipse_6922" data-name="Elipse 6922" cx="2.578" cy="2.578" r="2.578" transform="translate(90.493 59.573)" fill="#fff" stroke="#4d4e4e" stroke-miterlimit="10" stroke-width="2.996"/>
        <circle id="Elipse_6923" data-name="Elipse 6923" cx="2.578" cy="2.578" r="2.578" transform="translate(20.375 59.573)" fill="#fff" stroke="#4d4e4e" stroke-miterlimit="10" stroke-width="2.996"/>
        <circle id="Elipse_6924" data-name="Elipse 6924" cx="2.578" cy="2.578" r="2.578" transform="translate(34.699 38.995) rotate(-9.217)" fill="#fff" stroke="#4d4e4e" stroke-miterlimit="10" stroke-width="2.996"/>
        <circle id="Elipse_6925" data-name="Elipse 6925" cx="2.578" cy="2.578" r="2.578" transform="translate(107.912 34.471)" fill="#fff" stroke="#4d4e4e" stroke-miterlimit="10" stroke-width="2.996"/>
        <circle id="Elipse_6926" data-name="Elipse 6926" cx="2.578" cy="2.578" r="2.578" transform="translate(105.076 8.21)" fill="#fff" stroke="#4d4e4e" stroke-miterlimit="10" stroke-width="2.996"/>
      </g>
      <g id="Grupo_927262" data-name="Grupo 927262" transform="translate(1434.344 1173.843)">
        <path id="Trazado_750665" data-name="Trazado 750665" d="M1550.29,1478.241h-98.007a8.516,8.516,0,0,0-8.419,7.233l-9.42,61.817a8.516,8.516,0,0,0,8.419,9.8H1559.71a8.516,8.516,0,0,0,8.419-9.8l-9.42-61.817A8.517,8.517,0,0,0,1550.29,1478.241Z" transform="translate(-1434.345 -1478.241)" fill="#f1bd4f" stroke="#4d4e4e" stroke-miterlimit="10" stroke-width="4.196"/>
        <path id="Trazado_750666" data-name="Trazado 750666" d="M1498.55,1600.847l-5.055,8.755h10.11Z" transform="translate(-1468.005 -1548.012)" fill="#9d5b29" stroke="#4d4e4e" stroke-miterlimit="10" stroke-width="3.597"/>
        <path id="Trazado_750667" data-name="Trazado 750667" d="M1607.153,1578.025l-5.055,8.755h10.11Z" transform="translate(-1529.808 -1535.025)" fill="#9d5b29" stroke="#4d4e4e" stroke-miterlimit="10" stroke-width="3.597"/>
        <path id="Trazado_750668" data-name="Trazado 750668" d="M1604.1,1502.718l-3.725,6.451h7.449Z" transform="translate(-1528.825 -1492.17)" fill="#9d5b29" stroke="#4d4e4e" stroke-miterlimit="10" stroke-width="3.597"/>
        <path id="Trazado_750669" data-name="Trazado 750669" d="M1504.325,1510.5l-4.611,7.988h9.223Z" transform="translate(-1471.545 -1496.599)" fill="#9d5b29" stroke="#4d4e4e" stroke-miterlimit="10" stroke-width="3.597"/>
        <path id="Trazado_750670" data-name="Trazado 750670" d="M1667.51,1609.648l-5.055,8.756h10.11Z" transform="translate(-1564.156 -1553.021)" fill="#9d5b29" stroke="#4d4e4e" stroke-miterlimit="10" stroke-width="3.597"/>
        <circle id="Elipse_6927" data-name="Elipse 6927" cx="2.917" cy="2.917" r="2.917" transform="translate(103.344 28.018)" fill="#9d5b29" stroke="#4d4e4e" stroke-miterlimit="10" stroke-width="2.997"/>
        <circle id="Elipse_6928" data-name="Elipse 6928" cx="2.917" cy="2.917" r="2.917" transform="translate(59.499 61.005)" fill="#9d5b29" stroke="#4d4e4e" stroke-miterlimit="10" stroke-width="2.997"/>
        <circle id="Elipse_6929" data-name="Elipse 6929" cx="2.917" cy="2.917" r="2.917" transform="translate(45.203 36.508)" fill="#9d5b29" stroke="#4d4e4e" stroke-miterlimit="10" stroke-width="2.997"/>
      </g>
      <g id="Grupo_927263" data-name="Grupo 927263" transform="translate(1616.39 1275.884)">
        <path id="Trazado_750671" data-name="Trazado 750671" d="M1982.159,1793.883H1865.31a8.517,8.517,0,0,1-8.418-9.8l7.426-48.725,1.995-13.094a8.515,8.515,0,0,1,8.418-7.233h98.007a8.518,8.518,0,0,1,8.421,7.233l4.448,29.192,4.973,32.627A8.517,8.517,0,0,1,1982.159,1793.883Z" transform="translate(-1856.793 -1715.033)" fill="none" stroke="#4d4e4e" stroke-miterlimit="10" stroke-width="4.196"/>
        <path id="Trazado_750672" data-name="Trazado 750672" d="M2074.008,1751.458l-51.779-8.3-10.092-27.745,1.607-.382h47.4a8.518,8.518,0,0,1,8.421,7.233Z" transform="translate(-1945.195 -1715.033)" fill="#f0d677" stroke="#4e504f" stroke-miterlimit="10" stroke-width="3.597"/>
        <path id="Trazado_750673" data-name="Trazado 750673" d="M2119.995,1836.867h-6.884l-14.1-18.906.261-27.394,24.176,3.875,4.973,32.628A8.517,8.517,0,0,1,2119.995,1836.867Z" transform="translate(-1994.63 -1758.017)" fill="#f99a42" stroke="#4e4f4f" stroke-miterlimit="10" stroke-width="3.597"/>
        <path id="Trazado_750674" data-name="Trazado 750674" d="M2042.182,1873.043h-67.815l1.279-8.63,52.432-10.276Z" transform="translate(-1923.701 -1794.193)" fill="#82d3f2" stroke="#4e504f" stroke-miterlimit="10" stroke-width="3.597"/>
        <path id="Trazado_750675" data-name="Trazado 750675" d="M1977.332,1822.4l4.667-37.67,20.422-4.422,27.6,4.422-.26,27.395Z" transform="translate(-1925.388 -1752.177)" fill="#e3766a" stroke="#4e504f" stroke-miterlimit="10" stroke-width="3.597"/>
        <path id="Trazado_750676" data-name="Trazado 750676" d="M1913.406,1774.426l-5.947,46.3H1865.31a8.516,8.516,0,0,1-8.418-9.8l7.426-48.726Z" transform="translate(-1856.793 -1741.875)" fill="#6fc5c3" stroke="#4e504f" stroke-miterlimit="10" stroke-width="3.597"/>
        <path id="Trazado_750677" data-name="Trazado 750677" d="M1943.765,1743.161l-20.422,4.422-49.088-12.223,1.995-13.094a8.515,8.515,0,0,1,8.418-7.233h47.93l1.074.382Z" transform="translate(-1866.73 -1715.033)" fill="#d2cd38" stroke="#4e504f" stroke-miterlimit="10" stroke-width="3.597"/>
      </g>
      <g id="Grupo_927270" data-name="Grupo 927270" transform="translate(1616.678 1075.901)">
        <g id="Grupo_927266" data-name="Grupo 927266" transform="translate(4.509 8.589)">
          <rect id="Rectángulo_299868" data-name="Rectángulo 299868" width="6.43" height="8.352" rx="3.215" transform="translate(14.126 5.887) rotate(32.069)" fill="#1f8774"/>
          <rect id="Rectángulo_299869" data-name="Rectángulo 299869" width="0.554" height="1.7" transform="translate(17.518 6.006) rotate(32.069)" fill="#1f8774"/>
          <path id="Trazado_750678" data-name="Trazado 750678" d="M1907.544,1278.865a3.88,3.88,0,0,0,5.434.767l-4.667-6.2A3.88,3.88,0,0,0,1907.544,1278.865Z" transform="translate(-1890.026 -1272.336)" fill="#1f8774"/>
          <g id="Grupo_927264" data-name="Grupo 927264" transform="translate(16.492 10.333)">
            <rect id="Rectángulo_299870" data-name="Rectángulo 299870" width="0.554" height="1.074" transform="translate(0.571 2.976) rotate(-57.93)" fill="#1f8774"/>
            <rect id="Rectángulo_299871" data-name="Rectángulo 299871" width="3.344" height="3.344" rx="1.271" transform="translate(1.776 3.077) rotate(32.069)" fill="#383e5a"/>
            <rect id="Rectángulo_299872" data-name="Rectángulo 299872" width="3.344" height="3.344" rx="1.271" transform="translate(4.97 5.078) rotate(32.069)" fill="#383e5a"/>
            <rect id="Rectángulo_299873" data-name="Rectángulo 299873" width="3.344" height="3.344" rx="1.271" transform="matrix(0.847, 0.531, -0.531, 0.847, 8.164, 7.08)" fill="#383e5a"/>
            <rect id="Rectángulo_299874" data-name="Rectángulo 299874" width="3.344" height="3.344" rx="1.271" transform="matrix(0.847, 0.531, -0.531, 0.847, 3.703, 0)" fill="#383e5a"/>
            <rect id="Rectángulo_299875" data-name="Rectángulo 299875" width="3.344" height="3.344" rx="1.271" transform="matrix(0.847, 0.531, -0.531, 0.847, 6.898, 2.001)" fill="#383e5a"/>
            <rect id="Rectángulo_299876" data-name="Rectángulo 299876" width="3.344" height="3.344" rx="1.271" transform="matrix(0.847, 0.531, -0.531, 0.847, 10.092, 4.003)" fill="#383e5a"/>
          </g>
          <g id="Grupo_927265" data-name="Grupo 927265" transform="translate(0 0)">
            <rect id="Rectángulo_299877" data-name="Rectángulo 299877" width="0.554" height="1.074" transform="matrix(-0.531, 0.847, -0.847, -0.531, 11.908, 9.426)" fill="#1f8774"/>
            <rect id="Rectángulo_299878" data-name="Rectángulo 299878" width="3.344" height="3.344" rx="1.271" transform="matrix(-0.847, -0.531, 0.531, -0.847, 9.223, 11.689)" fill="#383e5a"/>
            <rect id="Rectángulo_299879" data-name="Rectángulo 299879" width="3.344" height="3.344" rx="1.271" transform="translate(6.028 9.688) rotate(-147.931)" fill="#383e5a"/>
            <rect id="Rectángulo_299880" data-name="Rectángulo 299880" width="3.344" height="3.344" rx="1.271" transform="translate(2.834 7.687) rotate(-147.931)" fill="#383e5a"/>
            <rect id="Rectángulo_299881" data-name="Rectángulo 299881" width="3.344" height="3.344" rx="1.271" transform="matrix(-0.847, -0.531, 0.531, -0.847, 11.15, 8.612)" fill="#383e5a"/>
            <rect id="Rectángulo_299882" data-name="Rectángulo 299882" width="3.344" height="3.344" rx="1.271" transform="matrix(-0.847, -0.531, 0.531, -0.847, 7.956, 6.611)" fill="#383e5a"/>
            <rect id="Rectángulo_299883" data-name="Rectángulo 299883" width="3.344" height="3.344" rx="1.271" transform="translate(4.762 4.61) rotate(-147.931)" fill="#383e5a"/>
          </g>
          <path id="Trazado_750679" data-name="Trazado 750679" d="M1902.454,1289.316l-1.284-.8-4.434,7.078,1.284.8a1.7,1.7,0,0,0,2.343-.538l2.629-4.2A1.7,1.7,0,0,0,1902.454,1289.316Z" transform="translate(-1884.32 -1280.918)" fill="#1a1718" opacity="0.12"/>
        </g>
        <g id="Grupo_927269" data-name="Grupo 927269" transform="translate(0 0)">
          <g id="Grupo_927267" data-name="Grupo 927267" transform="translate(22.848 19.236)">
            <path id="Trazado_750680" data-name="Trazado 750680" d="M1910.746,1337.3l-.265-1.29c.355-.073.712-.157,1.059-.251l.343,1.271C1911.51,1337.128,1911.127,1337.219,1910.746,1337.3Z" transform="translate(-1910.482 -1318.451)" fill="#4d4e4e"/>
            <path id="Trazado_750681" data-name="Trazado 750681" d="M1917.894,1317.6l-.485-1.225a17.791,17.791,0,0,0,1.841-.853l.621,1.161A19.278,19.278,0,0,1,1917.894,1317.6Zm3.836-2.052-.748-1.083a18.117,18.117,0,0,0,1.6-1.245l.865.992A19.269,19.269,0,0,1,1921.73,1315.551Zm3.277-2.857-.971-.889a18.072,18.072,0,0,0,1.283-1.572l1.066.774A19.524,19.524,0,0,1,1925.008,1312.693Zm2.555-3.518-1.146-.648a18.007,18.007,0,0,0,.9-1.819l1.213.515A19.259,19.259,0,0,1,1927.563,1309.176Zm1.7-4L1928,1304.8a17.814,17.814,0,0,0,.463-1.974l1.3.227A19.107,19.107,0,0,1,1929.261,1305.174Z" transform="translate(-1914.424 -1299.711)" fill="#4d4e4e"/>
            <path id="Trazado_750682" data-name="Trazado 750682" d="M1944.922,1296.767l-1.314-.079c.021-.36.033-.726.033-1.089h1.316C1944.957,1295.989,1944.946,1296.381,1944.922,1296.767Z" transform="translate(-1929.333 -1295.599)" fill="#4d4e4e"/>
          </g>
          <path id="Trazado_750683" data-name="Trazado 750683" d="M1876.7,1314.835a19.258,19.258,0,0,1-19.236-19.236h1.317a17.936,17.936,0,0,0,21.532,17.556l.264,1.29A19.379,19.379,0,0,1,1876.7,1314.835Z" transform="translate(-1857.461 -1276.363)" fill="#4d4e4e"/>
          <g id="Grupo_927268" data-name="Grupo 927268">
            <path id="Trazado_750684" data-name="Trazado 750684" d="M1899.469,1252.309l-.078-1.314c.387-.023.78-.035,1.168-.035v1.317C1900.2,1252.277,1899.83,1252.288,1899.469,1252.309Z" transform="translate(-1881.322 -1250.96)" fill="#4d4e4e"/>
            <path id="Trazado_750685" data-name="Trazado 750685" d="M1859.572,1267.227l-1.293-.25a19.2,19.2,0,0,1,.646-2.45l1.248.42A17.821,17.821,0,0,0,1859.572,1267.227Zm1.5-4.459-1.182-.58a19.3,19.3,0,0,1,1.264-2.194l1.095.731A17.92,17.92,0,0,0,1861.071,1262.768Zm2.612-3.915-.99-.868a19.4,19.4,0,0,1,1.79-1.791l.869.99A18.011,18.011,0,0,0,1863.684,1258.853Zm3.541-3.105-.731-1.1a19.255,19.255,0,0,1,2.194-1.265l.581,1.181A18.037,18.037,0,0,0,1867.224,1255.748Zm4.226-2.077-.419-1.249a19.257,19.257,0,0,1,2.45-.646l.25,1.293A17.852,17.852,0,0,0,1871.45,1253.671Z" transform="translate(-1857.927 -1251.425)" fill="#4d4e4e"/>
            <path id="Trazado_750686" data-name="Trazado 750686" d="M1858.778,1294.057h-1.317c0-.388.012-.781.035-1.168l1.314.078C1858.788,1293.329,1858.778,1293.7,1858.778,1294.057Z" transform="translate(-1857.461 -1274.82)" fill="#4d4e4e"/>
          </g>
          <path id="Trazado_750687" data-name="Trazado 750687" d="M1921.336,1270.2h-1.316a17.94,17.94,0,0,0-17.92-17.919v-1.317A19.258,19.258,0,0,1,1921.336,1270.2Z" transform="translate(-1882.863 -1250.96)" fill="#4d4e4e"/>
        </g>
      </g>
      <circle id="Elipse_6930" data-name="Elipse 6930" cx="1.969" cy="1.969" r="1.969" transform="translate(1715.727 1202.124) rotate(-45)" fill="none" stroke="#4d4e4e" stroke-miterlimit="10" stroke-width="2.226"/>
      <circle id="Elipse_6931" data-name="Elipse 6931" cx="1.969" cy="1.969" r="1.969" transform="translate(1683.565 1086.517) rotate(-45)" fill="none" stroke="#4d4e4e" stroke-miterlimit="10" stroke-width="2.226"/>
      <circle id="Elipse_6932" data-name="Elipse 6932" cx="1.969" cy="1.969" r="1.969" transform="translate(1618.992 1161.142) rotate(-13.333)" fill="none" stroke="#4d4e4e" stroke-miterlimit="10" stroke-width="2.226"/>
      <circle id="Elipse_6933" data-name="Elipse 6933" cx="1.969" cy="1.969" r="1.969" transform="translate(1720.997 1198.543) rotate(-45)" fill="none" stroke="#4d4e4e" stroke-miterlimit="10" stroke-width="2.226"/>
    </g>
  </g>
</svg>
