<svg xmlns="http://www.w3.org/2000/svg" width="399" height="217.833" viewBox="0 0 399 217.833">
  <g id="Grupo_927222" data-name="Grupo 927222" transform="translate(-936 -4157.917)">
    <g id="deforestacion-01" transform="translate(936 4157.917)">
      <g id="OBJECTS" transform="translate(0 0)">
        <path id="Trazado_254296" data-name="Trazado 254296" d="M70.5,236.551c.227-14.154-27.152-37.682-32.285-78.375C33.93,124.435,60.248,94.723,85.48,83.8c23.546-10.18,35.2-6.484,50.931-14.872,22.018-11.744,24.7-38.79,57.082-48.235,15.394-4.492,31.73-.824,46.246,5.928S267.876,42.436,283.163,47c15.388,4.6,31.692,3.473,47.661,2.16,53.88-4.453,88.565,36.736,86.563,70.466-1.187,20.038-8.55,33.641-18.9,45.586-5.822,6.713-14.435,14.093-11.593,22.631,1.263,3.9,4.717,6.479,7.577,9.357,9.547,9.7,12.957,26.16,8.745,39.352Z" transform="translate(-28.984 -18.718)" fill="#eae696"/>
        <path id="Trazado_254396" data-name="Trazado 254396" d="M419.833,408.426H23.167A1.112,1.112,0,0,1,22,407.385h0a1.107,1.107,0,0,1,1.167-1.035H419.833A1.107,1.107,0,0,1,421,407.385h0a1.112,1.112,0,0,1-1.167,1.041Z" transform="translate(-22 -190.593)" fill="#fda829"/>
      </g>
    </g>
    <g id="Grupo_927221" data-name="Grupo 927221" transform="translate(768.205 3971.098)">
      <g id="Grupo_927176" data-name="Grupo 927176" transform="translate(269.491 326.323)">
        <g id="Grupo_927175" data-name="Grupo 927175" transform="translate(8.059)">
          <g id="Grupo_927174" data-name="Grupo 927174">
            <g id="Grupo_927089" data-name="Grupo 927089">
              <path id="Trazado_750333" data-name="Trazado 750333" d="M285.713,280.92l123.449-1.062,32.832,57.434H258.134Z" transform="translate(-258.134 -279.858)" fill="#fff9d6"/>
            </g>
            <g id="Grupo_927090" data-name="Grupo 927090" transform="translate(149.587 46.013)">
              <path id="Trazado_750334" data-name="Trazado 750334" d="M379.452,310.289a30.908,30.908,0,0,0-6.456-.26c-2.94.387-3.32,1.712-4,2.861-.814,1.334-2.064,2.472-5.217,3.055a40.906,40.906,0,0,1-7.867.5l1.2,3.087,27.662-.006-5.035-9.211Z" transform="translate(-355.91 -309.934)" fill="#dfcaa7"/>
              <path id="Trazado_750335" data-name="Trazado 750335" d="M379.452,310.289a30.908,30.908,0,0,0-6.456-.26c-2.94.387-3.32,1.712-4,2.861-.814,1.334-2.064,2.472-5.217,3.055a40.906,40.906,0,0,1-7.867.5l1.2,3.087,27.662-.006-5.035-9.211Z" transform="translate(-355.91 -309.934)" fill="none" stroke="#cab899" stroke-miterlimit="10" stroke-width="0.379"/>
            </g>
            <g id="Grupo_927091" data-name="Grupo 927091" transform="translate(145.975 43.167)">
              <path id="Trazado_750336" data-name="Trazado 750336" d="M364.515,314.888c1.749-.924,1.844-2.238,2.815-3.337,1.1-1.262,3.23-2.182,6.687-2.276a47.178,47.178,0,0,1,6.037.326l-.834-1.527-25.672.041,2.974,7.671C359.656,315.863,362.872,315.745,364.515,314.888Z" transform="translate(-353.549 -308.074)" fill="#dfcaa7"/>
              <path id="Trazado_750337" data-name="Trazado 750337" d="M364.515,314.888c1.749-.924,1.844-2.238,2.815-3.337,1.1-1.262,3.23-2.182,6.687-2.276a47.178,47.178,0,0,1,6.037.326l-.834-1.527-25.672.041,2.974,7.671C359.656,315.863,362.872,315.745,364.515,314.888Z" transform="translate(-353.549 -308.074)" fill="none" stroke="#cab899" stroke-miterlimit="10" stroke-width="0.379"/>
            </g>
            <g id="Grupo_927092" data-name="Grupo 927092" transform="translate(140.679 29.472)">
              <path id="Trazado_750338" data-name="Trazado 750338" d="M350.088,299.2l23.48-.079,6.8,12.44-25.471.044Z" transform="translate(-350.088 -299.122)" fill="#dfcaa7"/>
              <path id="Trazado_750339" data-name="Trazado 750339" d="M350.088,299.2l23.48-.079,6.8,12.44-25.471.044Z" transform="translate(-350.088 -299.122)" fill="none" stroke="#cab899" stroke-miterlimit="10" stroke-width="0.379"/>
            </g>
            <g id="Grupo_927093" data-name="Grupo 927093" transform="translate(139.135 25.477)">
              <path id="Trazado_750340" data-name="Trazado 750340" d="M349.078,296.6l1.015,2.617,23.261-.082-1.435-2.625Z" transform="translate(-349.078 -296.511)" fill="#dfcaa7"/>
              <path id="Trazado_750341" data-name="Trazado 750341" d="M349.078,296.6l1.015,2.617,23.261-.082-1.435-2.625Z" transform="translate(-349.078 -296.511)" fill="none" stroke="#cab899" stroke-miterlimit="10" stroke-width="0.379"/>
            </g>
            <path id="Trazado_750342" data-name="Trazado 750342" d="M347.9,293.555l1.059,2.732,22.531-.1-1.5-2.739Z" transform="translate(-210.57 -272.655)" fill="#91b051" stroke="#839e42" stroke-miterlimit="10" stroke-width="0.346"/>
            <g id="Grupo_927094" data-name="Grupo 927094" transform="translate(135.339 15.662)">
              <path id="Trazado_750343" data-name="Trazado 750343" d="M369.616,293.29l-1.747-3.2-21.271.117,1.236,3.187Z" transform="translate(-346.597 -290.095)" fill="#dfcaa7"/>
              <path id="Trazado_750344" data-name="Trazado 750344" d="M369.616,293.29l-1.747-3.2-21.271.117,1.236,3.187Z" transform="translate(-346.597 -290.095)" fill="none" stroke="#cab899" stroke-miterlimit="10" stroke-width="0.379"/>
            </g>
            <g id="Grupo_927095" data-name="Grupo 927095" transform="translate(148.9 11.083)">
              <path id="Trazado_750345" data-name="Trazado 750345" d="M358,287.252c-1.9.363-3.3,1.851-2.088,3.1l6.51-.037-1.743-3.188A11.661,11.661,0,0,0,358,287.252Z" transform="translate(-355.461 -287.102)" fill="#91b051"/>
              <path id="Trazado_750346" data-name="Trazado 750346" d="M358,287.252c-1.9.363-3.3,1.851-2.088,3.1l6.51-.037-1.743-3.188A11.661,11.661,0,0,0,358,287.252Z" transform="translate(-355.461 -287.102)" fill="none" stroke="#839e42" stroke-miterlimit="10" stroke-width="0.346"/>
            </g>
            <g id="Grupo_927096" data-name="Grupo 927096" transform="translate(132.822 9.283)">
              <path id="Trazado_750347" data-name="Trazado 750347" d="M348.038,287.107a10.843,10.843,0,0,0-3.086-1.181l1.989,5.13,4.149-.023A6.275,6.275,0,0,0,348.038,287.107Z" transform="translate(-344.952 -285.926)" fill="#91b051"/>
              <path id="Trazado_750348" data-name="Trazado 750348" d="M348.038,287.107a10.843,10.843,0,0,0-3.086-1.181l1.989,5.13,4.149-.023A6.275,6.275,0,0,0,348.038,287.107Z" transform="translate(-344.952 -285.926)" fill="none" stroke="#839e42" stroke-miterlimit="10" stroke-width="0.346"/>
            </g>
            <g id="Grupo_927097" data-name="Grupo 927097" transform="translate(131.633 6.075)">
              <path id="Trazado_750349" data-name="Trazado 750349" d="M344.175,283.973l.491,1.268A16.047,16.047,0,0,1,351,287.5a8.92,8.92,0,0,1,3.709,4.625l3.991-.023c-1.063-1.613-.251-3.448,1.854-4.249a13.228,13.228,0,0,1,5.22-.618l-1.862-3.407Z" transform="translate(-344.175 -283.829)" fill="#dfcaa7"/>
              <path id="Trazado_750350" data-name="Trazado 750350" d="M344.175,283.973l.491,1.268A16.047,16.047,0,0,1,351,287.5a8.92,8.92,0,0,1,3.709,4.625l3.991-.023c-1.063-1.613-.251-3.448,1.854-4.249a13.228,13.228,0,0,1,5.22-.618l-1.862-3.407Z" transform="translate(-344.175 -283.829)" fill="none" stroke="#cab899" stroke-miterlimit="10" stroke-width="0.379"/>
            </g>
            <g id="Grupo_927098" data-name="Grupo 927098" transform="translate(130 1.852)">
              <path id="Trazado_750351" data-name="Trazado 750351" d="M363.682,283.837l-1.513-2.768-19.062.157,1.07,2.759Z" transform="translate(-343.107 -281.069)" fill="#dfcaa7"/>
              <path id="Trazado_750352" data-name="Trazado 750352" d="M363.682,283.837l-1.513-2.768-19.062.157,1.07,2.759Z" transform="translate(-343.107 -281.069)" fill="none" stroke="#cab899" stroke-miterlimit="10" stroke-width="0.379"/>
            </g>
            <g id="Grupo_927099" data-name="Grupo 927099" transform="translate(105.367 50.047)">
              <path id="Trazado_750353" data-name="Trazado 750353" d="M327.006,312.593l.716,5.552,30.323-.006-1.7-5.568Z" transform="translate(-327.006 -312.571)" fill="#dfcaa7"/>
              <path id="Trazado_750354" data-name="Trazado 750354" d="M327.006,312.593l.716,5.552,30.323-.006-1.7-5.568Z" transform="translate(-327.006 -312.571)" fill="none" stroke="#cab899" stroke-miterlimit="10" stroke-width="0.459"/>
            </g>
            <g id="Grupo_927100" data-name="Grupo 927100" transform="translate(105.403 50.307)">
              <path id="Trazado_750355" data-name="Trazado 750355" d="M339.021,314.864a29.524,29.524,0,0,0-11.991-2.074l.679,5.264,15.5,0A8.437,8.437,0,0,0,339.021,314.864Z" transform="translate(-327.03 -312.741)" fill="#91b051"/>
              <path id="Trazado_750356" data-name="Trazado 750356" d="M339.021,314.864a29.524,29.524,0,0,0-11.991-2.074l.679,5.264,15.5,0A8.437,8.437,0,0,0,339.021,314.864Z" transform="translate(-327.03 -312.741)" fill="none" stroke="#839e42" stroke-miterlimit="10" stroke-width="0.346"/>
            </g>
            <path id="Trazado_750357" data-name="Trazado 750357" d="M355.791,313.228l-1.548-5.113-27.81.044.658,5.1Z" transform="translate(-221.943 -264.885)" fill="#91b051" stroke="#839e42" stroke-miterlimit="10" stroke-width="0.346"/>
            <g id="Grupo_927101" data-name="Grupo 927101" transform="translate(135.669 43.213)">
              <path id="Trazado_750358" data-name="Trazado 750358" d="M348.469,313.23l6.587-.006-1.86-5.12-6.383.01Z" transform="translate(-346.813 -308.104)" fill="#dfcaa7"/>
              <path id="Trazado_750359" data-name="Trazado 750359" d="M348.469,313.23l6.587-.006-1.86-5.12-6.383.01Z" transform="translate(-346.813 -308.104)" fill="none" stroke="#cab899" stroke-miterlimit="10" stroke-width="0.459"/>
            </g>
            <g id="Grupo_927102" data-name="Grupo 927102" transform="translate(137.463 50.04)">
              <path id="Trazado_750360" data-name="Trazado 750360" d="M347.985,312.571l1.789,5.571,7.3,0-2.025-5.573Z" transform="translate(-347.985 -312.566)" fill="#dfcaa7"/>
              <path id="Trazado_750361" data-name="Trazado 750361" d="M347.985,312.571l1.789,5.571,7.3,0-2.025-5.573Z" transform="translate(-347.985 -312.566)" fill="none" stroke="#cab899" stroke-miterlimit="10" stroke-width="0.459"/>
            </g>
            <g id="Grupo_927103" data-name="Grupo 927103" transform="translate(120.763 12.47)">
              <path id="Trazado_750362" data-name="Trazado 750362" d="M337.07,288.071l.559,1.96,10.271-.06-.713-1.962Z" transform="translate(-337.07 -288.009)" fill="#dfcaa7"/>
              <path id="Trazado_750363" data-name="Trazado 750363" d="M337.07,288.071l.559,1.96,10.271-.06-.713-1.962Z" transform="translate(-337.07 -288.009)" fill="none" stroke="#cab899" stroke-miterlimit="10" stroke-width="0.459"/>
            </g>
            <g id="Grupo_927104" data-name="Grupo 927104" transform="translate(119.838 9.228)">
              <path id="Trazado_750364" data-name="Trazado 750364" d="M336.465,285.956l.487,1.7,10-.064-.62-1.707Z" transform="translate(-336.465 -285.89)" fill="#dfcaa7"/>
              <path id="Trazado_750365" data-name="Trazado 750365" d="M336.465,285.956l.487,1.7,10-.064-.62-1.707Z" transform="translate(-336.465 -285.89)" fill="none" stroke="#cab899" stroke-miterlimit="10" stroke-width="0.459"/>
            </g>
            <g id="Grupo_927105" data-name="Grupo 927105" transform="translate(118.939 6.071)">
              <path id="Trazado_750366" data-name="Trazado 750366" d="M335.877,283.9l.413,1.448,9.73-.069-.527-1.449Z" transform="translate(-335.877 -283.827)" fill="#dfcaa7"/>
              <path id="Trazado_750367" data-name="Trazado 750367" d="M335.877,283.9l.413,1.448,9.73-.069-.527-1.449Z" transform="translate(-335.877 -283.827)" fill="none" stroke="#cab899" stroke-miterlimit="10" stroke-width="0.459"/>
            </g>
            <g id="Grupo_927106" data-name="Grupo 927106" transform="translate(117.787 2.032)">
              <path id="Trazado_750368" data-name="Trazado 750368" d="M345.365,283.774l-.94-2.588-9.3.076.738,2.585Z" transform="translate(-335.124 -281.186)" fill="#dfcaa7"/>
              <path id="Trazado_750369" data-name="Trazado 750369" d="M345.365,283.774l-.94-2.588-9.3.076.738,2.585Z" transform="translate(-335.124 -281.186)" fill="none" stroke="#cab899" stroke-miterlimit="10" stroke-width="0.459"/>
            </g>
            <path id="Trazado_750370" data-name="Trazado 750370" d="M342.172,293.629l-3.258-12.379-15.94.131,1.593,12.349Z" transform="translate(-223.776 -279.12)" fill="#91b051" stroke="#839e42" stroke-miterlimit="10" stroke-width="0.346"/>
            <g id="Grupo_927107" data-name="Grupo 927107" transform="translate(81.853 43.296)">
              <path id="Trazado_750371" data-name="Trazado 750371" d="M319.454,313.219l-.177-5.061-7.576.012-.064,5.057Z" transform="translate(-311.637 -308.158)" fill="#dfcaa7"/>
              <path id="Trazado_750372" data-name="Trazado 750372" d="M319.454,313.219l-.177-5.061-7.576.012-.064,5.057Z" transform="translate(-311.637 -308.158)" fill="none" stroke="#cab899" stroke-miterlimit="10" stroke-width="0.33"/>
            </g>
            <g id="Grupo_927108" data-name="Grupo 927108" transform="translate(93.655 43.277)">
              <path id="Trazado_750373" data-name="Trazado 750373" d="M319.66,313.222l7.949-.008-.555-5.068-7.7.012Z" transform="translate(-319.351 -308.146)" fill="#dfcaa7"/>
              <path id="Trazado_750374" data-name="Trazado 750374" d="M319.66,313.222l7.949-.008-.555-5.068-7.7.012Z" transform="translate(-319.351 -308.146)" fill="none" stroke="#cab899" stroke-miterlimit="10" stroke-width="0.33"/>
            </g>
            <g id="Grupo_927109" data-name="Grupo 927109" transform="translate(81.761 50.044)">
              <path id="Trazado_750375" data-name="Trazado 750375" d="M311.647,312.585l-.07,5.566,20.949,0-.61-5.578Z" transform="translate(-311.576 -312.569)" fill="#dfcaa7"/>
              <path id="Trazado_750376" data-name="Trazado 750376" d="M311.647,312.585l-.07,5.566,20.949,0-.61-5.578Z" transform="translate(-311.576 -312.569)" fill="none" stroke="#cab899" stroke-miterlimit="10" stroke-width="0.33"/>
            </g>
            <g id="Grupo_927110" data-name="Grupo 927110" transform="translate(94.348 12.671)">
              <path id="Trazado_750377" data-name="Trazado 750377" d="M319.8,288.163l.158,1.953,3.717-.022-.214-1.953Z" transform="translate(-319.804 -288.14)" fill="#dfcaa7"/>
              <path id="Trazado_750378" data-name="Trazado 750378" d="M319.8,288.163l.158,1.953,3.717-.022-.214-1.953Z" transform="translate(-319.804 -288.14)" fill="none" stroke="#cab899" stroke-miterlimit="10" stroke-width="0.33"/>
            </g>
            <g id="Grupo_927111" data-name="Grupo 927111" transform="translate(94.032 8.483)">
              <path id="Trazado_750379" data-name="Trazado 750379" d="M321.97,285.493c-.8.06-1.582.144-2.373.225l.22,2.706,3.627-.023-.327-3C322.663,285.429,322.224,285.475,321.97,285.493Z" transform="translate(-319.597 -285.403)" fill="#dfcaa7"/>
              <path id="Trazado_750380" data-name="Trazado 750380" d="M321.97,285.493c-.8.06-1.582.144-2.373.225l.22,2.706,3.627-.023-.327-3C322.663,285.429,322.224,285.475,321.97,285.493Z" transform="translate(-319.597 -285.403)" fill="none" stroke="#cab899" stroke-miterlimit="10" stroke-width="0.33"/>
            </g>
            <g id="Grupo_927112" data-name="Grupo 927112" transform="translate(93.507 2.279)">
              <path id="Trazado_750381" data-name="Trazado 750381" d="M323.114,285.858l-.494-4.51-3.366.029.386,4.763A34.483,34.483,0,0,1,323.114,285.858Z" transform="translate(-319.254 -281.348)" fill="#dfcaa7"/>
              <path id="Trazado_750382" data-name="Trazado 750382" d="M323.114,285.858l-.494-4.51-3.366.029.386,4.763A34.483,34.483,0,0,1,323.114,285.858Z" transform="translate(-319.254 -281.348)" fill="none" stroke="#cab899" stroke-miterlimit="10" stroke-width="0.33"/>
            </g>
            <g id="Grupo_927113" data-name="Grupo 927113" transform="translate(88.265 12.706)">
              <path id="Trazado_750383" data-name="Trazado 750383" d="M315.828,288.188l.066,1.951,4.063-.023-.126-1.952Z" transform="translate(-315.828 -288.163)" fill="#dfcaa7"/>
              <path id="Trazado_750384" data-name="Trazado 750384" d="M315.828,288.188l.066,1.951,4.063-.023-.126-1.952Z" transform="translate(-315.828 -288.163)" fill="none" stroke="#cab899" stroke-miterlimit="10" stroke-width="0.33"/>
            </g>
            <g id="Grupo_927114" data-name="Grupo 927114" transform="translate(88.137 8.94)">
              <path id="Trazado_750385" data-name="Trazado 750385" d="M315.744,285.7l.087,2.6,3.966-.026-.165-2.544A25.947,25.947,0,0,1,315.744,285.7Z" transform="translate(-315.744 -285.702)" fill="#dfcaa7"/>
              <path id="Trazado_750386" data-name="Trazado 750386" d="M315.744,285.7l.087,2.6,3.966-.026-.165-2.544A25.947,25.947,0,0,1,315.744,285.7Z" transform="translate(-315.744 -285.702)" fill="none" stroke="#cab899" stroke-miterlimit="10" stroke-width="0.33"/>
            </g>
            <g id="Grupo_927115" data-name="Grupo 927115" transform="translate(87.915 2.322)">
              <path id="Trazado_750387" data-name="Trazado 750387" d="M317.5,286.426a17.761,17.761,0,0,0,2.1-.087l-.321-4.963-3.679.032.165,4.89Q316.6,286.4,317.5,286.426Z" transform="translate(-315.599 -281.376)" fill="#dfcaa7"/>
              <path id="Trazado_750388" data-name="Trazado 750388" d="M317.5,286.426a17.761,17.761,0,0,0,2.1-.087l-.321-4.963-3.679.032.165,4.89Q316.6,286.4,317.5,286.426Z" transform="translate(-315.599 -281.376)" fill="none" stroke="#cab899" stroke-miterlimit="10" stroke-width="0.33"/>
            </g>
            <g id="Grupo_927116" data-name="Grupo 927116" transform="translate(82.281 12.743)">
              <path id="Trazado_750389" data-name="Trazado 750389" d="M311.941,288.211l-.025,1.95,3.937-.022-.034-1.951Z" transform="translate(-311.916 -288.187)" fill="#dfcaa7"/>
              <path id="Trazado_750390" data-name="Trazado 750390" d="M311.941,288.211l-.025,1.95,3.937-.022-.034-1.951Z" transform="translate(-311.916 -288.187)" fill="none" stroke="#cab899" stroke-miterlimit="10" stroke-width="0.33"/>
            </g>
            <g id="Grupo_927117" data-name="Grupo 927117" transform="translate(82.32 7.548)">
              <path id="Trazado_750391" data-name="Trazado 750391" d="M315.563,285.881a16.814,16.814,0,0,1-3.569-1.089l-.052,4.033,3.843-.025-.05-2.888C315.676,285.9,315.62,285.893,315.563,285.881Z" transform="translate(-311.942 -284.792)" fill="#dfcaa7"/>
              <path id="Trazado_750392" data-name="Trazado 750392" d="M315.563,285.881a16.814,16.814,0,0,1-3.569-1.089l-.052,4.033,3.843-.025-.05-2.888C315.676,285.9,315.62,285.893,315.563,285.881Z" transform="translate(-311.942 -284.792)" fill="none" stroke="#cab899" stroke-miterlimit="10" stroke-width="0.33"/>
            </g>
            <g id="Grupo_927118" data-name="Grupo 927118" transform="translate(82.404 2.37)">
              <path id="Trazado_750393" data-name="Trazado 750393" d="M315.673,285.911l-.078-4.5-3.566.029L312,284.055A8.231,8.231,0,0,0,315.673,285.911Z" transform="translate(-311.997 -281.407)" fill="#dfcaa7"/>
              <path id="Trazado_750394" data-name="Trazado 750394" d="M315.673,285.911l-.078-4.5-3.566.029L312,284.055A8.231,8.231,0,0,0,315.673,285.911Z" transform="translate(-311.997 -281.407)" fill="none" stroke="#cab899" stroke-miterlimit="10" stroke-width="0.33"/>
            </g>
            <g id="Grupo_927119" data-name="Grupo 927119" transform="translate(64.271 50.132)">
              <path id="Trazado_750395" data-name="Trazado 750395" d="M305.414,313.626c-3.872,1.1-4.909,2.771-5.271,4.5l13.668,0,.191-5.45A26.554,26.554,0,0,0,305.414,313.626Z" transform="translate(-300.144 -312.626)" fill="#dfcaa7"/>
              <path id="Trazado_750396" data-name="Trazado 750396" d="M305.414,313.626c-3.872,1.1-4.909,2.771-5.271,4.5l13.668,0,.191-5.45A26.554,26.554,0,0,0,305.414,313.626Z" transform="translate(-300.144 -312.626)" fill="none" stroke="#cab899" stroke-miterlimit="10" stroke-width="0.379"/>
            </g>
            <g id="Grupo_927120" data-name="Grupo 927120" transform="translate(50.275 51.765)">
              <path id="Trazado_750397" data-name="Trazado 750397" d="M291.758,313.7,291,317.56l9.874,0a6.633,6.633,0,0,1,2.686-3.865Z" transform="translate(-290.996 -313.694)" fill="#dfcaa7"/>
              <path id="Trazado_750398" data-name="Trazado 750398" d="M291.758,313.7,291,317.56l9.874,0a6.633,6.633,0,0,1,2.686-3.865Z" transform="translate(-290.996 -313.694)" fill="none" stroke="#cab899" stroke-miterlimit="10" stroke-width="0.379"/>
            </g>
            <g id="Grupo_927121" data-name="Grupo 927121" transform="translate(61.861 46.674)">
              <path id="Trazado_750399" data-name="Trazado 750399" d="M298.569,313.6l5,0q.75-.227,1.619-.433a37.648,37.648,0,0,1,9.712-.968l.064-1.827L299,310.384Z" transform="translate(-298.569 -310.366)" fill="#dfcaa7"/>
              <path id="Trazado_750400" data-name="Trazado 750400" d="M298.569,313.6l5,0q.75-.227,1.619-.433a37.648,37.648,0,0,1,9.712-.968l.064-1.827L299,310.384Z" transform="translate(-298.569 -310.366)" fill="none" stroke="#cab899" stroke-miterlimit="10" stroke-width="0.379"/>
            </g>
            <g id="Grupo_927122" data-name="Grupo 927122" transform="translate(51.403 46.697)">
              <path id="Trazado_750401" data-name="Trazado 750401" d="M298.064,313.593l.51-3.212-6.207.008-.633,3.209Z" transform="translate(-291.734 -310.381)" fill="#dfcaa7"/>
              <path id="Trazado_750402" data-name="Trazado 750402" d="M298.064,313.593l.51-3.212-6.207.008-.633,3.209Z" transform="translate(-291.734 -310.381)" fill="none" stroke="#cab899" stroke-miterlimit="10" stroke-width="0.379"/>
            </g>
            <g id="Grupo_927123" data-name="Grupo 927123" transform="translate(52.337 43.313)">
              <path id="Trazado_750403" data-name="Trazado 750403" d="M318.313,310.006l.065-1.837-25.673.041-.361,1.831Z" transform="translate(-292.344 -308.169)" fill="#dfcaa7"/>
              <path id="Trazado_750404" data-name="Trazado 750404" d="M318.313,310.006l.065-1.837-25.673.041-.361,1.831Z" transform="translate(-292.344 -308.169)" fill="none" stroke="#cab899" stroke-miterlimit="10" stroke-width="0.379"/>
            </g>
            <g id="Grupo_927124" data-name="Grupo 927124" transform="translate(124.123 29.586)">
              <path id="Trazado_750405" data-name="Trazado 750405" d="M342.672,311.6l6.294-.012-3.9-12.388-5.8.019Z" transform="translate(-339.266 -299.197)" fill="#dfcaa7"/>
              <path id="Trazado_750406" data-name="Trazado 750406" d="M342.672,311.6l6.294-.012-3.9-12.388-5.8.019Z" transform="translate(-339.266 -299.197)" fill="none" stroke="#cab899" stroke-miterlimit="10" stroke-width="0.459"/>
            </g>
            <path id="Trazado_750407" data-name="Trazado 750407" d="M332.481,306.2a15.657,15.657,0,0,0-4.591-1.076c-.58-.06-1.212-.11-1.865-.142l.462,3.594,7.665-.012A2.8,2.8,0,0,0,332.481,306.2Z" transform="translate(-222.159 -266.547)" fill="#91b051" stroke="#839e42" stroke-miterlimit="10" stroke-width="0.346"/>
            <g id="Grupo_927125" data-name="Grupo 927125" transform="translate(103.353 29.62)">
              <path id="Trazado_750408" data-name="Trazado 750408" d="M329.265,306.607c2.254.3,5.012.822,6.45,1.744a5.2,5.2,0,0,1,2.428,3.254l7.267-.012-3.058-12.374-7.578.024c.012,2.471-3.788,4.466-9.085,4.818l.292,2.272C327.107,306.374,328.217,306.468,329.265,306.607Z" transform="translate(-325.69 -299.219)" fill="#dfcaa7"/>
              <path id="Trazado_750409" data-name="Trazado 750409" d="M329.265,306.607c2.254.3,5.012.822,6.45,1.744a5.2,5.2,0,0,1,2.428,3.254l7.267-.012-3.058-12.374-7.578.024c.012,2.471-3.788,4.466-9.085,4.818l.292,2.272C327.107,306.374,328.217,306.468,329.265,306.607Z" transform="translate(-325.69 -299.219)" fill="none" stroke="#cab899" stroke-miterlimit="10" stroke-width="0.459"/>
            </g>
            <path id="Trazado_750410" data-name="Trazado 750410" d="M341.4,302.937l-.919-3.718-7.578.024c.009,1.509-1.392,2.84-3.693,3.727Z" transform="translate(-220.469 -269.599)" fill="#91b051" stroke="#839e42" stroke-miterlimit="10" stroke-width="0.346"/>
            <g id="Grupo_927126" data-name="Grupo 927126" transform="translate(133.065 29.562)">
              <path id="Trazado_750411" data-name="Trazado 750411" d="M349.276,311.588l4.367-.008-4.506-12.4-4.026.014Z" transform="translate(-345.111 -299.181)" fill="#dfcaa7"/>
              <path id="Trazado_750412" data-name="Trazado 750412" d="M349.276,311.588l4.367-.008-4.506-12.4-4.026.014Z" transform="translate(-345.111 -299.181)" fill="none" stroke="#cab899" stroke-miterlimit="10" stroke-width="0.459"/>
            </g>
            <g id="Grupo_927127" data-name="Grupo 927127" transform="translate(81.933 38.825)">
              <path id="Trazado_750413" data-name="Trazado 750413" d="M318.229,305.724a12.3,12.3,0,0,0-6.5-.1l-.037,2.852,8.136-.014C319.794,307.551,320.077,306.341,318.229,305.724Z" transform="translate(-311.689 -305.236)" fill="#dfcaa7"/>
              <path id="Trazado_750414" data-name="Trazado 750414" d="M318.229,305.724a12.3,12.3,0,0,0-6.5-.1l-.037,2.852,8.136-.014C319.794,307.551,320.077,306.341,318.229,305.724Z" transform="translate(-311.689 -305.236)" fill="none" stroke="#cab899" stroke-miterlimit="10" stroke-width="0.33"/>
            </g>
            <g id="Grupo_927128" data-name="Grupo 927128" transform="translate(82.056 29.721)">
              <path id="Trazado_750415" data-name="Trazado 750415" d="M318.808,302.562c2.075.7,2.755,1.871,4.646,2.638a20.147,20.147,0,0,0,6.891,1l-.234-2.145c-5.511-.268-9.926-2.261-10.509-4.766l-7.8.026-.034,2.639A18.056,18.056,0,0,1,318.808,302.562Z" transform="translate(-311.769 -299.285)" fill="#dfcaa7"/>
              <path id="Trazado_750416" data-name="Trazado 750416" d="M318.808,302.562c2.075.7,2.755,1.871,4.646,2.638a20.147,20.147,0,0,0,6.891,1l-.234-2.145c-5.511-.268-9.926-2.261-10.509-4.766l-7.8.026-.034,2.639A18.056,18.056,0,0,1,318.808,302.562Z" transform="translate(-311.769 -299.285)" fill="none" stroke="#cab899" stroke-miterlimit="10" stroke-width="0.33"/>
            </g>
            <g id="Grupo_927129" data-name="Grupo 927129" transform="translate(81.993 33.986)">
              <path id="Trazado_750417" data-name="Trazado 750417" d="M319.231,303.978c-1.091-.748-2.136-1.827-4.4-1.893a21.584,21.584,0,0,0-3.061.1l-.041,3.271a20.082,20.082,0,0,1,8.769.635c2.965.99,3.083,2.54,3.179,4.036l7.281-.012-.407-3.728C326.068,306.343,321.8,305.713,319.231,303.978Z" transform="translate(-311.728 -302.073)" fill="#dfcaa7"/>
              <path id="Trazado_750418" data-name="Trazado 750418" d="M319.231,303.978c-1.091-.748-2.136-1.827-4.4-1.893a21.584,21.584,0,0,0-3.061.1l-.041,3.271a20.082,20.082,0,0,1,8.769.635c2.965.99,3.083,2.54,3.179,4.036l7.281-.012-.407-3.728C326.068,306.343,321.8,305.713,319.231,303.978Z" transform="translate(-311.728 -302.073)" fill="none" stroke="#cab899" stroke-miterlimit="10" stroke-width="0.33"/>
            </g>
            <g id="Grupo_927130" data-name="Grupo 927130" transform="translate(108.552 15.871)">
              <path id="Trazado_750419" data-name="Trazado 750419" d="M348.132,299.595a10.975,10.975,0,0,1-5.95-3.032,12.425,12.425,0,0,1-2.925-6.331l-10.169.057c.479,1.788.307,4.213,3.152,5.564,2.778,1.3,6.733,1.281,9.32,2.824,1.94,1.137,2.96,2.546,3.141,3.926l12.43-.044-.942-2.6A39.177,39.177,0,0,1,348.132,299.595Z" transform="translate(-329.088 -290.232)" fill="#dfcaa7"/>
              <path id="Trazado_750420" data-name="Trazado 750420" d="M348.132,299.595a10.975,10.975,0,0,1-5.95-3.032,12.425,12.425,0,0,1-2.925-6.331l-10.169.057c.479,1.788.307,4.213,3.152,5.564,2.778,1.3,6.733,1.281,9.32,2.824,1.94,1.137,2.96,2.546,3.141,3.926l12.43-.044-.942-2.6A39.177,39.177,0,0,1,348.132,299.595Z" transform="translate(-329.088 -290.232)" fill="none" stroke="#cab899" stroke-miterlimit="10" stroke-width="0.459"/>
            </g>
            <g id="Grupo_927131" data-name="Grupo 927131" transform="translate(110.045 15.871)">
              <path id="Trazado_750421" data-name="Trazado 750421" d="M330.064,290.279a4.133,4.133,0,0,0,2.78,3.782c1.931.806,4.328.315,6.5.448.3.017.587.044.872.078a15.864,15.864,0,0,1-1.479-4.356Z" transform="translate(-330.064 -290.232)" fill="#91b051"/>
              <path id="Trazado_750422" data-name="Trazado 750422" d="M330.064,290.279a4.133,4.133,0,0,0,2.78,3.782c1.931.806,4.328.315,6.5.448.3.017.587.044.872.078a15.864,15.864,0,0,1-1.479-4.356Z" transform="translate(-330.064 -290.232)" fill="none" stroke="#839e42" stroke-miterlimit="10" stroke-width="0.346"/>
            </g>
            <g id="Grupo_927132" data-name="Grupo 927132" transform="translate(110.718 20.9)">
              <path id="Trazado_750423" data-name="Trazado 750423" d="M343.083,296.184a1.457,1.457,0,0,1-.826-.5c-1.281-1.77-4.66-1.12-7.373-1.235a12.7,12.7,0,0,1-4.38-.935,5.509,5.509,0,0,0,.985.592c2.778,1.3,6.733,1.28,9.32,2.824,1.94,1.137,2.96,2.546,3.141,3.926l12.43-.044-.942-2.6a39.18,39.18,0,0,1-8.056-.367A12.261,12.261,0,0,1,343.083,296.184Z" transform="translate(-330.504 -293.519)" fill="#91b051"/>
              <path id="Trazado_750424" data-name="Trazado 750424" d="M343.083,296.184a1.457,1.457,0,0,1-.826-.5c-1.281-1.77-4.66-1.12-7.373-1.235a12.7,12.7,0,0,1-4.38-.935,5.509,5.509,0,0,0,.985.592c2.778,1.3,6.733,1.28,9.32,2.824,1.94,1.137,2.96,2.546,3.141,3.926l12.43-.044-.942-2.6a39.18,39.18,0,0,1-8.056-.367A12.261,12.261,0,0,1,343.083,296.184Z" transform="translate(-330.504 -293.519)" fill="none" stroke="#839e42" stroke-miterlimit="10" stroke-width="0.346"/>
            </g>
            <g id="Grupo_927133" data-name="Grupo 927133" transform="translate(121.937 15.797)">
              <path id="Trazado_750425" data-name="Trazado 750425" d="M340.092,295.467a7.1,7.1,0,0,0,4.711,2.686,41.472,41.472,0,0,0,6.138.154l-2.951-8.124-10.152.055A11.722,11.722,0,0,0,340.092,295.467Z" transform="translate(-337.837 -290.184)" fill="#dfcaa7"/>
              <path id="Trazado_750426" data-name="Trazado 750426" d="M340.092,295.467a7.1,7.1,0,0,0,4.711,2.686,41.472,41.472,0,0,0,6.138.154l-2.951-8.124-10.152.055A11.722,11.722,0,0,0,340.092,295.467Z" transform="translate(-337.837 -290.184)" fill="none" stroke="#cab899" stroke-miterlimit="10" stroke-width="0.459"/>
            </g>
            <g id="Grupo_927134" data-name="Grupo 927134" transform="translate(100.967 15.944)">
              <path id="Trazado_750427" data-name="Trazado 750427" d="M335.223,302.62l8.551-.031c-.095-1.469-1.388-3.184-4.4-3.812-3.491-.731-6.612-1.261-8.541-2.994-1.868-1.71-1.8-3.65-2.339-5.5l-4.362.024,1.03,7.982C329.9,298.586,333.984,300.351,335.223,302.62Z" transform="translate(-324.13 -290.28)" fill="#dfcaa7"/>
              <path id="Trazado_750428" data-name="Trazado 750428" d="M335.223,302.62l8.551-.031c-.095-1.469-1.388-3.184-4.4-3.812-3.491-.731-6.612-1.261-8.541-2.994-1.868-1.71-1.8-3.65-2.339-5.5l-4.362.024,1.03,7.982C329.9,298.586,333.984,300.351,335.223,302.62Z" transform="translate(-324.13 -290.28)" fill="none" stroke="#cab899" stroke-miterlimit="10" stroke-width="0.459"/>
            </g>
            <g id="Grupo_927135" data-name="Grupo 927135" transform="translate(82.106 15.984)">
              <path id="Trazado_750429" data-name="Trazado 750429" d="M319.643,302.684c.714-2.312,4.5-4.129,9.3-4.417l-.872-7.962-16.108.089-.158,12.317Z" transform="translate(-311.802 -290.306)" fill="#dfcaa7"/>
              <path id="Trazado_750430" data-name="Trazado 750430" d="M319.643,302.684c.714-2.312,4.5-4.129,9.3-4.417l-.872-7.962-16.108.089-.158,12.317Z" transform="translate(-311.802 -290.306)" fill="none" stroke="#cab899" stroke-miterlimit="10" stroke-width="0.33"/>
            </g>
            <path id="Trazado_750431" data-name="Trazado 750431" d="M319.03,300.332c-.13-2.062,3.233-3.748,7.513-3.765s8.04,1.645,8.4,3.71-3,3.753-7.512,3.765S319.162,302.393,319.03,300.332Z" transform="translate(-225.868 -271.004)" fill="#dfcaa7" stroke="#cab899" stroke-miterlimit="10" stroke-width="0.363"/>
            <g id="Grupo_927136" data-name="Grupo 927136" transform="translate(83.908 51.118)">
              <path id="Trazado_750432" data-name="Trazado 750432" d="M312.98,313.281l16.22-.01.332,3.432-16.552,0Z" transform="translate(-312.98 -313.271)" fill="#91b051"/>
              <path id="Trazado_750433" data-name="Trazado 750433" d="M312.98,313.281l16.22-.01.332,3.432-16.552,0Z" transform="translate(-312.98 -313.271)" fill="none" stroke="#839e42" stroke-miterlimit="10" stroke-width="0.346"/>
            </g>
            <path id="Trazado_750434" data-name="Trazado 750434" d="M321.261,299.506c-.089-1.031,1.593-1.873,3.756-1.882l1.069,0c2.165-.008,4.044.825,4.2,1.857l.077.509c.153,1.031-1.527,1.876-3.756,1.882l-1.1,0c-2.229.006-4.109-.825-4.2-1.856Z" transform="translate(-224.685 -270.446)" fill="#91b051" stroke="#839e42" stroke-miterlimit="10" stroke-width="0.346"/>
            <path id="Trazado_750435" data-name="Trazado 750435" d="M324.831,295.49c-.294-.445-1.815-.688-2.979-.959-2.518-.586-.647-1.736-2.46-2.443-.854-.419-4.19-.318-4.683.278-1.17,1.023,2.229,1.684,1.914,2.621-.148.932-3.072,1.625-3.591,2.559-.35.849.353,2.033,2.647,1.769,1.547-.193,2.221-1.106,3.291-1.582,1.4-.626,3.534-.644,4.9-1.267C324.774,296.051,325,295.739,324.831,295.49Z" transform="translate(-229.089 -273.513)" fill="#4cb9d3" stroke="#45aab4" stroke-miterlimit="10" stroke-width="0.346"/>
            <path id="Trazado_750436" data-name="Trazado 750436" d="M372.159,307.034c-1.248-.906-8.719-.942-5.913-2.362,1.146-.591,2.387-.413,2.093-1.483-.314-1.131-1.339-1.042-3.346-1.1a13.935,13.935,0,0,1-2.494-.161c-1.014-.251-1.157-.669-1.99-1.027a12.4,12.4,0,0,0-5.959-.641c-1.749.242-2.4.8-.687,1.539,1.59.681,4,.517,3.972,1.744-.024.825-1.785.841-2.452,1.479a2.082,2.082,0,0,0-.332,2.312c.358.451.828.366,1.253.7.522.4.418.881.915,1.267a3.981,3.981,0,0,0,3.912.159c.725-.548-.491-1.918,2-1.394.577.119.754.528,1.268.682a10.06,10.06,0,0,0,2.419.272,17.029,17.029,0,0,0,5.067-.352S373.94,308.315,372.159,307.034Z" transform="translate(-207.939 -269.107)" fill="#4cb9d3" stroke="#45aab4" stroke-miterlimit="10" stroke-width="0.346"/>
            <g id="Grupo_927137" data-name="Grupo 927137" transform="translate(44.982 18.643)">
              <path id="Trazado_750437" data-name="Trazado 750437" d="M291.723,295.419a16.442,16.442,0,0,0-2.631,3.116c-.662,1.114-.86,2.275-1.556,3.389l7.1-.026,2.188-9.854A14.438,14.438,0,0,0,291.723,295.419Z" transform="translate(-287.536 -292.044)" fill="#91b051"/>
              <path id="Trazado_750438" data-name="Trazado 750438" d="M291.723,295.419a16.442,16.442,0,0,0-2.631,3.116c-.662,1.114-.86,2.275-1.556,3.389l7.1-.026,2.188-9.854A14.438,14.438,0,0,0,291.723,295.419Z" transform="translate(-287.536 -292.044)" fill="none" stroke="#839e42" stroke-miterlimit="10" stroke-width="0.346"/>
            </g>
            <g id="Grupo_927138" data-name="Grupo 927138" transform="translate(22.558 23.25)">
              <path id="Trazado_750439" data-name="Trazado 750439" d="M276.858,297.108a10.078,10.078,0,0,0-3.979,3.3l18.828-.066c1.17-1.453,1.365-3.034,2.465-4.5.035-.049.075-.095.112-.144C289.486,294.576,281.353,294.85,276.858,297.108Z" transform="translate(-272.879 -295.055)" fill="#dfcaa7"/>
              <path id="Trazado_750440" data-name="Trazado 750440" d="M276.858,297.108a10.078,10.078,0,0,0-3.979,3.3l18.828-.066c1.17-1.453,1.365-3.034,2.465-4.5.035-.049.075-.095.112-.144C289.486,294.576,281.353,294.85,276.858,297.108Z" transform="translate(-272.879 -295.055)" fill="none" stroke="#cab899" stroke-miterlimit="10" stroke-width="0.459"/>
            </g>
            <g id="Grupo_927139" data-name="Grupo 927139" transform="translate(29.796 16.316)">
              <path id="Trazado_750441" data-name="Trazado 750441" d="M277.61,296.679a40,40,0,0,1,6.294-.818l1.876-5.338-5.748.034Z" transform="translate(-277.61 -290.523)" fill="#dfcaa7"/>
              <path id="Trazado_750442" data-name="Trazado 750442" d="M277.61,296.679a40,40,0,0,1,6.294-.818l1.876-5.338-5.748.034Z" transform="translate(-277.61 -290.523)" fill="none" stroke="#cab899" stroke-miterlimit="10" stroke-width="0.459"/>
            </g>
            <g id="Grupo_927140" data-name="Grupo 927140" transform="translate(18.042 16.368)">
              <path id="Trazado_750443" data-name="Trazado 750443" d="M270.915,302.8a13.16,13.16,0,0,1,6.227-4.772c.072-.029.148-.057.222-.086l3.127-7.389-4.926.027-5.638,12.222Z" transform="translate(-269.927 -290.557)" fill="#dfcaa7"/>
              <path id="Trazado_750444" data-name="Trazado 750444" d="M270.915,302.8a13.16,13.16,0,0,1,6.227-4.772c.072-.029.148-.057.222-.086l3.127-7.389-4.926.027-5.638,12.222Z" transform="translate(-269.927 -290.557)" fill="none" stroke="#cab899" stroke-miterlimit="10" stroke-width="0.459"/>
            </g>
            <g id="Grupo_927141" data-name="Grupo 927141" transform="translate(39.685 16.246)">
              <path id="Trazado_750445" data-name="Trazado 750445" d="M284.074,295.852a32.609,32.609,0,0,1,5.664.65,22.174,22.174,0,0,1,1.911-1.776,18.652,18.652,0,0,1,4.759-2.893,2.491,2.491,0,0,1-1.239-1.355l-9.366.052Z" transform="translate(-284.074 -290.477)" fill="#dfcaa7"/>
              <path id="Trazado_750446" data-name="Trazado 750446" d="M284.074,295.852a32.609,32.609,0,0,1,5.664.65,22.174,22.174,0,0,1,1.911-1.776,18.652,18.652,0,0,1,4.759-2.893,2.491,2.491,0,0,1-1.239-1.355l-9.366.052Z" transform="translate(-284.074 -290.477)" fill="none" stroke="#cab899" stroke-miterlimit="10" stroke-width="0.459"/>
            </g>
            <g id="Grupo_927142" data-name="Grupo 927142" transform="translate(24.3 6.802)">
              <path id="Trazado_750447" data-name="Trazado 750447" d="M277.116,285.835l-3.1,6.718,5.469-.032a11.88,11.88,0,0,1,7.062-5.451,16.861,16.861,0,0,1,6.917-.927,8.273,8.273,0,0,0-1.054-1.839C287.658,285.6,281.617,286.423,277.116,285.835Z" transform="translate(-274.018 -284.304)" fill="#dfcaa7"/>
              <path id="Trazado_750448" data-name="Trazado 750448" d="M277.116,285.835l-3.1,6.718,5.469-.032a11.88,11.88,0,0,1,7.062-5.451,16.861,16.861,0,0,1,6.917-.927,8.273,8.273,0,0,0-1.054-1.839C287.658,285.6,281.617,286.423,277.116,285.835Z" transform="translate(-274.018 -284.304)" fill="none" stroke="#cab899" stroke-miterlimit="10" stroke-width="0.459"/>
            </g>
            <g id="Grupo_927143" data-name="Grupo 927143" transform="translate(28.192 2.778)">
              <path id="Trazado_750449" data-name="Trazado 750449" d="M289.825,284.338a10.212,10.212,0,0,0-1.011-.8,13.618,13.618,0,0,0-4.3-1.86l-6.21.05-1.746,3.785C280.2,286.236,285.63,285.46,289.825,284.338Z" transform="translate(-276.562 -281.674)" fill="#dfcaa7"/>
              <path id="Trazado_750450" data-name="Trazado 750450" d="M289.825,284.338a10.212,10.212,0,0,0-1.011-.8,13.618,13.618,0,0,0-4.3-1.86l-6.21.05-1.746,3.785C280.2,286.236,285.63,285.46,289.825,284.338Z" transform="translate(-276.562 -281.674)" fill="none" stroke="#cab899" stroke-miterlimit="10" stroke-width="0.459"/>
            </g>
            <g id="Grupo_927144" data-name="Grupo 927144" transform="translate(32.966 10.193)">
              <path id="Trazado_750451" data-name="Trazado 750451" d="M290.933,287.138c-1.27-1.186-5.072-.453-6.99.438a8.433,8.433,0,0,0-4.261,3.753l10.506-.06a7.243,7.243,0,0,0,.828-4.063A.886.886,0,0,1,290.933,287.138Z" transform="translate(-279.682 -286.52)" fill="#dfcaa7"/>
              <path id="Trazado_750452" data-name="Trazado 750452" d="M290.933,287.138c-1.27-1.186-5.072-.453-6.99.438a8.433,8.433,0,0,0-4.261,3.753l10.506-.06a7.243,7.243,0,0,0,.828-4.063A.886.886,0,0,1,290.933,287.138Z" transform="translate(-279.682 -286.52)" fill="none" stroke="#cab899" stroke-miterlimit="10" stroke-width="0.459"/>
            </g>
            <g id="Grupo_927145" data-name="Grupo 927145" transform="translate(46.689 10.229)">
              <path id="Trazado_750453" data-name="Trazado 750453" d="M289.33,286.6a7.819,7.819,0,0,1-.678,4.634l4.281-.023c.659-1.181,2.5-2.15,4.686-2.511l.479-2.159Z" transform="translate(-288.652 -286.544)" fill="#91b051"/>
              <path id="Trazado_750454" data-name="Trazado 750454" d="M289.33,286.6a7.819,7.819,0,0,1-.678,4.634l4.281-.023c.659-1.181,2.5-2.15,4.686-2.511l.479-2.159Z" transform="translate(-288.652 -286.544)" fill="none" stroke="#839e42" stroke-miterlimit="10" stroke-width="0.346"/>
            </g>
            <g id="Grupo_927146" data-name="Grupo 927146" transform="translate(41.804 2.601)">
              <path id="Trazado_750455" data-name="Trazado 750455" d="M286.842,282.594a12.9,12.9,0,0,1,.984.869l13.258-.1.4-1.8-16.026.13A9.727,9.727,0,0,1,286.842,282.594Z" transform="translate(-285.459 -281.558)" fill="#dfcaa7"/>
              <path id="Trazado_750456" data-name="Trazado 750456" d="M286.842,282.594a12.9,12.9,0,0,1,.984.869l13.258-.1.4-1.8-16.026.13A9.727,9.727,0,0,1,286.842,282.594Z" transform="translate(-285.459 -281.558)" fill="none" stroke="#cab899" stroke-miterlimit="10" stroke-width="0.459"/>
            </g>
            <g id="Grupo_927147" data-name="Grupo 927147" transform="translate(45.736 6.259)">
              <path id="Trazado_750457" data-name="Trazado 750457" d="M288.029,284.035a9.854,9.854,0,0,1,1.192,2.263l9.582-.067.508-2.281Z" transform="translate(-288.029 -283.949)" fill="#dfcaa7"/>
              <path id="Trazado_750458" data-name="Trazado 750458" d="M288.029,284.035a9.854,9.854,0,0,1,1.192,2.263l9.582-.067.508-2.281Z" transform="translate(-288.029 -283.949)" fill="none" stroke="#cab899" stroke-miterlimit="10" stroke-width="0.459"/>
            </g>
            <path id="Trazado_750459" data-name="Trazado 750459" d="M292.911,290.6c.242-1.028,2.024-1.87,3.982-1.882s3.393.812,3.208,1.842-1.969,1.87-3.982,1.88S292.668,291.625,292.911,290.6Z" transform="translate(-239.72 -275.164)" fill="#dfcaa7" stroke="#cab899" stroke-miterlimit="10" stroke-width="0.182"/>
            <g id="Grupo_927148" data-name="Grupo 927148" transform="translate(102.15 3.578)">
              <path id="Trazado_750460" data-name="Trazado 750460" d="M325.752,286.857c1.258.979,3.5,1.178,5.437,1.388,2.016.217,3.756.765,4.467,1.868a3.722,3.722,0,0,1,.1,3.046l1.668-.011a4.061,4.061,0,0,0-.508-3.572c-1.091-1.441-3.91-2.022-6.421-2.247-1.632-.147-3.384-.5-3.979-1.443a1.094,1.094,0,0,1,.216-1.316,2.093,2.093,0,0,0,1.328.756,6.955,6.955,0,0,0,1.346.075c.78-.017,1.027-.044,1.068.465.014.174.32.376.644.405,4,.363,4.305-2.364,1.53-3.585a6.479,6.479,0,0,0-4.669-.107,1.874,1.874,0,0,0-1.118.476,4.884,4.884,0,0,0-1.482,1.134A1.72,1.72,0,0,0,325.752,286.857Z" transform="translate(-324.904 -282.197)" fill="#4cb9d3" stroke="#45aab4" stroke-miterlimit="10" stroke-width="0.346"/>
            </g>
            <g id="Grupo_927149" data-name="Grupo 927149" transform="translate(25.044 2.463)">
              <path id="Trazado_750461" data-name="Trazado 750461" d="M274.9,330.568a12.174,12.174,0,0,0,.838,2.452,2.425,2.425,0,0,1,.311,1.958h1.923a2.566,2.566,0,0,0-.21-1.891,19.058,19.058,0,0,1-1.164-3.609,23.262,23.262,0,0,1,.07-6.833c.236-1.853.714-4.128,4.449-5.572,3.794-1.493,9.614-1.227,13.861-1.2,7.282.054,14.074-.791,18.021-3.86,4.4-3.562,3.326-7.662,5.04-11.462.7-1.608,2.281-3.1,2.8-4.727a3.823,3.823,0,0,0-1.155-4.253c-1.1-1.045-3.606-1.539-4.106-2.748a2.29,2.29,0,0,1,.517-2.3,7.72,7.72,0,0,1,2.616-1.4,11.837,11.837,0,0,0,5.26-3.663l-1.365.011a7.7,7.7,0,0,1-1.3,1.313c-1.743,1.381-5.09,1.977-6.484,3.516-1.3,1.411-1,3.23.993,4.215a8.1,8.1,0,0,1,3.346,2.315,3.56,3.56,0,0,1-.112,3.686c-.545,1.1-1.528,2.15-2.16,3.245a11.617,11.617,0,0,0-1.261,3.6c-.724,3.395-1.063,7.587-7.31,10.137-4.5,1.788-10.446,1.62-15.776,1.6-5.286-.021-11.815.294-15.017,2.8-3.13,2.394-2.764,5.274-2.971,7.747A17.431,17.431,0,0,0,274.9,330.568Z" transform="translate(-274.504 -281.468)" fill="#4cb9d3" stroke="#45aab4" stroke-miterlimit="10" stroke-width="0.346"/>
            </g>
            <g id="Grupo_927150" data-name="Grupo 927150" transform="translate(30.663 51.715)">
              <path id="Trazado_750462" data-name="Trazado 750462" d="M279.618,315.556c-.517.194-.994.4-1.441.61a2.874,2.874,0,0,1,.174,1.414l15.212,0,.849-3.822A36.788,36.788,0,0,0,279.618,315.556Z" transform="translate(-278.177 -313.661)" fill="#dfcaa7"/>
              <path id="Trazado_750463" data-name="Trazado 750463" d="M279.618,315.556c-.517.194-.994.4-1.441.61a2.874,2.874,0,0,1,.174,1.414l15.212,0,.849-3.822A36.788,36.788,0,0,0,279.618,315.556Z" transform="translate(-278.177 -313.661)" fill="none" stroke="#cab899" stroke-miterlimit="10" stroke-width="0.459"/>
            </g>
            <g id="Grupo_927151" data-name="Grupo 927151" transform="translate(29.054 46.36)">
              <path id="Trazado_750464" data-name="Trazado 750464" d="M281.549,310.692c-1.564-.116-3.035-.294-4.406-.531a16.993,16.993,0,0,0,.242,3.878,13.851,13.851,0,0,0,.6,2.067l.029-.011a46.819,46.819,0,0,1,17.332-2.163l.67-3.02C291.169,310.906,286.234,311.036,281.549,310.692Z" transform="translate(-277.125 -310.161)" fill="#dfcaa7"/>
              <path id="Trazado_750465" data-name="Trazado 750465" d="M281.549,310.692c-1.564-.116-3.035-.294-4.406-.531a16.993,16.993,0,0,0,.242,3.878,13.851,13.851,0,0,0,.6,2.067l.029-.011a46.819,46.819,0,0,1,17.332-2.163l.67-3.02C291.169,310.906,286.234,311.036,281.549,310.692Z" transform="translate(-277.125 -310.161)" fill="none" stroke="#cab899" stroke-miterlimit="10" stroke-width="0.459"/>
            </g>
            <g id="Grupo_927152" data-name="Grupo 927152" transform="translate(29.21 43.36)">
              <path id="Trazado_750466" data-name="Trazado 750466" d="M277.227,309.265a34.249,34.249,0,0,0,6.344.9c4.155.239,8.494.125,12.758.127l.464-2.088-19.456.029c-.009.084-.018.168-.028.249Q277.266,308.873,277.227,309.265Z" transform="translate(-277.227 -308.2)" fill="#dfcaa7"/>
              <path id="Trazado_750467" data-name="Trazado 750467" d="M277.227,309.265a34.249,34.249,0,0,0,6.344.9c4.155.239,8.494.125,12.758.127l.464-2.088-19.456.029c-.009.084-.018.168-.028.249Q277.266,308.873,277.227,309.265Z" transform="translate(-277.227 -308.2)" fill="none" stroke="#cab899" stroke-miterlimit="10" stroke-width="0.459"/>
            </g>
            <g id="Grupo_927153" data-name="Grupo 927153" transform="translate(14.846 46.271)">
              <path id="Trazado_750468" data-name="Trazado 750468" d="M276.237,315.631a18.2,18.2,0,0,1-.278-5.154c.012-.122.02-.249.029-.373A9.818,9.818,0,0,0,270.6,313a11.007,11.007,0,0,0-2.761,6.467l9.6,0a2.716,2.716,0,0,0-.389-1.383A12.128,12.128,0,0,1,276.237,315.631Z" transform="translate(-267.838 -310.103)" fill="#dfcaa7"/>
              <path id="Trazado_750469" data-name="Trazado 750469" d="M276.237,315.631a18.2,18.2,0,0,1-.278-5.154c.012-.122.02-.249.029-.373A9.818,9.818,0,0,0,270.6,313a11.007,11.007,0,0,0-2.761,6.467l9.6,0a2.716,2.716,0,0,0-.389-1.383A12.128,12.128,0,0,1,276.237,315.631Z" transform="translate(-267.838 -310.103)" fill="none" stroke="#cab899" stroke-miterlimit="10" stroke-width="0.459"/>
            </g>
            <g id="Grupo_927154" data-name="Grupo 927154" transform="translate(5.574 43.4)">
              <path id="Trazado_750470" data-name="Trazado 750470" d="M266.828,320.465a11.116,11.116,0,0,1,3.97-7.578,16.838,16.838,0,0,1,8.4-3.493l.129-.017c.037-.383.081-.766.151-1.152l-12.065.017-5.639,12.224Z" transform="translate(-261.778 -308.226)" fill="#dfcaa7"/>
              <path id="Trazado_750471" data-name="Trazado 750471" d="M266.828,320.465a11.116,11.116,0,0,1,3.97-7.578,16.838,16.838,0,0,1,8.4-3.493l.129-.017c.037-.383.081-.766.151-1.152l-12.065.017-5.639,12.224Z" transform="translate(-261.778 -308.226)" fill="none" stroke="#cab899" stroke-miterlimit="10" stroke-width="0.459"/>
            </g>
            <g id="Grupo_927155" data-name="Grupo 927155" transform="translate(39.012 37.68)">
              <path id="Trazado_750472" data-name="Trazado 750472" d="M286.717,305.937a2.636,2.636,0,0,1,.282,3l6.675-.012.985-4.441c-1.565.073-3.145.092-4.741.081-1.8-.014-4.063-.1-6.283-.026A6.2,6.2,0,0,1,286.717,305.937Z" transform="translate(-283.634 -304.487)" fill="#dfcaa7"/>
              <path id="Trazado_750473" data-name="Trazado 750473" d="M286.717,305.937a2.636,2.636,0,0,1,.282,3l6.675-.012.985-4.441c-1.565.073-3.145.092-4.741.081-1.8-.014-4.063-.1-6.283-.026A6.2,6.2,0,0,1,286.717,305.937Z" transform="translate(-283.634 -304.487)" fill="none" stroke="#cab899" stroke-miterlimit="10" stroke-width="0.459"/>
            </g>
            <g id="Grupo_927156" data-name="Grupo 927156" transform="translate(29.527 38.503)">
              <path id="Trazado_750474" data-name="Trazado 750474" d="M286.474,306.5c-.78-.75-2.878-1.016-4.541-1.3a2.436,2.436,0,0,1-.609-.176c-.187.06-.372.121-.548.19a4.818,4.818,0,0,0-3.343,3.462l9.049-.015C286.893,307.892,287.1,307.089,286.474,306.5Z" transform="translate(-277.434 -305.025)" fill="#91b051"/>
              <path id="Trazado_750475" data-name="Trazado 750475" d="M286.474,306.5c-.78-.75-2.878-1.016-4.541-1.3a2.436,2.436,0,0,1-.609-.176c-.187.06-.372.121-.548.19a4.818,4.818,0,0,0-3.343,3.462l9.049-.015C286.893,307.892,287.1,307.089,286.474,306.5Z" transform="translate(-277.434 -305.025)" fill="none" stroke="#839e42" stroke-miterlimit="10" stroke-width="0.346"/>
            </g>
            <g id="Grupo_927157" data-name="Grupo 927157" transform="translate(43.158 29.848)">
              <path id="Trazado_750476" data-name="Trazado 750476" d="M286.344,304.732h.162c2.312.009,4.83.072,7.278-.057l1.18-5.307-7.168.024Z" transform="translate(-286.344 -299.368)" fill="#dfcaa7"/>
              <path id="Trazado_750477" data-name="Trazado 750477" d="M286.344,304.732h.162c2.312.009,4.83.072,7.278-.057l1.18-5.307-7.168.024Z" transform="translate(-286.344 -299.368)" fill="none" stroke="#cab899" stroke-miterlimit="10" stroke-width="0.459"/>
            </g>
            <g id="Grupo_927158" data-name="Grupo 927158" transform="translate(11.781 35.001)">
              <path id="Trazado_750478" data-name="Trazado 750478" d="M279.71,303.118a33,33,0,0,0-7.726-.268,25.533,25.533,0,0,0-3.1.46l-3.049,6.609,11.814-.02a7.251,7.251,0,0,1,2.605-3.5,12.743,12.743,0,0,1,3.741-1.892C283.5,303.79,281.039,303.323,279.71,303.118Z" transform="translate(-265.835 -302.736)" fill="#91b051"/>
              <path id="Trazado_750479" data-name="Trazado 750479" d="M279.71,303.118a33,33,0,0,0-7.726-.268,25.533,25.533,0,0,0-3.1.46l-3.049,6.609,11.814-.02a7.251,7.251,0,0,1,2.605-3.5,12.743,12.743,0,0,1,3.741-1.892C283.5,303.79,281.039,303.323,279.71,303.118Z" transform="translate(-265.835 -302.736)" fill="none" stroke="#839e42" stroke-miterlimit="10" stroke-width="0.346"/>
            </g>
            <g id="Grupo_927159" data-name="Grupo 927159" transform="translate(15.669 29.888)">
              <path id="Trazado_750480" data-name="Trazado 750480" d="M272.158,302.914c4.2-.171,12.388.485,14.132,2.471a42.684,42.684,0,0,1,4.524-.522l1.669-5.469-22.355.075-1.752,3.8A35.863,35.863,0,0,1,272.158,302.914Z" transform="translate(-268.376 -299.394)" fill="#dfcaa7"/>
              <path id="Trazado_750481" data-name="Trazado 750481" d="M272.158,302.914c4.2-.171,12.388.485,14.132,2.471a42.684,42.684,0,0,1,4.524-.522l1.669-5.469-22.355.075-1.752,3.8A35.863,35.863,0,0,1,272.158,302.914Z" transform="translate(-268.376 -299.394)" fill="none" stroke="#cab899" stroke-miterlimit="10" stroke-width="0.459"/>
            </g>
            <g id="Grupo_927160" data-name="Grupo 927160" transform="translate(72.605 40.377)">
              <path id="Trazado_750482" data-name="Trazado 750482" d="M305.714,306.261l-.122,1.693,5.809-.01.059-1.694Z" transform="translate(-305.592 -306.25)" fill="#dfcaa7"/>
              <path id="Trazado_750483" data-name="Trazado 750483" d="M305.714,306.261l-.122,1.693,5.809-.01.059-1.694Z" transform="translate(-305.592 -306.25)" fill="none" stroke="#cab899" stroke-miterlimit="10" stroke-width="0.379"/>
            </g>
            <g id="Grupo_927161" data-name="Grupo 927161" transform="translate(72.832 36.705)">
              <path id="Trazado_750484" data-name="Trazado 750484" d="M305.9,303.863l-.159,2.2,5.693-.012.077-2.2Z" transform="translate(-305.74 -303.85)" fill="#dfcaa7"/>
              <path id="Trazado_750485" data-name="Trazado 750485" d="M305.9,303.863l-.159,2.2,5.693-.012.077-2.2Z" transform="translate(-305.74 -303.85)" fill="none" stroke="#cab899" stroke-miterlimit="10" stroke-width="0.379"/>
            </g>
            <g id="Grupo_927162" data-name="Grupo 927162" transform="translate(73.088 33.203)">
              <path id="Trazado_750486" data-name="Trazado 750486" d="M306.062,301.576l-.154,2.145,5.562-.014.075-2.146Z" transform="translate(-305.908 -301.561)" fill="#dfcaa7"/>
              <path id="Trazado_750487" data-name="Trazado 750487" d="M306.062,301.576l-.154,2.145,5.562-.014.075-2.146Z" transform="translate(-305.908 -301.561)" fill="none" stroke="#cab899" stroke-miterlimit="10" stroke-width="0.379"/>
            </g>
            <g id="Grupo_927163" data-name="Grupo 927163" transform="translate(73.36 29.758)">
              <path id="Trazado_750488" data-name="Trazado 750488" d="M311.507,301.116l.063-1.806-5.355.017-.131,1.806Z" transform="translate(-306.085 -299.309)" fill="#dfcaa7"/>
              <path id="Trazado_750489" data-name="Trazado 750489" d="M311.507,301.116l.063-1.806-5.355.017-.131,1.806Z" transform="translate(-306.085 -299.309)" fill="none" stroke="#cab899" stroke-miterlimit="10" stroke-width="0.379"/>
            </g>
            <g id="Grupo_927164" data-name="Grupo 927164" transform="translate(63.297 29.785)">
              <path id="Trazado_750490" data-name="Trazado 750490" d="M299.508,311.638l5.9-.011,1.151-12.3-2.276.008a9.769,9.769,0,0,1-2.91,3.664c-.251.2-.522.4-.808.589Z" transform="translate(-299.508 -299.327)" fill="#dfcaa7"/>
              <path id="Trazado_750491" data-name="Trazado 750491" d="M299.508,311.638l5.9-.011,1.151-12.3-2.276.008a9.769,9.769,0,0,1-2.91,3.664c-.251.2-.522.4-.808.589Z" transform="translate(-299.508 -299.327)" fill="none" stroke="#cab899" stroke-miterlimit="10" stroke-width="0.379"/>
            </g>
            <g id="Grupo_927165" data-name="Grupo 927165" transform="translate(52.942 40.467)">
              <path id="Trazado_750492" data-name="Trazado 750492" d="M293.062,306.323l-.322,1.633,7.079-.011.249-1.636Z" transform="translate(-292.739 -306.309)" fill="#dfcaa7"/>
              <path id="Trazado_750493" data-name="Trazado 750493" d="M293.062,306.323l-.322,1.633,7.079-.011.249-1.636Z" transform="translate(-292.739 -306.309)" fill="none" stroke="#cab899" stroke-miterlimit="10" stroke-width="0.379"/>
            </g>
            <g id="Grupo_927166" data-name="Grupo 927166" transform="translate(53.564 35.77)">
              <path id="Trazado_750494" data-name="Trazado 750494" d="M300.084,306.415l.482-3.176a22.627,22.627,0,0,1-3.346.988c-1.239.266-2.492.467-3.76.616l-.314,1.585Z" transform="translate(-293.146 -303.239)" fill="#dfcaa7"/>
              <path id="Trazado_750495" data-name="Trazado 750495" d="M300.084,306.415l.482-3.176a22.627,22.627,0,0,1-3.346.988c-1.239.266-2.492.467-3.76.616l-.314,1.585Z" transform="translate(-293.146 -303.239)" fill="none" stroke="#cab899" stroke-miterlimit="10" stroke-width="0.379"/>
            </g>
            <g id="Grupo_927167" data-name="Grupo 927167" transform="translate(54.395 29.811)">
              <path id="Trazado_750496" data-name="Trazado 750496" d="M296.871,303.409a9.729,9.729,0,0,0,5.087-4.065l-7.3.024-.97,4.913A16.12,16.12,0,0,0,296.871,303.409Z" transform="translate(-293.689 -299.344)" fill="#dfcaa7"/>
              <path id="Trazado_750497" data-name="Trazado 750497" d="M296.871,303.409a9.729,9.729,0,0,0,5.087-4.065l-7.3.024-.97,4.913A16.12,16.12,0,0,0,296.871,303.409Z" transform="translate(-293.689 -299.344)" fill="none" stroke="#cab899" stroke-miterlimit="10" stroke-width="0.379"/>
            </g>
            <g id="Grupo_927170" data-name="Grupo 927170" transform="translate(55.631 16.088)">
              <g id="Grupo_927168" data-name="Grupo 927168" transform="translate(12.946)">
                <path id="Trazado_750498" data-name="Trazado 750498" d="M307.5,291.1c-.526,1.712-2.108,3.277-2.827,4.966-.955,2.2-1.048,4.454-1.709,6.66l10.316-.037.431-12.314-6.055.034A4.731,4.731,0,0,1,307.5,291.1Z" transform="translate(-302.959 -290.374)" fill="#dfcaa7"/>
                <path id="Trazado_750499" data-name="Trazado 750499" d="M307.5,291.1c-.526,1.712-2.108,3.277-2.827,4.966-.955,2.2-1.048,4.454-1.709,6.66l10.316-.037.431-12.314-6.055.034A4.731,4.731,0,0,1,307.5,291.1Z" transform="translate(-302.959 -290.374)" fill="none" stroke="#cab899" stroke-miterlimit="10" stroke-width="0.379"/>
              </g>
              <g id="Grupo_927169" data-name="Grupo 927169" transform="translate(0 0.061)">
                <path id="Trazado_750500" data-name="Trazado 750500" d="M303.2,298.636a12.607,12.607,0,0,1,1.4-3.837c.646-1.1,1.642-2.14,2.2-3.245a5.109,5.109,0,0,0,.425-1.14l-5.9.032c-.777,1.08-2.628,1.928-4.836,2.2l-1.992,10.1,7.675-.028A29.056,29.056,0,0,0,303.2,298.636Z" transform="translate(-294.497 -290.414)" fill="#dfcaa7"/>
                <path id="Trazado_750501" data-name="Trazado 750501" d="M303.2,298.636a12.607,12.607,0,0,1,1.4-3.837c.646-1.1,1.642-2.14,2.2-3.245a5.109,5.109,0,0,0,.425-1.14l-5.9.032c-.777,1.08-2.628,1.928-4.836,2.2l-1.992,10.1,7.675-.028A29.056,29.056,0,0,0,303.2,298.636Z" transform="translate(-294.497 -290.414)" fill="none" stroke="#cab899" stroke-miterlimit="10" stroke-width="0.379"/>
              </g>
            </g>
            <g id="Grupo_927173" data-name="Grupo 927173" transform="translate(58.819 2.42)">
              <g id="Grupo_927171" data-name="Grupo 927171" transform="translate(8.78)">
                <path id="Trazado_750502" data-name="Trazado 750502" d="M304.687,285.906c-1.749.705-2.74,1.476-2.235,2.693.193.456.806.695,1.44.985a9.629,9.629,0,0,1,2.544,1.55,4.7,4.7,0,0,1,1.544,2.654l6.113-.035.431-12.313-3.667.031C309.738,283.216,307.678,284.682,304.687,285.906Z" transform="translate(-302.32 -281.44)" fill="#91b051"/>
                <path id="Trazado_750503" data-name="Trazado 750503" d="M304.687,285.906c-1.749.705-2.74,1.476-2.235,2.693.193.456.806.695,1.44.985a9.629,9.629,0,0,1,2.544,1.55,4.7,4.7,0,0,1,1.544,2.654l6.113-.035.431-12.313-3.667.031C309.738,283.216,307.678,284.682,304.687,285.906Z" transform="translate(-302.32 -281.44)" fill="none" stroke="#839e42" stroke-miterlimit="10" stroke-width="0.346"/>
              </g>
              <g id="Grupo_927172" data-name="Grupo 927172" transform="translate(0 0.067)">
                <path id="Trazado_750504" data-name="Trazado 750504" d="M300.591,293.824l5.532-.031a2.439,2.439,0,0,0-.326-.721,7.313,7.313,0,0,0-2.951-1.925c-2.549-1.259-2.688-3.526-1.04-5.289,1.449-1.582,4.732-2.12,6.5-3.514a7.417,7.417,0,0,0,.915-.861l-10.72.089-1.922,9.739C298.815,291.594,300.415,292.58,300.591,293.824Z" transform="translate(-296.581 -281.484)" fill="#dfcaa7"/>
                <path id="Trazado_750505" data-name="Trazado 750505" d="M300.591,293.824l5.532-.031a2.439,2.439,0,0,0-.326-.721,7.313,7.313,0,0,0-2.951-1.925c-2.549-1.259-2.688-3.526-1.04-5.289,1.449-1.582,4.732-2.12,6.5-3.514a7.417,7.417,0,0,0,.915-.861l-10.72.089-1.922,9.739C298.815,291.594,300.415,292.58,300.591,293.824Z" transform="translate(-296.581 -281.484)" fill="none" stroke="#cab899" stroke-miterlimit="10" stroke-width="0.379"/>
              </g>
            </g>
          </g>
          <rect id="Rectngulo_299845" data-name="Rectngulo 299845" width="183.86" height="6.715" transform="translate(0 57.434)" fill="#e0d9bc"/>
        </g>
        <path id="Trazado_750506" data-name="Trazado 750506" d="M260.926,321.788l-8.059,11.685H452.576l-7.79-11.685Z" transform="translate(-252.867 -257.639)" fill="#bababa" style="mix-blend-mode: multiply;isolation: isolate"/>
      </g>
      <g id="Grupo_927179" data-name="Grupo 927179" transform="translate(306.941 263.437)">
        <g id="Grupo_927177" data-name="Grupo 927177">
          <path id="Trazado_750507" data-name="Trazado 750507" d="M307.577,310.62,280.96,271.96l54.136-.384Z" transform="translate(-275.43 -221.361)" fill="#db0613"/>
          <path id="Trazado_750508" data-name="Trazado 750508" d="M342.286,271.408A32.47,32.47,0,1,1,310,238.754,32.47,32.47,0,0,1,342.286,271.408Z" transform="translate(-277.346 -238.754)" fill="#db0613"/>
          <path id="Trazado_750509" data-name="Trazado 750509" d="M337.248,270.091A28.729,28.729,0,1,1,308.683,241.2,28.725,28.725,0,0,1,337.248,270.091Z" transform="translate(-276.05 -237.458)" fill="#9a0e0c"/>
          <path id="Trazado_750510" data-name="Trazado 750510" d="M332.57,268.868a25.254,25.254,0,1,1-25.11-25.4A25.253,25.253,0,0,1,332.57,268.868Z" transform="translate(-274.847 -236.254)" fill="#fff"/>
          <path id="Trazado_750511" data-name="Trazado 750511" d="M309.6,287.377A25.249,25.249,0,0,1,287.932,249.4a25.254,25.254,0,1,0,41.194,28.917A25.2,25.2,0,0,1,309.6,287.377Z" transform="translate(-274.847 -233.114)" fill="#bbe4fb"/>
          <path id="Trazado_750512" data-name="Trazado 750512" d="M317.13,248.18a35.45,35.45,0,0,1,10.761,20.45,29.287,29.287,0,0,0-4.535-15.236c-5.186-8.365-13.515-13.218-21.273-13.247A29.763,29.763,0,0,1,317.13,248.18Z" transform="translate(-264.237 -238.015)" fill="#de2217"/>
          <path id="Trazado_750513" data-name="Trazado 750513" d="M305.984,308.174l-22.018-31.981s3.669,3.748,11.87,7.134a27.815,27.815,0,0,0,10.275,2.4Z" transform="translate(-273.838 -218.915)" fill="#de2217"/>
          <path id="Trazado_750514" data-name="Trazado 750514" d="M295.87,289.948l3.971,5.769,4.034-5.723-4.013,1.627Z" transform="translate(-267.53 -211.626)" fill="#fff"/>
        </g>
        <g id="Grupo_927178" data-name="Grupo 927178" transform="translate(19.447 14.517)">
          <path id="Trazado_750515" data-name="Trazado 750515" d="M304.191,248.242l-14.086,9.311-.049,5,14.085-9.311,12.677,9.575.049-5Z" transform="translate(-290.057 -248.242)" fill="#002d48"/>
          <path id="Trazado_750516" data-name="Trazado 750516" d="M303.209,250.149,291.8,257.4l-.167,17.1,10.835.107.135-13.755,7.088.069-.136,13.757,3.75.037.168-17.1Zm-3.051,19.564-7.085-.069.072-7.365,7.087.069Z" transform="translate(-289.219 -247.232)" fill="#002d48"/>
        </g>
      </g>
      <path id="Trazado_750517" data-name="Trazado 750517" d="M341.118,314.728c0,2.567,10.587,4.648,23.648,4.648s23.648-2.081,23.648-4.648-10.587-4.648-23.648-4.648S341.118,312.161,341.118,314.728Z" transform="translate(63.388 62.479)" fill="#cacaca" style="mix-blend-mode: multiply;isolation: isolate"/>
      <g id="Grupo_927187" data-name="Grupo 927187" transform="translate(396.571 314.903)">
        <path id="Trazado_750518" data-name="Trazado 750518" d="M399.038,303.947a31.553,31.553,0,1,1-31.553-31.553A31.553,31.553,0,0,1,399.038,303.947Z" transform="translate(-335.931 -272.394)" fill="#db0613"/>
        <circle id="Elipse_6906" data-name="Elipse 6906" cx="23.768" cy="23.768" r="23.768" transform="translate(10.126 2.39)" fill="#f7bdb5" style="mix-blend-mode: soft-light;isolation: isolate"/>
        <path id="Trazado_750519" data-name="Trazado 750519" d="M370.687,322.869a31.551,31.551,0,0,1-30.272-40.449,31.553,31.553,0,1,0,57.342,25.112A31.531,31.531,0,0,1,370.687,322.869Z" transform="translate(-335.931 -267.081)" fill="#d2d1d1" style="mix-blend-mode: multiply;isolation: isolate"/>
        <path id="Trazado_750520" data-name="Trazado 750520" d="M370.738,281.875a7.3,7.3,0,1,1-7.3-7.3A7.3,7.3,0,0,1,370.738,281.875Z" transform="translate(-325.224 -271.239)" fill="#f7bdb5" style="mix-blend-mode: soft-light;isolation: isolate"/>
        <path id="Trazado_750521" data-name="Trazado 750521" d="M373.693,285.044a3.432,3.432,0,1,1-3.433-3.433A3.432,3.432,0,0,1,373.693,285.044Z" transform="translate(-319.559 -267.51)" fill="#f7bdb5" style="mix-blend-mode: soft-light;isolation: isolate"/>
        <path id="Trazado_750522" data-name="Trazado 750522" d="M368.266,287.3a2.076,2.076,0,1,1-2.076-2.074A2.076,2.076,0,0,1,368.266,287.3Z" transform="translate(-320.997 -265.597)" fill="#f7bdb5" style="mix-blend-mode: soft-light;isolation: isolate"/>
        <g id="Grupo_927186" data-name="Grupo 927186" transform="translate(6.375 5.911)">
          <path id="Trazado_750523" data-name="Trazado 750523" d="M380.342,299.906a17.367,17.367,0,1,1-17.367-17.366A17.366,17.366,0,0,1,380.342,299.906Z" transform="translate(-337.178 -272.929)" fill="none" stroke="#fff" stroke-miterlimit="10" stroke-width="0.728"/>
          <line id="Lnea_1150" data-name="Lnea 1150" x1="2.233" y2="2.233" transform="translate(35.846 14.669)" fill="none" stroke="#fff" stroke-miterlimit="10" stroke-width="0.728"/>
          <line id="Lnea_1151" data-name="Lnea 1151" x1="2.232" y2="2.232" transform="translate(13.518 36.999)" fill="none" stroke="#fff" stroke-miterlimit="10" stroke-width="0.728"/>
          <line id="Lnea_1152" data-name="Lnea 1152" x1="2.233" y1="2.232" transform="translate(35.846 36.999)" fill="none" stroke="#fff" stroke-miterlimit="10" stroke-width="0.728"/>
          <line id="Lnea_1153" data-name="Lnea 1153" x1="2.232" y1="2.233" transform="translate(13.518 14.669)" fill="none" stroke="#fff" stroke-miterlimit="10" stroke-width="0.728"/>
          <g id="Grupo_927181" data-name="Grupo 927181" transform="translate(5.764 6.944)">
            <path id="Trazado_750524" data-name="Trazado 750524" d="M358.255,312.537l-4.263-16.027h9.084Z" transform="translate(-338.5 -272.47)" fill="#fff"/>
            <path id="Trazado_750525" data-name="Trazado 750525" d="M358.255,280.8l4.82,16.027h-9.084Z" transform="translate(-338.5 -280.797)" fill="none" stroke="#fff" stroke-miterlimit="10" stroke-width="0.754"/>
            <path id="Trazado_750526" data-name="Trazado 750526" d="M343.866,295.187l16.027-4.264v9.083Z" transform="translate(-343.866 -275.431)" fill="#fff"/>
            <path id="Trazado_750527" data-name="Trazado 750527" d="M375.607,295.187l-16.028,4.819v-9.083Z" transform="translate(-335.539 -275.431)" fill="#fff"/>
            <g id="Grupo_927180" data-name="Grupo 927180" transform="translate(13.219 13.021)">
              <path id="Trazado_750528" data-name="Trazado 750528" d="M365.361,295.924a6.239,6.239,0,1,1-6.239-6.239A6.241,6.241,0,0,1,365.361,295.924Z" transform="translate(-352.306 -289.108)" fill="#fff"/>
              <path id="Trazado_750529" data-name="Trazado 750529" d="M359.322,302.939a6.816,6.816,0,1,1,6.814-6.816A6.823,6.823,0,0,1,359.322,302.939Zm0-12.478a5.662,5.662,0,1,0,5.662,5.662A5.668,5.668,0,0,0,359.322,290.462Z" transform="translate(-352.506 -289.308)" fill="#db0613"/>
            </g>
          </g>
          <g id="Grupo_927182" data-name="Grupo 927182" transform="translate(47.041 25.051)">
            <path id="Trazado_750530" data-name="Trazado 750530" d="M372.654,294.486H371.3v1.258h1.513v.379h-1.964v-3.491h1.886v.378H371.3v1.1h1.357Z" transform="translate(-370.846 -292.632)" fill="#fff"/>
          </g>
          <g id="Grupo_927183" data-name="Grupo 927183" transform="translate(24.218)">
            <path id="Trazado_750531" data-name="Trazado 750531" d="M355.928,279.749v-3.491h.491l1.12,1.767a9.739,9.739,0,0,1,.626,1.134l.011,0c-.041-.467-.052-.892-.052-1.435v-1.461h.425v3.491h-.456l-1.109-1.772a10.819,10.819,0,0,1-.652-1.166l-.015.006c.024.441.035.86.035,1.44v1.492Z" transform="translate(-355.928 -276.258)" fill="#fff"/>
          </g>
          <g id="Grupo_927184" data-name="Grupo 927184" transform="translate(24.042 48.118)">
            <path id="Trazado_750532" data-name="Trazado 750532" d="M355.926,310.709a1.586,1.586,0,0,0,.808.228c.462,0,.731-.243.731-.6,0-.326-.187-.512-.658-.695-.571-.2-.923-.5-.923-.99a1,1,0,0,1,1.129-.947,1.6,1.6,0,0,1,.773.17l-.125.369a1.373,1.373,0,0,0-.662-.167c-.476,0-.658.286-.658.525,0,.326.213.487.695.673.59.228.89.513.89,1.025,0,.538-.4,1.005-1.222,1.005a1.807,1.807,0,0,1-.89-.223Z" transform="translate(-355.813 -307.71)" fill="#fff"/>
          </g>
          <g id="Grupo_927185" data-name="Grupo 927185" transform="translate(0 24.131)">
            <path id="Trazado_750533" data-name="Trazado 750533" d="M340.984,295.522l-.886-3.491h.476l.415,1.767c.1.434.2.869.26,1.206h.009c.058-.347.167-.762.286-1.212l.465-1.761h.471l.425,1.772c.1.415.191.829.243,1.2h.011c.072-.384.171-.773.28-1.207l.46-1.761h.462l-.99,3.491H342.9l-.441-1.819a10.322,10.322,0,0,1-.228-1.14h-.011a10.847,10.847,0,0,1-.269,1.14l-.5,1.819Z" transform="translate(-340.098 -292.031)" fill="#fff"/>
          </g>
        </g>
      </g>
      <g id="Grupo_927220" data-name="Grupo 927220" transform="translate(221.494 192.172)">
        <g id="Grupo_927188" data-name="Grupo 927188" transform="translate(139.721 6.7)" style="mix-blend-mode: multiply;isolation: isolate">
          <rect id="Rectngulo_299846" data-name="Rectngulo 299846" width="2.243" height="27.417" transform="translate(10.251)" fill="none" stroke="#19212d" stroke-miterlimit="10" stroke-width="0.462"/>
          <path id="Trazado_750534" data-name="Trazado 750534" d="M315.868,202.466h7v-4.075h-7l-2.658,2.038Z" transform="translate(-312.616 -195.576)" fill="none" stroke="#19212d" stroke-miterlimit="10" stroke-width="0.462"/>
          <path id="Trazado_750535" data-name="Trazado 750535" d="M327.988,201.557h-7v4.075h7l2.659-2.038Z" transform="translate(-308.494 -193.898)" fill="none" stroke="#19212d" stroke-miterlimit="10" stroke-width="0.462"/>
          <path id="Trazado_750536" data-name="Trazado 750536" d="M315.479,204.221h7.594V208.3h-7.594l-2.658-2.036Z" transform="translate(-312.821 -192.487)" fill="none" stroke="#19212d" stroke-miterlimit="10" stroke-width="0.462"/>
          <rect id="Rectngulo_299847" data-name="Rectngulo 299847" width="6.2" height="2.381" transform="translate(8.273 27.417)" fill="none" stroke="#19212d" stroke-miterlimit="10" stroke-width="0.462"/>
        </g>
        <g id="Grupo_927194" data-name="Grupo 927194" transform="translate(88.268 16.332)">
          <g id="Grupo_927189" data-name="Grupo 927189" style="mix-blend-mode: multiply;isolation: isolate">
            <path id="Trazado_750537" data-name="Trazado 750537" d="M295.953,207.8a8.83,8.83,0,0,0-15.863,7.76l7.929,16.215,7.934-16.215A8.912,8.912,0,0,0,295.953,207.8Zm-7.939,7.747a4.089,4.089,0,1,1,4.089-4.089A4.089,4.089,0,0,1,288.015,215.546Z" transform="translate(-279.189 -202.847)" fill="none" stroke="#19212d" stroke-miterlimit="10" stroke-width="0.462"/>
            <path id="Trazado_750538" data-name="Trazado 750538" d="M281.487,211.049l5.31,11.258,1.131-2.056" transform="translate(-277.972 -198.501)" fill="none" stroke="#19212d" stroke-miterlimit="10" stroke-width="0.462"/>
          </g>
          <g id="Grupo_927193" data-name="Grupo 927193" transform="translate(109.806 0.789)" style="mix-blend-mode: multiply;isolation: isolate">
            <g id="Grupo_927192" data-name="Grupo 927192">
              <g id="Grupo_927191" data-name="Grupo 927191">
                <path id="Rectngulo_299848" data-name="Rectngulo 299848" d="M.183,0H15.073a.182.182,0,0,1,.182.182V27.166a.183.183,0,0,1-.183.183H.182A.182.182,0,0,1,0,27.167V.183A.183.183,0,0,1,.183,0Z" fill="none" stroke="#19212d" stroke-miterlimit="10" stroke-width="0.462"/>
                <rect id="Rectngulo_299849" data-name="Rectngulo 299849" width="15.255" height="23.602" transform="translate(0 1.848)" fill="none" stroke="#19212d" stroke-miterlimit="10" stroke-width="0.462"/>
                <g id="Grupo_927190" data-name="Grupo 927190" transform="translate(6.346 0.659)">
                  <rect id="Rectngulo_299850" data-name="Rectngulo 299850" width="2.516" height="0.396" transform="translate(0 0.024)" fill="#19212d"/>
                  <path id="Trazado_750539" data-name="Trazado 750539" d="M357.283,204.016a.221.221,0,1,1-.22-.222A.221.221,0,0,1,357.283,204.016Z" transform="translate(-354.194 -203.794)" fill="#19212d"/>
                </g>
              </g>
            </g>
            <path id="Trazado_750540" data-name="Trazado 750540" d="M360.829,210.286a3.921,3.921,0,1,0-7.044,3.445l3.523,7.2,3.52-7.2A3.94,3.94,0,0,0,360.829,210.286Zm-3.523,3.439a1.816,1.816,0,1,1,1.814-1.816A1.816,1.816,0,0,1,357.306,213.725Z" transform="translate(-349.679 -200.861)" fill="none" stroke="#19212d" stroke-miterlimit="10" stroke-width="0.462"/>
          </g>
        </g>
        <g id="Grupo_927207" data-name="Grupo 927207" transform="translate(227.33 53.357)" style="mix-blend-mode: multiply;isolation: isolate">
          <path id="Trazado_750541" data-name="Trazado 750541" d="M390.627,243.707a7.54,7.54,0,0,0-15.077,0Z" transform="translate(-367.191 -222.127)" fill="none" stroke="#19212d" stroke-miterlimit="10" stroke-width="0.462"/>
          <rect id="Rectngulo_299851" data-name="Rectngulo 299851" width="5.673" height="1.91" transform="translate(13.062 3.556)" fill="none" stroke="#19212d" stroke-miterlimit="10" stroke-width="0.462"/>
          <rect id="Rectngulo_299852" data-name="Rectngulo 299852" width="3.136" height="3.556" transform="translate(14.331)" fill="none" stroke="#19212d" stroke-miterlimit="10" stroke-width="0.462"/>
          <rect id="Rectngulo_299853" data-name="Rectngulo 299853" width="5.673" height="9.355" transform="translate(13.062 5.466)" fill="#fff" stroke="#19212d" stroke-miterlimit="10" stroke-width="0.462"/>
          <g id="Grupo_927200" data-name="Grupo 927200" transform="translate(18.408 3.251)">
            <g id="Grupo_927195" data-name="Grupo 927195">
              <path id="Trazado_750542" data-name="Trazado 750542" d="M395.563,235.029H382.118v-5.856h13.445Zm-12.831-.612h12.216v-4.633H382.731Z" transform="translate(-382.118 -229.173)" fill="#19212d"/>
            </g>
            <g id="Grupo_927196" data-name="Grupo 927196" transform="translate(0 1.588)">
              <path id="Trazado_750543" data-name="Trazado 750543" d="M395.563,232.891H382.118v-2.68h13.445Zm-12.831-.613h12.216v-1.455H382.731Z" transform="translate(-382.118 -230.211)" fill="#19212d"/>
            </g>
            <g id="Grupo_927197" data-name="Grupo 927197" transform="translate(1.799)">
              <path id="Trazado_750544" data-name="Trazado 750544" d="M385.809,235.029h-2.515v-5.856h2.515Zm-1.9-.612H385.2v-4.633h-1.291Z" transform="translate(-383.294 -229.173)" fill="#19212d"/>
            </g>
            <g id="Grupo_927198" data-name="Grupo 927198" transform="translate(5.604)">
              <path id="Trazado_750545" data-name="Trazado 750545" d="M388.3,235.029h-2.515v-5.856H388.3Zm-1.9-.612h1.29v-4.633h-1.29Z" transform="translate(-385.781 -229.173)" fill="#19212d"/>
            </g>
            <g id="Grupo_927199" data-name="Grupo 927199" transform="translate(9.345)">
              <path id="Trazado_750546" data-name="Trazado 750546" d="M390.74,235.029h-2.514v-5.856h2.514Zm-1.9-.612h1.291v-4.633h-1.291Z" transform="translate(-388.226 -229.173)" fill="#19212d"/>
            </g>
          </g>
          <g id="Grupo_927206" data-name="Grupo 927206" transform="translate(0 3.251)">
            <g id="Grupo_927201" data-name="Grupo 927201">
              <path id="Trazado_750547" data-name="Trazado 750547" d="M383.531,235.029H370.086v-5.856h13.445Zm-12.834-.612h12.221v-4.633H370.7Z" transform="translate(-370.086 -229.173)" fill="#19212d"/>
            </g>
            <g id="Grupo_927202" data-name="Grupo 927202" transform="translate(0 1.588)">
              <path id="Trazado_750548" data-name="Trazado 750548" d="M383.531,232.891H370.086v-2.68h13.445Zm-12.834-.613h12.221v-1.455H370.7Z" transform="translate(-370.086 -230.211)" fill="#19212d"/>
            </g>
            <g id="Grupo_927203" data-name="Grupo 927203" transform="translate(1.799)">
              <path id="Trazado_750549" data-name="Trazado 750549" d="M373.776,235.029h-2.514v-5.856h2.514Zm-1.9-.612h1.291v-4.633h-1.291Z" transform="translate(-371.262 -229.173)" fill="#19212d"/>
            </g>
            <g id="Grupo_927204" data-name="Grupo 927204" transform="translate(5.604)">
              <path id="Trazado_750550" data-name="Trazado 750550" d="M376.266,235.029h-2.517v-5.856h2.517Zm-1.9-.612h1.291v-4.633h-1.291Z" transform="translate(-373.749 -229.173)" fill="#19212d"/>
            </g>
            <g id="Grupo_927205" data-name="Grupo 927205" transform="translate(9.343)">
              <path id="Trazado_750551" data-name="Trazado 750551" d="M378.708,235.029h-2.515v-5.856h2.515Zm-1.9-.612h1.288v-4.633h-1.288Z" transform="translate(-376.193 -229.173)" fill="#19212d"/>
            </g>
          </g>
        </g>
        <g id="Grupo_927209" data-name="Grupo 927209" transform="translate(42.415 53.398)" style="mix-blend-mode: multiply;isolation: isolate">
          <path id="Trazado_750552" data-name="Trazado 750552" d="M270.343,237.88a10.562,10.562,0,1,1-10.562-10.562A10.562,10.562,0,0,1,270.343,237.88Z" transform="translate(-249.218 -226.946)" fill="none" stroke="#19212d" stroke-miterlimit="10" stroke-width="0.462"/>
          <path id="Trazado_750553" data-name="Trazado 750553" d="M264.275,237.88c0,5.835-2.709,10.562-6.055,10.562s-6.055-4.727-6.055-10.562,2.711-10.562,6.055-10.562S264.275,232.048,264.275,237.88Z" transform="translate(-247.657 -226.946)" fill="none" stroke="#19212d" stroke-miterlimit="10" stroke-width="0.462"/>
          <line id="Lnea_1154" data-name="Lnea 1154" x2="21.05" transform="translate(0.075 9.691)" fill="none" stroke="#19212d" stroke-miterlimit="10" stroke-width="0.462"/>
          <line id="Lnea_1155" data-name="Lnea 1155" y2="21.05" transform="translate(10.562)" fill="none" stroke="#19212d" stroke-miterlimit="10" stroke-width="0.462"/>
          <g id="Grupo_927208" data-name="Grupo 927208" transform="translate(2.322 4.329)">
            <path id="Trazado_750554" data-name="Trazado 750554" d="M250.736,239.91a10.559,10.559,0,0,1,16.48,0" transform="translate(-250.736 -226.7)" fill="none"/>
            <path id="Trazado_750555" data-name="Trazado 750555" d="M267.216,229.9a10.559,10.559,0,0,1-16.48,0" transform="translate(-250.736 -229.905)" fill="none"/>
            <path id="Trazado_750556" data-name="Trazado 750556" d="M250.736,229.9a10.559,10.559,0,0,0,16.48,0" transform="translate(-250.736 -229.905)" fill="none" stroke="#19212d" stroke-miterlimit="10" stroke-width="0.462"/>
            <path id="Trazado_750557" data-name="Trazado 750557" d="M267.216,239.91a10.559,10.559,0,0,0-16.48,0" transform="translate(-250.736 -226.7)" fill="none" stroke="#19212d" stroke-miterlimit="10" stroke-width="0.462"/>
          </g>
        </g>
        <g id="Grupo_927213" data-name="Grupo 927213" transform="translate(257.654 162.169)" style="mix-blend-mode: multiply;isolation: isolate">
          <path id="Trazado_750558" data-name="Trazado 750558" d="M410.715,308.575a10.4,10.4,0,1,1-10.4-10.4A10.4,10.4,0,0,1,410.715,308.575Z" transform="translate(-389.907 -298.172)" fill="none" stroke="#19212d" stroke-linecap="round" stroke-linejoin="round" stroke-width="0.462"/>
          <path id="Trazado_750559" data-name="Trazado 750559" d="M409.2,308.187a9.281,9.281,0,1,1-9.282-9.282A9.28,9.28,0,0,1,409.2,308.187Z" transform="translate(-389.518 -297.784)" fill="none" stroke="#19212d" stroke-linecap="round" stroke-linejoin="round" stroke-width="0.462"/>
          <g id="Grupo_927210" data-name="Grupo 927210" transform="translate(9.1 4.151)">
            <path id="Trazado_750560" data-name="Trazado 750560" d="M398.461,307.116l-1.227-6.23-1.379,6.23Z" transform="translate(-395.855 -300.885)" fill="none" stroke="#19212d" stroke-linecap="round" stroke-linejoin="round" stroke-width="0.462"/>
            <path id="Trazado_750561" data-name="Trazado 750561" d="M395.855,304.987l1.228,6.232,1.377-6.232Z" transform="translate(-395.855 -298.712)" fill="none" stroke="#19212d" stroke-linecap="round" stroke-linejoin="round" stroke-width="0.462"/>
          </g>
          <path id="Trazado_750562" data-name="Trazado 750562" d="M399.353,305.653a1.965,1.965,0,1,1-1.966-1.966A1.965,1.965,0,0,1,399.353,305.653Z" transform="translate(-386.984 -295.25)" fill="#fff" stroke="#19212d" stroke-linecap="round" stroke-linejoin="round" stroke-width="0.462"/>
          <g id="Grupo_927211" data-name="Grupo 927211" transform="translate(10.403 1.122)">
            <line id="Lnea_1156" data-name="Lnea 1156" y2="1.468" fill="none" stroke="#19212d" stroke-miterlimit="10" stroke-width="0.462"/>
            <line id="Lnea_1157" data-name="Lnea 1157" y2="1.468" transform="translate(0 17.41)" fill="none" stroke="#19212d" stroke-miterlimit="10" stroke-width="0.462"/>
          </g>
          <g id="Grupo_927212" data-name="Grupo 927212" transform="translate(0.965 10.561)">
            <line id="Lnea_1158" data-name="Lnea 1158" x1="1.47" transform="translate(17.409)" fill="none" stroke="#19212d" stroke-miterlimit="10" stroke-width="0.462"/>
            <line id="Lnea_1159" data-name="Lnea 1159" x1="1.468" fill="none" stroke="#19212d" stroke-miterlimit="10" stroke-width="0.462"/>
          </g>
        </g>
        <g id="Grupo_927214" data-name="Grupo 927214" transform="translate(23.136 157.334)" style="mix-blend-mode: multiply;isolation: isolate">
          <circle id="Elipse_6907" data-name="Elipse 6907" cx="8.695" cy="8.695" r="8.695" fill="none" stroke="#19212d" stroke-miterlimit="10" stroke-width="0.462"/>
          <circle id="Elipse_6908" data-name="Elipse 6908" cx="6.552" cy="6.552" r="6.552" transform="translate(2.143 2.143)" fill="none" stroke="#19212d" stroke-miterlimit="10" stroke-width="0.462"/>
          <rect id="Rectngulo_299854" data-name="Rectngulo 299854" width="2.301" height="3.29" transform="translate(7.544 17.389)" fill="none" stroke="#19212d" stroke-miterlimit="10" stroke-width="0.462"/>
          <rect id="Rectngulo_299855" data-name="Rectngulo 299855" width="3.668" height="9.797" transform="translate(6.86 20.68)" fill="none" stroke="#19212d" stroke-miterlimit="10" stroke-width="0.462"/>
          <path id="Trazado_750563" data-name="Trazado 750563" d="M242.3,297.612a4.717,4.717,0,0,1,0,9.433" transform="translate(-233.607 -293.634)" fill="none" stroke="#19212d" stroke-miterlimit="10" stroke-width="0.462"/>
        </g>
        <g id="Grupo_927219" data-name="Grupo 927219" transform="translate(29.1 108.438)">
          <g id="Grupo_927215" data-name="Grupo 927215" style="mix-blend-mode: multiply;isolation: isolate">
            <path id="Trazado_750564" data-name="Trazado 750564" d="M249.463,275.006h-6l-1.032-9.353h7.8Z" transform="translate(-239.497 -261.672)" fill="#fff" stroke="#19212d" stroke-miterlimit="10" stroke-width="0.462"/>
            <path id="Trazado_750565" data-name="Trazado 750565" d="M244.116,272.417h2.654l-1.561,10.1Z" transform="translate(-238.607 -258.088)" fill="none" stroke="#19212d" stroke-miterlimit="10" stroke-width="0.462"/>
            <path id="Trazado_750566" data-name="Trazado 750566" d="M240.515,263.051v.06c0,2.166,3.06,3.921,6.837,3.921s6.837-1.755,6.837-3.921c0-.02,0-.04,0-.06Z" transform="translate(-240.515 -263.051)" fill="#fff" stroke="#19212d" stroke-miterlimit="10" stroke-width="0.462"/>
            <path id="Trazado_750567" data-name="Trazado 750567" d="M251.668,273.758l0-.031c0-1.082-2.224-1.961-4.966-1.961s-4.968.88-4.968,1.961l0,.031Z" transform="translate(-239.867 -258.433)" fill="#fff" stroke="#19212d" stroke-miterlimit="10" stroke-width="0.462"/>
          </g>
          <g id="Grupo_927218" data-name="Grupo 927218" transform="translate(221.797 1.205)" style="mix-blend-mode: multiply;isolation: isolate">
            <g id="Grupo_927216" data-name="Grupo 927216">
              <rect id="Rectngulo_299856" data-name="Rectngulo 299856" width="14.4" height="16.906" transform="translate(0 5.116)" fill="#fff" stroke="#19212d" stroke-linecap="round" stroke-linejoin="round" stroke-width="0.462"/>
              <rect id="Rectngulo_299857" data-name="Rectngulo 299857" width="14.4" height="16.906" transform="translate(7.2)" fill="#fff" stroke="#19212d" stroke-linecap="round" stroke-linejoin="round" stroke-width="0.462"/>
              <path id="Trazado_750568" data-name="Trazado 750568" d="M390.2,274.889l7.2,5.116v-5.116Z" transform="translate(-382.997 -257.983)" fill="#fff" stroke="#19212d" stroke-linecap="round" stroke-linejoin="round" stroke-width="0.462"/>
            </g>
            <g id="Grupo_927217" data-name="Grupo 927217" transform="translate(10.967 2.33)">
              <path id="Trazado_750569" data-name="Trazado 750569" d="M399.178,267.288a3.434,3.434,0,0,0-6.17,3.017l3.086,6.3,3.084-6.3A3.461,3.461,0,0,0,399.178,267.288Zm-3.086,3.011a1.59,1.59,0,1,1,1.588-1.588A1.59,1.59,0,0,1,396.092,270.3Z" transform="translate(-392.659 -265.362)" fill="none" stroke="#19212d" stroke-miterlimit="10" stroke-width="0.462"/>
            </g>
          </g>
        </g>
        <path id="Trazado_750570" data-name="Trazado 750570" d="M410.8,241.9a22.507,22.507,0,1,1-22.509-22.508A22.509,22.509,0,0,1,410.8,241.9Z" transform="translate(-145.035 -177.75)" fill="none" stroke="#19212d" stroke-miterlimit="10" stroke-width="0.925" stroke-dasharray="1.387"/>
        <circle id="Elipse_6909" data-name="Elipse 6909" cx="22.507" cy="22.507" r="22.507" transform="translate(0 172.573) rotate(-45)" fill="none" stroke="#19212d" stroke-miterlimit="10" stroke-width="0.925" stroke-dasharray="1.387"/>
        <path id="Trazado_750571" data-name="Trazado 750571" d="M427.011,312.767A22.508,22.508,0,1,1,404.5,290.261,22.509,22.509,0,0,1,427.011,312.767Z" transform="translate(-136.445 -140.195)" fill="none" stroke="#19212d" stroke-miterlimit="10" stroke-width="0.925" stroke-dasharray="1.387"/>
        <path id="Trazado_750572" data-name="Trazado 750572" d="M350.364,214.68a22.507,22.507,0,1,1-22.508-22.508A22.507,22.507,0,0,1,350.364,214.68Z" transform="translate(-177.059 -192.172)" fill="none" stroke="#19212d" stroke-miterlimit="10" stroke-width="0.925" stroke-dasharray="1.387"/>
        <path id="Trazado_750573" data-name="Trazado 750573" d="M286.426,241.9a22.508,22.508,0,1,1-22.508-22.508A22.508,22.508,0,0,1,286.426,241.9Z" transform="translate(-210.941 -177.75)" fill="none" stroke="#19212d" stroke-miterlimit="10" stroke-width="0.925" stroke-dasharray="1.387"/>
      </g>
    </g>
  </g>
</svg>
