<svg xmlns="http://www.w3.org/2000/svg" width="399" height="217.833" viewBox="0 0 399 217.833">
  <g id="Grupo_926971" data-name="Grupo 926971" transform="translate(-936 -3597.917)">
    <g id="deforestacion-01" transform="translate(936 3597.917)">
      <g id="OBJECTS" transform="translate(0 0)">
        <path id="Trazado_254296" data-name="Trazado 254296" d="M70.5,236.551c.227-14.154-27.152-37.682-32.285-78.375C33.93,124.435,60.248,94.723,85.48,83.8c23.546-10.18,35.2-6.484,50.931-14.872,22.018-11.744,24.7-38.79,57.082-48.235,15.394-4.492,31.73-.824,46.246,5.928S267.876,42.436,283.163,47c15.388,4.6,31.692,3.473,47.661,2.16,53.88-4.453,88.565,36.736,86.563,70.466-1.187,20.038-8.55,33.641-18.9,45.586-5.822,6.713-14.435,14.093-11.593,22.631,1.263,3.9,4.717,6.479,7.577,9.357,9.547,9.7,12.957,26.16,8.745,39.352Z" transform="translate(-28.984 -18.718)" fill="#eae696"/>
        <path id="Trazado_254396" data-name="Trazado 254396" d="M419.833,408.426H23.167A1.112,1.112,0,0,1,22,407.385h0a1.107,1.107,0,0,1,1.167-1.035H419.833A1.107,1.107,0,0,1,421,407.385h0a1.112,1.112,0,0,1-1.167,1.041Z" transform="translate(-22 -190.593)" fill="#fda829"/>
      </g>
    </g>
    <g id="Grupo_926970" data-name="Grupo 926970" transform="translate(445.589 3631.13)">
      <g id="Shadow" transform="translate(582.546 63.303)">
        <path id="Trazado_749244" data-name="Trazado 749244" d="M675.018,251.3,604.65,210.362a1.4,1.4,0,0,1,0-2.655l126.03-73.316a5.011,5.011,0,0,1,4.564,0l70.366,40.935a1.405,1.405,0,0,1,0,2.656L679.582,251.3A5.011,5.011,0,0,1,675.018,251.3Z" transform="translate(-591.501 -133.841)" fill="#fff"/>
        <ellipse id="Elipse_6902" data-name="Elipse 6902" cx="20.972" cy="9.995" rx="20.972" ry="9.995" transform="translate(0 82.811)" fill="#fff"/>
      </g>
      <g id="Plants" transform="translate(754.162 49.553)">
        <g id="Grupo_926920" data-name="Grupo 926920">
          <g id="Grupo_926918" data-name="Grupo 926918">
            <g id="Grupo_926917" data-name="Grupo 926917">
              <path id="Trazado_749245" data-name="Trazado 749245" d="M894.037,144.846c1.085-3.606,3.167-14.489,1.143-22.291-1.556-6-5.4-10.974-9.829-12.343s-6.865,4.187-4.056,7.936c7.172,9.572,10.215,17.585,8.607,24.347Z" transform="translate(-880.096 -110)" fill="#27debf"/>
              <path id="Trazado_749246" data-name="Trazado 749246" d="M894.037,144.846c1.085-3.606,3.167-14.489,1.143-22.291-1.556-6-5.4-10.974-9.829-12.343s-6.865,4.187-4.056,7.936c7.172,9.572,10.215,17.585,8.607,24.347Z" transform="translate(-880.096 -110)" opacity="0.1"/>
            </g>
            <path id="Trazado_749247" data-name="Trazado 749247" d="M889.212,115.644c2.385,2.1,11.029,13.744,7.234,30.767" transform="translate(-883.954 -112.389)" fill="none" stroke="#fafafa" stroke-linecap="round" stroke-miterlimit="10" stroke-width="1"/>
          </g>
          <g id="Grupo_926919" data-name="Grupo 926919" transform="translate(11.82 3.354)">
            <path id="Trazado_749248" data-name="Trazado 749248" d="M918.4,154.762c2.286-.274,5.18-1,6.569-3.793s-2.716-5.167-2.639-7.519,2.436-3.39,4.941-4.341,4.967-4.325,2.89-6.722-4.248-5.42-2.076-8.392,5.986-5.85,2.467-7.631c-4.415-2.234-8.922,2.966-12.152,4.832s-7.251-.985-10.2,2.106,2.626,7.063-.876,10.284-8.3,3.886-6.229,10.934Z" transform="translate(-900.59 -115.816)" fill="#27debf"/>
            <path id="Trazado_749249" data-name="Trazado 749249" d="M934.8,119.354c-3.095,1.479-16.736,16.517-18.938,31.458" transform="translate(-907.054 -117.313)" fill="none" stroke="#fafafa" stroke-linecap="round" stroke-miterlimit="10" stroke-width="1"/>
            <path id="Trazado_749250" data-name="Trazado 749250" d="M920.759,131.825s3.42,3.683,4.217,6.653" transform="translate(-909.126 -122.592)" fill="none" stroke="#fafafa" stroke-linecap="round" stroke-miterlimit="10" stroke-width="1"/>
            <path id="Trazado_749251" data-name="Trazado 749251" d="M936.106,148.274c-2.866-.4-9.77-.587-12.6,1.706" transform="translate(-910.288 -129.451)" fill="none" stroke="#fafafa" stroke-linecap="round" stroke-miterlimit="10" stroke-width="1"/>
          </g>
        </g>
      </g>
      <g id="Map" transform="translate(592.993 53.06)">
        <g id="Grupo_926931" data-name="Grupo 926931">
          <g id="Grupo_926921" data-name="Grupo 926921" transform="translate(0 65.784)">
            <path id="Trazado_749252" data-name="Trazado 749252" d="M709.063,271.212l-26.891,7.245L618.626,241.77l26.891-7.245Z" transform="translate(-608.264 -231.995)" fill="#455a64"/>
            <path id="Trazado_749253" data-name="Trazado 749253" d="M705.839,271.885l-32.868,8.857L600.66,239l32.868-8.858,4.385,2.53-26.891,7.245L674.568,276.6l26.891-7.244Z" transform="translate(-600.66 -230.139)" fill="#455a64"/>
          </g>
          <g id="Grupo_926922" data-name="Grupo 926922" transform="translate(32.868 37.955)">
            <path id="Trazado_749254" data-name="Trazado 749254" d="M759.473,222.96,728.8,250.79,665.25,214.1l30.678-27.829Z" transform="translate(-660.865 -183.744)" fill="#37474f"/>
            <path id="Trazado_749255" data-name="Trazado 749255" d="M810.484,252.412l-30.678,27.829-4.38-2.53,30.678-27.83Z" transform="translate(-707.495 -210.665)" fill="#37474f"/>
            <path id="Trazado_749256" data-name="Trazado 749256" d="M692.71,184.417l-30.678,27.829-4.386-2.53,30.678-27.83Z" transform="translate(-657.647 -181.887)" fill="#37474f"/>
          </g>
          <g id="Grupo_926923" data-name="Grupo 926923" transform="translate(96.413)">
            <path id="Trazado_749257" data-name="Trazado 749257" d="M868.377,162.467,838.972,188.5l-63.545-36.687,29.4-26.033Z" transform="translate(-771.041 -120.186)" fill="#37474f"/>
            <path id="Trazado_749258" data-name="Trazado 749258" d="M873,157.828l-32.868,29.1-4.38-2.53,29.405-26.033-63.546-36.687-29.4,26.033-4.386-2.53,32.868-29.1Z" transform="translate(-767.823 -116.081)" fill="#37474f"/>
          </g>
          <g id="Grupo_926924" data-name="Grupo 926924" transform="translate(63.546 29.097)">
            <path id="Trazado_749259" data-name="Trazado 749259" d="M814.853,207.6l-32.868,8.857L718.44,179.774l32.868-8.857Z" transform="translate(-714.054 -168.386)" fill="#455a64"/>
            <path id="Trazado_749260" data-name="Trazado 749260" d="M748.089,169.06l-32.868,8.857-4.385-2.53L743.7,166.53Z" transform="translate(-710.836 -166.53)" fill="#455a64"/>
            <path id="Trazado_749261" data-name="Trazado 749261" d="M865.864,237.055,833,245.912l-4.38-2.53,32.868-8.857Z" transform="translate(-760.685 -195.308)" fill="#455a64"/>
          </g>
          <g id="Grupo_926925" data-name="Grupo 926925" transform="translate(100.799 5.593)">
            <path id="Trazado_749262" data-name="Trazado 749262" d="M822.52,125.778l-5.3,4.7,2.191,13.747,26.359-5.023Z" transform="translate(-793.113 -125.778)" fill="#263238"/>
            <path id="Trazado_749263" data-name="Trazado 749263" d="M886.175,162.805a28.343,28.343,0,0,1-10.7,10.034L863.885,154.53l5.95-1.159Z" transform="translate(-812.865 -137.456)" fill="#263238"/>
            <path id="Trazado_749264" data-name="Trazado 749264" d="M863.6,176.163a31.981,31.981,0,0,1-10.642,2.714,29.371,29.371,0,0,1-4.019-.157l-4.224-20.563,6.748-1.317Z" transform="translate(-804.75 -138.925)" fill="#263238"/>
            <path id="Trazado_749265" data-name="Trazado 749265" d="M834.97,179.439a34.7,34.7,0,0,1-11.155-5.583l-1.877-11.625,9.327-1.818Z" transform="translate(-795.112 -140.437)" fill="#263238"/>
            <path id="Trazado_749266" data-name="Trazado 749266" d="M886.566,172.6c-6.457,10.781-21.063,16.155-27.975,15.813,0,0-1.268.2,0,.928l13.147,7.591L891.23,193l12.109-10.72Z" transform="translate(-810.386 -145.594)" fill="#263238"/>
            <path id="Trazado_749267" data-name="Trazado 749267" d="M899.789,214.347l-11.729,2.337,5.5,3.176Z" transform="translate(-823.097 -163.263)" fill="#263238"/>
            <path id="Trazado_749268" data-name="Trazado 749268" d="M799.528,163.757l-6.575,3.792-17.526-10.12,20.758-18.378Z" transform="translate(-775.426 -131.396)" fill="#263238"/>
            <path id="Trazado_749269" data-name="Trazado 749269" d="M866.489,215.517l-3.458,3.064-30.677-17.71c-.388-2.756.648-4.687,2.19-3.8S866.489,215.517,866.489,215.517Z" transform="translate(-799.485 -155.86)" fill="#263238"/>
            <path id="Trazado_749270" data-name="Trazado 749270" d="M819.469,194.54l-7.276-4.2,4.5-2.465c1.51.874,4.827,2.87,4.827,2.87S819.146,192.528,819.469,194.54Z" transform="translate(-790.987 -152.059)" fill="#263238"/>
          </g>
          <g id="Grupo_926926" data-name="Grupo 926926" transform="translate(67.931 31.627)">
            <path id="Trazado_749271" data-name="Trazado 749271" d="M748.6,190.238l-12.634,3.4-17.526-10.12,13.907-3.749Z" transform="translate(-718.44 -174.665)" fill="#37474f"/>
            <path id="Trazado_749272" data-name="Trazado 749272" d="M757.543,174.349l-2.627,4.726-4.4-2.832Z" transform="translate(-732.018 -172.369)" fill="#37474f"/>
            <path id="Trazado_749273" data-name="Trazado 749273" d="M788.12,181.036l-15.644,4.213-8.469-5.448V179.8l4.623-8.35,1.963-.529Z" transform="translate(-737.725 -170.916)" fill="#37474f"/>
            <path id="Trazado_749274" data-name="Trazado 749274" d="M863.09,221.529l-8.215,2.217h-.005c-.292-.038-8.286-1.047-10.52-1.522-2.271-.48-3.717-1.009-4.9-3.225s-7.034-15.18-7.034-15.18Z" transform="translate(-766.678 -184.842)" fill="#37474f"/>
            <path id="Trazado_749275" data-name="Trazado 749275" d="M816.463,217,784.377,196.35l16.043-4.2,7.277,4.2Z" transform="translate(-746.347 -179.902)" fill="#37474f"/>
            <path id="Trazado_749276" data-name="Trazado 749276" d="M794.781,219.3l-10.6,2.53L754.7,204.808l.011-.011,12.477-3.269Z" transform="translate(-733.787 -183.872)" fill="#37474f"/>
            <path id="Trazado_749277" data-name="Trazado 749277" d="M831.467,241.865l-9.284,2.5-8.766-5.06,10.271-2.454Z" transform="translate(-758.638 -198.823)" fill="#37474f"/>
            <path id="Trazado_749278" data-name="Trazado 749278" d="M853.443,240.942l-7.577-1.024,3.434,2.14Z" transform="translate(-772.371 -200.121)" fill="#37474f"/>
          </g>
          <g id="Grupo_926927" data-name="Grupo 926927" transform="translate(37.253 40.485)">
            <path id="Trazado_749279" data-name="Trazado 749279" d="M809.892,246.169l-12.553,11.382-12.962-1.262,2.693-10.367,14.056-4.813Z" transform="translate(-715.669 -209.482)" fill="#263238"/>
            <path id="Trazado_749280" data-name="Trazado 749280" d="M700.513,221.235l-18.794,16.118-16.469-9.51,2-1.812,7.822.2,13.313-7.5Z" transform="translate(-665.25 -200.013)" fill="#263238"/>
            <path id="Trazado_749281" data-name="Trazado 749281" d="M779.083,224.234l-10.956,3.792-25.472-14.71,6.948-6.1Z" transform="translate(-698.011 -195.137)" fill="#263238"/>
            <path id="Trazado_749282" data-name="Trazado 749282" d="M735.408,196.393l-9.677,8.3-8.61-1.98.761-16.442Z" transform="translate(-687.204 -186.273)" fill="#263238"/>
            <path id="Trazado_749283" data-name="Trazado 749283" d="M705.312,192.858l-.539,11.949-4.035-.566-1.683.966-1.742-5.092Z" transform="translate(-678.82 -189.06)" fill="#263238"/>
            <path id="Trazado_749284" data-name="Trazado 749284" d="M685.854,215.241l-6.781,3.911-3.582.124,8.955-8.124Z" transform="translate(-669.585 -196.803)" fill="#263238"/>
            <path id="Trazado_749285" data-name="Trazado 749285" d="M750.72,237.12l-21.644,7.745L712.51,235.3l13.906-12.213Z" transform="translate(-685.252 -201.854)" fill="#263238"/>
            <path id="Trazado_749286" data-name="Trazado 749286" d="M763.938,252.875l-6.883,23.854-14.047-8.108v-.005l-1.775-7.6Z" transform="translate(-697.409 -214.462)" fill="#263238"/>
            <path id="Trazado_749287" data-name="Trazado 749287" d="M790.286,274.919l-8.739,7.93-4.877,4.423,3.453-13.259Z" transform="translate(-712.407 -223.408)" fill="#263238"/>
            <path id="Trazado_749288" data-name="Trazado 749288" d="M732.358,272.488l-.07.167-7.7-4.445,6.3-.782Z" transform="translate(-690.363 -220.621)" fill="#263238"/>
            <path id="Trazado_749289" data-name="Trazado 749289" d="M719.043,256.693l-8.593,1.327h-.005l-9.99-5.767,4.041-3.55Z" transform="translate(-680.15 -212.696)" fill="#263238"/>
          </g>
          <g id="Grupo_926928" data-name="Grupo 926928" transform="translate(100.799 5.593)" opacity="0.2" style="mix-blend-mode: multiply;isolation: isolate">
            <path id="Trazado_749290" data-name="Trazado 749290" d="M822.52,125.778l-5.3,4.7,2.191,13.747,26.359-5.023Z" transform="translate(-793.113 -125.778)" fill="#263238"/>
            <path id="Trazado_749291" data-name="Trazado 749291" d="M886.175,162.805a28.343,28.343,0,0,1-10.7,10.034L863.885,154.53l5.95-1.159Z" transform="translate(-812.865 -137.456)" fill="#263238"/>
            <path id="Trazado_749292" data-name="Trazado 749292" d="M863.6,176.163a31.981,31.981,0,0,1-10.642,2.714,29.371,29.371,0,0,1-4.019-.157l-4.224-20.563,6.748-1.317Z" transform="translate(-804.75 -138.925)" fill="#263238"/>
            <path id="Trazado_749293" data-name="Trazado 749293" d="M834.97,179.439a34.7,34.7,0,0,1-11.155-5.583l-1.877-11.625,9.327-1.818Z" transform="translate(-795.112 -140.437)" fill="#263238"/>
            <path id="Trazado_749294" data-name="Trazado 749294" d="M886.566,172.6c-6.457,10.781-21.063,16.155-27.975,15.813,0,0-1.268.2,0,.928l13.147,7.591L891.23,193l12.109-10.72Z" transform="translate(-810.386 -145.594)" fill="#263238"/>
            <path id="Trazado_749295" data-name="Trazado 749295" d="M899.789,214.347l-11.729,2.337,5.5,3.176Z" transform="translate(-823.097 -163.263)" fill="#263238"/>
            <path id="Trazado_749296" data-name="Trazado 749296" d="M799.528,163.757l-6.575,3.792-17.526-10.12,20.758-18.378Z" transform="translate(-775.426 -131.396)" fill="#263238"/>
            <path id="Trazado_749297" data-name="Trazado 749297" d="M866.489,215.517l-3.458,3.064-30.677-17.71c-.388-2.756.648-4.687,2.19-3.8S866.489,215.517,866.489,215.517Z" transform="translate(-799.485 -155.86)" fill="#263238"/>
            <path id="Trazado_749298" data-name="Trazado 749298" d="M819.469,194.54l-7.276-4.2,4.5-2.465c1.51.874,4.827,2.87,4.827,2.87S819.146,192.528,819.469,194.54Z" transform="translate(-790.987 -152.059)" fill="#263238"/>
          </g>
          <g id="Grupo_926929" data-name="Grupo 926929" transform="translate(37.253 40.485)" opacity="0.2" style="mix-blend-mode: multiply;isolation: isolate">
            <path id="Trazado_749299" data-name="Trazado 749299" d="M809.892,246.169l-12.553,11.382-12.962-1.262,2.693-10.367,14.056-4.813Z" transform="translate(-715.669 -209.482)" fill="#263238"/>
            <path id="Trazado_749300" data-name="Trazado 749300" d="M700.513,221.235l-18.794,16.118-16.469-9.51,2-1.812,7.822.2,13.313-7.5Z" transform="translate(-665.25 -200.013)" fill="#263238"/>
            <path id="Trazado_749301" data-name="Trazado 749301" d="M779.083,224.234l-10.956,3.792-25.472-14.71,6.948-6.1Z" transform="translate(-698.011 -195.137)" fill="#263238"/>
            <path id="Trazado_749302" data-name="Trazado 749302" d="M735.408,196.393l-9.677,8.3-8.61-1.98.761-16.442Z" transform="translate(-687.204 -186.273)" fill="#263238"/>
            <path id="Trazado_749303" data-name="Trazado 749303" d="M705.312,192.858l-.539,11.949-4.035-.566-1.683.966-1.742-5.092Z" transform="translate(-678.82 -189.06)" fill="#263238"/>
            <path id="Trazado_749304" data-name="Trazado 749304" d="M685.854,215.241l-6.781,3.911-3.582.124,8.955-8.124Z" transform="translate(-669.585 -196.803)" fill="#263238"/>
            <path id="Trazado_749305" data-name="Trazado 749305" d="M750.72,237.12l-21.644,7.745L712.51,235.3l13.906-12.213Z" transform="translate(-685.252 -201.854)" fill="#263238"/>
            <path id="Trazado_749306" data-name="Trazado 749306" d="M763.938,252.875l-6.883,23.854-14.047-8.108v-.005l-1.775-7.6Z" transform="translate(-697.409 -214.462)" fill="#263238"/>
            <path id="Trazado_749307" data-name="Trazado 749307" d="M790.286,274.919l-8.739,7.93-4.877,4.423,3.453-13.259Z" transform="translate(-712.407 -223.408)" fill="#263238"/>
            <path id="Trazado_749308" data-name="Trazado 749308" d="M732.358,272.488l-.07.167-7.7-4.445,6.3-.782Z" transform="translate(-690.363 -220.621)" fill="#263238"/>
            <path id="Trazado_749309" data-name="Trazado 749309" d="M719.043,256.693l-8.593,1.327h-.005l-9.99-5.767,4.041-3.55Z" transform="translate(-680.15 -212.696)" fill="#263238"/>
          </g>
          <g id="Grupo_926930" data-name="Grupo 926930" transform="translate(10.363 68.314)">
            <path id="Trazado_749310" data-name="Trazado 749310" d="M644.616,247.071l-15.379,1.812h-.006l-10.605-6.128,21.907-5.9Z" transform="translate(-618.626 -235.51)" fill="#37474f"/>
            <path id="Trazado_749311" data-name="Trazado 749311" d="M680.112,244.035l-14.354,1.694-4.3-10.616,2.19-.588Z" transform="translate(-636.752 -234.525)" fill="#37474f"/>
            <path id="Trazado_749312" data-name="Trazado 749312" d="M686.706,260.625l-19.84,11.312h-.006l-22.494-12.99,32.35-4.089Z" transform="translate(-629.52 -243.13)" fill="#37474f"/>
            <path id="Trazado_749313" data-name="Trazado 749313" d="M753.436,288.284l-4.408,4.488-16.345,4.4,6.705-17Z" transform="translate(-666.9 -253.846)" fill="#37474f"/>
            <path id="Trazado_749314" data-name="Trazado 749314" d="M717.677,273.229l-7.514,18.432-20.1-11.6,19.91-11.274Z" transform="translate(-648.861 -249.024)" fill="#37474f"/>
          </g>
        </g>
      </g>
      <g id="Location" transform="translate(687.974 38.623)">
        <g id="Grupo_926935" data-name="Grupo 926935" transform="translate(0)">
          <g id="Grupo_926934" data-name="Grupo 926934">
            <g id="Grupo_926932" data-name="Grupo 926932">
              <path id="Trazado_749315" data-name="Trazado 749315" d="M791.218,94.791l-4.7-2.7h0c-2.244-1.5-5.359-1.437-8.8.552-6.834,3.945-12.374,13.963-12.374,22.374v1.915c0,8.411,11.309,17.552,11.309,17.552l4.625,2.616s-2.778-3.167-2.461-3.816c3.029-6.217,11.275-23.772,11.275-30.639v-1.914a14.947,14.947,0,0,0-.529-4.107l.53.306Zm-13.505,19.285c-3.417,1.973-6.187.374-6.188-3.572,1.84-.289,6.464-8.184,6.188-10.716,3.417-1.973,6.186-.374,6.186,3.572A13.674,13.674,0,0,1,777.713,114.076Z" transform="translate(-765.339 -91.049)" fill="#27debf"/>
              <path id="Trazado_749316" data-name="Trazado 749316" d="M791.218,94.791l-4.7-2.7h0c-2.244-1.5-5.359-1.437-8.8.552-6.834,3.945-12.374,13.963-12.374,22.374v1.915c0,8.411,11.309,17.552,11.309,17.552l4.625,2.616s-2.778-3.167-2.461-3.816c3.029-6.217,11.275-23.772,11.275-30.639v-1.914a14.947,14.947,0,0,0-.529-4.107l.53.306Zm-13.505,19.285c-3.417,1.973-6.187.374-6.188-3.572,1.84-.289,6.464-8.184,6.188-10.716,3.417-1.973,6.186-.374,6.186,3.572A13.674,13.674,0,0,1,777.713,114.076Z" transform="translate(-765.339 -91.049)" opacity="0.3"/>
            </g>
            <g id="Grupo_926933" data-name="Grupo 926933" transform="translate(4.949 2.856)">
              <path id="Trazado_749317" data-name="Trazado 749317" d="M798.667,105.684c0-8.412-5.539-12.032-12.373-8.087s-12.374,13.963-12.374,22.375v1.914c0,6.478,7.338,13.993,10.712,17.107a1.666,1.666,0,0,0,2.631-.49c2.915-5.965,11.4-23.937,11.4-30.9ZM786.294,119.03c-3.417,1.973-6.187.373-6.187-3.572a13.675,13.675,0,0,1,6.187-10.716c3.417-1.973,6.187-.373,6.187,3.572A13.676,13.676,0,0,1,786.294,119.03Z" transform="translate(-773.92 -96.001)" fill="#27debf"/>
              <path id="Trazado_749318" data-name="Trazado 749318" d="M798.667,105.684c0-8.412-5.539-12.032-12.373-8.087s-12.374,13.963-12.374,22.375v1.914c0,6.478,7.338,13.993,10.712,17.107a1.666,1.666,0,0,0,2.631-.49c2.915-5.965,11.4-23.937,11.4-30.9ZM786.294,119.03c-3.417,1.973-6.187.373-6.187-3.572a13.675,13.675,0,0,1,6.187-10.716c3.417-1.973,6.187-.373,6.187,3.572A13.676,13.676,0,0,1,786.294,119.03Z" transform="translate(-773.92 -96.001)" fill="#fff" opacity="0.2"/>
            </g>
          </g>
        </g>
      </g>
      <g id="Arrow" transform="translate(755.802 139.128)">
        <g id="Grupo_926938" data-name="Grupo 926938" transform="translate(0)">
          <g id="Grupo_926936" data-name="Grupo 926936" transform="translate(0.001 0.288)">
            <path id="Trazado_749319" data-name="Trazado 749319" d="M921.617,279.881h0V274.7l-38.676-8.893v5.173l0,.006a.833.833,0,0,0,.179.424l15.06,21.116c.37.519.767.432.888-.194l1.907-9.908a1.571,1.571,0,0,1,1.369-1.207l18.783-1.2C921.452,279.992,921.614,279.943,921.617,279.881Z" transform="translate(-882.942 -265.807)" fill="#27debf"/>
            <path id="Trazado_749320" data-name="Trazado 749320" d="M921.617,279.881h0V274.7l-38.676-8.893v5.173l0,.006a.833.833,0,0,0,.179.424l15.06,21.116c.37.519.767.432.888-.194l1.907-9.908a1.571,1.571,0,0,1,1.369-1.207l18.783-1.2C921.452,279.992,921.614,279.943,921.617,279.881Z" transform="translate(-882.942 -265.807)" opacity="0.1"/>
          </g>
          <g id="Grupo_926937" data-name="Grupo 926937">
            <path id="Trazado_749321" data-name="Trazado 749321" d="M899.072,286.94l1.907-9.908a1.571,1.571,0,0,1,1.369-1.207l18.783-1.2c.636-.041.648-.193.029-.341l-37.584-8.935c-.62-.148-.822.154-.453.672l15.06,21.116C898.555,287.652,898.952,287.565,899.072,286.94Z" transform="translate(-882.94 -265.307)" fill="#27debf"/>
            <path id="Trazado_749322" data-name="Trazado 749322" d="M899.072,286.94l1.907-9.908a1.571,1.571,0,0,1,1.369-1.207l18.783-1.2c.636-.041.648-.193.029-.341l-37.584-8.935c-.62-.148-.822.154-.453.672l15.06,21.116C898.555,287.652,898.952,287.565,899.072,286.94Z" transform="translate(-882.94 -265.307)" fill="#fff" opacity="0.3"/>
          </g>
        </g>
      </g>
      <g id="Compass" transform="translate(618.174 -32.821)">
        <g id="Grupo_926948" data-name="Grupo 926948" transform="translate(0)">
          <path id="Trazado_749323" data-name="Trazado 749323" d="M699.941,1.52l-9.823-5.671-.037-.022-.073-.042v0c-4.846-2.745-11.511-2.321-18.871,1.927-14.811,8.551-26.818,29.348-26.818,46.45,0,8.5,2.967,14.482,7.767,17.306l0,0,.073.042.036.021,9.824,5.672,1.7-4.487a28.547,28.547,0,0,0,7.416-3.072C685.948,51.1,697.955,30.3,697.954,13.2a28.576,28.576,0,0,0-1.03-7.9Z" transform="translate(-644.319 21.446)" fill="#37474f"/>
          <g id="Grupo_926939" data-name="Grupo 926939" transform="translate(27.554)">
            <path id="Trazado_749324" data-name="Trazado 749324" d="M696.513-10.157a11.281,11.281,0,0,1-4.139-.78.446.446,0,0,1-.252-.577.446.446,0,0,1,.578-.252,10.369,10.369,0,0,0,3.813.719,10.455,10.455,0,0,0,10.443-10.442,10.455,10.455,0,0,0-10.443-10.442.445.445,0,0,1-.445-.445.445.445,0,0,1,.445-.445,11.345,11.345,0,0,1,11.333,11.332A11.345,11.345,0,0,1,696.513-10.157Z" transform="translate(-692.092 32.821)" fill="#455a64"/>
          </g>
          <path id="Trazado_749325" data-name="Trazado 749325" d="M688.358,69.59c14.811-8.551,26.818-29.347,26.818-46.45S703.169-.895,688.358,7.656,661.54,37,661.54,54.106,673.547,78.141,688.358,69.59Z" transform="translate(-651.607 17.24)" fill="#455a64"/>
          <path id="Trazado_749326" data-name="Trazado 749326" d="M713.225,28.519c0,14.491-10.6,32.854-23.151,40.1a17.383,17.383,0,0,1-8.31,2.68,6.148,6.148,0,0,1-5.408-2.886c-1.815-2.733-2.093-6.729-2.093-8.925-.005-14.491,10.6-32.854,23.146-40.1a17.406,17.406,0,0,1,8.309-2.68q.228,0,.441.014C712.525,17.071,713.225,25.047,713.225,28.519Z" transform="translate(-656.992 11.858)" fill="#263238"/>
          <path id="Trazado_749327" data-name="Trazado 749327" d="M708.261,25.653c0,14.491-10.6,32.854-23.151,40.1a17.351,17.351,0,0,1-8.309,2.68c-.152,0-.3,0-.445-.015-1.815-2.733-2.093-6.729-2.093-8.925-.005-14.491,10.6-32.854,23.146-40.1a17.406,17.406,0,0,1,8.309-2.68q.228,0,.441.014C707.982,19.457,708.261,23.458,708.261,25.653Z" transform="translate(-656.992 11.858)" fill="#ebebeb"/>
          <g id="Grupo_926945" data-name="Grupo 926945" transform="translate(22.345 38.658)">
            <g id="Grupo_926943" data-name="Grupo 926943">
              <g id="Grupo_926940" data-name="Grupo 926940" transform="translate(5.364 9.911)">
                <path id="Trazado_749328" data-name="Trazado 749328" d="M697.932,54.008l-4.843-2.592c-.381-.2-.907.764-.667,1.229l3.048,5.9Z" transform="translate(-692.362 -51.389)" fill="#27debf"/>
                <path id="Trazado_749329" data-name="Trazado 749329" d="M700.644,63.833l4.843,2.591c.382.2.907-.764.667-1.228l-3.048-5.9Z" transform="translate(-695.867 -54.735)" fill="#27debf"/>
              </g>
              <g id="Grupo_926941" data-name="Grupo 926941" transform="translate(8.132)">
                <path id="Trazado_749330" data-name="Trazado 749330" d="M702.134,46.839l-.948-12.126c-.074-.954-1.054-.459-1.243.628l-2.4,13.816Z" transform="translate(-697.323 -34.206)" fill="#27debf"/>
                <path id="Trazado_749331" data-name="Trazado 749331" d="M697.161,65.282l.948,12.126c.075.955,1.055.46,1.244-.628l2.4-13.816Z" transform="translate(-697.161 -46.377)" fill="#27debf"/>
              </g>
              <g id="Grupo_926942" data-name="Grupo 926942" transform="translate(0 9.769)">
                <path id="Trazado_749332" data-name="Trazado 749332" d="M692.465,56.771l-8.837,6.889c-.7.542-.777,2-.1,1.855l8.557-1.9Z" transform="translate(-683.061 -53.525)" fill="#27debf"/>
                <path id="Trazado_749333" data-name="Trazado 749333" d="M703.3,59.9l8.837-6.889c.7-.543.777-2,.1-1.855l-8.557,1.9Z" transform="translate(-691.626 -51.143)" fill="#27debf"/>
              </g>
            </g>
            <path id="Trazado_749334" data-name="Trazado 749334" d="M703.673,43.985l-7.757,1.72-.86-10.992c-.074-.954-1.054-.459-1.243.628l-1.795,10.337-2.866-1.534c-.381-.2-.907.764-.667,1.229l1.823,3.529-6.681,5.208c-.7.542-.777,2-.1,1.855l7.757-1.72.859,10.991c.075.955,1.055.46,1.244-.628l1.795-10.337,2.865,1.534c.382.2.907-.764.667-1.229l-1.823-3.529,6.681-5.208C704.265,45.3,704.347,43.835,703.673,43.985Zm-11.51,8.636.156-2.795.841-1.55,1.875-.946-.157,2.795-.841,1.55Z" transform="translate(-683.061 -34.206)" opacity="0.3"/>
            <g id="Grupo_926944" data-name="Grupo 926944" transform="translate(3.941 3.829)">
              <path id="Trazado_749335" data-name="Trazado 749335" d="M703.441,52.173l4.294-10.353c.339-.815-.15-1.342-.62-.668l-5.965,8.556Z" transform="translate(-694.658 -40.844)" fill="#27debf"/>
              <path id="Trazado_749336" data-name="Trazado 749336" d="M694.3,62.6l-4.3,10.353c-.338.815.151,1.341.621.668l5.965-8.556Z" transform="translate(-689.894 -50.052)" fill="#27debf"/>
            </g>
            <path id="Trazado_749337" data-name="Trazado 749337" d="M695.6,59.4c.152-2.718,1.752-5.667,3.574-6.587s3.176.536,3.025,3.254-1.752,5.667-3.575,6.587S695.451,62.117,695.6,59.4Z" transform="translate(-688.365 -41.964)" fill="#ebebeb"/>
            <path id="Trazado_749338" data-name="Trazado 749338" d="M695.6,59.4c.152-2.718,1.752-5.667,3.574-6.587s3.176.536,3.025,3.254-1.752,5.667-3.575,6.587S695.451,62.117,695.6,59.4Z" transform="translate(-688.365 -41.964)" fill="#27debf"/>
            <path id="Trazado_749339" data-name="Trazado 749339" d="M695.6,59.4c.152-2.718,1.752-5.667,3.574-6.587s3.176.536,3.025,3.254-1.752,5.667-3.575,6.587S695.451,62.117,695.6,59.4Z" transform="translate(-688.365 -41.964)" opacity="0.5"/>
            <path id="Trazado_749340" data-name="Trazado 749340" d="M697.636,60.161a5.448,5.448,0,0,1,2.306-4.25c1.175-.594,2.049.346,1.951,2.1a5.448,5.448,0,0,1-2.307,4.25C698.412,62.854,697.538,61.914,697.636,60.161Z" transform="translate(-689.227 -43.317)" fill="#27debf"/>
          </g>
          <path id="Trazado_749341" data-name="Trazado 749341" d="M700.922-3h-2.9a9.34,9.34,0,0,0-5.429,0h-2.9V.862h.016a2.679,2.679,0,0,0,1.629,2.49,8.782,8.782,0,0,0,7.946,0A2.679,2.679,0,0,0,700.906.862h.016Z" transform="translate(-663.519 20.372)" fill="#e0e0e0"/>
          <path id="Trazado_749342" data-name="Trazado 749342" d="M700.922-3h-2.9a9.34,9.34,0,0,0-5.429,0h-2.9V.862h.016a2.679,2.679,0,0,0,1.629,2.49,8.782,8.782,0,0,0,7.946,0A2.679,2.679,0,0,0,700.906.862h.016Z" transform="translate(-663.519 20.372)" fill="#263238"/>
          <path id="Trazado_749343" data-name="Trazado 749343" d="M691.33-7.382c-2.195,1.267-2.195,3.321,0,4.588a8.782,8.782,0,0,0,7.946,0c2.194-1.267,2.194-3.321,0-4.588A8.783,8.783,0,0,0,691.33-7.382Z" transform="translate(-663.519 22.456)" fill="#ebebeb"/>
          <g id="Grupo_926946" data-name="Grupo 926946" transform="translate(24.108 8.819)">
            <path id="Trazado_749344" data-name="Trazado 749344" d="M701.853-10.069h-4.066a13.07,13.07,0,0,0-7.6,0h-4.066v2.433h.022c-.131,1.252.624,2.53,2.281,3.487a12.3,12.3,0,0,0,11.126,0c1.658-.957,2.413-2.235,2.282-3.487h.022Z" transform="translate(-686.118 14.611)" fill="#37474f"/>
            <path id="Trazado_749345" data-name="Trazado 749345" d="M688.422-16.2c-3.072,1.774-3.072,4.65,0,6.424a12.3,12.3,0,0,0,11.126,0c3.072-1.774,3.072-4.65,0-6.424A12.3,12.3,0,0,0,688.422-16.2Z" transform="translate(-686.118 17.53)" fill="#455a64"/>
          </g>
          <g id="Grupo_926947" data-name="Grupo 926947" transform="translate(20.644)">
            <path id="Trazado_749346" data-name="Trazado 749346" d="M687.466-10.906a.45.45,0,0,1-.163-.031,11.271,11.271,0,0,1-7.193-10.552,11.345,11.345,0,0,1,11.332-11.332.445.445,0,0,1,.445.445.445.445,0,0,1-.445.445A10.454,10.454,0,0,0,681-21.489a10.385,10.385,0,0,0,6.629,9.723.446.446,0,0,1,.251.577A.446.446,0,0,1,687.466-10.906Z" transform="translate(-680.111 32.821)" fill="#455a64"/>
          </g>
        </g>
      </g>
      <g id="Character" transform="translate(583.94 54.24)">
        <g id="Grupo_926969" data-name="Grupo 926969" transform="translate(0)">
          <g id="Grupo_926949" data-name="Grupo 926949" transform="translate(5.566 21.967)">
            <path id="Trazado_749347" data-name="Trazado 749347" d="M597.238,156.213c-1.376,0-2.612,1.238-2.612,4.805s-.281,6.429,1.907,6.429Z" transform="translate(-594.615 -156.213)" fill="#27debf"/>
            <path id="Trazado_749348" data-name="Trazado 749348" d="M597.238,156.213c-1.376,0-2.612,1.238-2.612,4.805s-.281,6.429,1.907,6.429Z" transform="translate(-594.615 -156.213)" fill="#fff" opacity="0.6"/>
          </g>
          <g id="Grupo_926950" data-name="Grupo 926950" transform="translate(7.485 18.726)">
            <path id="Rectángulo_299841" data-name="Rectángulo 299841" d="M7.535,0h2.684a7.535,7.535,0,0,1,7.535,7.535v14.46a7.535,7.535,0,0,1-7.535,7.535H7.534A7.534,7.534,0,0,1,0,21.995V7.535A7.535,7.535,0,0,1,7.535,0Z" fill="#27debf"/>
            <path id="Rectángulo_299842" data-name="Rectángulo 299842" d="M7.535,0h2.684a7.535,7.535,0,0,1,7.535,7.535v14.46a7.535,7.535,0,0,1-7.535,7.535H7.534A7.534,7.534,0,0,1,0,21.995V7.535A7.535,7.535,0,0,1,7.535,0Z" opacity="0.1"/>
          </g>
          <path id="Trazado_749349" data-name="Trazado 749349" d="M631.687,153.435h1.685a3.834,3.834,0,0,1,3.7,2.826l2.226,8.169h-7.61Z" transform="translate(-604.739 -133.071)" fill="#f28f8f"/>
          <g id="Grupo_926966" data-name="Grupo 926966">
            <path id="Trazado_749350" data-name="Trazado 749350" d="M598.97,170.773c1.316-3.07,3.342-7.75,3.342-7.75l.869,1.966s2.436-2.129,2.591-4.806c.292-5.037-3.287-5.638-3.287-5.638-1.634.181-3.257.384-4.616,4.031-1.038,2.783-3.012,9.436-3.889,12.43a2.257,2.257,0,0,0,.854,2.473" transform="translate(-588.741 -133.54)" fill="#ffa8a7"/>
            <g id="Grupo_926951" data-name="Grupo 926951" transform="translate(13.787)">
              <path id="Trazado_749351" data-name="Trazado 749351" d="M618.836,134.843h-2.147a7.821,7.821,0,0,1-7.821-7.821h0a8.9,8.9,0,0,1,8.895-8.895h0a8.9,8.9,0,0,1,8.895,8.895h0A7.821,7.821,0,0,1,618.836,134.843Z" transform="translate(-608.868 -118.127)" fill="#263238"/>
            </g>
            <path id="Trazado_749352" data-name="Trazado 749352" d="M587.924,268.428c-.681-.35-1.114.515-1.732,1.209a5.078,5.078,0,0,0-1.209,1.812,3.789,3.789,0,0,0,1.411,2.826c.82.712,1.771,1.223,2.069,2.785a3.8,3.8,0,0,0,2.524,3.189,6.479,6.479,0,0,0,4.957,0c.955-.616.083-1.294-1.255-3.209-1.747-2.5-3.106-4.284-3.106-6.615Z" transform="translate(-584.964 -181.706)" fill="#263238"/>
            <path id="Trazado_749353" data-name="Trazado 749353" d="M591.2,264.94l-1.434,2.1a2.018,2.018,0,0,0,.484,2.8l.044.029a2.167,2.167,0,0,0,2.745-.426L595.278,267Z" transform="translate(-586.844 -180.264)" fill="#ffa8a7"/>
            <g id="Grupo_926952" data-name="Grupo 926952" transform="translate(4.017 43.956)">
              <path id="Trazado_749354" data-name="Trazado 749354" d="M619.66,196.966a54.752,54.752,0,0,1-3,15.768,47.836,47.836,0,0,1-4.067,8.362c-.582,1-17.36,17.331-17.36,17.331a3.664,3.664,0,0,1-3.3-2.97s6.875-11.686,8.363-14.083,6.761-6.072,6.761-6.072l-.48-20.964Z" transform="translate(-591.929 -194.338)" fill="#27debf"/>
              <path id="Trazado_749355" data-name="Trazado 749355" d="M619.66,196.966a54.752,54.752,0,0,1-3,15.768,47.836,47.836,0,0,1-4.067,8.362c-.582,1-17.36,17.331-17.36,17.331a3.664,3.664,0,0,1-3.3-2.97s6.875-11.686,8.363-14.083,6.761-6.072,6.761-6.072l-.48-20.964Z" transform="translate(-591.929 -194.338)" opacity="0.3"/>
            </g>
            <rect id="Rectángulo_299843" data-name="Rectángulo 299843" width="3.638" height="5.298" transform="translate(30.543 99.925) rotate(167.191)" fill="#ffa8a7"/>
            <g id="Grupo_926953" data-name="Grupo 926953" transform="translate(12.249 43.655)">
              <path id="Trazado_749356" data-name="Trazado 749356" d="M622.6,193.816l-15.1.593a14.6,14.6,0,0,0-1.265,7.154c.5,7.362,7.485,20.53,7.485,20.53a28.137,28.137,0,0,0,.446,8.925,160.112,160.112,0,0,0,5.6,15.821s2.568.367,3.844-1.119c0,0-2.27-20.19-2.881-25.363-.662-5.6-2.361-15.819-2.361-15.819a25.9,25.9,0,0,0,3.043-3.648,10.787,10.787,0,0,0,2.294-7.073" transform="translate(-606.202 -193.816)" fill="#27debf"/>
              <path id="Trazado_749357" data-name="Trazado 749357" d="M622.6,193.816l-15.1.593a14.6,14.6,0,0,0-1.265,7.154c.5,7.362,7.485,20.53,7.485,20.53a28.137,28.137,0,0,0,.446,8.925,160.112,160.112,0,0,0,5.6,15.821s2.568.367,3.844-1.119c0,0-2.27-20.19-2.881-25.363-.662-5.6-2.361-15.819-2.361-15.819a25.9,25.9,0,0,0,3.043-3.648,10.787,10.787,0,0,0,2.294-7.073" transform="translate(-606.202 -193.816)" opacity="0.3"/>
            </g>
            <path id="Trazado_749358" data-name="Trazado 749358" d="M634.339,287.971l-.115-.507c.373.07,1.965,2.715,3.545,3.864,1.73,1.258,3.232,2,4.005,2.569,1.034.759-.463,2.312-3.008,2.451-1.263.069-3.563-.315-4.271-.989s-1.222-1.785-1.784-2.269-1.7-.907-2.084-1.527a4.4,4.4,0,0,1-.22-1.908c.022-.665.043-1.4.271-1.385.018.077.088.387.088.387a4.4,4.4,0,0,0,2.158.476C633.52,289.1,634.635,288.965,634.339,287.971Z" transform="translate(-604.193 -189.797)" fill="#263238"/>
            <g id="Grupo_926954" data-name="Grupo 926954" transform="translate(24.423 51.971)">
              <path id="Trazado_749359" data-name="Trazado 749359" d="M629.221,223.034s-1.509-10.731-1.913-12.393a16.923,16.923,0,0,0,3.359-2.4,27.482,27.482,0,0,1-2.3,2.872Z" transform="translate(-627.309 -208.236)" fill="#27debf"/>
              <path id="Trazado_749360" data-name="Trazado 749360" d="M629.221,223.034s-1.509-10.731-1.913-12.393a16.923,16.923,0,0,0,3.359-2.4,27.482,27.482,0,0,1-2.3,2.872Z" transform="translate(-627.309 -208.236)" opacity="0.5"/>
            </g>
            <g id="Grupo_926955" data-name="Grupo 926955" transform="translate(17.226 66.412)">
              <path id="Trazado_749361" data-name="Trazado 749361" d="M614.83,233.273a49.106,49.106,0,0,0,2.547,5.519s-.183,3.443-.157,4.139l-.954.831a21.573,21.573,0,0,1,.427-4.645A28.052,28.052,0,0,1,614.83,233.273Z" transform="translate(-614.83 -233.273)" fill="#27debf"/>
              <path id="Trazado_749362" data-name="Trazado 749362" d="M614.83,233.273a49.106,49.106,0,0,0,2.547,5.519s-.183,3.443-.157,4.139l-.954.831a21.573,21.573,0,0,1,.427-4.645A28.052,28.052,0,0,1,614.83,233.273Z" transform="translate(-614.83 -233.273)" opacity="0.5"/>
            </g>
            <g id="Grupo_926956" data-name="Grupo 926956" transform="translate(12.82 19.956)">
              <path id="Trazado_749363" data-name="Trazado 749363" d="M613.436,152.908s-4.694.587-5.321.867c3.119,3.165.7,10.444.7,10.444l2.621,7.252c-1.836,2.924-3.434,4.772-4.24,7.543,1.372,1.588,9.563,6.367,18.928.34,0,0-.55-5.264-1.333-9.246,1.351-6.46,1.724-8.736,1.333-10.247-1.1-4.255-3.619-6.975-6.509-7.135Z" transform="translate(-607.192 -152.727)" fill="#27debf"/>
            </g>
            <g id="Grupo_926957" data-name="Grupo 926957" transform="translate(16.564 4.108)">
              <path id="Trazado_749364" data-name="Trazado 749364" d="M625.773,125.249c.939.555,2.1,2.919,1.986,7.872-.1,4.2-1.458,5.236-2.142,5.535a7.216,7.216,0,0,1-3.282-.1v2.52s1.771,2.057,1.659,3.212-2.557,1.429-4.214.3a13.383,13.383,0,0,1-3.053-3.329l.029-5.794s-.754.732-2.032-.385c-1.056-.923-1.411-2.479-.588-3.314a1.838,1.838,0,0,1,2.925.583,10.129,10.129,0,0,0,4.765-1.421A7.646,7.646,0,0,0,625.773,125.249Z" transform="translate(-613.682 -125.249)" fill="#ffa8a7"/>
            </g>
            <g id="Grupo_926958" data-name="Grupo 926958" transform="translate(24.898 10.402)">
              <path id="Trazado_749365" data-name="Trazado 749365" d="M629.187,136.685a.528.528,0,1,1-.554-.523A.536.536,0,0,1,629.187,136.685Z" transform="translate(-628.132 -136.162)" fill="#263238"/>
            </g>
            <g id="Grupo_926959" data-name="Grupo 926959" transform="translate(26.067 14.484)">
              <path id="Trazado_749366" data-name="Trazado 749366" d="M630.186,143.24l1.226.391a.632.632,0,0,1-.8.44A.674.674,0,0,1,630.186,143.24Z" transform="translate(-630.159 -143.24)" fill="#f28f8f"/>
            </g>
            <g id="Grupo_926960" data-name="Grupo 926960" transform="translate(29.214 8.269)">
              <path id="Trazado_749367" data-name="Trazado 749367" d="M636.683,133.5l-1.068-.741a.624.624,0,0,1,.887-.182A.683.683,0,0,1,636.683,133.5Z" transform="translate(-635.615 -132.464)" fill="#263238"/>
            </g>
            <g id="Grupo_926961" data-name="Grupo 926961" transform="translate(28.98 10.021)">
              <path id="Trazado_749368" data-name="Trazado 749368" d="M636.266,136.024a.528.528,0,1,1-.555-.523A.536.536,0,0,1,636.266,136.024Z" transform="translate(-635.211 -135.501)" fill="#263238"/>
            </g>
            <g id="Grupo_926962" data-name="Grupo 926962" transform="translate(27.545 10.241)">
              <path id="Trazado_749369" data-name="Trazado 749369" d="M632.722,135.884l.084,3.178,1.673-.518Z" transform="translate(-632.722 -135.884)" fill="#f28f8f"/>
            </g>
            <g id="Grupo_926963" data-name="Grupo 926963" transform="translate(20.656 15.345)">
              <path id="Trazado_749370" data-name="Trazado 749370" d="M625.338,146.805c-1.35-.177-4.128-.975-4.561-2.073a2.847,2.847,0,0,0,.974,1.4,14.64,14.64,0,0,0,3.587,1.513Z" transform="translate(-620.777 -144.732)" fill="#f28f8f"/>
            </g>
            <g id="Grupo_926964" data-name="Grupo 926964" transform="translate(15.654 34.834)">
              <path id="Trazado_749371" data-name="Trazado 749371" d="M612.1,178.522l3.7,5.009-2.29-1.142Z" transform="translate(-612.105 -178.522)" fill="#27debf"/>
              <path id="Trazado_749372" data-name="Trazado 749372" d="M612.1,178.522l3.7,5.009-2.29-1.142Z" transform="translate(-612.105 -178.522)" opacity="0.2"/>
            </g>
            <path id="Trazado_749373" data-name="Trazado 749373" d="M610.134,188.259a.323.323,0,0,1,.085-.183c.423-.491,1.851-1.528,1.948-1.78s-.679-.489-1.968-.288a28.671,28.671,0,0,1-5.446.812c-1.065-.067-3.511-2.471-5.089-4.139l-4.136,2.706a42.267,42.267,0,0,0,8.249,4.769c1.753.584,3.183,1.592,5.235,1.959" transform="translate(-589.435 -145.449)" fill="#ffa8a7"/>
            <g id="Grupo_926965" data-name="Grupo 926965" transform="translate(20.036 23.83)">
              <path id="Trazado_749374" data-name="Trazado 749374" d="M622.165,164.515l7.175,1.673,4.607-4.024,5.932,1.485,4.418-4.2L636.531,179.2l-2.584,2.25-4.717-.2-4.46,3.632-5.068-1.119Z" transform="translate(-619.702 -159.444)" fill="#455a64"/>
              <path id="Trazado_749375" data-name="Trazado 749375" d="M637.667,164.16l-4.717,19.078-4.46,3.632,4.57-18.686Z" transform="translate(-623.421 -161.44)" fill="#37474f"/>
              <path id="Trazado_749376" data-name="Trazado 749376" d="M650.334,163.649l4.418-4.2L646.985,179.2l-2.584,2.25Z" transform="translate(-630.156 -159.444)" fill="#37474f"/>
            </g>
          </g>
          <path id="Rectángulo_299844" data-name="Rectángulo 299844" d="M4.98,0h0a0,0,0,0,1,0,0V9.433A4.98,4.98,0,0,1,0,14.413H0a0,0,0,0,1,0,0V4.98A4.98,4.98,0,0,1,4.98,0Z" transform="translate(10.679 4.573)" fill="#263238"/>
          <g id="Grupo_926967" data-name="Grupo 926967" transform="translate(13.787 20.01)">
            <path id="Trazado_749377" data-name="Trazado 749377" d="M609.9,153.564s1.654,1.224,1.741,6.53a17.9,17.9,0,0,1-2.776,9.462v3.1a18.942,18.942,0,0,0,5.563-9.749c1.214-6.6-.57-9.92-.57-9.92C613.795,152.533,609.837,153.113,609.9,153.564Z" transform="translate(-608.868 -152.821)" fill="#27debf"/>
            <path id="Trazado_749378" data-name="Trazado 749378" d="M609.9,153.564s1.654,1.224,1.741,6.53a17.9,17.9,0,0,1-2.776,9.462v3.1a18.942,18.942,0,0,0,5.563-9.749c1.214-6.6-.57-9.92-.57-9.92C613.795,152.533,609.837,153.113,609.9,153.564Z" transform="translate(-608.868 -152.821)" fill="#fff" opacity="0.6"/>
          </g>
          <g id="Grupo_926968" data-name="Grupo 926968" transform="translate(25.217 19.778)">
            <path id="Trazado_749379" data-name="Trazado 749379" d="M634.116,156.8s-2.484-3.515-5.431-4.217a4.429,4.429,0,0,1,3.207.332A7.3,7.3,0,0,1,634.116,156.8Z" transform="translate(-628.685 -152.418)" fill="#27debf"/>
            <path id="Trazado_749380" data-name="Trazado 749380" d="M634.116,156.8s-2.484-3.515-5.431-4.217a4.429,4.429,0,0,1,3.207.332A7.3,7.3,0,0,1,634.116,156.8Z" transform="translate(-628.685 -152.418)" fill="#fff" opacity="0.6"/>
          </g>
          <path id="Trazado_749381" data-name="Trazado 749381" d="M625.4,193.6c-.2-.681-1.166-.017-2.848-.25-1.473-.2-2.558-.575-2.523-.994l-1.122,3.856a8.854,8.854,0,0,0,1.521.138C623.364,196.368,625.6,194.278,625.4,193.6Z" transform="translate(-599.33 -149.542)" fill="#ffa8a7"/>
        </g>
      </g>
      <g id="Cloud" transform="translate(713.74 -2.298)">
        <path id="Trazado_749382" data-name="Trazado 749382" d="M839.015,22.8l-4.943,2.854a5.9,5.9,0,0,0,.042-.654V23.568c0-2.549-1.789-3.582-4-2.307a7.732,7.732,0,0,0-2.381,2.29c-.362-3.2-2.875-4.4-5.929-2.635a13.213,13.213,0,0,0-5.978,10.355v2.143a5.633,5.633,0,0,0,.506,2.482l-4.107,2.37a4.9,4.9,0,0,0-2.216,3.839c0,1.414.992,1.986,2.216,1.28L839.015,27.92a4.9,4.9,0,0,0,2.217-3.839C841.233,22.667,840.24,22.094,839.015,22.8Z" transform="translate(-810.013 -20.101)" fill="#fff"/>
      </g>
    </g>
  </g>
</svg>
