<svg xmlns="http://www.w3.org/2000/svg" width="94" height="94" viewBox="0 0 94 94">
  <g id="Grupo_928180" data-name="Grupo 928180" transform="translate(-1131 -4392.9)">
    <g id="Grupo_902289" data-name="Grupo 902289" transform="translate(790.5 3897.9)">
      <circle id="_2-vector" data-name="2-vector" cx="47" cy="47" r="47" transform="translate(340.5 495)" fill="#f6f6f6"/>
    </g>
    <path id="Trazado_752254" data-name="Trazado 752254" d="M21.484-11.621q0,5.762-2.588,8.887A8.943,8.943,0,0,1,11.6.391,8.991,8.991,0,0,1,4.258-2.754Q1.66-5.9,1.66-11.621v-5.2q0-5.762,2.588-8.887a8.965,8.965,0,0,1,7.314-3.125,8.969,8.969,0,0,1,7.324,3.145q2.6,3.145,2.6,8.887ZM14.9-17.656a10.142,10.142,0,0,0-.8-4.58,2.677,2.677,0,0,0-2.539-1.514,2.613,2.613,0,0,0-2.471,1.406,9.555,9.555,0,0,0-.83,4.258v7.266a10.219,10.219,0,0,0,.8,4.658A2.687,2.687,0,0,0,11.6-4.687a2.651,2.651,0,0,0,2.48-1.436,9.756,9.756,0,0,0,.82-4.5ZM37.871-11a6.952,6.952,0,0,1-4.766,1.914A7.7,7.7,0,0,1,26.973-11.7a10.311,10.311,0,0,1-2.266-6.992,10.494,10.494,0,0,1,1.27-5.078,9.526,9.526,0,0,1,3.564-3.711,9.718,9.718,0,0,1,5.068-1.367A9.434,9.434,0,0,1,39.7-27.432a9.534,9.534,0,0,1,3.545,4,13.754,13.754,0,0,1,1.309,5.967v2.52a17.1,17.1,0,0,1-1.846,8.164,12.742,12.742,0,0,1-5.264,5.313A16.447,16.447,0,0,1,29.473.391h-.41V-4.883l1.25-.02Q37.109-5.234,37.871-11Zm-2.988-2.832a3.2,3.2,0,0,0,3.086-1.855v-2.734a7.11,7.11,0,0,0-.918-4.043,2.879,2.879,0,0,0-2.48-1.309,2.721,2.721,0,0,0-2.324,1.484,6.594,6.594,0,0,0-.937,3.594,5.913,5.913,0,0,0,.957,3.545A3.061,3.061,0,0,0,34.883-13.828Z" transform="translate(1155 4453)" fill="#9dca4e"/>
  </g>
</svg>
