<svg xmlns="http://www.w3.org/2000/svg" width="94" height="94" viewBox="0 0 94 94">
  <g id="Grupo_928177" data-name="Grupo 928177" transform="translate(-1131 -4079.9)">
    <g id="Grupo_902286" data-name="Grupo 902286" transform="translate(790.5 3584.9)">
      <circle id="_2-vector" data-name="2-vector" cx="47" cy="47" r="47" transform="translate(340.5 495)" fill="#f6f6f6"/>
    </g>
    <path id="Trazado_752251" data-name="Trazado 752251" d="M21.484-11.621q0,5.762-2.588,8.887A8.943,8.943,0,0,1,11.6.391,8.991,8.991,0,0,1,4.258-2.754Q1.66-5.9,1.66-11.621v-5.2q0-5.762,2.588-8.887a8.965,8.965,0,0,1,7.314-3.125,8.969,8.969,0,0,1,7.324,3.145q2.6,3.145,2.6,8.887ZM14.9-17.656a10.142,10.142,0,0,0-.8-4.58,2.677,2.677,0,0,0-2.539-1.514,2.613,2.613,0,0,0-2.471,1.406,9.555,9.555,0,0,0-.83,4.258v7.266a10.219,10.219,0,0,0,.8,4.658A2.687,2.687,0,0,0,11.6-4.687a2.651,2.651,0,0,0,2.48-1.436,9.756,9.756,0,0,0,.82-4.5ZM40.8-28.848v5.176h-.293A9.882,9.882,0,0,0,34.443-21.9a7.463,7.463,0,0,0-2.92,4.912,7.7,7.7,0,0,1,5.625-2.187,7.179,7.179,0,0,1,5.879,2.7,10.871,10.871,0,0,1,2.188,7.07,9.955,9.955,0,0,1-1.279,4.98A9.128,9.128,0,0,1,40.361-.889,10.271,10.271,0,0,1,35.273.391a10.615,10.615,0,0,1-5.41-1.377,9.467,9.467,0,0,1-3.711-3.936,12.959,12.959,0,0,1-1.367-5.9v-2.637a16.417,16.417,0,0,1,1.885-7.9,13.664,13.664,0,0,1,5.381-5.5A15.384,15.384,0,0,1,39.8-28.848ZM34.863-14.141a3.766,3.766,0,0,0-2.187.605,3.844,3.844,0,0,0-1.309,1.484v1.973q0,5.391,3.73,5.391a3.026,3.026,0,0,0,2.51-1.348,5.492,5.492,0,0,0,1.006-3.379,5.391,5.391,0,0,0-1.025-3.408A3.28,3.28,0,0,0,34.863-14.141Z" transform="translate(1155 4140)" fill="#9dca4e"/>
  </g>
</svg>
