<svg xmlns="http://www.w3.org/2000/svg" width="94" height="94" viewBox="0 0 94 94">
  <g id="Grupo_928176" data-name="Grupo 928176" transform="translate(-751 -4079.9)">
    <g id="Grupo_902285" data-name="Grupo 902285" transform="translate(410.5 3584.9)">
      <circle id="_2-vector" data-name="2-vector" cx="47" cy="47" r="47" transform="translate(340.5 495)" fill="#f6f6f6"/>
    </g>
    <path id="Trazado_752250" data-name="Trazado 752250" d="M21.484-11.621q0,5.762-2.588,8.887A8.943,8.943,0,0,1,11.6.391,8.991,8.991,0,0,1,4.258-2.754Q1.66-5.9,1.66-11.621v-5.2q0-5.762,2.588-8.887a8.965,8.965,0,0,1,7.314-3.125,8.969,8.969,0,0,1,7.324,3.145q2.6,3.145,2.6,8.887ZM14.9-17.656a10.142,10.142,0,0,0-.8-4.58,2.677,2.677,0,0,0-2.539-1.514,2.613,2.613,0,0,0-2.471,1.406,9.555,9.555,0,0,0-.83,4.258v7.266a10.219,10.219,0,0,0,.8,4.658A2.687,2.687,0,0,0,11.6-4.687a2.651,2.651,0,0,0,2.48-1.436,9.756,9.756,0,0,0,.82-4.5Zm10.391,3.765,1.738-14.547H43.652v5.117H32.383l-.645,5.649a7.763,7.763,0,0,1,1.846-.726,8.421,8.421,0,0,1,2.236-.314,8.343,8.343,0,0,1,6.514,2.51A10.11,10.11,0,0,1,44.609-9.16a10.092,10.092,0,0,1-1.221,4.951A8.39,8.39,0,0,1,39.961-.8,10.822,10.822,0,0,1,34.746.391a11.644,11.644,0,0,1-5.02-1.1,9.005,9.005,0,0,1-3.672-3.025,7.35,7.35,0,0,1-1.309-4.342h6.6a3.734,3.734,0,0,0,1,2.475,3.162,3.162,0,0,0,2.363.916q3.32,0,3.32-4.912,0-4.541-4.062-4.541a4.054,4.054,0,0,0-3.437,1.481Z" transform="translate(775 4140)" fill="#9dca4e"/>
  </g>
</svg>
