<svg xmlns="http://www.w3.org/2000/svg" width="94" height="94" viewBox="0 0 94 94">
  <g id="Grupo_928178" data-name="Grupo 928178" transform="translate(-373 -4392.9)">
    <g id="Grupo_902287" data-name="Grupo 902287" transform="translate(32.5 3897.9)">
      <circle id="_2-vector" data-name="2-vector" cx="47" cy="47" r="47" transform="translate(340.5 495)" fill="#f6f6f6"/>
    </g>
    <path id="Trazado_752252" data-name="Trazado 752252" d="M21.484-11.621q0,5.762-2.588,8.887A8.943,8.943,0,0,1,11.6.391,8.991,8.991,0,0,1,4.258-2.754Q1.66-5.9,1.66-11.621v-5.2q0-5.762,2.588-8.887a8.965,8.965,0,0,1,7.314-3.125,8.969,8.969,0,0,1,7.324,3.145q2.6,3.145,2.6,8.887ZM14.9-17.656a10.142,10.142,0,0,0-.8-4.58,2.677,2.677,0,0,0-2.539-1.514,2.613,2.613,0,0,0-2.471,1.406,9.555,9.555,0,0,0-.83,4.258v7.266a10.219,10.219,0,0,0,.8,4.658A2.687,2.687,0,0,0,11.6-4.687a2.651,2.651,0,0,0,2.48-1.436,9.756,9.756,0,0,0,.82-4.5Zm29.766-7.266L34.043,0H27.09L37.734-23.359H24.18v-5.078H44.668Z" transform="translate(397 4453)" fill="#9dca4e"/>
  </g>
</svg>
