<svg xmlns="http://www.w3.org/2000/svg" width="94" height="94" viewBox="0 0 94 94">
  <g id="Grupo_928179" data-name="Grupo 928179" transform="translate(-751 -4392.9)">
    <g id="Grupo_902288" data-name="Grupo 902288" transform="translate(410.5 3897.9)">
      <circle id="_2-vector" data-name="2-vector" cx="47" cy="47" r="47" transform="translate(340.5 495)" fill="#f6f6f6"/>
    </g>
    <path id="Trazado_752253" data-name="Trazado 752253" d="M21.484-11.621q0,5.762-2.588,8.887A8.943,8.943,0,0,1,11.6.391,8.991,8.991,0,0,1,4.258-2.754Q1.66-5.9,1.66-11.621v-5.2q0-5.762,2.588-8.887a8.965,8.965,0,0,1,7.314-3.125,8.969,8.969,0,0,1,7.324,3.145q2.6,3.145,2.6,8.887ZM14.9-17.656a10.142,10.142,0,0,0-.8-4.58,2.677,2.677,0,0,0-2.539-1.514,2.613,2.613,0,0,0-2.471,1.406,9.555,9.555,0,0,0-.83,4.258v7.266a10.219,10.219,0,0,0,.8,4.658A2.687,2.687,0,0,0,11.6-4.687a2.651,2.651,0,0,0,2.48-1.436,9.756,9.756,0,0,0,.82-4.5Zm29.18-3.184a6.565,6.565,0,0,1-1.025,3.652,7.468,7.468,0,0,1-2.822,2.539,8.218,8.218,0,0,1,3.223,2.725,7.031,7.031,0,0,1,1.191,4.092,7.442,7.442,0,0,1-2.627,6.016A10.909,10.909,0,0,1,34.785.391a11.108,11.108,0,0,1-7.3-2.217A7.39,7.39,0,0,1,24.8-7.832a7.119,7.119,0,0,1,1.172-4.043,7.969,7.969,0,0,1,3.32-2.773,7.51,7.51,0,0,1-2.852-2.539A6.519,6.519,0,0,1,25.41-20.84,7.3,7.3,0,0,1,27.93-26.7a10.128,10.128,0,0,1,6.8-2.148A10.19,10.19,0,0,1,41.563-26.7,7.3,7.3,0,0,1,44.082-20.84ZM38.047-8.359a3.754,3.754,0,0,0-.908-2.705,3.163,3.163,0,0,0-2.393-.947,3.2,3.2,0,0,0-2.4.947,3.73,3.73,0,0,0-.918,2.705,3.762,3.762,0,0,0,.928,2.686,3.184,3.184,0,0,0,2.432.986,3.06,3.06,0,0,0,2.363-.977A3.83,3.83,0,0,0,38.047-8.359Zm-3.32-15.41a2.432,2.432,0,0,0-2.021.869,3.772,3.772,0,0,0-.693,2.412,4,4,0,0,0,.7,2.461,2.426,2.426,0,0,0,2.07.938,2.327,2.327,0,0,0,2.021-.937,4.124,4.124,0,0,0,.674-2.461,3.78,3.78,0,0,0-.693-2.4A2.465,2.465,0,0,0,34.727-23.77Z" transform="translate(775 4453)" fill="#9dca4e"/>
  </g>
</svg>
