<svg xmlns="http://www.w3.org/2000/svg" xmlns:xlink="http://www.w3.org/1999/xlink" width="364" height="364" viewBox="0 0 364 364">
  <defs>
    <filter id="Elipse_6088" x="0" y="0" width="364" height="364" filterUnits="userSpaceOnUse">
      <feOffset dy="3" input="SourceAlpha"/>
      <feGaussianBlur stdDeviation="3" result="blur"/>
      <feFlood flood-opacity="0.161"/>
      <feComposite operator="in" in2="blur"/>
      <feComposite in="SourceGraphic"/>
    </filter>
  </defs>
  <g id="Grupo_914487" data-name="Grupo 914487" transform="translate(-1037 -12070)">
    <g transform="matrix(1, 0, 0, 1, 1037, 12070)" filter="url(#Elipse_6088)">
      <circle id="Elipse_6088-2" data-name="Elipse 6088" cx="173" cy="173" r="173" transform="translate(9 6)" fill="#fcf1ea"/>
    </g>
    <path id="Trazado_254296" data-name="Trazado 254296" d="M64.724,222.277c.187-13.227-22.366-35.213-26.594-73.239-3.526-31.53,18.153-59.295,38.937-69.5,19.4-9.513,28.992-6.06,41.954-13.9,18.137-10.975,20.342-36.248,47.02-45.074,12.681-4.2,26.136-.77,38.094,5.539S227.311,40.882,239.9,45.147c12.676,4.3,26.105,3.246,39.259,2.018,44.383-4.161,72.953,34.329,71.3,65.848-.978,18.725-7.043,31.437-15.567,42.6-4.8,6.273-11.89,13.17-9.55,21.148,1.04,3.641,3.885,6.054,6.242,8.743,7.864,9.066,10.673,24.446,7.2,36.773Z" transform="translate(1020.681 12124.745)" fill="#add7d3"/>
    <g id="Grupo_914489" data-name="Grupo 914489" transform="translate(883.37 10803.08)">
      <path id="Trazado_697975" data-name="Trazado 697975" d="M872.582,1394.084l-13.373,5.372s-.779,22.981-.649,24.15l14.022,7.816Z" transform="translate(-401.537 -27.42)" fill="#ba7f50"/>
      <path id="Trazado_697976" data-name="Trazado 697976" d="M785.123,1487.356,776.294,1483l-19.562,13.5-24.582-9.868s-16.965,19.908-17.657,20.947l70.63.728Z" transform="translate(-314.078 -81.402)" fill="#956640"/>
      <path id="Trazado_697977" data-name="Trazado 697977" d="M830.87,1358.154l-41.028.229,7.1,30.3,19.042,13.849,1.212-23.717,13.676-7.316Z" transform="translate(-359.825 -5.606)" fill="#956640"/>
      <path id="Trazado_697978" data-name="Trazado 697978" d="M232.794,1412.714l-28.408,23.817-.156,2.407v26.71l49.857.3,2.6-21.293Z" transform="translate(-4.282 -38.731)" fill="#956640"/>
      <path id="Trazado_697979" data-name="Trazado 697979" d="M217.993,1357.854l-13.763.1v36.593l.156,8.676,28.408-23.817Z" transform="translate(-4.282 -5.424)" fill="#ba7f50"/>
      <path id="Trazado_697980" data-name="Trazado 697980" d="M405.835,1692.636a11.047,11.047,0,0,1,3.742-1.732c11.3-2.95,23.041-6.482,34.779-6.094a11.384,11.384,0,0,1,5.435,1.5c7.919,1.838,15.273,5.457,23.076,7.964v-70.715h-272.6v73.228h2.154a11.424,11.424,0,0,1,3.836-2.509c13.03-5.262,26.53-11,40.848-8.54,8.23,1.413,15.662,5.542,23.3,8.865.264-.1.487-.238.768-.325,10.791-3.358,22.718-8.957,34.259-8.4,12.4.6,22.949,8.928,35.444,7.473,11.245-1.31,20.268-7.765,32.032-7.813a79.516,79.516,0,0,1,32.175,6.7C405.36,1692.358,405.581,1692.506,405.835,1692.636Z" transform="translate(-1.874 -166.743)" fill="#ba7f50"/>
      <rect id="Rectángulo_298085" data-name="Rectángulo 298085" width="272.602" height="31.7" transform="translate(198.391 1426.177)" fill="#f7931e"/>
      <path id="Trazado_697981" data-name="Trazado 697981" d="M471.175,1677.777a3.623,3.623,0,0,1-3.062,6.566l-19.625-9.112a29.134,29.134,0,0,0-24.9,0l-5.681,2.656a36.352,36.352,0,0,1-30.951,0l-5.681-2.656a29.4,29.4,0,0,0-24.9,0l-5.681,2.656a36.221,36.221,0,0,1-30.951,0l-5.681-2.619a29.138,29.138,0,0,0-24.9,0l-5.681,2.619a36.221,36.221,0,0,1-30.951.037l-5.681-2.656a29.137,29.137,0,0,0-24.9,0l-7.378,3.431-12.248,5.681a3.875,3.875,0,0,1-1.513.332,3.625,3.625,0,0,1-1.549-6.9l19.663-9.075a36.223,36.223,0,0,1,30.951-.037l5.681,2.656a29.265,29.265,0,0,0,24.9,0l5.681-2.656a36.355,36.355,0,0,1,30.951,0l5.681,2.656a29.266,29.266,0,0,0,24.9-.037l5.681-2.619a36.224,36.224,0,0,1,30.951,0l5.681,2.619a29.134,29.134,0,0,0,24.9,0l5.681-2.619a36.224,36.224,0,0,1,30.951-.037Z" transform="translate(0 -192.03)"/>
      <path id="Trazado_697982" data-name="Trazado 697982" d="M471.175,1727.124a3.623,3.623,0,0,1-3.062,6.566l-19.625-9.075a29.134,29.134,0,0,0-24.9,0l-5.681,2.619a36.223,36.223,0,0,1-30.951,0l-5.681-2.619a29.134,29.134,0,0,0-24.9,0l-5.681,2.656a36.355,36.355,0,0,1-30.951,0l-5.681-2.656a29.4,29.4,0,0,0-24.9,0l-5.681,2.656a36.354,36.354,0,0,1-30.951,0l-5.681-2.656a29.264,29.264,0,0,0-24.9.037l-7.378,3.394-12.248,5.681a3.314,3.314,0,0,1-1.513.332,3.552,3.552,0,0,1-3.283-2.066,3.588,3.588,0,0,1,1.734-4.8l19.663-9.112a36.352,36.352,0,0,1,30.951,0l5.681,2.619a29.136,29.136,0,0,0,24.9,0l5.681-2.619a36.09,36.09,0,0,1,30.951,0l5.681,2.619a29.137,29.137,0,0,0,24.9,0l5.681-2.656a36.351,36.351,0,0,1,30.951,0l5.681,2.656a29.4,29.4,0,0,0,24.9,0l5.681-2.656a36.351,36.351,0,0,1,30.951,0l12.285,5.644Z" transform="translate(0 -222.01)"/>
      <path id="Trazado_697983" data-name="Trazado 697983" d="M471.175,1776.466a3.623,3.623,0,0,1-3.062,6.566l-19.625-9.112a29.136,29.136,0,0,0-24.9,0l-5.681,2.656a36.352,36.352,0,0,1-30.951,0l-5.681-2.656a29.4,29.4,0,0,0-24.9,0l-5.681,2.656a36.352,36.352,0,0,1-30.951,0l-5.681-2.619a29.133,29.133,0,0,0-24.9,0l-5.681,2.619a36.221,36.221,0,0,1-30.951.037l-5.681-2.656a29.05,29.05,0,0,0-24.864,0l-19.663,9.112a3.873,3.873,0,0,1-1.513.332,3.625,3.625,0,0,1-1.549-6.9l19.663-9.112a36.354,36.354,0,0,1,30.951,0l5.718,2.656a29.314,29.314,0,0,0,24.864,0l5.681-2.656a36.354,36.354,0,0,1,30.951,0l5.681,2.619a29.134,29.134,0,0,0,24.9,0l5.681-2.619a36.223,36.223,0,0,1,30.951,0l5.681,2.619a29.134,29.134,0,0,0,24.9,0l5.681-2.619a36.223,36.223,0,0,1,30.951-.037l12.248,5.681Z" transform="translate(0 -251.947)"/>
      <path id="Trazado_697984" data-name="Trazado 697984" d="M474.45,1364.93a3.6,3.6,0,0,1-1.513,4.87l-10.292,5.386V1395l10.551,6.751a3.619,3.619,0,0,1-1.955,6.677,3.353,3.353,0,0,1-1.918-.59l-4.021-2.545-17.375,13.022a3.684,3.684,0,0,1-2.176.738,3.277,3.277,0,0,1-1.328-.258l-24.458-9.7-12.838,14.2h62.013a3.615,3.615,0,1,1,0,7.23H203.453a3.615,3.615,0,1,1,0-7.23H237.5l11.842-16.822-18.15-28.111L206.81,1398.28a3.6,3.6,0,1,1-4.575-5.57l24.421-19.995-16.6-16.564h-5.534a3.615,3.615,0,0,1,0-7.231H471.24a3.615,3.615,0,1,1,0,7.231H435.715l5.681,25.159,14.018,9.038v-17.375a3.629,3.629,0,0,1,1.955-3.172l12.211-6.382A3.6,3.6,0,0,1,474.45,1364.93ZM445.2,1411.339l13.612-10.219-19.995-12.875-13.649,15.125Zm-11.289-30.4-5.607-24.79H380.343l8.6,36.189Zm-35.23,40.911,28.811-31.836-39.842,10.108-16.822,9.665Zm-51.241,1.439H383.81l-19.662-8.522a3.715,3.715,0,0,1-.886-.59Zm34.714-28.332-9.223-38.809H338.62l-8.116,33.681,15.641,25.86Zm-41.834,25.011-13.723-22.687-12.321,19.625a3.7,3.7,0,0,1-1.549,1.365l-10.956,5.017h35.046Zm-16.527-33.164,7.415-30.656H270.963l7.969,30.656Zm-15.051,25.344,11.362-18.113H277.308L260.08,1406.4l25.454,16.416Zm-62.382,11.141h26.635l-18.335-11.8Zm25.676-34.345-8.522-32.8H220.275l14.313,14.276c.111.111.147.259.221.332a1.729,1.729,0,0,0,.258.259l19.589,30.4Z" transform="translate(-1.615 0)"/>
      <path id="Trazado_697985" data-name="Trazado 697985" d="M469.138,1616.254a3.615,3.615,0,1,1,0,7.23H203.453a3.615,3.615,0,1,1,0-7.23H469.138Z" transform="translate(-1.615 -162.307)"/>
      <path id="Trazado_697986" data-name="Trazado 697986" d="M872.846,1571.7a4.147,4.147,0,0,1-3.579,4.722,3.2,3.2,0,0,1-.59.036,4.107,4.107,0,0,1-4.095-3.615,4.166,4.166,0,0,1,3.541-4.722,2.778,2.778,0,0,1,.553-.037A4.153,4.153,0,0,1,872.846,1571.7Z" transform="translate(-405.175 -133.061)"/>
      <path id="Trazado_697987" data-name="Trazado 697987" d="M807.023,1461.892l-13.613,10.219-20.031-7.968,13.649-15.125Z" transform="translate(-349.83 -60.773)" fill="#956640"/>
      <path id="Trazado_697988" data-name="Trazado 697988" d="M796.367,1590.951a4.189,4.189,0,1,1-4.722-3.578A4.193,4.193,0,0,1,796.367,1590.951Z" transform="translate(-358.726 -144.75)"/>
      <path id="Trazado_697989" data-name="Trazado 697989" d="M707.248,1367.325l5.607,24.79-44.969,11.4-8.6-36.189Z" transform="translate(-280.563 -11.174)" fill="#956640"/>
      <path id="Trazado_697990" data-name="Trazado 697990" d="M691.728,1453.525l-28.811,31.836L635.065,1473.3l16.822-9.665Z" transform="translate(-265.855 -63.509)" fill="#ba7f50"/>
      <path id="Trazado_697991" data-name="Trazado 697991" d="M721.517,1571.7a4.189,4.189,0,1,1-4.722-3.578A4.2,4.2,0,0,1,721.517,1571.7Z" transform="translate(-313.277 -133.063)"/>
      <path id="Trazado_697992" data-name="Trazado 697992" d="M611.906,1524.142H575.532l15.826-9.112a3.714,3.714,0,0,0,.885.59Z" transform="translate(-229.71 -100.851)" fill="#956640"/>
      <path id="Trazado_697993" data-name="Trazado 697993" d="M574.856,1367.325l9.223,38.809-36,20.732-15.641-25.86,8.116-33.681Z" transform="translate(-203.543 -11.174)" fill="#956640"/>
      <path id="Trazado_697994" data-name="Trazado 697994" d="M641.007,1590.951a4.171,4.171,0,1,1-4.685-3.578A4.166,4.166,0,0,1,641.007,1590.951Z" transform="translate(-264.418 -144.75)"/>
      <path id="Trazado_697995" data-name="Trazado 697995" d="M570.092,1572.533a4.182,4.182,0,0,1-.48,8.338c-.147,0-.332-.037-.479-.037a4.182,4.182,0,0,1,.479-8.337C569.76,1572.5,569.944,1572.533,570.092,1572.533Z" transform="translate(-223.57 -135.74)"/>
      <path id="Trazado_697996" data-name="Trazado 697996" d="M484.111,1472.023l13.723,22.688-3.5,3.32H459.284l10.956-5.018a3.7,3.7,0,0,0,1.549-1.365Z" transform="translate(-159.133 -74.74)" fill="#956640"/>
      <path id="Trazado_697997" data-name="Trazado 697997" d="M441.119,1367.325l-7.415,30.656H388.846l-7.968-30.656h60.242Z" transform="translate(-111.529 -11.174)" fill="#ba7f50"/>
      <path id="Trazado_697998" data-name="Trazado 697998" d="M413.2,1463.76l-11.362,18.113-23.2,10.661-25.454-16.416L370.4,1463.76Z" transform="translate(-94.712 -69.723)" fill="#ba7f50"/>
      <path id="Trazado_697999" data-name="Trazado 697999" d="M490.026,1587.333a4.187,4.187,0,1,1-4.169,4.168A4.2,4.2,0,0,1,490.026,1587.333Z" transform="translate(-175.266 -144.748)"/>
      <path id="Trazado_698000" data-name="Trazado 698000" d="M402.95,1568.136a4.178,4.178,0,1,1-4.648,3.689A4.182,4.182,0,0,1,402.95,1568.136Z" transform="translate(-122.093 -133.077)"/>
      <path id="Trazado_698001" data-name="Trazado 698001" d="M344.881,1519.979H318.246l8.3-11.8Z" transform="translate(-73.504 -96.688)" fill="#956640"/>
      <path id="Trazado_698002" data-name="Trazado 698002" d="M295.094,1367.325l8.522,32.8-17.375,12.469-19.589-30.4a1.728,1.728,0,0,1-.258-.259c-.074-.073-.11-.221-.221-.332l-14.313-14.276Z" transform="translate(-33.198 -11.174)" fill="#956640"/>
      <path id="Trazado_698003" data-name="Trazado 698003" d="M318.7,1587.333a4.187,4.187,0,1,1-4.205,4.168A4.188,4.188,0,0,1,318.7,1587.333Z" transform="translate(-71.224 -144.748)"/>
      <path id="Trazado_698004" data-name="Trazado 698004" d="M238.6,1572.5a4.187,4.187,0,1,1-4.206,4.205A4.172,4.172,0,0,1,238.6,1572.5Z" transform="translate(-22.594 -135.74)"/>
    </g>
  </g>
</svg>
