<svg xmlns="http://www.w3.org/2000/svg" xmlns:xlink="http://www.w3.org/1999/xlink" width="364" height="364" viewBox="0 0 364 364">
  <defs>
    <filter id="Elipse_6088" x="0" y="0" width="364" height="364" filterUnits="userSpaceOnUse">
      <feOffset dy="3" input="SourceAlpha"/>
      <feGaussianBlur stdDeviation="3" result="blur"/>
      <feFlood flood-opacity="0.161"/>
      <feComposite operator="in" in2="blur"/>
      <feComposite in="SourceGraphic"/>
    </filter>
  </defs>
  <g id="Grupo_914488" data-name="Grupo 914488" transform="translate(-1037 -12070)">
    <g transform="matrix(1, 0, 0, 1, 1037, 12070)" filter="url(#Elipse_6088)">
      <circle id="Elipse_6088-2" data-name="Elipse 6088" cx="173" cy="173" r="173" transform="translate(9 6)" fill="#fcf1ea"/>
    </g>
    <path id="Trazado_254296" data-name="Trazado 254296" d="M64.724,222.277c.187-13.227-22.366-35.213-26.594-73.239-3.526-31.53,18.153-59.295,38.937-69.5,19.4-9.513,28.992-6.06,41.954-13.9,18.137-10.975,20.342-36.248,47.02-45.074,12.681-4.2,26.136-.77,38.094,5.539S227.311,40.882,239.9,45.147c12.676,4.3,26.105,3.246,39.259,2.018,44.383-4.161,72.953,34.329,71.3,65.848-.978,18.725-7.043,31.437-15.567,42.6-4.8,6.273-11.89,13.17-9.55,21.148,1.04,3.641,3.885,6.054,6.242,8.743,7.864,9.066,10.673,24.446,7.2,36.773Z" transform="translate(1020.681 12124.745)" fill="#add7d3"/>
    <g id="Grupo_914490" data-name="Grupo 914490" transform="translate(-1780.054 9959.237)">
      <path id="Trazado_698005" data-name="Trazado 698005" d="M3155.208,2316.67a16.111,16.111,0,0,1-7.417,27.28c-4.149,1.006-9.093,2.179-14.583,3.436a15.71,15.71,0,0,1,2.1,12.99,16.088,16.088,0,0,1-11.817,11.524c-27.531,6.621-96.507,22.21-142.142,23.425-1.885.084-3.771.084-5.615.084-44.294,0-82.763-14-102.207-22.587a16.227,16.227,0,0,1-8.674-9.177,15.662,15.662,0,0,1-.587-8.968c-3.143-.754-6.034-1.425-8.59-2.053a16.1,16.1,0,0,1-7.417-27.281c4.274-4.065,6.747-9.345,9.6-15.463,6.244-13.326,14-29.878,44.419-45.425,20.994-10.686,35.493-29.376,47.143-44.377,11.859-15.212,21.2-27.239,32.6-23.383,7.291,2.473,11.859,10.224,16.259,18.983a16.428,16.428,0,0,1,2.808-.5c.545-1.09,1.131-2.179,1.634-3.227,5.825-11.817,10.434-21.162,18.731-23.927,21.623-7.334,54.519,33.314,75.932,74.13,10.937,20.911,26.9,31.932,40.983,41.654C3144.606,2308.121,3150.515,2312.185,3155.208,2316.67Zm-3.52,13.619a7.669,7.669,0,0,0-2.137-7.668c-4.232-4.065-9.848-7.962-15.84-12.069-9.471-6.537-20.45-14.122-30.256-25.227l-8.884,2.808a4.394,4.394,0,0,1-1.257.209,4.1,4.1,0,0,1-1.257-8l5.867-1.885a93.2,93.2,0,0,1-7.836-12.488c-22.671-43.33-52.3-74.759-66-70.191-5.07,1.718-9.009,9.68-14,19.78a7.724,7.724,0,0,0-.419.838c15.379,5.071,33.482,25.185,48.987,49.071a.9.9,0,0,0,.126.209c2.472,3.813,4.9,7.752,7.208,11.691.126.21.21.377.335.545,1.048,1.844,2.137,3.73,3.143,5.574.209.335.377.67.586,1.047,1.006,1.844,2.012,3.729,3.017,5.573,10.937,20.911,26.9,31.932,40.983,41.654,4.316,2.975,8.423,5.825,12.152,8.8,7.543-1.718,14.248-3.269,19.654-4.568A7.827,7.827,0,0,0,3151.688,2330.288Zm-24.305,27.951a7.67,7.67,0,0,0-2.137-7.668c-.754-.755-1.634-1.467-2.472-2.221-.126-.084-.252-.084-.377-.209-3.73-3.143-8.256-6.286-13.033-9.555-14.122-9.764-31.68-21.916-43.581-44.671-15.8-30.172-34.991-54.6-49.784-65.079-.586-.419-1.131-.754-1.676-1.09s-1.048-.671-1.551-.964a21.972,21.972,0,0,0-9.428-3.353,4.249,4.249,0,0,1-.713-.126,9.021,9.021,0,0,0-2.85.419,10.292,10.292,0,0,0-1.173.587.74.74,0,0,1-.21.168c-4.4,2.6-8.213,10.267-12.571,19.109-4.442,8.884-9.638,19.276-17.391,29.375,3.855,2.849,11.189,7.166,20.282,7.166a4.107,4.107,0,0,1,0,8.213c-11.65,0-20.785-5.448-25.521-9.009a97.166,97.166,0,0,1-27.7,21.246c-2.179,1.131-4.4,2.221-6.746,3.227-2.137.922-4.233,1.886-6.244,2.891l-.754.377c-1.76.922-3.52,1.8-5.2,2.766-.042,0-.084.042-.167.084-18.522,10.434-30.046,23.006-37,33.4-.167.251-.335.5-.5.712-.336.5-.629.964-.922,1.425a80.345,80.345,0,0,0-4.484,8.088c-.042.042-.084.125-.125.167-.21.377-.419.8-.587,1.173a7.42,7.42,0,0,0-.209,5.908,8.082,8.082,0,0,0,4.274,4.526c19.612,8.675,59.3,23.09,104.3,21.832,44.838-1.215,113.144-16.636,140.424-23.215A7.824,7.824,0,0,0,3127.383,2358.239Zm-136.275-138.58c-4.107-8.088-7.543-13.787-11.733-15.17a4.323,4.323,0,0,0-1.467-.251c-5.741,0-13.326,9.764-22,20.911-12.153,15.631-27.28,35.074-49.909,46.64-27.909,14.248-34.7,28.747-40.69,41.57-.545,1.089-1.048,2.179-1.592,3.268a29.864,29.864,0,0,0,10.015-7.794,4.113,4.113,0,0,1,6.412,5.154c-7.459,9.345-18.983,12.823-23.132,13.829a34.219,34.219,0,0,1-3.1,3.479,7.9,7.9,0,0,0,3.687,13.367c2.933.712,6.328,1.508,9.974,2.346.5-.963,1.089-1.969,1.676-2.975,0-.042.042-.042.042-.083q.629-1.069,1.383-2.263c.377-.629.8-1.3,1.257-1.969l.377-.629c7.794-11.817,20.156-25.059,39.6-36.038.251-.168.5-.293.8-.461q2.388-1.32,5.029-2.64c.419-.209.838-.46,1.257-.67,2.1-1.005,4.233-2.011,6.5-3.017a89.556,89.556,0,0,0,33.818-25.143,4.142,4.142,0,0,1,.377-.544c.084-.084.167-.084.209-.168,8.549-10.351,14-21.33,18.522-30.549C2982.685,2231.308,2986.289,2224.059,2991.108,2219.659Z" transform="translate(0 0)"/>
      <path id="Trazado_698006" data-name="Trazado 698006" d="M3356.007,2332.762a7.671,7.671,0,0,1,2.137,7.669,7.827,7.827,0,0,1-5.825,5.7c-5.406,1.3-12.111,2.849-19.654,4.568-3.729-2.975-7.836-5.825-12.153-8.8-14.08-9.722-30.046-20.743-40.983-41.654-1.005-1.844-2.011-3.729-3.017-5.573-.21-.377-.377-.712-.587-1.047-1.006-1.844-2.1-3.73-3.143-5.574a6.291,6.291,0,0,1-.335-.545c-2.3-3.939-4.736-7.878-7.208-11.691a.906.906,0,0,1-.125-.209c-15.5-23.886-33.608-44-48.987-49.071a7.726,7.726,0,0,1,.419-.838c4.987-10.1,8.926-18.061,14-19.78,13.7-4.567,43.33,26.862,66,70.191a93.2,93.2,0,0,0,7.836,12.488l-5.867,1.885a4.1,4.1,0,0,0,1.257,8,4.393,4.393,0,0,0,1.257-.209l8.884-2.808c9.806,11.105,20.785,18.69,30.255,25.227C3346.159,2324.8,3351.775,2328.7,3356.007,2332.762Zm-20.7,3.52a6.646,6.646,0,1,0-8.339,4.316A6.6,6.6,0,0,0,3335.306,2336.282Zm-47.52-53.681a4.337,4.337,0,1,0-4.358,4.358A4.32,4.32,0,0,0,3287.785,2282.6Zm-20.2-39.936a7.291,7.291,0,1,0-7.292,7.292A7.3,7.3,0,0,0,3267.587,2242.666Zm-26.275-20.073a4.337,4.337,0,1,0-4.358,4.358A4.381,4.381,0,0,0,3241.313,2222.594Z" transform="translate(-206.456 -10.143)" fill="#956640"/>
      <path id="Trazado_698007" data-name="Trazado 698007" d="M3462.8,2479.428a6.673,6.673,0,0,1,4.274,8.381,6.646,6.646,0,1,1-12.655-4.064A6.714,6.714,0,0,1,3462.8,2479.428Z" transform="translate(-338.225 -161.67)"/>
      <path id="Trazado_698008" data-name="Trazado 698008" d="M3160.938,2395.421a7.669,7.669,0,0,1,2.137,7.668,7.824,7.824,0,0,1-5.824,5.7c-27.281,6.579-95.586,22-140.424,23.215-45.006,1.257-84.69-13.157-104.3-21.832a8.083,8.083,0,0,1-4.274-4.526,7.42,7.42,0,0,1,.209-5.908c.168-.377.377-.8.587-1.174.042-.042.084-.125.125-.167a80.345,80.345,0,0,1,4.484-8.088c.293-.461.586-.922.922-1.425.167-.209.335-.461.5-.712,6.957-10.392,18.48-22.964,37-33.4.084-.042.126-.084.167-.084,1.676-.964,3.436-1.844,5.2-2.765l.754-.378c2.012-1.005,4.107-1.969,6.244-2.891,2.346-1.006,4.568-2.1,6.746-3.227a97.162,97.162,0,0,0,27.7-21.246c4.735,3.562,13.871,9.009,25.521,9.009a4.107,4.107,0,0,0,0-8.213c-9.094,0-16.427-4.316-20.282-7.166,7.752-10.1,12.948-20.491,17.39-29.375,4.358-8.842,8.172-16.511,12.571-19.109a.735.735,0,0,0,.21-.168,10.332,10.332,0,0,1,1.173-.587,9.028,9.028,0,0,1,2.85-.419,4.225,4.225,0,0,0,.713.126,21.974,21.974,0,0,1,9.428,3.352c.5.293,1.006.629,1.551.964s1.09.67,1.676,1.089c14.792,10.476,33.985,34.907,49.784,65.079,11.9,22.755,29.459,34.907,43.581,44.67,4.777,3.269,9.3,6.412,13.033,9.555.125.125.251.125.377.209C3159.3,2393.954,3160.183,2394.666,3160.938,2395.421Zm-33.65-1.341a7.313,7.313,0,1,0-7.292,7.292A7.3,7.3,0,0,0,3127.288,2394.08Zm-35.578-21.288a5.469,5.469,0,0,0-10.937,0,5.469,5.469,0,1,0,10.937,0Zm-10.937-38.26a7.291,7.291,0,1,0-7.292,7.333A7.3,7.3,0,0,0,3080.773,2334.533Zm-18.647,70.736a4.358,4.358,0,1,0-4.358,4.359A4.382,4.382,0,0,0,3062.125,2405.268Zm-20.24-30.423a6.646,6.646,0,1,0-8.381,4.274A6.645,6.645,0,0,0,3041.885,2374.845Zm-.88-71.071a5.469,5.469,0,0,0-10.937,0,5.469,5.469,0,1,0,10.937,0Zm-17.6,44.923a4.358,4.358,0,1,0-4.359,4.316A4.382,4.382,0,0,0,3023.405,2348.7Zm-12.069,43.539a5.469,5.469,0,1,0-5.448,5.49A5.437,5.437,0,0,0,3011.337,2392.236Zm-24.515-31.429a6.646,6.646,0,1,0-8.381,4.316A6.618,6.618,0,0,0,2986.822,2360.807Zm-29.25,35.787a4.358,4.358,0,1,0-4.358,4.316A4.382,4.382,0,0,0,2957.572,2396.594Z" transform="translate(-35.692 -44.851)" fill="#ba7f50"/>
      <path id="Trazado_698009" data-name="Trazado 698009" d="M3374.264,2533.986a7.292,7.292,0,1,1-7.333,7.292A7.3,7.3,0,0,1,3374.264,2533.986Z" transform="translate(-289.96 -192.048)"/>
      <path id="Trazado_698010" data-name="Trazado 698010" d="M3361.575,2368.628a4.337,4.337,0,1,1-4.316,4.316A4.32,4.32,0,0,1,3361.575,2368.628Z" transform="translate(-284.604 -100.485)"/>
      <circle id="Elipse_6220" data-name="Elipse 6220" cx="7.291" cy="7.291" r="7.291" transform="translate(3046.548 2225.232)"/>
      <path id="Trazado_698011" data-name="Trazado 698011" d="M3300.962,2490.417a5.469,5.469,0,0,1,0,10.938,5.469,5.469,0,1,1,0-10.937Z" transform="translate(-250.391 -167.923)"/>
      <path id="Trazado_698012" data-name="Trazado 698012" d="M3270.087,2400.554a7.313,7.313,0,1,1-7.291,7.292A7.3,7.3,0,0,1,3270.087,2400.554Z" transform="translate(-232.297 -118.163)"/>
      <path id="Trazado_698013" data-name="Trazado 698013" d="M3257.441,2234.07a4.358,4.358,0,1,1-4.317,4.358A4.381,4.381,0,0,1,3257.441,2234.07Z" transform="translate(-226.942 -25.977)"/>
      <circle id="Elipse_6221" data-name="Elipse 6221" cx="4.358" cy="4.358" r="4.358" transform="translate(3017.718 2356.06)"/>
      <path id="Trazado_698014" data-name="Trazado 698014" d="M3187.913,2488.043a6.646,6.646,0,1,1-8.339,4.316A6.646,6.646,0,0,1,3187.913,2488.043Z" transform="translate(-186.036 -166.429)"/>
      <path id="Trazado_698015" data-name="Trazado 698015" d="M3187.344,2335.763a5.469,5.469,0,0,1,0,10.937,5.469,5.469,0,1,1,0-10.937Z" transform="translate(-187.478 -82.287)"/>
      <path id="Trazado_698016" data-name="Trazado 698016" d="M2989.567,2225.682c4.19,1.383,7.626,7.082,11.733,15.17-4.82,4.4-8.423,11.649-12.7,20.2-4.526,9.219-9.973,20.2-18.522,30.548-.042.084-.125.084-.209.168a4.144,4.144,0,0,0-.377.544,89.556,89.556,0,0,1-33.818,25.143c-2.263,1.006-4.4,2.012-6.5,3.017-.419.21-.838.461-1.257.67q-2.64,1.32-5.029,2.64c-.293.168-.545.293-.8.461-19.444,10.979-31.806,24.221-39.6,36.038l-.377.629c-.461.67-.88,1.341-1.257,1.969q-.754,1.194-1.383,2.263c0,.042-.042.042-.042.083-.587,1.006-1.173,2.012-1.676,2.975-3.646-.838-7.041-1.634-9.974-2.346a7.9,7.9,0,0,1-3.687-13.368,34.217,34.217,0,0,0,3.1-3.478c4.148-1.006,15.672-4.484,23.132-13.829a4.113,4.113,0,0,0-6.412-5.155,29.864,29.864,0,0,1-10.015,7.795c.545-1.09,1.048-2.179,1.592-3.269,5.993-12.823,12.781-27.322,40.69-41.57,22.629-11.566,37.757-31.01,49.909-46.64,8.674-11.147,16.259-20.911,22-20.911A4.323,4.323,0,0,1,2989.567,2225.682Zm-4.862,23.677a4.337,4.337,0,0,0-8.674,0,4.337,4.337,0,1,0,8.674,0Zm-23.383,36.541a6.646,6.646,0,1,0-8.381,4.316A6.663,6.663,0,0,0,2961.323,2285.9Zm-39.977,24.975a4.358,4.358,0,1,0-4.358,4.358A4.346,4.346,0,0,0,2921.345,2310.875Z" transform="translate(-10.193 -21.193)" fill="#956640"/>
      <path id="Trazado_698017" data-name="Trazado 698017" d="M3151.751,2438.866a4.337,4.337,0,1,1-4.357,4.358A4.382,4.382,0,0,1,3151.751,2438.866Z" transform="translate(-168.396 -139.378)"/>
      <path id="Trazado_698018" data-name="Trazado 698018" d="M3120.863,2533.986a5.469,5.469,0,1,1-5.49,5.447A5.437,5.437,0,0,1,3120.863,2533.986Z" transform="translate(-150.665 -192.048)"/>
      <path id="Trazado_698019" data-name="Trazado 698019" d="M3122.267,2269.376a4.337,4.337,0,0,1,0,8.674,4.337,4.337,0,1,1,0-8.674Z" transform="translate(-152.069 -45.527)"/>
      <path id="Trazado_698020" data-name="Trazado 698020" d="M3064.528,2341.747a6.666,6.666,0,1,1-8.339,4.316A6.663,6.663,0,0,1,3064.528,2341.747Z" transform="translate(-117.714 -85.421)"/>
      <path id="Trazado_698021" data-name="Trazado 698021" d="M3064.528,2456.68a6.646,6.646,0,1,1-8.339,4.274A6.619,6.619,0,0,1,3064.528,2456.68Z" transform="translate(-117.714 -149.062)"/>
      <path id="Trazado_698022" data-name="Trazado 698022" d="M3004.234,2546.193a4.337,4.337,0,1,1-4.358,4.358A4.382,4.382,0,0,1,3004.234,2546.193Z" transform="translate(-86.712 -198.808)"/>
      <path id="Trazado_698023" data-name="Trazado 698023" d="M2980.2,2407.221a4.337,4.337,0,1,1-4.358,4.316A4.346,4.346,0,0,1,2980.2,2407.221Z" transform="translate(-73.4 -121.855)"/>
    </g>
  </g>
</svg>
