<svg xmlns="http://www.w3.org/2000/svg" xmlns:xlink="http://www.w3.org/1999/xlink" width="364" height="364" viewBox="0 0 364 364">
  <defs>
    <filter id="Elipse_6088" x="0" y="0" width="364" height="364" filterUnits="userSpaceOnUse">
      <feOffset dy="3" input="SourceAlpha"/>
      <feGaussianBlur stdDeviation="3" result="blur"/>
      <feFlood flood-opacity="0.161"/>
      <feComposite operator="in" in2="blur"/>
      <feComposite in="SourceGraphic"/>
    </filter>
  </defs>
  <g id="Grupo_914483" data-name="Grupo 914483" transform="translate(-1037 -12070)">
    <g transform="matrix(1, 0, 0, 1, 1037, 12070)" filter="url(#Elipse_6088)">
      <circle id="Elipse_6088-2" data-name="Elipse 6088" cx="173" cy="173" r="173" transform="translate(9 6)" fill="#fcf1ea"/>
    </g>
    <path id="Trazado_254296" data-name="Trazado 254296" d="M64.724,222.277c.187-13.227-22.366-35.213-26.594-73.239-3.526-31.53,18.153-59.295,38.937-69.5,19.4-9.513,28.992-6.06,41.954-13.9,18.137-10.975,20.342-36.248,47.02-45.074,12.681-4.2,26.136-.77,38.094,5.539S227.311,40.882,239.9,45.147c12.676,4.3,26.105,3.246,39.259,2.018,44.383-4.161,72.953,34.329,71.3,65.848-.978,18.725-7.043,31.437-15.567,42.6-4.8,6.273-11.89,13.17-9.55,21.148,1.04,3.641,3.885,6.054,6.242,8.743,7.864,9.066,10.673,24.446,7.2,36.773Z" transform="translate(1020.681 12124.745)" fill="#add7d3"/>
    <g id="Grupo_914484" data-name="Grupo 914484" transform="translate(-1789.964 8182.107)">
      <path id="Trazado_697940" data-name="Trazado 697940" d="M3175.67,4072.838c-5.5-10.514-12.442-19.946-23.294-26-13.109-7.319-27.044-13.51-33.7-27.893a12.867,12.867,0,0,1-1.092-7.694c-7.077-7.487-14.209-14.1-24.71-19.059a46.883,46.883,0,0,0-4.972-1.958,13.043,13.043,0,0,1-1.511,2.024c-4.772,5.2-12.791,4.324-17.7,0,.554.487.911.793,1.183,1.024.542.407.826.7,0,0a6.52,6.52,0,0,0-.685-.458c-.661-.37-1.345-.7-2.023-1.043-6.117-3.069-7.409-11.082-4.647-16.75-.8-1.313-1.671-2.743-2.771-4.328-16.749-24.09-50.2-34.708-74.743-17.647a12.254,12.254,0,0,1-6.05,9.707,7.477,7.477,0,0,1-.985.572c-.129.128-.264.25-.386.383-.249.395-.486.794-.7,1.208-.208.376-.393.764-.575,1.154-.371.949-.709,1.911-1.074,2.861a48.458,48.458,0,0,1-5.529,11.048,11.881,11.881,0,0,1-1.478,8.112c-3.269,5.59-11.5,8.243-17.128,4.491-.306-.2-.612-.414-.918-.619-17.331,7.73-28.924,12.881-40.059,29.837-9.75,14.846-25.518,20.237-36.275,34.23-9.464,12.314-13.058,26.193-12.464,40.773a62.335,62.335,0,0,0,1.691,13.739c2.092,9.857,8.087,15.456,15.243,17.61l2.822,3.1c5.378,5.919,11.481,8.344,17.377,8.312a22.523,22.523,0,0,0,5.019,3.488c16.781,2.729,32.58,8.521,49.092,12.5,18.64,4.5,38.278,4.73,57.386,4.736,17.773.005,35.657-.52,53.542-1.276a443.533,443.533,0,0,0,46.35-10.728c33.4-9.7,60.083-22.808,65.4-60.479A63.448,63.448,0,0,0,3175.67,4072.838Z" transform="translate(-8.051 -5.216)" fill="#956640"/>
      <path id="Trazado_697941" data-name="Trazado 697941" d="M3157.3,4045.846a59.115,59.115,0,0,1-32.387,94.827c-4.411,1.037-8.907,1.9-13.4,2.724-5.275,1.038-10.724,2.076-15.912,3.416a385.745,385.745,0,0,1-95.951,12.281c-58.245,0-95.475-13.793-97.767-14.659-35.976-13.534-55.478-27.372-55.478-61.4a58.785,58.785,0,0,1,40.949-56.039c5.967-1.946,10.939-6.7,14.009-13.491a52.109,52.109,0,0,1,47.262-30.571c4.367,0,7.87-2.725,8.475-6.444,3.979-24.431,25.08-41.467,51.371-41.467,24.257,0,46.829,18.161,51.37,41.338.778,3.893,4.108,6.487,8.345,6.573a52.169,52.169,0,0,1,47.435,30.571c3.07,6.789,8.043,11.545,14.01,13.491a4.225,4.225,0,1,1-2.594,8.042c-8.3-2.681-15.091-9.08-19.155-18.031a43.536,43.536,0,0,0-39.565-25.6,16.8,16.8,0,0,1-16.777-13.448c-3.805-19.329-22.7-34.505-43.067-34.505-22.4,0-39.7,13.836-43.025,34.375-1.3,7.914-8.3,13.622-16.691,13.579a43.583,43.583,0,0,0-39.7,25.6c-4.064,8.951-10.853,15.394-19.112,18.031a50.392,50.392,0,0,0-35.068,48c0,26.551,11.675,39.047,50.029,53.489.778.3,80.6,29.793,188.572,2.076,5.491-1.384,11.069-2.466,16.475-3.5,4.367-.822,8.734-1.687,13.058-2.681a50.461,50.461,0,0,0,39.046-49.382,49.6,49.6,0,0,0-11.329-31.825,4.241,4.241,0,0,1,6.573-5.361Z" transform="translate(0 0)"/>
      <path id="Trazado_697942" data-name="Trazado 697942" d="M3398.976,4253.53a9.578,9.578,0,1,1-9.556,9.557A9.559,9.559,0,0,1,3398.976,4253.53Z" transform="translate(-292.964 -171.837)"/>
      <circle id="Elipse_6216" data-name="Elipse 6216" cx="7.308" cy="7.308" r="7.308" transform="translate(3054.301 4045.576) rotate(-80.783)"/>
      <path id="Trazado_697943" data-name="Trazado 697943" d="M3215.777,4253.53a9.578,9.578,0,1,1-9.556,9.557A9.559,9.559,0,0,1,3215.777,4253.53Z" transform="translate(-194.127 -171.837)"/>
      <path id="Trazado_697944" data-name="Trazado 697944" d="M3182.355,4054.461a6.746,6.746,0,1,1-6.746,6.747A6.764,6.764,0,0,1,3182.355,4054.461Z" transform="translate(-177.612 -64.438)"/>
      <path id="Trazado_697945" data-name="Trazado 697945" d="M3098.769,4132.587a13.512,13.512,0,1,1-13.491,13.534A13.517,13.517,0,0,1,3098.769,4132.587Z" transform="translate(-128.878 -106.588)"/>
      <circle id="Elipse_6217" data-name="Elipse 6217" cx="6.183" cy="6.183" r="6.183" transform="translate(2969.329 4109.28)"/>
      <path id="Trazado_697946" data-name="Trazado 697946" d="M3021.483,4233.436a6.464,6.464,0,1,1-6.443,6.442A6.469,6.469,0,0,1,3021.483,4233.436Z" transform="translate(-90.984 -160.996)"/>
      <circle id="Elipse_6218" data-name="Elipse 6218" cx="6.746" cy="6.746" r="6.746" transform="translate(2881.594 4074.948)"/>
    </g>
  </g>
</svg>
