<svg xmlns="http://www.w3.org/2000/svg" xmlns:xlink="http://www.w3.org/1999/xlink" width="364" height="364" viewBox="0 0 364 364">
  <defs>
    <filter id="Elipse_6088" x="0" y="0" width="364" height="364" filterUnits="userSpaceOnUse">
      <feOffset dy="3" input="SourceAlpha"/>
      <feGaussianBlur stdDeviation="3" result="blur"/>
      <feFlood flood-opacity="0.161"/>
      <feComposite operator="in" in2="blur"/>
      <feComposite in="SourceGraphic"/>
    </filter>
  </defs>
  <g id="Grupo_914482" data-name="Grupo 914482" transform="translate(-1037 -12070)">
    <g transform="matrix(1, 0, 0, 1, 1037, 12070)" filter="url(#Elipse_6088)">
      <circle id="Elipse_6088-2" data-name="Elipse 6088" cx="173" cy="173" r="173" transform="translate(9 6)" fill="#fcf1ea"/>
    </g>
    <path id="Trazado_254296" data-name="Trazado 254296" d="M64.724,222.277c.187-13.227-22.366-35.213-26.594-73.239-3.526-31.53,18.153-59.295,38.937-69.5,19.4-9.513,28.992-6.06,41.954-13.9,18.137-10.975,20.342-36.248,47.02-45.074,12.681-4.2,26.136-.77,38.094,5.539S227.311,40.882,239.9,45.147c12.676,4.3,26.105,3.246,39.259,2.018,44.383-4.161,72.953,34.329,71.3,65.848-.978,18.725-7.043,31.437-15.567,42.6-4.8,6.273-11.89,13.17-9.55,21.148,1.04,3.641,3.885,6.054,6.242,8.743,7.864,9.066,10.673,24.446,7.2,36.773Z" transform="translate(1020.681 12124.745)" fill="#add7d3"/>
    <g id="Grupo_914481" data-name="Grupo 914481" transform="translate(-2643.432 11858.658)">
      <rect id="Rect치ngulo_298083" data-name="Rect치ngulo 298083" width="257.849" height="21.24" transform="translate(3732.768 349.737)" fill="#956640"/>
      <rect id="Rect치ngulo_298084" data-name="Rect치ngulo 298084" width="257.849" height="32.248" transform="translate(3732.768 368.507)" fill="#956640"/>
      <path id="Trazado_697907" data-name="Trazado 697907" d="M3990.348,598.326a56.079,56.079,0,0,0-6.663-2.848,10.823,10.823,0,0,1-6.066-4.856h-32.25c-7.022,3.486-14.982,3.87-22.7,3a12.6,12.6,0,0,1-7.049-3h-35.436a9.147,9.147,0,0,1-1.784,1.362c-7.851,4.463-16.107,4.166-24.085.247a8.07,8.07,0,0,1-2.161-1.609h-31.021a9.31,9.31,0,0,1-5.422,3.374c-5,1.2-10.042,2.032-15.165,1.375-5.153-.66-9.684-2.568-14.4-4.7-.026-.012-.045-.033-.071-.045h-32.59c-4.322,2.5-9.027,4.309-13.067,7.289a7.626,7.626,0,0,1-3.975,1.447v80.067h1.274c.008,0,.013-.011.021-.017,7.986-5.449,20.935-11.047,30.566-12.254,14.237-1.784,25.663,10.522,40.328,8.169,11.708-1.878,19.7-10.684,32.306-7.595,9.331,2.286,16.9,6.2,24.57,8.455,4.5-1.605,8.595-1.921,13.7-2.763,6.364-1.05,12.067-4.263,18.378-5.464,11.687-2.225,22.207,3.082,32.406,8.123a10.623,10.623,0,0,1,3.047-.528,40.676,40.676,0,0,0,10.346-1.731,10.491,10.491,0,0,1,6.218-5.068,39.924,39.924,0,0,1,18.985-.741,8.289,8.289,0,0,1,2.435.972c8.083.991,15.939,3.865,23.268,7.387v-76.24C3992.969,599.543,3991.653,598.946,3990.348,598.326Z" transform="translate(-3.672 -197.911)" fill="#ba7f50"/>
      <path id="Trazado_697908" data-name="Trazado 697908" d="M3991.185,586.161a3.43,3.43,0,0,1-2.913,6.21l-18.667-8.632a27.712,27.712,0,0,0-23.684,0l-5.4,2.491a34.327,34.327,0,0,1-29.439,0l-5.4-2.491a27.712,27.712,0,0,0-23.684,0l-5.4,2.526a34.576,34.576,0,0,1-29.439,0l-5.4-2.526a27.964,27.964,0,0,0-23.684,0l-5.4,2.526a34.576,34.576,0,0,1-29.439,0l-5.4-2.491a27.713,27.713,0,0,0-23.684,0l-18.666,8.632a3.151,3.151,0,0,1-1.438.316,3.424,3.424,0,0,1-1.474-6.526l18.7-8.667a34.578,34.578,0,0,1,29.438,0l5.4,2.491a27.71,27.71,0,0,0,23.684,0l5.4-2.491a34.331,34.331,0,0,1,29.438,0l5.4,2.491a27.709,27.709,0,0,0,23.684,0l5.4-2.526a34.579,34.579,0,0,1,29.439,0l5.4,2.526a27.958,27.958,0,0,0,23.683,0l5.4-2.526a34.579,34.579,0,0,1,29.438,0Z" transform="translate(0 -187.628)"/>
      <path id="Trazado_697909" data-name="Trazado 697909" d="M3991.185,690.614a3.446,3.446,0,0,1-2.913,6.246l-18.667-8.667a27.834,27.834,0,0,0-23.684.035l-5.4,2.491a34.452,34.452,0,0,1-29.439,0l-5.4-2.491a27.709,27.709,0,0,0-23.684,0l-5.4,2.491a34.454,34.454,0,0,1-29.439.035l-5.4-2.526a27.709,27.709,0,0,0-23.684,0l-5.4,2.526a34.578,34.578,0,0,1-29.439,0l-5.4-2.526a27.961,27.961,0,0,0-23.684,0l-18.666,8.667a3.681,3.681,0,0,1-1.438.316,3.436,3.436,0,0,1-3.123-1.965,3.4,3.4,0,0,1,1.649-4.561l18.7-8.667a34.327,34.327,0,0,1,29.438,0l5.4,2.491a27.71,27.71,0,0,0,23.684,0l5.4-2.491a34.45,34.45,0,0,1,29.438-.035l5.4,2.526a27.834,27.834,0,0,0,23.684,0l5.4-2.526a34.574,34.574,0,0,1,29.439,0l5.4,2.526a27.833,27.833,0,0,0,23.683-.035l5.4-2.491a34.451,34.451,0,0,1,29.438,0Z" transform="translate(0 -253.064)"/>
      <path id="Trazado_697910" data-name="Trazado 697910" d="M3991.185,795.1a3.446,3.446,0,0,1-2.913,6.246l-18.667-8.666a27.96,27.96,0,0,0-23.684,0l-5.4,2.526a34.579,34.579,0,0,1-29.439,0l-5.4-2.526a27.834,27.834,0,0,0-23.684.035l-5.4,2.491a34.58,34.58,0,0,1-29.439,0l-5.4-2.491a27.709,27.709,0,0,0-23.684,0l-5.4,2.491a34.454,34.454,0,0,1-29.439.035l-5.4-2.526a27.71,27.71,0,0,0-23.684,0l-18.666,8.667a3.679,3.679,0,0,1-1.438.316,3.448,3.448,0,0,1-1.474-6.561l18.7-8.631a34.45,34.45,0,0,1,29.438-.035l5.4,2.526a27.833,27.833,0,0,0,23.684,0l5.4-2.526a34.575,34.575,0,0,1,29.438,0l5.4,2.526a27.957,27.957,0,0,0,23.684,0l5.4-2.526a34.576,34.576,0,0,1,29.439,0l5.4,2.491a27.708,27.708,0,0,0,23.683,0l5.4-2.491a34.327,34.327,0,0,1,29.438,0Z" transform="translate(0 -318.5)"/>
      <path id="Trazado_697911" data-name="Trazado 697911" d="M3991.414,347.339a3.421,3.421,0,1,1,0,6.842h-250.7a3.421,3.421,0,1,1,0-6.842h63.017V323.27c-1.228.105-2.632.211-4.246.211-6.842,0-16.7-1.369-25.509-7.754-10.351-7.474-16.526-19.86-18.351-36.807a3.4,3.4,0,0,1,2.842-3.754c.982-.14,24.07-3.684,39.368,9.684a35.681,35.681,0,0,1,10.632,17.052,20.267,20.267,0,0,1,1.4-2.14c5.719-7.93,15.088-12.667,27.824-14.07a3.425,3.425,0,0,1,3.754,2.877c.14.772,2.842,19.018-7.614,30.947-5.4,6.14-13.228,9.4-23.228,9.719v18.105h110.912V329.234c-10-.316-17.824-3.579-23.228-9.719-10.456-11.93-7.754-30.175-7.614-30.947a3.425,3.425,0,0,1,3.754-2.877c12.737,1.4,22.105,6.14,27.824,14.07a20.31,20.31,0,0,1,1.4,2.14,35.682,35.682,0,0,1,10.631-17.052c15.3-13.368,38.386-9.825,39.369-9.684a3.4,3.4,0,0,1,2.842,3.754c-1.825,16.947-8,29.333-18.352,36.807-8.806,6.386-18.666,7.754-25.508,7.754-1.614,0-3.017-.105-4.246-.211v24.07Zm-22.176-65.719c-6.386-.386-20.7-.105-30.456,8.421-5.369,4.7-8.632,11.368-9.825,19.824,6.141-6.386,15.685-15.263,24.7-19.544a3.461,3.461,0,0,1,4.6,1.614,3.424,3.424,0,0,1-1.65,4.561c-8.912,4.246-18.877,14.035-24.491,20.035,5.789.07,14.526-.912,22.07-6.386C3962.186,304.322,3967.239,294.743,3969.239,281.621Zm-47.93,34.7a26.462,26.462,0,0,0-4.632-12.6c-4.07-5.544-10.6-9.158-19.509-10.7-.175,5.158.315,15.193,6.315,21.965,3.263,3.719,7.791,6,13.51,6.947-3.86-4.772-9.3-11.053-13.193-13.86a3.432,3.432,0,0,1,4-5.579C3911.94,305.48,3917.274,311.445,3921.309,316.322Zm-92.666-1.333c6-6.772,6.491-16.807,6.316-21.965-8.912,1.544-15.439,5.158-19.508,10.7a26.454,26.454,0,0,0-4.632,12.6c4.035-4.842,9.368-10.842,13.508-13.825a3.443,3.443,0,0,1,4.036,5.579c-3.93,2.807-9.368,9.123-13.228,13.86C3820.853,320.989,3825.379,318.708,3828.643,314.989Zm-50.667-4.807c7.615,5.474,16.316,6.456,22.071,6.386-5.614-6-15.579-15.789-24.527-20.07a3.421,3.421,0,1,1,2.948-6.175c9.017,4.281,18.561,13.158,24.7,19.544-1.193-8.456-4.457-15.123-9.824-19.824-9.755-8.526-24.07-8.807-30.457-8.421C3764.889,294.778,3769.976,304.357,3777.975,310.182Z" transform="translate(-4.194 0)"/>
      <path id="Trazado_697912" data-name="Trazado 697912" d="M3991.414,518.967a3.439,3.439,0,0,1,0,6.878h-250.7a3.439,3.439,0,1,1,0-6.878Z" transform="translate(-4.194 -153.031)"/>
      <path id="Trazado_697913" data-name="Trazado 697913" d="M4386.661,656.937a4.143,4.143,0,0,1-3.859,7.333,4.162,4.162,0,0,1-1.719-5.614A4.113,4.113,0,0,1,4386.661,656.937Z" transform="translate(-407.126 -239.141)"/>
      <path id="Trazado_697914" data-name="Trazado 697914" d="M4386.661,752.648a4.143,4.143,0,1,1-5.578,1.754A4.124,4.124,0,0,1,4386.661,752.648Z" transform="translate(-407.126 -299.098)"/>
      <path id="Trazado_697915" data-name="Trazado 697915" d="M4260.074,301.574c9.754-8.526,24.07-8.807,30.456-8.421-2,13.123-7.053,22.7-15.052,28.526-7.544,5.474-16.281,6.456-22.07,6.386,5.614-6,15.58-15.789,24.491-20.035a3.423,3.423,0,0,0,1.649-4.561,3.459,3.459,0,0,0-4.6-1.614c-9.017,4.281-18.561,13.158-24.7,19.544C4251.443,312.942,4254.706,306.276,4260.074,301.574Z" transform="translate(-325.486 -11.532)" fill="#afc691"/>
      <path id="Trazado_697916" data-name="Trazado 697916" d="M4343.8,625.732a2.86,2.86,0,0,1,2.877,2.842,2.891,2.891,0,0,1-2.877,2.877,2.861,2.861,0,0,1-2.842-2.877A2.83,2.83,0,0,1,4343.8,625.732Z" transform="translate(-382.3 -219.901)"/>
      <path id="Trazado_697917" data-name="Trazado 697917" d="M4318.669,728.834a2.861,2.861,0,0,1,2.878,2.842,2.878,2.878,0,0,1-5.755,0A2.861,2.861,0,0,1,4318.669,728.834Z" transform="translate(-366.537 -284.477)"/>
      <path id="Trazado_697918" data-name="Trazado 697918" d="M4269.967,757.418a5.274,5.274,0,0,1-4.913,9.333,5.274,5.274,0,0,1,4.913-9.333Z" transform="translate(-332.993 -302.008)"/>
      <path id="Trazado_697919" data-name="Trazado 697919" d="M4255.814,650.625a5.265,5.265,0,1,1-7.123,2.211A5.247,5.247,0,0,1,4255.814,650.625Z" transform="translate(-324.139 -235.11)"/>
      <path id="Trazado_697920" data-name="Trazado 697920" d="M4184.638,334.545a26.45,26.45,0,0,1,4.631,12.6c-4.035-4.877-9.368-10.842-13.508-13.825a3.433,3.433,0,0,0-4,5.579c3.9,2.807,9.334,9.088,13.194,13.86-5.72-.947-10.246-3.228-13.509-6.947-6-6.772-6.491-16.807-6.316-21.965C4174.042,325.387,4180.568,329,4184.638,334.545Z" transform="translate(-272.156 -30.819)" fill="#afc691"/>
      <path id="Trazado_697921" data-name="Trazado 697921" d="M4190.567,752.648a4.143,4.143,0,1,1-5.613,1.754A4.175,4.175,0,0,1,4190.567,752.648Z" transform="translate(-284.295 -299.098)"/>
      <path id="Trazado_697922" data-name="Trazado 697922" d="M4165.273,622.757a4.135,4.135,0,0,1-3.825,7.333,4.175,4.175,0,0,1-1.754-5.614A4.123,4.123,0,0,1,4165.273,622.757Z" transform="translate(-268.474 -217.733)"/>
      <path id="Trazado_697923" data-name="Trazado 697923" d="M4173.183,719.068a2.877,2.877,0,1,1,0,5.754,2.877,2.877,0,0,1,0-5.754Z" transform="translate(-275.437 -278.36)"/>
      <path id="Trazado_697924" data-name="Trazado 697924" d="M4114.229,729.757a7.11,7.11,0,1,1-9.579,3.017A7.086,7.086,0,0,1,4114.229,729.757Z" transform="translate(-233.781 -284.558)"/>
      <path id="Trazado_697925" data-name="Trazado 697925" d="M4068.875,639.211a7.11,7.11,0,1,1-9.579,3.017A7.087,7.087,0,0,1,4068.875,639.211Z" transform="translate(-205.375 -227.837)"/>
      <path id="Trazado_697926" data-name="Trazado 697926" d="M4065.834,770.744a4.12,4.12,0,1,1-5.579,1.719A4.126,4.126,0,0,1,4065.834,770.744Z" transform="translate(-206.192 -310.421)"/>
      <path id="Trazado_697927" data-name="Trazado 697927" d="M4027.615,725.39a4.135,4.135,0,0,1-3.824,7.333,4.175,4.175,0,0,1-1.754-5.614A4.122,4.122,0,0,1,4027.615,725.39Z" transform="translate(-182.255 -282.015)"/>
      <path id="Trazado_697928" data-name="Trazado 697928" d="M3991.437,611.7a4.126,4.126,0,0,1,1.754,5.579,4.176,4.176,0,0,1-5.614,1.755,4.144,4.144,0,0,1,3.86-7.333Z" transform="translate(-159.585 -210.821)"/>
      <path id="Trazado_697929" data-name="Trazado 697929" d="M3958.229,323.843c.175,5.158-.316,15.193-6.316,21.965-3.263,3.719-7.789,6-13.509,6.947,3.86-4.737,9.3-11.053,13.228-13.86a3.443,3.443,0,0,0-4.035-5.579c-4.14,2.983-9.474,8.983-13.509,13.825a26.46,26.46,0,0,1,4.631-12.6C3942.791,329,3949.317,325.387,3958.229,323.843Z" transform="translate(-127.466 -30.819)" fill="#afc691"/>
      <path id="Trazado_697930" data-name="Trazado 697930" d="M3984.01,747.99a2.83,2.83,0,0,1,2.842,2.842,2.86,2.86,0,0,1-2.842,2.877,2.891,2.891,0,0,1-2.877-2.877A2.861,2.861,0,0,1,3984.01,747.99Z" transform="translate(-156.93 -296.475)"/>
      <path id="Trazado_697931" data-name="Trazado 697931" d="M3922.072,733.774a4.135,4.135,0,1,1-5.579,1.754A4.136,4.136,0,0,1,3922.072,733.774Z" transform="translate(-116.151 -287.277)"/>
      <path id="Trazado_697932" data-name="Trazado 697932" d="M3911.236,659.911a2.831,2.831,0,0,1,2.843,2.842,2.86,2.86,0,0,1-2.843,2.877,2.89,2.89,0,0,1-2.877-2.877A2.861,2.861,0,0,1,3911.236,659.911Z" transform="translate(-111.35 -241.308)"/>
      <path id="Trazado_697933" data-name="Trazado 697933" d="M3842.979,328.1c-5.755.07-14.456-.912-22.07-6.386-8-5.824-13.088-15.4-15.088-28.561,6.386-.386,20.7-.105,30.456,8.421,5.368,4.7,8.632,11.368,9.825,19.824-6.14-6.386-15.685-15.263-24.7-19.544a3.421,3.421,0,0,0-2.947,6.175C3827.4,312.311,3837.365,322.1,3842.979,328.1Z" transform="translate(-47.127 -11.532)" fill="#afc691"/>
      <path id="Trazado_697934" data-name="Trazado 697934" d="M3865.826,640.637a4.177,4.177,0,0,1,1.754,5.614,4.143,4.143,0,1,1-1.754-5.614Z" transform="translate(-80.922 -228.946)"/>
      <path id="Trazado_697935" data-name="Trazado 697935" d="M3866.072,755.595a2.86,2.86,0,0,1,2.842,2.877,2.86,2.86,0,0,1-5.719,0A2.867,2.867,0,0,1,3866.072,755.595Z" transform="translate(-83.062 -301.238)"/>
      <path id="Trazado_697936" data-name="Trazado 697936" d="M3814.014,720.692a5.253,5.253,0,0,1,0,7.509,5.31,5.31,0,1,1,0-7.509Z" transform="translate(-46.583 -278.405)"/>
      <path id="Trazado_697937" data-name="Trazado 697937" d="M3800.154,630.8a2.86,2.86,0,0,1,2.877,2.842,2.877,2.877,0,1,1-5.754,0A2.86,2.86,0,0,1,3800.154,630.8Z" transform="translate(-41.776 -223.077)"/>
      <path id="Trazado_697938" data-name="Trazado 697938" d="M3745.821,660.344a4.135,4.135,0,1,1-5.579,1.754A4.136,4.136,0,0,1,3745.821,660.344Z" transform="translate(-5.759 -241.286)"/>
      <path id="Trazado_697939" data-name="Trazado 697939" d="M3745.821,756.095a4.135,4.135,0,1,1-3.824,7.333,4.176,4.176,0,0,1-1.755-5.614A4.123,4.123,0,0,1,3745.821,756.095Z" transform="translate(-5.759 -301.247)"/>
    </g>
  </g>
</svg>
