<svg xmlns="http://www.w3.org/2000/svg" width="105.859" height="179.992" viewBox="0 0 105.859 179.992">
  <g id="Grupo_916410" data-name="Grupo 916410" transform="translate(-7307.082 -152.877)">
    <g id="Grupo_916384" data-name="Grupo 916384" transform="translate(7328.137 239.301)">
      <path id="Trazado_703975" data-name="Trazado 703975" d="M7874.582,2017.348a.137.137,0,0,1-.087-.161l.132-.57q.368.011.727.018c.693-1.586,1.411-3.115,2.12-4.555q-.86.092-1.8.107c-.124,0-.249,0-.377,0h0c-.133,0-.267,0-.4,0a33.608,33.608,0,0,1-4.437-.394,13.58,13.58,0,0,1-6.53,2.447c-.072,0-.144.005-.215.005-.034,0-.066,0-.1,0a5.3,5.3,0,0,1-.76-.066,3.344,3.344,0,0,1-1.928-.935,2.492,2.492,0,0,1-.44-.638l-.012-.023a2.734,2.734,0,0,1-.244-.895,2.59,2.59,0,0,1,.98-2.119c-2.877-.908-5.258-1.834-6.59-2.379a5.885,5.885,0,0,0-.9,2.087,1.144,1.144,0,0,1-.3.874,1.3,1.3,0,0,1-.983.367,3.1,3.1,0,0,1-.672-.086,5.641,5.641,0,0,1-.559-.158c-.107-.036-.214-.075-.318-.116-.216-.083-.421-.173-.608-.261a7.014,7.014,0,0,1-.748-.4,16.756,16.756,0,0,1-1.353-1.062c-.043.188-.088.372-.135.549a10.377,10.377,0,0,1,1.287,1.454l-.945.537a.353.353,0,0,0-.149.167l-2.933,6.8a.352.352,0,0,1-.228.2l-1.159.325a.176.176,0,0,0-.122.217l.048.169a.176.176,0,0,0,.217.122l1.4-.393a.352.352,0,0,0,.228-.2l2.963-6.872a.347.347,0,0,1,.149-.166l.817-.465a4.792,4.792,0,0,0,.714.413l-.983,1.147a.346.346,0,0,0-.084.2l-.615,7.388a.35.35,0,0,1-.2.291l-.928.422a.175.175,0,0,0-.087.233l.072.16a.177.177,0,0,0,.233.087l1.209-.55a.352.352,0,0,0,.2-.291l.626-7.526a.359.359,0,0,1,.084-.2l.966-1.127a64.243,64.243,0,0,0,10.58,3.409l.29.171,3.354,7.406a.352.352,0,0,0,.259.2l1.836.326a.176.176,0,0,0,.2-.142l.03-.173a.176.176,0,0,0-.142-.2l-1.562-.278a.351.351,0,0,1-.259-.2l-3.126-6.9q.853.191,1.726.363l3.566,4.063a.353.353,0,0,0,.255.12l1.665.046a.176.176,0,0,0,.181-.171l0-.176a.177.177,0,0,0-.171-.181l-1.436-.04a.35.35,0,0,1-.254-.12l-2.97-3.382a51.891,51.891,0,0,0,5.286.7c1.379.106,2.706.19,3.965.238q-.048.311-.093.62a.472.472,0,0,0,.33.528l.483.12q.091-.217.183-.432Z" transform="translate(-7831.142 -1977.183)" fill="#04782d"/>
      <path id="Trazado_703976" data-name="Trazado 703976" d="M8279.918,1828.164a21.581,21.581,0,0,1,4.208-4.154.21.21,0,0,1,.311.255c-.184.557-.433,1.357-.721,2.343.357-.207.751-.447,1.172-.71a4.167,4.167,0,0,1,.718-1.579c.665-.333.405-1.183.2-1.65a.991.991,0,0,1-.054-.656c.144-.525.289-1.495-.53-1.627a1.151,1.151,0,0,0-1.056.427c-1.1,1.321-4.915,5.824-6.235,6.673-.151.1-.39.255-.7.461.87.08,1.737.165,2.59.251Z" transform="translate(-8237.374 -1802.099)" fill="#04782d"/>
      <path id="Trazado_703977" data-name="Trazado 703977" d="M8369.329,2175.734l-.281-.058c-.085.166-.169.332-.255.5l.393.1a.049.049,0,0,0,.06-.035l.012-.038a.022.022,0,0,1,.02-.017l2.041-.26a.083.083,0,0,0,.073-.094l-.021-.167a.083.083,0,0,0-.094-.073l-1.882.24a.023.023,0,0,1-.025-.031A.051.051,0,0,0,8369.329,2175.734Z" transform="translate(-8323.186 -2135.009)" fill="#04782d"/>
      <path id="Trazado_703978" data-name="Trazado 703978" d="M8390.206,2050.91l-1.179-.458a22.467,22.467,0,0,1-2.462,1.237q-.444.195-.931.353c-.869,1.622-1.782,3.362-2.7,5.128,5.125-.172,8.406-1.406,8.146-5.047A1.408,1.408,0,0,0,8390.206,2050.91Z" transform="translate(-8336.443 -2017.732)" fill="#04782d"/>
      <path id="Trazado_703979" data-name="Trazado 703979" d="M7653.624,1626.12c.019-.02.039-.036.058-.055q-.228-.456-.464-.907a52.671,52.671,0,0,0-3.141-5.108q-1.707-2.463-3.61-4.777c-1.266-1.542-2.578-3.046-3.964-4.482l-.081.079c1.357,1.454,2.641,2.979,3.877,4.539s2.41,3.168,3.513,4.821a52.1,52.1,0,0,1,3.03,5.125q.27.534.525,1.076A3.5,3.5,0,0,1,7653.624,1626.12Z" transform="translate(-7642.421 -1605.676)" fill="#04782d"/>
      <path id="Trazado_703980" data-name="Trazado 703980" d="M7715.093,1540.333a54.089,54.089,0,0,1,1.791,5.746c.234.974.446,1.953.6,2.941.017.106.03.213.046.32a2.231,2.231,0,0,1,.453-.21c-.01-.063-.02-.126-.03-.189-.176-1-.407-1.987-.661-2.966a54.494,54.494,0,0,0-1.9-5.755q-1.1-2.821-2.428-5.543c-.882-1.814-1.814-3.6-2.835-5.343l-.1.057c.987,1.752,1.89,3.554,2.736,5.378S7714.394,1538.449,7715.093,1540.333Z" transform="translate(-7705.787 -1529.333)" fill="#04782d"/>
      <path id="Trazado_703981" data-name="Trazado 703981" d="M8436.27,1979.51c-.626,1.072-1.362,2.385-2.164,3.852q-.347.638-.712,1.312c.065-.026.131-.051.193-.079.754-.33,1.392-.643,1.933-.939C8439.61,1981.412,8437.949,1980.125,8436.27,1979.51Z" transform="translate(-8383.729 -1951.244)" fill="#04782d"/>
      <path id="Trazado_703982" data-name="Trazado 703982" d="M8021.96,1942.437l-.177.283c1.392.564,3.865,1.516,6.819,2.433a17.2,17.2,0,0,1,2.528-1.682c.694-.391,1.5-.808,2.44-1.255q.3-.143.619-.289c1.635-.752,3.345-1.446,4.821-2.01-.676-.066-1.358-.13-2.04-.191-5.262-.473-10.5-.79-12.926-.691,0,.337-.212.933-1.2,2.089C8022.547,1941.539,8022.245,1941.989,8021.96,1942.437Z" transform="translate(-7997.964 -1913.293)" fill="#04782d"/>
      <path id="Trazado_703983" data-name="Trazado 703983" d="M8286.26,1972.533a18.61,18.61,0,0,0,1.992-.149c.408-.818.813-1.6,1.207-2.352.823-1.562,1.6-2.957,2.268-4.123-.684-.106-1.448-.215-2.272-.323-.612.445-1.224.933-1.819,1.462-.386.343-.766.7-1.134,1.08l-.06.061q-.691.7-1.387,1.347a31.8,31.8,0,0,1-3.348,2.714,31.186,31.186,0,0,0,3.747.286C8285.725,1972.54,8285.994,1972.539,8286.26,1972.533Z" transform="translate(-8241.567 -1938.195)" fill="#04782d"/>
      <path id="Trazado_703984" data-name="Trazado 703984" d="M7916.719,1906.636c-.094.449-.181.9-.267,1.349-.072.376-.143.744-.216,1.1.543.465,1.205,1.016,1.553,1.241a7.342,7.342,0,0,0,1.1.551,6.65,6.65,0,0,0,.66.232l.02.006a3.482,3.482,0,0,0,.558.116c.49.055.851-.066.83-.536a5.846,5.846,0,0,1,.942-2.372c.113-.2.228-.388.343-.575l.068-.111c.564-.909,1.091-1.64,1.091-1.64a6.323,6.323,0,0,0,1.043-1.589c.035-.172-.035-.268-.294-.209a1.215,1.215,0,0,1-.4-.008,44.908,44.908,0,0,1-6.481-2.219,6.985,6.985,0,0,1-.235,3.315C7916.918,1905.723,7916.815,1906.177,7916.719,1906.636Z" transform="translate(-7899.044 -1878.575)" fill="#04782d"/>
      <path id="Trazado_703985" data-name="Trazado 703985" d="M7813.719,1867.05c.846-.043,1.3-1.137,1.656-2.625q.059-.248.115-.509c.053-.242.1-.49.153-.745.134-.676.265-1.389.412-2.094.1-.467.2-.93.321-1.376a5.656,5.656,0,0,0,.138-3.351,2.764,2.764,0,0,0-.338-.646c-.633-.9-1.866-1.556-3.892-2.133a1.427,1.427,0,0,0-.953.049,1.7,1.7,0,0,0-.459.286,2.3,2.3,0,0,0-.273.277,3.161,3.161,0,0,0-.3.434,7.881,7.881,0,0,0-.765,4.2C7809.69,1862.353,7812.072,1867.133,7813.719,1867.05Zm-1.727-8.819c0-.088.01-.177.021-.27.007-.057.018-.114.028-.17.206-1.127.979-2.14,1.4-2.087a2.654,2.654,0,0,1,1.473,2.466c-.153,1.193-1.1,1.973-1.547,1.916A1.609,1.609,0,0,1,7811.992,1858.231Z" transform="translate(-7799.026 -1833.157)" fill="#04782d"/>
      <path id="Trazado_703986" data-name="Trazado 703986" d="M8141.152,1851.815a1.279,1.279,0,0,0-1.27.152c-1.1.786-4.107,2.9-6.366,4.266-.4.244-.783.463-1.125.647a7.3,7.3,0,0,1-1.118.515c-.209.067-.551.181-.994.334-.4.14-.889.312-1.436.512-.225.082-.46.17-.7.261a69.7,69.7,0,0,0-7.517,3.274c-.436.229-.856.461-1.253.695a17.111,17.111,0,0,0-1.656,1.093q-.339.258-.619.513a2.444,2.444,0,0,0-1.043,1.83c0,.029.007.057.011.085a1.913,1.913,0,0,0,.531,1.107,2.7,2.7,0,0,0,1.558.718,6.654,6.654,0,0,0,2.609-.209,15.067,15.067,0,0,0,3.875-1.688c.28-.166.564-.343.854-.533a29.014,29.014,0,0,0,3.437-2.674q.905-.813,1.842-1.772c.234-.24.475-.473.72-.7q.579-.542,1.187-1.04.286-.234.577-.459c.255-.2.512-.385.77-.569a22.946,22.946,0,0,1,4.959-2.724.243.243,0,0,1,.273.371c-.424.667-1.025,1.648-1.736,2.868l-.354.61c-.684,1.188-1.452,2.569-2.256,4.091q-.545,1.03-1.107,2.141-.184.364-.369.735c-.737,1.483-1.478,3.051-2.191,4.666q-.2.463-.405.93-.1.228-.194.457-.225.531-.444,1.066a.546.546,0,0,0,.22.675l2.876,1.624a.053.053,0,0,0,.074-.026l.027-.066a.029.029,0,0,1,.031-.018l2.293.323a.088.088,0,0,0,.1-.075l.025-.174a.088.088,0,0,0-.075-.1l-2.136-.3a.03.03,0,0,1-.021-.044l.008-.015a.052.052,0,0,0-.022-.072l-2.809-1.422a.156.156,0,0,1-.051-.2c.089-.176.27-.531.521-1.021l.243-.473c.165-.32.35-.68.552-1.072.7-1.357,1.606-3.094,2.566-4.9l.428-.8c.308-.575.619-1.151.928-1.719.78-1.433,1.548-2.812,2.23-3.978q.18-.307.351-.593c.946-1.583,1.679-2.653,1.96-2.71.816-.166.761-1.171.659-1.743a1.107,1.107,0,0,1,.118-.732C8141.591,1853.219,8142.011,1852.2,8141.152,1851.815Z" transform="translate(-8086.31 -1831.469)" fill="#04782d"/>
    </g>
    <g id="Grupo_916385" data-name="Grupo 916385" transform="translate(7336.734 208.205)">
      <path id="Trazado_703987" data-name="Trazado 703987" d="M7780.446,1042.174c-.076-1.794.682-2.8,1.707-2.975l.022,0h0c.064-.258.14-.519.224-.785a3.1,3.1,0,0,1,1.858-1.95,1.189,1.189,0,0,1,.653-.038,2.459,2.459,0,0,1,1.518-1.058,1.052,1.052,0,0,1,.9.191,1.983,1.983,0,0,1,1.409-.856,1.168,1.168,0,0,1,.972.333l.009-.015a1.708,1.708,0,0,1,1.489-.876,1.424,1.424,0,0,1,.5.1,1.322,1.322,0,0,1,.519.369,1.51,1.51,0,0,1,.948-.525,1.48,1.48,0,0,1,.386,0,1.549,1.549,0,0,1,1.132.756,1.97,1.97,0,0,1,.372-.355,1.376,1.376,0,0,1,1.451-.194,1.76,1.76,0,0,1,.8.7.267.267,0,0,1,.031-.024,1.377,1.377,0,0,1,1.526-.039,2.24,2.24,0,0,1,.836.882,1.486,1.486,0,0,1,1.334.259,2.865,2.865,0,0,1,.937,1.175,1.87,1.87,0,0,1,.983.444,3.55,3.55,0,0,1,.885,1.128,2.135,2.135,0,0,1,1.053.573,4.558,4.558,0,0,1,1.094,1.648,3.028,3.028,0,0,1,.823.852,6.359,6.359,0,0,1,.866,2.084,5.759,5.759,0,0,1,.117,2.186,1.873,1.873,0,0,1-.963,1.493,1.538,1.538,0,0,1-.8.124,3.115,3.115,0,0,1-1.175-.392,5.148,5.148,0,0,1-.828-.566c-.067-.02-.133-.043-.2-.07a2.8,2.8,0,0,1-.708-.418,1.51,1.51,0,0,1-.841.165,1.7,1.7,0,0,1-.621-.182,2.332,2.332,0,0,1-.575-.4,1.53,1.53,0,0,1-.441.213,1.389,1.389,0,0,1-.517.049,1.454,1.454,0,0,1-.613-.2,1.887,1.887,0,0,1-.552-.484,1.609,1.609,0,0,1-.706.444,1.307,1.307,0,0,1-.489.049,1.334,1.334,0,0,1-.607-.214,1.881,1.881,0,0,1-.63-.692,1.678,1.678,0,0,1-.75.492,1.309,1.309,0,0,1-.491.05,1.289,1.289,0,0,1-.595-.212,1.659,1.659,0,0,1-.387-.353,1.5,1.5,0,0,1-.542.347,1.225,1.225,0,0,1-1.03-.086,1.675,1.675,0,0,1-.589-.548,1.478,1.478,0,0,1-.6.406,1.219,1.219,0,0,1-.519.066,1.237,1.237,0,0,1-.474-.142,1.569,1.569,0,0,1-.54-.457s0,0,0,.008a1.418,1.418,0,0,1-1.379.847,1.347,1.347,0,0,1-.461-.129,1.663,1.663,0,0,1-.667-.589c-.015.026-.03.051-.047.077a1.348,1.348,0,0,1-1.266.593,1.505,1.505,0,0,1-.487-.129,1.376,1.376,0,0,1-.2-.108,3.043,3.043,0,0,1-.273.369,1.077,1.077,0,0,1-.462.3,1.479,1.479,0,0,1-.614.065l-.073-.008a1.942,1.942,0,0,1-.844-.326c-.021-.015-.043-.031-.064-.047h0a.737.737,0,0,1-1.128-.084A6.236,6.236,0,0,1,7780.446,1042.174Z" transform="translate(-7780.372 -1034.073)" fill="#fff5e8"/>
      <path id="Trazado_703988" data-name="Trazado 703988" d="M7806.811,1041.888a3.023,3.023,0,0,0-.824-.852,4.55,4.55,0,0,0-1.093-1.648,2.135,2.135,0,0,0-1.053-.573,3.551,3.551,0,0,0-.885-1.128,1.872,1.872,0,0,0-.983-.444,2.865,2.865,0,0,0-.937-1.175,1.486,1.486,0,0,0-1.334-.259,2.24,2.24,0,0,0-.836-.882,1.377,1.377,0,0,0-1.526.039.279.279,0,0,0-.031.024,1.76,1.76,0,0,0-.8-.7,1.376,1.376,0,0,0-1.451.195,1.963,1.963,0,0,0-.372.355,1.548,1.548,0,0,0-1.132-.756,1.486,1.486,0,0,0-.386,0,1.51,1.51,0,0,0-.948.525,1.322,1.322,0,0,0-.519-.369,1.425,1.425,0,0,0-.5-.1,1.709,1.709,0,0,0-1.489.876l-.009.015a1.168,1.168,0,0,0-.972-.334,1.983,1.983,0,0,0-1.409.856,1.052,1.052,0,0,0-.9-.191,2.459,2.459,0,0,0-1.518,1.058,1.19,1.19,0,0,0-.653.038,3.1,3.1,0,0,0-1.858,1.95c-.084.266-.16.527-.224.785h0l-.022,0c-1.025.177-1.783,1.182-1.707,2.976a6.236,6.236,0,0,0,1.6,3.308.737.737,0,0,0,1.128.084h0l.064.047a1.942,1.942,0,0,0,.844.326l.073.008a1.479,1.479,0,0,0,.614-.065,1.075,1.075,0,0,0,.462-.3,3.052,3.052,0,0,0,.273-.369,1.375,1.375,0,0,0,.2.108,1.5,1.5,0,0,0,.487.13,1.348,1.348,0,0,0,1.266-.593c.018-.025.033-.051.047-.077a1.663,1.663,0,0,0,.667.589,1.347,1.347,0,0,0,.461.129,1.417,1.417,0,0,0,1.379-.847s0-.005,0-.008a1.572,1.572,0,0,0,.54.457,1.242,1.242,0,0,0,.474.142,1.217,1.217,0,0,0,.519-.066,1.478,1.478,0,0,0,.6-.406,1.676,1.676,0,0,0,.589.548,1.225,1.225,0,0,0,1.03.086,1.508,1.508,0,0,0,.542-.347,1.659,1.659,0,0,0,.387.352,1.291,1.291,0,0,0,.595.212,1.311,1.311,0,0,0,.491-.05,1.678,1.678,0,0,0,.75-.492,1.882,1.882,0,0,0,.63.693,1.335,1.335,0,0,0,.607.214,1.3,1.3,0,0,0,.489-.049,1.606,1.606,0,0,0,.706-.444,1.881,1.881,0,0,0,.552.484,1.452,1.452,0,0,0,.613.2,1.391,1.391,0,0,0,.517-.048,1.537,1.537,0,0,0,.441-.213,2.336,2.336,0,0,0,.575.4,1.7,1.7,0,0,0,.621.181,1.509,1.509,0,0,0,.841-.164,2.8,2.8,0,0,0,.708.418c.067.026.133.05.2.07a5.156,5.156,0,0,0,.828.566,3.115,3.115,0,0,0,1.175.392,1.539,1.539,0,0,0,.8-.124,1.874,1.874,0,0,0,.963-1.493,5.758,5.758,0,0,0-.117-2.186A6.359,6.359,0,0,0,7806.811,1041.888Zm-21.712,2.971a2.463,2.463,0,0,1-.267.371.769.769,0,0,1-.678.184,1.467,1.467,0,0,1-.614-.238l-.051-.036h0l.063-.1a7.43,7.43,0,0,0,.916-1.938,3.519,3.519,0,0,0,.145-1.1,3.869,3.869,0,0,0-.5-1.884,1.873,1.873,0,0,0-1.382-.931c.052-.2.112-.406.177-.613a2.57,2.57,0,0,1,1.512-1.6.885.885,0,0,1,.229-.045.441.441,0,0,1,.068,0,.244.244,0,0,1,.117.038,1.16,1.16,0,0,1,.25.278,6.333,6.333,0,0,1,.727,2.6,10.181,10.181,0,0,1-.443,4.472A3.534,3.534,0,0,1,7785.1,1044.859Zm2.124-.66a3.027,3.027,0,0,1-.207.363.853.853,0,0,1-1.092.271,1.037,1.037,0,0,1-.162-.092,10.3,10.3,0,0,0,.575-4.95,6.283,6.283,0,0,0-.986-3.068,1.933,1.933,0,0,1,1.173-.834.809.809,0,0,1,.227-.012.377.377,0,0,1,.259.111c.014.016.029.033.043.052a2.371,2.371,0,0,1,.333.572,11.969,11.969,0,0,1,.188,6.655A5.128,5.128,0,0,1,7787.223,1044.2Zm2.475-.143c-.05.125-.1.243-.159.355a.845.845,0,0,1-1.138.474,1.3,1.3,0,0,1-.6-.667c1.028-2.337.848-6.524-.132-8.212a1.5,1.5,0,0,1,1.109-.775.842.842,0,0,1,.158,0,.575.575,0,0,1,.442.243c.015.023.031.047.044.071a3.823,3.823,0,0,1,.325.688,13.872,13.872,0,0,1,.291,6.679A7.11,7.11,0,0,1,7789.7,1044.056Zm2.313-.047a1.428,1.428,0,0,1-.125.232,1.055,1.055,0,0,1-.513.43.7.7,0,0,1-.573-.046,1.249,1.249,0,0,1-.53-.584c.873-2.425.764-6.552-.246-8.516.042-.074.085-.144.132-.209l.014-.02a1.174,1.174,0,0,1,1.022-.621c.023,0,.045,0,.066,0a.835.835,0,0,1,.35.107.789.789,0,0,1,.28.27.423.423,0,0,1,.039.064,4.722,4.722,0,0,1,.247.565,8.489,8.489,0,0,1,.383,1.478,14.49,14.49,0,0,1-.285,6.129A6.829,6.829,0,0,1,7792.011,1044.009Zm2.012.571a1.033,1.033,0,0,1-.438.323.7.7,0,0,1-.593-.052,1.257,1.257,0,0,1-.516-.579c.008-.017.016-.034.023-.05a14.292,14.292,0,0,0,.308-8.31,6.313,6.313,0,0,0-.3-.812c.021-.027.043-.052.066-.077l.016-.021a1.015,1.015,0,0,1,.467-.346.921.921,0,0,1,.392-.048.23.23,0,0,1,.04,0,1.051,1.051,0,0,1,.827.662c.015.036.03.073.042.108a7.336,7.336,0,0,1,.292.919,14.784,14.784,0,0,1-.269,7.579c-.027.077-.056.152-.083.225A1.606,1.606,0,0,1,7794.022,1044.58Zm2.417-.349a1.7,1.7,0,0,1-.138.267,1.248,1.248,0,0,1-.675.562.737.737,0,0,1-.64-.1,1.2,1.2,0,0,1-.342-.349,2.367,2.367,0,0,0,.15-.315,14.7,14.7,0,0,0,.144-8.887,1.576,1.576,0,0,1,.438-.5l.018-.013a.829.829,0,0,1,.612-.2,1.02,1.02,0,0,1,.294.076,1.294,1.294,0,0,1,.618.607,1.476,1.476,0,0,1,.116.29c.037.128.07.26.1.4a13.618,13.618,0,0,1,.25,3.922,14.725,14.725,0,0,1-.627,3.376C7796.66,1043.672,7796.555,1043.961,7796.439,1044.231Zm2.439.433a1.765,1.765,0,0,1-.207.347,1.118,1.118,0,0,1-.565.414.772.772,0,0,1-.659-.1,1.477,1.477,0,0,1-.571-.77c.02-.037.037-.076.054-.115a14.189,14.189,0,0,0,.985-4.408,13.59,13.59,0,0,0-.369-4.5c0-.014-.008-.026-.013-.04a.861.861,0,0,1,.111-.089l.005,0a.775.775,0,0,1,.534-.15,1.052,1.052,0,0,1,.418.14,1.709,1.709,0,0,1,.642.69,2.15,2.15,0,0,1,.168.423c.013.047.024.094.037.14a13.1,13.1,0,0,1,.31,4.038,12.391,12.391,0,0,1-.751,3.677C7798.966,1044.463,7798.923,1044.565,7798.878,1044.664Zm2.238.452a1.263,1.263,0,0,1-.381.392.95.95,0,0,1-.239.107.9.9,0,0,1-.715-.1,1.434,1.434,0,0,1-.494-.48,1.526,1.526,0,0,0,.076-.152,10.263,10.263,0,0,0,.695-2.3,15.283,15.283,0,0,0,.231-1.872c.028-.435.039-.868.033-1.289a12.2,12.2,0,0,0-.4-3.067.51.51,0,0,0-.018-.055,1.013,1.013,0,0,1,.823.2,2.262,2.262,0,0,1,.685.8,2.765,2.765,0,0,1,.2.486.033.033,0,0,1,0,.009,11.36,11.36,0,0,1,.365,3.743c0,.07-.008.138-.013.208-.016.113-.031.229-.045.348-.021.173-.037.344-.044.515a7.6,7.6,0,0,1-.685,2.368C7801.168,1045.031,7801.142,1045.075,7801.116,1045.116Zm2.068.494c-.007.009-.015.017-.022.025a.97.97,0,0,1-.455.292,1.12,1.12,0,0,1-.812-.088,1.816,1.816,0,0,1-.429-.293,2.081,2.081,0,0,0,.2-.315,6.133,6.133,0,0,0,.356-.861,9.555,9.555,0,0,0,.387-1.7c.042-.311.071-.608.09-.88,0-.072.009-.141.013-.209a14.241,14.241,0,0,0-.03-1.966,10.209,10.209,0,0,0-.3-1.773,1.6,1.6,0,0,1,.44.262,2.908,2.908,0,0,1,.628.74,3.43,3.43,0,0,1,.247.494c.028.067.052.136.075.2a8.487,8.487,0,0,1,.381,2.062,10.007,10.007,0,0,1,.018,1.036c0,.027,0,.055,0,.081a6.874,6.874,0,0,1-.4,2.181,3.5,3.5,0,0,1-.277.565A1.181,1.181,0,0,1,7803.184,1045.609Zm.844.646a2.212,2.212,0,0,1-.474-.265,1.61,1.61,0,0,0,.187-.247c.015-.022.027-.044.04-.067a6.555,6.555,0,0,0,.716-2.938c.013-.326.011-.653-.005-.975q-.017-.354-.057-.7a8.748,8.748,0,0,0-.332-1.6,2.016,2.016,0,0,1,.43.312,3.888,3.888,0,0,1,.739.981,4.337,4.337,0,0,1,.271.6c0,.013.008.025.014.037a7.484,7.484,0,0,1,.415,2.566,3.437,3.437,0,0,1-.559,2.054,1.057,1.057,0,0,1-1.129.316A1.747,1.747,0,0,1,7804.028,1046.255Zm3.131-2.162a5.235,5.235,0,0,1,.11,1.977,1.427,1.427,0,0,1-.662,1.1,1.816,1.816,0,0,1-1.5-.254l-.084-.048a1.462,1.462,0,0,0,.8-.516,3.948,3.948,0,0,0,.673-2.374,8,8,0,0,0-.194-1.876c.021.029.042.057.061.086A5.865,5.865,0,0,1,7807.159,1044.093Z" transform="translate(-7780.372 -1034.073)" fill="#cfb089"/>
      <path id="Trazado_703989" data-name="Trazado 703989" d="M7783.584,1117.34a7.786,7.786,0,0,1-.92,2.045q-.136.223-.266.412l-.038.055a.777.777,0,0,1-1.262.024,6.531,6.531,0,0,1-1.74-3.429c-.114-1.875.659-2.941,1.728-3.146a2.029,2.029,0,0,1,.267-.034,1.949,1.949,0,0,1,1.8.956,4.065,4.065,0,0,1,.563,1.961A3.713,3.713,0,0,1,7783.584,1117.34Z" transform="translate(-7779.347 -1108.291)" fill="#665643"/>
    </g>
    <g id="Grupo_916386" data-name="Grupo 916386" transform="translate(7368.843 198.028)">
      <path id="Trazado_703990" data-name="Trazado 703990" d="M8296.406,939.745c2.523.462,2.572-.507,3.84-1.3a2.778,2.778,0,0,0,1.085-2.087.748.748,0,0,0-.817-.789c-5.4.007-7.539,1.78-8.672,3.048a3.789,3.789,0,0,0-1.1,2.156c.137.057.693-.981,1.52-1.588a4.554,4.554,0,0,1,3.316-.859c.365.052.508.156-.284.364a3.605,3.605,0,0,0-2.473,2.624c-.04.122-.132.445-.04.5C8293.024,941.949,8293.883,939.283,8296.406,939.745Z" transform="translate(-8290.724 -931.575)" fill="#6e7d96"/>
      <path id="Trazado_703991" data-name="Trazado 703991" d="M8469.125,933.868c-.295,2.251,2.968,3.516,3.744,3.521.659.014.331-2.508-.912-3.416C8471.336,933.518,8469.363,932.039,8469.125,933.868Z" transform="translate(-8457.906 -929.148)" fill="#6e7d96"/>
      <path id="Trazado_703992" data-name="Trazado 703992" d="M8301.331,1233.525a2.778,2.778,0,0,0-1.085-2.087c-1.268-.8-1.316-1.765-3.84-1.3s-3.382-2.2-3.625-2.065c-.092.053,0,.375.04.5a3.605,3.605,0,0,0,2.473,2.624c.792.208.649.312.284.364a4.554,4.554,0,0,1-3.316-.859c-.826-.607-1.383-1.645-1.52-1.588a3.79,3.79,0,0,0,1.1,2.156c1.133,1.268,3.269,3.041,8.672,3.048A.748.748,0,0,0,8301.331,1233.525Z" transform="translate(-8290.724 -1205.708)" fill="#6e7d96"/>
      <path id="Trazado_703993" data-name="Trazado 703993" d="M8472.869,1259.905c-.776,0-4.039,1.27-3.744,3.521.238,1.829,2.211.349,2.832-.1C8473.2,1262.414,8473.528,1259.891,8472.869,1259.905Z" transform="translate(-8457.906 -1235.549)" fill="#6e7d96"/>
      <path id="Trazado_703994" data-name="Trazado 703994" d="M8870.656,1002.867c.057.331.854.5,1.584.38s1.118-.5,1.062-.832-.535-.49-1.267-.365S8870.6,1002.537,8870.656,1002.867Z" transform="translate(-8834.241 -993.844)" fill="#6e7d96"/>
      <path id="Trazado_703995" data-name="Trazado 703995" d="M8922.181,1009.712c-.158.309.157,1.14.873,1.506a1.452,1.452,0,0,0,1.719-.18c.158-.309-.294-.857-1.01-1.223S8922.339,1009.4,8922.181,1009.712Z" transform="translate(-8882.495 -1000.873)" fill="#6e7d96"/>
      <path id="Trazado_703996" data-name="Trazado 703996" d="M8962.979,1038.853a1.858,1.858,0,0,0,1.58,1.264c.3-.081.355-.915.124-1.765s-.614-1.634-.915-1.552A2.182,2.182,0,0,0,8962.979,1038.853Z" transform="translate(-8920.727 -1026.446)" fill="#6e7d96"/>
      <path id="Trazado_703997" data-name="Trazado 703997" d="M8944.584,1097.246a1.634,1.634,0,0,0,0,2.053c.285.228,1.094-.141,1.738-.948s.553-1.446.269-1.674A1.719,1.719,0,0,0,8944.584,1097.246Z" transform="translate(-8903.191 -1082.445)" fill="#6e7d96"/>
      <path id="Trazado_703998" data-name="Trazado 703998" d="M8803.984,1009.778c.778-.1,1.421-.512,1.421-.948s-.9-1.219-1.421-.632c-1.264,1.422-2.37.474-2.37.474A3.2,3.2,0,0,0,8803.984,1009.778Z" transform="translate(-8769.536 -999.45)" fill="#6e7d96"/>
      <path id="Trazado_703999" data-name="Trazado 703999" d="M8883.541,1108.076c-.973,0-1.291.661-1.291,1.475s.318,1.476,1.291,1.476,2.228-.661,2.228-1.476S8884.512,1108.076,8883.541,1108.076Z" transform="translate(-8845.109 -1093.253)" fill="#6e7d96"/>
      <path id="Trazado_704000" data-name="Trazado 704000" d="M8473.1,872.735a2.8,2.8,0,0,0-.32,1.008c-.156.142-.025.695.527,1.329a4.9,4.9,0,0,0,1.174,1.028,1.837,1.837,0,0,0-.3,1.684c.252,1.129.621,1.641,1.148,1.806a4.01,4.01,0,0,0-1.34,1.1c-.758.894-1.456,2-1.3,2.464-.314.064-.707.389-1.1,1.209-.075.155-.146.3-.212.445a3,3,0,0,0-.7.026c.209-.76.24-1.219.1-1.416a9,9,0,0,0,.922-1.575c.556-.93,1.057-1.86.891-2.054.193-.234-.1-.829-.4-1.589-.295-.744-.568-1.167-.842-1.295.1-.235-.443-.489-.966-.917a5.119,5.119,0,0,0-1.157-.8,6.733,6.733,0,0,0,.191-.716c.123-.449.229-.887.152-.894s-.256.265-.379.714a2.444,2.444,0,0,0-.131.917c-.113.146.078.6.646,1.069a4.251,4.251,0,0,0,1.159.718,1.61,1.61,0,0,0-.014,1.5c.38.938.771,1.326,1.251,1.393a3.505,3.505,0,0,0-1,1.138c-.525.88-.969,1.934-.765,2.312-.263.1-.555.437-.778,1.2-.068.232-.131.449-.182.648-.135-.032-.268-.06-.4-.087.2-.7.237-1.119.109-1.294a7.708,7.708,0,0,0,.778-1.328c.467-.784.889-1.568.75-1.732.162-.2-.089-.7-.343-1.34s-.478-.984-.709-1.092c.087-.2-.374-.412-.813-.774a4.363,4.363,0,0,0-.977-.674,5.306,5.306,0,0,0,.161-.6c.1-.379.194-.748.128-.754s-.215.223-.318.6a2.053,2.053,0,0,0-.11.773c-.1.123.065.508.544.9a3.6,3.6,0,0,0,.979.605,1.355,1.355,0,0,0-.013,1.261c.319.791.651,1.118,1.055,1.175a2.971,2.971,0,0,0-.843.959c-.442.742-.816,1.63-.645,1.949-.221.084-.467.368-.656,1.013-.02.066-.037.13-.057.193-.184-.022-.363-.038-.537-.049.127-.49.142-.791.045-.924a6.647,6.647,0,0,0,.664-1.135c.4-.671.761-1.341.643-1.481.139-.169-.076-.6-.293-1.146s-.408-.841-.605-.934c.072-.17-.321-.352-.7-.662a3.67,3.67,0,0,0-.835-.576,4.814,4.814,0,0,0,.138-.517c.09-.324.166-.64.11-.645s-.185.191-.272.515a1.733,1.733,0,0,0-.095.661c-.082.105.056.434.466.771a3.033,3.033,0,0,0,.836.518,1.158,1.158,0,0,0-.012,1.078c.275.677.559.957.9,1a2.537,2.537,0,0,0-.723.821c-.378.634-.7,1.394-.55,1.667-.189.072-.4.315-.562.866-.011.035-.021.07-.031.1a5.838,5.838,0,0,0-2.582.645c-.215-.034-.45-.066-.684-.087-.736-.066-.605-.408-.605-.408,1.758-.461,2.744-3.534,2.285-4.04-.246-.27-1.1-.7-1.48-.531-1.2.533-2.576,3.129-2.2,4.313-1.268,2.012.287,2.04.955,1.972-.6.33-1.5.847-1.328.9l.83.247s-.359.282-.359.42.359.419.359.419l-.83.247c-.168.05.729.567,1.328.9-.668-.068-2.223-.04-.955,1.972-.379,1.184,1,3.78,2.2,4.313.385.171,1.234-.261,1.48-.531.459-.506-.527-3.579-2.285-4.04,0,0-.131-.342.605-.408.233-.021.469-.053.684-.087a5.839,5.839,0,0,0,2.582.645c.01.034.021.069.031.1.161.551.372.794.562.866-.147.273.172,1.033.55,1.667a2.537,2.537,0,0,0,.723.821c-.346.048-.629.327-.9,1a1.159,1.159,0,0,0,.012,1.078,3.032,3.032,0,0,0-.836.518c-.41.337-.548.666-.466.771a1.733,1.733,0,0,0,.095.661c.088.324.217.519.272.515s-.021-.321-.11-.645a4.824,4.824,0,0,0-.138-.517,3.667,3.667,0,0,0,.835-.576c.376-.309.77-.492.7-.662.2-.092.393-.4.605-.934s.432-.977.293-1.146c.118-.14-.242-.81-.643-1.481a6.644,6.644,0,0,0-.664-1.135c.1-.133.082-.434-.045-.924.174-.011.354-.028.537-.049.02.063.037.127.057.193.189.644.436.928.656,1.013-.172.319.2,1.207.645,1.949a2.971,2.971,0,0,0,.843.96c-.4.056-.735.384-1.055,1.174a1.355,1.355,0,0,0,.013,1.261,3.606,3.606,0,0,0-.979.605c-.479.394-.641.778-.544.9a2.052,2.052,0,0,0,.11.773c.1.379.254.607.318.6s-.023-.375-.128-.754a5.3,5.3,0,0,0-.161-.6,4.367,4.367,0,0,0,.977-.674c.439-.361.9-.575.813-.774.231-.108.462-.465.709-1.092s.5-1.142.343-1.34c.139-.164-.283-.947-.75-1.732a7.71,7.71,0,0,0-.778-1.328c.128-.174.091-.593-.109-1.293.13-.026.263-.055.4-.087.051.2.113.417.182.649.224.764.516,1.1.778,1.2-.2.378.239,1.432.765,2.312a3.506,3.506,0,0,0,1,1.138c-.479.067-.871.455-1.251,1.393a1.61,1.61,0,0,0,.014,1.5,4.253,4.253,0,0,0-1.159.718c-.567.467-.759.923-.646,1.069a2.444,2.444,0,0,0,.131.916c.123.449.3.72.379.714s-.029-.445-.152-.894a6.733,6.733,0,0,0-.191-.716,5.12,5.12,0,0,0,1.157-.8c.522-.429,1.068-.682.966-.917.273-.128.547-.551.842-1.295.3-.76.6-1.355.4-1.589.166-.194-.335-1.123-.891-2.054a9,9,0,0,0-.922-1.575c.145-.2.113-.656-.1-1.416a3,3,0,0,0,.7.026c.065.142.137.291.212.445.4.82.789,1.145,1.1,1.209-.159.465.539,1.57,1.3,2.464a4.011,4.011,0,0,0,1.34,1.1c-.527.165-.9.677-1.148,1.806a1.837,1.837,0,0,0,.3,1.684,4.9,4.9,0,0,0-1.174,1.028c-.553.634-.684,1.187-.527,1.329a2.805,2.805,0,0,0,.32,1.008c.223.484.475.756.561.734s-.115-.5-.34-.98a7.078,7.078,0,0,0-.35-.772,5.846,5.846,0,0,0,1.155-1.119c.507-.581,1.077-.97.917-1.216a2.737,2.737,0,0,0,.705-1.619c.2-.914.422-1.641.16-1.868.148-.25-.59-1.2-1.391-2.15a10.32,10.32,0,0,0-1.336-1.6c.125-.247.006-.751-.363-1.555a3.152,3.152,0,0,0,.953.326l.1.1c.733.72,1.276.916,1.635.864.008.555,1.171,1.464,2.316,2.126a4.541,4.541,0,0,0,1.844.654c-.5.377-.7,1.062-.534,2.358a2.074,2.074,0,0,0,.958,1.677,5.484,5.484,0,0,0-.855,1.54c-.348.885-.275,1.522-.055,1.614a3.185,3.185,0,0,0,.724.949c.423.429.794.622.877.566s-.313-.483-.735-.912a8.4,8.4,0,0,0-.666-.688,6.606,6.606,0,0,0,.8-1.63c.318-.812.774-1.442.512-1.643a3.111,3.111,0,0,0,.133-1.99c-.14-1.046-.178-1.9-.544-2.047.065-.323-1.085-1.056-2.3-1.756a11.683,11.683,0,0,0-2.032-1.2,1.017,1.017,0,0,0-.233-.637,1.814,1.814,0,0,0,.574-.288,53550.008,53550.008,0,0,1,6.81-.681s3.632-.113,3.632-2.724-3.632-2.724-3.632-2.724a120480.32,120480.32,0,0,1-6.81-.681,1.813,1.813,0,0,0-.574-.288,1.017,1.017,0,0,0,.233-.637,11.683,11.683,0,0,0,2.032-1.2c1.211-.7,2.361-1.433,2.3-1.756.366-.142.4-1,.544-2.047a3.111,3.111,0,0,0-.133-1.99c.263-.2-.193-.831-.512-1.643a6.606,6.606,0,0,0-.8-1.63,8.391,8.391,0,0,0,.666-.688c.422-.429.818-.856.735-.912s-.454.138-.877.566a3.183,3.183,0,0,0-.724.949c-.221.092-.293.729.055,1.614a5.484,5.484,0,0,0,.855,1.54,2.074,2.074,0,0,0-.958,1.677c-.162,1.3.036,1.981.534,2.358a4.544,4.544,0,0,0-1.844.655c-1.146.662-2.309,1.571-2.316,2.126-.358-.052-.9.144-1.635.864l-.1.1a3.153,3.153,0,0,0-.953.326c.369-.8.488-1.308.363-1.555a10.316,10.316,0,0,0,1.336-1.6c.8-.945,1.539-1.9,1.391-2.15.262-.227.037-.954-.16-1.868a2.738,2.738,0,0,0-.705-1.619c.16-.246-.41-.635-.917-1.216a5.846,5.846,0,0,0-1.155-1.119,7.072,7.072,0,0,0,.35-.772c.225-.484.426-.958.34-.98S8473.326,872.251,8473.1,872.735Z" transform="translate(-8450.168 -872)" fill="#6e7d96"/>
    </g>
    <g id="Grupo_916390" data-name="Grupo 916390" transform="translate(7307.082 303.163)">
      <g id="Grupo_916387" data-name="Grupo 916387" transform="translate(7.105)">
        <path id="Trazado_704001" data-name="Trazado 704001" d="M7663.654,2564.444a.218.218,0,0,0,.163-.328,6,6,0,0,0-.437-.627,4.478,4.478,0,0,0-.97-.875.219.219,0,0,0-.241,0,6.223,6.223,0,0,0-1.562,1.339.219.219,0,0,0,.085.336,3.331,3.331,0,0,1,.942.539.216.216,0,0,0,.225.044c.117-.045.238-.087.364-.126A7.877,7.877,0,0,1,7663.654,2564.444Z" transform="translate(-7645.47 -2561.561)" fill="#d15f2a"/>
        <path id="Trazado_704002" data-name="Trazado 704002" d="M7431.475,2788.59a11.665,11.665,0,0,0-1.514,2.412.218.218,0,0,0,.209.308,8.016,8.016,0,0,1,2.681.379.217.217,0,0,0,.248-.093,13.6,13.6,0,0,1,1.1-1.51.219.219,0,0,0-.033-.311,6.327,6.327,0,0,0-2.481-1.262A.217.217,0,0,0,7431.475,2788.59Z" transform="translate(-7429.332 -2773.308)" fill="#d15f2a"/>
        <path id="Trazado_704003" data-name="Trazado 704003" d="M7634.182,2548.412a1.335,1.335,0,0,0,.2.215.218.218,0,0,0,.319-.037,5.967,5.967,0,0,1,1.361-1.31.219.219,0,0,0-.037-.376C7634.282,2546.1,7632.507,2546.167,7634.182,2548.412Z" transform="translate(-7620.119 -2546.437)" fill="#d15f2a"/>
        <path id="Trazado_704004" data-name="Trazado 704004" d="M7509.692,2716.192a7.988,7.988,0,0,1,1.945,1.558.219.219,0,0,0,.284.03c.662-.457,1.352-.877,2.056-1.276a.218.218,0,0,0,.073-.313,6.551,6.551,0,0,0-1.773-1.817.218.218,0,0,0-.225-.007c-.813.454-1.612.929-2.379,1.453A.219.219,0,0,0,7509.692,2716.192Z" transform="translate(-7503.968 -2703.797)" fill="#d15f2a"/>
        <path id="Trazado_704005" data-name="Trazado 704005" d="M7420.36,2845.147a.219.219,0,0,0,.333.133,5.361,5.361,0,0,1,.881-.463,7.942,7.942,0,0,1,1.412-.43.217.217,0,0,0,.171-.188,4.11,4.11,0,0,1,.368-1.262.218.218,0,0,0-.14-.3,6.866,6.866,0,0,0-2.748-.245.22.22,0,0,0-.178.158A5.1,5.1,0,0,0,7420.36,2845.147Z" transform="translate(-7420.236 -2823.761)" fill="#d15f2a"/>
        <path id="Trazado_704006" data-name="Trazado 704006" d="M7467.567,2748.166a.219.219,0,0,0-.218.029c-.389.3-.768.62-1.132.962-.241.227-.487.474-.731.736a.218.218,0,0,0,.092.356,7.387,7.387,0,0,1,2.256,1.276.218.218,0,0,0,.294-.02,13.87,13.87,0,0,1,1.595-1.44.218.218,0,0,0,.023-.323A6.87,6.87,0,0,0,7467.567,2748.166Z" transform="translate(-7462.59 -2735.484)" fill="#d15f2a"/>
        <path id="Trazado_704007" data-name="Trazado 704007" d="M7428.04,2885.065a.219.219,0,0,0-.063.278c.064.124.136.247.215.369a5.275,5.275,0,0,0,1.339,1.263.218.218,0,0,0,.294-.042c.092-.114.191-.228.3-.341a7.919,7.919,0,0,1,1.128-.963.218.218,0,0,0,0-.356,1.957,1.957,0,0,1-.773-.983.218.218,0,0,0-.254-.142,7.2,7.2,0,0,0-1.2.373A4.751,4.751,0,0,0,7428.04,2885.065Z" transform="translate(-7427.467 -2862.938)" fill="#d15f2a"/>
        <path id="Trazado_704008" data-name="Trazado 704008" d="M7465.463,2910.959a.219.219,0,0,0,.064.335,4.486,4.486,0,0,0,2.113.635c2.468-.116,2.569-1.858.661-2.186a6.844,6.844,0,0,1-.939-.226.217.217,0,0,0-.181.022,7.872,7.872,0,0,0-1.538,1.219Q7465.548,2910.859,7465.463,2910.959Z" transform="translate(-7462.574 -2886.711)" fill="#d15f2a"/>
        <path id="Trazado_704009" data-name="Trazado 704009" d="M7565.132,2688.466c-.66.366-1.329.721-1.993,1.081a.219.219,0,0,0-.031.364,7.563,7.563,0,0,1,1.567,1.753.219.219,0,0,0,.286.071c.723-.392,1.454-.773,2.176-1.164a.22.22,0,0,0,.072-.321,6.212,6.212,0,0,0-1.864-1.783A.218.218,0,0,0,7565.132,2688.466Z" transform="translate(-7554.059 -2679.522)" fill="#d15f2a"/>
        <path id="Trazado_704010" data-name="Trazado 704010" d="M7681.9,2601.185c-.066.021-.13.042-.192.064a.22.22,0,0,0-.14.252,1.7,1.7,0,0,1,.033.263,1.44,1.44,0,0,1-.2.763.217.217,0,0,0,.118.309,5.478,5.478,0,0,1,.509.208,7.92,7.92,0,0,1,1.267.758.218.218,0,0,0,.328-.09,3.783,3.783,0,0,0,.164-2.68.218.218,0,0,0-.225-.151A7.606,7.606,0,0,0,7681.9,2601.185Z" transform="translate(-7664.98 -2597.462)" fill="#d15f2a"/>
        <path id="Trazado_704011" data-name="Trazado 704011" d="M7654.642,2638.974a4.9,4.9,0,0,0-.807-.3.216.216,0,0,0-.207.053,8.74,8.74,0,0,1-1.12.887.219.219,0,0,0,.013.368c.11.064.221.134.332.211a8.292,8.292,0,0,1,1.46,1.318.219.219,0,0,0,.308.02,8.12,8.12,0,0,0,1.345-1.482.218.218,0,0,0-.05-.3A7.42,7.42,0,0,0,7654.642,2638.974Z" transform="translate(-7637.835 -2632.875)" fill="#d15f2a"/>
        <path id="Trazado_704012" data-name="Trazado 704012" d="M7612.661,2663.123a.218.218,0,0,0-.205.014c-.149.092-.283.176-.393.248-.41.269-.828.524-1.251.771a.218.218,0,0,0-.018.365,7.331,7.331,0,0,1,1.642,1.74.218.218,0,0,0,.287.066c.431-.244.856-.493,1.272-.755.246-.155.491-.321.732-.5a.218.218,0,0,0,.034-.322,7.692,7.692,0,0,0-1.323-1.188A4.9,4.9,0,0,0,7612.661,2663.123Z" transform="translate(-7598.745 -2655.778)" fill="#d15f2a"/>
      </g>
      <g id="Grupo_916388" data-name="Grupo 916388" transform="translate(0 2.561)">
        <path id="Trazado_704013" data-name="Trazado 704013" d="M7339.008,2708.754a.169.169,0,0,0-.141.032,12.688,12.688,0,0,0-1.83,1.729c-.077.091-.149.183-.219.276a.167.167,0,0,0,.095.265,5.075,5.075,0,0,1,2.314,1.346.168.168,0,0,0,.244-.012,11.485,11.485,0,0,1,1.518-1.468h0a.168.168,0,0,0,.044-.206,4.872,4.872,0,0,0-.867-1.258A2.427,2.427,0,0,0,7339.008,2708.754Z" transform="translate(-7334.919 -2701.119)" fill="#d15f2a"/>
        <path id="Trazado_704014" data-name="Trazado 704014" d="M7386.5,2678.006c-.657.384-1.3.781-1.922,1.2a.219.219,0,0,0,.015.37,3.505,3.505,0,0,1,.739.579,5.367,5.367,0,0,1,.883,1.211.218.218,0,0,0,.318.072c.571-.407,1.167-.784,1.771-1.147a.218.218,0,0,0,.089-.272,4.889,4.889,0,0,0-.841-1.373,2.7,2.7,0,0,0-.851-.655A.216.216,0,0,0,7386.5,2678.006Z" transform="translate(-7379.62 -2672.278)" fill="#d15f2a"/>
        <path id="Trazado_704015" data-name="Trazado 704015" d="M7310.451,2857.277a15.532,15.532,0,0,0,.649,2.367.219.219,0,0,0,.306.121,3.752,3.752,0,0,1,.629-.256,5.456,5.456,0,0,1,1.555-.22.219.219,0,0,0,.208-.283,15.8,15.8,0,0,1-.523-2.155.22.22,0,0,0-.189-.184,4.034,4.034,0,0,0-2.534.384A.219.219,0,0,0,7310.451,2857.277Z" transform="translate(-7310.236 -2839.706)" fill="#d15f2a"/>
        <path id="Trazado_704016" data-name="Trazado 704016" d="M7327.722,2909.609a3.084,3.084,0,0,0-.633.269.218.218,0,0,0-.09.275c.164.386.339.768.526,1.14,1.331,2.636,3.1.966,2.527-.606-.134-.367-.269-.74-.4-1.116a.22.22,0,0,0-.2-.146A5.053,5.053,0,0,0,7327.722,2909.609Z" transform="translate(-7325.732 -2889.185)" fill="#d15f2a"/>
        <path id="Trazado_704017" data-name="Trazado 704017" d="M7307.159,2807.243a10.756,10.756,0,0,0-.024,2.359.218.218,0,0,0,.306.178,4.8,4.8,0,0,1,2.327-.3.217.217,0,0,0,.237-.23c-.015-.246-.021-.492-.013-.739a6.179,6.179,0,0,1,.077-.786.219.219,0,0,0-.124-.234,4.322,4.322,0,0,0-2.614-.436A.22.22,0,0,0,7307.159,2807.243Z" transform="translate(-7307.082 -2793.196)" fill="#d15f2a"/>
        <path id="Trazado_704018" data-name="Trazado 704018" d="M7312.653,2754.87a8.655,8.655,0,0,0-.95,2.254.219.219,0,0,0,.232.273,5.093,5.093,0,0,1,2.427.465.218.218,0,0,0,.292-.127,6.516,6.516,0,0,1,.7-1.408.218.218,0,0,0-.03-.275,4.159,4.159,0,0,0-2.465-1.29A.221.221,0,0,0,7312.653,2754.87Z" transform="translate(-7311.407 -2744.242)" fill="#d15f2a"/>
        <path id="Trazado_704019" data-name="Trazado 704019" d="M7484.851,2616.233a17.091,17.091,0,0,1-1.693,1.3.218.218,0,0,0-.021.345,4.047,4.047,0,0,1,.352.345,5.605,5.605,0,0,1,.97,1.559.218.218,0,0,0,.326.093,14.368,14.368,0,0,0,1.728-1.412.221.221,0,0,0,.051-.237,5.051,5.051,0,0,0-.911-1.537,3.045,3.045,0,0,0-.534-.475A.217.217,0,0,0,7484.851,2616.233Z" transform="translate(-7472.012 -2614.36)" fill="#d15f2a"/>
        <path id="Trazado_704020" data-name="Trazado 704020" d="M7434.147,2647.22c-.734.455-1.49.886-2.246,1.317a.218.218,0,0,0-.026.362,3.787,3.787,0,0,1,.5.46,5.491,5.491,0,0,1,.909,1.422.218.218,0,0,0,.309.1c.743-.434,1.487-.862,2.208-1.318a.219.219,0,0,0,.087-.263,5.049,5.049,0,0,0-.928-1.575,2.972,2.972,0,0,0-.575-.5A.216.216,0,0,0,7434.147,2647.22Z" transform="translate(-7423.961 -2643.422)" fill="#d15f2a"/>
        <path id="Trazado_704021" data-name="Trazado 704021" d="M7523.529,2587.893c-.132.155-.27.306-.41.452a.218.218,0,0,0,.023.323,3.833,3.833,0,0,1,.477.445,5.4,5.4,0,0,1,.84,1.276.218.218,0,0,0,.363.044c.177-.212.347-.432.506-.664C7527.152,2587.1,7524.616,2586.617,7523.529,2587.893Z" transform="translate(-7509.498 -2587.218)" fill="#d15f2a"/>
      </g>
      <g id="Grupo_916389" data-name="Grupo 916389" transform="translate(16.304 9.816)">
        <path id="Trazado_704022" data-name="Trazado 704022" d="M7730.036,2705.069a.219.219,0,0,0,.331-.147c.018-.1.034-.2.044-.264.457-3.12-1.086-1.717-1.721-.424a.218.218,0,0,0,.139.305,4.93,4.93,0,0,1,1.179.514C7730.018,2705.057,7730.026,2705.063,7730.036,2705.069Z" transform="translate(-7718.501 -2702.771)" fill="#d15f2a"/>
        <path id="Trazado_704023" data-name="Trazado 704023" d="M7597.906,2811.086a4.042,4.042,0,0,0-.75,2.254.218.218,0,0,0,.184.231l.1.018a5.734,5.734,0,0,1,1.563.575.219.219,0,0,0,.318-.146,5.445,5.445,0,0,1,.521-1.472.219.219,0,0,0-.023-.245,4.975,4.975,0,0,0-.746-.731,4.363,4.363,0,0,0-.911-.552A.216.216,0,0,0,7597.906,2811.086Z" transform="translate(-7595.247 -2804.204)" fill="#d15f2a"/>
        <path id="Trazado_704024" data-name="Trazado 704024" d="M7568.511,2910.9c-.083-.03-.166-.058-.249-.083a.219.219,0,0,0-.261.115,6.1,6.1,0,0,1-.623,1.028c-1.656,2.22.291,2.857,1.779.675a8.964,8.964,0,0,0,.524-.885.218.218,0,0,0-.07-.281A5.058,5.058,0,0,0,7568.511,2910.9Z" transform="translate(-7566.745 -2897.74)" fill="#d15f2a"/>
        <path id="Trazado_704025" data-name="Trazado 704025" d="M7592.324,2861.428a8.816,8.816,0,0,1-.268,2.12.218.218,0,0,0,.146.266c.073.023.146.047.22.074a5.534,5.534,0,0,1,1.083.542.219.219,0,0,0,.322-.1,8.307,8.307,0,0,0,.511-1.938c0-.031.019-.151.031-.255a.221.221,0,0,0-.1-.211,5.272,5.272,0,0,0-1.638-.69l-.046-.009A.218.218,0,0,0,7592.324,2861.428Z" transform="translate(-7590.459 -2851.269)" fill="#d15f2a"/>
        <path id="Trazado_704026" data-name="Trazado 704026" d="M7619.917,2783.688a.188.188,0,0,0,.031.313,4.9,4.9,0,0,1,.748.484,5.482,5.482,0,0,1,.715.678.162.162,0,0,0,.239,0,3.581,3.581,0,0,1,1.267-.85l.3-.119a.163.163,0,0,0,.085-.226,4.607,4.607,0,0,0-1.051-1.356.162.162,0,0,0-.162-.029,7.792,7.792,0,0,0-2.166,1.1Z" transform="translate(-7616.513 -2777.568)" fill="#d15f2a"/>
        <path id="Trazado_704027" data-name="Trazado 704027" d="M7671.2,2765.664a11.426,11.426,0,0,1-1.605.684.218.218,0,0,0-.089.351,5.33,5.33,0,0,1,.808,1.176.219.219,0,0,0,.273.106c.575-.219,1.136-.438,1.652-.7a.219.219,0,0,0,.1-.29,4.987,4.987,0,0,0-.512-.866,4.268,4.268,0,0,0-.367-.428A.217.217,0,0,0,7671.2,2765.664Z" transform="translate(-7663.003 -2761.689)" fill="#d15f2a"/>
        <path id="Trazado_704028" data-name="Trazado 704028" d="M7709.847,2739.258a3.178,3.178,0,0,1-.8,1.024.218.218,0,0,0-.02.314c.1.113.2.23.3.356a5.534,5.534,0,0,1,.53.881.218.218,0,0,0,.322.083,3.917,3.917,0,0,0,1.457-1.842.218.218,0,0,0-.078-.253c-.1-.07-.2-.136-.3-.2a4.316,4.316,0,0,0-1.153-.481A.219.219,0,0,0,7709.847,2739.258Z" transform="translate(-7700.036 -2736.853)" fill="#d15f2a"/>
      </g>
    </g>
    <g id="Grupo_916391" data-name="Grupo 916391" transform="translate(7331.409 222.648)">
      <path id="Trazado_704029" data-name="Trazado 704029" d="M7799.107,1519.052l-63.279.718a.409.409,0,0,0-.4.411h0a.409.409,0,0,0,.407.407l63.286.4a.793.793,0,0,0,.8-.8v-.347A.794.794,0,0,0,7799.107,1519.052Z" transform="translate(-7732.856 -1503.044)" fill="#cfb291"/>
      <path id="Trazado_704030" data-name="Trazado 704030" d="M7697.189,1287.864a3.287,3.287,0,0,0-.648-.062,2.117,2.117,0,0,1-.7-.055c0-.031.207-.066.595-.067a3.2,3.2,0,0,1,.8.074c.232-.145.738.08,1.2.6a5.323,5.323,0,0,1,.6.857.279.279,0,0,1,.107-.024,11.043,11.043,0,0,1,1.312.417,1.515,1.515,0,0,0,.627,0,2.559,2.559,0,0,1-1.094-2.582.505.505,0,0,1-.161-.543.472.472,0,0,1,.559-.4.412.412,0,0,1,.106.042l.031-.032c-.219-.354-.457-.7-.7-1.033a24.194,24.194,0,0,0-1.616-1.964c-.57-.626-1.165-1.229-1.779-1.81s-1.244-1.142-1.9-1.672l.025-.038c.663.52,1.3,1.072,1.926,1.643s1.23,1.166,1.813,1.785a24.447,24.447,0,0,1,1.658,1.95c.245.328.484.663.708,1.009l.017-.014a.86.86,0,0,1,1.545-.666l.022,0c-.1-.4-.177-.8-.247-1.208a24.223,24.223,0,0,1-.279-2.544c-.05-.849-.066-1.7-.053-2.544s.052-1.69.128-2.529l.045.007c-.062.838-.086,1.683-.086,2.527s.031,1.691.094,2.536a24.4,24.4,0,0,0,.317,2.523c.078.409.164.817.271,1.219h.044a.409.409,0,0,1,.042-.106.472.472,0,0,1,.675-.131.506.506,0,0,1,.284.491,2.559,2.559,0,0,1,1.126,2.568,1.511,1.511,0,0,0,.432-.455,11.025,11.025,0,0,1,.6-1.24.282.282,0,0,1,.091-.061,5.33,5.33,0,0,1-.21-1.025c-.064-.691.12-1.214.385-1.283a3.181,3.181,0,0,1,.494-.63c.266-.281.434-.407.457-.386a2.129,2.129,0,0,1-.443.548,3.241,3.241,0,0,0-.4.514,4.333,4.333,0,0,0,.13,1.668,1.385,1.385,0,0,1,.067.719.342.342,0,0,1,.125.336,10.041,10.041,0,0,1-.651,1.331,3.794,3.794,0,0,1-.829,1c.565.087,1.153.531,1.788,1.723.123.014.246.032.365.052a6.689,6.689,0,0,1,1.13.28.256.256,0,0,1,.137.2,8.361,8.361,0,0,1,.825.609c.731.6,1.56,1.489,1.56,1.91a5.419,5.419,0,0,0,.691.717,3.108,3.108,0,0,1,.727.725c-.03.035-.292-.122-.723-.488a5.322,5.322,0,0,1-.778-.781c-.177.095-.432-.59-1.567-1.5-.34-.274-.642-.543-.875-.773a.247.247,0,0,1-.143.056,5.609,5.609,0,0,1-.969-.214c.007.018.015.035.023.053.084.2.167.4.248.611a10.885,10.885,0,0,1,2.077,1.886,11.254,11.254,0,0,1,1.564,2.209.566.566,0,0,0,.315.273.981.981,0,0,1,.542.544,1.058,1.058,0,0,1,.083.543.169.169,0,0,0,.028.116c.369.533-.386,1.528-.443,2.634a8.692,8.692,0,0,0,.688,2.212,2.955,2.955,0,0,1,.1,1.649c-.078,0-.125-.791-.45-1.625a9.2,9.2,0,0,1-.941-2.413,6.7,6.7,0,0,1,.2-1.832.227.227,0,0,0-.107-.259,1.033,1.033,0,0,1-.412-.483,1.053,1.053,0,0,1-.048-.135.971.971,0,0,0-.338-.489c-.476-.377-1.1-.949-1.884-1.576.644,2.813.81,5.586-.013,5.941s-2.678-1.672-4.256-4.07c-.079.984-.093,1.822-.146,2.42a.972.972,0,0,0,.124.581,1.173,1.173,0,0,1,.065.128,1.032,1.032,0,0,1,.068.631.228.228,0,0,0,.115.255,6.712,6.712,0,0,1,1.467,1.115,9.211,9.211,0,0,1,1.108,2.341c.383.809.923,1.384.873,1.443s-.676-.451-1.129-1.205c-.411-.683-.629-1.587-1.136-2.018-.843-.718-2.084-.853-2.219-1.487a.17.17,0,0,0-.065-.1,1.05,1.05,0,0,1-.337-.433.98.98,0,0,1-.024-.767.564.564,0,0,0,.018-.417,11.229,11.229,0,0,1-.532-2.654,10.89,10.89,0,0,1,.054-2.8c-.1-.2-.189-.405-.274-.6l-.022-.053a5.606,5.606,0,0,1-.51.852.242.242,0,0,1-.138.066,11.672,11.672,0,0,1-.04,1.167c-.117,1.451.206,2.106.016,2.17a5.3,5.3,0,0,1,.033,1.1c-.03.564-.1.863-.142.86a3.081,3.081,0,0,1-.028-1.026,5.48,5.48,0,0,0-.046-1,4.422,4.422,0,0,1-.318-2.446,8.308,8.308,0,0,1,.125-1.018.253.253,0,0,1-.053-.238,6.655,6.655,0,0,1,.573-1.014c.067-.1.139-.2.213-.3-.431-1.28-.351-2.012-.026-2.483a3.8,3.8,0,0,1-1.3-.083,10.076,10.076,0,0,1-1.415-.44.341.341,0,0,1-.159-.322,1.384,1.384,0,0,1-.476-.542A4.324,4.324,0,0,0,7697.189,1287.864Z" transform="translate(-7694.524 -1275.674)" fill="#6e7d96"/>
      <path id="Trazado_704031" data-name="Trazado 704031" d="M8183.536,1275.524a3.28,3.28,0,0,0-.649-.062,2.123,2.123,0,0,1-.7-.055c0-.031.207-.067.595-.068a3.2,3.2,0,0,1,.8.074c.232-.146.738.08,1.2.6a5.328,5.328,0,0,1,.6.857.279.279,0,0,1,.106-.024,11,11,0,0,1,1.313.417,1.519,1.519,0,0,0,.627,0,2.555,2.555,0,0,1-1.093-2.583.5.5,0,0,1-.162-.543.472.472,0,0,1,.559-.4.409.409,0,0,1,.106.042l.031-.031c-.22-.354-.456-.7-.7-1.034a24.316,24.316,0,0,0-1.616-1.964q-.855-.94-1.778-1.809c-.614-.58-1.245-1.143-1.9-1.672l.025-.038c.663.52,1.3,1.072,1.927,1.643s1.23,1.166,1.813,1.785a24.358,24.358,0,0,1,1.657,1.95c.246.328.485.663.709,1.009l.017-.014a.86.86,0,0,1,1.545-.666l.023,0c-.1-.4-.179-.8-.247-1.208a24.09,24.09,0,0,1-.279-2.544c-.051-.849-.066-1.7-.054-2.543s.052-1.69.129-2.529l.045.007c-.063.838-.087,1.683-.087,2.527s.03,1.691.094,2.536a24.4,24.4,0,0,0,.318,2.523c.077.409.164.816.271,1.219h.044a.444.444,0,0,1,.042-.106.473.473,0,0,1,.676-.131.505.505,0,0,1,.284.491,2.56,2.56,0,0,1,1.127,2.568,1.511,1.511,0,0,0,.431-.455,10.841,10.841,0,0,1,.6-1.24.278.278,0,0,1,.091-.061,5.3,5.3,0,0,1-.209-1.025c-.064-.692.119-1.214.384-1.283a3.218,3.218,0,0,1,.494-.63c.267-.281.435-.408.457-.386a2.121,2.121,0,0,1-.442.548,3.24,3.24,0,0,0-.4.514,4.318,4.318,0,0,0,.13,1.668,1.38,1.38,0,0,1,.067.719.34.34,0,0,1,.124.336,9.964,9.964,0,0,1-.65,1.331,3.8,3.8,0,0,1-.83,1c.565.087,1.153.531,1.788,1.723.122.014.245.032.365.052a6.731,6.731,0,0,1,1.131.28.252.252,0,0,1,.136.2,8.2,8.2,0,0,1,.826.609c.73.6,1.56,1.489,1.56,1.91a5.431,5.431,0,0,0,.691.717,3.079,3.079,0,0,1,.727.725c-.029.035-.291-.122-.723-.488a5.334,5.334,0,0,1-.778-.781c-.177.095-.432-.589-1.566-1.5-.341-.274-.643-.543-.876-.773a.245.245,0,0,1-.143.056,5.615,5.615,0,0,1-.97-.214l.023.053c.084.2.167.4.248.611a10.9,10.9,0,0,1,2.076,1.886,11.221,11.221,0,0,1,1.564,2.209.564.564,0,0,0,.315.273.98.98,0,0,1,.541.544,1.047,1.047,0,0,1,.083.542.17.17,0,0,0,.029.116c.368.533-.387,1.528-.443,2.634a8.656,8.656,0,0,0,.688,2.212,2.949,2.949,0,0,1,.1,1.648c-.077,0-.124-.791-.449-1.625a9.173,9.173,0,0,1-.941-2.413,6.721,6.721,0,0,1,.2-1.832.227.227,0,0,0-.106-.258,1.023,1.023,0,0,1-.411-.484,1.043,1.043,0,0,1-.049-.135.977.977,0,0,0-.338-.489c-.476-.377-1.1-.949-1.885-1.576.644,2.813.811,5.587-.013,5.941s-2.677-1.671-4.256-4.07c-.078.984-.093,1.822-.146,2.42a.979.979,0,0,0,.124.581,1.085,1.085,0,0,1,.065.128,1.031,1.031,0,0,1,.067.631.228.228,0,0,0,.115.255,6.711,6.711,0,0,1,1.467,1.115,9.194,9.194,0,0,1,1.108,2.341c.383.809.923,1.384.873,1.443s-.677-.451-1.13-1.206c-.41-.683-.63-1.587-1.136-2.018-.842-.718-2.084-.853-2.219-1.487a.162.162,0,0,0-.065-.1,1.065,1.065,0,0,1-.336-.433.974.974,0,0,1-.024-.766.566.566,0,0,0,.019-.417,11.177,11.177,0,0,1-.532-2.654,10.9,10.9,0,0,1,.054-2.8c-.1-.2-.189-.4-.273-.6l-.022-.053a5.607,5.607,0,0,1-.51.851.247.247,0,0,1-.139.066c.007.328,0,.732-.04,1.167-.116,1.451.206,2.107.016,2.17a5.256,5.256,0,0,1,.034,1.1c-.03.564-.1.863-.143.861a3.106,3.106,0,0,1-.027-1.026,5.416,5.416,0,0,0-.047-1,4.422,4.422,0,0,1-.317-2.446,8.424,8.424,0,0,1,.124-1.018.252.252,0,0,1-.053-.238,6.661,6.661,0,0,1,.573-1.014c.066-.1.139-.2.212-.3-.431-1.28-.351-2.012-.025-2.483a3.8,3.8,0,0,1-1.3-.083,10.1,10.1,0,0,1-1.414-.44.341.341,0,0,1-.159-.322,1.388,1.388,0,0,1-.477-.542A4.328,4.328,0,0,0,8183.536,1275.524Z" transform="translate(-8150.333 -1264.109)" fill="#6e7d96"/>
      <path id="Trazado_704032" data-name="Trazado 704032" d="M7985.625,1358.85a3.322,3.322,0,0,1-.421.5,2.142,2.142,0,0,0-.465.53c.022.022.194-.1.473-.367a3.182,3.182,0,0,0,.52-.61c.268-.058.473-.573.437-1.266a5.336,5.336,0,0,0-.168-1.033.286.286,0,0,0,.094-.057,10.967,10.967,0,0,0,.647-1.215,1.515,1.515,0,0,1,.45-.437,2.556,2.556,0,0,0,1.021,2.612.505.505,0,0,0,.264.5.472.472,0,0,0,.68-.1.379.379,0,0,0,.047-.1h.044c.091.406.16.817.221,1.229a24.218,24.218,0,0,1,.215,2.534q.044,1.27-.009,2.537c-.034.844-.092,1.687-.189,2.522l.045.009c.111-.835.183-1.677.23-2.521s.066-1.693.051-2.543a24.364,24.364,0,0,0-.175-2.553c-.054-.407-.116-.813-.2-1.217h.022a.86.86,0,0,0,1.571-.6l.018-.014c.209.355.435.7.667,1.037a24.252,24.252,0,0,0,1.577,2.015q.835.964,1.738,1.857c.6.6,1.217,1.173,1.858,1.72l.026-.036c-.63-.556-1.236-1.144-1.827-1.748s-1.159-1.231-1.7-1.88a24.4,24.4,0,0,1-1.535-2.028c-.229-.347-.453-.7-.657-1.061l.032-.03a.4.4,0,0,0,.1.046.472.472,0,0,0,.574-.378.5.5,0,0,0-.139-.55,2.559,2.559,0,0,0-.987-2.625,1.516,1.516,0,0,1,.627.024,11,11,0,0,0,1.293.47.282.282,0,0,0,.108-.02,5.309,5.309,0,0,0,.566.88c.437.54.933.786,1.171.65a3.2,3.2,0,0,0,.794.106c.387.015.6-.012.6-.043a2.131,2.131,0,0,0-.7-.083,3.272,3.272,0,0,1-.645-.089,4.328,4.328,0,0,1-1.072-1.285,1.392,1.392,0,0,0-.453-.561.342.342,0,0,0-.146-.328,10.026,10.026,0,0,0-1.4-.5,3.8,3.8,0,0,0-1.291-.136c.345-.457.454-1.185.076-2.482.077-.1.153-.194.225-.293a6.685,6.685,0,0,0,.613-.99.256.256,0,0,0-.043-.24,8.323,8.323,0,0,0,.165-1.012,4.422,4.422,0,0,0-.218-2.457,5.473,5.473,0,0,1-.006-1,3.072,3.072,0,0,0,.014-1.027c-.045,0-.124.291-.177.854a5.309,5.309,0,0,0-.011,1.1c-.193.056.1.723-.073,2.169-.052.434-.08.837-.087,1.165a.244.244,0,0,0-.141.06,5.538,5.538,0,0,0-.544.83l-.021-.054c-.077-.2-.16-.4-.25-.61a10.906,10.906,0,0,0,.169-2.8,11.219,11.219,0,0,0-.424-2.674.565.565,0,0,1,.035-.416.98.98,0,0,0,.007-.767,1.052,1.052,0,0,0-.319-.447.173.173,0,0,1-.061-.1c-.108-.639-1.344-.824-2.156-1.576a8.661,8.661,0,0,1-1.053-2.063,2.953,2.953,0,0,0-1.079-1.25c-.053.057.464.653.813,1.477a9.2,9.2,0,0,0,1.012,2.384,6.7,6.7,0,0,0,1.421,1.174.228.228,0,0,1,.1.26,1.038,1.038,0,0,0,.043.634,1.3,1.3,0,0,0,.06.13.979.979,0,0,1,.1.586c-.077.6-.127,1.45-.248,2.445-1.5-2.463-3.322-4.563-4.158-4.243s-.749,3.067-.2,5.885c-.743-.65-1.339-1.239-1.794-1.631a.974.974,0,0,1-.317-.5,1.222,1.222,0,0,0-.043-.137,1.033,1.033,0,0,0-.392-.5.227.227,0,0,1-.1-.263,6.709,6.709,0,0,0,.271-1.823,9.207,9.207,0,0,0-.842-2.449c-.291-.846-.307-1.635-.384-1.642a2.961,2.961,0,0,0,.034,1.651,8.677,8.677,0,0,1,.6,2.238c-.1,1.1-.9,2.066-.55,2.614a.17.17,0,0,1,.023.117,1.063,1.063,0,0,0,.062.546.985.985,0,0,0,.518.566.564.564,0,0,1,.3.286,11.229,11.229,0,0,0,1.474,2.271,10.859,10.859,0,0,0,2,1.968c.073.214.147.422.224.621.008.018.015.036.021.054a5.577,5.577,0,0,0-.96-.253.243.243,0,0,0-.145.05c-.225-.24-.515-.521-.844-.808-1.1-.957-1.324-1.651-1.5-1.564a5.328,5.328,0,0,0-.746-.812c-.416-.383-.672-.55-.7-.517a3.07,3.07,0,0,0,.7.754,5.4,5.4,0,0,1,.662.745c-.017.421.774,1.341,1.48,1.972a8.362,8.362,0,0,0,.8.642.254.254,0,0,0,.129.207,6.651,6.651,0,0,0,1.118.326c.119.026.241.048.362.067.586,1.217,1.155,1.685,1.716,1.794a3.824,3.824,0,0,0-.869.965,10.1,10.1,0,0,0-.705,1.3.342.342,0,0,0,.111.341,1.4,1.4,0,0,0,.038.721A4.338,4.338,0,0,1,7985.625,1358.85Z" transform="translate(-7962.096 -1331.977)" fill="#6e7d96"/>
    </g>
    <path id="Trazado_704033" data-name="Trazado 704033" d="M8491.354,2051.423a6.8,6.8,0,0,1,1.188-.653,4.412,4.412,0,0,0,1.3-.683c-.025-.06-.45.043-1.192.361a6.7,6.7,0,0,0-1.462.8c-.562-.087-1.343.76-1.79,2.133a10.987,10.987,0,0,0-.442,2.131.585.585,0,0,0-.226.042,22.907,22.907,0,0,0-2.162,1.876,3.146,3.146,0,0,1-1.2.513,5.319,5.319,0,0,0-.038-5.832,1.053,1.053,0,0,0-.139-1.171.983.983,0,0,0-1.4-.306.835.835,0,0,0-.168.168l-.085-.035c.127-.856.3-1.706.486-2.551a50.458,50.458,0,0,1,1.47-5.08q.861-2.5,1.907-4.92c.7-1.613,1.436-3.206,2.246-4.755l-.08-.051c-.837,1.539-1.6,3.12-2.326,4.724s-1.39,3.239-1.992,4.9a50.363,50.363,0,0,0-1.562,5.088c-.2.829-.381,1.665-.522,2.51l-.045-.014a1.789,1.789,0,0,0-3.5,0l-.044.014c-.142-.845-.323-1.681-.523-2.51a50.61,50.61,0,0,0-1.561-5.088q-.9-2.494-1.993-4.9c-.723-1.6-1.488-3.185-2.326-4.724l-.079.051c.81,1.549,1.55,3.142,2.245,4.755s1.334,3.255,1.908,4.92a50.71,50.71,0,0,1,1.469,5.08c.189.845.359,1.694.487,2.551l-.085.035a.867.867,0,0,0-.169-.168.981.981,0,0,0-1.4.306,1.049,1.049,0,0,0-.139,1.171,5.314,5.314,0,0,0-.038,5.832,3.146,3.146,0,0,1-1.2-.513,22.907,22.907,0,0,0-2.162-1.876.585.585,0,0,0-.226-.042,10.993,10.993,0,0,0-.443-2.131c-.446-1.373-1.227-2.22-1.79-2.133a6.656,6.656,0,0,0-1.462-.8c-.741-.317-1.166-.42-1.191-.361a4.4,4.4,0,0,0,1.3.683,6.782,6.782,0,0,1,1.187.653,8.979,8.979,0,0,1,1.125,3.293,2.877,2.877,0,0,0,.463,1.427.711.711,0,0,0,.038.745,20.891,20.891,0,0,0,2.34,2.006,7.9,7.9,0,0,0,2.406,1.225c-1.009.631-1.765,1.963-2,4.762-.221.128-.441.263-.654.4a13.926,13.926,0,0,0-1.929,1.465.531.531,0,0,0-.095.5,17.562,17.562,0,0,0-1.075,1.842c-.9,1.751-1.753,4.128-1.405,4.933a11.376,11.376,0,0,1-.731,1.938,6.434,6.434,0,0,0-.791,1.983c.084.042.457-.473.979-1.526a10.909,10.909,0,0,0,.843-2.132c.416.036.34-1.481,1.757-4.157.425-.8.78-1.565,1.036-2.2a.512.512,0,0,0,.319-.011,11.609,11.609,0,0,0,1.675-1.207c0,.04,0,.08,0,.12,0,.444.011.9.029,1.371a22.683,22.683,0,0,0-2.412,5.311,23.383,23.383,0,0,0-1.169,5.507,1.175,1.175,0,0,1-.379.782,2.045,2.045,0,0,0-.584,1.484,2.186,2.186,0,0,0,.287,1.1.353.353,0,0,1,.041.245c-.266,1.321,2,2.6,3.014,4.666.611,1.24.285,3.146.507,4.79.245,1.813,1.013,3.306,1.164,3.232s-.413-1.614-.479-3.474.363-4.039-.189-5.383a13.917,13.917,0,0,0-1.884-3.337.473.473,0,0,1-.009-.582,2.149,2.149,0,0,0,.389-1.262,2.482,2.482,0,0,0-.019-.3,2.02,2.02,0,0,1,.242-1.212c.6-1.111,1.325-2.722,2.3-4.562,1.088,5.9,3.053,11.336,4.915,11.336s3.738-5.4,4.778-11.276c.96,1.815,1.679,3.4,2.271,4.5a2.028,2.028,0,0,1,.242,1.212,2.3,2.3,0,0,0-.019.3,2.142,2.142,0,0,0,.389,1.262.474.474,0,0,1-.009.582,13.949,13.949,0,0,0-1.885,3.337c-.553,1.344-.124,3.522-.189,5.383s-.623,3.4-.479,3.474.919-1.418,1.164-3.232c.223-1.644-.1-3.55.507-4.79,1.019-2.065,3.279-3.344,3.014-4.666a.353.353,0,0,1,.042-.245,2.2,2.2,0,0,0,.287-1.1,2.041,2.041,0,0,0-.585-1.484,1.174,1.174,0,0,1-.378-.782,23.342,23.342,0,0,0-1.17-5.507,22.648,22.648,0,0,0-2.41-5.309c.019-.47.028-.929.028-1.374,0-.041,0-.08,0-.12a11.609,11.609,0,0,0,1.675,1.207.509.509,0,0,0,.318.011c.257.632.611,1.394,1.037,2.2,1.416,2.676,1.34,4.193,1.756,4.157a11.034,11.034,0,0,0,.843,2.132c.521,1.053.895,1.569.979,1.526a6.463,6.463,0,0,0-.791-1.983,11.376,11.376,0,0,1-.731-1.938c.347-.805-.506-3.181-1.406-4.933a17.224,17.224,0,0,0-1.075-1.842.528.528,0,0,0-.095-.5,13.926,13.926,0,0,0-1.929-1.465c-.212-.138-.433-.273-.654-.4-.23-2.8-.987-4.131-2-4.762a7.9,7.9,0,0,0,2.407-1.225,20.965,20.965,0,0,0,2.339-2.006.713.713,0,0,0,.039-.745,2.887,2.887,0,0,0,.463-1.427A9,9,0,0,1,8491.354,2051.423Z" transform="translate(-1088.87 -1762.458)" fill="#6e7d96"/>
    <g id="Grupo_916394" data-name="Grupo 916394" transform="translate(7314.623 177.246)">
      <path id="Trazado_704034" data-name="Trazado 704034" d="M7528.463,663.475l-1.439-121.287c-.007-.655-.25-1.185-.543-1.187h0c-.29,0-.522.517-.522,1.166l.021,121.292c0,.976.463,1.775,1.03,1.778l.445,0C7528.022,665.244,7528.475,664.451,7528.463,663.475Z" transform="translate(-7519.757 -541.001)" fill="#e0a056"/>
      <g id="Grupo_916392" data-name="Grupo 916392" transform="translate(0.293 55.107)">
        <path id="Trazado_704035" data-name="Trazado 704035" d="M7452.347,1438.432a6.234,6.234,0,0,1-.59,5.908,6.739,6.739,0,0,1-1.017,6.418,5.792,5.792,0,0,1-1.466,5.8c.99,2.613-2.043,7.31-4.166,7.4-3.29.133-5.223-6.313-4.618-7.383a6.9,6.9,0,0,1-.643-6.077,7.283,7.283,0,0,1-.444-6.717,5.137,5.137,0,0,1-.636-4.219,1.336,1.336,0,0,0,.031-.22c-.221-.2.288-3.413.8-6.622,1.343-8.485,4.1-9.513,6.983-8.679,3.872,1.119,5.326,8.182,5.326,8.182l.138.538a3.827,3.827,0,0,1,.2,2.418c-.02,0-.023,0,0,.006a3.371,3.371,0,0,1,.124,3.222Z" transform="translate(-7438.176 -1423.476)" fill="#f19730"/>
        <path id="Trazado_704036" data-name="Trazado 704036" d="M7454.1,1432.214s-1.454-7.062-5.326-8.182c-2.886-.834-5.64.193-6.983,8.679-.508,3.209-1.016,6.418-.795,6.622,0,0,2.281-6.682,4.988-8.067A8.916,8.916,0,0,1,7454.1,1432.214Z" transform="translate(-7440.375 -1423.473)" fill="#de652d"/>
        <path id="Trazado_704037" data-name="Trazado 704037" d="M7442.16,1457.1c.944-1.427,1.742-3.486,1.278-5.134a6.232,6.232,0,0,0,1.451-5.814,7.208,7.208,0,0,0,1.013-6.459,6.646,6.646,0,0,0,.581-5.974,3.71,3.71,0,0,0-.11-3.3,4.562,4.562,0,0,0-.3-2.663l-.07-.339c-.062-.3-1.553-7.327-5.625-8.5a4.377,4.377,0,0,0-3.737.346c-1.8,1.146-3.042,3.984-3.784,8.675a51.722,51.722,0,0,0-.85,6.451,1.334,1.334,0,0,0,.043.313,7.584,7.584,0,0,0-.193,1.945,4.69,4.69,0,0,0,.743,2.474,7.362,7.362,0,0,0-.559,3.155,7.667,7.667,0,0,0,1.019,3.549,6.583,6.583,0,0,0-.39,2.527,8.073,8.073,0,0,0,1.038,3.544,2.494,2.494,0,0,0-.067.75,9.919,9.919,0,0,0,.768,3.031c.514,1.233,1.97,4.089,4.4,3.991C7439.872,1459.627,7441.125,1458.667,7442.16,1457.1Zm3.6-23.911a25.455,25.455,0,0,0-11.813-1.061,23.826,23.826,0,0,1,1.429-2.717,24.42,24.42,0,0,1,10.244,1.411A2.718,2.718,0,0,1,7445.763,1433.191Zm-.161-3.277a25.435,25.435,0,0,0-9.616-1.394,5.313,5.313,0,0,1,1.677-1.58,8.435,8.435,0,0,1,7.492.805A4.655,4.655,0,0,1,7445.6,1429.914Zm-11.907-1.84c.693-4.375,1.837-7.1,3.4-8.091a3.536,3.536,0,0,1,3.045-.247c2.763.8,4.248,5.007,4.788,6.916a9.2,9.2,0,0,0-7.653-.468c-1.714.877-3.225,3.641-4.17,5.744C7433.276,1430.722,7433.5,1429.288,7433.7,1428.073Zm-.74,6.488c.1-.278.3-.82.587-1.5a24.453,24.453,0,0,1,12.09.975l.063.059h.026a5.8,5.8,0,0,1-.453,5.013,18.01,18.01,0,0,0-12.014-.538A5.212,5.212,0,0,1,7432.956,1434.561Zm.44,4.854a17.19,17.19,0,0,1,11.7.538,6.467,6.467,0,0,1-.8,5.584,14.137,14.137,0,0,0-10.616-.329A6.939,6.939,0,0,1,7433.4,1439.415Zm.492,6.618a13.15,13.15,0,0,1,10.18.325,5.476,5.476,0,0,1-1.1,4.868,3.476,3.476,0,0,0-1.277-.518c-2.006-.469-5.815-.424-7.39.5A6.311,6.311,0,0,1,7433.888,1446.033Zm1.894,10.513c-1.162-2-1.441-4.119-1.246-4.467.951-.857,4.84-1.039,6.963-.543.941.22,1.057.463,1.058.465.433,1.143,0,2.962-1.106,4.633-.858,1.3-1.91,2.157-2.678,2.188C7437.355,1458.879,7436.291,1457.42,7435.782,1456.545Z" transform="translate(-7431.853 -1418.667)" fill="#c25210"/>
        <path id="Trazado_704038" data-name="Trazado 704038" d="M7497.044,1956.959a.531.531,0,1,0-.509.552A.53.53,0,0,0,7497.044,1956.959Z" transform="translate(-7491.957 -1922.683)" fill="#c25210"/>
        <path id="Trazado_704039" data-name="Trazado 704039" d="M7476.319,1863a.531.531,0,1,0-.509.552A.531.531,0,0,0,7476.319,1863Z" transform="translate(-7472.533 -1834.622)" fill="#c25210"/>
        <path id="Trazado_704040" data-name="Trazado 704040" d="M7472.085,1758.214a.531.531,0,1,0-.51.552A.531.531,0,0,0,7472.085,1758.214Z" transform="translate(-7468.563 -1736.417)" fill="#c25210"/>
        <path id="Trazado_704041" data-name="Trazado 704041" d="M7471.505,1660.054a.531.531,0,1,0-.509.552A.531.531,0,0,0,7471.505,1660.054Z" transform="translate(-7468.021 -1644.42)" fill="#c25210"/>
        <circle id="Elipse_6226" data-name="Elipse 6226" cx="0.531" cy="0.531" r="0.531" transform="translate(3.756 12.009) rotate(-47.314)" fill="#c25210"/>
      </g>
      <g id="Grupo_916393" data-name="Grupo 916393" transform="translate(0 8.904)">
        <path id="Trazado_704042" data-name="Trazado 704042" d="M7447.676,702.579a6.232,6.232,0,0,1-.59,5.908,6.74,6.74,0,0,1-1.017,6.418,5.793,5.793,0,0,1-1.466,5.8c.989,2.613-2.044,7.31-4.166,7.4-3.289.133-5.223-6.313-4.617-7.383a6.9,6.9,0,0,1-.644-6.077,7.285,7.285,0,0,1-.443-6.717,5.137,5.137,0,0,1-.637-4.219,1.353,1.353,0,0,0,.032-.22c-.221-.2.287-3.413.795-6.622,1.344-8.485,4.1-9.513,6.983-8.679,3.872,1.119,5.326,8.182,5.326,8.182l.138.538a3.824,3.824,0,0,1,.2,2.418c-.02,0-.023,0,0,.007a3.369,3.369,0,0,1,.123,3.222Z" transform="translate(-7433.505 -687.624)" fill="#f19730"/>
        <path id="Trazado_704043" data-name="Trazado 704043" d="M7449.433,696.362s-1.455-7.063-5.327-8.182c-2.886-.834-5.64.193-6.982,8.679-.509,3.209-1.017,6.418-.8,6.622,0,0,2.281-6.682,4.989-8.067A8.916,8.916,0,0,1,7449.433,696.362Z" transform="translate(-7435.703 -687.621)" fill="#de652d"/>
        <path id="Trazado_704044" data-name="Trazado 704044" d="M7437.49,721.249c.943-1.427,1.741-3.487,1.278-5.134a6.231,6.231,0,0,0,1.451-5.814,7.206,7.206,0,0,0,1.012-6.459,6.643,6.643,0,0,0,.581-5.974,3.708,3.708,0,0,0-.11-3.3,4.559,4.559,0,0,0-.3-2.663l-.07-.339c-.062-.3-1.553-7.327-5.624-8.5a4.377,4.377,0,0,0-3.737.346c-1.8,1.146-3.041,3.984-3.784,8.675a51.72,51.72,0,0,0-.85,6.451,1.306,1.306,0,0,0,.044.314,7.56,7.56,0,0,0-.193,1.945,4.69,4.69,0,0,0,.743,2.474,7.361,7.361,0,0,0-.558,3.155,7.657,7.657,0,0,0,1.018,3.549,6.591,6.591,0,0,0-.39,2.526,8.073,8.073,0,0,0,1.038,3.544,2.508,2.508,0,0,0-.067.75,9.919,9.919,0,0,0,.769,3.031c.513,1.233,1.97,4.089,4.4,3.991C7435.2,723.774,7436.456,722.814,7437.49,721.249Zm3.6-23.911a25.455,25.455,0,0,0-11.813-1.061,23.83,23.83,0,0,1,1.429-2.717,24.42,24.42,0,0,1,10.244,1.411A2.717,2.717,0,0,1,7441.093,697.338Zm-.161-3.277a25.435,25.435,0,0,0-9.616-1.394,5.317,5.317,0,0,1,1.677-1.58,8.433,8.433,0,0,1,7.491.8A4.662,4.662,0,0,1,7440.932,694.061Zm-11.907-1.84c.692-4.375,1.837-7.1,3.4-8.091a3.535,3.535,0,0,1,3.045-.247c2.763.8,4.248,5.007,4.789,6.916a9.2,9.2,0,0,0-7.654-.468c-1.714.877-3.225,3.641-4.17,5.744C7428.606,694.869,7428.833,693.435,7429.025,692.22Zm-.739,6.488c.1-.278.3-.82.586-1.5a24.456,24.456,0,0,1,12.091.975l.063.059h.025a5.8,5.8,0,0,1-.453,5.013,18.009,18.009,0,0,0-12.014-.538A5.208,5.208,0,0,1,7428.286,698.708Zm.44,4.854a17.187,17.187,0,0,1,11.7.538,6.468,6.468,0,0,1-.8,5.584,14.138,14.138,0,0,0-10.617-.329A6.935,6.935,0,0,1,7428.727,703.562Zm.492,6.618a13.149,13.149,0,0,1,10.179.325,5.476,5.476,0,0,1-1.1,4.868,3.473,3.473,0,0,0-1.277-.518c-2.006-.469-5.815-.424-7.39.5A6.312,6.312,0,0,1,7429.218,710.18Zm1.894,10.513c-1.162-2-1.441-4.12-1.245-4.468.951-.857,4.84-1.039,6.963-.543.941.22,1.056.463,1.057.465.434,1.143,0,2.962-1.106,4.633-.858,1.3-1.91,2.157-2.679,2.188C7432.686,723.026,7431.621,721.567,7431.112,720.693Z" transform="translate(-7427.183 -682.814)" fill="#c25210"/>
        <path id="Trazado_704045" data-name="Trazado 704045" d="M7492.373,1221.106a.531.531,0,1,0-.51.552A.531.531,0,0,0,7492.373,1221.106Z" transform="translate(-7487.285 -1186.83)" fill="#c25210"/>
        <path id="Trazado_704046" data-name="Trazado 704046" d="M7471.647,1127.146a.531.531,0,1,0-.509.552A.531.531,0,0,0,7471.647,1127.146Z" transform="translate(-7467.861 -1098.769)" fill="#c25210"/>
        <path id="Trazado_704047" data-name="Trazado 704047" d="M7467.414,1022.361a.531.531,0,1,0-.509.552A.53.53,0,0,0,7467.414,1022.361Z" transform="translate(-7463.894 -1000.564)" fill="#c25210"/>
        <path id="Trazado_704048" data-name="Trazado 704048" d="M7466.833,924.2a.531.531,0,1,0-.509.552A.532.532,0,0,0,7466.833,924.2Z" transform="translate(-7463.349 -908.568)" fill="#c25210"/>
        <circle id="Elipse_6227" data-name="Elipse 6227" cx="0.531" cy="0.531" r="0.531" transform="matrix(0.678, -0.735, 0.735, 0.678, 3.756, 12.009)" fill="#c25210"/>
      </g>
    </g>
    <g id="Grupo_916395" data-name="Grupo 916395" transform="translate(7336.594 152.876)">
      <path id="Trazado_704049" data-name="Trazado 704049" d="M8010.734,415.024a4.035,4.035,0,0,0-.073-2.823,4.139,4.139,0,0,0-1.506-2.352,2.118,2.118,0,0,0-.677-1.467,2.415,2.415,0,0,0-.908-.582c.045-.465.069-.941.069-1.428a40.788,40.788,0,0,0-1.771-11.625c.325.16.66.3.992.45a9.085,9.085,0,0,0,1.177.428,6.358,6.358,0,0,1,.572.75,5.017,5.017,0,0,0,.6.77,6.594,6.594,0,0,0,.737.637,4.3,4.3,0,0,0,.866.512l.062-.06a4.292,4.292,0,0,0-.487-.88,6.573,6.573,0,0,0-.616-.755,5.006,5.006,0,0,0-.752-.622,6.232,6.232,0,0,1-.759-.617l-.04-.031a9.127,9.127,0,0,0-1-.78c-.35-.233-.693-.476-1.055-.688a6.624,6.624,0,0,0-.692-.341c-.177-.509-.361-1.008-.556-1.49-1.486.041-4.908.343-6.768,2.185a.619.619,0,0,0-.186.438v26.9c1.48-.871,7.3-4.65,9.127-11.166a1.991,1.991,0,0,0,1.055.393,5.539,5.539,0,0,0,.272,2.116,5.786,5.786,0,0,0,.886,1.789,21.886,21.886,0,0,1-.668,3.292c-.507,1.457-2.97,4.947-2.937,6.171-.008,0,.189-.107.5-.33a2.333,2.333,0,0,0-.271,1.1,10.009,10.009,0,0,0,4.736-4.852A7.5,7.5,0,0,0,8010.734,415.024Z" transform="translate(-7984.095 -377.015)" fill="#6e7d96"/>
      <path id="Trazado_704050" data-name="Trazado 704050" d="M7856.571,157.3a7.677,7.677,0,0,0,.7,1l.207.23c.07.074.145.142.217.213.146.14.3.277.45.408a9.434,9.434,0,0,0,.971.735,5.82,5.82,0,0,0,1.038.553l.442.617a8.671,8.671,0,0,0-1.507,1.4,8.32,8.32,0,0,0,8.342,0,8.975,8.975,0,0,0-1.283-1.23l.563-.784a5.787,5.787,0,0,0,1.038-.553,9.382,9.382,0,0,0,.971-.735c.155-.131.3-.268.45-.408.072-.071.146-.139.216-.213l.207-.23a7.677,7.677,0,0,0,.7-1,19.06,19.06,0,0,0,1.091-2.15q.48-1.1.875-2.24l-.1-.035c-.279.747-.591,1.483-.926,2.206a18.764,18.764,0,0,1-1.132,2.1,7.4,7.4,0,0,1-.7.947,8.022,8.022,0,0,1-.864.8,9.023,9.023,0,0,1-.958.688,5.838,5.838,0,0,1-.88.456l-.367-.973-.2.063.28,1.1-.542.755-.025-.017c0-.035.007-.07.007-.106,0-1-1.122-1.814-2.505-1.814-1.345,0-2.438.767-2.5,1.73l-.392-.548.279-1.1-.2-.063-.367.973a5.843,5.843,0,0,1-.881-.456,9.073,9.073,0,0,1-.958-.688,8.022,8.022,0,0,1-.864-.8,7.4,7.4,0,0,1-.7-.947,18.761,18.761,0,0,1-1.131-2.1c-.336-.723-.647-1.46-.927-2.206l-.1.035c.262.758.556,1.5.875,2.24A19.06,19.06,0,0,0,7856.571,157.3Z" transform="translate(-7849.739 -152.876)" fill="#6e7d96"/>
      <path id="Trazado_704051" data-name="Trazado 704051" d="M7889.837,262.605a4.808,4.808,0,0,0,.815-.451,1.379,1.379,0,0,0,.471-1.039c-.083-.493-.563-1.286-.615-1.6s.568-.638.689-1.267a.767.767,0,0,0-.554-.838,1.016,1.016,0,0,1-.727,1.626c-.4.008-.5-.526-.5-.526a.978.978,0,0,0-.209.675c.009.447.927,1.546.666,1.91a2.041,2.041,0,0,1-.763.371c-.123-.175-.247-.346-.373-.509a8.958,8.958,0,0,1-9.218,0c-.137.178-.271.364-.405.556a2.469,2.469,0,0,1-.9-.417c-.261-.363.656-1.463.666-1.91a.982.982,0,0,0-.21-.675s-.1.535-.5.526a1.016,1.016,0,0,1-.727-1.626s-.676.21-.555.838.741.955.689,1.267-.532,1.1-.614,1.6a1.378,1.378,0,0,0,.47,1.039,5.818,5.818,0,0,0,.95.514,23.387,23.387,0,0,0-1.263,2.51c1.7.067,5.075.458,7.011,2.421,1.937-1.963,5.309-2.354,7.011-2.421A23.3,23.3,0,0,0,7889.837,262.605Z" transform="translate(-7870.604 -250.848)" fill="#6e7d96"/>
      <path id="Trazado_704052" data-name="Trazado 704052" d="M7783.337,392.032c-.184.456-.358.926-.525,1.406a6.989,6.989,0,0,0-.9.425c-.36.212-.705.455-1.054.688a9.027,9.027,0,0,0-1,.78l-.041.031a6.184,6.184,0,0,1-.758.617,5.064,5.064,0,0,0-.753.622,6.616,6.616,0,0,0-.615.755,4.274,4.274,0,0,0-.488.88l.062.06a4.3,4.3,0,0,0,.867-.512,6.728,6.728,0,0,0,.737-.637,5.044,5.044,0,0,0,.6-.77,6.413,6.413,0,0,1,.573-.75,9.15,9.15,0,0,0,1.177-.428c.383-.171.772-.333,1.144-.525l.051-.029a40.818,40.818,0,0,0-1.8,11.729c0,.488.024.963.069,1.428a2.418,2.418,0,0,0-.908.582,2.116,2.116,0,0,0-.676,1.467,4.132,4.132,0,0,0-1.506,2.352,4.03,4.03,0,0,0-.073,2.823,7.5,7.5,0,0,0,.069,5.041,10.007,10.007,0,0,0,4.736,4.852,2.327,2.327,0,0,0-.271-1.1c.315.224.512.335.5.33.032-1.224-2.432-4.714-2.938-6.171a22.011,22.011,0,0,1-.668-3.292,5.764,5.764,0,0,0,.886-1.789,5.55,5.55,0,0,0,.273-2.116,1.99,1.99,0,0,0,1.055-.393c1.824,6.516,7.646,10.3,9.126,11.166v-26.9a.618.618,0,0,0-.185-.438C7788.245,392.375,7784.823,392.073,7783.337,392.032Z" transform="translate(-7777.114 -377.016)" fill="#6e7d96"/>
    </g>
    <g id="Grupo_916404" data-name="Grupo 916404" transform="translate(7373.255 159.863)">
      <g id="Grupo_916396" data-name="Grupo 916396" transform="translate(0 18.737)">
        <path id="Trazado_704053" data-name="Trazado 704053" d="M8374.446,563.955c2.649,1.629.858,3.3-1.471,4.457-2.5,1.247-5.383,1.112-8.07,1.6-2.133.39-4.564,1.594-3.739,4.375.475,1.6,3.205,3.669,2.486.961-.207-.781-1.414-1.092-1.047-2.157.313-.908,2.235-1.123,2.978-1.273,2.595-.524,5.3-.424,7.8-1.4,2.017-.791,4.719-2.563,4.215-5.106a4.6,4.6,0,0,0-2.162-2.692C8373.818,562.158,8373.3,563.253,8374.446,563.955Z" transform="translate(-8361.001 -562.565)" fill="#cfb089"/>
      </g>
      <g id="Grupo_916397" data-name="Grupo 916397" transform="translate(9.971 20.654)">
        <path id="Trazado_704054" data-name="Trazado 704054" d="M8532.761,594.985a11.076,11.076,0,0,1-.649,4.1,4.832,4.832,0,0,1-3.261,2.578c-2.552.8-5.429.511-7.691,2.026-1.758,1.177-2.046,3.139.635,1.577,2.795-1.628,6.5-.9,9.357-2.395a7.006,7.006,0,0,0,3.291-7.639c-.718-4.01-1.647-1.341-1.682-.247Z" transform="translate(-8519.81 -593.098)" fill="#cfb089"/>
      </g>
      <g id="Grupo_916398" data-name="Grupo 916398" transform="translate(6.783 1.442)">
        <path id="Trazado_704055" data-name="Trazado 704055" d="M8473.423,297.609a17.023,17.023,0,0,1-1.325-3.775c-.234-2.576,2.209-3.917,4.285-4.784,2.813-1.175,2.2-2.571-.511-1.622-3.526,1.236-6.9,4.421-5.462,8.417.379,1.054,3.024,5.278-.08,5.673-1.075.137-2.508,1.224.54,1.315C8473.219,302.9,8474.276,300.069,8473.423,297.609Z" transform="translate(-8469.036 -287.115)" fill="#cfb089"/>
      </g>
      <g id="Grupo_916399" data-name="Grupo 916399" transform="translate(25.476 18.437)">
        <path id="Trazado_704056" data-name="Trazado 704056" d="M8771.148,562.165c.154,1.439.034,2.655-1.148,3.473-1.589,1.1-3.1,1.873-3.247,4-.132,1.88,1.471,1.217,1.559.124.179-2.2,2.887-2.666,4.065-4.27,1.483-2.018-.579-3.538.627-6.208.85-1.88-.669-2.032-1.4-.206A6.71,6.71,0,0,0,8771.148,562.165Z" transform="translate(-8766.745 -557.792)" fill="#cfb089"/>
      </g>
      <g id="Grupo_916400" data-name="Grupo 916400" transform="translate(17.987 3.452)">
        <path id="Trazado_704057" data-name="Trazado 704057" d="M8650.553,336.447c-5.622-4.3,10.705-11.185,4.813-16.805-1.143-1.09-2.588-.246-1.259.936,2.965,2.635-2.472,6.077-4.29,8.161-2.215,2.54-3.8,6.7-.244,8.933,1.682,1.057,1.782-.61.98-1.225Z" transform="translate(-8647.478 -319.137)" fill="#cfb089"/>
      </g>
      <g id="Grupo_916401" data-name="Grupo 916401" transform="translate(0.872 9.772)">
        <path id="Trazado_704058" data-name="Trazado 704058" d="M8375.037,424.5c1.213,3.819,3.48,3.889,4.2,6.193.994,3.2,1.957,1.4,1.39-.612-.842-2.972-3.336-2.627-3.908-5.861a2.66,2.66,0,0,1,1.968-2.948c2.563-.8,2.534-1.793-.107-1.385C8377.056,420.118,8374.2,421.858,8375.037,424.5Z" transform="translate(-8374.886 -419.789)" fill="#cfb089"/>
      </g>
      <g id="Grupo_916402" data-name="Grupo 916402" transform="translate(13.822)">
        <path id="Trazado_704059" data-name="Trazado 704059" d="M8589.605,266.981c.873-1.484,1.241-4.966-1.119-.971-2.958,5.01-10.425,5.371-5.946,11.193,1.552,2.016,2.284.235,1.383-.771C8580.328,272.423,8586.679,271.947,8589.605,266.981Z" transform="translate(-8581.144 -264.156)" fill="#cfb089"/>
      </g>
      <g id="Grupo_916403" data-name="Grupo 916403" transform="translate(25.868 10.759)">
        <path id="Trazado_704060" data-name="Trazado 704060" d="M8777.794,436.907c1.678-1.2.016-1.827-1.064-1.072-4.624,3.228-4.1,6.248-2.966,9.434.974,2.741,2.07.607,1.409-.518C8773.477,441.869,8775.49,438.561,8777.794,436.907Z" transform="translate(-8772.985 -435.506)" fill="#cfb089"/>
      </g>
    </g>
    <g id="Grupo_916409" data-name="Grupo 916409" transform="translate(7390.074 245.631)">
      <g id="Grupo_916406" data-name="Grupo 916406" transform="translate(7.906 6.957)">
        <path id="Trazado_704061" data-name="Trazado 704061" d="M8759.795,1761.586c.079.083.159.165.239.247l.072.073-.042.094c-.056.122-.111.244-.169.366a1.362,1.362,0,0,0,.212,1.586c.089.08.179.16.27.24l.084.074-.047.1c-.057.123-.115.245-.173.369a1.283,1.283,0,0,0,.281,1.566c.1.079.194.156.294.234l.093.073-.05.107c-.057.123-.113.245-.172.368a1.24,1.24,0,0,0,.35,1.547c.106.078.306.235.313.241l.1.08,0,.007-.062.105a2.108,2.108,0,0,0-.227.657,1.173,1.173,0,0,0,.492,1.217c.079.056.16.11.24.166l.188.129-.049.112c-.052.121-.1.242-.153.364a1.2,1.2,0,0,0,0,.935,1.34,1.34,0,0,0,.762.719l.058.022.079.178-.021.058q-.07.179-.138.359a1.257,1.257,0,0,0,.549,1.492l.033.022.307.2.1.063-.036.11c-.04.117-.078.234-.117.351a1.321,1.321,0,0,0,.614,1.475l.338.223.09.06-.029.1c-.03.115-.062.229-.091.343a.957.957,0,0,0-.029.25,1.211,1.211,0,0,0,.18.614,1.009,1.009,0,0,0,.648.47l.089.019.024.087a2.161,2.161,0,0,0,.988,1.339c.324.179.585.218.753.113a.653.653,0,0,0,.227-.6,1.093,1.093,0,0,0-.095-.406.516.516,0,0,0-.211-.244.982.982,0,0,1-.413-1.3,1.674,1.674,0,0,0,.057-.23c-.055-.056-.144-.145-.214-.2a1.664,1.664,0,0,1-.556-1.707c.024-.071.05-.139.074-.207l.013-.035-.062-.045c-.056-.042-.111-.084-.167-.123a1.584,1.584,0,0,1-.61-1.858c.032-.083.064-.167.1-.25l-.23-.159a1.545,1.545,0,0,1-.58-1.875c.027-.067.072-.172.105-.251l-.222-.153a1.527,1.527,0,0,1-.555-1.893l.1-.224.012-.029-.225-.158a1.515,1.515,0,0,1-.479-.548,1.553,1.553,0,0,1-.033-1.348l.112-.255-.218-.16a1.56,1.56,0,0,1-.476-1.9c.038-.086.075-.171.112-.257l-.21-.163a1.613,1.613,0,0,1-.436-1.9c.036-.088.073-.175.108-.262l-.021-.018c-.058-.052-.111-.1-.169-.142a1.45,1.45,0,0,1-.45-1.8,2.725,2.725,0,0,1-.673-.8,1.357,1.357,0,0,1-.92-.005c-.028-.01-.053-.02-.077-.031-.029.067-.058.133-.088.2A1.5,1.5,0,0,0,8759.795,1761.586Zm2.551,5.794a.133.133,0,1,1-.088.162A.13.13,0,0,1,8762.346,1767.381Zm-.574-2.321a.133.133,0,1,1-.088.162A.131.131,0,0,1,8761.771,1765.06Zm-.45-2.355a.133.133,0,0,1,.07.256.133.133,0,0,1-.07-.256Zm-.441-2.082a.133.133,0,1,1-.089.162A.13.13,0,0,1,8760.88,1760.623Z" transform="translate(-8759.193 -1758.596)" fill="#f5bd7b"/>
        <g id="Grupo_916405" data-name="Grupo 916405" transform="translate(1.593 2.022)">
          <path id="Trazado_704062" data-name="Trazado 704062" d="M8859.258,2059.707a.128.128,0,1,0,.088-.162A.13.13,0,0,0,8859.258,2059.707Z" transform="translate(-8854.286 -2041.558)" fill="#cc842f"/>
          <path id="Trazado_704063" data-name="Trazado 704063" d="M8845.744,2026.144a.129.129,0,1,0,.089-.162A.131.131,0,0,0,8845.744,2026.144Z" transform="translate(-8841.621 -2010.102)" fill="#cc842f"/>
          <path id="Trazado_704064" data-name="Trazado 704064" d="M8833.64,1990a.128.128,0,1,0,.088-.162A.131.131,0,0,0,8833.64,1990Z" transform="translate(-8830.277 -1976.225)" fill="#cc842f"/>
          <path id="Trazado_704065" data-name="Trazado 704065" d="M8822.521,1953.578a.129.129,0,1,0,.089-.162A.131.131,0,0,0,8822.521,1953.578Z" transform="translate(-8819.855 -1942.093)" fill="#cc842f"/>
          <path id="Trazado_704066" data-name="Trazado 704066" d="M8812.667,1917.907a.131.131,0,0,0,.159.094.133.133,0,0,0-.07-.256A.132.132,0,0,0,8812.667,1917.907Z" transform="translate(-8810.62 -1908.661)" fill="#cc842f"/>
          <path id="Trazado_704067" data-name="Trazado 704067" d="M8803.519,1880.944a.129.129,0,1,0,.089-.162A.13.13,0,0,0,8803.519,1880.944Z" transform="translate(-8802.047 -1874.019)" fill="#cc842f"/>
          <path id="Trazado_704068" data-name="Trazado 704068" d="M8794.37,1843.981a.131.131,0,0,0,.159.094.133.133,0,0,0-.07-.256A.132.132,0,0,0,8794.37,1843.981Z" transform="translate(-8793.473 -1839.377)" fill="#cc842f"/>
          <path id="Trazado_704069" data-name="Trazado 704069" d="M8787.194,1806.473a.129.129,0,1,0,.089-.162A.131.131,0,0,0,8787.194,1806.473Z" transform="translate(-8786.748 -1804.224)" fill="#cc842f"/>
          <path id="Trazado_704070" data-name="Trazado 704070" d="M8780.156,1773.315a.129.129,0,1,0,.089-.162A.132.132,0,0,0,8780.156,1773.315Z" transform="translate(-8780.151 -1773.148)" fill="#cc842f"/>
        </g>
        <path id="Trazado_704071" data-name="Trazado 704071" d="M8755.09,1741.915c-.043.1-.085.191-.127.286a1.8,1.8,0,0,0,.2,1.936l.171.177c-.041.091-.083.181-.125.271a1.659,1.659,0,0,0,.283,1.934l.188.168-.126.266a1.58,1.58,0,0,0,.365,1.926l.2.163c-.039.088-.08.174-.12.261a1.532,1.532,0,0,0,.441,1.913c.044.032.106.08.163.124l.045.034a2.229,2.229,0,0,0-.211.71,1.461,1.461,0,0,0,.623,1.443l.229.159-.105.251a1.487,1.487,0,0,0,0,1.168,1.622,1.622,0,0,0,.838.843c-.035.09-.069.18-.1.27a1.555,1.555,0,0,0,.665,1.849l.033.022.21.137c-.027.081-.055.163-.081.245a1.617,1.617,0,0,0,.734,1.817l.246.163c-.022.081-.043.162-.063.242a1.442,1.442,0,0,0,.185,1.1,1.314,1.314,0,0,0,.752.583,2.442,2.442,0,0,0,1.108,1.436,1,1,0,0,0,1.054.106.907.907,0,0,0,.368-.81c0-.018,0-.035,0-.052a1.048,1.048,0,0,0-.47-.9.574.574,0,0,1-.319-.413.956.956,0,0,1,.053-.514,2.4,2.4,0,0,0,.083-.361l.009-.071-.049-.052a3.669,3.669,0,0,0-.29-.281,1.372,1.372,0,0,1-.464-1.382c.023-.069.048-.135.072-.2.017-.047.034-.094.051-.142l.037-.106-.091-.065c-.05-.035-.1-.072-.148-.109s-.116-.087-.175-.128a1.285,1.285,0,0,1-.5-1.506c.046-.12.093-.239.14-.358l.043-.11-.1-.068-.328-.226a1.247,1.247,0,0,1-.473-1.514c.05-.121.151-.362.151-.362l.046-.112-.1-.069s-.234-.162-.324-.223a1.234,1.234,0,0,1-.448-1.527l.158-.364.049-.113-.1-.07-.324-.227a1.207,1.207,0,0,1-.321-.331,1.253,1.253,0,0,1-.09-1.2l.209-.475-.1-.071c-.105-.076-.211-.153-.314-.23a1.26,1.26,0,0,1-.378-1.539c.053-.122.105-.243.157-.365l.045-.106-.091-.071-.3-.233a1.314,1.314,0,0,1-.345-1.548c.051-.121.1-.241.15-.362l.041-.1-.083-.07c-.033-.028-.065-.056-.1-.085-.06-.054-.122-.11-.189-.16a1.187,1.187,0,0,1-.312-1.533l.063-.116-.107-.078a2.52,2.52,0,0,1-.7-.817.461.461,0,0,0,.05-.081.654.654,0,0,0-.361-.911.92.92,0,0,0-1.062.384A.587.587,0,0,0,8755.09,1741.915Zm.309.24a1.361,1.361,0,0,0,.921.005,2.756,2.756,0,0,0,.673.8,1.45,1.45,0,0,0,.45,1.8c.058.042.111.091.169.143l.021.018c-.035.087-.071.174-.108.262a1.613,1.613,0,0,0,.436,1.9l.21.163-.111.257a1.559,1.559,0,0,0,.475,1.9l.218.16-.112.255a1.554,1.554,0,0,0,.033,1.348,1.525,1.525,0,0,0,.479.548l.226.158-.013.029-.1.224a1.527,1.527,0,0,0,.555,1.893l.222.153c-.033.079-.078.184-.105.251a1.545,1.545,0,0,0,.58,1.875l.23.159c-.032.083-.065.167-.1.25a1.584,1.584,0,0,0,.609,1.858c.056.039.111.081.168.123l.062.045a.236.236,0,0,0-.013.035c-.025.068-.05.136-.075.207a1.664,1.664,0,0,0,.556,1.707c.07.059.159.148.213.2a1.432,1.432,0,0,1-.056.23.982.982,0,0,0,.414,1.3.515.515,0,0,1,.21.244,1.092,1.092,0,0,1,.095.406.653.653,0,0,1-.227.6c-.168.1-.429.066-.753-.113a2.164,2.164,0,0,1-.988-1.339l-.024-.087-.09-.019a1.012,1.012,0,0,1-.647-.47,1.22,1.22,0,0,1-.18-.614,1,1,0,0,1,.029-.25c.03-.113.061-.228.092-.343l.027-.1-.089-.06-.338-.223a1.322,1.322,0,0,1-.614-1.474c.038-.118.078-.234.117-.351l.037-.11-.1-.063-.307-.2-.033-.022a1.258,1.258,0,0,1-.549-1.492q.067-.18.138-.359l.022-.057.047-.126-.127-.052-.058-.022a1.339,1.339,0,0,1-.762-.719,1.194,1.194,0,0,1,0-.935c.052-.121.1-.243.153-.364l.049-.112-.188-.129-.239-.166a1.172,1.172,0,0,1-.493-1.217,2.11,2.11,0,0,1,.227-.656l.063-.1,0-.007-.1-.08c-.009-.007-.208-.164-.314-.242a1.241,1.241,0,0,1-.35-1.547c.059-.123.115-.246.172-.368l.05-.107-.093-.073-.294-.234a1.283,1.283,0,0,1-.281-1.566c.058-.123.116-.245.173-.369l.047-.1-.084-.074c-.09-.079-.181-.159-.27-.239a1.362,1.362,0,0,1-.212-1.586c.058-.122.114-.244.169-.366l.043-.093-.072-.073q-.122-.123-.24-.247a1.494,1.494,0,0,1-.143-1.607c.03-.067.06-.133.088-.2C8755.347,1742.134,8755.371,1742.144,8755.4,1742.154Z" transform="translate(-8754.774 -1740.94)" fill="#cc842f"/>
      </g>
      <g id="Grupo_916407" data-name="Grupo 916407" transform="translate(11.624 0.792)">
        <path id="Trazado_704072" data-name="Trazado 704072" d="M8830.423,1682.051a1.834,1.834,0,0,0-.074-.927,2.082,2.082,0,0,1-.1-.516,1.127,1.127,0,0,1,.131-.554c.054-.1.106-.209.159-.314l-.176-.191a1.971,1.971,0,0,1-.212-2.115l.142-.309-.2-.192a1.963,1.963,0,0,1-.346-2.1c.043-.1.083-.2.124-.3l-.213-.191a1.952,1.952,0,0,1-.477-2.073c.035-.1.071-.2.105-.3l-.231-.191a1.953,1.953,0,0,1-.607-2.039l.029-.092c.021-.066.04-.131.061-.2l-.25-.189a1.977,1.977,0,0,1-.734-2l.073-.281-.269-.184a1.971,1.971,0,0,1-.859-1.949c.02-.091.039-.181.058-.272l-.285-.179a1.985,1.985,0,0,1-.983-1.891c.016-.087.029-.175.043-.262l-.3-.174a2.018,2.018,0,0,1-1.1-1.826c.009-.073.017-.146.025-.219a3.281,3.281,0,0,1-1.66-.87l0,0a1.661,1.661,0,0,1-.578.491.676.676,0,0,1-.474.083c0,.034,0,.068-.009.1a1.755,1.755,0,0,0,1,1.5l.408.222.091.05-.014.1q-.023.181-.05.362a1.691,1.691,0,0,0,.9,1.555l.386.233.091.055-.019.1c-.022.124-.046.248-.069.372a1.667,1.667,0,0,0,.789,1.609l.367.241.088.059-.024.1c-.028.127-.06.254-.089.381a1.648,1.648,0,0,0,.678,1.656l.346.249.087.062-.029.1c-.036.129-.073.259-.109.389a1.464,1.464,0,0,0-.038.17,1.626,1.626,0,0,0,.117.885,1.644,1.644,0,0,0,.486.639l.326.257.083.066-.034.1c-.043.131-.086.264-.131.4a1.639,1.639,0,0,0,.452,1.728c.1.087.2.174.3.262l.08.07-.038.1-.152.4a1.643,1.643,0,0,0,.336,1.754l.281.266.078.073-.042.1c-.058.135-.115.27-.174.405a1.654,1.654,0,0,0,.216,1.773l.262.269.073.076-.046.1c-.064.136-.131.273-.2.409a1.68,1.68,0,0,0,.1,1.786c.081.09.161.18.239.271l.039.045v.059a2.04,2.04,0,0,0,.475,1.516c.156.185.385.394.582.34.275-.074.536-.636.682-1.466C8830.42,1682.068,8830.422,1682.057,8830.423,1682.051Zm-7.132-21.54a.146.146,0,1,1,.086-.176A.139.139,0,0,1,8823.291,1660.511Zm1.41,2.228a.146.146,0,1,1,.085-.176A.139.139,0,0,1,8824.7,1662.739Zm1.221,2.283a.146.146,0,1,1,.086-.176A.14.14,0,0,1,8825.922,1665.022Zm.988,2.427a.137.137,0,0,1-.166-.1.132.132,0,1,1,.166.1Zm.926,2.446a.125.125,0,0,1-.125-.034.142.142,0,0,1-.041-.068.132.132,0,1,1,.252-.074.164.164,0,0,1,0,.084A.13.13,0,0,1,8827.836,1669.9Zm.7,2.363a.146.146,0,0,1-.081-.278.145.145,0,0,1,.081.278Zm.568,2.626a.146.146,0,0,1-.082-.278.145.145,0,0,1,.082.278Zm.422,2.594a.146.146,0,1,1,.084-.176A.138.138,0,0,1,8829.521,1677.478Zm.211,2.58a.138.138,0,0,1-.167-.1.132.132,0,1,1,.167.1Z" transform="translate(-8820.772 -1658.127)" fill="#f5bd7b"/>
        <path id="Trazado_704073" data-name="Trazado 704073" d="M8823.938,1666.741a2.113,2.113,0,0,0-.08-1.07,1.039,1.039,0,0,1,.011-.849c.07-.136.14-.272.209-.409l.048-.094-.072-.078c-.082-.09-.166-.18-.25-.27a1.666,1.666,0,0,1-.156-1.781c.062-.136.125-.272.186-.407l.044-.1-.075-.075q-.135-.134-.272-.268a1.649,1.649,0,0,1-.275-1.765c.055-.135.109-.269.163-.4l.04-.1-.079-.071c-.1-.088-.194-.176-.293-.264a1.638,1.638,0,0,1-.394-1.742c.048-.133.095-.266.142-.4l.036-.1-.083-.068c-.1-.087-.209-.173-.314-.26a1.639,1.639,0,0,1-.509-1.712c.029-.093.058-.186.086-.278l.035-.114.031-.1-.085-.064-.335-.253a1.558,1.558,0,0,1-.2-.182,1.625,1.625,0,0,1-.419-1.494c.034-.129.067-.258.1-.385l.025-.1-.087-.061-.357-.246a1.656,1.656,0,0,1-.732-1.632l.079-.377.021-.1-.09-.056-.376-.237a1.678,1.678,0,0,1-.844-1.583c.021-.123.04-.245.06-.367l.017-.1-.091-.052-.4-.227a1.706,1.706,0,0,1-.951-1.526c.014-.12.026-.238.039-.357l.016-.139-.137-.027a2.885,2.885,0,0,1-1.684-.875l-.023-.034a.475.475,0,0,0-.02-.325.8.8,0,0,0-1.113-.289.864.864,0,0,0-.478,1.088,1.176,1.176,0,0,0,.116.2c-.008.1-.016.19-.024.286a2.034,2.034,0,0,0,1.163,1.79l.313.171c-.011.085-.023.17-.035.256a2,2,0,0,0,1.044,1.86l.294.177c-.016.089-.032.178-.049.267a1.974,1.974,0,0,0,.921,1.92l.277.182-.064.277a1.96,1.96,0,0,0,.8,1.974l.26.187-.082.285a1.686,1.686,0,0,0-.061.334,1.977,1.977,0,0,0,.731,1.685c.08.063.161.125.241.189-.032.1-.064.195-.1.292a1.954,1.954,0,0,0,.542,2.057l.223.191-.114.3a1.956,1.956,0,0,0,.412,2.087l.2.192c-.044.1-.088.2-.133.307a1.966,1.966,0,0,0,.279,2.108l.187.192c-.051.1-.1.207-.15.312a1.986,1.986,0,0,0,.142,2.122c.067.075.134.15.2.225a2.3,2.3,0,0,0,.549,1.662c.312.367.613.514.9.437.521-.142.779-1.007.9-1.709Zm-.988,1.438c-.2.054-.426-.155-.583-.34a2.052,2.052,0,0,1-.475-1.516l0-.059-.04-.045c-.078-.09-.158-.181-.238-.271a1.676,1.676,0,0,1-.1-1.786c.065-.136.132-.272.2-.409l.046-.1-.073-.076-.261-.269a1.656,1.656,0,0,1-.218-1.773q.089-.2.176-.405l.041-.1-.077-.073c-.094-.089-.188-.178-.283-.266a1.647,1.647,0,0,1-.335-1.754l.153-.4.037-.1-.08-.07-.3-.262a1.637,1.637,0,0,1-.451-1.728c.044-.132.087-.264.131-.4l.033-.1-.083-.066-.325-.257a1.651,1.651,0,0,1-.6-1.525,1.449,1.449,0,0,1,.037-.17c.037-.13.075-.26.111-.389l.028-.1-.086-.062-.346-.249a1.647,1.647,0,0,1-.679-1.656c.03-.127.061-.254.09-.381l.023-.1-.088-.059-.367-.241a1.667,1.667,0,0,1-.789-1.609c.023-.124.047-.248.069-.372l.02-.1-.091-.055-.387-.232a1.69,1.69,0,0,1-.9-1.555l.05-.362.014-.1-.092-.051-.407-.222a1.753,1.753,0,0,1-1-1.5l.009-.1a.672.672,0,0,0,.473-.083,1.663,1.663,0,0,0,.579-.491l0,0a3.277,3.277,0,0,0,1.659.87c-.008.073-.016.146-.024.219a2.016,2.016,0,0,0,1.1,1.826l.3.175c-.014.087-.027.175-.043.262a1.989,1.989,0,0,0,.983,1.891l.286.179c-.02.091-.039.181-.058.272a1.97,1.97,0,0,0,.859,1.949l.268.184c-.023.094-.048.187-.072.281a1.919,1.919,0,0,0,.384,1.655,1.965,1.965,0,0,0,.35.342c.084.063.168.125.25.188-.021.066-.04.131-.062.2-.009.031-.018.061-.028.092a1.953,1.953,0,0,0,.607,2.039l.231.191c-.034.1-.07.2-.105.3a1.952,1.952,0,0,0,.477,2.073l.214.191c-.042.1-.082.2-.124.3a1.961,1.961,0,0,0,.346,2.1c.065.064.131.128.194.192l-.141.309a1.974,1.974,0,0,0,.21,2.115l.178.191-.16.314a1.116,1.116,0,0,0-.131.554,2.127,2.127,0,0,0,.1.516,1.823,1.823,0,0,1,.074.927l-.006.033C8823.485,1667.543,8823.225,1668.105,8822.949,1668.179Z" transform="translate(-8813.988 -1642.757)" fill="#cc842f"/>
        <path id="Trazado_704074" data-name="Trazado 704074" d="M8851.424,1676.222a.145.145,0,1,0,.167.1A.139.139,0,0,0,8851.424,1676.222Z" transform="translate(-8848.987 -1674.116)" fill="#cc842f"/>
        <path id="Trazado_704075" data-name="Trazado 704075" d="M8873.873,1711.7a.146.146,0,1,0,.167.1A.139.139,0,0,0,8873.873,1711.7Z" transform="translate(-8870.026 -1707.368)" fill="#cc842f"/>
        <path id="Trazado_704076" data-name="Trazado 704076" d="M8893.312,1748.069a.146.146,0,1,0,.167.1A.139.139,0,0,0,8893.312,1748.069Z" transform="translate(-8888.245 -1741.452)" fill="#cc842f"/>
        <path id="Trazado_704077" data-name="Trazado 704077" d="M8909.06,1786.725a.146.146,0,1,0,.167.1A.139.139,0,0,0,8909.06,1786.725Z" transform="translate(-8903.005 -1777.681)" fill="#cc842f"/>
        <path id="Trazado_704078" data-name="Trazado 704078" d="M8923.971,1825.783a.132.132,0,1,0-.252.074.158.158,0,0,0,.041.068.127.127,0,0,0,.126.034.13.13,0,0,0,.087-.092A.154.154,0,0,0,8923.971,1825.783Z" transform="translate(-8916.823 -1814.191)" fill="#cc842f"/>
        <path id="Trazado_704079" data-name="Trazado 704079" d="M8934.882,1863.3a.145.145,0,1,0,.167.1A.139.139,0,0,0,8934.882,1863.3Z" transform="translate(-8927.204 -1849.45)" fill="#cc842f"/>
        <path id="Trazado_704080" data-name="Trazado 704080" d="M8943.925,1905.135a.146.146,0,1,0,.167.1A.139.139,0,0,0,8943.925,1905.135Z" transform="translate(-8935.681 -1888.656)" fill="#cc842f"/>
        <path id="Trazado_704081" data-name="Trazado 704081" d="M8950.636,1946.452a.146.146,0,1,0,.167.1A.138.138,0,0,0,8950.636,1946.452Z" transform="translate(-8941.97 -1927.379)" fill="#cc842f"/>
        <path id="Trazado_704082" data-name="Trazado 704082" d="M8954.006,1987.55a.146.146,0,1,0,.167.1A.139.139,0,0,0,8954.006,1987.55Z" transform="translate(-8945.128 -1965.896)" fill="#cc842f"/>
      </g>
      <g id="Grupo_916408" data-name="Grupo 916408">
        <path id="Trazado_704083" data-name="Trazado 704083" d="M8629.348,1630.92a1.462,1.462,0,0,0,.015.212.233.233,0,0,0-.036.049,2.482,2.482,0,0,0-.135,2.506c.063.1.125.2.188.306q-.1.2-.2.4a2.733,2.733,0,0,0,.052,2.646l.207.308c-.061.133-.123.266-.184.4a2.74,2.74,0,0,0,.186,2.647l.227.31-.164.4a2.739,2.739,0,0,0,.318,2.64l.244.31c-.049.131-.1.262-.145.393a2.74,2.74,0,0,0,.447,2.624c.088.1.176.206.266.309-.044.13-.086.259-.128.388a2.74,2.74,0,0,0,.577,2.6l.281.306c-.036.128-.072.255-.109.383a2.744,2.744,0,0,0,.705,2.564l.3.3c-.031.125-.062.25-.092.375a2.74,2.74,0,0,0,.83,2.521l.318.3c-.024.122-.049.244-.074.366a1.927,1.927,0,0,0,1,2.078,2.506,2.506,0,0,0,2.344,1.833c.267-.022.635-.081.754-.345a.414.414,0,0,0,.035-.151,1.7,1.7,0,0,0-.471-.909,2.812,2.812,0,0,1-.477-.78,3.508,3.508,0,0,1,.021-1.6l.023-.131-.067-.06a.912.912,0,0,0-.1-.075,1.759,1.759,0,0,1-.9-1.822c.021-.1.045-.211.069-.314.011-.047.022-.093.032-.14l.02-.088-.064-.063-.375-.362a2.411,2.411,0,0,1-.681-2.232q.062-.233.124-.465l.023-.087-.062-.065c-.119-.123-.236-.245-.354-.369a2.4,2.4,0,0,1-.566-2.268c.047-.157.1-.314.145-.47l.026-.087-.061-.068-.333-.375a2.408,2.408,0,0,1-.449-2.294c.054-.158.109-.317.165-.475l.03-.086-.059-.07-.311-.379a2.407,2.407,0,0,1-.333-2.313q.092-.239.188-.478l.034-.084-.056-.072q-.146-.19-.29-.381a2.407,2.407,0,0,1-.214-2.323q.1-.24.21-.48l.035-.083-.051-.074-.27-.382a2.4,2.4,0,0,1-.093-2.324,1.216,1.216,0,0,1,.124-.191,1.5,1.5,0,0,0,.152-.239l.04-.082-.05-.076c-.034-.053-.076-.115-.121-.177-.061-.087-.123-.178-.167-.251a1.353,1.353,0,0,1-.024-1.682l.111-.111-.109-.113a3.647,3.647,0,0,1-.808-1.425.507.507,0,0,0,.169-.37.958.958,0,0,0-.922-.9A.817.817,0,0,0,8629.348,1630.92Z" transform="translate(-8628.862 -1630.145)" fill="#f5bd7b"/>
        <path id="Trazado_704084" data-name="Trazado 704084" d="M8629.348,1630.92a1.462,1.462,0,0,0,.015.212.233.233,0,0,0-.036.049,2.482,2.482,0,0,0-.135,2.506c.063.1.125.2.188.306q-.1.2-.2.4a2.733,2.733,0,0,0,.052,2.646l.207.308c-.061.133-.123.266-.184.4a2.74,2.74,0,0,0,.186,2.647l.227.31-.164.4a2.739,2.739,0,0,0,.318,2.64l.244.31c-.049.131-.1.262-.145.393a2.74,2.74,0,0,0,.447,2.624c.088.1.176.206.266.309-.044.13-.086.259-.128.388a2.74,2.74,0,0,0,.577,2.6l.281.306c-.036.128-.072.255-.109.383a2.744,2.744,0,0,0,.705,2.564l.3.3c-.031.125-.062.25-.092.375a2.74,2.74,0,0,0,.83,2.521l.318.3c-.024.122-.049.244-.074.366a1.927,1.927,0,0,0,1,2.078,2.506,2.506,0,0,0,2.344,1.833c.267-.022.635-.081.754-.345a.414.414,0,0,0,.035-.151,1.7,1.7,0,0,0-.471-.909,2.812,2.812,0,0,1-.477-.78,3.508,3.508,0,0,1,.021-1.6l.023-.131-.067-.06a.912.912,0,0,0-.1-.075,1.759,1.759,0,0,1-.9-1.822c.021-.1.045-.211.069-.314.011-.047.022-.093.032-.14l.02-.088-.064-.063-.375-.362a2.411,2.411,0,0,1-.681-2.232q.062-.233.124-.465l.023-.087-.062-.065c-.119-.123-.236-.245-.354-.369a2.4,2.4,0,0,1-.566-2.268c.047-.157.1-.314.145-.47l.026-.087-.061-.068-.333-.375a2.408,2.408,0,0,1-.449-2.294c.054-.158.109-.317.165-.475l.03-.086-.059-.07-.311-.379a2.407,2.407,0,0,1-.333-2.313q.092-.239.188-.478l.034-.084-.056-.072q-.146-.19-.29-.381a2.407,2.407,0,0,1-.214-2.323q.1-.24.21-.48l.035-.083-.051-.074-.27-.382a2.4,2.4,0,0,1-.093-2.324,1.216,1.216,0,0,1,.124-.191,1.5,1.5,0,0,0,.152-.239l.04-.082-.05-.076c-.034-.053-.076-.115-.121-.177-.061-.087-.123-.178-.167-.251a1.353,1.353,0,0,1-.024-1.682l.111-.111-.109-.113a3.647,3.647,0,0,1-.808-1.425.507.507,0,0,0,.169-.37.958.958,0,0,0-.922-.9A.817.817,0,0,0,8629.348,1630.92Zm1.4.679a3.9,3.9,0,0,0,.767,1.361,1.734,1.734,0,0,0,.071,1.951c.049.083.115.178.18.27l.061.089c-.023.037-.051.074-.078.111a1.393,1.393,0,0,0-.154.242,2.732,2.732,0,0,0,.119,2.647c.071.1.145.206.217.31-.059.133-.117.265-.174.4a2.742,2.742,0,0,0,.252,2.644l.236.311c-.053.132-.1.263-.155.395a2.738,2.738,0,0,0,.384,2.633l.254.31c-.045.131-.091.261-.136.391a2.741,2.741,0,0,0,.513,2.612l.273.308-.117.385a2.741,2.741,0,0,0,.641,2.583l.292.3c-.034.127-.067.253-.1.379a2.742,2.742,0,0,0,.768,2.544q.154.15.311.3c0,.016-.008.033-.013.049-.024.106-.051.216-.071.327a2.073,2.073,0,0,0,1.038,2.146h0a3.745,3.745,0,0,0,0,1.692,3.032,3.032,0,0,0,.529.885c.2.27.457.607.4.737-.014.029-.086.124-.486.157-1.091.089-1.795-1.014-2.038-1.679l-.021-.056-.053-.029a1.648,1.648,0,0,1-.923-1.523,1.7,1.7,0,0,1,.03-.24c.031-.151.061-.3.093-.454l.019-.089-.066-.061c-.129-.119-.258-.238-.385-.358a2.406,2.406,0,0,1-.737-2.211c.038-.154.075-.308.113-.462l.021-.088-.063-.064c-.123-.122-.243-.244-.365-.366a2.411,2.411,0,0,1-.623-2.251l.135-.468.025-.087-.062-.066-.343-.372a2.407,2.407,0,0,1-.509-2.282q.078-.236.156-.473l.027-.086-.059-.069-.322-.377a2.406,2.406,0,0,1-.391-2.3q.088-.239.177-.477l.031-.085-.056-.071c-.1-.127-.2-.253-.3-.38a2.4,2.4,0,0,1-.273-2.319q.1-.239.2-.479l.036-.084-.054-.073-.279-.382a2.4,2.4,0,0,1-.153-2.324c.073-.16.146-.32.222-.48l.037-.082-.051-.075-.258-.382a2.4,2.4,0,0,1-.031-2.322c.08-.16.162-.319.243-.479l.042-.081-.049-.077c-.078-.127-.158-.254-.236-.382a2.1,2.1,0,0,1,.056-2.014.707.707,0,0,0,.513.218A1.563,1.563,0,0,0,8630.744,1631.6Z" transform="translate(-8628.862 -1630.145)" fill="#cc842f"/>
        <path id="Trazado_704085" data-name="Trazado 704085" d="M8728.761,2070.939a.148.148,0,0,0,.163.132.151.151,0,0,0,.1-.183.138.138,0,1,0-.268.051Z" transform="translate(-8722.485 -2043.089)" fill="#cc842f"/>
        <path id="Trazado_704086" data-name="Trazado 704086" d="M8712.895,2027.191a.138.138,0,1,0,.1-.183A.151.151,0,0,0,8712.895,2027.191Z" transform="translate(-8707.615 -2002.088)" fill="#cc842f"/>
        <path id="Trazado_704087" data-name="Trazado 704087" d="M8697.757,1975.51a.148.148,0,0,0,.163.132.151.151,0,0,0,.1-.183.138.138,0,1,0-.268.051Z" transform="translate(-8693.429 -1953.652)" fill="#cc842f"/>
        <path id="Trazado_704088" data-name="Trazado 704088" d="M8684.981,1924.679a.148.148,0,0,0,.162.132.152.152,0,0,0,.105-.183.138.138,0,1,0-.268.051Z" transform="translate(-8681.455 -1906.012)" fill="#cc842f"/>
        <path id="Trazado_704089" data-name="Trazado 704089" d="M8675.165,1871.986a.148.148,0,0,0,.162.132.152.152,0,0,0,.105-.183.138.138,0,1,0-.268.051Z" transform="translate(-8672.255 -1856.628)" fill="#cc842f"/>
        <path id="Trazado_704090" data-name="Trazado 704090" d="M8667.244,1817.633a.148.148,0,0,0,.162.132.151.151,0,0,0,.105-.183.138.138,0,1,0-.268.051Z" transform="translate(-8664.831 -1805.688)" fill="#cc842f"/>
        <path id="Trazado_704091" data-name="Trazado 704091" d="M8662.518,1762.674a.149.149,0,0,0,.163.132.162.162,0,0,0-.059-.315A.149.149,0,0,0,8662.518,1762.674Z" transform="translate(-8660.4 -1754.179)" fill="#cc842f"/>
        <path id="Trazado_704092" data-name="Trazado 704092" d="M8659.321,1710.021a.149.149,0,0,0,.163.132.151.151,0,0,0,.1-.183.138.138,0,1,0-.268.051Z" transform="translate(-8657.406 -1704.833)" fill="#cc842f"/>
        <path id="Trazado_704093" data-name="Trazado 704093" d="M8657.036,1674.083a.148.148,0,0,0,.162.132.162.162,0,1,0-.162-.132Z" transform="translate(-8655.265 -1671.151)" fill="#cc842f"/>
      </g>
    </g>
    <path id="Trazado_704094" data-name="Trazado 704094" d="M7760.95,2275.786a.3.3,0,0,0-.231.021l-2.4,1.28-.048-.057a.3.3,0,0,0-.351-.069l-2.668,1.283c-.015-.014-.028-.03-.044-.044a.3.3,0,0,0-.351-.041l-3.628,2.064c-.047-.043-.1-.086-.146-.127a.3.3,0,0,0-.361-.01l-3.147,2.252c-.024-.019-.047-.039-.073-.057a.3.3,0,0,0-.355.009l-2.868,2.3c-.044-.1-.09-.19-.138-.283a5.965,5.965,0,0,0,1.552-3.71,20.37,20.37,0,0,1,.31-2.454.267.267,0,0,0-.083-.248,3.11,3.11,0,0,0-.25-.2l1.708-2.938a.273.273,0,0,0-.024-.307c-.042-.053-.084-.1-.128-.152l3-3.568a.278.278,0,0,0,.039-.3,2.74,2.74,0,0,0-.192-.329l2.038-2.076a.27.27,0,0,0,.052-.306c-.021-.042-.044-.08-.067-.119l1.827-2.8a.268.268,0,0,0-.017-.319,1.378,1.378,0,0,0-.986-.479.273.273,0,0,0-.256.136l-1.591,2.782-.056-.01a.274.274,0,0,0-.256.108l-1.676,2.273a2.56,2.56,0,0,0-.572-.155.273.273,0,0,0-.27.122l-2.734,4.19c-.1-.008-.2-.013-.3-.012a.273.273,0,0,0-.253.173l-1.385,3.551-.041,0a.274.274,0,0,0-.247.2c-.475,1.825.158,2.156-.219,3.725a4.068,4.068,0,0,1-.614,1.188q-.156-.12-.32-.229a3.759,3.759,0,0,0,.467-3.091,8.146,8.146,0,0,1-.3-1.93.209.209,0,0,0-.119-.17c-.068-.032-.136-.059-.206-.083l.362-1.141a.3.3,0,0,0-.055-.283,1.264,1.264,0,0,0-1.893-.244.3.3,0,0,0-.136.255l.012,1.447-.061.02a.223.223,0,0,0-.143.217c.042,1.481.667,1.667.726,2.938a3.513,3.513,0,0,1-.213,1.287v-.6a.759.759,0,0,0-.758-.759h-.012a.758.758,0,1,1-1.517,0h-.012a.758.758,0,0,0-.759.759v.6a3.5,3.5,0,0,1-.213-1.287c.059-1.27.684-1.457.726-2.937a.224.224,0,0,0-.143-.217l-.062-.02.013-1.447a.3.3,0,0,0-.136-.255,1.264,1.264,0,0,0-1.893.244.3.3,0,0,0-.055.283l.362,1.141c-.069.025-.138.051-.206.083a.209.209,0,0,0-.118.17,8.151,8.151,0,0,1-.3,1.93,3.763,3.763,0,0,0,.467,3.091q-.164.109-.32.229a4.08,4.08,0,0,1-.614-1.188c-.376-1.569.256-1.9-.219-3.725a.275.275,0,0,0-.247-.2l-.041,0-1.385-3.551a.274.274,0,0,0-.254-.173c-.1,0-.2,0-.3.012l-2.734-4.19a.273.273,0,0,0-.27-.122,2.553,2.553,0,0,0-.572.155l-1.676-2.273a.274.274,0,0,0-.256-.108l-.056.01-1.592-2.782a.274.274,0,0,0-.256-.136,1.377,1.377,0,0,0-.986.479.267.267,0,0,0-.017.319l1.827,2.8c-.023.039-.046.077-.066.119a.269.269,0,0,0,.051.306L7728,2270.1a2.617,2.617,0,0,0-.193.329.278.278,0,0,0,.039.3l3,3.568c-.044.049-.087.1-.129.152a.275.275,0,0,0-.023.307l1.708,2.938a2.94,2.94,0,0,0-.25.2.265.265,0,0,0-.084.248,20.37,20.37,0,0,1,.31,2.454,5.963,5.963,0,0,0,1.553,3.71c-.049.093-.095.188-.139.283l-2.868-2.3a.3.3,0,0,0-.355-.009c-.025.018-.048.039-.073.057l-3.146-2.252a.3.3,0,0,0-.361.01c-.051.041-.1.084-.146.127l-3.628-2.064a.3.3,0,0,0-.35.041c-.016.014-.029.03-.043.044l-2.669-1.283a.3.3,0,0,0-.351.069l-.048.057-2.4-1.28a.3.3,0,0,0-.232-.021.593.593,0,0,0-.391.724.3.3,0,0,0,.162.225l2.406,1.2a1.226,1.226,0,0,0-.023.278.292.292,0,0,0,.194.26l2.7.993a1.923,1.923,0,0,0-.013.207.3.3,0,0,0,.171.272l3.614,1.716c-.018.066-.036.132-.05.2a.3.3,0,0,0,.138.314l3.233,1.968c-.028.1-.054.2-.075.3a.3.3,0,0,0,.113.3l3.92,2.719q.01.317.05.626c-1.969.45-3.228,1.078-4.092,2.664.029.073.058.149.09.227l-2.978,3.4a.33.33,0,0,0-.028.384,3.3,3.3,0,0,0,.2.267l-1.934,2.636a.227.227,0,0,0-.016.245,2.239,2.239,0,0,0,.188.278l-1.53,2.676a.288.288,0,0,0,0,.289,1.686,1.686,0,0,0,.159.22l-.887,2.967a.284.284,0,0,0,.063.291,1.075,1.075,0,0,0,.974.282.338.338,0,0,0,.244-.255l.7-2.816a.3.3,0,0,0,.247-.187l1.14-2.8a2.264,2.264,0,0,0,.228.034.231.231,0,0,0,.222-.117l1.619-2.882c.025.006.048.014.074.019a.334.334,0,0,0,.336-.148l2.378-3.476a3.772,3.772,0,0,0,.532.119,5.516,5.516,0,0,1,2.742-2.194q.1.2.219.384c-1.723,1.189-2.69,2.253-2.9,4.086l.169.177-1.476,4.274a.33.33,0,0,0,.118.366,3.144,3.144,0,0,0,.291.171l-.8,3.171a.226.226,0,0,0,.078.233,2.218,2.218,0,0,0,.279.187l-.408,3.056a.287.287,0,0,0,.107.269,1.653,1.653,0,0,0,.23.144l.3,3.083a.284.284,0,0,0,.168.246,1.074,1.074,0,0,0,1.008-.107.336.336,0,0,0,.129-.328l-.417-2.87a.3.3,0,0,0,.159-.266v-3.019a2.3,2.3,0,0,0,.224-.054.231.231,0,0,0,.161-.192l.413-3.279c.025,0,.05-.006.075-.01a.334.334,0,0,0,.255-.263l.892-4.116a3.757,3.757,0,0,0,.538-.09,5.48,5.48,0,0,1,1.89-3.222,5.787,5.787,0,0,0,.6.4,11.956,11.956,0,0,0-2.437,7.352c0,4.255,2.338,6.529,5.223,6.529s5.223-2.274,5.223-6.529a11.956,11.956,0,0,0-2.437-7.352,5.787,5.787,0,0,0,.6-.4,5.483,5.483,0,0,1,1.89,3.222,3.774,3.774,0,0,0,.538.09l.893,4.116a.333.333,0,0,0,.255.263c.025,0,.05.006.075.01l.413,3.279a.23.23,0,0,0,.161.192c.076.023.15.04.224.054v3.019a.3.3,0,0,0,.159.266l-.417,2.87a.338.338,0,0,0,.129.328,1.075,1.075,0,0,0,1.009.107.283.283,0,0,0,.167-.246l.3-3.083a1.687,1.687,0,0,0,.23-.144.287.287,0,0,0,.107-.269l-.408-3.056a2.218,2.218,0,0,0,.279-.187.227.227,0,0,0,.078-.233l-.8-3.171a3.209,3.209,0,0,0,.291-.171.329.329,0,0,0,.118-.366l-1.476-4.274.169-.177c-.208-1.833-1.175-2.9-2.9-4.086q.116-.187.219-.384a5.516,5.516,0,0,1,2.742,2.194,3.772,3.772,0,0,0,.532-.119l2.378,3.476a.334.334,0,0,0,.336.148c.025-.005.048-.013.074-.019l1.619,2.882a.231.231,0,0,0,.222.117c.079-.007.154-.02.228-.034l1.14,2.8a.3.3,0,0,0,.247.187l.7,2.816a.338.338,0,0,0,.244.255,1.075,1.075,0,0,0,.974-.282.285.285,0,0,0,.063-.291l-.887-2.967a1.644,1.644,0,0,0,.159-.22.289.289,0,0,0,0-.289l-1.53-2.676a2.239,2.239,0,0,0,.188-.278.226.226,0,0,0-.016-.245l-1.935-2.636a3.192,3.192,0,0,0,.2-.267.33.33,0,0,0-.028-.384l-2.978-3.4c.031-.078.061-.155.089-.227-.864-1.585-2.123-2.213-4.091-2.664q.04-.308.05-.626l3.92-2.719a.3.3,0,0,0,.113-.3c-.021-.1-.047-.2-.074-.3l3.233-1.968a.3.3,0,0,0,.137-.314c-.014-.069-.032-.135-.049-.2l3.614-1.716a.3.3,0,0,0,.171-.272,2.057,2.057,0,0,0-.013-.207l2.7-.993a.293.293,0,0,0,.195-.26,1.255,1.255,0,0,0-.024-.278l2.407-1.2a.3.3,0,0,0,.162-.225A.593.593,0,0,0,7760.95,2275.786Z" transform="translate(-383.929 -1978.57)" fill="#b05c47"/>
  </g>
</svg>
