<svg xmlns="http://www.w3.org/2000/svg" xmlns:xlink="http://www.w3.org/1999/xlink" width="364" height="364" viewBox="0 0 364 364">
  <defs>
    <filter id="Elipse_6088" x="0" y="0" width="364" height="364" filterUnits="userSpaceOnUse">
      <feOffset dy="3" input="SourceAlpha"/>
      <feGaussianBlur stdDeviation="3" result="blur"/>
      <feFlood flood-opacity="0.161"/>
      <feComposite operator="in" in2="blur"/>
      <feComposite in="SourceGraphic"/>
    </filter>
  </defs>
  <g id="Grupo_914493" data-name="Grupo 914493" transform="translate(-1037 -12070)">
    <g transform="matrix(1, 0, 0, 1, 1037, 12070)" filter="url(#Elipse_6088)">
      <circle id="Elipse_6088-2" data-name="Elipse 6088" cx="173" cy="173" r="173" transform="translate(9 6)" fill="#fcf1ea"/>
    </g>
    <path id="Trazado_254296" data-name="Trazado 254296" d="M64.724,222.277c.187-13.227-22.366-35.213-26.594-73.239-3.526-31.53,18.153-59.295,38.937-69.5,19.4-9.513,28.992-6.06,41.954-13.9,18.137-10.975,20.342-36.248,47.02-45.074,12.681-4.2,26.136-.77,38.094,5.539S227.311,40.882,239.9,45.147c12.676,4.3,26.105,3.246,39.259,2.018,44.383-4.161,72.953,34.329,71.3,65.848-.978,18.725-7.043,31.437-15.567,42.6-4.8,6.273-11.89,13.17-9.55,21.148,1.04,3.641,3.885,6.054,6.242,8.743,7.864,9.066,10.673,24.446,7.2,36.773Z" transform="translate(1020.681 12124.745)" fill="#add7d3"/>
    <g id="Grupo_914495" data-name="Grupo 914495" transform="translate(18.314 10052.216)">
      <path id="Trazado_698031" data-name="Trazado 698031" d="M1320.748,2578.915v56.053a3.089,3.089,0,0,1-1.772,2.8,2.926,2.926,0,0,1-1.385.322,2.958,2.958,0,0,1-1.9-.644c-.161-.1-20.1-13.82-92-3.93-28.8,3.93-55.377,2.964-78.957-2.931-28.349-7.119-60.531,7.087-60.854,7.248a3.106,3.106,0,0,1-3-.226,3.149,3.149,0,0,1-1.45-2.641v-56.053a3.115,3.115,0,0,1,1.579-2.706c14.239-8.311,41.138-12.467,54.249-12.177,12.789.322,48.1,3.7,65.363,6.636,12.081,2.029,21.713.451,39.237-2.481,5.96-.966,12.693-2.094,20.682-3.254,32.215-4.7,57.632,10.631,58.7,11.307A3.15,3.15,0,0,1,1320.748,2578.915Zm-6.314,50.9v-49.031c-5.766-3.093-27.35-13.337-52.993-9.6-7.924,1.16-14.657,2.256-20.553,3.254-17.589,2.9-28.187,4.671-41.331,2.448-16.59-2.8-52.026-6.25-64.429-6.54-12.209-.29-36.209,3.543-49.385,10.438V2630.3c10.212-3.833,36.209-11.919,60.5-5.831,22.808,5.7,48.579,6.636,76.574,2.8C1278.934,2619.538,1304.641,2625.852,1314.434,2629.814Z" transform="translate(0 -329.312)"/>
      <path id="Trazado_698032" data-name="Trazado 698032" d="M1320.748,2234.014v56.021a3.171,3.171,0,0,1-1.772,2.835,2.92,2.92,0,0,1-1.385.322,3.146,3.146,0,0,1-1.9-.644c-.161-.129-20.1-13.852-92-3.963-28.8,3.963-55.377,2.964-78.957-2.931-28.349-7.087-60.531,7.119-60.854,7.281a3.2,3.2,0,0,1-3-.258,3.15,3.15,0,0,1-1.45-2.642v-56.021a3.206,3.206,0,0,1,1.579-2.738c14.239-8.311,41.138-12.467,54.249-12.145,12.757.29,48.064,3.7,65.363,6.636,12.081,2.03,21.713.419,39.237-2.48,5.96-1,12.693-2.094,20.682-3.254,32.215-4.7,57.632,10.631,58.7,11.275A3.2,3.2,0,0,1,1320.748,2234.014Zm-6.314,50.9V2235.85c-5.766-3.06-27.35-13.337-52.993-9.6-7.924,1.16-14.657,2.287-20.553,3.254-17.589,2.932-28.22,4.7-41.331,2.48-16.59-2.834-52.026-6.249-64.429-6.539-12.177-.29-36.209,3.511-49.385,10.438v49.482c10.212-3.834,36.209-11.888,60.5-5.831,22.808,5.734,48.579,6.668,76.574,2.8C1278.934,2274.636,1304.641,2280.95,1314.434,2284.913Z" transform="translate(0 -102.734)"/>
      <path id="Trazado_698033" data-name="Trazado 698033" d="M1739.892,2530.931a5.352,5.352,0,1,1-5.96,4.671A5.366,5.366,0,0,1,1739.892,2530.931Z" transform="translate(-429.936 -307.55)"/>
      <path id="Trazado_698034" data-name="Trazado 698034" d="M1326.525,2592.871V2641.9c-9.793-3.963-35.5-10.276-91.618-2.545-27.995,3.833-53.766,2.9-76.574-2.8-24.29-6.089-50.287,2-60.5,5.831v-49.514c13.176-6.894,37.176-10.727,49.385-10.438,12.4.29,47.839,3.737,64.429,6.54,13.144,2.223,23.743.451,41.331-2.448,5.9-1,12.628-2.094,20.553-3.254C1299.175,2579.534,1320.758,2589.779,1326.525,2592.871Zm-26.642,5.412a3.178,3.178,0,0,0-2.287-3.833c-12.338-3.125-20.907,1.321-21.261,1.514a3.142,3.142,0,0,0-1.321,4.252,3.2,3.2,0,0,0,2.8,1.675,2.929,2.929,0,0,0,1.45-.354c.29-.129,6.926-3.479,16.784-.967A3.193,3.193,0,0,0,1299.883,2598.283Zm-3.157,26.19a3.147,3.147,0,0,0-2.255-3.833c-12.338-3.125-20.907,1.321-21.294,1.514a3.169,3.169,0,0,0-1.289,4.253,3.2,3.2,0,0,0,2.8,1.675,2.924,2.924,0,0,0,1.449-.354c.29-.129,6.894-3.479,16.751-.966A3.138,3.138,0,0,0,1296.726,2624.474Zm-50.383-17.46a3.161,3.161,0,0,0,1.933-4.027,3.127,3.127,0,0,0-3.995-1.933c-11.178,3.834-23.388,2.577-23.517,2.545a3.159,3.159,0,0,0-.676,6.282c.226,0,2.448.257,5.863.257A64.78,64.78,0,0,0,1246.343,2607.013Zm-18.878,20.714a3.149,3.149,0,0,0-2.932-5.573c-.29.129-6.926,3.479-16.783.967a3.157,3.157,0,1,0-1.547,6.121,35.675,35.675,0,0,0,8.73,1.127A28.381,28.381,0,0,0,1227.465,2627.727Zm-40.623-24.161a3.118,3.118,0,0,0-2.255-3.833c-12.338-3.125-20.907,1.32-21.261,1.514a3.115,3.115,0,0,0-1.321,4.22,3.17,3.17,0,0,0,2.8,1.707,3.321,3.321,0,0,0,1.449-.354c.29-.161,6.926-3.479,16.752-1A3.118,3.118,0,0,0,1186.843,2603.567Zm-6.6,24.161a3.214,3.214,0,0,0-2.609-3.64l-13.5-2.255a3.151,3.151,0,1,0-1.031,6.218l13.5,2.255a2.845,2.845,0,0,0,.516.064A3.175,3.175,0,0,0,1180.239,2627.727Zm-44.907-27.447a3.169,3.169,0,0,0-2.8-3.479c-12.628-1.418-20.521,4.188-20.843,4.446a3.154,3.154,0,0,0,1.868,5.7,3,3,0,0,0,1.836-.612c.064-.032,6.217-4.413,16.462-3.254A3.17,3.17,0,0,0,1135.331,2600.281Zm0,22.776a3.177,3.177,0,0,0-2.706-3.544c-9.986-1.321-22.937,3.351-23.484,3.544a3.192,3.192,0,0,0-1.9,4.059,3.17,3.17,0,0,0,4.059,1.869c.129-.032,12.016-4.349,20.489-3.221A3.172,3.172,0,0,0,1135.331,2623.056Z" transform="translate(-12.091 -341.399)" fill="#956640"/>
      <path id="Trazado_698035" data-name="Trazado 698035" d="M1326.525,2247.944v49.063c-9.793-3.963-35.5-10.277-91.618-2.577-27.995,3.865-53.766,2.931-76.574-2.8-24.29-6.057-50.287,2-60.5,5.831v-49.482c13.176-6.926,37.208-10.728,49.385-10.437,12.4.29,47.839,3.7,64.429,6.539,13.112,2.223,23.743.451,41.331-2.48,5.9-.967,12.628-2.094,20.553-3.254C1299.175,2234.608,1320.758,2244.884,1326.525,2247.944Zm-26.642,5.444a3.162,3.162,0,0,0-2.287-3.833c-12.338-3.125-20.907,1.32-21.261,1.514a3.113,3.113,0,0,0-1.321,4.219,3.168,3.168,0,0,0,2.8,1.708,3.319,3.319,0,0,0,1.45-.354c.29-.161,6.926-3.479,16.784-1A3.147,3.147,0,0,0,1299.883,2253.389Zm-3.157,26.19a3.118,3.118,0,0,0-2.255-3.834c-12.338-3.157-20.907,1.321-21.294,1.514a3.16,3.16,0,0,0-1.289,4.252,3.2,3.2,0,0,0,2.8,1.675,3.318,3.318,0,0,0,1.449-.354c.29-.129,6.926-3.479,16.751-.966A3.162,3.162,0,0,0,1296.726,2279.579Zm-50.383-17.493a3.153,3.153,0,0,0-2.062-5.959c-11.178,3.866-23.388,2.577-23.517,2.577a3.143,3.143,0,1,0-.676,6.249,55.522,55.522,0,0,0,5.863.258A63.86,63.86,0,0,0,1246.343,2262.086Zm-18.878,20.746a3.149,3.149,0,0,0-2.932-5.573c-.29.129-6.926,3.479-16.783.966a3.157,3.157,0,1,0-1.547,6.121,35.5,35.5,0,0,0,8.73,1.1A28.633,28.633,0,0,0,1227.465,2282.833Zm-40.623-24.193a3.147,3.147,0,0,0-2.255-3.833c-12.338-3.125-20.907,1.321-21.261,1.514a3.152,3.152,0,0,0-1.321,4.253,3.2,3.2,0,0,0,2.8,1.675,2.926,2.926,0,0,0,1.449-.354c.29-.129,6.926-3.479,16.752-.967A3.138,3.138,0,0,0,1186.843,2258.64Zm-6.6,24.161a3.181,3.181,0,0,0-2.609-3.608l-13.5-2.255a3.151,3.151,0,1,0-1.031,6.218l13.5,2.255a2.775,2.775,0,0,0,.516.032A3.175,3.175,0,0,0,1180.239,2282.8Zm-44.907-27.415a3.151,3.151,0,0,0-2.8-3.479c-12.628-1.418-20.521,4.188-20.843,4.413a3.161,3.161,0,0,0,3.7,5.122c.064-.064,6.217-4.413,16.462-3.285A3.123,3.123,0,0,0,1135.331,2255.386Zm0,22.776a3.159,3.159,0,0,0-2.706-3.544c-9.986-1.353-22.937,3.351-23.484,3.544a3.151,3.151,0,0,0,1.063,6.121,3.129,3.129,0,0,0,1.1-.193c.129-.032,12.016-4.381,20.489-3.221A3.2,3.2,0,0,0,1135.331,2278.162Z" transform="translate(-12.091 -114.829)" fill="#956640"/>
      <path id="Trazado_698036" data-name="Trazado 698036" d="M1723.672,2462.741a5.364,5.364,0,1,1-5.348,5.347A5.362,5.362,0,0,1,1723.672,2462.741Z" transform="translate(-419.708 -262.78)"/>
      <path id="Trazado_698037" data-name="Trazado 698037" d="M1636.173,2270.468a3.141,3.141,0,1,1-1.547,6.089c-9.858-2.48-16.494.838-16.783,1a3.317,3.317,0,0,1-1.45.354,3.169,3.169,0,0,1-2.8-1.707,3.114,3.114,0,0,1,1.321-4.22C1615.265,2271.789,1623.834,2267.344,1636.173,2270.468Z" transform="translate(-350.667 -135.742)"/>
      <path id="Trazado_698038" data-name="Trazado 698038" d="M1636.173,2615.363a3.157,3.157,0,0,1-1.547,6.121c-9.858-2.513-16.494.837-16.783.966a2.932,2.932,0,0,1-1.45.354,3.2,3.2,0,0,1-2.8-1.675,3.143,3.143,0,0,1,1.321-4.253C1615.265,2616.683,1623.834,2612.238,1636.173,2615.363Z" transform="translate(-350.667 -362.312)"/>
      <path id="Trazado_698039" data-name="Trazado 698039" d="M1627.062,2346.782a3.118,3.118,0,0,1,2.255,3.833,3.162,3.162,0,0,1-3.833,2.287c-9.825-2.513-16.462.837-16.752.967a3.321,3.321,0,0,1-1.449.354,3.2,3.2,0,0,1-2.8-1.675,3.16,3.16,0,0,1,1.289-4.252C1606.155,2348.1,1614.724,2343.625,1627.062,2346.782Z" transform="translate(-344.682 -185.866)"/>
      <path id="Trazado_698040" data-name="Trazado 698040" d="M1627.062,2691.7a3.16,3.16,0,0,1-1.578,6.12c-9.858-2.513-16.462.838-16.752.967a2.925,2.925,0,0,1-1.449.354,3.2,3.2,0,0,1-2.8-1.675,3.169,3.169,0,0,1,1.289-4.253C1606.155,2693.024,1614.724,2688.579,1627.062,2691.7Z" transform="translate(-344.682 -412.463)"/>
      <path id="Trazado_698041" data-name="Trazado 698041" d="M1640.545,2442.2a5.352,5.352,0,1,1-5.96,4.671A5.311,5.311,0,0,1,1640.545,2442.2Z" transform="translate(-364.672 -249.258)"/>
      <path id="Trazado_698042" data-name="Trazado 698042" d="M1624.265,2160.852a5.364,5.364,0,1,1-5.38,5.38A5.362,5.362,0,0,1,1624.265,2160.852Z" transform="translate(-354.383 -64.461)"/>
      <circle id="Elipse_6222" data-name="Elipse 6222" cx="5.348" cy="5.348" r="5.348" transform="translate(1262.601 2215.391)"/>
      <path id="Trazado_698043" data-name="Trazado 698043" d="M1587.424,2062.727a5.364,5.364,0,1,1-5.347,5.38A5.389,5.389,0,0,1,1587.424,2062.727Z" transform="translate(-330.203)"/>
      <path id="Trazado_698044" data-name="Trazado 698044" d="M1538.22,2515.231a5.364,5.364,0,1,1-5.348,5.38A5.389,5.389,0,0,1,1538.22,2515.231Z" transform="translate(-297.879 -297.262)"/>
      <path id="Trazado_698045" data-name="Trazado 698045" d="M1527.736,2129.583a5.364,5.364,0,1,1-5.38,5.38A5.362,5.362,0,0,1,1527.736,2129.583Z" transform="translate(-290.971 -43.919)"/>
      <path id="Trazado_698046" data-name="Trazado 698046" d="M1476.968,2293.377a3.114,3.114,0,0,1-1.933,3.995,63.865,63.865,0,0,1-20.392,3.125,55.654,55.654,0,0,1-5.863-.258,3.143,3.143,0,1,1,.677-6.25c.129,0,12.338,1.289,23.517-2.577A3.144,3.144,0,0,1,1476.968,2293.377Z" transform="translate(-240.783 -150.113)"/>
      <path id="Trazado_698047" data-name="Trazado 698047" d="M1476.968,2638.326a3.161,3.161,0,0,1-1.933,4.027,64.786,64.786,0,0,1-20.392,3.125c-3.415,0-5.637-.257-5.863-.257a3.159,3.159,0,0,1,.677-6.282c.129.032,12.338,1.289,23.517-2.545A3.127,3.127,0,0,1,1476.968,2638.326Z" transform="translate(-240.783 -376.739)"/>
      <path id="Trazado_698048" data-name="Trazado 698048" d="M1506.984,2453.351a5.364,5.364,0,1,1-5.38,5.348A5.355,5.355,0,0,1,1506.984,2453.351Z" transform="translate(-277.338 -256.612)"/>
      <path id="Trazado_698049" data-name="Trazado 698049" d="M1431.737,2353.974a3.151,3.151,0,0,1-1.321,4.252,28.634,28.634,0,0,1-12.531,2.609,35.516,35.516,0,0,1-8.73-1.1,3.157,3.157,0,0,1,1.547-6.121c9.858,2.513,16.494-.837,16.783-.966A3.143,3.143,0,0,1,1431.737,2353.974Z" transform="translate(-215.042 -190.223)"/>
      <path id="Trazado_698050" data-name="Trazado 698050" d="M1431.737,2698.881a3.143,3.143,0,0,1-1.321,4.253,28.39,28.39,0,0,1-12.531,2.641,35.668,35.668,0,0,1-8.73-1.128,3.156,3.156,0,1,1,1.547-6.121c9.858,2.513,16.494-.838,16.783-.967A3.171,3.171,0,0,1,1431.737,2698.881Z" transform="translate(-215.042 -416.805)"/>
      <path id="Trazado_698051" data-name="Trazado 698051" d="M1452.114,2180.759a5.364,5.364,0,1,1,0,10.728,5.364,5.364,0,0,1,0-10.728Z" transform="translate(-241.314 -77.538)"/>
      <path id="Trazado_698052" data-name="Trazado 698052" d="M1448.954,2071.459a5.364,5.364,0,1,1-5.38,5.38A5.362,5.362,0,0,1,1448.954,2071.459Z" transform="translate(-239.217 -5.736)"/>
      <circle id="Elipse_6223" data-name="Elipse 6223" cx="5.348" cy="5.348" r="5.348" transform="translate(1200.105 2223.349)"/>
      <path id="Trazado_698053" data-name="Trazado 698053" d="M1390.516,2123.949a5.364,5.364,0,1,1-5.348,5.38A5.389,5.389,0,0,1,1390.516,2123.949Z" transform="translate(-200.848 -40.218)"/>
      <path id="Trazado_698054" data-name="Trazado 698054" d="M1374.928,2457.764a5.364,5.364,0,1,1-5.348,5.348A5.335,5.335,0,0,1,1374.928,2457.764Z" transform="translate(-190.608 -259.51)"/>
      <path id="Trazado_698055" data-name="Trazado 698055" d="M1306.771,2285.774a3.161,3.161,0,0,1-1.578,6.121c-9.825-2.513-16.462.837-16.752.966a2.923,2.923,0,0,1-1.449.355,3.2,3.2,0,0,1-2.8-1.676,3.151,3.151,0,0,1,1.321-4.252C1285.864,2287.095,1294.433,2282.649,1306.771,2285.774Z" transform="translate(-134.274 -145.796)"/>
      <path id="Trazado_698056" data-name="Trazado 698056" d="M1306.771,2630.763a3.145,3.145,0,1,1-1.578,6.088c-9.825-2.48-16.462.838-16.752,1a3.32,3.32,0,0,1-1.449.354,3.17,3.17,0,0,1-2.8-1.707,3.114,3.114,0,0,1,1.321-4.22C1285.864,2632.083,1294.433,2627.637,1306.771,2630.763Z" transform="translate(-134.274 -372.429)"/>
      <path id="Trazado_698057" data-name="Trazado 698057" d="M1297.522,2354.578a3.144,3.144,0,0,1-.515,6.25,2.794,2.794,0,0,1-.516-.032l-13.5-2.255a3.151,3.151,0,1,1,1.031-6.218Z" transform="translate(-131.984 -190.214)"/>
      <path id="Trazado_698058" data-name="Trazado 698058" d="M1297.522,2699.473a3.214,3.214,0,0,1,2.609,3.64,3.175,3.175,0,0,1-3.125,2.641,2.842,2.842,0,0,1-.516-.064l-13.5-2.255a3.151,3.151,0,1,1,1.031-6.218Z" transform="translate(-131.984 -416.785)"/>
      <path id="Trazado_698059" data-name="Trazado 698059" d="M1311.145,2071.49a5.368,5.368,0,1,1-5.959,4.7A5.384,5.384,0,0,1,1311.145,2071.49Z" transform="translate(-148.28 -5.735)"/>
      <path id="Trazado_698060" data-name="Trazado 698060" d="M1310.512,2160.852a5.364,5.364,0,1,1-5.347,5.38A5.39,5.39,0,0,1,1310.512,2160.852Z" transform="translate(-148.292 -64.461)"/>
      <path id="Trazado_698061" data-name="Trazado 698061" d="M1294.926,2515.231a5.364,5.364,0,1,1-5.348,5.38A5.362,5.362,0,0,1,1294.926,2515.231Z" transform="translate(-138.053 -297.262)"/>
      <path id="Trazado_698062" data-name="Trazado 698062" d="M1263.656,2447.153a5.348,5.348,0,1,1-5.347,5.348A5.362,5.362,0,0,1,1263.656,2447.153Z" transform="translate(-117.511 -252.54)"/>
      <path id="Trazado_698063" data-name="Trazado 698063" d="M1224.908,2145.265a5.364,5.364,0,0,1,0,10.727,5.364,5.364,0,1,1,0-10.727Z" transform="translate(-92.035 -54.221)"/>
      <path id="Trazado_698064" data-name="Trazado 698064" d="M1209.289,2515.231a5.364,5.364,0,1,1-5.348,5.38A5.389,5.389,0,0,1,1209.289,2515.231Z" transform="translate(-81.795 -297.262)"/>
      <path id="Trazado_698065" data-name="Trazado 698065" d="M1156.566,2279.009a3.143,3.143,0,1,1-.677,6.25c-10.244-1.128-16.4,3.221-16.462,3.285a3.161,3.161,0,0,1-3.7-5.122C1136.046,2283.2,1143.938,2277.591,1156.566,2279.009Z" transform="translate(-36.128 -141.93)"/>
      <path id="Trazado_698066" data-name="Trazado 698066" d="M1150.286,2345.18a3.16,3.16,0,0,1,2.706,3.544,3.2,3.2,0,0,1-3.544,2.706c-8.472-1.16-20.359,3.189-20.488,3.221a3.136,3.136,0,0,1-1.1.193,3.152,3.152,0,0,1-1.063-6.121C1127.349,2348.53,1140.3,2343.827,1150.286,2345.18Z" transform="translate(-29.751 -185.391)"/>
      <path id="Trazado_698067" data-name="Trazado 698067" d="M1156.566,2623.9a3.159,3.159,0,1,1-.677,6.281c-10.244-1.16-16.4,3.221-16.462,3.254a3,3,0,0,1-1.836.612,3.154,3.154,0,0,1-1.868-5.7C1136.046,2628.092,1143.938,2622.486,1156.566,2623.9Z" transform="translate(-36.128 -368.502)"/>
      <path id="Trazado_698068" data-name="Trazado 698068" d="M1150.286,2690.092a3.153,3.153,0,0,1-.838,6.25c-8.472-1.128-20.359,3.189-20.488,3.221a3.169,3.169,0,0,1-4.059-1.869,3.193,3.193,0,0,1,1.9-4.059C1127.349,2693.443,1140.3,2688.771,1150.286,2690.092Z" transform="translate(-29.751 -411.979)"/>
      <path id="Trazado_698069" data-name="Trazado 698069" d="M1144.9,2447.153a5.348,5.348,0,1,1-5.38,5.348A5.335,5.335,0,0,1,1144.9,2447.153Z" transform="translate(-39.479 -252.54)"/>
      <path id="Trazado_698070" data-name="Trazado 698070" d="M1123.651,2530.912a5.347,5.347,0,1,1-5.348,5.348A5.362,5.362,0,0,1,1123.651,2530.912Z" transform="translate(-25.538 -307.564)"/>
    </g>
  </g>
</svg>
