<svg xmlns="http://www.w3.org/2000/svg" xmlns:xlink="http://www.w3.org/1999/xlink" width="151.351" height="156.055" viewBox="0 0 151.351 156.055">
  <defs>
    <linearGradient id="linear-gradient" x1="-206.461" y1="0.5" x2="-205.461" y2="0.5" gradientUnits="objectBoundingBox">
      <stop offset="0" stop-color="#def6fc"/>
      <stop offset="0.996" stop-color="#e7edec"/>
    </linearGradient>
    <linearGradient id="linear-gradient-2" x1="-208.781" y1="0.5" x2="-207.77" y2="0.5" gradientUnits="objectBoundingBox">
      <stop offset="0" stop-color="#daefff"/>
      <stop offset="0.996" stop-color="#e3e3e3"/>
    </linearGradient>
    <linearGradient id="linear-gradient-3" x1="0.078" y1="-0.088" x2="0.912" y2="0.887" gradientUnits="objectBoundingBox">
      <stop offset="0" stop-color="#fff"/>
      <stop offset="1" stop-color="#fff"/>
    </linearGradient>
    <linearGradient id="linear-gradient-4" y1="0.5" x2="1" y2="0.5" gradientUnits="objectBoundingBox">
      <stop offset="0" stop-color="#f8f8f8"/>
      <stop offset="1" stop-color="#f9f9f9"/>
    </linearGradient>
    <linearGradient id="linear-gradient-5" x1="0" y1="0.5" x2="1" y2="0.5" xlink:href="#linear-gradient-3"/>
    <linearGradient id="linear-gradient-7" x1="0.132" y1="0.718" x2="0.969" y2="0.189" xlink:href="#linear-gradient-3"/>
    <linearGradient id="linear-gradient-9" x1="-166.972" y1="0.5" x2="-165.972" y2="0.5" xlink:href="#linear-gradient"/>
    <linearGradient id="linear-gradient-10" x1="-168.851" y1="0.5" x2="-167.84" y2="0.5" xlink:href="#linear-gradient-2"/>
    <linearGradient id="linear-gradient-11" x1="-259.524" y1="0.5" x2="-258.524" y2="0.5" xlink:href="#linear-gradient"/>
    <linearGradient id="linear-gradient-12" x1="-262.441" y1="0.5" x2="-261.43" y2="0.5" xlink:href="#linear-gradient-2"/>
    <linearGradient id="linear-gradient-13" x1="-409.156" y1="0.5" x2="-408.156" y2="0.5" xlink:href="#linear-gradient"/>
    <linearGradient id="linear-gradient-14" x1="-413.747" y1="0.5" x2="-412.735" y2="0.5" xlink:href="#linear-gradient-2"/>
  </defs>
  <g id="Grupo_916543" data-name="Grupo 916543" transform="translate(-936.608 -785.063)">
    <g id="Grupo_916525" data-name="Grupo 916525" opacity="0.8">
      <path id="Trazado_704223" data-name="Trazado 704223" d="M943.93,902.521a7.307,7.307,0,0,1,2.274.362,6.346,6.346,0,0,1,9.315-7.93,9.137,9.137,0,0,1,17.449,1.624,10.617,10.617,0,1,1,3.65,20.587H943.93a7.322,7.322,0,1,1,0-14.643Z" fill="url(#linear-gradient)"/>
      <path id="Trazado_704224" data-name="Trazado 704224" d="M972.667,913.213a10.613,10.613,0,0,0,9.216-15.881,10.614,10.614,0,0,1-5.265,19.832H943.93a7.322,7.322,0,0,1-6.762-4.511,7.3,7.3,0,0,0,2.81.56Z" fill="url(#linear-gradient-2)"/>
    </g>
    <g id="Grupo_916532" data-name="Grupo 916532">
      <g id="Grupo_916527" data-name="Grupo 916527">
        <g id="Grupo_916526" data-name="Grupo 916526">
          <path id="Trazado_704225" data-name="Trazado 704225" d="M1001.047,785.062c-15.6,20.855,0,28.159,0,28.159S1016.648,805.917,1001.047,785.062Z" fill="#6f9b97"/>
          <path id="Trazado_704226" data-name="Trazado 704226" d="M1005.719,803.627c-.426.482-.84.972-1.26,1.458s-.829.981-1.238,1.476-.857.959-1.216,1.492c-.181.265-.359.533-.523.812-.069.116-.137.234-.2.354q.024-.812.04-1.624c.027-1.277,0-2.555-.023-3.833.14-.118.274-.242.4-.369.2-.194.385-.394.564-.6a14.011,14.011,0,0,0,.958-1.334q.474-.672.937-1.351c.3-.457.615-.908.914-1.368l-.043-.033c-.368.407-.724.823-1.087,1.235s-.714.831-1.066,1.251a14.349,14.349,0,0,0-1.044,1.268c-.155.227-.3.461-.437.7-.036.064-.072.129-.107.194-.009-.461-.018-.922-.024-1.383l-.082-5.625-.108-5.625h-.055l-.109,5.625-.044,3.038c-.026-.052-.053-.1-.08-.156a6.573,6.573,0,0,0-.349-.585,4.741,4.741,0,0,0-.414-.535c-.152-.167-.307-.333-.454-.5q-.44-.516-.889-1.023c-.3-.335-.6-.675-.912-1.006l-.043.034c.241.384.493.759.739,1.138s.5.751.76,1.122c.128.186.249.378.371.568a4.656,4.656,0,0,0,.411.538,6.613,6.613,0,0,0,.476.487,4.688,4.688,0,0,0,.378.319l-.031,2.19c-.02,1.588-.074,3.175-.065,4.762-.05-.088-.1-.176-.152-.263-.164-.278-.342-.546-.523-.812-.36-.532-.807-1-1.216-1.492s-.822-.986-1.238-1.475-.835-.977-1.26-1.459l-.043.034c.356.534.725,1.06,1.087,1.591s.735,1.053,1.108,1.575.708,1.074,1.13,1.558c.211.243.424.484.651.714.148.151.3.3.46.442q0,.225.006.45c.019.938.041,1.876.081,2.813s.09,1.875.164,2.813h.055q.111-1.407.164-2.813c.011-.271.019-.542.028-.814.181-.158.352-.325.519-.5.227-.23.44-.47.651-.713.422-.484.757-1.036,1.13-1.559s.742-1.047,1.108-1.574.73-1.057,1.087-1.592Z" fill="#528782"/>
        </g>
      </g>
      <g id="Grupo_916529" data-name="Grupo 916529">
        <g id="Grupo_916528" data-name="Grupo 916528">
          <path id="Trazado_704227" data-name="Trazado 704227" d="M1023.236,811.287C997.458,815,1003.325,831.2,1003.325,831.2S1019.521,837.065,1023.236,811.287Z" fill="#6f9b97"/>
          <path id="Trazado_704228" data-name="Trazado 704228" d="M1013.412,827.718c-.642.04-1.281.094-1.922.141s-1.28.107-1.919.167-1.284.073-1.915.2c-.316.06-.631.124-.944.205-.131.033-.262.069-.393.107q.591-.557,1.176-1.12c.923-.884,1.809-1.805,2.7-2.726.183.015.364.022.545.024.277,0,.552-.006.825-.027a14.19,14.19,0,0,0,1.621-.266q.81-.14,1.618-.293c.538-.107,1.077-.207,1.614-.321l-.007-.054c-.549.028-1.1.07-1.643.1s-1.093.083-1.638.131a14.2,14.2,0,0,0-1.636.158c-.269.051-.537.114-.8.187-.071.019-.142.04-.213.061q.478-.5.961-1l3.92-4.035,3.9-4.055-.039-.038-4.055,3.9-2.179,2.117c.019-.055.036-.111.053-.167a6.436,6.436,0,0,0,.168-.66,4.582,4.582,0,0,0,.085-.671c.011-.226.018-.452.036-.678q.054-.675.094-1.351c.022-.452.052-.9.067-1.356l-.054-.007c-.1.441-.189.885-.283,1.327s-.175.887-.256,1.331c-.041.222-.091.443-.139.664a4.6,4.6,0,0,0-.09.671,6.44,6.44,0,0,0-.007.681,4.36,4.36,0,0,0,.041.493l-1.571,1.526c-1.137,1.108-2.3,2.193-3.413,3.322.027-.1.054-.2.078-.294.081-.313.145-.628.2-.944.122-.63.135-1.276.2-1.915s.116-1.278.168-1.918.1-1.281.14-1.922l-.054-.008c-.126.631-.237,1.263-.356,1.894s-.225,1.265-.33,1.9a19.182,19.182,0,0,0-.3,1.9c-.023.32-.042.641-.044.965,0,.211,0,.424.012.637-.105.108-.21.215-.314.323-.65.677-1.3,1.355-1.932,2.046s-1.262,1.39-1.873,2.105l.039.039q1.073-.917,2.1-1.873c.2-.184.4-.37.6-.556.241.017.48.02.718.017.323,0,.644-.022.965-.045a19.167,19.167,0,0,0,1.9-.3q.949-.157,1.9-.329c.631-.12,1.264-.231,1.894-.357Z" fill="#528782"/>
        </g>
      </g>
      <g id="Grupo_916531" data-name="Grupo 916531">
        <g id="Grupo_916530" data-name="Grupo 916530">
          <path id="Trazado_704229" data-name="Trazado 704229" d="M978.825,811.287C1004.6,815,998.736,831.2,998.736,831.2S982.54,837.065,978.825,811.287Z" fill="#6f9b97"/>
          <path id="Trazado_704230" data-name="Trazado 704230" d="M988.649,827.718c.641.04,1.281.094,1.922.141s1.28.107,1.919.167,1.284.073,1.915.2c.315.06.63.124.943.205.132.033.263.069.394.107q-.591-.557-1.176-1.12c-.923-.884-1.81-1.805-2.7-2.726-.183.015-.365.022-.546.024-.276,0-.551-.006-.824-.027a14.152,14.152,0,0,1-1.621-.266q-.81-.14-1.618-.293c-.538-.107-1.077-.207-1.614-.321l.007-.054c.548.028,1.095.07,1.642.1s1.093.083,1.639.131a14.161,14.161,0,0,1,1.635.158c.27.051.537.114.8.187.071.019.142.04.213.061q-.48-.5-.961-1l-3.92-4.035-3.9-4.055.039-.038,4.054,3.9,2.18,2.117c-.019-.055-.037-.111-.054-.167a6.711,6.711,0,0,1-.167-.66,4.574,4.574,0,0,1-.085-.671c-.011-.226-.019-.452-.036-.678q-.054-.675-.094-1.351c-.022-.452-.052-.9-.067-1.356l.054-.007c.1.441.188.885.283,1.327s.175.887.256,1.331c.041.222.091.443.139.664a4.746,4.746,0,0,1,.09.671,6.73,6.73,0,0,1,.007.681,4.9,4.9,0,0,1-.041.493l1.571,1.526c1.136,1.108,2.3,2.193,3.413,3.322-.027-.1-.054-.2-.079-.294-.081-.313-.144-.628-.2-.944-.123-.63-.135-1.276-.2-1.915s-.116-1.278-.168-1.918-.1-1.281-.141-1.922l.054-.008c.126.631.238,1.263.357,1.894s.225,1.265.33,1.9.26,1.26.3,1.9c.023.32.042.641.044.965,0,.211,0,.424-.012.637.1.108.21.215.314.323.649.677,1.3,1.355,1.932,2.046s1.262,1.39,1.872,2.105l-.038.039q-1.074-.917-2.1-1.873c-.2-.184-.4-.37-.595-.556-.241.017-.48.02-.718.017-.323,0-.644-.022-.965-.045a19.167,19.167,0,0,1-1.9-.3q-.949-.157-1.9-.329c-.632-.12-1.264-.231-1.894-.357Z" fill="#528782"/>
        </g>
      </g>
      <path id="Trazado_704231" data-name="Trazado 704231" d="M1001.439,831.663l-.15-8.2-.076-4.1-.088-4.1h-.157l-.088,4.1-.076,4.1-.15,8.2-.235,7.2h1.255Z" fill="#57948b"/>
    </g>
    <circle id="Elipse_6282" data-name="Elipse 6282" cx="43.453" cy="43.453" r="43.453" transform="translate(941.223 895.428) rotate(-58.283)" fill="#4abcc4"/>
    <g id="Grupo_916533" data-name="Grupo 916533">
      <path id="Trazado_704232" data-name="Trazado 704232" d="M1034.113,889.155a16.1,16.1,0,0,0-6.339.3c-1.114.346-2.31,1.154-2.278,2.32.019.677.463,1.283.506,1.96a2.366,2.366,0,0,1-1.733,2.185,8.275,8.275,0,0,1-2.974.2,28.2,28.2,0,0,0-10.061,1.464c-1.359.46-2.909,1.341-2.906,2.776a2.414,2.414,0,0,0,1.234,1.956,5.546,5.546,0,0,0,2.3.659,8.965,8.965,0,0,1,2.434.434,2.239,2.239,0,0,1,1.493,1.814c.056,1.15-1.136,2-2.272,2.187s-2.31-.048-3.449.124-2.346.982-2.336,2.133c.011,1.313,1.54,2.072,2.85,2.146,1.9.107,3.749-.555,5.64-.742s4.09.279,5.021,1.935c.417.742.615,1.735,1.4,2.058.916.375,1.832-.446,2.709-.9a7.643,7.643,0,0,1,4.523-.359,43.385,43.385,0,0,0,14.077-25.72,8.634,8.634,0,0,1-3.474,1.264A26.374,26.374,0,0,1,1034.113,889.155Z" fill="#44aeb5"/>
    </g>
    <g id="Grupo_916534" data-name="Grupo 916534">
      <path id="Trazado_704233" data-name="Trazado 704233" d="M995.51,921.735c-.8-1.411-3.306-1.242-3.827-2.778-.389-1.149.691-2.239,1.7-2.913s2.2-1.516,2.142-2.727c-.058-1.291-1.534-2.035-2.822-2.135a16.009,16.009,0,0,0-4.617.618,10.008,10.008,0,0,1-4.628.21,3.9,3.9,0,0,1-3.041-3.159c-.094-1.111.451-2.191.425-3.3a4.522,4.522,0,0,0-3.307-3.831,15.609,15.609,0,0,0-5.35-.394,10.237,10.237,0,0,1-5.257-.873c-1.575-.868-2.707-2.793-2.1-4.488a10.566,10.566,0,0,1,1.66-2.411,2.572,2.572,0,0,0,.435-2.737c-.754-1.218-2.933-1.105-3.374-2.469a2,2,0,0,1,.67-1.94c.938-.918,2.366-1.414,2.57-2.874a1.467,1.467,0,0,0-1.048-1.778,14.638,14.638,0,0,0-2.949-.338c-.223-.031-.443-.067-.663-.105h-4.546a43.462,43.462,0,0,0,37.431,43.039A2.355,2.355,0,0,0,995.51,921.735Z" fill="#44aeb5"/>
    </g>
    <path id="Trazado_704234" data-name="Trazado 704234" d="M1007.658,860.963a6.832,6.832,0,0,0-2.11,1.912,3.3,3.3,0,0,0-.5,2.731c.361,1.172,1.556,2.19,1.23,3.372-.237.856-1.168,1.287-2,1.609l-5.319,2.071a8.453,8.453,0,0,0-2.356,1.216,2.864,2.864,0,0,0-1.148,2.293c.087,1.373,1.5,2.328,2.859,2.519a21.552,21.552,0,0,0,4.113-.227,4.343,4.343,0,0,1,2.393.428,2.036,2.036,0,0,1,1.079,2.04c-.154.783-.857,1.313-1.422,1.876s-1.05,1.426-.665,2.125c.431.781,1.561.726,2.426.508,2.39-.6,4.915-1.63,7.222-.763,1.722.646,2.915,2.227,4.514,3.137a8.661,8.661,0,0,0,6.276.62,24.783,24.783,0,0,0,5.909-2.561,11.4,11.4,0,0,0,3.972-3.006,3.961,3.961,0,0,0,.231-4.667c-.9-1.113-2.436-1.4-3.766-1.921s-2.707-1.715-2.4-3.111c.25-1.145,1.472-1.736,2.477-2.338a5.392,5.392,0,0,0,2.048-1.95,2.694,2.694,0,0,0,0-2.723c-.683-1.021-2.069-1.242-3.294-1.329s-2.593-.2-3.407-1.116c-.586-.662-.794-1.552-1.431-2.185a9.278,9.278,0,0,0-2.156-1.37,11.016,11.016,0,0,0-3.488-1.182A15.731,15.731,0,0,0,1007.658,860.963Z" fill="#44aeb5"/>
    <g id="Grupo_916535" data-name="Grupo 916535">
      <path id="Trazado_704235" data-name="Trazado 704235" d="M1024.432,896.469c.06.075-.023-.031-.039-.048a.5.5,0,0,0-.257-.141h-.022a.209.209,0,0,0-.094-.067,1.36,1.36,0,0,1-.2-.121,1.188,1.188,0,0,1-.175-.1.332.332,0,0,0-.515.066.634.634,0,0,0,.206.814,1.4,1.4,0,0,0,.359.19.438.438,0,0,1,.2.124.389.389,0,0,0,.6-.078.522.522,0,0,0,.013-.534A.893.893,0,0,0,1024.432,896.469Z" fill="#388e94"/>
      <path id="Trazado_704236" data-name="Trazado 704236" d="M1026.462,897.536a.351.351,0,0,0-.539-.15.243.243,0,0,0-.055.02.385.385,0,0,0-.081.6.567.567,0,0,0,.137.215.621.621,0,0,0,.786.053.411.411,0,0,0,.2-.344.422.422,0,0,0-.117-.283A.372.372,0,0,0,1026.462,897.536Z" fill="#388e94"/>
      <path id="Trazado_704237" data-name="Trazado 704237" d="M1027.973,899.756a.476.476,0,0,1-.117-.234.22.22,0,0,0-.244-.159.223.223,0,0,0-.192.218,1.367,1.367,0,0,0,.014.278.975.975,0,0,0,.023.12c.005.019.023.128.025.055a.324.324,0,1,0,.491-.278Z" fill="#388e94"/>
      <path id="Trazado_704238" data-name="Trazado 704238" d="M1020.513,895.007a.224.224,0,0,0-.161.162.247.247,0,0,0,.169.3.292.292,0,0,0,.308-.095.259.259,0,0,0,0-.324A.232.232,0,0,0,1020.513,895.007Z" fill="#388e94"/>
      <path id="Trazado_704239" data-name="Trazado 704239" d="M1012.522,861.749a4.833,4.833,0,0,1,.723.175l.241.132a.731.731,0,0,1,.276.529c.045.388-.035.713.316.983.456.352,1.491.3,1.6-.381a.946.946,0,0,0-.13-.64.216.216,0,0,0,.018-.122c-.1-.914-1.091-.951-1.676-1.468a1.421,1.421,0,0,1-.408-.689,1.084,1.084,0,0,0-.212-.442,1.634,1.634,0,0,0-1.071-.384c-.6-.018-1.631.313-1.7,1.027C1010.412,861.3,1011.927,861.62,1012.522,861.749Z" fill="#388e94"/>
      <path id="Trazado_704240" data-name="Trazado 704240" d="M1009.157,859.336a.467.467,0,0,0,.278-.109.4.4,0,0,0,.18.014.391.391,0,0,0,.294-.192.424.424,0,0,0,0-.406.66.66,0,0,0-.583-.365.561.561,0,0,0-.541.428.6.6,0,0,0,.011.327A.417.417,0,0,0,1009.157,859.336Z" fill="#388e94"/>
      <path id="Trazado_704241" data-name="Trazado 704241" d="M1009.594,856.88a.309.309,0,0,0,.107-.024.233.233,0,0,0,.046.005.332.332,0,0,0,.315-.413.461.461,0,0,0-.455-.353c-.141.007-.306.126-.287.286a2.036,2.036,0,0,1,.009.235A.269.269,0,0,0,1009.594,856.88Z" fill="#388e94"/>
      <path id="Trazado_704242" data-name="Trazado 704242" d="M1010.519,863.838a.508.508,0,0,0,.183-.171.281.281,0,0,0-.072-.363.287.287,0,0,0-.37.022.4.4,0,0,0-.1.151.275.275,0,0,0,.042.32A.269.269,0,0,0,1010.519,863.838Z" fill="#388e94"/>
      <path id="Trazado_704243" data-name="Trazado 704243" d="M1012.543,864.64a.307.307,0,0,0,0-.613A.307.307,0,0,0,1012.543,864.64Z" fill="#388e94"/>
      <path id="Trazado_704244" data-name="Trazado 704244" d="M1010.315,879.668a.34.34,0,0,0,0,.68A.34.34,0,0,0,1010.315,879.668Z" fill="#388e94"/>
      <path id="Trazado_704245" data-name="Trazado 704245" d="M1009.887,881.728a.3.3,0,0,0-.287-.493l-.076.013a.281.281,0,0,0-.206.272.284.284,0,0,0,.206.271l.076.013A.3.3,0,0,0,1009.887,881.728Z" fill="#388e94"/>
      <path id="Trazado_704246" data-name="Trazado 704246" d="M1009.837,882.96a.231.231,0,0,0,0,.461A.231.231,0,0,0,1009.837,882.96Z" fill="#388e94"/>
      <path id="Trazado_704247" data-name="Trazado 704247" d="M1044.324,877.566a43.251,43.251,0,0,0-9.351-23.39l-2.255-.73a4.331,4.331,0,0,0-1.584-.3,7,7,0,0,0-2.318-1.047,4.5,4.5,0,0,1-2.3-.849,6.187,6.187,0,0,0-1.855-1.337,8.066,8.066,0,0,0-2.129-.5,4.737,4.737,0,0,0-2.334.036,5.232,5.232,0,0,0-.881.56,3.3,3.3,0,0,1-1.029.355,1.955,1.955,0,0,0-1.226,1.082c-.225.463-.338.967-.53,1.442a1.941,1.941,0,0,1-1.728,1.192,4.42,4.42,0,0,0-3.4,2.2c-.227.436-.613,1.236-.206,1.675a.82.82,0,0,0,.723.2c.512-.043,1.007-.139,1.524-.143.219,0,.438,0,.656.019.4.028.339.151.481.459a1.2,1.2,0,0,0,.521.543c.471.26,1.342.163,1.611.68.169.326.132.659.409.946a1.771,1.771,0,0,0,.871.461,5.557,5.557,0,0,0,1.209.067,2.307,2.307,0,0,1,.722.075c.337.115.8.548.5.954a1.924,1.924,0,0,0-.42.285l-.031.03a7.878,7.878,0,0,0-1.835,1.016,18.591,18.591,0,0,0-1.8,1.312c-.644.545-1.152,1.211-1.758,1.794a3.211,3.211,0,0,1-2.143.92,22.824,22.824,0,0,0-2.281.1c-1.182.194-2.317.936-2.287,2.253a1.683,1.683,0,0,0,.506,1.2,1.506,1.506,0,0,0,.643.326c.091.026.366.034.431.1.191.2-.087.72-.154.931l-.426,1.341a7.219,7.219,0,0,0-.41,1.364c-.052.516.31.785.772.889.384.086.693.018.85.447.1.283.107.512.341.73a1.49,1.49,0,0,0,1.184.307,1.355,1.355,0,0,0,.169,1.3,1.729,1.729,0,0,0,.145.647c.236.567.838,1.116.578,1.673-.153.327-.536.456-.858.619s-.646.494-.528.834c.164.476.922.353,1.273.714s.09.995-.244,1.392-.75.851-.626,1.354a1.091,1.091,0,0,0,1.042.7c.449.026.892-.1,1.341-.117a2.848,2.848,0,0,1,2.827,2.88c-.026.486-.14,1.079.249,1.371a.946.946,0,0,0,1-.051,6.269,6.269,0,0,1,.909-.549,1.276,1.276,0,0,1,1.466,1.95l.328.236a.656.656,0,0,0,.15.652c.171.2.428.251.643.384a1.4,1.4,0,0,1,.538.847,1.807,1.807,0,0,0,1.094,1.065c.7.324,1.4.67,2.115.964a2.382,2.382,0,0,0,1.568.185l1.815.765c.413.173,1,.293,1.214-.1l.245.533,2.794.06a4.043,4.043,0,0,0,2.253-.39,1.4,1.4,0,0,0,.491-1.977c-.184-.206-.454-.338-.58-.584-.207-.4.067-.875.33-1.242l.13-.182a1.525,1.525,0,0,0,1.08-.267.2.2,0,0,0,.287.136.7.7,0,0,0,.354-.443,1.072,1.072,0,0,0,.933-.265.958.958,0,0,0,.3-.8c-.031-.372-.241-.509.074-.783a1.193,1.193,0,0,0,.422-.608,2.5,2.5,0,0,1,.064-.456,1.131,1.131,0,0,1,.238-.3,3.023,3.023,0,0,0,.921-.885.438.438,0,0,0-.043-.489.52.52,0,0,0,.056-.673.7.7,0,0,0-.986-.115.478.478,0,0,0-.15.147,1.416,1.416,0,0,1-1.137-.657c-.429-.8.288-1.7.9-2.365a3.658,3.658,0,0,0,.966-1.55,1.6,1.6,0,0,0-.255-1.327,2.2,2.2,0,0,0,.831-1.776,1.726,1.726,0,0,0-.1-.483c-.05-.143-.241-.377-.234-.523a.717.717,0,0,1,.153-.362l2.039.019a2.47,2.47,0,0,0,1.125-.167.842.842,0,0,0,.495-.931A1.445,1.445,0,0,0,1044.324,877.566Z" fill="#388e94"/>
    </g>
    <g id="Grupo_916536" data-name="Grupo 916536">
      <path id="Trazado_704248" data-name="Trazado 704248" d="M961.113,883.7c1.2-1.2,2.267-2.783,3.94-3.058.914-.151,1.849.133,2.773.055s1.944-.781,1.8-1.7c-.1-.634-.706-1.044-1.059-1.58a2.986,2.986,0,0,1,.937-3.769,8.7,8.7,0,0,1,3.975-1.417l9.894-1.782a9.177,9.177,0,0,0,3.581-1.173,3.132,3.132,0,0,0,1.461-3.24c-.333-1.194-1.566-1.944-2-3.106a3.488,3.488,0,0,1,1.318-3.738,10.23,10.23,0,0,1,3.869-1.642l11.362-3.058a9.072,9.072,0,0,0,3.316-1.389,3.086,3.086,0,0,0,1.238-3.171c-.465-1.509-2.248-2.074-3.745-2.574s-3.206-1.569-3.037-3.139c.151-1.4,1.757-2.254,2.036-3.632a2.882,2.882,0,0,0-1.294-2.731c-.149,0-.3,0-.447,0a43.454,43.454,0,0,0-43.453,43.453q0,1.932.166,3.82A4.4,4.4,0,0,0,961.113,883.7Z" fill="#44aeb5"/>
    </g>
    <g id="Grupo_916537" data-name="Grupo 916537">
      <path id="Trazado_704249" data-name="Trazado 704249" d="M1008.289,897.185c-.374-.119-.814-.406-.714-.785-.364.266-.886.024-1.205-.3s-.585-.731-1.013-.875c-.4-.133-.6.022-.926.283a.436.436,0,0,1-.584-.331.957.957,0,0,1,.222-.727,3.469,3.469,0,0,0,.44-.645,1.284,1.284,0,0,0-1.064-1.631l-.053-.46a1.554,1.554,0,0,1-1.465-.232,6.2,6.2,0,0,1-.5-.489,5.947,5.947,0,0,0-1.039-.753l-.977-.6a14.391,14.391,0,0,0-2.645-1.391c.139.234-.188.5-.458.467a6.125,6.125,0,0,1-.757-.3,1.7,1.7,0,0,0-1.205.275.689.689,0,0,0-.2-.242.922.922,0,0,0-.959-.026,1.082,1.082,0,0,0-.647,1.28c-.315.2-.685.419-.89.375s-.467-.514-.729-.611a1.25,1.25,0,0,0-1.023.05l-2.281-.389a1.39,1.39,0,0,1,.017-1.36,2.467,2.467,0,0,0,.34-1.363,2.062,2.062,0,0,0-.885-1.125l-1.137.115-.014-.54a.334.334,0,0,1-.463-.154.971.971,0,0,1-.052-.546l.138-1.416a1.3,1.3,0,0,0-.059-.692.445.445,0,0,0-.58-.237l-.027-.4a.854.854,0,0,0-.98.136,2.488,2.488,0,0,0-.58.878l-.5,1.065-1.1-.037a.627.627,0,0,0-.585-.821,10.489,10.489,0,0,1-1.21-1.546,1.988,1.988,0,0,1-.536-.966,2.15,2.15,0,0,1,.477-1.389,2.4,2.4,0,0,1,1.023-1.044,3.9,3.9,0,0,1,1.661.013c.559.034,1.249-.216,1.3-.773.069.411.672.456,1.033.248s.66-.563,1.073-.62a1.206,1.206,0,0,1,.973.4c.259.256.451.571.692.843a3,3,0,0,0,.284.279.177.177,0,0,0,.031.1c.218.331.1.738.206,1.1a.887.887,0,0,0,.635.65.7.7,0,0,0,.754-.29,1.324,1.324,0,0,0,.1-.485,4.351,4.351,0,0,0,.467-.444l1.139-.5c.321-.684.867-1.119,1.189-1.8l.3-.633.244-.52.51-1.086c.3-.647.607-1.3.855-1.966a2.741,2.741,0,0,0,1.021-1.626c.127-.677-.08-1.358.021-2.032.109-.72.564-1.318.534-2.072a12.862,12.862,0,0,0-.549-1.938c-.136-.713.151-1.434-.069-2.146a1.556,1.556,0,0,0-1.328-1.137c-.373-.055-.54-.039-.682-.389a6.962,6.962,0,0,1-.206-.766,2.006,2.006,0,0,0-.809-1.262,1.975,1.975,0,0,0-1.082-.221c-.271.006-.892.134-.964-.242a.537.537,0,0,0-.972-.127c-.534,1.067-1.8.723-2.542.1a.536.536,0,0,0-.9.373,2.094,2.094,0,0,1-.5,1.425c-.416.345-.753.034-.974-.325a18.484,18.484,0,0,1-.857-2.307,1.818,1.818,0,0,0-1.753-1.062,4.924,4.924,0,0,1-2.712-.9.454.454,0,0,0-.663.27c.034-.161-.278-.517-.389-.647a1.211,1.211,0,0,0-.574-.4,1.455,1.455,0,0,0-1.427.533c-.4.451-.474,1.133-.929,1.534a2.967,2.967,0,0,1-1.636.467,4.971,4.971,0,0,0-1.5.348,6.106,6.106,0,0,0-1.43,1.08,4.18,4.18,0,0,1-1.562.829,1.467,1.467,0,0,0-1.037,1.019c-.16.585.1,1.24-.316,1.747a24.434,24.434,0,0,1-1.736,1.729c-.533.533-1.109,1.045-1.6,1.613a1.192,1.192,0,0,0-.315,1.251,1.728,1.728,0,0,0,.682.733c.328.23.91.424.721.9-.178.447-.553.747-.461,1.277a1.1,1.1,0,0,0,1.007.851c.306.045.6-.059.9-.032.431.038.528.325.814.592a1.33,1.33,0,0,0,.744.354c.38.06.68-.011.875.387a8.618,8.618,0,0,0,.637,1.6,1.512,1.512,0,0,0,.1.122,5.683,5.683,0,0,0,.4,2.764,1.7,1.7,0,0,0,.667.753.923.923,0,0,0,.968-.02.822.822,0,0,0,.1,1.051,3.487,3.487,0,0,0,.961.629,5.08,5.08,0,0,1,2.48,3.414,4.223,4.223,0,0,0,.329,1.27.93.93,0,0,0,1.093.5l.138.258a2.6,2.6,0,0,0,1.1,1.157,5.317,5.317,0,0,0,1.564.391l2.134.309a4.779,4.779,0,0,1,3.1,1.406,2.378,2.378,0,0,1,.766.884,4.319,4.319,0,0,0,.32,1,1.449,1.449,0,0,0,.862.46,13.036,13.036,0,0,0,3.552.387l.443.98c.529,1.17-.327,2.494-1.311,3.319a3.841,3.841,0,0,0-.968.91,2.312,2.312,0,0,0-.211,1.242,3.532,3.532,0,0,1-.094,1.266,1.023,1.023,0,0,1-.932.741l.327,1.391c-.183.2.078.573.293.742a3.444,3.444,0,0,1,.661.48,1.691,1.691,0,0,1,.163,1.144c-.019.4.075.874.446,1.01s.888-.154,1.165.139c.146.155.138.4.247.583a.507.507,0,0,0,.943-.249,1.387,1.387,0,0,0,1.09.316c.209-.03.319.069.425.25a1.489,1.489,0,0,1,.153.609q.065.629.13,1.257a1.067,1.067,0,0,1-.057.615c-.276.52-1.252.4-1.4.968-.11.428.383.758.525,1.176.2.589-.322,1.157-.8,1.554s-1.015.939-.851,1.538a.79.79,0,0,0,.671.525,1.982,1.982,0,0,0,.906-.133l1.962-.612c.472-.147,1.025-.383,1.1-.872.4,0,.7-.368.875-.729a2.716,2.716,0,0,1,.614-1.021c.67-.537,1.7-.025,2.508-.308.568-.2.923-.744,1.354-1.164s1.134-.726,1.612-.361l.95-.86c-.276-.391.205-.979.558-1.3s.806-.566,1.016-1a6.453,6.453,0,0,0,.254-1.092,3.445,3.445,0,0,1,1.052-1.439l2.477-2.376c-.236.074-.447-.229-.395-.471a1.24,1.24,0,0,1,.435-.586.863.863,0,0,0,.346-.63C1009.124,897.484,1008.662,897.3,1008.289,897.185Z" fill="#388e94"/>
      <path id="Trazado_704250" data-name="Trazado 704250" d="M992.059,883.616a.58.58,0,0,0,.525-.536c-.008-.368-.434-.574-.8-.62a1.756,1.756,0,0,1-1.043-.29,1.006,1.006,0,0,0-.557-.517c-.6-.317-1.682-1.19-2.39-1.167-.336.011-.809.346-.776.728.029.339.53.617.746.25-.047.33-.093.659-.14.989a2.861,2.861,0,0,1,3.063.361c.209.177.392.385.611.549A1.093,1.093,0,0,0,992.059,883.616Z" fill="#388e94"/>
      <path id="Trazado_704251" data-name="Trazado 704251" d="M993.052,884.092a2.163,2.163,0,0,0,1.3.354l1.609.1c.2.013.458-.02.5-.215.026-.135-.084-.257-.193-.342C995.516,883.406,993.607,883.034,993.052,884.092Z" fill="#388e94"/>
      <path id="Trazado_704252" data-name="Trazado 704252" d="M993.9,881.824h0Z" fill="#388e94"/>
      <path id="Trazado_704253" data-name="Trazado 704253" d="M994.183,881.982a1.712,1.712,0,0,0-.28-.156l.277.155a.524.524,0,0,1-.28-.156.629.629,0,0,0-.218-.049.358.358,0,0,0-.386.319c.007.227.278.333.5.382l.689.154c.156.035.347.059.449-.063a.311.311,0,0,0-.107-.429,1.066,1.066,0,0,0-.477-.127A1.613,1.613,0,0,1,994.183,881.982Z" fill="#388e94"/>
      <path id="Trazado_704254" data-name="Trazado 704254" d="M990.517,884.109a.4.4,0,0,0-.279.43,1.414,1.414,0,0,0,.5.437.483.483,0,0,0,.6-.148.466.466,0,0,0-.138-.56,1.086,1.086,0,0,0-.582-.208l.057.041A.367.367,0,0,0,990.517,884.109Z" fill="#388e94"/>
      <path id="Trazado_704255" data-name="Trazado 704255" d="M985.223,895.612a1.249,1.249,0,0,0-.588-.163l.148-.017a.5.5,0,1,0-.382.932,1.016,1.016,0,0,0,.517.009.629.629,0,0,0,.471-.226A.427.427,0,0,0,985.223,895.612Z" fill="#388e94"/>
      <path id="Trazado_704256" data-name="Trazado 704256" d="M982.705,895.461a.282.282,0,0,0-.3.076.33.33,0,0,0,.081.462.408.408,0,0,0,.487-.051.541.541,0,0,0,.153-.482Z" fill="#388e94"/>
      <path id="Trazado_704257" data-name="Trazado 704257" d="M983.551,894.317c-.219-.067-.522-.085-.608.127-.075.187.122.391.322.4a.967.967,0,0,0,.556-.207l-.165.174a.172.172,0,0,0,.278-.044.276.276,0,0,0-.081-.307A.736.736,0,0,0,983.551,894.317Z" fill="#388e94"/>
      <path id="Trazado_704258" data-name="Trazado 704258" d="M999.933,888.756a.761.761,0,0,0-.107,0l.053.02a.189.189,0,0,0-.076.064.344.344,0,0,0,.1.423,1.122,1.122,0,0,0,.432.186.839.839,0,0,1,.415.216.918.918,0,0,0-.637-.87A.224.224,0,0,0,999.933,888.756Z" fill="#388e94"/>
      <path id="Trazado_704259" data-name="Trazado 704259" d="M999.455,887.73l-.016.01.644-.168a.681.681,0,0,0-.545-.439c-.246-.008-.477.287-.341.492A.27.27,0,0,0,999.455,887.73Z" fill="#388e94"/>
      <path id="Trazado_704260" data-name="Trazado 704260" d="M992,880.329a.223.223,0,1,0-.223-.223A.226.226,0,0,0,992,880.329Z" fill="#388e94"/>
      <path id="Trazado_704261" data-name="Trazado 704261" d="M992.624,881.219a.312.312,0,0,0-.292-.224.281.281,0,0,0-.276.338.23.23,0,0,0,.036.1s0,.006.009.016l.005.009c.006.007.013.012.019.018a.3.3,0,0,0,.3.1A.289.289,0,0,0,992.624,881.219Z" fill="#388e94"/>
      <path id="Trazado_704262" data-name="Trazado 704262" d="M991.167,881.36a.23.23,0,0,0,.142-.13.256.256,0,0,0,.015-.369.25.25,0,0,0-.393.051.343.343,0,0,0-.015.346A.224.224,0,0,0,991.167,881.36Z" fill="#388e94"/>
      <path id="Trazado_704263" data-name="Trazado 704263" d="M998.024,884.857l.061-.029a.191.191,0,1,0-.262-.262l-.029.062A.169.169,0,0,0,998.024,884.857Z" fill="#388e94"/>
      <path id="Trazado_704264" data-name="Trazado 704264" d="M997.444,885.855a.152.152,0,0,0,0-.3A.152.152,0,0,0,997.444,885.855Z" fill="#388e94"/>
      <path id="Trazado_704265" data-name="Trazado 704265" d="M996.255,885.394a.137.137,0,0,0,0-.274A.137.137,0,0,0,996.255,885.394Z" fill="#388e94"/>
      <path id="Trazado_704266" data-name="Trazado 704266" d="M998.632,885.519a.212.212,0,0,0,0-.424A.212.212,0,0,0,998.632,885.519Z" fill="#388e94"/>
      <path id="Trazado_704267" data-name="Trazado 704267" d="M999.87,885.589a.233.233,0,0,0,0-.465A.233.233,0,0,0,999.87,885.589Z" fill="#388e94"/>
    </g>
    <g id="Grupo_916539" data-name="Grupo 916539">
      <path id="Trazado_704268" data-name="Trazado 704268" d="M1015.889,889.881a1.774,1.774,0,0,0-.187-.5c-.093-.174-.371-.675-.738-1.335Z" fill="none"/>
      <path id="Trazado_704269" data-name="Trazado 704269" d="M1001.96,872.1l3.489,1.011,4.509,1.307,3.488,1.011a2.19,2.19,0,0,0,2.773-1.628l.8-3.53c.284-1.255.75-3.307,1.035-4.562l.8-3.53c.286-1.254-.526-1.668-1.8-.919l-2.189,1.285c-.8-1.362-1.6-2.717-1.914-3.212-.705-1.126-2.06-1.988-4.721-1.973l-10.543.06,4.4,7.7a1.436,1.436,0,0,1,.273.386c.21.423,1.008,1.879,1.8,3.318l-2.142,1.257C1000.75,870.832,1000.721,871.739,1001.96,872.1Z" fill="url(#linear-gradient-3)"/>
      <path id="Trazado_704270" data-name="Trazado 704270" d="M989.758,859.985c-1.131,1.711-4,6.265-4,6.265a2.116,2.116,0,0,0,.729,2.966l7.031,4.111a2.253,2.253,0,0,0,3.04-.764l4.333-7.094c.378-.624.833-.717,1.2-.347l-4.4-7.7-2.539.015A5.885,5.885,0,0,0,989.758,859.985Z" fill="url(#linear-gradient-4)"/>
      <path id="Trazado_704271" data-name="Trazado 704271" d="M977.321,888.77c.792,1.531,2.985,5.472,4.592,8.361l4.983-8.117c.587-1,1.676-2.85,2.584-4.384l2.551,1.412c1.295.718,2.1.284,1.78-.964l-.893-3.509c-.316-1.246-.834-3.286-1.152-4.534l-.89-3.509a2.19,2.19,0,0,0-2.813-1.558l-3.462,1.1-4.474,1.419-3.462,1.1c-1.231.39-1.179,1.3.116,2.013l1.881,1.042c-.961,1.851-2.092,4.037-2.377,4.664C975.769,884.435,976.088,886.389,977.321,888.77Z" fill="url(#linear-gradient-5)"/>
      <path id="Trazado_704272" data-name="Trazado 704272" d="M986.9,889.014l-4.983,8.117c.895,1.608,1.609,2.891,1.8,3.247.526,1,1.28,2.946,6.035,2.919l6.914-.039a2.2,2.2,0,0,0,2.186-2.2l-.046-8.129a2.2,2.2,0,0,0-2.213-2.18l-9.443.054c-.852.005-.961-.558-.661-1.081C986.523,889.647,986.676,889.389,986.9,889.014Z" fill="url(#linear-gradient-4)"/>
      <path id="Trazado_704273" data-name="Trazado 704273" d="M1015.889,889.881l4.119,8.2c1.442-2.647,3.89-7.243,4.89-9.23,1.338-2.658,1.717-4.962,1.1-6.174s-3.668-7.105-3.668-7.105a2.017,2.017,0,0,0-2.882-.8l-6.985,4.281a2.31,2.31,0,0,0-.8,3.062s2.123,3.8,3.3,5.93c.367.66.645,1.161.738,1.335A1.774,1.774,0,0,1,1015.889,889.881Z" fill="url(#linear-gradient-7)"/>
      <path id="Trazado_704274" data-name="Trazado 704274" d="M1018.989,899.916c.162-.275.534-.947,1.019-1.838l-4.119-8.2c.087.476-.155.8-.747.8l-4.261.025-.023-2.541c-.014-1.477-.787-1.956-1.719-1.065l-2.623,2.5c-.932.89-2.459,2.346-3.39,3.236l-2.623,2.5a2.177,2.177,0,0,0,.027,3.206l2.669,2.458,3.448,3.175,2.667,2.457c.948.873,1.715.381,1.7-1.1l-.023-2.415,3.263-.02C1017.219,903.1,1018.34,901.005,1018.989,899.916Z" fill="url(#linear-gradient-4)"/>
    </g>
    <g id="Grupo_916540" data-name="Grupo 916540" opacity="0.8">
      <path id="Trazado_704275" data-name="Trazado 704275" d="M1033.448,862.723a9.194,9.194,0,0,1,2.864.456,7.987,7.987,0,0,1,11.724-9.982A11.5,11.5,0,0,1,1070,855.241a13.365,13.365,0,1,1,4.595,25.915h-41.148a9.216,9.216,0,0,1,0-18.433Z" fill="url(#linear-gradient-9)"/>
      <path id="Trazado_704276" data-name="Trazado 704276" d="M1069.622,876.182a13.361,13.361,0,0,0,11.6-19.991,13.362,13.362,0,0,1-6.628,24.965h-41.148a9.218,9.218,0,0,1-8.511-5.679,9.172,9.172,0,0,0,3.538.705Z" fill="url(#linear-gradient-10)"/>
    </g>
    <g id="Grupo_916541" data-name="Grupo 916541" opacity="0.8">
      <path id="Trazado_704277" data-name="Trazado 704277" d="M948.675,840.333a5.8,5.8,0,0,1,1.81.289,5.049,5.049,0,0,1,7.411-6.31A7.27,7.27,0,0,1,971.78,835.6a8.448,8.448,0,1,1,2.9,16.381h-26.01a5.826,5.826,0,0,1,0-11.652Z" fill="url(#linear-gradient-11)"/>
      <path id="Trazado_704278" data-name="Trazado 704278" d="M971.541,848.841a8.444,8.444,0,0,0,7.333-12.636,8.446,8.446,0,0,1-4.189,15.78h-26.01a5.826,5.826,0,0,1-5.38-3.59,5.8,5.8,0,0,0,2.236.446Z" fill="url(#linear-gradient-12)"/>
    </g>
    <g id="Grupo_916542" data-name="Grupo 916542" opacity="0.8">
      <path id="Trazado_704279" data-name="Trazado 704279" d="M1030.658,910.3a3.74,3.74,0,0,1,1.165.185,3.249,3.249,0,0,1,4.77-4.061,4.679,4.679,0,0,1,8.936.831,5.438,5.438,0,1,1,1.87,10.544h-16.741a3.75,3.75,0,1,1,0-7.5Z" fill="url(#linear-gradient-13)"/>
      <path id="Trazado_704280" data-name="Trazado 704280" d="M1045.375,915.78a5.435,5.435,0,0,0,4.72-8.133,5.436,5.436,0,0,1-2.7,10.157h-16.741a3.751,3.751,0,0,1-3.463-2.31,3.744,3.744,0,0,0,1.439.286Z" fill="url(#linear-gradient-14)"/>
    </g>
  </g>
</svg>
