<svg xmlns="http://www.w3.org/2000/svg" xmlns:xlink="http://www.w3.org/1999/xlink" width="364" height="364" viewBox="0 0 364 364">
  <defs>
    <filter id="Elipse_6088" x="0" y="0" width="364" height="364" filterUnits="userSpaceOnUse">
      <feOffset dy="3" input="SourceAlpha"/>
      <feGaussianBlur stdDeviation="3" result="blur"/>
      <feFlood flood-opacity="0.161"/>
      <feComposite operator="in" in2="blur"/>
      <feComposite in="SourceGraphic"/>
    </filter>
  </defs>
  <g id="Grupo_914492" data-name="Grupo 914492" transform="translate(-1037 -12070)">
    <g transform="matrix(1, 0, 0, 1, 1037, 12070)" filter="url(#Elipse_6088)">
      <circle id="Elipse_6088-2" data-name="Elipse 6088" cx="173" cy="173" r="173" transform="translate(9 6)" fill="#fcf1ea"/>
    </g>
    <path id="Trazado_254296" data-name="Trazado 254296" d="M64.724,222.277c.187-13.227-22.366-35.213-26.594-73.239-3.526-31.53,18.153-59.295,38.937-69.5,19.4-9.513,28.992-6.06,41.954-13.9,18.137-10.975,20.342-36.248,47.02-45.074,12.681-4.2,26.136-.77,38.094,5.539S227.311,40.882,239.9,45.147c12.676,4.3,26.105,3.246,39.259,2.018,44.383-4.161,72.953,34.329,71.3,65.848-.978,18.725-7.043,31.437-15.567,42.6-4.8,6.273-11.89,13.17-9.55,21.148,1.04,3.641,3.885,6.054,6.242,8.743,7.864,9.066,10.673,24.446,7.2,36.773Z" transform="translate(1020.681 12124.745)" fill="#add7d3"/>
    <g id="Grupo_914494" data-name="Grupo 914494" transform="translate(25.868 8293.133)">
      <path id="Trazado_698024" data-name="Trazado 698024" d="M1325.493,4090.249h-2.971a62.066,62.066,0,0,0-5.94,2.689c-6.244,3.26-12.407,7.965-19.613,8.786-6.127.7-10.862-1.411-16.131-4.253-9.1-4.907-13.5-6.206-23.749-5.057a9.421,9.421,0,0,1-3.4-.232c-9.3,5.344-19.315,10-29.959,9.674a41.376,41.376,0,0,1-26.295-11.607h-9.51c-7.2,4.412-14.021,9.574-22.513,11.1-11.124,2.005-22.529-3.694-31.8-9.322a10.351,10.351,0,0,1-2.165-1.783h-.051c-8.1,5.155-16.607,9.906-26.094,11.58-13.113,2.313-21.9-3.658-33.58-8.181a10.036,10.036,0,0,1-4.51-3.4h-1.871a8.908,8.908,0,0,1-4,4.753v114.2h265.742V4091.832A8.539,8.539,0,0,1,1325.493,4090.249Z" transform="translate(-0.955 -155.311)" fill="#956640"/>
      <path id="Trazado_698025" data-name="Trazado 698025" d="M1323.109,4027.706a3.3,3.3,0,0,1,0,6.607,32.028,32.028,0,0,0-19.888,6.91,20.45,20.45,0,0,1-25.213,0,32.075,32.075,0,0,0-39.775,0,20.449,20.449,0,0,1-25.213,0,32.124,32.124,0,0,0-39.809,0,20.4,20.4,0,0,1-25.18,0c-.067-.068-.168-.1-.236-.168a21.231,21.231,0,0,1-2.461,7.011,19.882,19.882,0,0,1-15.708,10.314,19.163,19.163,0,0,1-1.989.1q-1.011,0-2.022-.1a19.882,19.882,0,0,1-15.708-10.314,22.141,22.141,0,0,1-2.326-6.4,20.311,20.311,0,0,1-24.54-.438,32.027,32.027,0,0,0-19.888-6.91,3.3,3.3,0,0,1,0-6.607,38.538,38.538,0,0,1,24,8.36,13.769,13.769,0,0,0,16.989,0,34.277,34.277,0,0,1,3.4-2.393,21.545,21.545,0,0,1,1.82-5.629l15.3-31.011a3.471,3.471,0,0,1,5.932,0l15.3,31.011a22.759,22.759,0,0,1,1.719,4.955,37.934,37.934,0,0,1,4.517,3.068,13.769,13.769,0,0,0,16.989,0,38.63,38.63,0,0,1,48,0,13.769,13.769,0,0,0,16.989,0,38.63,38.63,0,0,1,48,0,13.769,13.769,0,0,0,16.989,0A38.537,38.537,0,0,1,1323.109,4027.706ZM1139.6,4044.863a14.893,14.893,0,0,0,.37-13.887l-12.337-25.011-12.371,25.011a14.992,14.992,0,0,0,.4,13.887,13.4,13.4,0,0,0,10.55,6.944,12.946,12.946,0,0,0,2.8,0A13.4,13.4,0,0,0,1139.6,4044.863Z" transform="translate(0 -94.487)"/>
      <path id="Trazado_698026" data-name="Trazado 698026" d="M1323.109,4192.319a3.286,3.286,0,1,1,0,6.573,31.957,31.957,0,0,0-19.888,6.911,20.45,20.45,0,0,1-25.213,0,32.072,32.072,0,0,0-39.775,0,21.716,21.716,0,0,1-2.6,1.719l9.168,18.572a20.783,20.783,0,0,1,1.922,6.27,39.557,39.557,0,0,1,35.393,6.606,13.767,13.767,0,0,0,16.989,0,38.506,38.506,0,0,1,24-8.326,3.287,3.287,0,1,1,0,6.573,32.027,32.027,0,0,0-19.888,6.91,20.45,20.45,0,0,1-25.213,0,32.709,32.709,0,0,0-31.382-4.719,21.269,21.269,0,0,1-2.359,6.708,19.883,19.883,0,0,1-15.708,10.314c-.674.067-1.348.067-2.022.067a19.3,19.3,0,0,1-1.989-.067,19.883,19.883,0,0,1-15.708-10.314,22.131,22.131,0,0,1-2.225-5.865,31.9,31.9,0,0,0-33.4,3.876,20.4,20.4,0,0,1-25.18,0,32.122,32.122,0,0,0-39.809,0,20.4,20.4,0,0,1-25.18,0,32.026,32.026,0,0,0-19.888-6.91,3.287,3.287,0,1,1,0-6.573,38.507,38.507,0,0,1,24,8.326,13.767,13.767,0,0,0,16.989,0,38.754,38.754,0,0,1,48,0,13.767,13.767,0,0,0,16.989,0,38.506,38.506,0,0,1,24-8.326,39.309,39.309,0,0,1,13.112,2.292,21.594,21.594,0,0,1,2.022-6.843l8.8-17.831a18.553,18.553,0,0,1-4.045-2.46,32.12,32.12,0,0,0-39.809,0,20.4,20.4,0,0,1-25.18,0,32.12,32.12,0,0,0-39.809,0,20.4,20.4,0,0,1-25.18,0,32.026,32.026,0,0,0-19.888-6.911,3.286,3.286,0,1,1,0-6.573,38.507,38.507,0,0,1,24,8.326,13.768,13.768,0,0,0,16.989,0,38.754,38.754,0,0,1,48,0,13.769,13.769,0,0,0,16.989,0,38.754,38.754,0,0,1,48,0,12.311,12.311,0,0,0,2.865,1.686l3.573-7.247a3.444,3.444,0,0,1,5.933,0l3.2,6.472a12.541,12.541,0,0,0,1.416-.91,38.755,38.755,0,0,1,48,0,13.768,13.768,0,0,0,16.989,0A38.506,38.506,0,0,1,1323.109,4192.319Zm-84.607,50.562a14.921,14.921,0,0,0,.4-13.854l-12.371-25.045-12.337,25.045a14.823,14.823,0,0,0,.371,13.854,13.359,13.359,0,0,0,10.551,6.978,19.851,19.851,0,0,0,2.831,0A13.359,13.359,0,0,0,1238.5,4242.881Z" transform="translate(0 -220.74)"/>
      <path id="Trazado_698027" data-name="Trazado 698027" d="M1640.287,3884.849a23.883,23.883,0,0,1-.607,22.315,22.152,22.152,0,0,1-17.46,11.461c-.776.067-1.483.1-2.259.1-.741,0-1.483-.034-2.191-.1a22.157,22.157,0,0,1-17.494-11.461,23.98,23.98,0,0,1-.641-22.315l17.393-35.191a3.415,3.415,0,0,1,5.9,0Zm-6.371,19.079a17.233,17.233,0,0,0,.472-16.146l-14.427-29.225-14.393,29.225a17.326,17.326,0,0,0,.438,16.146,15.733,15.733,0,0,0,12.337,8.124,17.664,17.664,0,0,0,3.27,0A15.626,15.626,0,0,0,1633.916,3903.927Z" transform="translate(-344.447)"/>
      <path id="Trazado_698028" data-name="Trazado 698028" d="M1646.162,3906.7a17.233,17.233,0,0,1-.472,16.146,15.626,15.626,0,0,1-12.3,8.124,17.622,17.622,0,0,1-3.27,0,15.733,15.733,0,0,1-12.337-8.124,17.326,17.326,0,0,1-.438-16.146l14.393-29.225Z" transform="translate(-356.221 -18.915)" fill="#d3e7f0"/>
      <path id="Trazado_698029" data-name="Trazado 698029" d="M1511.778,4249.853a14.921,14.921,0,0,1-.4,13.854,13.359,13.359,0,0,1-10.551,6.978,19.853,19.853,0,0,1-2.831,0,13.359,13.359,0,0,1-10.551-6.978,14.823,14.823,0,0,1-.371-13.854l12.337-25.045Z" transform="translate(-272.871 -241.566)" fill="#d3e7f0"/>
      <path id="Trazado_698030" data-name="Trazado 698030" d="M1236.232,4049.906a14.893,14.893,0,0,1-.37,13.887,13.4,13.4,0,0,1-10.584,6.944,12.946,12.946,0,0,1-2.8,0,13.4,13.4,0,0,1-10.55-6.944,14.992,14.992,0,0,1-.4-13.887L1223.9,4024.9Z" transform="translate(-96.258 -113.417)" fill="#d3e7f0"/>
    </g>
  </g>
</svg>
