<svg xmlns="http://www.w3.org/2000/svg" xmlns:xlink="http://www.w3.org/1999/xlink" width="364" height="364" viewBox="0 0 364 364">
  <defs>
    <filter id="Elipse_6088" x="0" y="0" width="364" height="364" filterUnits="userSpaceOnUse">
      <feOffset dy="3" input="SourceAlpha"/>
      <feGaussianBlur stdDeviation="3" result="blur"/>
      <feFlood flood-opacity="0.161"/>
      <feComposite operator="in" in2="blur"/>
      <feComposite in="SourceGraphic"/>
    </filter>
  </defs>
  <g id="Grupo_914491" data-name="Grupo 914491" transform="translate(-1037 -12070)">
    <g transform="matrix(1, 0, 0, 1, 1037, 12070)" filter="url(#Elipse_6088)">
      <circle id="Elipse_6088-2" data-name="Elipse 6088" cx="173" cy="173" r="173" transform="translate(9 6)" fill="#fcf1ea"/>
    </g>
    <path id="Trazado_254296" data-name="Trazado 254296" d="M64.724,222.277c.187-13.227-22.366-35.213-26.594-73.239-3.526-31.53,18.153-59.295,38.937-69.5,19.4-9.513,28.992-6.06,41.954-13.9,18.137-10.975,20.342-36.248,47.02-45.074,12.681-4.2,26.136-.77,38.094,5.539S227.311,40.882,239.9,45.147c12.676,4.3,26.105,3.246,39.259,2.018,44.383-4.161,72.953,34.329,71.3,65.848-.978,18.725-7.043,31.437-15.567,42.6-4.8,6.273-11.89,13.17-9.55,21.148,1.04,3.641,3.885,6.054,6.242,8.743,7.864,9.066,10.673,24.446,7.2,36.773Z" transform="translate(1020.681 12124.745)" fill="#add7d3"/>
    <g id="Grupo_914496" data-name="Grupo 914496" transform="translate(-910.659 11912.725)">
      <path id="Trazado_698071" data-name="Trazado 698071" d="M2230.242,410.913a31.293,31.293,0,0,1-28.96,43.137H2057.221a31.258,31.258,0,0,1-28.96-43.137l55.233-134.788a50.983,50.983,0,0,0-.236-39.14l-2.586-6.081h-2.419a13.791,13.791,0,0,1,0-27.583h101.965a13.791,13.791,0,1,1,0,27.583H2177.8l-2.587,6.081a51.286,51.286,0,0,0-.235,39.14Zm-8.433,25.634a24.406,24.406,0,0,0,2.352-23.148l-9.138-22.274c-17.941-11.759-37.157-8.6-57.517-5.241-16.966,2.789-34.537,5.711-51.335-.739-30.774-11.792-59.768,7.056-64.5,10.382l-7.324,17.873a24.732,24.732,0,0,0,22.879,34.1h144.061A24.388,24.388,0,0,0,2221.809,436.547Zm-10.751-55.1L2168.9,278.611a57.772,57.772,0,0,1,.269-44.213l1.511-3.494h-82.848l1.512,3.494a57.926,57.926,0,0,1,.269,44.213l-12.767,31.144L2045.9,385.212c12.531-6.786,36.653-16.16,62.623-6.215a53.12,53.12,0,0,0,17.269,3.393,91.53,91.53,0,0,0,1.545-28.59c-17.537-.2-30.371-4.905-38.064-14.043-9.911-11.792-7.425-26.306-7.324-26.911a3.871,3.871,0,0,1,.3-.874,3.268,3.268,0,0,1,2.049-1.713c11.658-3.259,21.636-2.049,29.733,3.528a34.652,34.652,0,0,1,6.316,5.779,166.944,166.944,0,0,0-6.551-17.907c-.034-.1-.034-.2-.067-.3s-.1-.168-.135-.269c-.235-1.008-5.812-24.794,5.812-40.484,5.846-7.895,14.95-12.229,27.011-12.9a3.346,3.346,0,0,1,3.057,1.68c.3.571,7.324,13.539,1.713,27.851-4.2,10.784-14.345,19.15-30,24.962,4.536,11.087,18.108,48.211,11.356,80.195a203.481,203.481,0,0,0,23.887-2.99C2174.573,376.41,2193.219,373.353,2211.058,381.449ZM2187.44,217.1a7.233,7.233,0,0,0-7.223-7.223H2078.252a7.223,7.223,0,0,0,0,14.446h101.965A7.233,7.233,0,0,0,2187.44,217.1Zm-42.365,57.752c3.36-8.668.907-16.832-.5-20.393-8.9.907-15.589,4.3-19.889,10.079-7.392,9.944-6.35,24.659-5.342,31.379C2132.947,290.806,2141.582,283.718,2145.075,274.848Zm-19.654,72.366c-1.209-6.719-4.972-21-15.152-28.019-5.913-4.1-13.337-5.14-22.039-3.158-.2,3.864.135,12.464,6.115,19.519C2100.493,342.813,2110.942,346.744,2125.421,347.215Z" transform="translate(0)"/>
      <path id="Trazado_698072" data-name="Trazado 698072" d="M2235.91,732.876a24.733,24.733,0,0,1-22.879,34.1H2068.97a24.732,24.732,0,0,1-22.879-34.1L2053.415,715c4.737-3.326,33.731-22.174,64.5-10.382,16.8,6.451,34.369,3.528,51.335.739,20.36-3.36,39.577-6.517,57.517,5.241Zm-21.569,14.917a5.291,5.291,0,1,0-5.275,5.274A5.262,5.262,0,0,0,2214.341,747.793Zm-19.116-24.055a8.7,8.7,0,1,0-8.7,8.7A8.7,8.7,0,0,0,2195.225,723.739Zm-56.744,19.788a7.072,7.072,0,1,0-7.055,7.089A7.054,7.054,0,0,0,2138.481,743.527Zm-39.308-21.5a10.751,10.751,0,1,0-10.751,10.751A10.739,10.739,0,0,0,2099.173,722.025Zm-23.215,25.768a3.914,3.914,0,1,0-3.931,3.931A3.936,3.936,0,0,0,2075.958,747.793Z" transform="translate(-11.749 -319.477)" fill="#ba7f50"/>
      <path id="Trazado_698073" data-name="Trazado 698073" d="M2260.3,328.121l42.164,102.838c-17.84-8.1-36.486-5.039-54.628-2.049a203.468,203.468,0,0,1-23.887,2.99c6.753-31.984-6.82-69.108-11.356-80.195,15.656-5.812,25.8-14.177,30-24.962,5.611-14.312-1.411-27.28-1.713-27.851a3.345,3.345,0,0,0-3.057-1.68c-12.061.672-21.165,5.006-27.011,12.9-11.625,15.69-6.048,39.476-5.812,40.484.034.1.1.168.135.269s.033.2.067.3a166.832,166.832,0,0,1,6.552,17.907,34.642,34.642,0,0,0-6.316-5.779c-8.1-5.577-18.075-6.786-29.733-3.528a3.269,3.269,0,0,0-2.05,1.713l-5.409-2.217,12.767-31.144a57.927,57.927,0,0,0-.269-44.213l-1.511-3.494h82.848l-1.511,3.494A57.771,57.771,0,0,0,2260.3,328.121Z" transform="translate(-91.41 -49.509)" fill="#f0e5d8"/>
      <path id="Trazado_698074" data-name="Trazado 698074" d="M2495.449,817.428a5.275,5.275,0,1,1-5.308,5.275A5.262,5.262,0,0,1,2495.449,817.428Z" transform="translate(-298.132 -394.387)"/>
      <path id="Trazado_698075" data-name="Trazado 698075" d="M2261.255,221.632a7.223,7.223,0,0,1,0,14.446H2159.291a7.223,7.223,0,0,1,0-14.446Z" transform="translate(-81.038 -11.759)" fill="#f0d5b4"/>
      <circle id="Elipse_6224" data-name="Elipse 6224" cx="8.701" cy="8.701" r="8.701" transform="translate(2166.073 395.56)"/>
      <path id="Trazado_698076" data-name="Trazado 698076" d="M2311,346.238c1.411,3.561,3.864,11.725.5,20.393-3.494,8.869-12.128,15.958-25.734,21.065-1.008-6.719-2.05-21.434,5.342-31.379C2295.407,350.538,2302.092,347.145,2311,346.238Z" transform="translate(-166.424 -91.782)" fill="#afc691"/>
      <path id="Trazado_698077" data-name="Trazado 698077" d="M2163.207,544.842a91.545,91.545,0,0,1-1.545,28.591,53.125,53.125,0,0,1-17.269-3.393c-25.97-9.945-50.092-.571-62.623,6.215l30.942-75.457,5.409,2.217a3.847,3.847,0,0,0-.3.874c-.1.6-2.587,15.118,7.324,26.911C2132.836,539.936,2145.669,544.64,2163.207,544.842Z" transform="translate(-35.871 -191.042)" fill="#f0e5d8"/>
      <path id="Trazado_698078" data-name="Trazado 698078" d="M2275.25,800.526a7.072,7.072,0,1,1-7.089,7.055A7.054,7.054,0,0,1,2275.25,800.526Z" transform="translate(-155.573 -383.532)"/>
      <path id="Trazado_698079" data-name="Trazado 698079" d="M2222.05,519.767c10.179,7.021,13.942,21.3,15.152,28.019-14.48-.47-24.928-4.4-31.076-11.658-5.98-7.055-6.316-15.656-6.115-19.519C2208.712,514.627,2216.137,515.668,2222.05,519.767Z" transform="translate(-111.78 -200.572)" fill="#afc691"/>
      <circle id="Elipse_6225" data-name="Elipse 6225" cx="10.751" cy="10.751" r="10.751" transform="translate(2065.923 391.797)"/>
      <path id="Trazado_698080" data-name="Trazado 698080" d="M2114.963,821.184a3.931,3.931,0,1,1-3.9,3.931A3.936,3.936,0,0,1,2114.963,821.184Z" transform="translate(-54.685 -396.799)"/>
    </g>
  </g>
</svg>
