<svg xmlns="http://www.w3.org/2000/svg" width="158.271" height="174.297" viewBox="0 0 158.271 174.297">
  <g id="Grupo_916863" data-name="Grupo 916863" transform="translate(1408.633 -3517.077)">
    <g id="Grupo_916857" data-name="Grupo 916857" transform="translate(-1405.665 3597.181)">
      <path id="Trazado_704473" data-name="Trazado 704473" d="M-1355.8,3807.017c2.688-8.536,6.073-24.154-.012-36.186a2.469,2.469,0,0,0-4.189-.109c-2.926,4.514-8.03,13.959-11.126,28.644,0,0,3.933-38.412-8.54-54.75a1.673,1.673,0,0,0-2.786.351c-2.686,6.062-8.876,23.939-3.607,51.1,0,0-4.438-20.447-11.045-28.971a1.164,1.164,0,0,0-2.038.53c-.885,7.084-2.873,28.3,2.733,43.073a9.922,9.922,0,0,0,10.634,5.945l21.11-2.574A10.525,10.525,0,0,0-1355.8,3807.017Z" transform="translate(1400.225 -3744.02)" fill="#0c544d"/>
      <path id="Trazado_704474" data-name="Trazado 704474" d="M-1345.2,3759.057q.61,7.957,1.122,15.91c.336,5.3.618,10.606.811,15.909.075,2.654.167,5.3.2,7.956s0,5.3-.02,7.952-.086,5.3-.179,7.944-.235,5.3-.464,7.963l.308.048a46.344,46.344,0,0,0,1.748-7.928c.368-2.671.587-5.353.693-8.031s.087-5.354.04-8.025c-.062-2.671-.138-5.34-.3-8s-.33-5.323-.562-7.978-.485-5.307-.8-7.951-.634-5.287-1.016-7.922-.792-5.265-1.275-7.885Z" transform="translate(1364.621 -3753.721)" fill="#0c544d" opacity="0.2"/>
      <path id="Trazado_704475" data-name="Trazado 704475" d="M-1391.521,3825.416a49.134,49.134,0,0,0-.163,5.132q.018,1.28.081,2.555l.068,1.274.095,1.272c.271,3.392.745,6.762,1.335,10.113s1.293,6.687,2.206,9.978c.105.412.225.822.351,1.231l.373,1.226.379,1.223c.136.406.287.808.43,1.211.3.8.557,1.615.9,2.4s.676,1.577,1.03,2.355l.3-.1c-.8-3.3-1.462-6.6-2.068-9.918s-1.115-6.646-1.625-9.978l-.369-2.5-.352-2.505c-.232-1.67-.49-3.337-.746-5.006-.536-3.335-1.111-6.668-1.914-9.993Z" transform="translate(1394.703 -3796.668)" fill="#0c544d" opacity="0.2"/>
    </g>
    <g id="Grupo_916858" data-name="Grupo 916858" transform="translate(-1390.386 3517.077)">
      <path id="Trazado_704476" data-name="Trazado 704476" d="M-1221.839,3718.43h-103.848a10.551,10.551,0,0,1-9.894-6.888c-11.234-30.334-5.214-87.705,3.111-148.688l111.854,4.649c11.559,55.424,19.784,110.6,7.277,144.5C-1214.707,3715.714-1217.889,3718.43-1221.839,3718.43Z" transform="translate(1347.103 -3546.696)" fill="#fee1b4"/>
      <path id="Trazado_704477" data-name="Trazado 704477" d="M-1237.038,3718.43h-103.848a10.55,10.55,0,0,1-9.894-6.888c-11.234-30.334-5.214-87.705,3.111-148.688h116.95c5.479,57.693,11.572,116.416,2.181,149.154A8.848,8.848,0,0,1-1237.038,3718.43Z" transform="translate(1356.937 -3546.696)" fill="#fee1b4"/>
      <path id="Trazado_704478" data-name="Trazado 704478" d="M-1339.039,3519.751l2.5,17.807,117.666.326,2.682-15.852a5.222,5.222,0,0,0-5.452-4.956H-1336.1A2.818,2.818,0,0,0-1339.039,3519.751Zm83.689,6.591a3.083,3.083,0,0,1-3.219,2.926h-38.626a3.083,3.083,0,0,1-3.219-2.926v-.244a3.083,3.083,0,0,1,3.219-2.926h38.626a3.083,3.083,0,0,1,3.219,2.926Z" transform="translate(1345.356 -3517.077)" fill="#edcea6"/>
    </g>
    <g id="Grupo_916860" data-name="Grupo 916860" transform="translate(-1372.662 3548.334)">
      <path id="Trazado_704479" data-name="Trazado 704479" d="M-1306.723,3656.363c.149,27.9,22.452,51.762,50.61,53.405a50.03,50.03,0,0,0,53.35-50.364,53.982,53.982,0,0,0-53.636-53.772A50.132,50.132,0,0,0-1306.723,3656.363Z" transform="translate(1306.724 -3605.632)" fill="#fff" opacity="0.9"/>
      <g id="Grupo_916859" data-name="Grupo 916859" transform="translate(29.673 39.893)">
        <path id="Trazado_704480" data-name="Trazado 704480" d="M-1162.577,3731.625c-8.883,1.686-13.221,13.454-12.157,21.887a19.383,19.383,0,0,0,1.691,5.793,41.229,41.229,0,0,0,1.57,6.71.736.736,0,0,0,.942.465l.055-.022a.763.763,0,0,0,.4-.942c-.043-.127-4.273-12.74.233-18.847,4.531-6.14,15.055-6.065,15.161-6.064,0,0-17.754.738-15.348,15.454a9.279,9.279,0,0,1,1.555-2.163c3.684-3.79,8.558-2,13.963-5.267,2.343-1.417,5.292-4.093,7.546-9.638C-1151.054,3733.705-1157.028,3730.571-1162.577,3731.625Z" transform="translate(1191.752 -3726.915)" fill="#594e38"/>
        <path id="Trazado_704481" data-name="Trazado 704481" d="M-1216.425,3827.318s16.273-18.386,39.436.161C-1202.3,3827.232-1216.425,3827.318-1216.425,3827.318Z" transform="translate(1218.625 -3783.707)" fill="#594e38"/>
        <path id="Trazado_704482" data-name="Trazado 704482" d="M-1222.658,3721.153c1.594,4.362,2.578,17.967,14.779,20.094a27.265,27.265,0,0,1,1.56-7.751,24.242,24.242,0,0,0-6.858-6.08,10.3,10.3,0,0,1,8.16,3.077,19.853,19.853,0,0,1,4.825-6.2C-1205.553,3720.114-1214.112,3715.787-1222.658,3721.153Z" transform="translate(1222.658 -3718.653)" fill="#594e38"/>
      </g>
      <text id="N2" transform="translate(33.162 28.504)" fill="#e26c1e" font-size="29" font-family="Montserrat-Bold, Montserrat" font-weight="700"><tspan x="0" y="0">N2</tspan></text>
    </g>
    <g id="Grupo_916861" data-name="Grupo 916861" transform="translate(-1408.633 3599.7)">
      <path id="Trazado_704483" data-name="Trazado 704483" d="M-1380.676,3838.631a18.648,18.648,0,0,1-14.624-9.92c-5.785-11.082-14.334-30.5-13.237-46.771,1.641-24.33,5.394-7.487,7.569,4.479s5.848,20.24,8.953,22.786-6.335-16.231-7.383-34.85.789-29.9,4.859-18.82,5.2,30.177,9.782,41.281,2.025-1.646,2.324-8.214,1.157-19.077,7.111-18.341,2.079,17.262,6.782,31.419,14.506,39.692,14.506,39.692Z" transform="translate(1408.633 -3751.156)" fill="#148d80"/>
      <path id="Trazado_704484" data-name="Trazado 704484" d="M-1400.1,3821.9c.324,2.524.694,5.047,1.134,7.555.1.629.223,1.254.335,1.881l.339,1.879.738,3.747q1.535,7.481,3.6,14.831c1.349,4.905,2.981,9.724,4.742,14.492l1.371,3.558c.109.3.234.591.363.882l.377.875.75,1.754.745,1.757c.256.583.543,1.15.814,1.726.551,1.147,1.1,2.3,1.634,3.456l0,.007a.132.132,0,0,1-.065.175.133.133,0,0,1-.17-.055c-.631-1.11-1.248-2.229-1.863-3.351-.3-.562-.626-1.117-.917-1.687l-.833-1.728-.828-1.732-.413-.867c-.139-.289-.273-.579-.392-.876l-1.479-3.543c-.509-1.176-.919-2.389-1.368-3.588l-.655-1.8c-.106-.3-.221-.6-.321-.9l-.295-.914-1.171-3.656c-.367-1.226-.7-2.46-1.054-3.691q-2.041-7.4-3.413-14.955c-.218-1.26-.434-2.52-.638-3.781-.184-1.266-.393-2.526-.547-3.794l-.24-1.9-.214-1.9c-.143-1.271-.252-2.542-.337-3.82a.132.132,0,0,1,.123-.141.132.132,0,0,1,.14.114Z" transform="translate(1403.285 -3796.854)" fill="#add7d3"/>
      <path id="Trazado_704485" data-name="Trazado 704485" d="M-1373.543,3780.148c1.26,6.293,2.522,12.581,3.842,18.853s2.676,12.534,4.123,18.771c.721,3.119,1.491,6.226,2.266,9.329l.593,2.325q.294,1.163.609,2.319l.61,2.32.627,2.314c.443,1.535.855,3.08,1.313,4.611.222.768.449,1.533.69,2.294s.45,1.534.7,2.29c.967,3.046,2.006,6.068,3.214,9.039a.132.132,0,0,1-.073.173.133.133,0,0,1-.165-.057,67.118,67.118,0,0,1-4.09-8.759c-.589-1.5-1.161-3.008-1.675-4.535-.537-1.52-1.033-3.052-1.513-4.589-1.921-6.149-3.459-12.4-4.871-18.673s-2.627-12.584-3.716-18.915c-1.07-6.334-2.038-12.685-2.751-19.071a.133.133,0,0,1,.117-.147A.134.134,0,0,1-1373.543,3780.148Z" transform="translate(1386.099 -3769.845)" fill="#add7d3"/>
      <path id="Trazado_704486" data-name="Trazado 704486" d="M-1322.672,3832.772a65.9,65.9,0,0,1,.169,7.569c-.03,1.247-.013,2.482-.012,3.715.025.616.033,1.231.05,1.845,0,.307.022.615.043.921l.059.92c.038,1.229.213,2.45.337,3.675.018.153.031.306.052.458l.075.457.15.914.3,1.827.789,3.631.938,3.607c1.382,4.781,3.007,9.51,4.785,14.192.415,1.181.914,2.332,1.369,3.5l1.376,3.5c.964,2.316,1.93,4.634,2.862,6.971v0a.133.133,0,0,1-.074.172.133.133,0,0,1-.166-.061q-1.772-3.331-3.479-6.7c-1.073-2.276-2.193-4.536-3.2-6.849-.5-1.159-1.007-2.313-1.494-3.478l-.368-.871c-.12-.292-.228-.589-.343-.883l-.679-1.769c-.947-2.344-1.715-4.76-2.5-7.17a63.885,63.885,0,0,1-2.907-14.993l-.05-.961c-.016-.321-.039-.641-.028-.962.01-.641.01-1.282.027-1.922s.077-1.276.125-1.913.123-1.268.2-1.9c.321-2.523.8-4.977,1.316-7.458a.135.135,0,0,1,.157-.105A.136.136,0,0,1-1322.672,3832.772Z" transform="translate(1354.268 -3803.887)" fill="#add7d3"/>
    </g>
    <g id="Grupo_916862" data-name="Grupo 916862" transform="translate(-1370.387 3618.059)">
      <path id="Trazado_704487" data-name="Trazado 704487" d="M-1296.12,3868.695c-2.9-8.474-6.786-24.08-1.65-36.679a2.227,2.227,0,0,1,3.91-.388c2.942,4.382,8.146,13.617,11.714,28.3,0,0-5.44-38.675,5.468-56.061a1.5,1.5,0,0,1,2.62.171c2.789,5.966,9.4,23.677,5.718,51.555,0,0,3.209-21.02,8.993-30.1a1.055,1.055,0,0,1,1.93.4c1.152,7.121,3.984,28.492-.576,43.84a9.472,9.472,0,0,1-9.666,6.731l-19.849-1.21A9.731,9.731,0,0,1-1296.12,3868.695Z" transform="translate(1300.278 -3803.17)" fill="#107066"/>
      <path id="Trazado_704488" data-name="Trazado 704488" d="M-1233.938,3818.486q-.2,8.1-.318,16.2c-.071,5.4-.091,10.79-.027,16.179.052,2.694.087,5.387.18,8.077s.245,5.375.384,8.058.323,5.363.532,8.041.463,5.353.8,8.041l-.286.068a49.691,49.691,0,0,1-2-7.919c-.467-2.683-.795-5.387-1.017-8.095s-.327-5.421-.406-8.132-.116-5.423-.09-8.132.064-5.418.159-8.124.209-5.411.378-8.113.349-5.4.585-8.1.5-5.389.829-8.077Z" transform="translate(1258.81 -3813.064)" fill="#add7d3"/>
      <path id="Trazado_704489" data-name="Trazado 704489" d="M-1193.058,3882.7c.226,1.731.33,3.461.388,5.191q.043,1.3.041,2.594l-.005,1.3-.03,1.3c-.1,3.456-.386,6.9-.784,10.34s-.9,6.864-1.6,10.26c-.079.426-.172.849-.271,1.271l-.293,1.268-.3,1.265c-.108.42-.231.837-.346,1.255-.24.835-.446,1.674-.733,2.5s-.56,1.643-.855,2.455l-.283-.08c.6-3.4,1.063-6.789,1.477-10.189s.737-6.811,1.06-10.221l.23-2.56.214-2.562c.141-1.708.3-3.415.467-5.125.348-3.416.732-6.832,1.33-10.255Z" transform="translate(1234.185 -3854.625)" fill="#add7d3"/>
    </g>
  </g>
</svg>
