<svg xmlns="http://www.w3.org/2000/svg" width="293" height="225" viewBox="0 0 293 225">
  <g id="Grupo_919060" data-name="Grupo 919060" transform="translate(-580 -23071)">
    <rect id="Rectángulo_298404" data-name="Rectángulo 298404" width="293" height="225" transform="translate(580 23071)" fill="none"/>
    <g id="Grupo_919061" data-name="Grupo 919061" transform="translate(577.108 23031.43)">
      <ellipse id="Elipse_6393" data-name="Elipse 6393" cx="95.396" cy="13.138" rx="95.396" ry="13.138" transform="translate(55.599 235.737)" fill="#f2f2f2"/>
      <ellipse id="Elipse_6394" data-name="Elipse 6394" cx="60.741" cy="8.365" rx="60.741" ry="8.365" transform="translate(90.254 241.025)" fill="#e8e8e8"/>
      <g id="Grupo_919093" data-name="Grupo 919093" transform="translate(37.923 41.222)">
        <g id="Grupo_919067" data-name="Grupo 919067" transform="translate(0 40.869)">
          <g id="Grupo_919063" data-name="Grupo 919063">
            <g id="Grupo_919061-2" data-name="Grupo 919061" transform="translate(0 10.601)">
              <path id="Trazado_707061" data-name="Trazado 707061" d="M72.994,162.171l2.62-2.522a46.377,46.377,0,0,0-15.594-16.86l-2.188,1.335.827-2.129q-1.175-.652-2.362-1.173l-3.351,3.415,1.078-4.288a15.787,15.787,0,0,0-7.373-.77,9.882,9.882,0,0,0-5.875,3.193,10.8,10.8,0,0,0-2.609,5.184,12.817,12.817,0,0,0-.239,2.9,16.264,16.264,0,0,0,.4,3.076c.931,4.176,3.443,8.668,7.025,12.875l4.114-1.4-2,3.72c.881.9,1.809,1.786,2.78,2.636l1.794-1.749-.454,2.889q.583.479,1.182.943C59.96,179,66.555,181,71.37,181.589a22.591,22.591,0,0,0,7.838-.212s2.748-8.227-2.544-19.629Z" transform="translate(-37.923 -139.021)" fill="#ffd200"/>
            </g>
            <rect id="Rectángulo_298405" data-name="Rectángulo 298405" width="0.591" height="41.292" transform="translate(8.549 21.794) rotate(-46.929)" fill="#fff"/>
            <path id="Trazado_707062" data-name="Trazado 707062" d="M70.681,170.193c-1.574-2.431-2.944-8.532-3-8.79l.577-.129c.014.063,1.405,6.255,2.921,8.6Z" transform="translate(-52.02 -138.963)" fill="#fff"/>
            <path id="Trazado_707063" data-name="Trazado 707063" d="M68.825,185.922l-.223-.547c2.36-.963,6.914-.334,7.107-.306l-.082.585C75.58,185.648,71.037,185.021,68.825,185.922Z" transform="translate(-52.457 -150.127)" fill="#fff"/>
            <path id="Trazado_707064" data-name="Trazado 707064" d="M95.164,191.838c-1.348-3.126-.564-8-.53-8.205l.583.1c-.008.048-.789,4.909.49,7.875Z" transform="translate(-64.667 -149.555)" fill="#fff"/>
            <g id="Grupo_919062" data-name="Grupo 919062" transform="translate(11.663)">
              <path id="Trazado_707065" data-name="Trazado 707065" d="M120.061,183.185s-6.4-17.8-5.6-35.05-4.27-30.208-12.542-29.2-15.478,32.229,16.011,66.12Z" transform="translate(-76.54 -118.879)" fill="#bce13e"/>
              <path id="Trazado_707066" data-name="Trazado 707066" d="M126.555,204.195l.644-.4c-.116-.185-11.626-18.733-12.072-39.194l-.76.016C114.816,185.288,126.437,204.008,126.555,204.195Z" transform="translate(-85.8 -140.536)" fill="#fff"/>
              <path id="Trazado_707067" data-name="Trazado 707067" d="M102.163,225.51S90.68,219.523,78.9,218.476s-20.1-5.682-18.653-11.2,23.291-7.528,43.378,16.959Z" transform="translate(-60.086 -159.085)" fill="#91b31e"/>
              <path id="Trazado_707068" data-name="Trazado 707068" d="M116.027,231.073l.487-.584c-.116-.1-11.769-9.727-25.786-11.944l-.119.751C104.415,221.479,115.913,230.977,116.027,231.073Z" transform="translate(-74.546 -166.093)" fill="#fff"/>
            </g>
          </g>
          <g id="Grupo_919066" data-name="Grupo 919066" transform="translate(168.015)">
            <g id="Grupo_919064" data-name="Grupo 919064" transform="translate(13.207 10.601)">
              <path id="Trazado_707069" data-name="Trazado 707069" d="M389.2,162.171l-2.62-2.522a46.377,46.377,0,0,1,15.594-16.86l2.188,1.335-.827-2.129q1.175-.652,2.362-1.173l3.351,3.415-1.078-4.288a15.787,15.787,0,0,1,7.373-.77,9.885,9.885,0,0,1,5.875,3.193,10.806,10.806,0,0,1,2.609,5.184,12.815,12.815,0,0,1,.239,2.9,16.259,16.259,0,0,1-.4,3.076c-.931,4.176-3.443,8.668-7.025,12.875l-4.114-1.4,2,3.72c-.881.9-1.81,1.786-2.78,2.636l-1.795-1.749.454,2.889q-.583.479-1.182.943c-7.191,5.548-13.786,7.546-18.6,8.136a22.6,22.6,0,0,1-7.839-.212s-2.747-8.227,2.545-19.629Z" transform="translate(-382.273 -139.021)" fill="#ffd200"/>
            </g>
            <rect id="Rectángulo_298406" data-name="Rectángulo 298406" width="41.292" height="0.591" transform="translate(16.087 49.56) rotate(-43.071)" fill="#fff"/>
            <path id="Trazado_707070" data-name="Trazado 707070" d="M426.17,170.193c1.574-2.431,2.944-8.532,3-8.79l-.577-.129c-.014.063-1.405,6.255-2.921,8.6Z" transform="translate(-389.627 -138.963)" fill="#fff"/>
            <path id="Trazado_707071" data-name="Trazado 707071" d="M424.778,185.922l.223-.547c-2.36-.963-6.914-.334-7.107-.306l.082.585C418.022,185.648,422.566,185.021,424.778,185.922Z" transform="translate(-385.941 -150.127)" fill="#fff"/>
            <path id="Trazado_707072" data-name="Trazado 707072" d="M403.638,191.838c1.348-3.126.564-8,.53-8.205l-.583.1c.008.048.789,4.909-.49,7.875Z" transform="translate(-378.931 -149.555)" fill="#fff"/>
            <g id="Grupo_919065" data-name="Grupo 919065">
              <path id="Trazado_707073" data-name="Trazado 707073" d="M357.218,183.185s6.4-17.8,5.6-35.05,4.27-30.208,12.542-29.2,15.478,32.229-16.011,66.12Z" transform="translate(-357.197 -118.879)" fill="#bce13e"/>
              <path id="Trazado_707074" data-name="Trazado 707074" d="M361.895,204.195l-.644-.4c.116-.185,11.626-18.733,12.072-39.194l.76.016C373.633,185.288,362.013,204.008,361.895,204.195Z" transform="translate(-359.108 -140.536)" fill="#fff"/>
              <path id="Trazado_707075" data-name="Trazado 707075" d="M358.643,225.51s11.482-5.986,23.261-7.034,20.1-5.682,18.653-11.2-23.291-7.528-43.378,16.959Z" transform="translate(-357.179 -159.085)" fill="#91b31e"/>
              <path id="Trazado_707076" data-name="Trazado 707076" d="M360.654,231.073l-.487-.584c.116-.1,11.769-9.727,25.786-11.944l.119.751C372.267,221.479,360.769,230.977,360.654,231.073Z" transform="translate(-358.594 -166.093)" fill="#fff"/>
            </g>
          </g>
        </g>
        <g id="Grupo_919084" data-name="Grupo 919084" transform="translate(9.112)">
          <g id="Grupo_919069" data-name="Grupo 919069" transform="translate(87.293 178.164)">
            <g id="Grupo_919068" data-name="Grupo 919068" transform="translate(0 2.848)">
              <path id="Trazado_707077" data-name="Trazado 707077" d="M244.649,414.135l6.869-28.962h-30.41l7.419,29.159h.1c.462.741,3.859,1.317,7.987,1.317s7.525-.576,7.987-1.317h.005l0-.009a.321.321,0,0,0,.052-.164C244.655,414.15,244.649,414.143,244.649,414.135Z" transform="translate(-221.108 -385.173)" fill="#ff9a5c"/>
              <path id="Trazado_707078" data-name="Trazado 707078" d="M221.108,385.173l7.419,29.159h.1c.462.741,3.859,1.317,7.987,1.317.62,0,1.221-.014,1.8-.039l-5.858-30.436Z" transform="translate(-221.108 -385.173)" fill="#e87c3c"/>
            </g>
            <ellipse id="Elipse_6395" data-name="Elipse 6395" cx="15.205" cy="2.937" rx="15.205" ry="2.937" transform="translate(0)" fill="#753519"/>
          </g>
          <g id="Grupo_919070" data-name="Grupo 919070" transform="translate(34.359 9.068)">
            <circle id="Elipse_6396" data-name="Elipse 6396" cx="68.138" cy="68.138" r="68.138" transform="translate(0)" fill="#1a6652"/>
            <path id="Trazado_707079" data-name="Trazado 707079" d="M202.371,176.1A60.915,60.915,0,0,1,172.223,62.256a68.145,68.145,0,1,0,81.928,85.016A60.865,60.865,0,0,1,202.371,176.1Z" transform="translate(-120.526 -60.254)" fill="#19614f"/>
            <path id="Trazado_707080" data-name="Trazado 707080" d="M220.485,78.272c-2.712-.842-4.676-1.106-6.266-2a9.339,9.339,0,0,0-4.4-1.509c-1.216.051-3.741-.612-5.237,0s-3.08,3.694-5.374,4.258-8.055-.653-9.664-1.681a3.687,3.687,0,0,1-1.6-4.115,8.667,8.667,0,0,0,.556-3.537c-.093-.672,2.338-1.991,3.18-2.875s1.638-3.762-.354-5.2a67.833,67.833,0,0,0-25.891,11.973,4.186,4.186,0,0,0,.619,1.6c.561.935-.339,1.5-.31,1.777s.53.248.093.779.008.437-.4.811a11.887,11.887,0,0,1-1.064.935c-.281.187-.187.748-.748,1.4s-1.59,1.216-1.59,2.245-1.59,2.431-1.777,2.993-1.777,2.712-1.871,4.115a24.75,24.75,0,0,0,0,3.741,8.8,8.8,0,0,1-.07,2.806,21.84,21.84,0,0,0-.491,3.834c-.094,1.87.655,2.712,2.432,3.273s5.139,2.151,5.983,3.367,1.312,2.712,1.967,2.9,1.216,2.151,3.367,3.648,6.173,1.686,7.949,3.6,5.05,6.585,5.892,9.161,2.245,3.524,3.741,4.78,3.367,2.659,4.77,2.752,1.975-.495,1.923-1-1.829-2-2.11-2.371-.841-2.9-1.684-4.676-.935-1.85-.655-2.7.842-2.72,1.684-3.189,1.5-.127,2.058-.953a2.724,2.724,0,0,0,.707-1.807c-.052-.515-.894-.835-1.736-.909s-1.123-.822-2.245-1.009-2.712-.655-3.087-1.309a1.765,1.765,0,0,0-1.777-.748,3.819,3.819,0,0,1-3.367-.748c-1.122-1.123-1.216-3.273-1.4-4.4a4.051,4.051,0,0,1-.094-2.338c.28-.842.28-1.5,1.59-2.107s3.46-1.078,4.77,0,3.928.236,4.489-.418,2.151-2.619,3.461-2.712,3.46,0,4.3-.748,4.022-2.326,4.583-3.594,2.712-4.949,2.712-6.148,3.928-3.538,5.05-3.163,2.619-1.4,3.18-1.4,2.245.28,3.18-.842,1.684-1.876,2.432-2.949S223.2,79.113,220.485,78.272Z" transform="translate(-138.191 -59.948)" fill="#108f6e"/>
            <path id="Trazado_707081" data-name="Trazado 707081" d="M255.062,229.81a49.506,49.506,0,0,0-5.833-3.1c-2.68-1.128-4.654-5.121-5.359-5.945s-1.269-8.016,0-9.285a30.733,30.733,0,0,0,3.6-5.076c1.054-1.693,1.477-2.82,1.054-3.526a11.585,11.585,0,0,1,0-5.386c.423-.677,2.538-1.947,3.526-1.806s4.089-.727,5.358-.011,6.064,3.251,8.179,3.393,4.231,1.976,5.923.989,4.176.141,5.613,2.256a17.723,17.723,0,0,0,5.527,5.659c2.4,1.392,2.189,2.661,3.562,2.943a20.148,20.148,0,0,1,6.1,2.256c1.662,1.137,1.117,2.538-.255,4.231s-3.079,4.371-4.2,6.064-.713,4.23,0,4.935.148,3.667-.838,4.513-3.1,2.256-3.949,3.807-.765,2.7-2.709,3.4-6.316,2.668-9,3.3-4.935.785-6.769,2.331-2.091,5.746-3.817,6.467-6.9,3.96-8.874,3.75-1.971-.6-.845-2.029,3.978-3.932,5.585-6.218-.51-4.495.9-5.421,1.657-3.675,2.1-4.486S259.969,232.5,255.062,229.81Z" transform="translate(-178.6 -123.322)" fill="#108f6e"/>
            <path id="Trazado_707082" data-name="Trazado 707082" d="M333.5,115.88c.282.575,1.786,1.233,2.914,1.8s2.188-.3,2.645-1.8,2.431-1.776,3.466-1.211a4.5,4.5,0,0,0,2.914.658c.743-.185,2.182-.739,2.219-.753a68.319,68.319,0,0,0-19.684-26.6,14.677,14.677,0,0,1-2,2.258,7.039,7.039,0,0,0-1.844,2.628c-.319.658-1.259,3.478-.883,4.7s.219,2.068,1.614,3.1,2.635,1.386,2.015,3.278-.15,3.914-.808,4.925a3.392,3.392,0,0,0,.808,4.3c1.542,1.316,3.517,1.034,3.986,1.128A6.283,6.283,0,0,1,333.5,115.88Z" transform="translate(-216.521 -72.437)" fill="#108f6e"/>
            <path id="Trazado_707083" data-name="Trazado 707083" d="M252.69,163.628a3.144,3.144,0,0,1-.94,2.138c-.94.846-1.88,2.35-.94,2.539a20.326,20.326,0,0,1,3.384.749c.47.284,2.914,1.6,3.572,1.13s1.128-1.6,1.786-1.692.846-1.761,1.41-2.291,2.539-2.41,2.727-3.914.376-3.761,0-4.324-3.009-.94-3.29-1.692-1.959-1.316-3.236-.564a5.178,5.178,0,0,0-2.029,3.667C254.946,160.6,252.6,161.49,252.69,163.628Z" transform="translate(-182.061 -104.357)" fill="#108f6e"/>
            <path id="Trazado_707084" data-name="Trazado 707084" d="M276.523,172.995a14.841,14.841,0,0,0-1.886,2.111c-.777,1.107,1.331.552,1.886.663s.666.912,1.776.623a6.267,6.267,0,0,0,1.109-.289,8.441,8.441,0,0,1,2.33-.333c1-.111.8-.836,1.344-1.472a1.123,1.123,0,0,0,0-1.746c-.567-.555-.9,1.109-2.01,0s-1.073-2.063-2.09-1.586-.753.644-1.218,1.06S276.523,172.995,276.523,172.995Z" transform="translate(-193.452 -111.693)" fill="#108f6e"/>
          </g>
          <path id="Trazado_707085" data-name="Trazado 707085" d="M231.141,233.62c-19.125-.39-37.558,14.117-39.853,29.19-2.295-15.073-20.728-29.58-39.853-29.19a39.7,39.7,0,0,1-25.371-8.144,68.157,68.157,0,0,0,130.448,0A39.7,39.7,0,0,1,231.141,233.62Z" transform="translate(-88.79 -128.508)" fill="#19614f" opacity="0.13" style="mix-blend-mode: multiply;isolation: isolate"/>
          <path id="Trazado_707086" data-name="Trazado 707086" d="M230.852,245.317c-19.125-.39-37.558,14.117-39.853,29.19-2.295-15.073-20.728-29.58-39.853-29.19-16.041.328-25.692-8.416-25.692-8.416,5.65,42.658,30.758,48.68,48.207,47.445a14.456,14.456,0,0,1,15.475,14.424V316h3.725V298.77a14.456,14.456,0,0,1,15.475-14.424c17.449,1.235,42.557-4.787,48.207-47.445C256.544,236.9,246.894,245.645,230.852,245.317Z" transform="translate(-88.502 -133.921)" fill="#bce13e"/>
          <path id="Trazado_707087" data-name="Trazado 707087" d="M212.107,300.756c14.578,1.048,34.536-2.961,44.011-29.206a40.885,40.885,0,0,1-21.43,5.456c-19.125-.391-37.558,14.117-39.853,29.19-2.295-15.073-20.728-29.58-39.853-29.19a40.891,40.891,0,0,1-21.43-5.455c9.475,26.245,29.433,30.253,44.011,29.205a14.467,14.467,0,0,1,15.409,14.485V332.41h0a3.922,3.922,0,0,0,3.571.074l.154-.074V315.241A14.467,14.467,0,0,1,212.107,300.756Z" transform="translate(-92.338 -150.335)" fill="#91b31e"/>
          <g id="Grupo_919072" data-name="Grupo 919072" transform="translate(155.551 1.73)">
            <circle id="Elipse_6397" data-name="Elipse 6397" cx="17.821" cy="17.821" r="17.821" fill="#ffd200"/>
            <g id="Grupo_919071" data-name="Grupo 919071" transform="translate(7.092 5.417)">
              <path id="Trazado_707088" data-name="Trazado 707088" d="M380.413,87.059v.007C380.424,87.063,380.427,87.061,380.413,87.059Z" transform="translate(-371.926 -70.084)" fill="#1a6652"/>
              <path id="Trazado_707089" data-name="Trazado 707089" d="M372.75,78.575l-.017,0-.033,0-.027,0-.042,0-.043,0-.05,0-.051,0-.062,0-.062,0-.065,0-.077,0-.069,0-.086,0-.073,0-.1,0-.076,0-.1,0-.085,0-.112,0-.084,0-.131,0h-.286c-.145,0-.295,0-.446-.006l-.043,0-.179-.006-.081,0-.146-.007-.086-.005-.139-.009-.089-.007-.134-.012-.093-.01-.126-.014-.093-.012-.122-.016-.091-.014-.116-.019-.089-.016-.11-.023-.085-.019-.1-.026-.081-.022-.1-.029-.076-.025-.091-.033-.069-.027c-.028-.012-.055-.024-.082-.037l-.063-.03c-.026-.014-.05-.028-.074-.042l-.054-.032c-.024-.015-.045-.032-.066-.048s-.03-.022-.043-.033-.041-.039-.061-.059-.021-.019-.029-.03a.625.625,0,0,1-.068-.1.6.6,0,0,1-.064-.185.991.991,0,0,1-.008-.127c-.053-1.132,1.653-3.621,2.048-4.372l1.858.85-1.252-4.929-5.128,1.511,1.722.936L364.92,75a4.472,4.472,0,0,0,3.793,6.754h.122l3.9.046.038-3.232h0Z" transform="translate(-364.286 -61.588)" fill="#1a6652"/>
              <path id="Trazado_707090" data-name="Trazado 707090" d="M377.22,62.209l.006-.021.005-.016.012-.031.01-.026.016-.041.015-.037.02-.047c.007-.016.014-.033.022-.051l.021-.048.029-.067.024-.053.033-.074.027-.06.038-.083.029-.062.047-.1.027-.056.054-.112.028-.057.062-.124.025-.051.075-.146.019-.037c.1-.188.2-.385.315-.583l.012-.021.1-.174.03-.05.085-.144.039-.064.079-.128.044-.069.077-.119.048-.071c.025-.037.05-.074.075-.111l.052-.073c.025-.035.049-.069.074-.1l.053-.072.074-.1.054-.068.074-.09.055-.065.073-.082.056-.06c.024-.026.048-.05.073-.074l.056-.054c.024-.023.048-.044.073-.066l.055-.047.073-.056.055-.04c.024-.017.048-.032.073-.046l.053-.032a.823.823,0,0,1,.075-.036c.016-.007.032-.016.048-.022a.7.7,0,0,1,.082-.026l.039-.012a.661.661,0,0,1,.118-.015.6.6,0,0,1,.193.031,1.006,1.006,0,0,1,.116.052c1.025.483,2.424,3.158,2.9,3.859l-1.622,1.243,4.94,1.2,1.069-5.239-1.634,1.083-2.116-3.329a4.472,4.472,0,0,0-7.744.184l-.059.107h0l-1.869,3.423,2.837,1.549Z" transform="translate(-369.069 -54.803)" fill="#1a6652"/>
              <path id="Trazado_707091" data-name="Trazado 707091" d="M379.779,68.884l-.007,0C379.769,68.893,379.771,68.9,379.779,68.884Z" transform="translate(-371.622 -61.472)" fill="#1a6652"/>
              <path id="Trazado_707092" data-name="Trazado 707092" d="M395.1,77.716,393.142,74.2l-2.823,1.575h0l0,0c.01.011.028.033.052.065l.007.01c.025.033.056.076.091.127l.013.018c.036.052.077.112.122.179l.02.03q.069.1.147.225l.022.034c.054.084.11.173.167.267l.021.035c.06.1.121.2.183.306l.016.027q.1.165.194.34l0,.006c.065.117.129.237.193.358l.016.031c.061.116.119.234.176.352l.023.047c.055.115.107.23.157.345l.024.053q.072.17.134.335l.02.056c.04.109.075.216.106.32l.014.051c.029.1.054.205.073.3,0,.014,0,.028.007.043a2.189,2.189,0,0,1,.032.278c0,.011,0,.021,0,.031a1.2,1.2,0,0,1-.018.248l0,.016a.685.685,0,0,1-.078.212.591.591,0,0,1-.129.147.937.937,0,0,1-.108.072c-.958.608-3.962.367-4.809.4l-.187-2.035-3.653,3.538,3.862,3.7-.045-1.96,3.944-.015a4.473,4.473,0,0,0,3.972-6.65Z" transform="translate(-373.326 -63.994)" fill="#1a6652"/>
              <path id="Trazado_707093" data-name="Trazado 707093" d="M396.561,77.194l.006,0C396.559,77.181,396.556,77.181,396.561,77.194Z" transform="translate(-379.575 -65.406)" fill="#1a6652"/>
            </g>
          </g>
          <g id="Grupo_919075" data-name="Grupo 919075" transform="translate(10.88)">
            <g id="Grupo_919074" data-name="Grupo 919074">
              <g id="Grupo_919073" data-name="Grupo 919073">
                <ellipse id="Elipse_6398" data-name="Elipse 6398" cx="17.821" cy="17.736" rx="17.821" ry="17.736" fill="#ffd200"/>
              </g>
            </g>
            <path id="Trazado_707094" data-name="Trazado 707094" d="M104.828,76.9h-9.15v-6.49h-6.49v-9.15h6.49v-6.49h9.15v6.49h6.49v9.15h-6.49ZM97.261,75.32h5.985V68.829h6.49V62.844h-6.49v-6.49H97.261v6.49H90.77v5.985h6.49Z" transform="translate(-82.201 -47.641)" fill="#1a6652"/>
          </g>
          <g id="Grupo_919078" data-name="Grupo 919078" transform="translate(0 108.989)">
            <g id="Grupo_919076" data-name="Grupo 919076">
              <ellipse id="Elipse_6399" data-name="Elipse 6399" cx="17.776" cy="17.692" rx="17.776" ry="17.692" fill="#ffd200"/>
            </g>
            <g id="Grupo_919077" data-name="Grupo 919077" transform="translate(9.898 5.763)">
              <rect id="Rectángulo_298407" data-name="Rectángulo 298407" width="6.926" height="0.944" transform="translate(3.729 20.873)" fill="#1a6652"/>
              <rect id="Rectángulo_298408" data-name="Rectángulo 298408" width="6.926" height="0.944" transform="translate(3.729 19.243)" fill="#1a6652"/>
              <path id="Trazado_707095" data-name="Trazado 707095" d="M81.245,302.03a1.473,1.473,0,0,0,1.417,1.082h3.971a1.474,1.474,0,0,0,1.417-1.082Z" transform="translate(-77.456 -279.526)" fill="#1a6652"/>
              <path id="Trazado_707096" data-name="Trazado 707096" d="M80.868,259.277a7.767,7.767,0,0,0-5.757,3.026,11.622,11.622,0,0,0,4.2,4.047c4.226,2.672,2.739,7.39,2.739,7.39s-.3-2.051-4.714-2.612a6.924,6.924,0,0,1-3.294-1.165,7.772,7.772,0,0,0,1.445,2.29,5.968,5.968,0,0,1,1.629,4v.038a3.341,3.341,0,0,0,.37,1.529h7.5a3.34,3.34,0,0,0,.37-1.529v-.006a5.607,5.607,0,0,1,1.494-3.891,7.762,7.762,0,0,0-5.981-13.121Z" transform="translate(-74.045 -259.269)" fill="#1a6652"/>
            </g>
            <path id="Trazado_707097" data-name="Trazado 707097" d="M70.288,260.9a10.875,10.875,0,0,0,1.206,3.478,9.037,9.037,0,0,0,2.252,2.726,12.346,12.346,0,0,0,1.471,1.022,16.717,16.717,0,0,1,1.574,1.09,10.948,10.948,0,0,1,1.437,1.3,6.028,6.028,0,0,1,.614.766,1.836,1.836,0,0,1,.368.912,2.3,2.3,0,0,0-.655-.646c-.244-.186-.5-.353-.759-.523l-.783-.491-.8-.475-1.6-.947a11.244,11.244,0,0,1-1.6-1.154,8.165,8.165,0,0,1-2.257-3.238A7.663,7.663,0,0,1,70.288,260.9Z" transform="translate(-62.334 -254.279)" fill="#1a6652"/>
          </g>
          <g id="Grupo_919083" data-name="Grupo 919083" transform="translate(166.431 108.901)">
            <g id="Grupo_919081" data-name="Grupo 919081">
              <g id="Grupo_919080" data-name="Grupo 919080">
                <g id="Grupo_919079" data-name="Grupo 919079">
                  <ellipse id="Elipse_6400" data-name="Elipse 6400" cx="17.821" cy="17.736" rx="17.821" ry="17.736" fill="#ffd200"/>
                </g>
              </g>
            </g>
            <g id="Grupo_919082" data-name="Grupo 919082" transform="translate(6.507 8.119)">
              <path id="Trazado_707098" data-name="Trazado 707098" d="M395.162,285.97l-.464-.336a35.021,35.021,0,0,1-5.315-5c-3.528-4.076-5.439-8.3-5.525-12.2l-.009-.417,6.208-4.434h10.212l6.207,4.434-.009.417c-.087,3.906-2,8.127-5.526,12.2a35.058,35.058,0,0,1-5.315,5Zm-9.709-17.162c.426,7.34,7.773,13.649,9.709,15.19,1.936-1.54,9.283-7.849,9.709-15.19l-5.109-3.65h-9.2Z" transform="translate(-383.848 -263.579)" fill="#1a6652"/>
              <path id="Trazado_707099" data-name="Trazado 707099" d="M398.355,284.676c-2.438-2.14-6.973-6.739-7.767-11.914l3.756-2.683h8.02l3.757,2.683C405.327,277.937,400.792,282.536,398.355,284.676Z" transform="translate(-387.041 -266.658)" fill="#1a6652"/>
            </g>
          </g>
        </g>
        <path id="Trazado_707100" data-name="Trazado 707100" d="M355.617,442.9a10.84,10.84,0,0,1,2.039,3.056c.793,1.822,1.615,4.366,2.254,4.992s1.839.123,2.045-.914,1.039-8.9.772-11.014-.438-2.771-.722-2.887a52.52,52.52,0,0,0-5.532-.111C355.4,436.085,353.141,439.993,355.617,442.9Z" transform="translate(-187.895 -228.24)" fill="#91b31e"/>
        <g id="Grupo_919086" data-name="Grupo 919086" transform="translate(125.807 130.245)">
          <path id="Trazado_707101" data-name="Trazado 707101" d="M290.809,357.846s3.748,11.806,3.42,12.306c-.814,1.239-7.335,8.214-7.335,8.214l3.206,1.947s9.572-7.561,9.148-11.448l-4.58-12.092Z" transform="translate(-281.675 -320.952)" fill="#ff9a5c"/>
          <g id="Grupo_919085" data-name="Grupo 919085" transform="translate(0 50.076)">
            <path id="Trazado_707102" data-name="Trazado 707102" d="M303.166,393.675S286.685,382.481,281.644,384s-5.109,4.655-4.259,6.629,16.6,24.972,16.6,24.972l5.213-.794-6.434-11.684a1.469,1.469,0,0,1,2.071-1.577l1.612.756,8.87-2.824Z" transform="translate(-276.976 -383.859)" fill="#0e1a34"/>
          </g>
          <path id="Trazado_707103" data-name="Trazado 707103" d="M316.044,300.42a7.56,7.56,0,0,0-4.887-4.615,5.587,5.587,0,0,0-10.163-3.224,7.662,7.662,0,0,0-1.918.169A7.73,7.73,0,1,0,293.887,304c1.738,3.2,5.233,5.615,8.771,4.524,1.972,2.543,5.717,2.8,8.9,1.629A7.581,7.581,0,0,0,316.044,300.42Z" transform="translate(-280.567 -288.708)" fill="#753519"/>
          <path id="Trazado_707104" data-name="Trazado 707104" d="M320.615,391.685s1.756,9.948-4.291,13.263-19.657,8.226-19.657,8.226l24.306,1.534-1.114,7.475s-35.328-.656-39.034-5.532S300.558,395.2,300.558,395.2Z" transform="translate(-278.612 -337.491)" fill="#0e1a34"/>
          <path id="Trazado_707105" data-name="Trazado 707105" d="M304.214,322.849s-6.216.285-7.99,5.606c-2.355,7.063.095,15.484,7.658,23.221,1.7,1.742,3.8,8.477,3.752,10.913,0,0,17.692-.263,20.057-3.514C327.69,359.075,321.921,327.367,304.214,322.849Z" transform="translate(-285.687 -304.882)" fill="#91b31e"/>
          <path id="Trazado_707106" data-name="Trazado 707106" d="M295.652,329.437s-4.617,4.112-4.219,17.435c0,0,4.131-.577,4.521-2.528Z" transform="translate(-283.814 -308.002)" fill="#91b31e"/>
          <path id="Trazado_707107" data-name="Trazado 707107" d="M317.6,353.645l-6.762.91s3.512,6.469,3.772,7.38S299.14,377.8,299.14,377.8s-1.508,1.268-1.755,1.5v0a4.075,4.075,0,0,0-.719.867,5.973,5.973,0,0,0-.863,2.035c-.123.617.216.863.494.863s.647-.493.647-.493a2.017,2.017,0,0,0,0,.894c.123.339,1.034-.216,1.264-.771,0,0,0,1.2.265,1.234s.722-.309.815-1.11a7.626,7.626,0,0,0,2.234-1.6l.336-.939c2.692-2.017,15.477-11.669,17.569-14.576C321.766,362.455,317.6,353.645,317.6,353.645Z" transform="translate(-285.883 -319.47)" fill="#ff9a5c"/>
          <path id="Trazado_707108" data-name="Trazado 707108" d="M290.332,307.257a9.791,9.791,0,0,1-.43-5.226c.627-2.55,4.213-3.4,6.864-1.188a10.61,10.61,0,0,1,3.012,3.706,1.1,1.1,0,0,1,1.306-.557c1.314.218.913,3.317-.8,3.607a5.817,5.817,0,0,1-.572,2.145c.9,1.936.74,2.636.74,2.636-.622,2.367-1.5,4.829-2.963,4.6s-.6-1.89-.507-2.658a.686.686,0,0,0-.52-.86C292.9,314.565,290.332,307.257,290.332,307.257Z" transform="translate(-283.005 -293.854)" fill="#ff9a5c"/>
          <path id="Trazado_707109" data-name="Trazado 707109" d="M290.691,298.417s5.412,4.616,7.42,3.489C298.111,301.905,294.662,293.477,290.691,298.417Z" transform="translate(-283.473 -292.572)" fill="#753519"/>
          <path id="Trazado_707110" data-name="Trazado 707110" d="M302.957,405.571s-11.863,6.675-13.215,8.23" transform="translate(-283.024 -344.069)" fill="none" stroke="#fff" stroke-miterlimit="10" stroke-width="0.96"/>
          <path id="Trazado_707111" data-name="Trazado 707111" d="M312.182,322.849s10.667,2.385,14.763,14.868a10.656,10.656,0,0,1-10.143,2.731S313.941,329.49,312.182,322.849Z" transform="translate(-293.654 -304.882)" fill="#91b31e"/>
          <path id="Trazado_707112" data-name="Trazado 707112" d="M288.406,298.411s-1.061,7.034-3.318,7.5C285.089,305.91,282.169,297.284,288.406,298.411Z" transform="translate(-280.496 -293.257)" fill="#753519"/>
        </g>
        <g id="Grupo_919092" data-name="Grupo 919092" transform="translate(38.87 91.641)">
          <g id="Grupo_919091" data-name="Grupo 919091">
            <path id="Trazado_707113" data-name="Trazado 707113" d="M161.332,228.108c-4.947,5.41-12.764.33-9.156-6.051a3.755,3.755,0,0,1,.293-.487c4.462-5.7,3.252.592,8.015-4.355s16.082.829,11.05,7.251-8.851,2.166-8.851,2.166Z" transform="translate(-130.482 -215.354)" fill="#0e1a34"/>
            <g id="Grupo_919089" data-name="Grupo 919089" transform="translate(32.875 47.267)">
              <g id="Grupo_919087" data-name="Grupo 919087" transform="translate(9.823 15.341)">
                <path id="Trazado_707114" data-name="Trazado 707114" d="M193.058,341.9l-.141-2.848,22.371-.43.1,1.933Z" transform="translate(-192.917 -336.355)" fill="#ffd200"/>
                <path id="Trazado_707115" data-name="Trazado 707115" d="M231.938,338.363l-.076-1.544,3.934-2.5.3,6.147Z" transform="translate(-211.366 -334.318)" fill="#ffd200"/>
                <path id="Trazado_707116" data-name="Trazado 707116" d="M239.215,340.468c-.289.014-.591-1.35-.675-3.047s.083-3.085.372-3.1.591,1.35.675,3.047S239.5,340.454,239.215,340.468Z" transform="translate(-214.519 -334.32)" fill="#ec643b"/>
              </g>
              <g id="Grupo_919088" data-name="Grupo 919088">
                <path id="Trazado_707117" data-name="Trazado 707117" d="M179.822,316.771c-2.22-3.482-1.553-8.147,1.487-10.4s7.319-1.251,9.54,2.231l-.919.68c-1.926-3.018-5.553-3.95-8.086-2.073s-3.028,5.861-1.1,8.88Z" transform="translate(-176.269 -305.168)" fill="#ec643b"/>
                <path id="Trazado_707118" data-name="Trazado 707118" d="M189.939,332.531a.325.325,0,0,0,.042-.034.352.352,0,0,0,.079-.163l10.41-16.965-10.116-9.162L174.5,318.24a.36.36,0,0,0-.155.1.374.374,0,0,0-.029.044l-.033.025.011.009c-.424.9,2.484,4.546,6.665,8.332s8.1,6.32,8.949,5.81l.011.009Z" transform="translate(-174.252 -305.66)" fill="#ffd200"/>
                <path id="Trazado_707119" data-name="Trazado 707119" d="M214.842,315.374c-.431.476-3.047-1.191-5.843-3.724s-4.713-4.971-4.282-5.447,3.047,1.191,5.843,3.724S215.273,314.9,214.842,315.374Z" transform="translate(-188.655 -305.62)" fill="#ec643b"/>
                <path id="Trazado_707120" data-name="Trazado 707120" d="M189.982,343.644a.352.352,0,0,0,.079-.163l7-11.412a17.563,17.563,0,0,1-21.842-1.38c-.338-.307-.657-.626-.966-.953-.058,1.126,2.753,4.581,6.7,8.158,4.181,3.786,8.1,6.32,8.949,5.81l.011.01.022-.036A.326.326,0,0,0,189.982,343.644Z" transform="translate(-174.254 -316.807)" fill="#fb0"/>
              </g>
              <path id="Trazado_707121" data-name="Trazado 707121" d="M198.141,315.368l2.622-2.084a.537.537,0,0,0,.027-.845h0a.8.8,0,0,0-.995-.032l-2.456,1.951a.645.645,0,0,0-.032.982h0A.645.645,0,0,0,198.141,315.368Z" transform="translate(-185.074 -308.522)" fill="#fff"/>
              <path id="Trazado_707122" data-name="Trazado 707122" d="M186.232,320.077l-6.8,5.409a.668.668,0,0,0-.191.836.644.644,0,0,0,.965.194l6.832-5.431a.644.644,0,0,0,.032-.981h0A.644.644,0,0,0,186.232,320.077Z" transform="translate(-176.577 -312.165)" fill="#fff"/>
            </g>
            <path id="Trazado_707123" data-name="Trazado 707123" d="M164.313,436.33a7.5,7.5,0,0,0,1.693,1.9,19.215,19.215,0,0,1,2.952,2.377c.308.537-.237,1.254-.967,1.21a51.169,51.169,0,0,1-7.511-1.4c-1.372-.547-1.78-.775-1.808-.985a36.233,36.233,0,0,1,.887-3.724C159.785,435,162.8,434.166,164.313,436.33Z" transform="translate(-133.995 -319.378)" fill="#91b31e"/>
            <path id="Trazado_707124" data-name="Trazado 707124" d="M117.988,422.353a7.5,7.5,0,0,0,1.212,2.235,19.2,19.2,0,0,1,2.328,2.991c.176.593-.519,1.165-1.22.956a51.288,51.288,0,0,1-6.99-3.083c-1.21-.848-1.555-1.163-1.534-1.374a36.385,36.385,0,0,1,1.718-3.422C113.887,420.017,117.007,419.9,117.988,422.353Z" transform="translate(-111.783 -312.426)" fill="#91b31e"/>
            <path id="Trazado_707125" data-name="Trazado 707125" d="M137.979,326.884s-1.849,8.389.651,12.4,12.591,18.978,13.173,21.42-3.094,23.543-3.094,23.543l6.092.316s7.728-23.942,7.355-26.546c-1.308-9.114-6.361-23.181-4.946-31.552Z" transform="translate(-123.881 -267.989)" fill="#0e1a34"/>
            <path id="Trazado_707126" data-name="Trazado 707126" d="M147.176,252.021s3.425.338,4.253,1.026c6.416,5.33,7.483,22.115,6.3,40.163l-21.022-1.577S139.189,259.1,147.176,252.021Z" transform="translate(-123.59 -232.724)" fill="#108f6e"/>
            <path id="Trazado_707127" data-name="Trazado 707127" d="M128.375,353.125s1.817,8.842-2.64,16.947-11.707,18.995-11.707,18.995l5.2,1.069s14.683-16.341,17.72-23.753Z" transform="translate(-112.846 -280.62)" fill="#0e1a34"/>
            <g id="Grupo_919090" data-name="Grupo 919090" transform="translate(22.535 5.852)">
              <path id="Trazado_707128" data-name="Trazado 707128" d="M165.942,232.052c-.017.293-.6,3.936-2.279,5.771s-3.09.824-3.569,1.041-.709,1.6-.665,2.571-1.471,2.021-2.983,1.015-.957-6.015-.957-6.015a6.019,6.019,0,0,1-.385-3.891s-.831-1.819-.353-2.916,1.271-.839,1.7-.077c0,0,1.7-3.5,4.455-3.036S166.164,228.329,165.942,232.052Z" transform="translate(-154.603 -226.473)" fill="#ff9a5c"/>
            </g>
            <path id="Trazado_707129" data-name="Trazado 707129" d="M157.623,295.424s-14.121-.939-19.437-3.194-4.957-4.793-4.448-6.643,2.276-5.865,2.276-5.865l5.284,3-.009,1.109-.638,2s1.711.848,4.273,1.938,12.889,4.574,12.889,4.574S160.414,294.07,157.623,295.424Z" transform="translate(-122.056 -245.847)" fill="#ff9a5c"/>
            <path id="Trazado_707130" data-name="Trazado 707130" d="M179.373,305.994a8.955,8.955,0,0,0,2.808,1.6c.206.926.789,1.266,1.089,1.2s.158-1.475.158-1.475c.337.621,1.469,1.158,1.572.746a2.366,2.366,0,0,0-.109-1.045s.493.531.817.5.69-.364.47-1.069a7,7,0,0,0-1.259-2.273c-.493-.532-.806-1.081-1.766-1.2a15.509,15.509,0,0,0-2.362.066,20.626,20.626,0,0,0-2.7.284Z" transform="translate(-143.194 -256.842)" fill="#ff9a5c"/>
            <path id="Trazado_707131" data-name="Trazado 707131" d="M180.736,303.031l-.061-.582s2.549-1.075,3.092-.946,1.113.814,1.43,1.059S180.736,303.031,180.736,303.031Z" transform="translate(-144.419 -256.16)" fill="#ff9a5c"/>
            <path id="Trazado_707132" data-name="Trazado 707132" d="M146.008,251.527c-1.229-.049-7.878,1.41-10.865,15.527l8.191,2.216s1.165-9.018,2.887-17.552C146.242,251.617,146.119,251.531,146.008,251.527Z" transform="translate(-122.85 -232.49)" fill="#108f6e"/>
            <path id="Trazado_707133" data-name="Trazado 707133" d="M164.156,221.553a4.248,4.248,0,1,1-2.483-5.471A4.249,4.249,0,0,1,164.156,221.553Z" transform="translate(-132.696 -215.57)" fill="#0e1a34"/>
            <path id="Trazado_707134" data-name="Trazado 707134" d="M177.839,226.171a4.249,4.249,0,1,1-2.483-5.471A4.249,4.249,0,0,1,177.839,226.171Z" transform="translate(-139.179 -217.757)" fill="#0e1a34"/>
          </g>
          <path id="Trazado_707135" data-name="Trazado 707135" d="M145.162,353.523s6.2,13.81,7.586,15.332" transform="translate(-127.596 -280.809)" fill="none" stroke="#fff" stroke-miterlimit="10" stroke-width="0.96"/>
          <path id="Trazado_707136" data-name="Trazado 707136" d="M247.156,345.788c.891,1.216.646,1.915.039,2.36s-1.348.469-2.239-.747a8.234,8.234,0,0,1-.988-3.654A8.233,8.233,0,0,1,247.156,345.788Z" transform="translate(-174.403 -276.177)" fill="#108f6e"/>
          <path id="Trazado_707137" data-name="Trazado 707137" d="M245.33,360c.154,1.139-.265,1.518-.835,1.595s-1.074-.178-1.227-1.317a6.275,6.275,0,0,1,.672-2.808A6.274,6.274,0,0,1,245.33,360Z" transform="translate(-174.062 -282.68)" fill="#108f6e"/>
          <path id="Trazado_707138" data-name="Trazado 707138" d="M249.816,377.95c.153,1.139-.266,1.518-.835,1.595s-1.074-.178-1.227-1.317a6.281,6.281,0,0,1,.672-2.808A6.282,6.282,0,0,1,249.816,377.95Z" transform="translate(-176.188 -291.182)" fill="#108f6e"/>
          <path id="Trazado_707139" data-name="Trazado 707139" d="M255.673,364.759c.238,1.765-.412,2.352-1.295,2.471s-1.664-.275-1.9-2.041,1.041-4.352,1.041-4.352S255.435,362.993,255.673,364.759Z" transform="translate(-178.42 -284.273)" fill="#108f6e"/>
        </g>
        <path id="Trazado_707140" data-name="Trazado 707140" d="M230.656,402.483l.015,0a.752.752,0,0,0,.644-.911l-1.178-5.256a.76.76,0,0,0-1.484.333l1.178,5.255A.752.752,0,0,0,230.656,402.483Z" transform="translate(-128.269 -209.157)" fill="#fff"/>
        <path id="Trazado_707141" data-name="Trazado 707141" d="M233.316,413.6l-.015,0a.753.753,0,0,0-.644.912l2.416,10.779a.76.76,0,0,0,1.484-.333l-2.416-10.777A.753.753,0,0,0,233.316,413.6Z" transform="translate(-130.166 -217.625)" fill="#fff"/>
      </g>
    </g>
  </g>
</svg>
