<svg xmlns="http://www.w3.org/2000/svg" xmlns:xlink="http://www.w3.org/1999/xlink" width="293" height="225" viewBox="0 0 293 225">
  <defs>
    <linearGradient id="linear-gradient" x1="0.5" y1="0.964" x2="0.5" y2="-0.19" gradientUnits="objectBoundingBox">
      <stop offset="0" stop-color="#fff"/>
      <stop offset="1" stop-color="#d3e0f3"/>
    </linearGradient>
    <clipPath id="clip-path">
      <path id="Trazado_706967" data-name="Trazado 706967" d="M96.643,225.412c.162-11.713-19.793-31.187-23.558-64.868-3.122-27.928,16.08-52.529,34.49-61.558,17.176-8.425,25.676-5.364,37.16-12.312,16.062-9.718,18.016-32.1,41.646-39.923,11.232-3.716,23.147-.681,33.738,4.907S240.648,64.747,251.8,68.527c11.232,3.807,23.125,2.873,34.773,1.785,39.311-3.67,64.62,30.422,63.159,58.325-.868,16.6-6.237,27.844-13.789,37.729-4.246,5.557-10.532,11.666-8.459,18.734.944,3.217,3.443,5.362,5.508,7.741,6.968,8.029,9.454,21.671,6.382,32.571Z" transform="translate(-72.749 -45.116)" fill="none"/>
    </clipPath>
    <linearGradient id="linear-gradient-2" x1="-0.015" y1="-504.003" x2="1.504" y2="-502.146" xlink:href="#linear-gradient"/>
    <linearGradient id="linear-gradient-3" x1="-0.015" y1="-510.276" x2="1.504" y2="-508.419" xlink:href="#linear-gradient"/>
    <linearGradient id="linear-gradient-4" x1="-0.015" y1="-497.758" x2="1.504" y2="-495.901" xlink:href="#linear-gradient"/>
    <linearGradient id="linear-gradient-5" x1="-0.015" y1="-502.758" x2="1.504" y2="-500.901" xlink:href="#linear-gradient"/>
    <linearGradient id="linear-gradient-6" x1="0.5" y1="-103.722" x2="0.5" y2="-102.576" gradientUnits="objectBoundingBox">
      <stop offset="0" stop-color="#d6dbe5"/>
      <stop offset="1" stop-color="#d3e0f3"/>
    </linearGradient>
    <linearGradient id="linear-gradient-7" x1="0.5" y1="-85.921" x2="0.5" y2="-84.999" gradientUnits="objectBoundingBox">
      <stop offset="0" stop-color="#d6dbe5"/>
      <stop offset="1" stop-color="#c7d6e9"/>
    </linearGradient>
    <linearGradient id="linear-gradient-8" x1="2.018" y1="-837.98" x2="0.059" y2="-840.438" gradientUnits="objectBoundingBox">
      <stop offset="0" stop-color="#a05735"/>
      <stop offset="1" stop-color="#763e35"/>
    </linearGradient>
    <linearGradient id="linear-gradient-9" x1="2.089" y1="-277.846" x2="0.051" y2="-278.883" gradientUnits="objectBoundingBox">
      <stop offset="0" stop-color="#d1e43c"/>
      <stop offset="1" stop-color="#6f901f"/>
    </linearGradient>
    <linearGradient id="linear-gradient-10" x1="0.489" y1="-67.874" x2="0.504" y2="-66.835" gradientUnits="objectBoundingBox">
      <stop offset="0" stop-color="#d1e43c"/>
      <stop offset="1" stop-color="#94b029"/>
    </linearGradient>
    <linearGradient id="linear-gradient-11" x1="0.478" y1="-62.777" x2="0.501" y2="-61.738" xlink:href="#linear-gradient-8"/>
    <linearGradient id="linear-gradient-12" x1="2.17" y1="-1082.558" x2="0.071" y2="-1084.148" xlink:href="#linear-gradient-10"/>
    <linearGradient id="linear-gradient-13" x1="2.48" y1="0.893" x2="0.667" y2="-0.038" xlink:href="#linear-gradient-10"/>
    <linearGradient id="linear-gradient-14" x1="1.31" y1="2.024" x2="-0.115" y2="0.722" xlink:href="#linear-gradient-10"/>
    <linearGradient id="linear-gradient-15" x1="0" y1="-188.336" x2="1" y2="-188.336" xlink:href="#linear-gradient-10"/>
    <linearGradient id="linear-gradient-16" x1="0.318" y1="-182.6" x2="0.714" y2="-181.786" xlink:href="#linear-gradient-9"/>
    <linearGradient id="linear-gradient-17" x1="-7.049" y1="0.285" x2="-6.606" y2="0.977" xlink:href="#linear-gradient-10"/>
    <linearGradient id="linear-gradient-18" x1="-7.511" y1="0.5" x2="-6.511" y2="0.5" gradientUnits="objectBoundingBox">
      <stop offset="0.005" stop-color="#64b0e3"/>
      <stop offset="1" stop-color="#20386e"/>
    </linearGradient>
    <linearGradient id="linear-gradient-19" x1="-4.431" y1="0.5" x2="-3.431" y2="0.5" xlink:href="#linear-gradient-18"/>
    <linearGradient id="linear-gradient-20" x1="-3.41" y1="0.5" x2="-2.41" y2="0.5" xlink:href="#linear-gradient-18"/>
    <linearGradient id="linear-gradient-21" x1="1.137" y1="-363.753" x2="0.026" y2="-366.016" gradientUnits="objectBoundingBox">
      <stop offset="0" stop-color="#3b7932"/>
      <stop offset="1" stop-color="#94b029"/>
    </linearGradient>
    <linearGradient id="linear-gradient-22" x1="0.5" y1="-135.112" x2="0.5" y2="-136.264" gradientUnits="objectBoundingBox">
      <stop offset="0" stop-color="#11133d"/>
      <stop offset="1" stop-color="#203970"/>
    </linearGradient>
    <linearGradient id="linear-gradient-23" x1="0.48" y1="-1011.587" x2="0.507" y2="-1012.664" xlink:href="#linear-gradient-22"/>
    <linearGradient id="linear-gradient-24" x1="0.898" y1="0.646" x2="0.004" y2="0.368" gradientUnits="objectBoundingBox">
      <stop offset="0" stop-color="#4c86d3"/>
      <stop offset="1" stop-color="#6c9ad3"/>
    </linearGradient>
    <linearGradient id="linear-gradient-25" x1="0.868" y1="1.277" x2="-0.372" y2="-0.169" xlink:href="#linear-gradient-22"/>
    <linearGradient id="linear-gradient-26" y1="-1061.411" x2="1" y2="-1061.411" gradientUnits="objectBoundingBox">
      <stop offset="0" stop-color="#4c86d3"/>
      <stop offset="1" stop-color="#1f5686"/>
    </linearGradient>
    <linearGradient id="linear-gradient-27" x1="0.5" y1="-106.23" x2="0.5" y2="-107.133" xlink:href="#linear-gradient-22"/>
    <linearGradient id="linear-gradient-28" x1="0.05" y1="-286.738" x2="0.986" y2="-287.27" xlink:href="#linear-gradient-24"/>
    <linearGradient id="linear-gradient-29" x1="0.762" y1="-394.431" x2="0.497" y2="-396.677" xlink:href="#linear-gradient-24"/>
    <linearGradient id="linear-gradient-30" x1="0.406" y1="-890.322" x2="0.985" y2="-889.152" xlink:href="#linear-gradient-24"/>
    <linearGradient id="linear-gradient-31" x1="0.508" y1="-878.567" x2="0.485" y2="-879.52" xlink:href="#linear-gradient-22"/>
    <linearGradient id="linear-gradient-32" x1="0.53" y1="-148.069" x2="0.454" y2="-148.924" xlink:href="#linear-gradient-24"/>
    <linearGradient id="linear-gradient-33" x1="0" y1="-727.661" x2="1" y2="-727.661" xlink:href="#linear-gradient-24"/>
    <linearGradient id="linear-gradient-34" x1="6.745" y1="0.932" x2="6.882" y2="0.314" gradientUnits="objectBoundingBox">
      <stop offset="0" stop-color="#3b3147"/>
      <stop offset="1" stop-color="#575960"/>
    </linearGradient>
    <linearGradient id="linear-gradient-35" x1="2.586" y1="0.54" x2="3.507" y2="0.54" xlink:href="#linear-gradient-34"/>
    <linearGradient id="linear-gradient-36" x1="0.417" y1="0.476" x2="0.457" y2="0.498" xlink:href="#linear-gradient-8"/>
    <linearGradient id="linear-gradient-37" x1="2.33" y1="2.862" x2="2.137" y2="0.344" xlink:href="#linear-gradient-24"/>
    <linearGradient id="linear-gradient-38" x1="0.381" y1="-267.984" x2="0.68" y2="-268.344" gradientUnits="objectBoundingBox">
      <stop offset="0" stop-color="#d3d1d8"/>
      <stop offset="1" stop-color="#909ec9"/>
    </linearGradient>
    <linearGradient id="linear-gradient-39" x1="0.774" y1="-569.087" x2="-0.015" y2="-570.909" xlink:href="#linear-gradient-24"/>
    <linearGradient id="linear-gradient-40" x1="0" y1="-836.447" x2="1" y2="-836.447" xlink:href="#linear-gradient-10"/>
    <linearGradient id="linear-gradient-41" x1="0.12" y1="-455.681" x2="0.829" y2="-454.545" xlink:href="#linear-gradient-10"/>
    <linearGradient id="linear-gradient-42" x1="0.139" y1="-584.516" x2="0.821" y2="-583.11" xlink:href="#linear-gradient-10"/>
    <linearGradient id="linear-gradient-43" x1="1.359" y1="-97.052" x2="0.169" y2="-96.292" xlink:href="#linear-gradient-10"/>
    <linearGradient id="linear-gradient-44" x1="1.585" y1="-97.222" x2="-0.19" y2="-96.468" xlink:href="#linear-gradient-10"/>
    <linearGradient id="linear-gradient-45" x1="0.255" y1="-123.291" x2="0.778" y2="-122.592" xlink:href="#linear-gradient-10"/>
    <linearGradient id="linear-gradient-46" x1="0.848" y1="-123.433" x2="0.059" y2="-122.471" xlink:href="#linear-gradient-10"/>
    <linearGradient id="linear-gradient-47" x1="0.61" y1="-197.382" x2="0.296" y2="-196.702" xlink:href="#linear-gradient-10"/>
    <linearGradient id="linear-gradient-48" x1="0.593" y1="-207.582" x2="0.313" y2="-206.988" xlink:href="#linear-gradient-10"/>
    <linearGradient id="linear-gradient-49" x1="0.5" y1="-216.667" x2="0.5" y2="-217.83" xlink:href="#linear-gradient-22"/>
    <linearGradient id="linear-gradient-50" x1="0" y1="-324.428" x2="1" y2="-324.428" xlink:href="#linear-gradient-24"/>
    <linearGradient id="linear-gradient-51" x1="0.126" y1="-1214.601" x2="0.774" y2="-1213.535" xlink:href="#linear-gradient-22"/>
    <linearGradient id="linear-gradient-52" x1="0.976" y1="-1039.159" x2="0.188" y2="-1039.64" gradientUnits="objectBoundingBox">
      <stop offset="0" stop-color="#e09c6c"/>
      <stop offset="1" stop-color="#e5b391"/>
    </linearGradient>
    <linearGradient id="linear-gradient-53" x1="1.692" y1="-142.819" x2="-1.978" y2="-141.26" xlink:href="#linear-gradient-10"/>
    <linearGradient id="linear-gradient-54" x1="0.965" y1="-1969.026" x2="-0.003" y2="-1970.151" xlink:href="#linear-gradient-52"/>
    <linearGradient id="linear-gradient-55" x1="-0.073" y1="-215.149" x2="1.198" y2="-217.135" xlink:href="#linear-gradient-24"/>
    <linearGradient id="linear-gradient-56" x1="0.216" y1="-684.241" x2="1.084" y2="-685.545" xlink:href="#linear-gradient-24"/>
    <linearGradient id="linear-gradient-57" x1="0.5" y1="-164.01" x2="0.5" y2="-164.89" xlink:href="#linear-gradient-22"/>
    <linearGradient id="linear-gradient-58" x1="0.293" y1="1.035" x2="0.861" y2="-0.197" xlink:href="#linear-gradient-24"/>
    <linearGradient id="linear-gradient-59" x1="0.302" y1="-179.511" x2="0.535" y2="-180.04" gradientUnits="objectBoundingBox">
      <stop offset="0" stop-color="#4c86d3"/>
      <stop offset="1" stop-color="#6c9ad3" stop-opacity="0"/>
    </linearGradient>
    <linearGradient id="linear-gradient-60" x1="0.068" y1="0.837" x2="2.045" y2="-0.101" xlink:href="#linear-gradient-52"/>
    <linearGradient id="linear-gradient-61" x1="0.245" y1="0.477" x2="1.24" y2="0.477" xlink:href="#linear-gradient-52"/>
    <linearGradient id="linear-gradient-62" x1="0.171" y1="0.492" x2="1.179" y2="0.492" xlink:href="#linear-gradient-34"/>
    <linearGradient id="linear-gradient-63" x1="-0.32" y1="0.954" x2="1.018" y2="0.094" xlink:href="#linear-gradient-52"/>
    <linearGradient id="linear-gradient-64" x1="-0.588" y1="0.881" x2="0.993" y2="0.288" xlink:href="#linear-gradient-34"/>
    <linearGradient id="linear-gradient-65" x1="0.072" y1="-695.599" x2="1.411" y2="-696.147" xlink:href="#linear-gradient-34"/>
    <linearGradient id="linear-gradient-66" x1="8.074" y1="0.737" x2="7.319" y2="-0.75" xlink:href="#linear-gradient-8"/>
    <linearGradient id="linear-gradient-67" x1="19.738" y1="-0.38" x2="18.999" y2="-0.887" xlink:href="#linear-gradient-8"/>
    <linearGradient id="linear-gradient-68" x1="0.274" y1="-711.005" x2="0.617" y2="-710.531" gradientUnits="objectBoundingBox">
      <stop offset="0" stop-color="#d3d1d8"/>
      <stop offset="1" stop-color="#a4aad8"/>
    </linearGradient>
    <linearGradient id="linear-gradient-69" x1="0.839" y1="0.961" x2="0.138" y2="0.224" xlink:href="#linear-gradient-52"/>
    <linearGradient id="linear-gradient-70" x1="-0.018" y1="-273.835" x2="1.513" y2="-274.863" xlink:href="#linear-gradient-24"/>
    <linearGradient id="linear-gradient-71" x1="0.264" y1="-138.945" x2="1.506" y2="-139.923" xlink:href="#linear-gradient-24"/>
    <linearGradient id="linear-gradient-72" x1="0.534" y1="-563.234" x2="0.47" y2="-562.175" xlink:href="#linear-gradient-24"/>
    <linearGradient id="linear-gradient-73" x1="0.517" y1="-6681.848" x2="0.489" y2="-6680.976" xlink:href="#linear-gradient-24"/>
    <linearGradient id="linear-gradient-74" x1="0.748" y1="-663.749" x2="0.325" y2="-662.771" xlink:href="#linear-gradient-8"/>
    <linearGradient id="linear-gradient-75" x1="0.5" y1="-930.522" x2="0.5" y2="-929.051" xlink:href="#linear-gradient-8"/>
    <linearGradient id="linear-gradient-76" x1="0.5" y1="-1125.865" x2="0.5" y2="-1124.533" xlink:href="#linear-gradient-8"/>
    <linearGradient id="linear-gradient-77" y1="-4491.644" x2="1" y2="-4491.644" gradientUnits="objectBoundingBox">
      <stop offset="0" stop-color="#222227"/>
      <stop offset="1" stop-color="#453f51"/>
    </linearGradient>
    <linearGradient id="linear-gradient-78" y1="-4498.333" y2="-4498.333" xlink:href="#linear-gradient-77"/>
    <linearGradient id="linear-gradient-80" x1="0.869" y1="-489.854" x2="0.334" y2="-489.329" gradientUnits="objectBoundingBox">
      <stop offset="0" stop-color="#d1e43c"/>
      <stop offset="1" stop-color="#89a627"/>
    </linearGradient>
    <linearGradient id="linear-gradient-81" x1="0.354" y1="-312.278" x2="0.825" y2="-311.129" xlink:href="#linear-gradient-80"/>
    <linearGradient id="linear-gradient-82" x1="0.259" y1="-956.718" x2="0.689" y2="-955.992" xlink:href="#linear-gradient-80"/>
    <linearGradient id="linear-gradient-83" x1="-0.025" y1="-534.266" x2="1.541" y2="-533.797" xlink:href="#linear-gradient-8"/>
    <linearGradient id="linear-gradient-84" x1="0.726" y1="-724.733" x2="0.459" y2="-723.838" xlink:href="#linear-gradient-8"/>
  </defs>
  <g id="Grupo_919059" data-name="Grupo 919059" transform="translate(-580 -23071)">
    <g id="Grupo_919039" data-name="Grupo 919039" transform="translate(523 23045.633)">
      <path id="Trazado_706953" data-name="Trazado 706953" d="M96.643,225.412c.162-11.713-19.793-31.187-23.558-64.868-3.122-27.928,16.08-52.529,34.49-61.558,17.176-8.425,25.676-5.364,37.16-12.312,16.062-9.718,18.016-32.1,41.646-39.923,11.232-3.716,23.147-.681,33.738,4.907S240.648,64.747,251.8,68.527c11.232,3.807,23.125,2.873,34.773,1.785,39.311-3.67,64.62,30.422,63.159,58.325-.868,16.6-6.237,27.844-13.789,37.729-4.246,5.557-10.532,11.666-8.459,18.734.944,3.217,3.443,5.362,5.508,7.741,6.968,8.029,9.454,21.671,6.382,32.571Z" transform="translate(-8.494)" fill="url(#linear-gradient)"/>
      <g id="Grupo_919044" data-name="Grupo 919044" transform="translate(64.256 45.116)">
        <g id="Grupo_919043" data-name="Grupo 919043" clip-path="url(#clip-path)">
          <g id="Grupo_919039-2" data-name="Grupo 919039" transform="translate(53.683 8.291)">
            <path id="Trazado_706954" data-name="Trazado 706954" d="M618.151,178.673H556.018s1.294-6.388,7.946-7.037,9.329,2.677,11.519,1.866c5.685-2.105,6.9-8.753,15.218-9.652,5.525-.6,7.982,6.639,12.524,7.7s5.516-2.385,9.41-1.23,6.489,5.7,8.76,6.022,5.764-.552,7.788.162c2.433.859,2.271,2.17,2.271,2.17Z" transform="translate(-387.063 -117.423)" fill="url(#linear-gradient-2)"/>
            <path id="Trazado_706955" data-name="Trazado 706955" d="M395.293,279.829H333.16s1.294-6.388,7.946-7.037,9.329,2.677,11.519,1.866c5.684-2.105,6.9-8.753,15.219-9.652,5.526-.6,7.981,6.639,12.524,7.7s5.516-2.385,9.41-1.23,6.489,5.7,8.761,6.022,5.763-.551,7.787.163c2.434.858,2.271,2.17,2.271,2.17Z" transform="translate(-266.874 -171.977)" fill="url(#linear-gradient-3)"/>
            <path id="Trazado_706956" data-name="Trazado 706956" d="M393.423,77.971H331.29s1.294-6.388,7.946-7.037,9.329,2.677,11.519,1.866c5.685-2.105,6.9-8.753,15.219-9.652,5.525-.6,7.981,6.639,12.524,7.7s5.516-2.385,9.41-1.231,6.489,5.7,8.76,6.022,5.764-.551,7.788.162c2.433.859,2.271,2.17,2.271,2.17Z" transform="translate(-265.866 -63.113)" fill="url(#linear-gradient-4)"/>
            <path id="Trazado_706957" data-name="Trazado 706957" d="M251.41,158.6H189.277s1.295-6.388,7.946-7.037,9.329,2.677,11.519,1.866c5.684-2.105,6.9-8.753,15.219-9.652,5.525-.6,7.981,6.639,12.524,7.7s5.516-2.385,9.41-1.23,6.489,5.7,8.761,6.022,5.763-.552,7.787.162c2.434.859,2.271,2.17,2.271,2.17Z" transform="translate(-189.277 -106.594)" fill="url(#linear-gradient-5)"/>
          </g>
          <g id="Grupo_919040" data-name="Grupo 919040" transform="translate(-12.123 89.733)">
            <path id="Trazado_706958" data-name="Trazado 706958" d="M133.772,273.057c27.488-8.206,99.714,73.13,99.714,73.13H46.435S103.867,281.985,133.772,273.057Z" transform="translate(-46.435 -257.466)" opacity="0.5" fill="url(#linear-gradient-6)"/>
            <path id="Trazado_706959" data-name="Trazado 706959" d="M375.565,240.594c33.085-9.877,120.019,88.021,120.019,88.021H270.444S339.571,251.34,375.565,240.594Z" transform="translate(-167.245 -239.894)" fill="url(#linear-gradient-7)"/>
          </g>
          <g id="Grupo_919042" data-name="Grupo 919042" transform="translate(-3.687 -7.06)">
            <path id="Trazado_706960" data-name="Trazado 706960" d="M216.4,144.289s10.647-1.744,18.465-1.44a.859.859,0,0,1,.077,1.1s-6.191.544-9.294,1.76c0,0,8.761-.243,13.567.811a1.356,1.356,0,0,1-.122.892c-8.548-.122-14.48-.639-25.735,4.274" transform="translate(-144.895 -90.745)" fill="url(#linear-gradient-8)"/>
            <path id="Trazado_706961" data-name="Trazado 706961" d="M142.223,200.373s11.71,7.865,23.464,3.621c13.141-4.745,10.606-21.972-6.753-25.643" transform="translate(-106.53 -109.911)" fill="url(#linear-gradient-9)"/>
            <path id="Trazado_706962" data-name="Trazado 706962" d="M104.525,139.647s15.834-5.439,22.56-12.647c11.866-12.717,6.936-19.126,6.936-19.126s19.647,3.778,26.793-5.858c6.831-9.21-1.748-16.13-1.748-16.13s19.915-5.336,24.478-17.969c7.982-22.1-13.149-35.565-25.614-38s-57.613,30.744-57.613,30.744Z" transform="translate(-83.93 -29.791)" fill="url(#linear-gradient-10)"/>
            <path id="Trazado_706963" data-name="Trazado 706963" d="M82.918,255.612S80.565,204.147,88.6,183.8s36.99-45.041,36.99-45.041a3.7,3.7,0,0,0-1.066-3.643S95.572,162.634,93.3,162.634s3.731-19.207,3.731-19.207H64.747V255.612Z" transform="translate(-64.747 -86.596)" fill="url(#linear-gradient-11)"/>
            <g id="Grupo_919041" data-name="Grupo 919041" transform="translate(20.979 48.218)">
              <path id="Trazado_706964" data-name="Trazado 706964" d="M110.286,269.573a8.022,8.022,0,0,1,5.689-5.265,10.3,10.3,0,0,1,6.6.609,11.426,11.426,0,0,1-5.019,5.259C114.195,272.079,111.148,270.149,110.286,269.573Z" transform="translate(-110.286 -204.33)" fill="url(#linear-gradient-12)"/>
              <path id="Trazado_706965" data-name="Trazado 706965" d="M261.7,137.617a3.071,3.071,0,0,1,1.459-2.585,3.944,3.944,0,0,1,2.478-.551,4.379,4.379,0,0,1-1.215,2.506A2.611,2.611,0,0,1,261.7,137.617Z" transform="translate(-191.944 -134.456)" fill="url(#linear-gradient-13)"/>
              <path id="Trazado_706966" data-name="Trazado 706966" d="M262.952,142.249a5.7,5.7,0,0,1,5.283-1.562,7.321,7.321,0,0,1,4.014,2.467,8.122,8.122,0,0,1-4.855,1.77A4.846,4.846,0,0,1,262.952,142.249Z" transform="translate(-192.62 -137.744)" fill="url(#linear-gradient-14)"/>
            </g>
          </g>
        </g>
      </g>
      <g id="Grupo_919046" data-name="Grupo 919046" transform="translate(58.591 164.805)">
        <path id="Trazado_706968" data-name="Trazado 706968" d="M98.68,365.349c-5.33-2.221-10.05,13.882-10.05,13.882-.334-2.777,3.432-15.4,5.691-19.129,5.747-9.495-1.249-12.521-6.024-4.192-1.819,3.172-3.582,12.256-3.721,16.269-.5-3.676-.777-11.161-2.866-17.04-3.989-11.226-15.4-12.043-11.043-3.616A209.96,209.96,0,0,1,79.5,372.928c-2.333-5.1-7.436-13.182-10.745-15.576-6.72-4.861-12.6-3.5-4,4.664a61.764,61.764,0,0,1,15.436,24.5H90.962C93.127,375.454,104.706,367.859,98.68,365.349Z" transform="translate(-60.454 -327.003)" fill="url(#linear-gradient-15)"/>
        <path id="Trazado_706969" data-name="Trazado 706969" d="M518.99,370.064l-36.049-2.09a27.835,27.835,0,0,1-5.42-19.771l17.488,9.239-15.975-15.187a29.7,29.7,0,0,1,1.919-4.041c.175-.3.358-.606.553-.9L497.089,356.3l-14.6-20.341c7.964-9.9,26.43-10.652,36.59-.9-2.858,5.948-13.258,21.87-13.51,22.387L521.429,337.7a21.708,21.708,0,0,1,1.524,2.314C532.4,356.579,518.99,370.064,518.99,370.064Z" transform="translate(-285.269 -317.434)" fill="url(#linear-gradient-16)"/>
        <g id="Grupo_919045" data-name="Grupo 919045" transform="translate(238.678)">
          <path id="Trazado_706970" data-name="Trazado 706970" d="M593.1,359.514c4.629-6.5,16.677-10.539,24.448-13.343,6.373-2.3,9.612-5.134,9.6-8.447-.019-6.327-8.559-5.091-16.07-.954-9.57,5.27-19.271,14.866-19.271,14.866,1.927-4.772,24.639-22.743,16.309-29.564-8.947-7.327-22.753,29.006-22.753,29.006,2.3-11.618,21.119-46.786,4.928-46.149-15.138.6-11.331,52.307-11.331,52.307Z" transform="translate(-578.54 -304.919)" fill="url(#linear-gradient-17)"/>
          <path id="Trazado_706971" data-name="Trazado 706971" d="M584.564,354.912q-.534,4.426-.958,8.864l.627.1c.815-8.314,1.905-16.617,3.318-24.85.752-4.4,1.582-8.791,2.687-13.115a38.727,38.727,0,0,1,3.179-9.111.219.219,0,0,0-.378-.22c-1.887,3.194-2.841,6.949-3.733,10.516A225.54,225.54,0,0,0,584.564,354.912Z" transform="translate(-581.272 -311.153)" opacity="0.5" fill="url(#linear-gradient-18)" style="mix-blend-mode: multiply;isolation: isolate"/>
          <path id="Trazado_706972" data-name="Trazado 706972" d="M594.37,377q-1.195,2.4-2.342,4.823l.661.106q4-8.4,8.662-16.462c1.872-3.241,3.821-6.449,5.957-9.518a42.166,42.166,0,0,1,5.591-6.8c.205-.194-.1-.492-.308-.308a40.763,40.763,0,0,0-6.464,7.726A166.568,166.568,0,0,0,594.37,377Z" transform="translate(-585.814 -328.574)" opacity="0.5" fill="url(#linear-gradient-19)" style="mix-blend-mode: multiply;isolation: isolate"/>
          <path id="Trazado_706973" data-name="Trazado 706973" d="M599.756,397.48l.778.124c.037-.04.077-.084.117-.124,8.673-9.063,19.663-16.562,31.706-20.306a.217.217,0,0,0-.114-.418,53.792,53.792,0,0,0-8.215,3.032,76.667,76.667,0,0,0-16.69,10.546A78.823,78.823,0,0,0,599.756,397.48Z" transform="translate(-589.982 -343.656)" opacity="0.5" fill="url(#linear-gradient-20)" style="mix-blend-mode: multiply;isolation: isolate"/>
        </g>
        <path id="Trazado_706974" data-name="Trazado 706974" d="M332.036,408.079s16.236-6.45,35.138-13.6,23.584-7.887,30.892-7.32,19.806,10.392,26.21,11.552,13.667-10.377,23.666-8.085,28.607,17.454,28.607,17.454Z" transform="translate(-206.921 -349.19)" fill="url(#linear-gradient-21)"/>
      </g>
      <g id="Grupo_919048" data-name="Grupo 919048" transform="translate(191.089 76.182)">
        <path id="Trazado_706975" data-name="Trazado 706975" d="M453.7,268.953c-1.051,1.241-3.757,2.4-7.169,3.446-2.3.7-4.906,1.343-7.549,1.913-.827.18-1.66.356-2.487.521-7.364,1.479-14.236,2.375-14.236,2.375l-9.724,27.942a33.061,33.061,0,0,1-7.131-1.548s3.354-22.632,5.646-30.867c0,0,.988-5.865,6.39-8.021,3.553-1.417,14.061-5.661,18.714-7.539a25.276,25.276,0,0,0,11.686-2.278c3.222-1.562,5.261-3.358,5.743-5.538h.005S459.469,262.139,453.7,268.953Z" transform="translate(-378.987 -186.331)" fill="url(#linear-gradient-22)"/>
        <path id="Trazado_706976" data-name="Trazado 706976" d="M485.841,292.836c-2.3.7-4.906,1.343-7.549,1.913,2.4-1.742,3.83-7.495,3.83-7.495l2.244,2.263A32.376,32.376,0,0,1,485.841,292.836Z" transform="translate(-418.295 -206.769)" opacity="0.43" fill="url(#linear-gradient-23)" style="mix-blend-mode: multiply;isolation: isolate"/>
        <path id="Trazado_706977" data-name="Trazado 706977" d="M400.517,354.3l5.967-15.456a18.16,18.16,0,0,0-10.367-3.566l-2.856,15.8c-1.454-.69-1.446-.882-3.33-1.71a3.681,3.681,0,0,0-4.827,1.611c-.227,1.172,1.958,7.271,14.655,8.462a12.434,12.434,0,0,0,.883-3.531,4.251,4.251,0,0,0-.126-1.608Z" transform="translate(-368.03 -232.671)" fill="url(#linear-gradient-24)"/>
        <path id="Trazado_706978" data-name="Trazado 706978" d="M385.024,368.934s.534-.607,1.941.67,2.793,3.3,6.116,5.171a32.365,32.365,0,0,0,6.5,2.74s-1.594,1.015-6.793-.637c-1.136-.361-1.39-.323-4.218-2.22C385.86,372.839,384.053,369.906,385.024,368.934Z" transform="translate(-367.852 -250.742)" fill="url(#linear-gradient-25)"/>
        <path id="Trazado_706979" data-name="Trazado 706979" d="M526.5,379.748s-.785-.751.8-1.867,10.3-6.287,10.17-3.346-.578,4.32-1.166,4.523-2.373,1.136-3.062,1.338a7.687,7.687,0,0,1-2.352.467C530.038,380.843,526.985,380.439,526.5,379.748Z" transform="translate(-444.191 -253.359)" fill="url(#linear-gradient-26)"/>
        <path id="Trazado_706980" data-name="Trazado 706980" d="M516.51,320.875a8.7,8.7,0,0,1-6.366,3.842S490.888,297,490.471,295.881c-4.907-13.141-7.71-40.559-7.71-40.559l20.138-1.764a22.17,22.17,0,0,1,.589,18.036c-.03,5.955.6,14.8,1.008,20.556C509.928,298.476,516.51,320.875,516.51,320.875Z" transform="translate(-420.705 -188.596)" fill="url(#linear-gradient-27)"/>
        <path id="Trazado_706981" data-name="Trazado 706981" d="M542.887,389.8a5.971,5.971,0,0,0-.874-.535h0l-4.347-14.418s.072,2.818-6.386,5.129c-3.1,1.11-4.548.422-4.548.422l8.718,12.885c-.234,1.126-.13,3.494-1.469,3.919-5.18.293-3.38,4.395-3.38,4.395h7.775a6.745,6.745,0,0,0,2.66-2.256c1.619-2.11,4.6-6.043,4.6-6.043A12.522,12.522,0,0,0,542.887,389.8Z" transform="translate(-444.419 -254.008)" fill="url(#linear-gradient-28)"/>
        <path id="Trazado_706982" data-name="Trazado 706982" d="M450.013,220.18c.954,5.344-1.095,14.867-1.893,20.641l-3.4.073c-.649-4.184-1.655-10.1-1.947-14.631a29.917,29.917,0,0,1,.243-6.751l.423-12.961,8.25.574S449.731,218.588,450.013,220.18Z" transform="translate(-399.097 -163.246)" fill="#efcdaf"/>
        <path id="Trazado_706983" data-name="Trazado 706983" d="M451.6,191.548a3.524,3.524,0,0,1-.944.307,15.364,15.364,0,0,1-3.159.4,13.779,13.779,0,0,1-1.815-.073c-.146-.01-.282-.029-.433-.054-3.392-.54-3.728-.993-3.728-.993s1-15.74,4.366-17.59C449.668,171.467,451.3,187.966,451.6,191.548Z" transform="translate(-398.462 -145.347)" fill="url(#linear-gradient-29)"/>
        <path id="Trazado_706984" data-name="Trazado 706984" d="M457.648,204.1a15.362,15.362,0,0,1-3.159.4l1.12-8.431Z" transform="translate(-405.458 -157.591)" fill="url(#linear-gradient-30)" style="mix-blend-mode: multiply;isolation: isolate"/>
        <path id="Trazado_706985" data-name="Trazado 706985" d="M477.312,265.064s2.94,1.178,5.4,2.07,4.53.08,6.842-1.035,4.989-1.764,6.936-2.575,3.188-4.609,3.188-4.609l-15.518,4.569" transform="translate(-417.767 -191.485)" opacity="0.43" fill="url(#linear-gradient-31)" style="mix-blend-mode: multiply;isolation: isolate"/>
        <path id="Trazado_706986" data-name="Trazado 706986" d="M479.965,212.616c-5.568,2.7-7.758,5.626-17.736,2.054-1.309-.467-2.151-1.825-5.071-1.217a23.921,23.921,0,0,0,1.4-10.119c-1.9-17.108-9.691-32.6-7.88-33.846,3.169-2.175,15.716-3.645,15.716-3.645s4.687.005,7.758,2.818c1.363,1.251.156,3.85,1.081,6.541.642,1.854,1.752,4.775,3.037,8.167.574,1.518,1.183,3.135,1.8,4.789,2.142,5.748,3.673,12.24,5.563,16.48C487.029,207.773,484.317,210.508,479.965,212.616Z" transform="translate(-403.255 -141.291)" fill="url(#linear-gradient-32)"/>
        <path id="Trazado_706987" data-name="Trazado 706987" d="M502.2,203.8l-1.114,1.353c-1.962-2.268-9.413-10.065-9.647-10.309l8.96,4.166C500.969,200.528,501.577,202.144,502.2,203.8Z" transform="translate(-425.383 -156.931)" fill="url(#linear-gradient-33)" style="mix-blend-mode: multiply;isolation: isolate"/>
        <g id="Grupo_919047" data-name="Grupo 919047" transform="translate(41.422 0.782)">
          <path id="Trazado_706988" data-name="Trazado 706988" d="M439.537,132.547s4,12.494,3.992,16.487c0,0,7.129-2.428,7.385-4.12.545-3.6-10.015-14.879-10.015-14.879Z" transform="translate(-438.817 -122.761)" fill="url(#linear-gradient-34)"/>
          <path id="Trazado_706989" data-name="Trazado 706989" d="M455.542,154.083s1.417,3.217,6.175,2.866a12.616,12.616,0,0,0,7.445-5.544,9.647,9.647,0,0,1-2-.507,4.978,4.978,0,0,1-1.849-1.632,15.369,15.369,0,0,1-1.847-10.193l-7.833,5.819c.543.245,1.127.552,1.127.552l.019.088c.072.333.322,1.592.488,2.926.013.125.032.249.045.374a.092.092,0,0,1,0,.042h.007l.7.134a14.925,14.925,0,0,1,.071,2.739,2.438,2.438,0,0,1-.361,1.2A6.49,6.49,0,0,1,455.542,154.083Z" transform="translate(-447.448 -127.636)" fill="#efcdaf"/>
          <path id="Trazado_706990" data-name="Trazado 706990" d="M459.4,156.463l.7.134a14.95,14.95,0,0,1,.072,2.739,14.929,14.929,0,0,0,4.652-6.184l-5.429,3.27Z" transform="translate(-449.525 -135.229)" fill="#e8a77d"/>
          <path id="Trazado_706991" data-name="Trazado 706991" d="M455.451,133.7c-.818,1.5-3.461,4.923-6.424,5.323-1.373.185-4.126-1.714-5.036-3.522a24,24,0,0,1-1.294-3.9,29.342,29.342,0,0,1-1.605-7.119c-.032-2.077.216-6.094,5.651-6.652C452.148,117.271,460.7,124.05,455.451,133.7Z" transform="translate(-439.653 -116.16)" fill="#efcdaf"/>
          <path id="Trazado_706992" data-name="Trazado 706992" d="M439.2,119.723a8.562,8.562,0,0,1,8.277-5.2s-.009.012-.009.012c3.646-1.052,6.441.877,8.77,3.994,5.628,4.989,5.116,10.272,5.344,14.948,0,0-.244-.481-.66-1.235-.012.088-.022.177-.039.261-.888,4.391-7.284,7.425-7.284,7.425a13.069,13.069,0,0,0,.646-4.458c-.2,1.523-2.534,3.681-2.534,3.681.659-5.939-3.915-13.334-3.915-13.334-3.826-6.058-6.506-2.881-6.506-2.881s-2.721-.1-1.106,2.874a13.155,13.155,0,0,1-1.773-1.958C437.351,122.459,438.464,120.035,439.2,119.723Z" transform="translate(-437.974 -114.246)" fill="url(#linear-gradient-35)"/>
        </g>
        <path id="Trazado_706993" data-name="Trazado 706993" d="M399.6,271.823l-2.753-1.717,58.42-93.672a.657.657,0,0,1,.483-.315,2.262,2.262,0,0,1,1.5.465,2.11,2.11,0,0,1,.861.96.659.659,0,0,1-.069.576Z" transform="translate(-374.37 -146.828)" fill="url(#linear-gradient-36)"/>
        <path id="Trazado_706994" data-name="Trazado 706994" d="M501.215,185.394l3.825-8.819s3.989,3.111,7.705,6.129l.1.084c3.577,3.184,5.1,4.9,5.542,6.436.654,2.291-7.887,2.448-7.887,2.448A110.16,110.16,0,0,1,501.215,185.394Z" transform="translate(-430.658 -147.079)" fill="#efcdaf"/>
        <path id="Trazado_706995" data-name="Trazado 706995" d="M496.645,186.171c3.678-3.544,5.525-8.73,5.377-10.626-6.8-5.5-9.736-6.652-9.736-6.652s-5.162,8.566-4.328,10.364C488.417,180.239,493.305,183.917,496.645,186.171Z" transform="translate(-423.458 -142.935)" fill="url(#linear-gradient-37)"/>
        <path id="Trazado_706996" data-name="Trazado 706996" d="M504.935,193.221l-3.117,2.368a136.581,136.581,0,0,1-9.411,11.252c-1.945,1.91-2.6,2.819-3.529,3.651-.17.142-1.6.308-2.068.507a8.552,8.552,0,0,0-1.8,1.034,10.261,10.261,0,0,0-1.156,2.145c-.345.633-.426.856.122.775s1.571-1.123,1.571-1.123.209-.519.234,1.772a10.125,10.125,0,0,1-1.11,4.047,3.517,3.517,0,0,0,1.337-.567c.569-.409.476-1.1.862-1.383a17.374,17.374,0,0,0,1.75-1.346,10.231,10.231,0,0,0,.892-1.846,16.125,16.125,0,0,1,1.318-1.683s8.723-4.593,12.822-8.05a32.045,32.045,0,0,0,4.8-4.638C509.7,198.385,508.57,196.256,504.935,193.221Z" transform="translate(-421.144 -156.056)" fill="#efcdaf"/>
        <path id="Trazado_706997" data-name="Trazado 706997" d="M375.022,363.826a3.27,3.27,0,0,1,3.032,1.916l-3.181,5.239a1.527,1.527,0,0,0,.406,2.033,4.426,4.426,0,0,1,1.9,3.953c-.243,5.557-11.6,15.453-11.6,15.453H348.06a68.209,68.209,0,0,0,8.517-10.143c4.624-6.568,5.476-9.812,9.694-10.826a22.63,22.63,0,0,1,3.2-.269,1.739,1.739,0,0,0,1.41-.808Z" transform="translate(-348.06 -248.065)" fill="url(#linear-gradient-38)"/>
        <path id="Trazado_706998" data-name="Trazado 706998" d="M438.369,125.584s6.167-.824,8.314-1.818c6.458-2.988,9.226-6.152,9.226-6.152a7.194,7.194,0,0,0-6.142-4.938c-5.229-.833-10.318,2.606-11.562,5.07A9.135,9.135,0,0,0,438.369,125.584Z" transform="translate(-396.226 -112.549)" fill="url(#linear-gradient-39)"/>
        <path id="Trazado_706999" data-name="Trazado 706999" d="M435.248,136.2s-3.419,2.951-3.662,4.52c-.117.751,4.59.347,6.053-.17,6.311-2.231,9.965-8.315,9.965-8.315A40.022,40.022,0,0,1,435.248,136.2Z" transform="translate(-393.105 -123.167)" fill="url(#linear-gradient-40)"/>
        <path id="Trazado_707000" data-name="Trazado 707000" d="M446.751,280.1a15.6,15.6,0,0,1,0,2.431c-.113,1.065.122,3.072.05,3.711s-.5,2-.264,2.423,1.008-.11,1.319-.73,1.2-3.007,1.2-3.007l2.666-4.273s-.723-1.165-1.456-1.378S446.751,280.1,446.751,280.1Z" transform="translate(-401.131 -202.451)" fill="#efcdaf"/>
        <path id="Trazado_707001" data-name="Trazado 707001" d="M455.6,289.751s-1.081-.089-1.565-.119-1.027.773-.54,1.008a3.805,3.805,0,0,0-1.065.106,1.07,1.07,0,0,0-.57.753c-.041.321.75.738.75.738a2.845,2.845,0,0,0-1.08.273.678.678,0,0,0-.309.541c-.027.464.629.758.629.758a1.743,1.743,0,0,0-.954.161.694.694,0,0,0-.252.732,1.962,1.962,0,0,0,1.552.791c.73,0,1.9-2.175,2.205-2.57S456.114,290.473,455.6,289.751Z" transform="translate(-403.366 -208.051)" fill="#efcdaf"/>
      </g>
      <g id="Grupo_919052" data-name="Grupo 919052" transform="translate(91.39 100.523)">
        <g id="Grupo_919049" data-name="Grupo 919049" transform="translate(43.717)">
          <path id="Trazado_707002" data-name="Trazado 707002" d="M260.7,322.21s-2.908-6.619-14.142-8.707c-11.041-2.045-19.705,9.274-20.013,9.678.139-.489,4.73-16.127,19.15-16.718,8.393-.344,14.028,9.352,14.028,9.352a9.587,9.587,0,0,1,.73,1.973A11.732,11.732,0,0,1,260.7,322.21Z" transform="translate(-226.543 -241.465)" fill="url(#linear-gradient-41)"/>
          <path id="Trazado_707003" data-name="Trazado 707003" d="M260.7,326.517s-2.908-6.619-14.142-8.707c-11.041-2.045-19.705,9.274-20.013,9.678.187-.38,5.78-13.048,18.4-13.048,7.711.006,12.444,3.686,15.734,8.495A5.633,5.633,0,0,1,260.7,326.517Z" transform="translate(-226.543 -245.772)" opacity="0.3" fill="url(#linear-gradient-42)" style="mix-blend-mode: multiply;isolation: isolate"/>
          <path id="Trazado_707004" data-name="Trazado 707004" d="M280.938,190.816c-1.327,23.3,4.266,51.749,4.266,51.749l-1.3.32-.525.133s-19.5-31.977-14.42-53.9,21.135-23.736,21.135-23.736l-.006.006A48.681,48.681,0,0,0,280.938,190.816Z" transform="translate(-248.961 -165.385)" fill="url(#linear-gradient-43)"/>
          <path id="Trazado_707005" data-name="Trazado 707005" d="M293.832,242.572l-1.3.32a120.944,120.944,0,0,1-7.5-29.522C279.841,175.124,298.3,165.6,298.713,165.4a48.682,48.682,0,0,0-9.147,25.425C288.239,214.124,293.832,242.572,293.832,242.572Z" transform="translate(-257.59 -165.392)" opacity="0.3" fill="url(#linear-gradient-44)" style="mix-blend-mode: multiply;isolation: isolate"/>
          <path id="Trazado_707006" data-name="Trazado 707006" d="M263.638,266.922l-.265.549-.676,1.424c-1.623-11.174-7.741-10.015-18.336-25.7-10.432-15.44-14-34.982-14.106-35.591a.021.021,0,0,0-.006-.012C263.4,230.721,263.638,266.922,263.638,266.922Z" transform="translate(-228.542 -188.149)" fill="url(#linear-gradient-45)"/>
          <path id="Trazado_707007" data-name="Trazado 707007" d="M263.38,267.485l-.676,1.424c-1.623-11.174-7.741-10.015-18.336-25.7-10.432-15.44-14-34.982-14.106-35.591.555.754,24.4,32.5,29.763,47.9C261.962,261.087,262.684,263.3,263.38,267.485Z" transform="translate(-228.549 -188.163)" opacity="0.3" fill="url(#linear-gradient-46)" style="mix-blend-mode: multiply;isolation: isolate"/>
          <path id="Trazado_707008" data-name="Trazado 707008" d="M315.076,265.091A35.779,35.779,0,0,0,304.9,289.375h-1.442s-6.329-20.966,2.643-32.279c8.809-11.107,31.217-3.7,32.025-3.427.006,0,.018.006.024.006S326.238,253.675,315.076,265.091Z" transform="translate(-266.857 -211.556)" fill="url(#linear-gradient-47)"/>
          <path id="Trazado_707009" data-name="Trazado 707009" d="M318.01,267.286a35.779,35.779,0,0,0-10.172,24.284H306.9c-.314-3.958-.839-17.69,5.732-26.65,7.741-10.547,21.594-10.764,28.435-9.056.006,0,.018.006.024.006S329.172,255.871,318.01,267.286Z" transform="translate(-269.792 -213.752)" opacity="0.3" fill="url(#linear-gradient-48)" style="mix-blend-mode: multiply;isolation: isolate"/>
        </g>
        <path id="Trazado_707010" data-name="Trazado 707010" d="M232.221,371.047s-1.655,1.728-5.31,1.363c0,0-7.831-12.323-9.228-19.021a62.994,62.994,0,0,1-9.54.282h-.005c-2-.053-3.441-.131-3.441-.131a20.785,20.785,0,0,1-7.179-1.227,25.8,25.8,0,0,1-2.994-1.241c-3.689-1.805-6.458-12.47-6.458-12.47l18.072-1.3s19.673,6.59,20.461,7.125A2.265,2.265,0,0,1,227.84,346C229.4,352.2,232.221,371.047,232.221,371.047Z" transform="translate(-162.075 -258.1)" fill="url(#linear-gradient-49)"/>
        <path id="Trazado_707011" data-name="Trazado 707011" d="M257.442,384.769s6.75-2.759,11.221-3.246l3.33,17.689s5.195,2.156,7.3,2.809c2.809.87.7,3.175.7,3.175H263.825a4.912,4.912,0,0,1-.732-1.81c-.079-.851.422-2.794.337-3.383C262.839,395.926,257.442,384.769,257.442,384.769Z" transform="translate(-199.49 -281.95)" fill="url(#linear-gradient-50)"/>
        <path id="Trazado_707012" data-name="Trazado 707012" d="M219.2,365.46c-2-.053-3.441-.131-3.441-.131a20.784,20.784,0,0,1-7.179-1.227c0-1.338,0-2.589,0-2.589l3.577-2.356A27.65,27.65,0,0,0,219.2,365.46Z" transform="translate(-173.14 -269.888)" opacity="0.43" fill="url(#linear-gradient-51)" style="mix-blend-mode: multiply;isolation: isolate"/>
        <path id="Trazado_707013" data-name="Trazado 707013" d="M291.966,353.039a8.853,8.853,0,0,1,2.552,1.825,12.133,12.133,0,0,0,1.38,2.068,21.282,21.282,0,0,0,3.112,1.521l-.443-5.141s-4.32-1.43-4.9-2.1S291.966,353.039,291.966,353.039Z" transform="translate(-218.109 -265.542)" fill="url(#linear-gradient-52)"/>
        <path id="Trazado_707014" data-name="Trazado 707014" d="M316.219,358a4.952,4.952,0,0,0-2.388-1.171c-1.612-.461-1.718-.5-2.3-1.293s-2.434-3.077-2.809-5.034c-.269-1.384-.634-3.309-1.092-5.809-1.546-8.44-3.281-18.565-3.081-24.812.164-5.128,3.584-12.318,3.584-12.318s-3.629,3.925-4.651,5.38l-.076.109a15.892,15.892,0,0,0-2.488,12c.538,2.862,1.179,6.629,1.583,10.214.534,4.743.847,10.992,1.144,15.067h0a15.545,15.545,0,0,1-.307,4.2,5.94,5.94,0,0,1-1.136,1.7c-.284.405-.467,1.962-1.217,3.067-.371.546.112.852.6.553s.943-2.221,1.308-2.586a2.354,2.354,0,0,1,1.354-.791,1.962,1.962,0,0,1,1.627.544c.4.369.426,1.676.882,2.011a9.274,9.274,0,0,1,1.795,1.825c.3.517.751.365.786,0a17.491,17.491,0,0,0-.817-2.129,7.937,7.937,0,0,1-.548-1.917c-.006-.5.105-.685.593-.989s1.848.081,2.616.989a3.6,3.6,0,0,0,2.874,1A5.612,5.612,0,0,1,316.5,359.1C317.239,359.538,317.973,359.208,316.219,358Z" transform="translate(-222.787 -242.063)" fill="url(#linear-gradient-53)"/>
        <path id="Trazado_707015" data-name="Trazado 707015" d="M296.13,348.013s1.4.9,1.743,1.125a6.219,6.219,0,0,0,2.1.4c.548.015,1.75,1.529,1.972,1.779s.2.563-.481.578a5.706,5.706,0,0,1-1.977-.715,2.525,2.525,0,0,1-1.618.182,9.084,9.084,0,0,1-2.869-1.262Z" transform="translate(-219.748 -263.878)" fill="url(#linear-gradient-54)"/>
        <path id="Trazado_707016" data-name="Trazado 707016" d="M269.018,311.365a11.034,11.034,0,0,1-3.11,4.176s-15.536-8.692-18.626-12.3a11.961,11.961,0,0,1-1.465-4.03c-.5-2.059-.93-4.507-1.251-6.5-.35-2.18-.56-3.821-.56-3.821l12.144-8.513s-.876,14.163-1.319,17.516C256.919,299.971,269.018,311.365,269.018,311.365Z" transform="translate(-192.244 -227.401)" fill="url(#linear-gradient-55)"/>
        <path id="Trazado_707017" data-name="Trazado 707017" d="M252.814,297.184c-.16.268-5.378,8.858-6.341,11.093-.5-2.059-.93-4.507-1.251-6.5Z" transform="translate(-192.899 -236.465)" fill="url(#linear-gradient-56)" style="mix-blend-mode: multiply;isolation: isolate"/>
        <path id="Trazado_707018" data-name="Trazado 707018" d="M178.173,379.585c-3.41,1.006-37.153-5.992-37.527-5.971a9.963,9.963,0,0,1,.728-5.6c1.374-.188,5.725-.618,9.012-.916a102.877,102.877,0,0,1,15.383-.691c-2.035-4.379-3.943-8.392-4.37-9.108-2.188-3.655-8.38-12.189-1.031-23.886,0,0,8.255,1.31,12.858-.216,0,0,5.079,27.546,6.384,32.939C179.609,366.137,182.951,378.175,178.173,379.585Z" transform="translate(-136.431 -255.888)" fill="url(#linear-gradient-57)"/>
        <path id="Trazado_707019" data-name="Trazado 707019" d="M181.066,288.934s13.773,2.594,22.365.931a18.818,18.818,0,0,1,3.415-6.7c3.591-4.775,10.354-9.008,14.624-18.886,2.4-5.556-7.791-13.655-14.245-15.443-3.62-1-6.946-.644-10.414,2.764-5.317,5.224-10.422,15.511-13.159,22.612C180.166,283.261,179.577,286.419,181.066,288.934Z" transform="translate(-157.887 -210.128)" fill="url(#linear-gradient-58)"/>
        <path id="Trazado_707020" data-name="Trazado 707020" d="M181.066,288.934s13.773,2.594,22.365.931a18.818,18.818,0,0,1,3.415-6.7c3.591-4.775,10.354-9.008,14.624-18.886,2.4-5.556-7.791-13.655-14.245-15.443-3.62-1-6.946-.644-10.414,2.764-5.317,5.224-10.422,15.511-13.159,22.612C180.166,283.261,179.577,286.419,181.066,288.934Z" transform="translate(-157.887 -210.128)" opacity="0.5" fill="url(#linear-gradient-59)" style="mix-blend-mode: multiply;isolation: isolate"/>
        <g id="Grupo_919050" data-name="Grupo 919050" transform="translate(53.946 25.066)">
          <path id="Trazado_707021" data-name="Trazado 707021" d="M258.184,231.958s-.786,1-1.943,2.44c-.662.812-1.435,1.776-2.26,2.776-1.688,2.024-3.783,4.029-5.214,5.524a5.435,5.435,0,0,0,1.874,4.377c1.389,1.194,3.8.424,4.078.106.07-.187.133-.357.163-.415a8.752,8.752,0,0,1,1.195-2.354,2.707,2.707,0,0,1,.153-.231,10.2,10.2,0,0,1,.765-.916,9.575,9.575,0,0,1,1.832-1.565l-.027-.512-.551-8.286Z" transform="translate(-248.747 -226.355)" fill="url(#linear-gradient-60)"/>
          <path id="Trazado_707022" data-name="Trazado 707022" d="M261.952,245.488l0,.009a18.718,18.718,0,0,0-.271,8.047,8.92,8.92,0,0,1,1.193-2.355,6.006,6.006,0,0,0,.633,1.049c.21-.213.431-.432.679-.643l-.1-.5-.3-1.049-1.582-5.514S262.091,244.882,261.952,245.488Z" transform="translate(-255.541 -233.136)" opacity="0.5" fill="url(#linear-gradient-61)" style="mix-blend-mode: multiply;isolation: isolate"/>
          <path id="Trazado_707023" data-name="Trazado 707023" d="M289.883,246.239s-1.553,2.925-4.225,2.6l2.876-3.892Z" transform="translate(-268.653 -233.36)" fill="url(#linear-gradient-62)"/>
          <path id="Trazado_707024" data-name="Trazado 707024" d="M262.864,234.7a14.539,14.539,0,0,0-.268,1.676l0,.009a12.258,12.258,0,0,0,.058,2.8,8.991,8.991,0,0,0,.864,2.891,6.01,6.01,0,0,0,.633,1.049,4.583,4.583,0,0,0,2.226,1.694c2.884-.406,5.756-3.07,7.717-5.335.8-.912,1.44-1.762,1.883-2.367.4-.55.617-.9.617-.9.017-.024.031-.04.048-.064,2.381-3.093-.95-6.995-4.917-8.172a6.236,6.236,0,0,0-.705-.168,6.851,6.851,0,0,0-3.508.094c-1.9.6-3.095,2.353-3.831,4.156l-.115.29A16.345,16.345,0,0,0,262.864,234.7Z" transform="translate(-256.186 -224.022)" fill="url(#linear-gradient-63)"/>
          <path id="Trazado_707025" data-name="Trazado 707025" d="M277.53,225.714s2.164.039,3.6,3.062c.756,1.592.522,3.986,3.008,5,2.105.86,6.314-2.507,5.889-4.741-.82-4.312-4.366-6.416-7.764-7.348a18.584,18.584,0,0,0-3.1-.565C275.433,220.762,277.439,224.308,277.53,225.714Z" transform="translate(-263.936 -220.498)" fill="url(#linear-gradient-64)"/>
          <path id="Trazado_707026" data-name="Trazado 707026" d="M272.19,226.221a4.742,4.742,0,0,1-2.419,1.747,5.855,5.855,0,0,1-2.059.039,20.067,20.067,0,0,1-2.229,2.4l-1.149-.446a7.25,7.25,0,0,0,.662-1.2s.973-1.9-.131-2.346c-1.358-.55-3.5,2.837-4.76,4.19,0,0-.37-3.29,3.232-7.87s8.318-3.212,7.519-.034C270.75,223.125,272.41,225.851,272.19,226.221Z" transform="translate(-254.867 -219.795)" fill="url(#linear-gradient-65)"/>
        </g>
        <g id="Grupo_919051" data-name="Grupo 919051" transform="translate(51.325 94.925)">
          <path id="Trazado_707027" data-name="Trazado 707027" d="M243.262,373.754l6.441,1.411.508-2.317-6.441-1.412c-.21-.046-.494.436-.634,1.076S243.052,373.708,243.262,373.754Z" transform="translate(-243.059 -371.433)" fill="url(#linear-gradient-66)"/>
          <path id="Trazado_707028" data-name="Trazado 707028" d="M256.353,375.483c.141-.64.585-1.086.992-1s.624.681.484,1.321-.585,1.086-.992,1S256.213,376.123,256.353,375.483Z" transform="translate(-250.206 -373.073)" fill="url(#linear-gradient-67)"/>
          <path id="Trazado_707029" data-name="Trazado 707029" d="M260.426,379.959a5.6,5.6,0,0,0-.584,3.25,2.527,2.527,0,0,0,1.623,1.453,30.427,30.427,0,0,0,10.761,1.752c1.371.023-4.1-6.078-5.93-7.595s-3.818.029-4.407-.124c-.232-.061-.588-1.692-1.13-2.188a1.711,1.711,0,0,0-.8-.411c-.856-.194-2.3-.47-2.3-.47s-.392-.043-.492.694c-.082.593.281.646.281.646s1.588.378,2.01.454c.125.023.358.607.575,1.166A3.637,3.637,0,0,1,260.426,379.959Z" transform="translate(-250.664 -373.694)" fill="url(#linear-gradient-68)"/>
        </g>
        <path id="Trazado_707030" data-name="Trazado 707030" d="M243.382,364.964c-.132-.162-.872-.274-1.339-.568-.3-.191-.72-.49-.977-.677-.075-.058-.151-.114-.23-.169h0a6.314,6.314,0,0,0-1.154-.641,6.855,6.855,0,0,1-1.392-1.859c-.237-.4-1.6-3.2-1.6-3.2s-4.625,1.357-4.122,2.084a20.718,20.718,0,0,1,1.558,2.555c.9,1.618.439,2.318.612,3.019a3.975,3.975,0,0,0,2.048,2.34,31.816,31.816,0,0,0,4.624.7c.389-.078.794-1.032.809-1.11,0,0-.64-.42-.768-.764a1.78,1.78,0,0,1-.088-.815,12.724,12.724,0,0,0,1.488-.028C243.574,365.755,243.513,365.127,243.382,364.964Z" transform="translate(-186.052 -269.184)" fill="url(#linear-gradient-69)"/>
        <path id="Trazado_707031" data-name="Trazado 707031" d="M207.876,307.259c-1.159.024-2.332.01-3.49-.034-1.392-2.789-4.975-10.24-4.975-13.117,0-3.568,3.368-14.514,3.368-14.514s.2,5.67-.122,10.128C202.376,293.577,206.689,304.377,207.876,307.259Z" transform="translate(-168.194 -226.979)" fill="url(#linear-gradient-70)" style="mix-blend-mode: multiply;isolation: isolate"/>
        <path id="Trazado_707032" data-name="Trazado 707032" d="M205.038,258.424A148.65,148.65,0,0,0,201.71,274.8c-.773,6.672,13.9,27.7,13.9,27.7s3.776-.245,5.567-2.529c0,0-7.449-19.987-9.521-23.58.709-1.547,3.354-6.824,5.2-11.715s4.667-13.855.641-15.938S206.791,250.006,205.038,258.424Z" transform="translate(-169.418 -210.018)" fill="url(#linear-gradient-71)"/>
        <path id="Trazado_707033" data-name="Trazado 707033" d="M153.006,415.124s-3.1-.876-8.172-1.932c-1.518-.316-6.089-1.2-6.089-1.2a3.588,3.588,0,0,0-.608,1.319c-.1.331-.156.648-.258.935,2.336.754.243,2.653-.053,2.657h-6.094a11.83,11.83,0,0,1,.384-4.565c.565-1.952,1-2.536,1.1-3.086-.01-1.669-.152-5.12.2-5.67.082-.136.335-.219.686-.253a7.234,7.234,0,0,1,4.653.8c5.881-.11,15.265-.222,15.265-.222S154.272,407.278,153.006,415.124Z" transform="translate(-131.649 -293.653)" fill="url(#linear-gradient-72)"/>
        <path id="Trazado_707034" data-name="Trazado 707034" d="M141.5,425.11c-.1.331-.156.648-.258.935a6.233,6.233,0,0,0-3.362.217S138.758,425.045,141.5,425.11Z" transform="translate(-135.007 -305.455)" fill="url(#linear-gradient-73)" style="mix-blend-mode: multiply;isolation: isolate"/>
      </g>
      <g id="Grupo_919053" data-name="Grupo 919053" transform="translate(143.153 211.959)">
        <path id="Trazado_707035" data-name="Trazado 707035" d="M341.193,417.434a39.99,39.99,0,0,1,4.38-6.635c2.231-2.515,5.435-3.262,7.341-2.572,1.6.446,1.956-.927,3.61-.953,2.464-.039,3.334,1.46,4.891,2.423s3.4,1.42,4.174,2.93a17.7,17.7,0,0,1,1.242,5.9S347.216,419.837,341.193,417.434Z" transform="translate(-296.42 -407.273)" fill="url(#linear-gradient-74)"/>
        <path id="Trazado_707036" data-name="Trazado 707036" d="M317.009,423.215h-73a130.146,130.146,0,0,1,13.7-6.4q.606-.248,1.2-.452c.029-.015.049-.02.059-.024,7.875-2.8,13.161-.745,18.247.375,5.812,1.28,5.442-.822,9.574,0s7.135-.667,11.637-1.7c1.567-.36,4.288.521,7.174,1.82l.005,0A98.911,98.911,0,0,1,317.009,423.215Z" transform="translate(-244.007 -411.404)" fill="url(#linear-gradient-75)"/>
        <path id="Trazado_707037" data-name="Trazado 707037" d="M317.009,424.894h-73a130.15,130.15,0,0,1,13.7-6.4q.606-.248,1.2-.452c-.545.268-4.41,2.273-1.2,3.859,3.451,1.7,9.2-.3,12.075,0s2.994.73,6.463,1.1,3.651-1.766,6.507-2.224,8.157,2.005,10.041,2.268,1.64-.263,5.174,0,7.116-1.081,8.576-.711,1.937-1.192-.944-3.816A98.911,98.911,0,0,1,317.009,424.894Z" transform="translate(-244.007 -413.083)" opacity="0.25" fill="url(#linear-gradient-76)" style="mix-blend-mode: multiply;isolation: isolate"/>
      </g>
      <g id="Grupo_919054" data-name="Grupo 919054" transform="translate(100.59 59.54)">
        <path id="Trazado_707038" data-name="Trazado 707038" d="M154.967,289.536a2.1,2.1,0,0,0-2.475-.255c-1.275.766-1.218,2.688.591,3.366S156.665,290.646,154.967,289.536Z" transform="translate(-151.618 -191.054)" fill="#fff"/>
        <path id="Trazado_707039" data-name="Trazado 707039" d="M244.192,186.222a2.094,2.094,0,0,0-2.475-.255c-1.275.766-1.219,2.688.591,3.366S245.889,187.332,244.192,186.222Z" transform="translate(-199.738 -135.336)" fill="#fff"/>
        <path id="Trazado_707040" data-name="Trazado 707040" d="M396.083,201.162a1.549,1.549,0,0,0-1.829-.188,1.362,1.362,0,0,0,.436,2.488C396.027,203.963,397.338,201.983,396.083,201.162Z" transform="translate(-282.125 -143.473)" fill="#fff"/>
        <path id="Trazado_707041" data-name="Trazado 707041" d="M297.885,116.316a.841.841,0,0,0-.994-.1.74.74,0,0,0,.237,1.352C297.855,117.837,298.567,116.761,297.885,116.316Z" transform="translate(-229.776 -97.817)" fill="#fff"/>
        <path id="Trazado_707042" data-name="Trazado 707042" d="M358.915,301.88a.841.841,0,0,0-.994-.1.74.74,0,0,0,.237,1.352C358.885,303.4,359.6,302.326,358.915,301.88Z" transform="translate(-262.69 -197.893)" fill="#fff"/>
        <path id="Trazado_707043" data-name="Trazado 707043" d="M567.347,243.524a.84.84,0,0,0-.994-.1.74.74,0,0,0,.237,1.352C567.316,245.046,568.028,243.97,567.347,243.524Z" transform="translate(-375.099 -166.421)" fill="#fff"/>
        <path id="Trazado_707044" data-name="Trazado 707044" d="M640.933,270a1.55,1.55,0,0,0-1.83-.188,1.362,1.362,0,0,0,.437,2.488C640.877,272.8,642.188,270.817,640.933,270Z" transform="translate(-414.174 -180.596)" fill="#fff"/>
        <path id="Trazado_707045" data-name="Trazado 707045" d="M633,272.9a1.062,1.062,0,0,0-1.255-.129.934.934,0,0,0,.3,1.706C632.963,274.822,633.862,273.464,633,272.9Z" transform="translate(-410.316 -182.232)" fill="#fff"/>
        <path id="Trazado_707046" data-name="Trazado 707046" d="M417.511,118.155a1.547,1.547,0,0,0-1.829-.188,1.362,1.362,0,0,0,.437,2.488C417.455,120.956,418.766,118.975,417.511,118.155Z" transform="translate(-293.681 -98.706)" fill="#fff"/>
        <path id="Trazado_707047" data-name="Trazado 707047" d="M388.594,197.642a.85.85,0,0,0-1-.1.748.748,0,0,0,.24,1.366C388.563,199.179,389.282,198.093,388.594,197.642Z" transform="translate(-278.688 -141.676)" fill="#fff"/>
        <path id="Trazado_707048" data-name="Trazado 707048" d="M519.882,145.721a1.548,1.548,0,0,0-1.829-.188,1.362,1.362,0,0,0,.437,2.488C519.827,148.522,521.137,146.542,519.882,145.721Z" transform="translate(-348.891 -113.573)" fill="#fff"/>
        <path id="Trazado_707049" data-name="Trazado 707049" d="M526.008,136.707a.907.907,0,0,0-1.072-.111.8.8,0,0,0,.256,1.458C525.975,138.348,526.743,137.188,526.008,136.707Z" transform="translate(-352.748 -108.804)" fill="#fff"/>
        <path id="Trazado_707050" data-name="Trazado 707050" d="M589.411,249.254a2.544,2.544,0,0,0-3.006-.31c-1.548.93-1.48,3.264.717,4.088S591.474,250.6,589.411,249.254Z" transform="translate(-385.53 -169.265)" fill="#fff"/>
        <path id="Trazado_707051" data-name="Trazado 707051" d="M348.567,306.657a2.544,2.544,0,0,0-3.006-.31c-1.548.93-1.48,3.264.717,4.088S350.63,308.006,348.567,306.657Z" transform="translate(-255.641 -200.222)" fill="#fff"/>
        <path id="Trazado_707052" data-name="Trazado 707052" d="M330.193,76.813a1.433,1.433,0,0,0-1.695-.175,1.262,1.262,0,0,0,.4,2.305C330.142,79.408,331.357,77.573,330.193,76.813Z" transform="translate(-246.688 -76.426)" fill="#fff"/>
      </g>
      <g id="Grupo_919055" data-name="Grupo 919055" transform="translate(57 223.695)">
        <path id="Trazado_707053" data-name="Trazado 707053" d="M349.141,434.465H57.859a.859.859,0,0,1-.859-.859h0a.859.859,0,0,1,.859-.859H349.141a.859.859,0,0,1,.859.859h0A.859.859,0,0,1,349.141,434.465Z" transform="translate(-57 -432.747)" fill="url(#linear-gradient-77)"/>
        <path id="Trazado_707054" data-name="Trazado 707054" d="M473.659,446.935h-67.4a.859.859,0,0,1-.859-.859h0a.859.859,0,0,1,.859-.859h67.4a.859.859,0,0,1,.859.859h0A.859.859,0,0,1,473.659,446.935Z" transform="translate(-244.898 -439.472)" fill="url(#linear-gradient-78)"/>
        <path id="Trazado_707055" data-name="Trazado 707055" d="M302.846,446.935H288.928a.859.859,0,0,1-.859-.859h0a.859.859,0,0,1,.859-.859h13.918a.859.859,0,0,1,.859.859h0A.859.859,0,0,1,302.846,446.935Z" transform="translate(-181.617 -439.472)" fill="url(#linear-gradient-78)"/>
      </g>
      <g id="Grupo_919058" data-name="Grupo 919058" transform="translate(229.15 193.516)">
        <g id="Grupo_919056" data-name="Grupo 919056" transform="translate(0)">
          <path id="Trazado_707056" data-name="Trazado 707056" d="M451.376,385.081s-.585-5.154.852-8.071,6.165-5.435,6.327-5.435.918,1.9-.2,5.151-6.145,8.025-5.973,9.731S451.483,386.78,451.376,385.081Z" transform="translate(-441.777 -369.577)" fill="url(#linear-gradient-80)"/>
          <path id="Trazado_707057" data-name="Trazado 707057" d="M440.477,391.82a15.143,15.143,0,0,0-.642-7.978c-1.557-3.708-4.507-2.3-7.184-6.189-1.447-2.1-1.453-4.619-1.612-6.54-.194-2.329-.362-3.874-.362-3.874a14.76,14.76,0,0,1,7.511,5.231c3.307,4.255,2.844,10.207,2.89,10.749a28.542,28.542,0,0,1,.963,8.6Z" transform="translate(-430.677 -367.239)" fill="url(#linear-gradient-81)"/>
          <path id="Trazado_707058" data-name="Trazado 707058" d="M449.694,409.086a9.271,9.271,0,0,0,0-3.468c-.548-3.483-2.616-4.836-2.829-4.532a5.72,5.72,0,0,0,0,3.8c.609,1.49,2.063,1.858,2.312,2.616a3.652,3.652,0,0,1-.068,1.582Z" transform="translate(-439.232 -385.47)" fill="url(#linear-gradient-82)"/>
        </g>
        <g id="Grupo_919057" data-name="Grupo 919057" transform="translate(2.153 21.498)">
          <path id="Trazado_707059" data-name="Trazado 707059" d="M453.263,421.336c.015,3.689-2.862,6.994-2.862,6.994H438.652c-1.207-.589-3.572-3.655-3.275-6.994.365-4.1,2.146-4.483,2.872-6.517.813-2.287,1.547,1.567,3.981.774s1.4.37,3.407.37,2.979-2.433,4.015-2.01c.311.126.5.92,1,1.46a10.681,10.681,0,0,1,1.689,2.268A7.624,7.624,0,0,1,453.263,421.336Z" transform="translate(-435.351 -413.903)" fill="url(#linear-gradient-83)"/>
          <path id="Trazado_707060" data-name="Trazado 707060" d="M453.263,425.758c.015,3.689-2.862,6.994-2.862,6.994H438.652c-1.207-.589-3.572-3.655-3.275-6.994a4.873,4.873,0,0,0,3.122,4.115c5.313,2.231,6.613-.509,7.542-.3s2.355-2.132,3.894-2.487,3.363-1.295,2.409-4.979A7.624,7.624,0,0,1,453.263,425.758Z" transform="translate(-435.351 -418.325)" opacity="0.25" fill="url(#linear-gradient-84)" style="mix-blend-mode: multiply;isolation: isolate"/>
        </g>
      </g>
    </g>
    <rect id="Rectngulo_298404" data-name="Rectngulo 298404" width="293" height="225" transform="translate(580 23071)" fill="none"/>
  </g>
</svg>
