<svg xmlns="http://www.w3.org/2000/svg" width="127.977" height="121.357" viewBox="0 0 127.977 121.357">
  <g id="Grupo_918061" data-name="Grupo 918061" transform="translate(-423.989 -477.967)">
    <path id="Trazado_704773" data-name="Trazado 704773" d="M827.206,518.9c-.113-.056-1.9-5.154-.762-5.013S829.1,516.2,829.1,516.2s.682-3.886,2.186-3.248,1.255,3.417,1.255,3.417,2.045-.96,2.567.071-.815,3.4-1.409,3.53a37.783,37.783,0,0,1-6.223-.72,1.049,1.049,0,0,1-.268-.353" transform="translate(-296.488 -25.748)" fill="#80af16" fill-rule="evenodd"/>
    <path id="Trazado_704774" data-name="Trazado 704774" d="M756.239,491.8s-1.234-10.093.938-10.8,3.274,1.6,3.95,3.418,1.216,6.825.874,7.146-4.47,1.4-5.763.235" transform="translate(-244.741 -2.145)" fill="#dd3236" fill-rule="evenodd"/>
    <path id="Trazado_704775" data-name="Trazado 704775" d="M428.657,553.667s2.482,20.914.827,30.243-5.417,19.41-.752,29.039,8.426,9.028,8.426,18.056,11.586,19.861,21.968,18.507,17.9-1.655,25.578,2.708,12.789,1.5,23.472-.9,14.595,1.5,18.958-3.46,3.762-8.727,7.523-11.887,5.191-3.31,6.921-9.629c.595-2.172,5-5.2,5.727-10.383,1.38-9.885-.729-23.612,1.345-26.179,3.16-3.912-1.806-13.09.151-19.861s6.39-11.668,3.195-13.432-34.629-.913-61.606.561-36.379,9.562-61.732-3.378" transform="translate(-1.837 -55.821)" fill="#783421" fill-rule="evenodd"/>
    <path id="Trazado_704776" data-name="Trazado 704776" d="M570.6,746.445a123.36,123.36,0,0,0,.174-12.729c-.226.1-.441.2-.643.31-6.139,3.314-16.882,19.707-16.882,19.707Zm-112.876,8.508c1.53,2.187,2.475,4.293,2.475,8.818,0,9.028,11.586,19.861,21.968,18.507s17.9-1.655,25.578,2.708,12.789,1.5,23.472-.9,14.595,1.5,18.958-3.46,3.762-8.727,7.523-11.887c.766-.644,1.436-1.162,2.031-1.634-7.459-1.527-16.341-3.692-21.946-1.593-10.954,4.1-16.13,8.084-37.824,2.857S488.232,751.5,487.5,749.01s-8.845-3.289-20.807.547A22.76,22.76,0,0,0,457.721,754.954Z" transform="translate(-24.874 -188.588)" fill="#5c271d" fill-rule="evenodd"/>
    <path id="Trazado_704777" data-name="Trazado 704777" d="M724.96,586.38s-1.542,5.611-.328,8.52,4.627,3.728,6.32,7.428-.9,5.818-3.893,6.242-8.577-.847-10.1-.932-3.47.452-2.342,2.09,4.339,3.177,11.06,2.768,9.19-1.671,10.552-4.717,1.364-6.175-.818-8.276-4.619-2.948-5.512-4.694-.258-7.606-.258-7.606Z" transform="translate(-214.059 -79.943)" fill="#ae1d22" fill-rule="evenodd"/>
    <path id="Trazado_704778" data-name="Trazado 704778" d="M752.722,586.38s-1.542,5.611-.328,8.52,4.627,3.728,6.32,7.428a6.608,6.608,0,0,1,.326.859,2.994,2.994,0,0,0,.412-1.253c.212-2.877-3.489-4.854-5.632-7.843-1.408-1.964-1.185-5.486-.866-7.671Z" transform="translate(-241.82 -79.943)" fill="#85191e" fill-rule="evenodd"/>
    <path id="Trazado_704779" data-name="Trazado 704779" d="M714.438,651.292a2.006,2.006,0,0,0,.295.6c1.129,1.638,4.339,3.177,11.06,2.768s9.19-1.671,10.552-4.717a8.125,8.125,0,0,0,.482-6.385c.33,3.918.176,7.812-9.753,9.4a21.378,21.378,0,0,1-12.636-1.665" transform="translate(-214.175 -122.104)" fill="#85191e" fill-rule="evenodd"/>
    <path id="Trazado_704780" data-name="Trazado 704780" d="M513.744,812.943c-.012,0-4.13,1.1-4.65,3.642a11.565,11.565,0,0,0-.115,2.868c.084,1.88.16,3.577-1.516,5.084a22.9,22.9,0,0,1-2.643,1.977c-.374.251-.714.478-.978.677-.344.258-.6.359-.583.386l-1.038.779c-.606-.808-.142-1.464.842-2.2.3-.228.651-.461,1.034-.718a21.738,21.738,0,0,0,2.5-1.864c1.22-1.1,1.158-2.5,1.088-4.062a12.565,12.565,0,0,1,.141-3.183c.683-3.329,5.567-4.63,5.581-4.634Z" transform="translate(-57.488 -246.086)" fill="#301c19"/>
    <path id="Trazado_704781" data-name="Trazado 704781" d="M580.935,721.459c.012.011,4.156,3.842,4.79,8.281a9.7,9.7,0,0,1-.173,4,3.788,3.788,0,0,0,.478,3.235,12.819,12.819,0,0,0,1.885,2.61,6.14,6.14,0,0,1,1.953,4.273c.21,3.087-.712,4.092-1.857,5.338-.182.2-.37.4-.552.617l-.992-.84c.2-.24.4-.452.588-.658a4.792,4.792,0,0,0,1.517-4.371,5.074,5.074,0,0,0-1.627-3.5,13.931,13.931,0,0,1-2.058-2.859,4.839,4.839,0,0,1-.6-4.131,8.562,8.562,0,0,0,.153-3.531c-.569-3.987-4.377-7.507-4.388-7.518Z" transform="translate(-115.078 -179.55)" fill="#301c19"/>
    <path id="Trazado_704782" data-name="Trazado 704782" d="M427.007,580.617c1.639-9.236-.825-30-.832-30.057l-.141-1.206,1.082.553c17.974,9.174,27.865,7.667,41.858,5.535a192.346,192.346,0,0,1,19.546-2.225c14.714-.8,30.767-1.423,42.852-1.533,10.15-.092,17.545.192,19.1,1.051,2.6,1.438,1.359,4.131-.379,7.89a44.253,44.253,0,0,0-2.506,6.293c-.885,3.062-.271,6.735.3,10.138.67,4.009,1.281,7.664-.565,9.95-.966,1.2-.876,5.685-.768,11.048a98.424,98.424,0,0,1-.439,14.813c-.483,3.458-2.484,5.957-4.044,7.9a9.271,9.271,0,0,0-1.7,2.561c-1.5,5.485-2.792,6.5-5.464,8.611-.48.378-1.009.8-1.665,1.347a12.652,12.652,0,0,0-3.414,5.157,23.374,23.374,0,0,1-4.038,6.658c-2.715,3.09-5.2,3-8.974,2.87h0a37.111,37.111,0,0,0-10.33.8c-2.066.465-3.921.947-5.627,1.391-7.272,1.889-11.9,3.09-18.308-.556a26.342,26.342,0,0,0-11.5-3.414,68.914,68.914,0,0,0-13.675.785,14.533,14.533,0,0,1-1.883.123c-4.825,0-9.731-2.317-13.561-5.685s-6.6-7.808-7.155-12.049a11.96,11.96,0,0,1-.1-1.539c0-5.361-1.384-7.194-3.5-10a42.426,42.426,0,0,1-4.858-7.775c-3.88-8.01-2.1-16.225-.393-24.091.391-1.8.778-3.587,1.089-5.342m.594-29.011c.5,4.576,2.123,21.15.689,29.235-.315,1.775-.705,3.575-1.1,5.393-1.66,7.653-3.393,15.647.291,23.252a41.331,41.331,0,0,0,4.726,7.556c2.278,3.016,3.766,4.987,3.766,10.782a10.621,10.621,0,0,0,.089,1.371c.512,3.922,3.118,8.066,6.727,11.24s8.208,5.359,12.7,5.359a13.244,13.244,0,0,0,1.715-.108,70.056,70.056,0,0,1,13.934-.795,27.6,27.6,0,0,1,12.048,3.582c5.957,3.387,10.381,2.238,17.342.43,1.719-.447,3.589-.933,5.667-1.4a38.231,38.231,0,0,1,10.658-.827h0c3.4.12,5.644.2,7.951-2.427a22.3,22.3,0,0,0,3.824-6.328,13.689,13.689,0,0,1,3.77-5.63c.582-.489,1.166-.95,1.7-1.367,2.447-1.93,3.628-2.862,5.017-7.934a9.743,9.743,0,0,1,1.941-3.034c1.461-1.823,3.336-4.164,3.769-7.267a97.337,97.337,0,0,0,.429-14.609c-.113-5.621-.208-10.327,1.052-11.888,1.48-1.833.915-5.214.3-8.922-.592-3.54-1.23-7.362-.262-10.713a45.153,45.153,0,0,1,2.572-6.476c1.442-3.119,2.475-5.354.933-6.206-1.348-.744-8.521-.984-18.465-.893-12.039.109-28.075.729-42.8,1.533a191.592,191.592,0,0,0-19.419,2.215C455.214,558.855,445.269,560.368,427.6,551.607Z" transform="translate(0 -52.641)" fill="#301c19"/>
    <path id="Trazado_704783" data-name="Trazado 704783" d="M434.773,525.7s13.316,15.2,28.738,16.626,31.973-13.015,42.279-12.263,9.253,6.169,22.72,4.514,18.206-4.514,22.494-4.74,6.094.677,6.771-.451.677-3.536-.451-4.439-2.708-2.708-17.228-3.084-16.325,1.279-24.074-1.2-15.873-5.718-21.064-4.74-21.817,13.316-32.65,14.143-16.852-2.257-20.613-4.138-6.771-2.257-6.921-.226" transform="translate(-7.952 -27.856)" fill="#b45428" fill-rule="evenodd"/>
    <path id="Trazado_704784" data-name="Trazado 704784" d="M461.574,541.153c-15.682-1.453-29.127-16.8-29.166-16.842l-.183-.206.02-.269a2.2,2.2,0,0,1,.22-.83,1.919,1.919,0,0,1,1.107-.956,3.72,3.72,0,0,1,1.543-.166,14.493,14.493,0,0,1,4.99,1.644l.133.066a34.7,34.7,0,0,0,20.142,4c6.608-.5,15.531-5.446,22.554-9.334,4.338-2.4,7.965-4.411,10.025-4.8,4.511-.85,11,1.314,17.6,3.515,1.23.41,2.463.822,3.784,1.245,4.815,1.542,7.3,1.451,12.137,1.273,2.825-.1,6.437-.237,11.754-.1,14.128.366,16.277,2.128,17.478,3.113l.139.114a3.5,3.5,0,0,1,1.13,2.408,4.957,4.957,0,0,1-.526,2.87c-.612,1.021-1.565.956-3.338.835a30.815,30.815,0,0,0-3.957-.068,27.358,27.358,0,0,0-5.794,1.28,97.559,97.559,0,0,1-16.654,3.457c-8.015.985-11.022-.482-14.208-2.036a20.8,20.8,0,0,0-8.636-2.475c-4.427-.323-10.182,2.322-16.517,5.233-8.065,3.706-17.049,7.836-25.776,7.027m-27.987-17.472c1.72,1.886,14.026,14.875,28.1,16.18,8.383.777,17.2-3.276,25.119-6.915,6.5-2.985,12.4-5.7,17.148-5.35a21.91,21.91,0,0,1,9.114,2.6c3.008,1.468,5.847,2.852,13.481,1.914a96.415,96.415,0,0,0,16.456-3.416,28.026,28.026,0,0,1,6.084-1.326,31.8,31.8,0,0,1,4.109.068c1.259.086,1.936.132,2.137-.2a3.617,3.617,0,0,0,.348-2.076,2.247,2.247,0,0,0-.647-1.523l-.155-.125c-1.077-.883-3-2.463-16.684-2.818-5.272-.137-8.866,0-11.677.1-4.985.184-7.548.278-12.58-1.334-1.195-.383-2.5-.817-3.795-1.25-6.439-2.147-12.766-4.258-16.952-3.469-1.856.35-5.4,2.311-9.634,4.656-7.135,3.951-16.2,8.971-23.088,9.5-10.881.831-16.986-2.222-20.819-4.14l-.133-.066a13.232,13.232,0,0,0-4.5-1.507,2.494,2.494,0,0,0-1.008.09.663.663,0,0,0-.39.315A.646.646,0,0,0,433.588,523.681Z" transform="translate(-6.074 -26.035)" fill="#301c19"/>
    <path id="Trazado_704785" data-name="Trazado 704785" d="M527.263,522.04s-1.232-10.9-1.373-13.5.044-8.4-.281-8.636-4.19-2.754-3.851-3.291,1.524-.424,1.679-.466-.973-2.768.028-3.361.8-.777.705-1.144-1.507-4.745-2.976-6.115-3.414-1.921-2.962-2.57,2.285-.254,2.426-.254.339-2.74.9-2.542,1.354,1.581,1.354,1.581,2.539-1.723,2.962-.819-.863,2.5-1.58,3.841,1.184,5.977,1.721,7.541.474,2.731.7,3.23,1.078,9.662,1.1,9.96,4.176-6.016,5.078-7.23a5.4,5.4,0,0,0,1.185-5.253c-.734-2.54-2.934-4.279-3.964-5.9s-1.439-2.514-.381-2.147,2.116,2.175,2.61,1.864.353-4.166.917-4,.987,3.488.987,3.587,2.356-.763,2.6.254-.959,1.469-1.03,2.231.72,4.138-.042,6.708-5,9.2-5.4,10.586a82.405,82.405,0,0,0-.887,12.659,12.06,12.06,0,0,1-.039,3.246Z" transform="translate(-69.445 -1.61)" fill="#80af16" fill-rule="evenodd"/>
    <path id="Trazado_704786" data-name="Trazado 704786" d="M735.49,528.5c-.048-.1,4.268-4.512,6.122-5.169s2.891.071,3.935-.325,1.889-.459,2.115-.117,5.071,7.665,5.333,8.138-3.854,1.206-4.545,1.226-1.464-1.226-2.734-.972-2.091,1.195-2.809.781-.464-.894-1.4-1.2a5.589,5.589,0,0,1-2.229-.875c-.705-.593-1.684-1.613-2.394-1.569l-1.4.086" transform="translate(-229.699 -32.965)" fill="#783421" fill-rule="evenodd"/>
    <path id="Trazado_704787" data-name="Trazado 704787" d="M535.091,639.922s-8.2-1.73-10.833,3.16,3.009,49.878,6.7,51.533,12.714-45.815,10.833-50.179-6.7-4.514-6.7-4.514" transform="translate(-73.438 -119.205)" fill="#e85513" fill-rule="evenodd"/>
    <path id="Trazado_704788" data-name="Trazado 704788" d="M572.316,667.461c1.071,1.241,3.1-.846,2.82-1.692-.684-2.053-4.563-.326-2.82,1.692" transform="translate(-109.047 -137.803)" fill="#feaa0f" fill-rule="evenodd"/>
    <path id="Trazado_704789" data-name="Trazado 704789" d="M565.573,686.544c-.814,2.466-.508,10.209.339,10.66s4.4-9.87,4-11.224c-.42-1.439-3.865-.882-4.343.564" transform="translate(-104.052 -152.769)" fill="#feaa0f" fill-rule="evenodd"/>
    <path id="Trazado_704790" data-name="Trazado 704790" d="M534.246,639.784c-2.161-.288-7.872-.634-9.988,3.3-2.632,4.888,3.006,49.851,6.692,51.531-.609-5.457-4.571-41.885-2.589-48.456a9.746,9.746,0,0,1,5.885-6.372" transform="translate(-73.438 -119.205)" fill="#cc2f18" fill-rule="evenodd"/>
    <path id="Trazado_704791" data-name="Trazado 704791" d="M521.911,640.96c2.742-5.093,10.783-3.636,11.485-3.5.555.032,5.288.435,7.214,4.9,1.2,2.779-1.73,21.831-5.052,35.749-.978,4.1-1.99,7.763-2.94,10.45-1.016,2.875-2.046,4.7-3.014,4.9a1.1,1.1,0,0,1-.69-.075c-.036-.016-.065-.03-.086-.042-2.026-1.091-4.437-12.775-5.989-24.861-1.542-12.007-2.293-24.5-1.012-27.356.03-.068.059-.127.085-.175m11.276-2.216c-.022,0-7.729-1.629-10.131,2.831-.018.034-.033.063-.044.088-1.183,2.635-.4,14.845,1.114,26.664,1.494,11.634,3.648,22.8,5.273,23.851.463-.2,1.161-1.7,1.993-4.047.931-2.632,1.929-6.253,2.9-10.318,3.276-13.728,6.23-32.368,5.123-34.935-1.717-3.984-6.11-4.122-6.123-4.122Z" transform="translate(-71.665 -117.392)" fill="#301c19"/>
    <path id="Trazado_704792" data-name="Trazado 704792" d="M533.141,670.009c.365-.036.733-.083,1.1-.146s.718-.134,1.045-.218l.321,1.257c-.384.1-.769.179-1.152.244s-.781.116-1.194.156Zm-9.784-.752a38.774,38.774,0,0,0,7.723.851v1.3a40.225,40.225,0,0,1-8.008-.881Z" transform="translate(-73.063 -141.056)" fill="#301c19"/>
    <path id="Trazado_704793" data-name="Trazado 704793" d="M533.577,693.2c.4-.024.782-.06,1.138-.108a9.1,9.1,0,0,0,.984-.185l.316,1.262a10.535,10.535,0,0,1-1.127.21c-.4.054-.809.092-1.235.118Zm-9.611-.682a60.1,60.1,0,0,0,7.221.712l-.03,1.3a61.586,61.586,0,0,1-7.4-.727Z" transform="translate(-73.565 -158.209)" fill="#301c19"/>
    <path id="Trazado_704794" data-name="Trazado 704794" d="M534.482,720.778q.456-.074.939-.187c.307-.073.6-.155.87-.247l.417,1.231c-.323.11-.653.2-.987.283s-.667.143-1.035.2Zm-8.288-.1a34.3,34.3,0,0,0,6.509.292l.081,1.3a35.729,35.729,0,0,1-6.784-.3Z" transform="translate(-75.222 -178.727)" fill="#301c19"/>
    <path id="Trazado_704795" data-name="Trazado 704795" d="M535.286,747.437c.279-.05.575-.114.887-.192.3-.075.59-.16.879-.259l.417,1.231q-.491.167-.981.289c-.309.078-.635.147-.973.207Zm-6.244-.085a18.039,18.039,0,0,0,5.2.232l.132,1.292a19.456,19.456,0,0,1-5.6-.252Z" transform="translate(-77.263 -198.373)" fill="#301c19"/>
    <path id="Trazado_704796" data-name="Trazado 704796" d="M531.989,768.55a19.683,19.683,0,0,0,7.1-.374l.4,1.236c-3.147,1.023-7.652.427-7.665.425Z" transform="translate(-79.518 -213.998)" fill="#301c19"/>
    <path id="Trazado_704797" data-name="Trazado 704797" d="M535.59,792.3a9.52,9.52,0,0,0,5.175-.267l.5,1.2a10.924,10.924,0,0,1-5.979.338Z" transform="translate(-82.073 -231.589)" fill="#301c19"/>
    <path id="Trazado_704798" data-name="Trazado 704798" d="M585.307,789.333s-1.242.639-2.8,3.762a5.467,5.467,0,0,1-3.177,3.016c-.4.166-.693.289-.752.582l-1.277-.254c.194-.972.764-1.21,1.53-1.529a4.331,4.331,0,0,0,2.516-2.4c1.749-3.5,3.343-4.324,3.348-4.326Z" transform="translate(-113.049 -228.755)" fill="#301c19"/>
    <path id="Trazado_704799" data-name="Trazado 704799" d="M524.29,851.734s1.27.952.927,3.951c-.088.769-.18,1.422-.256,1.961a4.738,4.738,0,0,0-.112,1.889l-1.16.58c-.3-.605-.208-1.278-.016-2.647.072-.51.159-1.131.25-1.93.259-2.266-.427-2.775-.429-2.776Z" transform="translate(-73.376 -275.614)" fill="#301c19"/>
    <path id="Trazado_704800" data-name="Trazado 704800" d="M499.663,710.081c-.008,0-2.813.922-3.287,2.727-.175.668-.294,1.346-.409,2.01a11.253,11.253,0,0,1-1.32,4.188,4.755,4.755,0,0,1-1.974,1.792,2.067,2.067,0,0,0-1.159,1.2l-1.236-.4a3.115,3.115,0,0,1,1.755-1.924,3.66,3.66,0,0,0,1.506-1.339,10.267,10.267,0,0,0,1.147-3.73c.119-.686.242-1.387.435-2.122.654-2.488,4.127-3.624,4.137-3.627Z" transform="translate(-48.881 -170.252)" fill="#301c19"/>
    <path id="Trazado_704801" data-name="Trazado 704801" d="M500.392,741.486a12.942,12.942,0,0,1-.34,4.665,6.458,6.458,0,0,1-1.2,2.045c-.219.271-.382.473-.382.6h-1.3a2.156,2.156,0,0,1,.672-1.415,5.325,5.325,0,0,0,.984-1.663,11.565,11.565,0,0,0,.274-4.1Z" transform="translate(-53.963 -194.317)" fill="#301c19"/>
    <path id="Trazado_704802" data-name="Trazado 704802" d="M534.148,527.16c0-.018-.412-6.233-1.212-8.562-.784-2.284-.162-9.873.032-12.244.024-.3.043-.523.047-.589a12.669,12.669,0,0,0-1.5-.835c-1.515-.8-3.277-1.72-3.127-3.25a1.278,1.278,0,0,1,1.589-1.287,2.862,2.862,0,0,1,.409.073c-.038-.051-.075-.1-.112-.155-.763-1.085-1.168-2.235-.109-2.98,1.9-1.339,3.591,1.12,3.657,1.219a12.625,12.625,0,0,1,2.143,5.932,34.945,34.945,0,0,1,.079,4.173,31.827,31.827,0,0,1,2.492-3.784c.584-.717,1-1.162,1.319-1.5.716-.766.894-.956,1.417-2.854.632-2.289-.982-4.419-1.939-5.682-.095-.124-.182-.24-.291-.389a6.489,6.489,0,0,0-1.328-1.127c-1.345-.97-2.686-1.938-1.7-3.419.636-.955,1.455-.814,2.275-.268a8.952,8.952,0,0,1,1.307,1.16c.247.25-.071.689.189.571.178-.081-.178-.534-.178-1.209,0-1.374,0-2.9.917-3.092a1.072,1.072,0,0,1,.479.009,1.694,1.694,0,0,1,.976.795,3.893,3.893,0,0,1,.489,1.255,4.436,4.436,0,0,1,.062,1.481,1.548,1.548,0,0,1,1.926.182c1.1.779.974,1.493.464,2.21a5.632,5.632,0,0,1-.53.609,2.7,2.7,0,0,0-.565.72,4.032,4.032,0,0,0,.2,1.618,10.074,10.074,0,0,1,.319,3.869,15.2,15.2,0,0,1-1.691,4.379,45.936,45.936,0,0,1-3.582,5.587c-2.266,3.048-1.446,17.329-1.444,17.37l-1.3.071c0-.043-.851-14.785,1.7-18.215a44.658,44.658,0,0,0,3.48-5.424,14.01,14.01,0,0,0,1.554-3.967,9.048,9.048,0,0,0-.3-3.385,4.368,4.368,0,0,1-.154-2.351,3.549,3.549,0,0,1,.85-1.173,4.7,4.7,0,0,0,.408-.462c.077-.109.079-.229-.159-.4-.442-.314-.788.2-1,.526-.365.544-.632.943-1.257.552a.518.518,0,0,0-.051-.03.684.684,0,0,1-.489-.795,6.85,6.85,0,0,1,.239-1.175l.052-.212a3.029,3.029,0,0,0,0-1.323,2.566,2.566,0,0,0-.316-.828,1.585,1.585,0,0,0-.121-.172c-.032.209.146,1.006.145,1.768,0,1.111,0,2.126-.58,2.39s-1.054-.233-1.654-.841a7.988,7.988,0,0,0-1.1-.987c-.211-.141-.4-.215-.474-.1-.3.444.538,1.045,1.374,1.648a7.29,7.29,0,0,1,1.617,1.413c.063.086.168.225.281.373,1.1,1.452,2.957,3.9,2.153,6.811-.609,2.207-.83,2.443-1.718,3.393-.313.335-.719.77-1.263,1.438a31.569,31.569,0,0,0-2.439,3.72c-.712,1.208-1.235,2.1-1.791,2.067-.48-.026-.719-.325-.685-.958.016-.289.03-.507.045-.734a33.176,33.176,0,0,0-.008-5.213,11.193,11.193,0,0,0-1.909-5.275l-.013-.018s-.988-1.481-1.833-.887c-.212.149.058.648.425,1.169a15.221,15.221,0,0,0,1.115,1.344,3.113,3.113,0,0,1,.707.965.6.6,0,0,1-.472.84c-.312.085-.65-.091-1.106-.33a5.986,5.986,0,0,0-1.726-.7c-.093-.009-.164.017-.174.117-.065.666,1.279,1.372,2.435,1.978,1.2.63,2.255,1.183,2.194,2.071-.011.165-.026.351-.047.6-.189,2.307-.795,9.693-.1,11.72.855,2.491,1.277,8.88,1.278,8.9Z" transform="translate(-76.98 -6.688)" fill="#301c19"/>
    <path id="Trazado_704803" data-name="Trazado 704803" d="M524.072,494.024a55.164,55.164,0,0,0-1.538-7.109c-.206-.569-.413-1.064-.589-1.484-.562-1.342-.856-2.046-.222-2.892a8.515,8.515,0,0,1,.616-.7c.578-.612,1.31-1.387,1.218-1.977a.223.223,0,0,0-.033-.106.3.3,0,0,0-.057,0,.924.924,0,0,0-.382.119,2.332,2.332,0,0,0-.945.982c-.4.755-.778.919-1.241.676-.331-.174-.415-.485-.528-.9-.119-.442-.305-1.131-.8-1.312-.041-.015-.026-.1-.037-.07a5.005,5.005,0,0,0,.205,2.016l.009.034a.613.613,0,0,1-.5.85h0a1.562,1.562,0,0,1-1.027-.288,7.049,7.049,0,0,0-1-.442c-.23-.072-.434-.113-.46-.03-.226.716,1.56,1.5,2.378,1.858.136.06.252.11.326.146.523.248,1.692,2.045,2.5,3.891a8.481,8.481,0,0,1,.928,3.782l-1.287-.163a7.463,7.463,0,0,0-.831-3.1,11.283,11.283,0,0,0-1.862-3.234c-.085-.04-.18-.082-.29-.13-1.155-.506-3.677-1.612-3.1-3.44.336-1.064,1.194-1.1,2.093-.819a5.548,5.548,0,0,1,.629.247,3.659,3.659,0,0,1,.066-1.625,1.154,1.154,0,0,1,1.705-.7,2.365,2.365,0,0,1,1.4,1.509,3.492,3.492,0,0,1,1.073-.888,2.2,2.2,0,0,1,.957-.262,1.332,1.332,0,0,1,.983.368,1.448,1.448,0,0,1,.409.838c.19,1.219-.785,2.251-1.554,3.066-.215.227-.41.434-.524.586-.186.249.01.719.385,1.615.176.42.384.916.609,1.54a56.365,56.365,0,0,1,1.6,7.353Z" transform="translate(-67.437 0)" fill="#301c19"/>
    <path id="Trazado_704804" data-name="Trazado 704804" d="M733.973,526.749c.009-.015,2.935-5.055,5.449-6a3.911,3.911,0,0,1,2.925-.16,1.915,1.915,0,0,0,1.161.064,2.122,2.122,0,0,0,.891-.44c.5-.4.715-.575,1.786-.039.246.123.439.2.6.271.734.31.87.368,1.768,1.766.33.514.589.972.829,1.395a9.52,9.52,0,0,0,1.643,2.3,7.252,7.252,0,0,1,1.758,3.386l-1.277.244a5.826,5.826,0,0,0-1.4-2.715,10.553,10.553,0,0,1-1.851-2.577c-.227-.4-.472-.833-.793-1.333-.682-1.063-.76-1.1-1.177-1.272-.172-.073-.384-.162-.672-.306-.325-.163-.345-.146-.392-.109a3.288,3.288,0,0,1-1.369.684,3,3,0,0,1-1.858-.074,2.809,2.809,0,0,0-2.106.129c-2.075.783-4.775,5.431-4.783,5.444Z" transform="translate(-228.58 -30.872)" fill="#301c19"/>
    <path id="Trazado_704805" data-name="Trazado 704805" d="M650.035,541.963c-.169.094-3.63,2.73-2.088,3.483s3.893-1.243,3.912-2.485a1.146,1.146,0,0,0-1.824-1" transform="translate(-164.854 -47.041)" fill="#783421" fill-rule="evenodd"/>
    <path id="Trazado_704806" data-name="Trazado 704806" d="M646.021,541.21a12.809,12.809,0,0,1,1.815-1.607h0a1.951,1.951,0,0,1,1.094-.312,1.877,1.877,0,0,1,.776.175,1.629,1.629,0,0,1,.663.571,1.907,1.907,0,0,1,.3,1.111,2.171,2.171,0,0,1-.236.913,4.571,4.571,0,0,1-1.454,1.625,3.793,3.793,0,0,1-2.162.754,2.322,2.322,0,0,1-.994-.229,1.434,1.434,0,0,1-.474-.36,1.334,1.334,0,0,1-.127-1.488,4.519,4.519,0,0,1,.8-1.151m2.491-.5a10.618,10.618,0,0,0-1.529,1.372,3.286,3.286,0,0,0-.569.8c-.037.086-.079.121-.071.129a.228.228,0,0,0,.051.03,1.029,1.029,0,0,0,.439.1,2.516,2.516,0,0,0,1.4-.52,3.23,3.23,0,0,0,1.031-1.131.915.915,0,0,0,.109-.358.65.65,0,0,0-.083-.373.337.337,0,0,0-.139-.118.571.571,0,0,0-.236-.053.637.637,0,0,0-.356.093Z" transform="translate(-163.015 -45.219)" fill="#301c19"/>
    <path id="Trazado_704807" data-name="Trazado 704807" d="M684.339,546.659c3.536,1.5,7.824-.451,8.125-2.031.786-4.126-13.182-.121-8.125,2.031" transform="translate(-191.165 -47.835)" fill="#783421" fill-rule="evenodd"/>
    <path id="Trazado_704808" data-name="Trazado 704808" d="M683.708,545.889a7.317,7.317,0,0,1-1.495-.452c-1.408-.6-1.744-1.4-1.384-2.244.381-.894,1.851-1.726,3.554-2.242a11.16,11.16,0,0,1,4.841-.48c1.4.267,2.281,1.018,2.007,2.457a1.812,1.812,0,0,1-.114.372,4.856,4.856,0,0,1-2.8,2.169,8.763,8.763,0,0,1-4.609.421m-.985-1.647a5.981,5.981,0,0,0,1.225.37,7.446,7.446,0,0,0,3.917-.36,3.647,3.647,0,0,0,2.057-1.461.5.5,0,0,0,.033-.1c.1-.524-.318-.816-.97-.94a9.837,9.837,0,0,0-4.225.445c-1.371.415-2.513.987-2.735,1.509C681.973,543.826,682.165,544,682.723,544.242Z" transform="translate(-189.294 -46.015)" fill="#301c19"/>
    <path id="Trazado_704809" data-name="Trazado 704809" d="M605.569,574.893c1.655,1.354,4.815-.828,5.116-1.881.471-1.647-7.3.094-5.116,1.881" transform="translate(-133.61 -69.6)" fill="#783421" fill-rule="evenodd"/>
    <path id="Trazado_704810" data-name="Trazado 704810" d="M604.13,574.052a2.485,2.485,0,0,1-.9-.469,1.3,1.3,0,0,1-.282-2.052,5.354,5.354,0,0,1,2.648-1.361,6.359,6.359,0,0,1,2.905-.174c.722.206,1.092.648.882,1.382a2.208,2.208,0,0,1-.429.761,6.2,6.2,0,0,1-2.049,1.531,4.059,4.059,0,0,1-2.774.384m-.076-1.476a1.2,1.2,0,0,0,.432.225,2.809,2.809,0,0,0,1.864-.308,4.83,4.83,0,0,0,1.6-1.18c.027-.033.052-.065.074-.1a5.653,5.653,0,0,0-2.1.208,4.175,4.175,0,0,0-1.961.929C603.914,572.4,603.935,572.477,604.054,572.575Z" transform="translate(-131.683 -67.785)" fill="#301c19"/>
    <path id="Trazado_704811" data-name="Trazado 704811" d="M728.622,545.309a3.682,3.682,0,0,1,3.959-1.973,4.349,4.349,0,0,1,2.728,1.486c.166.178.3.322.4.343a.38.38,0,0,0,.29-.107,2.051,2.051,0,0,1,1.7-.409l-.173,1.287a.942.942,0,0,0-.782.185,1.422,1.422,0,0,1-1.293.316,1.94,1.94,0,0,1-1.1-.73,3.208,3.208,0,0,0-2.016-1.094,2.367,2.367,0,0,0-2.549,1.266Z" transform="translate(-224.635 -48.149)" fill="#301c19"/>
    <path id="Trazado_704812" data-name="Trazado 704812" d="M765.059,554.641a3.548,3.548,0,0,1,3.441-1.748,3.4,3.4,0,0,1,2.338.768.965.965,0,0,0,.891.237,5.961,5.961,0,0,0,1.533-.56,4.79,4.79,0,0,1,2.788-.65,5.237,5.237,0,0,1,2.555.82l-.819,1.008a3.968,3.968,0,0,0-1.884-.535,3.772,3.772,0,0,0-2.086.533,6.994,6.994,0,0,1-1.869.667,2.033,2.033,0,0,1-1.893-.482,2.281,2.281,0,0,0-1.574-.509c-1.774-.03-2.239,1-2.24,1Z" transform="translate(-251.503 -55.08)" fill="#301c19"/>
    <path id="Trazado_704813" data-name="Trazado 704813" d="M825.314,518.641c-.008-.014-2.944-4.776-1.652-6.451a1.134,1.134,0,0,1,1.808-.221,6.413,6.413,0,0,1,1.272,1.652,1.423,1.423,0,0,1,.108.212c.193-1.138.453-2.629,1.843-2.867a1.889,1.889,0,0,1,.879.048,1.838,1.838,0,0,1,1.022.806,3.182,3.182,0,0,1,.424,1.168,4.711,4.711,0,0,1,.058,1,1.775,1.775,0,0,1,1.849.129,1.967,1.967,0,0,1,.536.525,2.419,2.419,0,0,1,.293,1.88,4.822,4.822,0,0,1-.709,1.663,3.381,3.381,0,0,1-.833.9l-.733-1.074a2.09,2.09,0,0,0,.487-.546,3.471,3.471,0,0,0,.516-1.2,1.185,1.185,0,0,0-.095-.893.678.678,0,0,0-.185-.179c-.391-.261-.943.185-1.25.433s-.539.435-.918.32c-.474-.144-.607-.493-.386-1.217a3.473,3.473,0,0,0,.087-1.526,1.9,1.9,0,0,0-.241-.689.577.577,0,0,0-.3-.262.617.617,0,0,0-.284-.007c-.489.084-.657,1.071-.783,1.818-.153.9-.274,1.619-1.056,1.619-.58,0-.979-.645-1.434-1.383a5.821,5.821,0,0,0-.959-1.3c-.7.987,1.737,4.954,1.744,4.965Z" transform="translate(-294.474 -24.311)" fill="#301c19"/>
    <path id="Trazado_704814" data-name="Trazado 704814" d="M755.186,490.28l.064.268a5.2,5.2,0,0,0-.514.154,4.125,4.125,0,0,0-.734.368q-.06-.35-.118-.708v0c-.184-1.133-1.537-9.486.573-11.32a2.488,2.488,0,0,1,1.282-.6,2.938,2.938,0,0,1,2.249.694,6.353,6.353,0,0,1,1.792,2.505,18.371,18.371,0,0,1,1.007,8.62c-.163-.247-.647-.283-1.295-.136a17.1,17.1,0,0,0-.9-7.97,5.073,5.073,0,0,0-1.405-2,1.685,1.685,0,0,0-1.262-.429,1.2,1.2,0,0,0-.616.293c-1.561,1.357-.312,9.074-.14,10.131h0Z" transform="translate(-242.822 -0.331)" fill="#301c19"/>
    <path id="Trazado_704815" data-name="Trazado 704815" d="M756.609,509.769c.012,0,3.932.191,5.533-.585l.565,1.17c-1.9.919-6.141.712-6.153.712Z" transform="translate(-245.231 -23.019)" fill="#301c19"/>
    <path id="Trazado_704816" data-name="Trazado 704816" d="M755.635,497.045a2.163,2.163,0,0,1,.609-.036h0a15.936,15.936,0,0,0,5.024-.518l.5,1.2a16.869,16.869,0,0,1-5.538.615h0c-.163,0-.1-.058-.184-.031Z" transform="translate(-244.554 -13.66)" fill="#301c19"/>
    <path id="Trazado_704817" data-name="Trazado 704817" d="M723.722,587.69c-.005.017-1.917,5.967.234,8.319.433.474,1.015,1.028,1.636,1.618,2.807,2.669,6.366,6.053,3.9,9.433a8.083,8.083,0,0,1-4.614,3.271,9.318,9.318,0,0,1-5.867-.647,11.2,11.2,0,0,0-4.008-.91,3.9,3.9,0,0,0-1.511.221c-.259.109-.426.254-.463.436a.774.774,0,0,0,.019.33c.205.85,1.065,1.52,2.531,2.009a24.2,24.2,0,0,0,7,.881,19.568,19.568,0,0,0,7.948-1.3,5.587,5.587,0,0,0,3.453-3.56,10.449,10.449,0,0,0,.277-4.841,6.127,6.127,0,0,0-2.3-3.588c-.629-.493-1.221-.928-1.743-1.31-1.765-1.3-2.767-2.031-3.291-3.667-.658-2.055.511-6.871.514-6.884l1.262.305c0,.013-1.085,4.476-.539,6.182.395,1.234,1.274,1.879,2.822,3.015.508.372,1.083.795,1.774,1.336a7.388,7.388,0,0,1,2.773,4.33,11.7,11.7,0,0,1-.287,5.447,6.818,6.818,0,0,1-4.186,4.419,20.828,20.828,0,0,1-8.487,1.408,25.393,25.393,0,0,1-7.394-.947c-1.918-.639-3.068-1.617-3.385-2.935a2.045,2.045,0,0,1-.029-.9,1.9,1.9,0,0,1,1.231-1.372,5.146,5.146,0,0,1,2.03-.323,12.534,12.534,0,0,1,4.5,1.012,8.051,8.051,0,0,0,5.053.581,6.817,6.817,0,0,0,3.876-2.772c1.793-2.458-1.305-5.4-3.749-7.728-.624-.593-1.208-1.149-1.7-1.684-2.664-2.914-.525-9.567-.519-9.586Z" transform="translate(-212.173 -80.62)" fill="#301c19"/>
    <path id="Trazado_704818" data-name="Trazado 704818" d="M752.219,599.325c.013,0,4.659.254,5.447,1.08l-.941.9c-.425-.446-4.565-.678-4.577-.678Z" transform="translate(-241.982 -89.489)" fill="#301c19"/>
    <path id="Trazado_704819" data-name="Trazado 704819" d="M758.3,617.072c.007-.006,2.516-2.223,3.944-2.389l.148,1.292c-1.022.119-3.23,2.068-3.237,2.073Z" transform="translate(-246.52 -100.814)" fill="#301c19"/>
    <path id="Trazado_704820" data-name="Trazado 704820" d="M771.009,628.827c.007-.008,2.365-2.7,3.961-2.921l.178,1.287c-1.111.154-3.156,2.487-3.162,2.494Z" transform="translate(-255.89 -109.089)" fill="#301c19"/>
    <path id="Trazado_704821" data-name="Trazado 704821" d="M779.623,649.1c.014,0,4.93-.534,6,.607l-.946.89c-.625-.666-4.911-.206-4.923-.205Z" transform="translate(-262.242 -126.097)" fill="#301c19"/>
    <path id="Trazado_704822" data-name="Trazado 704822" d="M774.435,662.138c.007.009,2.508,3.25,2.641,4.876l-1.3.1c-.1-1.244-2.365-4.176-2.371-4.184Z" transform="translate(-257.659 -135.807)" fill="#301c19"/>
    <path id="Trazado_704823" data-name="Trazado 704823" d="M757.813,672.469c0,.007.622,2.512.241,3.632l-1.231-.417a8.364,8.364,0,0,0-.272-2.9Z" transform="translate(-245.229 -143.425)" fill="#301c19"/>
    <path id="Trazado_704824" data-name="Trazado 704824" d="M741.074,671.309a15.99,15.99,0,0,1,.166,4.02L740,674.943a16.231,16.231,0,0,0-.212-3.445Z" transform="translate(-232.868 -142.569)" fill="#301c19"/>
    <path id="Trazado_704825" data-name="Trazado 704825" d="M727.16,668.147a28.5,28.5,0,0,1-.55,4.162l-1.236-.407a27.9,27.9,0,0,0,.488-3.841Z" transform="translate(-222.24 -140.174)" fill="#301c19"/>
    <path id="Trazado_704826" data-name="Trazado 704826" d="M677.891,777.263c4.138-.791,6.846,4.142,5.643,8.36s-10.382,7.8-11.323,10.883.64,7.946,3.875,7.946,12-8.021,14.069-7.946,4.514,4.406-2.295,8.436-12.6,5.143-16.476,3.389-4.552-8.662-2.859-12.541,7.712-7.042,9.555-9.415,1.317-3.577.226-3.766-2.407,1.92-3.837,2c-2.474.13-.324-6.627,3.423-7.343" transform="translate(-179.675 -220.637)" fill="#dd3236" fill-rule="evenodd"/>
    <path id="Trazado_704827" data-name="Trazado 704827" d="M679.507,795.11a1.1,1.1,0,0,0-.99-1.156c-1.091-.188-2.407,1.92-3.837,2-.778.041-1.1-.6-1.056-1.518,1.609-1.132,3.984-2.2,5.742-1.773,1.229.3,1.358,1.131.141,2.451m11.946,13.161c1.559,1.189,2.214,4.7-3.382,8.016-6.809,4.029-12.6,5.143-16.477,3.389-2.193-.992-3.362-3.637-3.656-6.448a7.56,7.56,0,0,0,.954,1.663c2.612,3.394,4.269,3.769,13.011,1.908A12.851,12.851,0,0,0,691.453,808.27Z" transform="translate(-179.887 -231.98)" fill="#ae1d22" fill-rule="evenodd"/>
    <path id="Trazado_704828" data-name="Trazado 704828" d="M677.923,776.139a3.709,3.709,0,0,0-1.729-.064c-1.7.325-3.041,2.136-3.637,3.784a5.164,5.164,0,0,0-.31,1.357,1.536,1.536,0,0,0,.1.789.264.264,0,0,0,.27.126,3.7,3.7,0,0,0,1.677-.959c.761-.606,1.472-1.172,2.3-1.029a1.951,1.951,0,0,1,.872.371,1.651,1.651,0,0,1,.564.808,2.2,2.2,0,0,1,.055,1.066,6.1,6.1,0,0,1-1.313,2.562,21.751,21.751,0,0,1-3.518,3.124c-2.3,1.8-4.965,3.882-5.956,6.151a12.281,12.281,0,0,0-.512,7.193c.462,2.028,1.455,3.776,3.043,4.5a11.064,11.064,0,0,0,6.8.418,30.3,30.3,0,0,0,9.074-3.774,8.782,8.782,0,0,0,3.88-3.809,3.121,3.121,0,0,0,.234-1.775,2.262,2.262,0,0,0-.6-1.185,1.412,1.412,0,0,0-.91-.458c-.713-.026-2.921,1.525-5.36,3.238-3.169,2.226-6.7,4.71-8.686,4.71a3.714,3.714,0,0,1-1.087-.163,4.842,4.842,0,0,1-2.785-2.561,8.826,8.826,0,0,1-.924-3.935,7.336,7.336,0,0,1,.3-2.126c.5-1.634,2.752-3.216,5.181-4.92,2.662-1.867,5.549-3.893,6.137-5.954a7.093,7.093,0,0,0,.135-3.258,6.438,6.438,0,0,0-1.188-2.722,4.143,4.143,0,0,0-2.113-1.5M675.95,774.8a4.993,4.993,0,0,1,2.329.089,5.431,5.431,0,0,1,2.784,1.957,7.737,7.737,0,0,1,1.438,3.272,8.392,8.392,0,0,1-.16,3.859c-.714,2.5-3.8,4.667-6.641,6.661-2.241,1.572-4.322,3.032-4.688,4.233a6.067,6.067,0,0,0-.238,1.749,7.5,7.5,0,0,0,.776,3.345,3.581,3.581,0,0,0,2.006,1.91,2.423,2.423,0,0,0,.71.1c1.574,0,4.93-2.358,7.938-4.471,2.626-1.845,5-3.514,6.154-3.472a2.7,2.7,0,0,1,1.785.84,3.571,3.571,0,0,1,.958,1.867,4.393,4.393,0,0,1-.31,2.508,10.009,10.009,0,0,1-4.42,4.43,31.553,31.553,0,0,1-9.477,3.927,12.309,12.309,0,0,1-7.6-.5c-2-.906-3.229-3-3.776-5.4a13.648,13.648,0,0,1,.589-8c1.121-2.568,3.929-4.764,6.347-6.655a20.983,20.983,0,0,0,3.289-2.9,4.89,4.89,0,0,0,1.058-1.982.939.939,0,0,0-.009-.445.372.372,0,0,0-.126-.182.664.664,0,0,0-.292-.117c-.259-.045-.75.346-1.275.765a4.49,4.49,0,0,1-2.42,1.239,1.477,1.477,0,0,1-1.481-.808,2.765,2.765,0,0,1-.251-1.5,6.475,6.475,0,0,1,.386-1.7C672.057,777.425,673.748,775.219,675.95,774.8Z" transform="translate(-177.857 -218.811)" fill="#301c19"/>
    <path id="Trazado_704829" data-name="Trazado 704829" d="M735.521,859.522c.01.008,3.4,2.932,3.79,5.1l-1.277.229c-.31-1.707-3.359-4.342-3.368-4.35Z" transform="translate(-229.091 -281.356)" fill="#301c19"/>
    <path id="Trazado_704830" data-name="Trazado 704830" d="M718.568,869.988a1.026,1.026,0,0,1,.153.048,1.632,1.632,0,0,1,.136-.191Zm-.065-.013.065.013.289-.143c.085-.1.164-.156.194-.1.422.856,2.1,4.264,1.968,5.533l-1.293-.132c.094-.9-1.452-4.038-1.841-4.826-.213-.432-.342-.678.079-.983.355-.323.682-.265.956.153l-.542.356Zm-.047-.008.047.008-.124-.124h0Zm-.225-.018a1.639,1.639,0,0,1,.225.018l-.077-.116Z" transform="translate(-216.571 -288.445)" fill="#301c19"/>
    <path id="Trazado_704831" data-name="Trazado 704831" d="M701.017,880.722c0,.011.643,3.917-.406,5.142l-.987-.845c.653-.763.112-4.084.111-4.094Z" transform="translate(-203.252 -296.989)" fill="#301c19"/>
    <path id="Trazado_704832" data-name="Trazado 704832" d="M678.234,875.936c-.008.008-2.706,2.932-4.437,3.211l-.2-1.282c1.279-.206,3.682-2.807,3.689-2.814Z" transform="translate(-184.057 -292.807)" fill="#301c19"/>
    <path id="Trazado_704833" data-name="Trazado 704833" d="M671.061,854.652a7.035,7.035,0,0,1-4.731-1.01l.784-1.038a5.653,5.653,0,0,0,3.759.76Z" transform="translate(-178.701 -276.255)" fill="#301c19"/>
    <path id="Trazado_704834" data-name="Trazado 704834" d="M686.266,829.234a2.544,2.544,0,0,0,2.1,1.617l-.117,1.292a3.894,3.894,0,0,1-3.207-2.477Z" transform="translate(-192.497 -259.022)" fill="#301c19"/>
    <path id="Trazado_704835" data-name="Trazado 704835" d="M704.95,812.6c0,.006,1.152,2.056,2.358,2.347l-.3,1.262c-1.766-.425-3.183-2.96-3.187-2.967Z" transform="translate(-206.346 -246.755)" fill="#301c19"/>
    <path id="Trazado_704836" data-name="Trazado 704836" d="M711.553,796.429l.192-.033c.773-.126,3.425-.558,4.01-1.17l.941.9c-.887.929-3.872,1.415-4.742,1.557l-.172.028Z" transform="translate(-212.048 -233.945)" fill="#301c19"/>
    <path id="Trazado_704837" data-name="Trazado 704837" d="M702.277,782.611a13.528,13.528,0,0,0-.156-3.169,2.1,2.1,0,0,0-.583-1.292l.687-1.1a3.183,3.183,0,0,1,1.169,2.142,15.579,15.579,0,0,1,.161,3.678Z" transform="translate(-204.663 -220.539)" fill="#301c19"/>
    <path id="Trazado_704838" data-name="Trazado 704838" d="M635.407,639.61a2.107,2.107,0,1,1-2.106,2.106,2.107,2.107,0,0,1,2.106-2.106" transform="translate(-154.345 -119.195)" fill="#5c271d" fill-rule="evenodd"/>
    <path id="Trazado_704839" data-name="Trazado 704839" d="M634.608,638.859a1.454,1.454,0,1,0,.426,1.029,1.45,1.45,0,0,0-.426-1.029m-1.029-1.729a2.758,2.758,0,1,1-1.95.808A2.75,2.75,0,0,1,633.579,637.13Z" transform="translate(-152.517 -117.366)" fill="#301c19"/>
    <path id="Trazado_704840" data-name="Trazado 704840" d="M700.695,622.421a1.5,1.5,0,1,1-1.5,1.5,1.5,1.5,0,0,1,1.5-1.5" transform="translate(-202.932 -106.52)" fill="#783421" fill-rule="evenodd"/>
    <path id="Trazado_704841" data-name="Trazado 704841" d="M699.469,621.494a.853.853,0,1,0,.25.6.851.851,0,0,0-.25-.6m-.6-1.553a2.156,2.156,0,1,1-1.524.632A2.15,2.15,0,0,1,698.866,619.941Z" transform="translate(-201.103 -104.691)" fill="#301c19"/>
    <path id="Trazado_704842" data-name="Trazado 704842" d="M729.128,718.1a3.009,3.009,0,1,1-3.009,3.009,3.01,3.01,0,0,1,3.009-3.009" transform="translate(-222.789 -177.076)" fill="#5c271d" fill-rule="evenodd"/>
    <path id="Trazado_704843" data-name="Trazado 704843" d="M728.967,717.618a2.358,2.358,0,1,0,.691,1.667,2.351,2.351,0,0,0-.691-1.667m-1.667-1.993a3.661,3.661,0,1,1-2.588,1.072A3.649,3.649,0,0,1,727.3,715.624Z" transform="translate(-220.96 -175.247)" fill="#301c19"/>
    <path id="Trazado_704844" data-name="Trazado 704844" d="M849.09,656.8a1.5,1.5,0,1,1-1.5,1.5,1.5,1.5,0,0,1,1.5-1.5" transform="translate(-312.357 -131.869)" fill="#783421" fill-rule="evenodd"/>
    <path id="Trazado_704845" data-name="Trazado 704845" d="M847.865,655.871a.854.854,0,1,0,.25.6.852.852,0,0,0-.25-.6m-.6-1.553a2.156,2.156,0,1,1-1.524.632A2.149,2.149,0,0,1,847.261,654.318Z" transform="translate(-310.528 -130.04)" fill="#301c19"/>
    <path id="Trazado_704846" data-name="Trazado 704846" d="M829.962,726.7a5.868,5.868,0,1,1-5.868,5.868,5.869,5.869,0,0,1,5.868-5.868" transform="translate(-295.035 -183.413)" fill="#5c271d" fill-rule="evenodd"/>
    <path id="Trazado_704847" data-name="Trazado 704847" d="M831.822,727.05a5.216,5.216,0,1,0,1.528,3.689,5.2,5.2,0,0,0-1.528-3.689m-3.689-2.831a6.52,6.52,0,1,1-4.609,1.91A6.5,6.5,0,0,1,828.133,724.219Z" transform="translate(-293.206 -181.585)" fill="#301c19"/>
    <path id="Trazado_704848" data-name="Trazado 704848" d="M794.341,768.524a2.332,2.332,0,1,1-2.332,2.332,2.332,2.332,0,0,1,2.332-2.332" transform="translate(-271.376 -214.255)" fill="#b45428" fill-rule="evenodd"/>
    <path id="Trazado_704849" data-name="Trazado 704849" d="M793.7,767.839a1.681,1.681,0,1,0,.492,1.189,1.676,1.676,0,0,0-.492-1.189m-1.188-1.795a2.984,2.984,0,1,1-2.109.874A2.974,2.974,0,0,1,792.513,766.044Z" transform="translate(-269.547 -212.426)" fill="#301c19"/>
    <path id="Trazado_704850" data-name="Trazado 704850" d="M785.944,712.375a1.956,1.956,0,1,1-1.956,1.956,1.956,1.956,0,0,1,1.956-1.956" transform="translate(-265.461 -172.851)" fill="#783421" fill-rule="evenodd"/>
    <path id="Trazado_704851" data-name="Trazado 704851" d="M785.037,711.58a1.3,1.3,0,1,0,.382.923,1.3,1.3,0,0,0-.382-.923m-.923-1.685a2.608,2.608,0,1,1-1.843.764A2.6,2.6,0,0,1,784.114,709.9Z" transform="translate(-263.632 -171.022)" fill="#301c19"/>
    <path id="Trazado_704852" data-name="Trazado 704852" d="M656.606,741.6A2.106,2.106,0,1,1,654.5,743.7a2.107,2.107,0,0,1,2.106-2.106" transform="translate(-169.978 -194.399)" fill="#b45428" fill-rule="evenodd"/>
    <path id="Trazado_704853" data-name="Trazado 704853" d="M655.807,740.844a1.455,1.455,0,1,0,.426,1.029,1.451,1.451,0,0,0-.426-1.029m-1.029-1.729a2.758,2.758,0,1,1-1.95.808A2.75,2.75,0,0,1,654.778,739.115Z" transform="translate(-168.149 -192.569)" fill="#301c19"/>
    <path id="Trazado_704854" data-name="Trazado 704854" d="M594.363,858.478a3.461,3.461,0,1,1-3.461,3.461,3.461,3.461,0,0,1,3.461-3.461" transform="translate(-123.081 -280.587)" fill="#5c271d" fill-rule="evenodd"/>
    <path id="Trazado_704855" data-name="Trazado 704855" d="M594.52,858.124a2.809,2.809,0,1,0,.823,1.986,2.8,2.8,0,0,0-.823-1.986M592.534,856a4.113,4.113,0,1,1-2.907,1.2A4.1,4.1,0,0,1,592.534,856Z" transform="translate(-121.252 -278.758)" fill="#301c19"/>
    <path id="Trazado_704856" data-name="Trazado 704856" d="M817.381,831.549a1.881,1.881,0,1,1-1.881,1.881,1.881,1.881,0,0,1,1.881-1.881" transform="translate(-288.698 -260.729)" fill="#783421" fill-rule="evenodd"/>
    <path id="Trazado_704857" data-name="Trazado 704857" d="M816.421,830.732a1.229,1.229,0,1,0,.36.869,1.225,1.225,0,0,0-.36-.869m-.869-1.663a2.533,2.533,0,1,1-1.79.742A2.524,2.524,0,0,1,815.552,829.069Z" transform="translate(-286.869 -258.9)" fill="#301c19"/>
    <path id="Trazado_704858" data-name="Trazado 704858" d="M465.889,643.048a2.182,2.182,0,1,1-2.182,2.182,2.182,2.182,0,0,1,2.182-2.182" transform="translate(-29.288 -121.73)" fill="#b45428" fill-rule="evenodd"/>
    <path id="Trazado_704859" data-name="Trazado 704859" d="M465.142,642.319a1.53,1.53,0,1,0,.448,1.082,1.525,1.525,0,0,0-.448-1.082m-1.082-1.751a2.833,2.833,0,1,1-2,.83A2.823,2.823,0,0,1,464.06,640.568Z" transform="translate(-27.459 -119.901)" fill="#301c19"/>
    <path id="Trazado_704860" data-name="Trazado 704860" d="M456.42,727.272a1.881,1.881,0,1,1-1.881,1.881,1.881,1.881,0,0,1,1.881-1.881" transform="translate(-22.528 -183.836)" fill="#b45428" fill-rule="evenodd"/>
    <path id="Trazado_704861" data-name="Trazado 704861" d="M455.461,726.455a1.23,1.23,0,1,0,.36.869,1.226,1.226,0,0,0-.36-.869m-.869-1.663a2.532,2.532,0,1,1-1.79.742A2.524,2.524,0,0,1,454.591,724.792Z" transform="translate(-20.699 -182.007)" fill="#301c19"/>
  </g>
</svg>
