<svg xmlns="http://www.w3.org/2000/svg" xmlns:xlink="http://www.w3.org/1999/xlink" width="437" height="437" viewBox="0 0 437 437">
  <defs>
    <filter id="Elipse_7069" x="3" y="3" width="431" height="431" filterUnits="userSpaceOnUse">
      <feOffset dy="3" input="SourceAlpha"/>
      <feGaussianBlur stdDeviation="3" result="blur"/>
      <feFlood flood-opacity="0.161"/>
      <feComposite operator="in" in2="blur"/>
      <feComposite in="SourceGraphic"/>
    </filter>
    <clipPath id="clip-path">
      <circle id="Elipse_7070" data-name="Elipse 7070" cx="218.5" cy="218.5" r="218.5" transform="translate(844.021 2871.021)" fill="#fff"/>
    </clipPath>
  </defs>
  <g id="Grupo_928166" data-name="Grupo 928166" transform="translate(-956 -6105)">
    <g transform="matrix(1, 0, 0, 1, 956, 6105)" filter="url(#Elipse_7069)">
      <circle id="Elipse_7069-2" data-name="Elipse 7069" cx="206.5" cy="206.5" r="206.5" transform="translate(12 9)" fill="#148d80"/>
    </g>
    <g id="Enmascarar_grupo_235" data-name="Enmascarar grupo 235" transform="translate(111.979 3233.979)" clip-path="url(#clip-path)">
      <g id="Grupo_928165" data-name="Grupo 928165" transform="translate(803.452 2812.603)">
        <g id="Grupo_928131" data-name="Grupo 928131" transform="translate(195.255 127.461)">
          <g id="Grupo_928126" data-name="Grupo 928126" transform="translate(0 22.732)">
            <g id="Grupo_928125" data-name="Grupo 928125">
              <g id="Grupo_928118" data-name="Grupo 928118" transform="translate(0 7.772)">
                <g id="Grupo_928116" data-name="Grupo 928116" transform="translate(0 0)">
                  <rect id="Rectángulo_300063" data-name="Rectángulo 300063" width="1.915" height="81.487" transform="translate(33.596 0.03) rotate(18.75)" fill="#fed000"/>
                  <rect id="Rectángulo_300064" data-name="Rectángulo 300064" width="1.916" height="81.487" transform="translate(33.499 0.677) rotate(-20.689)" fill="#fed000"/>
                  <g id="Grupo_928115" data-name="Grupo 928115" transform="translate(2.298 70.311)">
                    <g id="Grupo_928114" data-name="Grupo 928114">
                      <g id="Grupo_928113" data-name="Grupo 928113">
                        <path id="Trazado_752157" data-name="Trazado 752157" d="M194.01,226.707c-.025.42-.076.837-.069,1.263.221,13.02,15.339,23.322,33.767,23.01s33.187-11.122,32.966-24.142c-.007-.425-.073-.839-.111-1.26Z" transform="translate(-193.94 -225.578)" fill="#754320"/>
                      </g>
                    </g>
                  </g>
                  <path id="Trazado_752158" data-name="Trazado 752158" d="M259.806,222.3l-65.031,1.1a3.125,3.125,0,0,0,.106,6.249l65.031-1.1a3.125,3.125,0,0,0-.106-6.249Z" transform="translate(-191.704 -155.357)" fill="#fed000"/>
                </g>
                <g id="Grupo_928117" data-name="Grupo 928117" transform="translate(12.406 67.685)">
                  <path id="Trazado_752159" data-name="Trazado 752159" d="M205.846,223.184l-2.069,6.286,4.469-.076,2.07-6.286Z" transform="translate(-203.777 -223.019)" fill="#f8e040"/>
                  <path id="Trazado_752160" data-name="Trazado 752160" d="M212.579,223.069l-2.069,6.286,2.781-.047,2.07-6.286Z" transform="translate(-203.592 -223.022)" fill="#f8e040"/>
                </g>
              </g>
              <g id="Grupo_928124" data-name="Grupo 928124" transform="translate(121.143 9.387)">
                <g id="Grupo_928122" data-name="Grupo 928122" transform="translate(0 0)">
                  <rect id="Rectángulo_300065" data-name="Rectángulo 300065" width="1.915" height="81.487" transform="matrix(0.947, 0.321, -0.321, 0.947, 33.597, 0.03)" fill="#fed000"/>
                  <rect id="Rectángulo_300066" data-name="Rectángulo 300066" width="1.915" height="81.487" transform="translate(33.5 0.677) rotate(-20.689)" fill="#fed000"/>
                  <g id="Grupo_928121" data-name="Grupo 928121" transform="translate(2.298 70.312)">
                    <g id="Grupo_928120" data-name="Grupo 928120">
                      <g id="Grupo_928119" data-name="Grupo 928119">
                        <path id="Trazado_752161" data-name="Trazado 752161" d="M311.91,228.279c-.025.42-.076.836-.069,1.262.221,13.02,15.339,23.322,33.767,23.01s33.187-11.121,32.967-24.142c-.007-.425-.073-.839-.112-1.259Z" transform="translate(-311.84 -227.15)" fill="#754320"/>
                      </g>
                    </g>
                  </g>
                  <path id="Trazado_752162" data-name="Trazado 752162" d="M377.706,223.868l-65.031,1.1a3.125,3.125,0,0,0,.107,6.249l65.03-1.1a3.125,3.125,0,1,0-.106-6.249Z" transform="translate(-309.604 -156.929)" fill="#fed000"/>
                </g>
                <g id="Grupo_928123" data-name="Grupo 928123" transform="translate(12.406 67.685)">
                  <path id="Trazado_752163" data-name="Trazado 752163" d="M323.747,224.756l-2.069,6.286,4.469-.076,2.069-6.286Z" transform="translate(-321.678 -224.591)" fill="#f8e040"/>
                  <path id="Trazado_752164" data-name="Trazado 752164" d="M330.48,224.64l-2.069,6.286,2.781-.047,2.07-6.286Z" transform="translate(-321.493 -224.593)" fill="#f8e040"/>
                </g>
              </g>
              <path id="Trazado_752165" data-name="Trazado 752165" d="M290.456,157.685c-.038.112-.1.212-.15.32a1.166,1.166,0,0,1,.363.7,5.6,5.6,0,0,1-.214,2.373l73.607,1.27.133-7.661-75.983-1.31C289.83,154.212,291.11,155.728,290.456,157.685Z" transform="translate(-189.049 -149.48)" fill="#754320"/>
              <path id="Trazado_752166" data-name="Trazado 752166" d="M271.058,157.786c-.031-.42-.043-.845-.034-1.271a1.235,1.235,0,0,1,.767-1.16,11.481,11.481,0,0,1,.739-2.252l-66.79-1.217-.133,7.66,64.458,1.178A4.223,4.223,0,0,1,271.058,157.786Z" transform="translate(-191.321 -149.521)" fill="#754320"/>
              <path id="Trazado_752167" data-name="Trazado 752167" d="M210.631,155.747a6.059,6.059,0,1,1-5.953-6.162A6.059,6.059,0,0,1,210.631,155.747Z" transform="translate(-191.516 -149.584)" fill="#fed000"/>
              <path id="Trazado_752168" data-name="Trazado 752168" d="M370.147,158.562A6.058,6.058,0,1,1,364.2,152.4,6.059,6.059,0,0,1,370.147,158.562Z" transform="translate(-187.129 -149.507)" fill="#fed000"/>
            </g>
            <path id="Trazado_752169" data-name="Trazado 752169" d="M204.679,154.492a2.079,2.079,0,1,1-1.751-2.361A2.08,2.08,0,0,1,204.679,154.492Z" transform="translate(-191.46 -149.515)" fill="#f8e040"/>
            <path id="Trazado_752170" data-name="Trazado 752170" d="M365.955,156.229a2.078,2.078,0,1,1-2.184-1.969A2.079,2.079,0,0,1,365.955,156.229Z" transform="translate(-187.026 -149.456)" fill="#f8e040"/>
          </g>
          <g id="Grupo_928127" data-name="Grupo 928127" transform="translate(90.297 45.474)">
            <path id="Trazado_752171" data-name="Trazado 752171" d="M291.317,306.453l-9.8.2-1.931-134.735,9.8-.2Z" transform="translate(-279.584 -171.718)" fill="#fed000"/>
          </g>
          <path id="Trazado_752172" data-name="Trazado 752172" d="M289.387,171.718l-9.8.2.252,17.595,9.8-.189Z" transform="translate(-189.287 -126.244)" fill="#fbb411"/>
          <path id="Trazado_752173" data-name="Trazado 752173" d="M285.1,127.461s-3.543,17.283-37.391,30.113c33.495,13.726,36.575,31.1,36.575,31.1s3.543-17.283,37.391-30.112C288.181,144.832,285.1,127.461,285.1,127.461Zm-.471,35.355a4.75,4.75,0,1,1,4.812-4.686A4.751,4.751,0,0,1,284.629,162.816Z" transform="translate(-190.163 -127.461)" fill="#fed000"/>
          <path id="Trazado_752174" data-name="Trazado 752174" d="M291.172,296.272l-9.808-.131.06,4.167,9.808.131Z" transform="translate(-189.238 -122.822)" fill="#fbb411"/>
          <g id="Grupo_928128" data-name="Grupo 928128" transform="translate(59.485 177.223)">
            <path id="Trazado_752175" data-name="Trazado 752175" d="M307.952,300.548l-45.568-.607a3.759,3.759,0,0,0-3.808,3.707l-.032,2.4,53.083.707.032-2.4A3.758,3.758,0,0,0,307.952,300.548Z" transform="translate(-249.35 -299.941)" fill="#fed000"/>
            <path id="Trazado_752176" data-name="Trazado 752176" d="M316.232,306.653l-61.8-.824a4.727,4.727,0,0,0-4.789,4.664l-.048,3.641,71.25.949.049-3.641A4.727,4.727,0,0,0,316.232,306.653Z" transform="translate(-249.596 -299.779)" fill="#fed000"/>
            <rect id="Rectángulo_300067" data-name="Rectángulo 300067" width="53.087" height="1.491" transform="translate(9.215 4.618) rotate(0.764)" fill="#fbb411"/>
          </g>
          <g id="Grupo_928130" data-name="Grupo 928130" transform="translate(72.139 7.81)">
            <g id="Grupo_928129" data-name="Grupo 928129">
              <path id="Trazado_752177" data-name="Trazado 752177" d="M293.613,141.161,282.834,153.14a4.681,4.681,0,0,1,1.348-.2,4.75,4.75,0,1,1-4.813,4.686,4.7,4.7,0,0,1,.083-.729l-10.9,12.108a58.324,58.324,0,0,1,7.088,6.255l25.215-28.021A61.605,61.605,0,0,1,293.613,141.161Z" transform="translate(-261.729 -134.894)" fill="#f8e040"/>
              <path id="Trazado_752178" data-name="Trazado 752178" d="M288.489,135.062,261.912,164.6q2.227,1.336,4.165,2.668l25.473-28.309A41.093,41.093,0,0,1,288.489,135.062Z" transform="translate(-261.912 -135.062)" fill="#f8e040"/>
            </g>
          </g>
          <path id="Trazado_752179" data-name="Trazado 752179" d="M283.771,193.516c-.005-.814-.428-1.458-.945-1.437s-.926.695-.921,1.505l.68,100.8c.005.814.429,1.458.945,1.437s.926-.695.921-1.505Z" transform="translate(-189.223 -125.684)" fill="#f8e040"/>
          <path id="Trazado_752180" data-name="Trazado 752180" d="M275.83,307.864l-21.973-.292a1.471,1.471,0,0,0-.039,2.942l21.973.293a1.472,1.472,0,0,0,.039-2.943Z" transform="translate(-190.035 -122.508)" fill="#f8e040"/>
          <path id="Trazado_752181" data-name="Trazado 752181" d="M277.651,301.168l-14.9-.2a.938.938,0,1,0-.026,1.876l14.9.2a.938.938,0,0,0,.026-1.876Z" transform="translate(-189.776 -122.689)" fill="#f8e040"/>
        </g>
        <g id="Grupo_928135" data-name="Grupo 928135" transform="translate(311.29 249.835)">
          <path id="Trazado_752182" data-name="Trazado 752182" d="M408.754,249.906,304.633,261.088l.035,118.624c0,6.951,6.1,12.584,13.614,12.581l94.147-.027,0-1.77v-3.684l0-14.263,0-5.454L412.387,249.9Z" transform="translate(-304.632 -246.468)" fill="#165d98"/>
          <g id="Grupo_928132" data-name="Grupo 928132" transform="translate(2.965 3.438)">
            <path id="Trazado_752183" data-name="Trazado 752183" d="M311.066,249.935a20.819,20.819,0,0,1-2.561,3.921c-.124.182-.246.365-.37.548a1.739,1.739,0,0,1-.617.555l0,11.257,102.576-.03,0-16.28Z" transform="translate(-307.518 -249.906)" fill="#fff"/>
            <path id="Trazado_752184" data-name="Trazado 752184" d="M311.047,249.935a20.819,20.819,0,0,1-2.561,3.921c-.088.13-.176.259-.263.389l101.85-.03v-4.309Z" transform="translate(-307.499 -249.906)" fill="#d9d9d9"/>
          </g>
          <path id="Trazado_752185" data-name="Trazado 752185" d="M318.239,246.588l94.146-.028,0,3.755-95.845.029c-4.26,0-7.711,4.894-7.71,8.832s3.456,7.131,7.716,7.129l95.844-.028,0,5.453-94.147.028c-7.517,0-13.612-5.63-13.614-12.581S310.722,246.59,318.239,246.588Z" transform="translate(-304.632 -246.56)" fill="#0a548b"/>
          <rect id="Rectángulo_300068" data-name="Rectángulo 300068" width="2.548" height="126.221" transform="translate(14.031 19.605)" fill="#0a548b"/>
          <g id="Grupo_928134" data-name="Grupo 928134" transform="translate(39.319 47.1)">
            <g id="Grupo_928133" data-name="Grupo 928133">
              <path id="Trazado_752186" data-name="Trazado 752186" d="M342.9,309.285l-.005-16.814h1.173l.005,15.709,8.016,0v1.1Z" transform="translate(-342.899 -292.397)" fill="#fff"/>
              <path id="Trazado_752187" data-name="Trazado 752187" d="M363.285,303.347l-6.832,0-2.344,5.935h-1.3l6.758-16.885h.747l6.629,16.881h-1.322Zm-6.406-1.056,6.015,0-2.29-6.06q-.288-.712-.691-1.978a18.548,18.548,0,0,1-.678,2Z" transform="translate(-342.626 -292.399)" fill="#fff"/>
              <path id="Trazado_752188" data-name="Trazado 752188" d="M382.787,309.273h-.966L378.126,296.3q-.461-1.6-.692-2.622-.183,1-.522,2.3t-3.705,13.3h-.989l-4.628-16.812h1.231l2.947,10.833q.173.657.323,1.213t.27,1.047c.08.325.154.64.219.942s.124.607.179.915q.276-1.564,1.171-4.75l2.872-10.2h1.3l3.373,11.706q.587,2.024.84,3.266.15-.829.384-1.76t3.545-13.216h1.185Z" transform="translate(-342.22 -292.397)" fill="#fff"/>
            </g>
          </g>
          <rect id="Rectángulo_300069" data-name="Rectángulo 300069" width="26.1" height="1.146" transform="translate(48.517 73.289)" fill="#fff"/>
          <rect id="Rectángulo_300070" data-name="Rectángulo 300070" width="26.1" height="1.146" transform="translate(48.519 81.556)" fill="#fff"/>
        </g>
        <g id="Grupo_928141" data-name="Grupo 928141" transform="translate(75.596 313.188)">
          <g id="Grupo_928136" data-name="Grupo 928136" transform="translate(5.873 61.184)">
            <path id="Rectángulo_300071" data-name="Rectángulo 300071" d="M5.4,0H154.5a5.4,5.4,0,0,1,5.4,5.4V23.007a5.4,5.4,0,0,1-5.4,5.4H5.4a5.4,5.4,0,0,1-5.4-5.4V5.4A5.4,5.4,0,0,1,5.4,0Z" transform="translate(0)" fill="#714336"/>
            <path id="Trazado_752189" data-name="Trazado 752189" d="M235.318,386.861H86.513c-3.065,0-5.55.769-5.55,1.717v5.351c0,.948,2.484,1.716,5.55,1.716H235.318c3.065,0,5.55-.768,5.55-1.716v-5.351C240.868,387.63,238.383,386.861,235.318,386.861Z" transform="translate(-80.963 -367.238)" fill="#613a2e"/>
            <rect id="Rectángulo_300072" data-name="Rectángulo 300072" width="5.532" height="28.408" transform="translate(23.278)" fill="#ffcb06"/>
            <rect id="Rectángulo_300073" data-name="Rectángulo 300073" width="5.532" height="28.408" transform="translate(50.854)" fill="#ffcb06"/>
            <path id="Trazado_752190" data-name="Trazado 752190" d="M228.915,382.558a10.3,10.3,0,1,1-10.3-10.3A10.3,10.3,0,0,1,228.915,382.558Z" transform="translate(-77.461 -367.64)" fill="#ffcb06"/>
          </g>
          <g id="Grupo_928138" data-name="Grupo 928138" transform="translate(13.91 32.776)">
            <rect id="Rectángulo_300074" data-name="Rectángulo 300074" width="159.904" height="28.407" rx="5.401" transform="translate(0 0.001)" fill="#c40001"/>
            <path id="Trazado_752191" data-name="Trazado 752191" d="M243.139,359.214H94.335c-3.065,0-5.55.769-5.55,1.716v5.352c0,.948,2.484,1.716,5.55,1.716h148.8c3.065,0,5.55-.768,5.55-1.716V360.93C248.689,359.983,246.2,359.214,243.139,359.214Z" transform="translate(-88.785 -339.591)" fill="#a10c0a"/>
            <rect id="Rectángulo_300075" data-name="Rectángulo 300075" width="2.295" height="28.408" transform="translate(23.277)" fill="#ffcb06"/>
            <rect id="Rectángulo_300076" data-name="Rectángulo 300076" width="2.295" height="28.408" transform="translate(15.018)" fill="#ffcb06"/>
            <rect id="Rectángulo_300077" data-name="Rectángulo 300077" width="2.295" height="28.408" transform="translate(137.562)" fill="#ffcb06"/>
            <rect id="Rectángulo_300078" data-name="Rectángulo 300078" width="2.294" height="28.408" transform="translate(129.303)" fill="#ffcb06"/>
            <g id="Grupo_928137" data-name="Grupo 928137" transform="translate(43.366 8.325)">
              <path id="Trazado_752192" data-name="Trazado 752192" d="M132.14,362.324a2.762,2.762,0,0,1-1.15-.206v-.671a4.563,4.563,0,0,0,1.134.153q1.845,0,1.844-2.012V348.373h.777v11.139Q134.746,362.325,132.14,362.324Z" transform="translate(-130.99 -348.214)" fill="#fff"/>
              <path id="Trazado_752193" data-name="Trazado 752193" d="M148.873,348.373v7.209a4,4,0,0,1-1.113,3,4.267,4.267,0,0,1-3.1,1.081,3.767,3.767,0,0,1-4.107-4.115v-7.177h.785v7.209a3.105,3.105,0,0,0,3.413,3.4,3.048,3.048,0,0,0,3.346-3.321v-7.285Z" transform="translate(-130.727 -348.214)" fill="#fff"/>
              <path id="Trazado_752194" data-name="Trazado 752194" d="M160.807,356.645a2.671,2.671,0,0,1-1.024,2.209,4.251,4.251,0,0,1-2.724.816,8.572,8.572,0,0,1-3.132-.449v-.778a7.908,7.908,0,0,0,3.071.511,3.454,3.454,0,0,0,2.175-.628,2,2,0,0,0,.8-1.65,1.9,1.9,0,0,0-.266-1.047,2.442,2.442,0,0,0-.869-.759,10.779,10.779,0,0,0-1.767-.739,6.036,6.036,0,0,1-2.358-1.269,2.718,2.718,0,0,1,.328-3.855,3.882,3.882,0,0,1,2.517-.788,7.384,7.384,0,0,1,2.949.593l-.282.672a6.875,6.875,0,0,0-2.652-.579,3.107,3.107,0,0,0-1.966.571,1.866,1.866,0,0,0-.732,1.555,2.035,2.035,0,0,0,.225,1.013,2.072,2.072,0,0,0,.736.713,10.009,10.009,0,0,0,1.752.757,9.494,9.494,0,0,1,1.958.872,2.811,2.811,0,0,1,.957.961A2.63,2.63,0,0,1,160.807,356.645Z" transform="translate(-130.359 -348.218)" fill="#fff"/>
              <path id="Trazado_752195" data-name="Trazado 752195" d="M168.895,359.512h-.784V349.1h-3.62v-.732h8.024v.732h-3.62Z" transform="translate(-130.069 -348.214)" fill="#fff"/>
              <path id="Trazado_752196" data-name="Trazado 752196" d="M176.946,359.512V348.373h.777v11.139Z" transform="translate(-129.726 -348.214)" fill="#fff"/>
              <path id="Trazado_752197" data-name="Trazado 752197" d="M188.579,348.919a4.207,4.207,0,0,0-3.3,1.341,5.3,5.3,0,0,0-1.2,3.672,5.492,5.492,0,0,0,1.135,3.7,4.048,4.048,0,0,0,3.246,1.319,8.8,8.8,0,0,0,2.575-.359v.686a8.4,8.4,0,0,1-2.758.388,4.7,4.7,0,0,1-3.7-1.516,6.16,6.16,0,0,1-1.348-4.236,6.654,6.654,0,0,1,.643-3,4.668,4.668,0,0,1,1.853-2,5.468,5.468,0,0,1,2.807-.7,6.745,6.745,0,0,1,2.918.609l-.312.7A5.657,5.657,0,0,0,188.579,348.919Z" transform="translate(-129.553 -348.218)" fill="#fff"/>
              <path id="Trazado_752198" data-name="Trazado 752198" d="M202.367,359.512h-6.088V348.373h6.088v.716h-5.31V353.3h5.013v.717h-5.013V358.8h5.31Z" transform="translate(-129.194 -348.214)" fill="#fff"/>
            </g>
          </g>
          <g id="Grupo_928140" data-name="Grupo 928140">
            <g id="Grupo_928139" data-name="Grupo 928139" transform="translate(11.876 7.102)">
              <rect id="Rectángulo_300079" data-name="Rectángulo 300079" width="153.374" height="18.573" fill="#fff"/>
              <rect id="Rectángulo_300080" data-name="Rectángulo 300080" width="153.374" height="4.916" fill="#d9d9d9"/>
            </g>
            <path id="Trazado_752199" data-name="Trazado 752199" d="M111.505,333.7c6.4-9.215,0-18.573,0-18.573H78.14s6.4,9.359,0,18.573Z" transform="translate(-75.167 -308.027)" fill="#d9d9d9"/>
            <path id="Trazado_752200" data-name="Trazado 752200" d="M230.763,308.217H75.247v7.1H230.763c7.195,0,9.735,4.157,9.735,9.287s-2.54,9.287-9.735,9.287H75.247v7.1H230.763c12.7,0,19.7-7.337,19.7-16.388S243.458,308.217,230.763,308.217Z" transform="translate(-75.247 -308.217)" fill="#502721"/>
          </g>
        </g>
        <g id="Grupo_928146" data-name="Grupo 928146" transform="translate(84.878 176.815)">
          <rect id="Rectángulo_300081" data-name="Rectángulo 300081" width="131.088" height="7.679" transform="translate(5.911 43.071)" fill="#a6a6a6"/>
          <path id="Trazado_752201" data-name="Trazado 752201" d="M225.791,219.96l-69.809-44.467L86.172,219.96H225.791Z" transform="translate(-84.229 -175.494)" fill="#f4f4f4"/>
          <path id="Trazado_752202" data-name="Trazado 752202" d="M214.367,216.322l-58.684-37.379L97,216.322H214.367Z" transform="translate(-83.931 -175.399)" fill="#c9c9c9"/>
          <rect id="Rectángulo_300082" data-name="Rectángulo 300082" width="134.058" height="6.91" transform="translate(4.425 120.632)" fill="#c9c9c9"/>
          <rect id="Rectángulo_300083" data-name="Rectángulo 300083" width="142.909" height="8.832" transform="translate(0 127.542)" fill="#f4f4f4"/>
          <path id="Trazado_752203" data-name="Trazado 752203" d="M163.325,201.713a8.972,8.972,0,1,1-8.972-8.972A8.972,8.972,0,0,1,163.325,201.713Z" transform="translate(-82.6 -175.019)" fill="#a6a6a6"/>
          <g id="Grupo_928142" data-name="Grupo 928142" transform="translate(11.586 50.75)">
            <rect id="Rectángulo_300084" data-name="Rectángulo 300084" width="15.576" height="62.054" transform="translate(3.06 3.881)" fill="#d9d9d9"/>
            <path id="Trazado_752204" data-name="Trazado 752204" d="M102.037,231.27a1.354,1.354,0,0,0-1.217,1.458v52.48a1.237,1.237,0,1,0,2.434,0v-52.48A1.354,1.354,0,0,0,102.037,231.27Z" transform="translate(-95.412 -224.71)" fill="#b6b5b5"/>
            <path id="Trazado_752205" data-name="Trazado 752205" d="M106.281,231.27a1.354,1.354,0,0,0-1.217,1.458v52.48a1.236,1.236,0,1,0,2.433,0v-52.48A1.354,1.354,0,0,0,106.281,231.27Z" transform="translate(-95.295 -224.71)" fill="#b6b5b5"/>
            <path id="Trazado_752206" data-name="Trazado 752206" d="M110.715,231.27a1.354,1.354,0,0,0-1.217,1.458v52.48a1.237,1.237,0,1,0,2.434,0v-52.48A1.354,1.354,0,0,0,110.715,231.27Z" transform="translate(-95.173 -224.71)" fill="#b6b5b5"/>
            <rect id="Rectángulo_300085" data-name="Rectángulo 300085" width="21.695" height="3.881" fill="#f4f4f4"/>
            <rect id="Rectángulo_300086" data-name="Rectángulo 300086" width="21.695" height="3.881" transform="translate(0 65.935)" fill="#f4f4f4"/>
          </g>
          <g id="Grupo_928143" data-name="Grupo 928143" transform="translate(45.457 50.75)">
            <rect id="Rectángulo_300087" data-name="Rectángulo 300087" width="15.576" height="62.054" transform="translate(3.059 3.881)" fill="#d9d9d9"/>
            <path id="Trazado_752207" data-name="Trazado 752207" d="M135,231.27a1.354,1.354,0,0,0-1.217,1.458v52.48a1.237,1.237,0,1,0,2.434,0v-52.48A1.354,1.354,0,0,0,135,231.27Z" transform="translate(-128.376 -224.71)" fill="#b6b5b5"/>
            <path id="Trazado_752208" data-name="Trazado 752208" d="M139.245,231.27a1.354,1.354,0,0,0-1.217,1.458v52.48a1.236,1.236,0,1,0,2.433,0v-52.48A1.354,1.354,0,0,0,139.245,231.27Z" transform="translate(-128.26 -224.71)" fill="#b6b5b5"/>
            <path id="Trazado_752209" data-name="Trazado 752209" d="M143.679,231.27a1.354,1.354,0,0,0-1.217,1.458v52.48a1.237,1.237,0,1,0,2.434,0v-52.48A1.354,1.354,0,0,0,143.679,231.27Z" transform="translate(-128.138 -224.71)" fill="#b6b5b5"/>
            <rect id="Rectángulo_300088" data-name="Rectángulo 300088" width="21.695" height="3.881" fill="#f4f4f4"/>
            <rect id="Rectángulo_300089" data-name="Rectángulo 300089" width="21.695" height="3.881" transform="translate(0 65.935)" fill="#f4f4f4"/>
          </g>
          <g id="Grupo_928144" data-name="Grupo 928144" transform="translate(79.506 50.75)">
            <rect id="Rectángulo_300090" data-name="Rectángulo 300090" width="15.576" height="62.054" transform="translate(3.06 3.881)" fill="#d9d9d9"/>
            <path id="Trazado_752210" data-name="Trazado 752210" d="M168.139,231.27a1.354,1.354,0,0,0-1.217,1.458v52.48a1.237,1.237,0,1,0,2.434,0v-52.48A1.354,1.354,0,0,0,168.139,231.27Z" transform="translate(-161.514 -224.71)" fill="#b6b5b5"/>
            <path id="Trazado_752211" data-name="Trazado 752211" d="M172.383,231.27a1.354,1.354,0,0,0-1.217,1.458v52.48a1.236,1.236,0,1,0,2.433,0v-52.48A1.354,1.354,0,0,0,172.383,231.27Z" transform="translate(-161.397 -224.71)" fill="#b6b5b5"/>
            <path id="Trazado_752212" data-name="Trazado 752212" d="M176.817,231.27a1.354,1.354,0,0,0-1.217,1.458v52.48a1.237,1.237,0,1,0,2.434,0v-52.48A1.354,1.354,0,0,0,176.817,231.27Z" transform="translate(-161.275 -224.71)" fill="#b6b5b5"/>
            <rect id="Rectángulo_300091" data-name="Rectángulo 300091" width="21.695" height="3.881" fill="#f4f4f4"/>
            <rect id="Rectángulo_300092" data-name="Rectángulo 300092" width="21.695" height="3.881" transform="translate(0 65.935)" fill="#f4f4f4"/>
          </g>
          <g id="Grupo_928145" data-name="Grupo 928145" transform="translate(112.844 50.75)">
            <rect id="Rectángulo_300093" data-name="Rectángulo 300093" width="15.576" height="62.054" transform="translate(3.059 3.881)" fill="#d9d9d9"/>
            <path id="Trazado_752213" data-name="Trazado 752213" d="M200.585,231.27a1.354,1.354,0,0,0-1.217,1.458v52.48a1.236,1.236,0,1,0,2.433,0v-52.48A1.354,1.354,0,0,0,200.585,231.27Z" transform="translate(-193.96 -224.71)" fill="#b6b5b5"/>
            <path id="Trazado_752214" data-name="Trazado 752214" d="M204.828,231.27a1.354,1.354,0,0,0-1.217,1.458v52.48a1.237,1.237,0,1,0,2.434,0v-52.48A1.354,1.354,0,0,0,204.828,231.27Z" transform="translate(-193.843 -224.71)" fill="#b6b5b5"/>
            <path id="Trazado_752215" data-name="Trazado 752215" d="M209.263,231.27a1.354,1.354,0,0,0-1.217,1.458v52.48a1.237,1.237,0,1,0,2.434,0v-52.48A1.354,1.354,0,0,0,209.263,231.27Z" transform="translate(-193.721 -224.71)" fill="#b6b5b5"/>
            <rect id="Rectángulo_300094" data-name="Rectángulo 300094" width="21.695" height="3.881" fill="#f4f4f4"/>
            <rect id="Rectángulo_300095" data-name="Rectángulo 300095" width="21.695" height="3.881" transform="translate(0 65.935)" fill="#f4f4f4"/>
          </g>
        </g>
        <g id="Grupo_928153" data-name="Grupo 928153" transform="translate(389.76 317.991)">
          <path id="Trazado_752216" data-name="Trazado 752216" d="M413.855,398.988c13.064-3.941,28.886-11.67,32.31-26.249,3.312-14.1-9.591-25.068-8.163-39.207.289-2.872,1.533-12.381,4.6-14.075-18.782,10.35-28.749-6.567-28.749-6.567s-9.966,16.917-28.749,6.567c3.071,1.693,4.315,11.2,4.6,14.075,1.427,14.139-11.474,25.106-8.163,39.207C384.971,387.318,400.794,395.047,413.855,398.988Z" transform="translate(-381.002 -312.891)" fill="#f8e040"/>
          <path id="Trazado_752217" data-name="Trazado 752217" d="M413.778,395.089c11.912-3.593,26.337-10.64,29.46-23.933,3.019-12.857-8.745-22.857-7.443-35.749.263-2.619,1.4-11.29,4.2-12.833-17.126,9.438-26.215-5.988-26.215-5.988s-9.086,15.426-26.213,5.988c2.8,1.543,3.934,10.214,4.2,12.833,1.3,12.892-10.462,22.892-7.443,35.749C387.441,384.449,401.868,391.5,413.778,395.089Z" transform="translate(-380.925 -312.789)" fill="#fbb411"/>
          <path id="Trazado_752218" data-name="Trazado 752218" d="M434.848,365.173a21.3,21.3,0,1,1-21.3-21.3A21.3,21.3,0,0,1,434.848,365.173Z" transform="translate(-380.693 -312.039)" fill="#f8e040"/>
          <g id="Grupo_928147" data-name="Grupo 928147" transform="translate(2.9 3.797)">
            <path id="Trazado_752219" data-name="Trazado 752219" d="M391.844,337.584c-.371,10.457-8.461,19.182-8,29.539C384.232,356.941,392.3,348.211,391.844,337.584Z" transform="translate(-383.825 -316.009)" fill="#e8870f"/>
            <path id="Trazado_752220" data-name="Trazado 752220" d="M434.324,337.584c-.455,10.627,7.612,19.357,8,29.539C442.785,356.766,434.7,348.041,434.324,337.584Z" transform="translate(-382.436 -316.009)" fill="#e8870f"/>
            <path id="Trazado_752221" data-name="Trazado 752221" d="M389.4,325.155c15.877,7.3,24.281-6.961,24.281-6.961s8.406,14.262,24.282,6.961a5.325,5.325,0,0,1,1.933-2.581c-17.126,9.438-26.215-5.988-26.215-5.988s-9.086,15.426-26.213,5.988A5.318,5.318,0,0,1,389.4,325.155Z" transform="translate(-383.724 -316.586)" fill="#e8870f"/>
          </g>
          <path id="Trazado_752222" data-name="Trazado 752222" d="M413.412,347.84l5.043,10.218,11.278,1.639-8.16,7.954,1.925,11.231-10.086-5.3-10.085,5.3,1.927-11.231-8.159-7.954,11.275-1.639Z" transform="translate(-380.56 -311.93)" fill="#fbb411"/>
          <g id="Grupo_928152" data-name="Grupo 928152" transform="translate(16.535 35.91)">
            <g id="Grupo_928151" data-name="Grupo 928151">
              <g id="Grupo_928148" data-name="Grupo 928148">
                <path id="Trazado_752223" data-name="Trazado 752223" d="M408.369,359.31l5.043-10.218,5.043,10.218,10.161,1.477,1.118-1.089-11.278-1.639-5.043-10.218-5.043,10.218L397.094,359.7l1.117,1.089Z" transform="translate(-397.094 -347.84)" fill="#e8870f"/>
              </g>
              <g id="Grupo_928149" data-name="Grupo 928149" transform="translate(6.233 20.883)">
                <path id="Trazado_752224" data-name="Trazado 752224" d="M404.9,368.164l-1.744,10.16.237-.124,1.69-9.856Z" transform="translate(-403.16 -368.164)" fill="#e8870f"/>
              </g>
              <g id="Grupo_928150" data-name="Grupo 928150" transform="translate(24.48 20.883)">
                <path id="Trazado_752225" data-name="Trazado 752225" d="M420.919,368.344l1.69,9.856.235.124-1.742-10.16Z" transform="translate(-420.919 -368.164)" fill="#e8870f"/>
              </g>
            </g>
          </g>
        </g>
        <g id="Grupo_928157" data-name="Grupo 928157" transform="translate(241.374 318.067)">
          <g id="Grupo_928154" data-name="Grupo 928154" transform="translate(0 89.308)">
            <path id="Trazado_752226" data-name="Trazado 752226" d="M301.09,399.883H250.268a6.4,6.4,0,0,0-6.4,6.4V409.9h63.62v-3.621A6.4,6.4,0,0,0,301.09,399.883Z" transform="translate(-236.388 -399.883)" fill="#422513"/>
            <path id="Trazado_752227" data-name="Trazado 752227" d="M308.039,409.635H244.579a8.247,8.247,0,0,0-7.991,8.482v4.8H316.03v-4.8A8.248,8.248,0,0,0,308.039,409.635Z" transform="translate(-236.588 -399.615)" fill="#5f331b"/>
          </g>
          <g id="Grupo_928156" data-name="Grupo 928156" transform="translate(20.675)">
            <g id="Grupo_928155" data-name="Grupo 928155">
              <path id="Trazado_752228" data-name="Trazado 752228" d="M400.771,384.6,299.933,349.714l-4.8,2.365-1.629,7.934,7.872,2.186,93.388,38.416a8.555,8.555,0,1,0,6.011-16.012Z" transform="translate(-255.698 -311.955)" fill="#894f26"/>
              <path id="Trazado_752229" data-name="Trazado 752229" d="M298.686,377.59l-32.771-12.338c14.831-15.961,14.7-39.036,14.7-39.036l32.772,12.337S297.3,354.724,298.686,377.59Z" transform="translate(-256.457 -312.601)" fill="#5f331b"/>
              <path id="Trazado_752230" data-name="Trazado 752230" d="M319.3,326.665l-17.761-6.687-17.761-6.687a5.052,5.052,0,0,0-6.508,2.948l-1.248,3.315a5.051,5.051,0,0,0,2.948,6.508l1.376.519,32.772,12.337,1.376.519A5.053,5.053,0,0,0,321,336.488l1.247-3.315A5.051,5.051,0,0,0,319.3,326.665Z" transform="translate(-256.188 -312.965)" fill="#754320"/>
              <path id="Trazado_752231" data-name="Trazado 752231" d="M300.315,377.086,282.554,370.4l-17.762-6.687a5.052,5.052,0,0,0-6.508,2.948l-1.248,3.315a5.052,5.052,0,0,0,2.949,6.508l1.376.519,32.771,12.337,1.377.518a5.052,5.052,0,0,0,6.508-2.948l1.248-3.315A5.054,5.054,0,0,0,300.315,377.086Z" transform="translate(-256.71 -311.579)" fill="#754320"/>
              <path id="Trazado_752232" data-name="Trazado 752232" d="M312.755,338.307l-8.344-3.141c-4.645,5.649-14.651,19.892-15.682,38.665l9.33,3.513C296.677,354.478,312.755,338.307,312.755,338.307Z" transform="translate(-255.829 -312.355)" fill="#422513"/>
            </g>
            <path id="Trazado_752233" data-name="Trazado 752233" d="M260.386,376.652l.873.329,5.127,1.93,5.493-12.514-6-2.259Z" transform="translate(-256.609 -311.558)" fill="#894f26"/>
            <path id="Trazado_752234" data-name="Trazado 752234" d="M281.99,327.218l6,2.259,5.493-12.514-6-2.259Z" transform="translate(-256.014 -312.917)" fill="#894f26"/>
          </g>
          <path id="Trazado_752235" data-name="Trazado 752235" d="M267.995,402.089H250.36a1.372,1.372,0,1,0,0,2.743h17.635a1.372,1.372,0,1,0,0-2.743Z" transform="translate(-236.247 -310.514)" fill="#5f331b"/>
        </g>
        <g id="Grupo_928164" data-name="Grupo 928164" transform="translate(62.553 139.785)">
          <g id="Grupo_928163" data-name="Grupo 928163">
            <g id="Grupo_928161" data-name="Grupo 928161">
              <g id="Grupo_928159" data-name="Grupo 928159">
                <g id="Grupo_928158" data-name="Grupo 928158">
                  <path id="Trazado_752236" data-name="Trazado 752236" d="M63.239,142.161h0a5.315,5.315,0,0,0,2.02,7.241l43.44,24.424,5.22-9.26L70.48,140.141A5.315,5.315,0,0,0,63.239,142.161Z" transform="translate(-62.553 -139.455)" fill="#754320"/>
                </g>
              </g>
              <g id="Grupo_928160" data-name="Grupo 928160" transform="translate(45.295 23.602)">
                <rect id="Rectángulo_300096" data-name="Rectángulo 300096" width="14.094" height="7.434" transform="translate(0 12.277) rotate(-60.591)" fill="#fbb411"/>
              </g>
              <path id="Trazado_752237" data-name="Trazado 752237" d="M108.7,168.653l-43.44-24.425a5.268,5.268,0,0,1-2.043-2.089,5.311,5.311,0,0,0,2.043,7.189l43.44,24.424,5.22-9.26-2.182-1.228Z" transform="translate(-62.553 -139.382)" fill="#563118"/>
            </g>
            <path id="Trazado_752238" data-name="Trazado 752238" d="M188.634,182.557a40.223,40.223,0,1,1-48.121-30.335A40.223,40.223,0,0,1,188.634,182.557Zm-72.565,16.45a34.184,34.184,0,1,0,25.78-40.9A34.183,34.183,0,0,0,116.069,199.007Z" transform="translate(-61.271 -139.132)" fill="#fed000"/>
            <path id="Trazado_752239" data-name="Trazado 752239" d="M141.687,157.95a34.184,34.184,0,1,0,40.9,25.78A34.183,34.183,0,0,0,141.687,157.95Z" transform="translate(-61.109 -138.97)" fill="#fff" style="mix-blend-mode: soft-light;isolation: isolate"/>
            <path id="Trazado_752240" data-name="Trazado 752240" d="M178.533,184.391a30.782,30.782,0,0,1-23.215,36.828s9.251-38.33-13.611-60.043A30.782,30.782,0,0,1,178.533,184.391Z" transform="translate(-60.376 -138.879)" fill="#fff" style="mix-blend-mode: soft-light;isolation: isolate"/>
            <g id="Grupo_928162" data-name="Grupo 928162" transform="translate(60.549 12.328)">
              <path id="Trazado_752241" data-name="Trazado 752241" d="M124.176,213.172l-2.694,5.852a40.408,40.408,0,0,0,8.3,6.01l2.53-5.494A34.316,34.316,0,0,1,124.176,213.172Z" transform="translate(-121.482 -149.756)" fill="#f8e040"/>
              <path id="Trazado_752242" data-name="Trazado 752242" d="M160.031,159.346l2.536-5.5a40.067,40.067,0,0,0-9.968-2.389l-2.692,5.845A33.986,33.986,0,0,1,160.031,159.346Z" transform="translate(-120.7 -151.453)" fill="#f8e040"/>
              <path id="Trazado_752243" data-name="Trazado 752243" d="M169.067,164.481l2.584-5.61a40.538,40.538,0,0,0-6.368-3.806l-2.527,5.485A34.391,34.391,0,0,1,169.067,164.481Z" transform="translate(-120.347 -151.354)" fill="#f8e040"/>
              <path id="Trazado_752244" data-name="Trazado 752244" d="M135,220.824l-2.528,5.489a40.262,40.262,0,0,0,7.03,2.368l2.588-5.621A34.205,34.205,0,0,1,135,220.824Z" transform="translate(-121.18 -149.545)" fill="#f8e040"/>
            </g>
            <path id="Trazado_752245" data-name="Trazado 752245" d="M183.838,183.487a35.436,35.436,0,1,0-26.725,42.394A35.438,35.438,0,0,0,183.838,183.487Zm-67.9,15.392a34.184,34.184,0,1,1,40.9,25.78A34.183,34.183,0,0,1,115.94,198.879Z" transform="translate(-61.143 -139.004)" fill="#fbb411"/>
          </g>
        </g>
      </g>
    </g>
  </g>
</svg>
